<svg width="91" height="45" viewBox="0 0 91 45" fill="none" xmlns="http://www.w3.org/2000/svg">
<g filter="url(#filter0_d_11056_13085)">
<path d="M7.41139 5.30041C7.35487 4.60481 8.13306 4.15552 8.7072 4.55227L24.4649 15.4414C25.11 15.8871 24.8288 16.8967 24.0456 16.9468L15.7305 17.4779C15.4725 17.4944 15.2369 17.6304 15.0937 17.8456L10.4761 24.7811C10.0412 25.4343 9.02626 25.1731 8.96275 24.3915L7.41139 5.30041Z" fill="#FC4949"/>
<path d="M7.90975 5.25991C7.88739 4.98475 8.19583 4.80667 8.42295 4.96361L24.1807 15.8527C24.4336 16.0275 24.3261 16.4278 24.0137 16.4478L15.6987 16.9789C15.285 17.0054 14.9072 17.2235 14.6775 17.5685L10.0599 24.504C9.88644 24.7646 9.48601 24.6575 9.46111 24.3511L7.90975 5.25991Z" stroke="white"/>
</g>
<rect width="52" height="21" transform="translate(19 24)" fill="#FC4949"/>
<path d="M31.0795 33H30.0227C29.9602 32.696 29.8509 32.429 29.6946 32.1989C29.5412 31.9688 29.3537 31.7756 29.1321 31.6193C28.9134 31.4602 28.6705 31.3409 28.4034 31.2614C28.1364 31.1818 27.858 31.142 27.5682 31.142C27.0398 31.142 26.5611 31.2756 26.1321 31.5426C25.706 31.8097 25.3665 32.2031 25.1136 32.723C24.8636 33.2429 24.7386 33.8807 24.7386 34.6364C24.7386 35.392 24.8636 36.0298 25.1136 36.5497C25.3665 37.0696 25.706 37.4631 26.1321 37.7301C26.5611 37.9972 27.0398 38.1307 27.5682 38.1307C27.858 38.1307 28.1364 38.0909 28.4034 38.0114C28.6705 37.9318 28.9134 37.8139 29.1321 37.6577C29.3537 37.4986 29.5412 37.304 29.6946 37.0739C29.8509 36.8409 29.9602 36.5739 30.0227 36.2727H31.0795C31 36.7187 30.8551 37.1179 30.6449 37.4702C30.4347 37.8224 30.1733 38.1222 29.8608 38.3693C29.5483 38.6136 29.1974 38.7997 28.8082 38.9276C28.4219 39.0554 28.0085 39.1193 27.5682 39.1193C26.8239 39.1193 26.1619 38.9375 25.5824 38.5739C25.0028 38.2102 24.5469 37.6932 24.2145 37.0227C23.8821 36.3523 23.7159 35.5568 23.7159 34.6364C23.7159 33.7159 23.8821 32.9205 24.2145 32.25C24.5469 31.5795 25.0028 31.0625 25.5824 30.6989C26.1619 30.3352 26.8239 30.1534 27.5682 30.1534C28.0085 30.1534 28.4219 30.2173 28.8082 30.3452C29.1974 30.473 29.5483 30.6605 29.8608 30.9077C30.1733 31.152 30.4347 31.4503 30.6449 31.8026C30.8551 32.152 31 32.5511 31.0795 33ZM33.7766 35.0625V39H32.7709V30.2727H33.7766V33.4773H33.8618C34.0152 33.1392 34.2454 32.8707 34.5522 32.6719C34.8618 32.4702 35.2738 32.3693 35.788 32.3693C36.234 32.3693 36.6246 32.4588 36.9598 32.6378C37.2951 32.8139 37.555 33.0852 37.7397 33.4517C37.9272 33.8153 38.0209 34.2784 38.0209 34.8409V39H37.0152V34.9091C37.0152 34.3892 36.8803 33.9872 36.6104 33.7031C36.3434 33.4162 35.9726 33.2727 35.4982 33.2727C35.1687 33.2727 34.8732 33.3423 34.6118 33.4815C34.3533 33.6207 34.1488 33.8239 33.9982 34.0909C33.8505 34.358 33.7766 34.6818 33.7766 35.0625ZM41.9069 39.1534C41.4921 39.1534 41.1157 39.0753 40.7776 38.919C40.4396 38.7599 40.1711 38.5312 39.9722 38.233C39.7734 37.9318 39.6739 37.5682 39.6739 37.142C39.6739 36.767 39.7478 36.4631 39.8955 36.2301C40.0433 35.9943 40.2407 35.8097 40.4879 35.6761C40.735 35.5426 41.0078 35.4432 41.3061 35.3778C41.6072 35.3097 41.9097 35.2557 42.2137 35.2159C42.6114 35.1648 42.9339 35.1264 43.1811 35.1009C43.4311 35.0724 43.6129 35.0256 43.7265 34.9602C43.843 34.8949 43.9012 34.7812 43.9012 34.6193V34.5852C43.9012 34.1648 43.7862 33.8381 43.5561 33.6051C43.3288 33.3722 42.9836 33.2557 42.5205 33.2557C42.0404 33.2557 41.664 33.3608 41.3913 33.571C41.1186 33.7812 40.9268 34.0057 40.816 34.2443L39.8614 33.9034C40.0319 33.5057 40.2592 33.196 40.5433 32.9744C40.8302 32.75 41.1427 32.5937 41.4808 32.5057C41.8217 32.4148 42.1569 32.3693 42.4864 32.3693C42.6967 32.3693 42.9382 32.3949 43.2109 32.446C43.4864 32.4943 43.7521 32.5952 44.0078 32.7486C44.2663 32.902 44.4808 33.1335 44.6512 33.4432C44.8217 33.7528 44.9069 34.1676 44.9069 34.6875V39H43.9012V38.1136H43.8501C43.7819 38.2557 43.6683 38.4077 43.5092 38.5696C43.3501 38.7315 43.1384 38.8693 42.8742 38.983C42.61 39.0966 42.2876 39.1534 41.9069 39.1534ZM42.0603 38.25C42.458 38.25 42.7933 38.1719 43.066 38.0156C43.3416 37.8594 43.5489 37.6577 43.6882 37.4105C43.8302 37.1634 43.9012 36.9034 43.9012 36.6307V35.7102C43.8586 35.7614 43.7649 35.8082 43.62 35.8509C43.4779 35.8906 43.3132 35.9261 43.1257 35.9574C42.941 35.9858 42.7606 36.0114 42.5845 36.0341C42.4112 36.054 42.2705 36.071 42.1626 36.0852C41.9012 36.1193 41.6569 36.1747 41.4296 36.2514C41.2052 36.3253 41.0234 36.4375 40.8842 36.5881C40.7478 36.7358 40.6796 36.9375 40.6796 37.1932C40.6796 37.5426 40.8089 37.8068 41.0674 37.9858C41.3288 38.1619 41.6597 38.25 42.0603 38.25ZM46.8625 39V32.4545H47.8341V33.4432H47.9023C48.0216 33.1193 48.2375 32.8565 48.55 32.6548C48.8625 32.4531 49.2148 32.3523 49.6068 32.3523C49.6807 32.3523 49.773 32.3537 49.8838 32.3565C49.9946 32.3594 50.0784 32.3636 50.1352 32.3693V33.392C50.1011 33.3835 50.023 33.3707 49.9008 33.3537C49.7815 33.3338 49.6551 33.3239 49.5216 33.3239C49.2034 33.3239 48.9193 33.3906 48.6693 33.5241C48.4221 33.6548 48.2261 33.8366 48.0812 34.0696C47.9392 34.2997 47.8682 34.5625 47.8682 34.858V39H46.8625ZM52.453 30.2727V39H51.4473V30.2727H52.453ZM57.1593 39.1364C56.5286 39.1364 55.9846 38.9972 55.5272 38.7188C55.0727 38.4375 54.7218 38.0455 54.4746 37.5426C54.2303 37.0369 54.1082 36.4489 54.1082 35.7784C54.1082 35.108 54.2303 34.517 54.4746 34.0057C54.7218 33.4915 55.0656 33.0909 55.5059 32.804C55.9491 32.5142 56.4661 32.3693 57.057 32.3693C57.3979 32.3693 57.7346 32.4261 58.067 32.5398C58.3994 32.6534 58.7019 32.8381 58.9746 33.0938C59.2474 33.3466 59.4647 33.6818 59.6266 34.0994C59.7886 34.517 59.8695 35.0312 59.8695 35.642V36.0682H54.8241V35.1989H58.8468C58.8468 34.8295 58.7729 34.5 58.6252 34.2102C58.4803 33.9205 58.2729 33.6918 58.0031 33.5241C57.736 33.3565 57.4207 33.2727 57.057 33.2727C56.6565 33.2727 56.3099 33.3722 56.0173 33.571C55.7275 33.767 55.5045 34.0227 55.3482 34.3381C55.192 34.6534 55.1138 34.9915 55.1138 35.3523V35.9318C55.1138 36.4261 55.1991 36.8452 55.3695 37.1889C55.5428 37.5298 55.7829 37.7898 56.0897 37.9688C56.3965 38.1449 56.7531 38.233 57.1593 38.233C57.4235 38.233 57.6621 38.196 57.8752 38.1222C58.0911 38.0455 58.2772 37.9318 58.4335 37.7812C58.5897 37.6278 58.7104 37.4375 58.7957 37.2102L59.7673 37.483C59.665 37.8125 59.4931 38.1023 59.2516 38.3523C59.0102 38.5994 58.7119 38.7926 58.3567 38.9318C58.0016 39.0682 57.6025 39.1364 57.1593 39.1364ZM66.1557 33.9205L65.2523 34.1761C65.1955 34.0256 65.1117 33.8793 65.0009 33.7372C64.8929 33.5923 64.7452 33.473 64.5577 33.3793C64.3702 33.2855 64.1302 33.2386 63.8375 33.2386C63.437 33.2386 63.1032 33.331 62.8361 33.5156C62.5719 33.6974 62.4398 33.929 62.4398 34.2102C62.4398 34.4602 62.5307 34.6577 62.7125 34.8026C62.8944 34.9474 63.1785 35.0682 63.5648 35.1648L64.5364 35.4034C65.1216 35.5455 65.5577 35.7628 65.8446 36.0554C66.1316 36.3452 66.275 36.7187 66.275 37.1761C66.275 37.5511 66.1671 37.8864 65.9512 38.1818C65.7381 38.4773 65.4398 38.7102 65.0563 38.8807C64.6728 39.0511 64.2267 39.1364 63.7182 39.1364C63.0506 39.1364 62.4981 38.9915 62.0606 38.7017C61.6231 38.4119 61.3461 37.9886 61.2296 37.4318L62.1841 37.1932C62.275 37.5455 62.4469 37.8097 62.6998 37.9858C62.9554 38.1619 63.2892 38.25 63.7012 38.25C64.1699 38.25 64.5421 38.1506 64.8177 37.9517C65.0961 37.75 65.2353 37.5085 65.2353 37.2273C65.2353 37 65.1557 36.8097 64.9966 36.6562C64.8375 36.5 64.5932 36.3835 64.2637 36.3068L63.1728 36.0511C62.5733 35.9091 62.133 35.6889 61.8517 35.3906C61.5733 35.0895 61.4341 34.7131 61.4341 34.2614C61.4341 33.892 61.5378 33.5653 61.7452 33.2812C61.9554 32.9972 62.241 32.7741 62.6017 32.6122C62.9654 32.4503 63.3773 32.3693 63.8375 32.3693C64.4853 32.3693 64.9938 32.5114 65.3631 32.7955C65.7353 33.0795 65.9995 33.4545 66.1557 33.9205Z" fill="white"/>
<defs>
<filter id="filter0_d_11056_13085" x="5.40625" y="2.4043" width="21.4141" height="24.748" filterUnits="userSpaceOnUse" color-interpolation-filters="sRGB">
<feFlood flood-opacity="0" result="BackgroundImageFix"/>
<feColorMatrix in="SourceAlpha" type="matrix" values="0 0 0 0 0 0 0 0 0 0 0 0 0 0 0 0 0 0 127 0" result="hardAlpha"/>
<feOffset/>
<feGaussianBlur stdDeviation="1"/>
<feComposite in2="hardAlpha" operator="out"/>
<feColorMatrix type="matrix" values="0 0 0 0 0 0 0 0 0 0 0 0 0 0 0 0 0 0 0.24 0"/>
<feBlend mode="normal" in2="BackgroundImageFix" result="effect1_dropShadow_11056_13085"/>
<feBlend mode="normal" in="SourceGraphic" in2="effect1_dropShadow_11056_13085" result="shape"/>
</filter>
</defs>
</svg>
