<svg width="97" height="58" viewBox="0 0 97 58" fill="none" xmlns="http://www.w3.org/2000/svg">
<g filter="url(#filter0_d_11056_13084)">
<path d="M8.07757 16.8814C7.92479 16.2005 8.63288 15.6473 9.25665 15.9602L26.3765 24.5503C27.0773 24.902 26.9394 25.9409 26.1708 26.0994L18.0105 27.7826C17.7573 27.8349 17.543 28.0024 17.431 28.2354L13.8237 35.746C13.4839 36.4534 12.4425 36.336 12.2708 35.5709L8.07757 16.8814Z" fill="#005BFF"/>
<path d="M8.56544 16.772C8.50501 16.5026 8.78566 16.2833 9.03241 16.4071L26.1523 24.9972C26.427 25.1351 26.3763 25.5465 26.0698 25.6097L17.9095 27.293C17.5035 27.3767 17.1598 27.6452 16.9803 28.0189L13.373 35.5295C13.2374 35.8117 12.826 35.7614 12.7587 35.4614L8.56544 16.772Z" stroke="white"/>
</g>
<rect width="42" height="21" transform="translate(22.1562 33.7871) rotate(-8)" fill="#005BFF"/>
<path d="M29.2522 47.9372L28.0376 39.2949L29.0841 39.1478L30.1683 46.8617L34.1856 46.2971L34.3161 47.2255L29.2522 47.9372ZM38.6569 46.7532C38.0324 46.8409 37.4743 46.7788 36.9826 46.5668C36.4933 46.3515 36.0913 46.0121 35.7766 45.5486C35.4643 45.0818 35.2614 44.5165 35.1681 43.8525C35.0748 43.1886 35.1136 42.5864 35.2843 42.046C35.4575 41.5025 35.7422 41.0579 36.1383 40.7125C36.5368 40.3639 37.0287 40.1485 37.6138 40.0662C37.9514 40.0188 38.2927 40.0282 38.6377 40.0944C38.9826 40.1607 39.308 40.3015 39.6136 40.5167C39.9189 40.7291 40.1807 41.0309 40.3992 41.4219C40.6177 41.8129 40.7694 42.3108 40.8544 42.9157L40.9138 43.3377L35.9174 44.0398L35.7964 43.179L39.78 42.6191C39.7286 42.2534 39.6096 41.9373 39.423 41.671C39.2392 41.4042 39.002 41.2066 38.7114 41.0781C38.4236 40.9493 38.0997 40.9102 37.7396 40.9608C37.3429 41.0166 37.0135 41.1633 36.7514 41.4009C36.4918 41.6354 36.3065 41.9196 36.1957 42.2536C36.0848 42.5876 36.0545 42.9333 36.1047 43.2906L36.1854 43.8645C36.2542 44.354 36.3969 44.7571 36.6135 45.0738C36.8326 45.3872 37.1065 45.6112 37.4352 45.7458C37.7636 45.8775 38.1289 45.9151 38.5312 45.8585C38.7928 45.8218 39.024 45.752 39.2247 45.6492C39.4278 45.5432 39.5963 45.4048 39.7301 45.2339C39.8634 45.0603 39.9565 44.855 40.0093 44.618L41.0094 44.7529C40.954 45.0935 40.8241 45.4043 40.6198 45.6855C40.415 45.9639 40.1465 46.1967 39.8142 46.384C39.4816 46.5684 39.0958 46.6915 38.6569 46.7532ZM44.4241 45.8049L41.5382 39.6007L42.5848 39.4537L44.6832 44.2194L44.7507 44.2099L45.4374 39.0527L46.5008 38.9033L48.5631 43.6569L48.6306 43.6474L49.3366 38.5048L50.3831 38.3577L49.3192 45.117L48.3401 45.2546L46.2224 40.4744L46.1212 40.4886L45.4031 45.6673L44.4241 45.8049ZM52.7295 44.6377L51.8186 38.1559L52.8144 38.016L53.7254 44.4977L52.7295 44.6377ZM52.1731 37.0045C51.979 37.0318 51.8023 36.9892 51.6431 36.8767C51.4866 36.7639 51.3954 36.6146 51.3693 36.4289C51.3432 36.2433 51.3898 36.0746 51.509 35.923C51.6311 35.771 51.7892 35.6814 51.9833 35.6541C52.1774 35.6268 52.3527 35.6696 52.5092 35.7825C52.6684 35.8949 52.7611 36.044 52.7872 36.2297C52.8133 36.4153 52.7653 36.5842 52.6432 36.7362C52.5239 36.8878 52.3672 36.9772 52.1731 37.0045ZM59.5526 38.5493L58.6936 38.9282C58.6163 38.787 58.513 38.6538 58.3835 38.5286C58.2564 38.4001 58.0935 38.3025 57.8948 38.2358C57.6961 38.169 57.4518 38.156 57.1621 38.1967C56.7654 38.2525 56.4477 38.3904 56.2089 38.6104C55.9726 38.8272 55.874 39.0749 55.9132 39.3534C55.948 39.601 56.0655 39.7838 56.2657 39.902C56.4659 40.0202 56.764 40.1002 57.1601 40.1421L58.1554 40.2432C58.7547 40.3024 59.2168 40.4569 59.5417 40.7068C59.8661 40.9538 60.0602 41.3038 60.1238 41.7567C60.176 42.128 60.1158 42.475 59.9431 42.7977C59.7732 43.1199 59.5102 43.3921 59.1542 43.6143C58.7981 43.8364 58.3683 43.9829 57.8647 44.0537C57.2036 44.1466 56.6363 44.08 56.1627 43.854C55.6891 43.6279 55.3559 43.2473 55.1631 42.7121L56.0751 42.3429C56.2142 42.6791 56.4211 42.9168 56.696 43.0561C56.9737 43.1949 57.3166 43.2356 57.7245 43.1783C58.1887 43.1131 58.5434 42.9628 58.7886 42.7275C59.0362 42.4891 59.1404 42.2306 59.1013 41.952C59.0697 41.727 58.9644 41.5496 58.7855 41.4198C58.6062 41.2872 58.3481 41.2059 58.0111 41.1758L56.8952 41.0744C56.2818 41.0172 55.8151 40.8604 55.4951 40.6042C55.1775 40.3447 54.9873 39.9913 54.9244 39.544C54.873 39.1783 54.9302 38.8403 55.096 38.5301C55.2647 38.2196 55.5164 37.959 55.8511 37.7484C56.1887 37.5374 56.5853 37.3999 57.0411 37.3359C57.6825 37.2457 58.2059 37.3156 58.6111 37.5456C59.0192 37.7751 59.333 38.1097 59.5526 38.5493Z" fill="white"/>
<defs>
<filter id="filter0_d_11056_13084" x="6.05469" y="13.8711" width="22.7812" height="24.3457" filterUnits="userSpaceOnUse" color-interpolation-filters="sRGB">
<feFlood flood-opacity="0" result="BackgroundImageFix"/>
<feColorMatrix in="SourceAlpha" type="matrix" values="0 0 0 0 0 0 0 0 0 0 0 0 0 0 0 0 0 0 127 0" result="hardAlpha"/>
<feOffset/>
<feGaussianBlur stdDeviation="1"/>
<feComposite in2="hardAlpha" operator="out"/>
<feColorMatrix type="matrix" values="0 0 0 0 0 0 0 0 0 0 0 0 0 0 0 0 0 0 0.24 0"/>
<feBlend mode="normal" in2="BackgroundImageFix" result="effect1_dropShadow_11056_13084"/>
<feBlend mode="normal" in="SourceGraphic" in2="effect1_dropShadow_11056_13084" result="shape"/>
</filter>
</defs>
</svg>
