<svg width="292" height="100" viewBox="0 0 292 100" fill="none" xmlns="http://www.w3.org/2000/svg">
<path d="M14.5412 71.4289V32.6193H0V28.5717H33.6918V32.6193H19.1506V71.4289H14.5412Z" fill="white"/>
<path d="M61.3461 71.4289V52.1432C61.3461 46.7146 58.0672 43.2384 53.0301 43.2384C46.5673 43.2384 42.0529 47.7146 42.0529 54.1908V71.4289H37.8711V28.5717H42.0529V45.4765H42.433L42.5756 45.3812C45.2843 41.5241 49.1334 39.6669 54.3131 39.6669C61.3936 39.6669 65.5754 44.1431 65.5754 51.667V71.4289H61.3461Z" fill="white"/>
<path d="M87.6288 72.8572C77.7921 72.8572 70.6641 65.762 70.6641 56C70.6641 46.619 77.2219 39.8095 86.2982 39.8095C95.137 39.8095 101.125 46.3333 101.267 56.0477C101.267 56.5239 101.267 57.0953 101.22 57.6667H74.9884L75.036 57.9524C75.7012 64.5239 80.9285 69.0953 87.6763 69.0953C92.2858 69.0953 96.6101 66.762 98.5109 63.2382L102.17 64.7144C100.032 69.6191 94.2341 72.8572 87.6288 72.8572ZM86.2982 43.6667C80.4057 43.6667 76.0338 47.6191 75.1785 53.7619L75.131 54.0477H96.8477L96.8002 53.7619C96.1824 47.4286 92.2383 43.6667 86.2982 43.6667Z" fill="white"/>
<path d="M107.873 71.4291V28.7147H134.294V36.0004H116.664V47.7147H129.59V55.0005H116.664V71.4291H107.873Z" fill="white"/>
<path d="M138.857 71.429V41.0479H147.078V71.429H138.857ZM139 36.3812V28.5717H147.078V36.3812H139Z" fill="white"/>
<path d="M173.971 71.4286V52.9047C173.971 48.9047 172.26 46.8571 168.839 46.8571C166.938 46.8571 165.512 47.4285 164.562 48.619C163.184 50.2857 162.471 53.1428 162.471 57.0476V71.4286H154.25V41.0475H161.568C161.426 42.8094 160.475 45.0475 158.622 47.7618L158.384 48.1428H162.804L162.851 47.9999C163.659 45.5714 164.847 43.6666 166.368 42.238C167.888 40.8571 169.789 40.1428 171.928 40.1428C175.159 40.1428 177.677 41.1428 179.436 43.0952C181.194 45.0952 182.097 47.8095 182.097 51.238V71.4286H173.971Z" fill="white"/>
<path d="M202.391 72.8571C197.734 72.8571 193.79 71.3332 190.796 68.3332C187.803 65.3332 186.234 61.3808 186.234 56.5713C186.234 51.857 187.803 47.9522 190.844 44.9998C193.933 42.0474 197.829 40.5236 202.391 40.5236C205.813 40.5236 208.854 41.3808 211.373 42.9998C213.796 44.6189 215.602 46.7617 216.647 49.3808L209.092 52.2379C207.761 48.7141 205.432 46.9522 202.106 46.9522C199.873 46.9522 198.019 47.8094 196.594 49.5236C195.168 51.1903 194.455 53.5713 194.455 56.5713C194.455 59.5713 195.168 61.9999 196.641 63.7142C198.067 65.4285 199.968 66.3332 202.154 66.3332C205.528 66.3332 207.951 64.3808 209.377 60.5237L217.123 63.3332C215.935 66.1904 214.081 68.4761 211.515 70.1904C208.901 71.9523 205.813 72.8571 202.391 72.8571Z" fill="white"/>
<path d="M240.311 71.4289V52.9051C240.311 48.9051 238.6 46.8574 235.179 46.8574C233.278 46.8574 231.852 47.4289 230.902 48.6193C229.524 50.286 228.811 53.1432 228.811 57.0479V71.4289H220.59V28.7145H228.811V35.0002C228.811 39.8574 227.528 44.1431 225.009 47.7622L224.724 48.1432H229.143L229.191 48.0003C229.999 45.5717 231.187 43.6669 232.708 42.2384C234.228 40.8574 236.129 40.1431 238.267 40.1431C241.499 40.1431 244.017 41.1431 245.776 43.0955C247.534 45.0955 248.437 47.8098 248.437 51.2384V71.4289H240.311Z" fill="white"/>
<path d="M276.998 14.2859V28.5717H262.742V42.8574H291.254V28.5717C291.254 20.6669 284.887 14.2859 276.998 14.2859Z" fill="#005BFF"/>
<path d="M262.74 14.2858H276.997C276.997 6.38097 270.629 0 262.74 0H248.484V28.5715H262.74V14.2858Z" fill="#00E2C5"/>
<path d="M57.0254 99.5722V86.1913H61.9675C66.4344 86.1913 68.953 88.6198 68.953 92.9055C68.953 97.1437 66.3869 99.5722 61.9675 99.5722H57.0254ZM61.9675 97.477C65.0563 97.477 66.7195 95.858 66.7195 92.8579C66.7195 89.8579 65.0088 88.2389 61.9675 88.2389H59.2588V97.477H61.9675Z" fill="white"/>
<path d="M85.6777 99.5713V86.1427H95.0393V88.238H87.8637V91.6189H94.3265V93.6666H87.8637V97.4761H95.2293V99.5713H85.6777Z" fill="white"/>
<path d="M118.328 100C115.192 100 112.816 98.0476 112.483 95.2381L112.436 94.9048L114.669 94.4762L114.717 94.9048C114.812 96.6667 116.332 97.9048 118.328 97.9048C120.039 97.9048 121.179 97.0952 121.179 95.8571C121.179 95.1905 120.894 94.4762 118.851 94L116.807 93.5238C114.384 92.9524 113.243 91.8095 113.243 89.9524C113.243 87.4286 115.144 85.7143 117.9 85.7143C120.371 85.7143 122.272 87.2857 122.7 89.5714L122.747 89.9047L120.609 90.4762L120.561 90.0476C120.419 88.6666 119.373 87.7619 117.948 87.7619C116.475 87.7619 115.524 88.5238 115.524 89.6667C115.524 90.2857 115.762 90.9524 117.52 91.3333L119.564 91.8095C122.177 92.3809 123.508 93.6667 123.508 95.5714C123.413 98.1905 121.322 100 118.328 100Z" fill="white"/>
<path d="M146.503 86.144H144.27V99.5249H146.503V86.144Z" fill="white"/>
<path d="M170.55 91.8095V93.9047H177.535C177.345 96.1905 175.397 97.9524 172.926 97.9524C170.122 97.9524 168.078 95.8095 168.078 92.9047C168.078 89.9047 169.979 87.8095 172.688 87.8095C174.114 87.8095 175.444 88.619 176.157 89.8095L178.295 89.1428C177.297 87.0952 175.112 85.7142 172.736 85.7142C168.744 85.7142 165.893 88.7142 165.893 92.8571C165.893 97 168.791 100 172.831 100C174.779 100 176.537 99.1905 177.725 97.7619L177.82 99.5238H179.816V91.8095H170.55Z" fill="white"/>
<path d="M203.198 99.5713L197.21 89.7618V99.5713H194.977V86.1427H197.495L203.483 95.9999V86.1427H205.716V99.5713H203.198Z" fill="white"/>
</svg>
