<svg width="97" height="58" viewBox="0 0 97 58" fill="none" xmlns="http://www.w3.org/2000/svg">
<g filter="url(#filter0_d_11056_13086)">
<path d="M12.8666 6.28031C12.9074 5.58362 13.7406 5.247 14.2539 5.7198L28.3428 18.696C28.9196 19.2272 28.5006 20.1878 27.7181 20.1284L19.41 19.4971C19.1522 19.4775 18.9 19.5794 18.7281 19.7726L13.1903 25.998C12.6687 26.5843 11.7 26.1843 11.7459 25.4016L12.8666 6.28031Z" fill="#3FCC3D"/>
<path d="M13.3657 6.30957C13.3819 6.03397 13.7121 5.90055 13.9152 6.08758L28.0041 19.0637C28.2302 19.272 28.0681 19.6535 27.7559 19.6298L19.4479 18.9986C19.0345 18.9672 18.6301 19.1305 18.3546 19.4403L12.8167 25.6656C12.6087 25.8995 12.227 25.7377 12.245 25.4308L13.3657 6.30957Z" stroke="white"/>
</g>
<rect width="42" height="21" transform="translate(21.7422 26.4102) rotate(8)" fill="#3FCC3D"/>
<path d="M30.2984 36.1502C30.3079 35.7154 30.1491 35.3546 29.8223 35.0677C29.4954 34.7808 29.0703 34.6005 28.547 34.527C28.1644 34.4732 27.8209 34.4881 27.5166 34.5715C27.2151 34.6554 26.9689 34.7943 26.7781 34.9884C26.5901 35.1829 26.4767 35.418 26.438 35.6937C26.4056 35.9244 26.4326 36.1304 26.5189 36.3118C26.6085 36.4908 26.7328 36.6474 26.8918 36.7817C27.0512 36.9131 27.2217 37.0274 27.4031 37.1246C27.5849 37.219 27.753 37.2986 27.9074 37.3633L28.752 37.723C28.9687 37.8137 29.2076 37.9305 29.4687 38.0733C29.7326 38.2165 29.9785 38.396 30.2064 38.6116C30.4375 38.8248 30.6164 39.0823 30.7433 39.3842C30.8701 39.686 30.9051 40.0395 30.8481 40.4446C30.7825 40.9116 30.6008 41.3164 30.3031 41.659C30.0081 42.002 29.6116 42.2518 29.1133 42.4084C28.6179 42.5654 28.0382 42.5972 27.3743 42.5039C26.7554 42.4169 26.2335 42.2417 25.8086 41.9783C25.3866 41.7153 25.0713 41.387 24.8626 40.9934C24.6569 40.6001 24.5703 40.1648 24.603 39.6874L25.6832 39.8392C25.6655 40.1695 25.7373 40.455 25.8985 40.6957C26.063 40.934 26.2856 41.1259 26.5664 41.2715C26.8503 41.4147 27.1639 41.5104 27.5071 41.5587C27.9066 41.6148 28.2744 41.6005 28.6105 41.5158C28.947 41.4282 29.2245 41.2808 29.443 41.0734C29.6618 40.8631 29.7934 40.6005 29.8377 40.2854C29.878 39.9984 29.8307 39.7537 29.6956 39.5511C29.5606 39.3485 29.3701 39.1726 29.1243 39.0233C28.8785 38.874 28.6096 38.7358 28.3176 38.6087L27.2969 38.1554C26.649 37.8664 26.1535 37.5141 25.8102 37.0987C25.467 36.6832 25.3363 36.1843 25.4181 35.602C25.4861 35.1181 25.6762 34.7145 25.9885 34.3912C26.3039 34.0654 26.6979 33.8339 27.1705 33.6967C27.6463 33.557 28.1599 33.5259 28.7113 33.6034C29.2683 33.6817 29.7494 33.8511 30.1546 34.1117C30.5601 34.3696 30.8654 34.6879 31.0703 35.0667C31.2781 35.4459 31.3584 35.8545 31.3112 36.2925L30.2984 36.1502ZM34.1089 43.4504C33.6981 43.3927 33.3363 43.2629 33.0232 43.0611C32.7106 42.8566 32.4766 42.5927 32.3211 42.2697C32.1661 41.9438 32.1183 41.5698 32.1776 41.1478C32.2298 40.7765 32.3452 40.4858 32.5239 40.2756C32.703 40.0627 32.9243 39.9073 33.1876 39.8095C33.4509 39.7117 33.7348 39.6511 34.0393 39.628C34.347 39.6023 34.6541 39.591 34.9607 39.5939C35.3617 39.5986 35.6863 39.6055 35.9346 39.6146C36.1861 39.6213 36.3727 39.6002 36.4943 39.5513C36.6188 39.5028 36.6923 39.3983 36.7148 39.238L36.7195 39.2042C36.7781 38.7879 36.7096 38.4483 36.5141 38.1856C36.3215 37.9233 35.9959 37.7599 35.5373 37.6955C35.0619 37.6287 34.6745 37.6804 34.3752 37.8506C34.0759 38.0208 33.8547 38.2164 33.7118 38.4373L32.814 37.9668C33.0381 37.5967 33.3063 37.3217 33.6185 37.1418C33.9338 36.9595 34.265 36.8482 34.6121 36.8081C34.9623 36.7655 35.3006 36.7671 35.6269 36.813C35.8351 36.8422 36.0707 36.9012 36.3336 36.9898C36.5998 37.0759 36.8488 37.2128 37.0807 37.4003C37.3153 37.5882 37.4955 37.8473 37.6212 38.1777C37.7469 38.508 37.7736 38.9306 37.7012 39.4455L37.101 43.716L36.1051 43.576L36.2285 42.6983L36.1779 42.6912C36.0906 42.8224 35.9569 42.9571 35.7768 43.0953C35.5967 43.2335 35.368 43.3405 35.0905 43.4162C34.8131 43.492 34.4858 43.5034 34.1089 43.4504ZM34.3865 42.5771C34.7804 42.6325 35.1232 42.6018 35.415 42.485C35.7097 42.3686 35.9431 42.1977 36.1154 41.9724C36.2904 41.7474 36.3969 41.4999 36.4349 41.2298L36.563 40.3183C36.5137 40.363 36.4143 40.3964 36.2649 40.4184C36.1187 40.438 35.9506 40.4502 35.7606 40.4551C35.5737 40.4575 35.3915 40.4577 35.214 40.4557C35.0396 40.4513 34.898 40.4486 34.7891 40.4477C34.5255 40.445 34.2759 40.4659 34.0401 40.5102C33.8076 40.5521 33.6119 40.638 33.4531 40.7677C33.2975 40.895 33.2019 41.0853 33.1664 41.3384C33.1177 41.6845 33.209 41.9641 33.4401 42.1773C33.6744 42.3881 33.9898 42.5214 34.3865 42.5771ZM39.0376 43.9882L39.9485 37.5064L40.9107 37.6416L40.7731 38.6206L40.8406 38.6301C41.0038 38.326 41.2542 38.0959 41.5917 37.9396C41.9293 37.7834 42.2921 37.7325 42.6804 37.7871C42.7535 37.7974 42.8447 37.8116 42.9541 37.8298C43.0634 37.8481 43.1458 37.864 43.2013 37.8775L43.0589 38.8903C43.0264 38.8771 42.9508 38.8535 42.8322 38.8197C42.7168 38.7834 42.593 38.7559 42.4608 38.7373C42.1457 38.6931 41.8551 38.7196 41.5889 38.8171C41.326 38.9121 41.1065 39.0648 40.9306 39.2754C40.758 39.4835 40.6511 39.7338 40.6099 40.0264L40.0335 44.1281L39.0376 43.9882ZM45.4638 45.0462C45.0531 44.9885 44.6912 44.8588 44.3782 44.657C44.0656 44.4524 43.8315 44.1886 43.6761 43.8655C43.5211 43.5396 43.4732 43.1657 43.5325 42.7437C43.5847 42.3723 43.7002 42.0816 43.8789 41.8715C44.058 41.6585 44.2792 41.5031 44.5426 41.4053C44.8059 41.3075 45.0898 41.247 45.3943 41.2238C45.702 41.1982 46.0091 41.1868 46.3157 41.1898C46.7166 41.1945 47.0413 41.2014 47.2896 41.2104C47.5411 41.2171 47.7277 41.196 47.8493 41.1471C47.9738 41.0986 48.0472 40.9942 48.0698 40.8338L48.0745 40.8001C48.133 40.3837 48.0646 40.0442 47.8691 39.7815C47.6765 39.5191 47.3509 39.3558 46.8923 39.2913C46.4169 39.2245 46.0295 39.2762 45.7302 39.4464C45.4308 39.6166 45.2097 39.8122 45.0668 40.0331L44.169 39.5627C44.3931 39.1925 44.6613 38.9175 44.9734 38.7376C45.2888 38.5553 45.62 38.4441 45.967 38.4039C46.3173 38.3613 46.6556 38.363 46.9819 38.4088C47.1901 38.4381 47.4257 38.497 47.6886 38.5856C47.9548 38.6718 48.2038 38.8086 48.4356 38.9961C48.6703 39.184 48.8505 39.4432 48.9762 39.7735C49.1019 40.1039 49.1285 40.5265 49.0562 41.0413L48.456 45.3118L47.4601 45.1719L47.5835 44.2941L47.5328 44.287C47.4455 44.4182 47.3119 44.5529 47.1318 44.6911C46.9517 44.8293 46.7229 44.9363 46.4455 45.0121C46.168 45.0878 45.8408 45.0992 45.4638 45.0462ZM45.7415 44.173C46.1353 44.2283 46.4782 44.1976 46.77 44.0808C47.0646 43.9645 47.2981 43.7936 47.4703 43.5682C47.6454 43.3432 47.7519 43.0957 47.7898 42.8256L47.9179 41.9141C47.8686 41.9588 47.7693 41.9922 47.6199 42.0142C47.4737 42.0339 47.3056 42.0461 47.1155 42.0509C46.9287 42.0534 46.7465 42.0536 46.5689 42.0516C46.3946 42.0472 46.2529 42.0445 46.144 42.0435C45.8805 42.0409 45.6308 42.0617 45.3951 42.1061C45.1626 42.148 44.9669 42.2338 44.8081 42.3635C44.6525 42.4908 44.5569 42.6811 44.5213 42.9343C44.4727 43.2803 44.5639 43.5599 44.795 43.7732C45.0293 43.984 45.3448 44.1172 45.7415 44.173ZM51.9364 41.8248L51.3884 45.724L50.3925 45.584L51.6071 36.9417L52.603 37.0816L52.1571 40.255L52.2415 40.2669C52.4404 39.9534 52.7057 39.7196 53.0372 39.5654C53.3719 39.4087 53.7938 39.3662 54.303 39.4377C54.7447 39.4998 55.1191 39.6428 55.4261 39.8667C55.7336 40.0878 55.9533 40.3926 56.0851 40.7812C56.2202 41.1674 56.2486 41.639 56.1703 42.1961L55.5915 46.3147L54.5956 46.1747L55.1649 42.1236C55.2373 41.6088 55.1596 41.1919 54.9319 40.873C54.7073 40.5517 54.3602 40.3581 53.8904 40.292C53.564 40.2462 53.2618 40.274 52.9836 40.3755C52.7082 40.4773 52.4774 40.65 52.2911 40.8935C52.1076 41.1374 51.9894 41.4478 51.9364 41.8248Z" fill="white"/>
<defs>
<filter id="filter0_d_11056_13086" x="9.74219" y="3.5" width="20.8672" height="24.7773" filterUnits="userSpaceOnUse" color-interpolation-filters="sRGB">
<feFlood flood-opacity="0" result="BackgroundImageFix"/>
<feColorMatrix in="SourceAlpha" type="matrix" values="0 0 0 0 0 0 0 0 0 0 0 0 0 0 0 0 0 0 127 0" result="hardAlpha"/>
<feOffset/>
<feGaussianBlur stdDeviation="1"/>
<feComposite in2="hardAlpha" operator="out"/>
<feColorMatrix type="matrix" values="0 0 0 0 0 0 0 0 0 0 0 0 0 0 0 0 0 0 0.24 0"/>
<feBlend mode="normal" in2="BackgroundImageFix" result="effect1_dropShadow_11056_13086"/>
<feBlend mode="normal" in="SourceGraphic" in2="effect1_dropShadow_11056_13086" result="shape"/>
</filter>
</defs>
</svg>
