<svg width="614" height="358" viewBox="0 0 614 358" fill="none" xmlns="http://www.w3.org/2000/svg">
<mask id="mask0_7408_18787" style="mask-type:luminance" maskUnits="userSpaceOnUse" x="10" y="74" width="176" height="212">
<path d="M115.723 286V247.182H10.5469V210.268L95.3613 74.623H157.764V211.879H185.596V247.182H157.764V286H115.723ZM49.0723 213.051H116.602V106.557H115.576L49.0723 211.879V213.051Z" fill="white"/>
</mask>
<g mask="url(#mask0_7408_18787)">
<path d="M115.723 286H113.723V288H115.723V286ZM115.723 247.182H117.723V245.182H115.723V247.182ZM10.5469 247.182H8.54688V249.182H10.5469V247.182ZM10.5469 210.268L8.85108 209.207L8.54688 209.694V210.268H10.5469ZM95.3613 74.623V72.623H94.2531L93.6655 73.5627L95.3613 74.623ZM157.764 74.623H159.764V72.623H157.764V74.623ZM157.764 211.879H155.764V213.879H157.764V211.879ZM185.596 211.879H187.596V209.879H185.596V211.879ZM185.596 247.182V249.182H187.596V247.182H185.596ZM157.764 247.182V245.182H155.764V247.182H157.764ZM157.764 286V288H159.764V286H157.764ZM49.0723 213.051H47.0723V215.051H49.0723V213.051ZM116.602 213.051V215.051H118.602V213.051H116.602ZM116.602 106.557H118.602V104.557H116.602V106.557ZM115.576 106.557V104.557H114.474L113.885 105.489L115.576 106.557ZM49.0723 211.879L47.3812 210.811L47.0723 211.3V211.879H49.0723ZM117.723 286V247.182H113.723V286H117.723ZM115.723 245.182H10.5469V249.182H115.723V245.182ZM12.5469 247.182V210.268H8.54688V247.182H12.5469ZM12.2427 211.328L97.0571 75.6834L93.6655 73.5627L8.85108 209.207L12.2427 211.328ZM95.3613 76.623H157.764V72.623H95.3613V76.623ZM155.764 74.623V211.879H159.764V74.623H155.764ZM157.764 213.879H185.596V209.879H157.764V213.879ZM183.596 211.879V247.182H187.596V211.879H183.596ZM185.596 245.182H157.764V249.182H185.596V245.182ZM155.764 247.182V286H159.764V247.182H155.764ZM157.764 284H115.723V288H157.764V284ZM49.0723 215.051H116.602V211.051H49.0723V215.051ZM118.602 213.051V106.557H114.602V213.051H118.602ZM116.602 104.557H115.576V108.557H116.602V104.557ZM113.885 105.489L47.3812 210.811L50.7634 212.947L117.267 107.624L113.885 105.489ZM47.0723 211.879V213.051H51.0723V211.879H47.0723Z" fill="url(#paint0_linear_7408_18787)"/>
</g>
<mask id="mask1_7408_18787" style="mask-type:luminance" maskUnits="userSpaceOnUse" x="429" y="74" width="176" height="212">
<path d="M534.723 286V247.182H429.547V210.268L514.361 74.623H576.764V211.879H604.596V247.182H576.764V286H534.723ZM468.072 213.051H535.602V106.557H534.576L468.072 211.879V213.051Z" fill="white"/>
</mask>
<g mask="url(#mask1_7408_18787)">
<path d="M534.723 286H532.723V288H534.723V286ZM534.723 247.182H536.723V245.182H534.723V247.182ZM429.547 247.182H427.547V249.182H429.547V247.182ZM429.547 210.268L427.851 209.207L427.547 209.694V210.268H429.547ZM514.361 74.623V72.623H513.253L512.666 73.5627L514.361 74.623ZM576.764 74.623H578.764V72.623H576.764V74.623ZM576.764 211.879H574.764V213.879H576.764V211.879ZM604.596 211.879H606.596V209.879H604.596V211.879ZM604.596 247.182V249.182H606.596V247.182H604.596ZM576.764 247.182V245.182H574.764V247.182H576.764ZM576.764 286V288H578.764V286H576.764ZM468.072 213.051H466.072V215.051H468.072V213.051ZM535.602 213.051V215.051H537.602V213.051H535.602ZM535.602 106.557H537.602V104.557H535.602V106.557ZM534.576 106.557V104.557H533.474L532.885 105.489L534.576 106.557ZM468.072 211.879L466.381 210.811L466.072 211.3V211.879H468.072ZM536.723 286V247.182H532.723V286H536.723ZM534.723 245.182H429.547V249.182H534.723V245.182ZM431.547 247.182V210.268H427.547V247.182H431.547ZM431.243 211.328L516.057 75.6834L512.666 73.5627L427.851 209.207L431.243 211.328ZM514.361 76.623H576.764V72.623H514.361V76.623ZM574.764 74.623V211.879H578.764V74.623H574.764ZM576.764 213.879H604.596V209.879H576.764V213.879ZM602.596 211.879V247.182H606.596V211.879H602.596ZM604.596 245.182H576.764V249.182H604.596V245.182ZM574.764 247.182V286H578.764V247.182H574.764ZM576.764 284H534.723V288H576.764V284ZM468.072 215.051H535.602V211.051H468.072V215.051ZM537.602 213.051V106.557H533.602V213.051H537.602ZM535.602 104.557H534.576V108.557H535.602V104.557ZM532.885 105.489L466.381 210.811L469.763 212.947L536.267 107.624L532.885 105.489ZM466.072 211.879V213.051H470.072V211.879H466.072Z" fill="url(#paint1_linear_7408_18787)"/>
</g>
<path d="M258.106 286H220V75.5H258.106V286Z" fill="white"/>
<path d="M420 114H368.051V286H329.946V114H277.997V74.9065H419.987V114H420Z" fill="white"/>
<defs>
<linearGradient id="paint0_linear_7408_18787" x1="195.195" y1="5.44862e-05" x2="-105.683" y2="163.396" gradientUnits="userSpaceOnUse">
<stop stop-color="white"/>
<stop offset="1" stop-color="white" stop-opacity="0"/>
</linearGradient>
<linearGradient id="paint1_linear_7408_18787" x1="614.195" y1="5.47029e-05" x2="313.317" y2="163.396" gradientUnits="userSpaceOnUse">
<stop stop-color="white"/>
<stop offset="1" stop-color="white" stop-opacity="0"/>
</linearGradient>
</defs>
</svg>
