<svg width="846" height="339" viewBox="0 0 846 339" fill="none" xmlns="http://www.w3.org/2000/svg">
<g clip-path="url(#clip0_224_32)">
<path d="M84.9585 338.739H0.478516V0.128906H84.9585V338.739Z" fill="white"/>
<path d="M443.877 86.7989H328.707V338.739H244.227V86.7989H129.057V0.128906H443.847V86.7989H443.877Z" fill="white"/>
<path d="M523.768 338.74H454.229V270.07H523.768V338.74Z" fill="white"/>
<path d="M612.841 2.37891C633.241 2.37891 647.431 11.9189 647.431 32.7389C647.431 53.5589 632.851 62.8289 613.891 62.8289H592.681V96.7589H572.131V2.37891H612.811H612.841ZM592.711 46.5089H611.131C620.401 46.5089 627.301 43.4489 627.301 32.9789C627.301 22.5089 620.401 19.3289 611.251 19.3289H592.681V46.5089H592.711Z" fill="white"/>
<path d="M708.149 2.37891C725.519 2.37891 739.949 10.2089 739.949 29.1389C739.949 40.1489 734.369 48.7589 724.979 52.3289C735.449 54.4589 738.089 65.0489 738.899 74.3189C739.439 80.2889 739.679 93.2789 743.399 96.7289H721.919C719.549 91.9589 719.548 82.5389 719.008 77.3789C717.688 64.3889 713.699 59.7389 700.199 59.7389H681.779V96.7289H661.229V2.37891H708.149ZM681.749 44.7989H701.369C711.059 44.7989 719.669 43.0889 719.669 31.4189C719.669 20.5589 711.059 18.6989 702.299 18.6989H681.749V44.7989Z" fill="white"/>
<path d="M845.038 51.9682C845.038 81.3982 826.348 101.288 798.658 101.288C770.968 101.288 752.008 81.5482 752.008 51.9682C752.008 22.3882 770.578 2.4082 798.808 2.4082C827.038 2.4082 845.068 22.4182 845.068 51.9682H845.038ZM772.948 51.5482C772.948 71.8282 782.758 84.0382 798.808 84.1582C814.438 84.1582 824.128 71.7082 824.128 51.5482C824.128 31.3882 814.318 19.3282 798.538 19.3282C782.758 19.3282 772.948 31.9282 772.948 51.5482Z" fill="white"/>
<path d="M634.711 181.989C634.711 202.659 624.511 213.789 603.691 213.789C584.341 213.789 572.131 203.979 572.131 182.499V176.259H591.211V179.169C591.211 187.929 591.211 197.079 603.001 197.079C613.351 197.079 614.011 189.669 614.011 181.299V117.129H634.681V181.959L634.711 181.989Z" fill="white"/>
<path d="M737.219 134.138H686.969V154.688H733.109V170.978H686.969V194.168H738.149V211.538H666.449V117.158H737.219V134.138Z" fill="white"/>
<path d="M802.77 216.038C775.32 216.038 757.17 196.298 757.17 166.478C757.17 139.028 774.66 117.158 803.55 117.158C826.2 117.158 842.79 131.468 844.38 150.968H824.1C821.97 140.618 814.29 134.528 803.16 134.528C785.01 134.528 777.96 150.818 777.96 166.598C777.96 186.098 787.65 198.548 802.89 198.548C815.34 198.548 822.78 191.138 824.49 177.338H845.04C842.91 200.408 828.6 216.038 802.77 216.038Z" fill="white"/>
<path d="M649.68 256.749H621.33V333.489H600.51V256.749H572.16V239.109H649.71V256.749H649.68Z" fill="white"/>
<path d="M718.86 269.229C718.08 260.079 711.96 255.189 700.98 255.189C691.44 255.189 685.74 259.179 685.74 265.929C685.74 274.149 695.82 274.809 714.63 280.119C731.46 284.889 742.2 291.399 742.2 307.149C742.2 329.409 722.58 337.629 703.35 337.629C677.76 337.629 662.67 325.299 662.4 303.969H682.95C683.34 316.689 691.71 321.729 704.28 321.729C715.14 321.729 721.77 316.959 721.77 309.129C721.77 301.299 715.41 300.369 695.91 294.819C680.52 290.439 665.82 286.599 665.82 267.369C665.82 250.269 680.13 239.139 702.15 239.139C722.04 239.139 738.06 248.139 738.48 269.229H718.86Z" fill="white"/>
</g>
<defs>
<clipPath id="clip0_224_32">
<rect width="844.56" height="338.61" fill="white" transform="translate(0.480469 0.130859)"/>
</clipPath>
</defs>
</svg>
