<svg width="65" height="26" viewBox="0 0 65 26" fill="none" xmlns="http://www.w3.org/2000/svg">
<g clip-path="url(#clip0_224_32)">
<path d="M6.50185 26H0V0H6.50185V26Z" fill="black"/>
<path d="M34.126 6.65491H25.2622V26H18.7603V6.65491H9.89648V0H34.1237V6.65491H34.126Z" fill="black"/>
<path d="M40.2739 25.9994H34.9219V20.7266H40.2739V25.9994Z" fill="black"/>
<path d="M47.1293 0.173828C48.6993 0.173828 49.7914 0.906352 49.7914 2.50501C49.7914 4.10366 48.6693 4.81545 47.2101 4.81545H45.5777V7.42075H43.9961V0.173828H47.127H47.1293ZM45.58 3.56233H46.9977C47.7111 3.56233 48.2422 3.32737 48.2422 2.52343C48.2422 1.7195 47.7111 1.47533 47.0069 1.47533H45.5777V3.56233H45.58Z" fill="black"/>
<path d="M54.4646 0.173828C55.8015 0.173828 56.9121 0.775051 56.9121 2.22858C56.9121 3.07398 56.4826 3.73509 55.7599 4.00921C56.5657 4.17276 56.7689 4.98591 56.8312 5.6977C56.8728 6.15611 56.8913 7.15354 57.1776 7.41845H55.5244C55.342 7.05218 55.342 6.32887 55.3004 5.93267C55.1989 4.93523 54.8918 4.57819 53.8528 4.57819H52.4351V7.41845H50.8535V0.173828H54.4646ZM52.4328 3.43103H53.9428C54.6886 3.43103 55.3512 3.29973 55.3512 2.40365C55.3512 1.56977 54.6886 1.42695 54.0144 1.42695H52.4328V3.43103Z" fill="black"/>
<path d="M64.9997 3.98122C64.9997 6.24099 63.5613 7.76823 61.4302 7.76823C59.2991 7.76823 57.8398 6.25251 57.8398 3.98122C57.8398 1.70994 59.269 0.175781 61.4417 0.175781C63.6144 0.175781 65.002 1.71224 65.002 3.98122H64.9997ZM59.4515 3.94897C59.4515 5.50616 60.2065 6.4437 61.4417 6.45291C62.6447 6.45291 63.3904 5.49695 63.3904 3.94897C63.3904 2.401 62.6354 1.47498 61.4209 1.47498C60.2065 1.47498 59.4515 2.44246 59.4515 3.94897Z" fill="black"/>
<path d="M48.8124 13.9646C48.8124 15.5518 48.0274 16.4064 46.4251 16.4064C44.9358 16.4064 43.9961 15.6531 43.9961 14.0038V13.5246H45.4646V13.7481C45.4646 14.4207 45.4645 15.1233 46.3719 15.1233C47.1685 15.1233 47.2193 14.5543 47.2193 13.9116V8.98438H48.8101V13.9623L48.8124 13.9646Z" fill="black"/>
<path d="M56.7025 10.2901H52.8351V11.8681H56.3862V13.1189H52.8351V14.8995H56.7741V16.2332H51.2559V8.98633H56.7025V10.2901Z" fill="black"/>
<path d="M61.7478 16.5788C59.6352 16.5788 58.2383 15.0631 58.2383 12.7733C58.2383 10.6656 59.5844 8.98633 61.8078 8.98633C63.551 8.98633 64.8279 10.0851 64.9502 11.5824H63.3894C63.2255 10.7877 62.6344 10.3201 61.7778 10.3201C60.3809 10.3201 59.8383 11.5709 59.8383 12.7826C59.8383 14.2799 60.5841 15.2358 61.757 15.2358C62.7152 15.2358 63.2878 14.6668 63.4194 13.6072H65.001C64.8371 15.3786 63.7358 16.5788 61.7478 16.5788Z" fill="black"/>
<path d="M49.9642 19.7041H47.7823V25.5965H46.18V19.7041H43.998V18.3496H49.9665V19.7041H49.9642Z" fill="black"/>
<path d="M55.2887 20.662C55.2287 19.9594 54.7577 19.584 53.9126 19.584C53.1784 19.584 52.7397 19.8903 52.7397 20.4086C52.7397 21.0398 53.5155 21.0905 54.9631 21.4982C56.2584 21.8645 57.085 22.3643 57.085 23.5737C57.085 25.2829 55.575 25.9141 54.095 25.9141C52.1255 25.9141 50.9641 24.9673 50.9434 23.3295H52.525C52.555 24.3062 53.1992 24.6932 54.1666 24.6932C55.0024 24.6932 55.5127 24.3269 55.5127 23.7257C55.5127 23.1245 55.0232 23.0531 53.5224 22.6269C52.3379 22.2906 51.2066 21.9958 51.2066 20.5192C51.2066 19.2062 52.3079 18.3516 54.0026 18.3516C55.5334 18.3516 56.7664 19.0426 56.7987 20.662H55.2887Z" fill="black"/>
</g>
<defs>
<clipPath id="clip0_224_32">
<rect width="65" height="26" fill="white"/>
</clipPath>
</defs>
</svg>
