<?xml version="1.0" encoding="UTF-8"?>
<svg xmlns="http://www.w3.org/2000/svg" width="74" height="60" viewBox="0 0 74 60" fill="none">
  <g clip-path="url(#clip0_5757_33773)">
    <path d="M57.0604 26.3923C55.7293 16.3283 47.8143 7.64041 37.9475 5.46098C36.3398 5.10503 34.6964 4.91015 32.9574 4.62182C32.9574 3.43466 32.9912 2.2137 32.9355 0.998709C32.9196 0.656681 32.7047 0.12972 32.454 0.0422245C32.1396 -0.0691333 31.5925 0.0621098 31.3219 0.29278C28.202 2.96934 25.1101 5.67574 22.0281 8.39406C21.2362 9.09204 21.2461 9.4977 22.0261 10.1818C25.0882 12.8722 28.1543 15.5607 31.2482 18.2134C31.5427 18.466 32.1197 18.637 32.452 18.5217C32.7127 18.4302 32.9216 17.8456 32.9435 17.4697C33.0051 16.3184 32.9653 15.163 32.9653 13.8943C33.2419 13.8943 33.3732 13.8844 33.5026 13.8943C45.4725 14.8946 52.2374 28.4345 45.761 38.5402C42.3925 43.7959 37.46 46.1861 31.2303 46.1503C21.6799 46.0927 12.1314 46.1364 2.58089 46.1384C2.25061 46.1384 1.86262 46.0529 1.60197 46.1941C1.27168 46.3711 0.833952 46.733 0.827983 47.0253C0.822014 47.3057 1.25974 47.6815 1.58605 47.8585C1.8467 47.9997 2.23469 47.9181 2.56498 47.9181C12.2806 47.9181 21.9962 47.9241 31.7118 47.9102C32.7027 47.9102 33.7095 47.8744 34.6844 47.7153C44.5373 46.0986 50.9342 37.6593 49.8717 27.7166C48.9664 19.2316 41.2723 12.2041 32.7286 12.0569C31.4353 12.0351 31.2065 12.2518 31.1985 13.5225C31.1945 14.2205 31.1985 14.9164 31.1985 15.863C28.5582 13.5503 26.1566 11.4445 23.6875 9.27896C26.2044 7.08561 28.602 4.99566 31.2005 2.73072C31.2005 3.66135 31.2005 4.28376 31.2005 4.90618C31.2025 6.3578 31.2781 6.42343 32.6828 6.52882C33.7732 6.61035 34.8655 6.68193 35.9459 6.84499C48.6042 8.75597 57.6115 21.4965 55.204 34.066C53.0074 45.5379 43.5266 53.4085 31.8392 53.4304C22.0579 53.4482 12.2746 53.4343 2.49335 53.4363C2.16306 53.4363 1.77905 53.3588 1.51641 53.5C1.21199 53.663 0.790179 54.0548 0.822014 54.2954C0.863797 54.6175 1.24781 54.9615 1.56814 55.1604C1.78701 55.2956 2.14913 55.2021 2.44758 55.2021C12.2627 55.2021 22.0778 55.2618 31.8929 55.1644C34.2208 55.1405 36.6244 54.886 38.8568 54.2536C51.2267 50.7518 58.7496 39.1408 57.0624 26.3943L57.0604 26.3923Z" fill="#0B0028"></path>
    <path d="M72.4637 49.6746C69.4792 47.0458 66.4966 44.415 63.4803 41.8239C63.154 41.5435 62.5113 41.281 62.2029 41.4222C61.8945 41.5634 61.7015 42.2137 61.6736 42.6531C61.602 43.7945 61.6498 44.9439 61.6498 46.1331C59.5407 46.1331 57.5868 46.1331 55.631 46.1331C54.9863 46.1331 54.3616 46.2464 54.3655 47.0438C54.3675 47.7796 54.9565 47.9128 55.5673 47.9128C57.7878 47.9148 60.0103 47.9168 62.2308 47.9188C63.0465 47.9188 63.4504 47.537 63.4226 46.6938C63.3967 45.9263 63.4166 45.1567 63.4166 44.1028C66.0589 46.4174 68.4565 48.5213 70.9237 50.6828C68.4227 52.8682 66.035 54.9542 63.4126 57.245C63.4126 56.2129 63.3888 55.4891 63.4186 54.7693C63.4564 53.8585 63.0843 53.427 62.1372 53.431C57.5291 53.4469 52.921 53.433 48.3109 53.4429C48.0264 53.4429 47.6683 53.4727 47.4773 53.6398C47.2644 53.8267 47.0694 54.2085 47.1112 54.467C47.151 54.7235 47.4554 55.0099 47.716 55.1371C47.9608 55.2564 48.299 55.1968 48.5975 55.1988C52.543 55.2008 56.4885 55.1988 60.4341 55.2028C60.8181 55.2028 61.2021 55.2346 61.6458 55.2545C61.6458 56.4337 61.5861 57.4975 61.6717 58.5475C61.7115 59.0426 62.0258 59.5159 62.2168 59.9991C62.6765 59.8162 63.2276 59.7406 63.5818 59.4363C66.5742 56.8672 69.5309 54.2582 72.4975 51.6592C73.4108 50.8578 73.4148 50.5138 72.4637 49.6766V49.6746Z" fill="#0B0028"></path>
    <path d="M10.0774 42.3266C10.3441 42.8933 10.7858 43.2672 11.4284 42.8973C12.0035 42.5652 11.9637 42.0442 11.6573 41.5173C11.508 41.2587 11.3727 40.9943 11.2354 40.7298C6.82631 32.2487 8.03802 21.8566 14.3413 14.6522C15.4018 13.4392 16.6772 12.4111 17.869 11.3154C18.3127 10.9078 18.6132 10.4027 18.1138 9.97714C17.8472 9.75044 17.2483 9.87771 16.8066 9.91549C16.6414 9.92941 16.4882 10.1382 16.335 10.2635C10.1451 15.3382 7.02528 21.8944 6.85416 29.8704C6.81238 32.7578 7.27399 35.5616 8.24893 38.2581C8.75232 39.652 9.44274 40.9804 10.0774 42.3266Z" fill="#0B0028"></path>
    <path d="M19.2296 42.4691C19.3688 42.6083 19.5121 42.835 19.6693 42.8489C20.0254 42.8808 20.5149 42.9344 20.7198 42.7396C20.9228 42.5447 20.9526 42.0217 20.8531 41.7055C20.7536 41.3894 20.4074 41.1468 20.1627 40.8783C15.2183 35.4675 14.524 27.4915 18.4516 21.2913C19.5837 19.5056 21.0541 18.0519 22.7195 16.7634C22.9861 16.5586 23.1234 16.0455 23.1154 15.6796C23.1114 15.4668 22.6976 15.264 22.4349 15.0254C22.039 15.2342 21.7007 15.3674 21.4162 15.5722C12.7312 21.8083 11.6648 34.9445 19.2276 42.4711L19.2296 42.4691Z" fill="#0B0028"></path>
  </g>
  <defs>
    <clipPath id="clip0_5757_33773">
      <rect width="72.3588" height="60" fill="white" transform="translate(0.820312)"></rect>
    </clipPath>
  </defs>
</svg>
