<?xml version="1.0" encoding="UTF-8"?>
<svg xmlns="http://www.w3.org/2000/svg" width="64" height="60" viewBox="0 0 64 60" fill="none">
  <g clip-path="url(#clip0_5757_33493)">
    <path d="M62.4846 21.5813C58.3497 14.869 54.1365 8.20754 50.0133 1.48739C49.3521 0.41498 48.6597 -0.00380635 47.3766 0.000107547C37.0803 0.058816 26.7801 0.058816 16.4798 0.000107547C15.1967 -0.00772024 14.5043 0.411066 13.8432 1.48347C9.78645 8.09013 5.60455 14.6224 1.59478 21.2565C0.988421 22.2545 0.710671 23.7066 0.867149 24.8729C1.73952 31.3269 2.79184 37.7574 3.78548 44.1919C4.59526 49.4482 5.41286 54.7085 6.21873 59.9336H16.3664C16.1747 57.0647 15.9947 54.3719 15.807 51.597H20.6304C20.8965 54.4306 21.1546 57.1899 21.4167 59.9531H42.4514C42.7135 57.0999 42.9678 54.3876 43.2182 51.6479H48.0612C47.8656 54.4933 47.6817 57.1938 47.49 60.0001H57.6338C59.5076 47.8514 61.3697 35.8827 63.1536 23.9062C63.2631 23.1743 62.8954 22.2545 62.4807 21.5852L62.4846 21.5813ZM51.7776 23.7496C50.8895 30.9747 49.9585 38.1958 49.0196 45.5422H14.8446C14.293 41.2682 13.7375 36.9708 13.186 32.6694C13.0295 31.4443 13.0608 30.1645 12.7204 28.9942C11.4177 24.5285 13.0647 20.8025 14.8759 16.779C16.7341 12.6616 19.0148 10.5794 23.5918 11.4991C24.5737 11.6948 25.6339 11.5265 26.7331 11.5265C26.5727 12.9982 26.4397 14.2154 26.2832 15.6322H37.5693C37.4245 14.3171 37.2876 13.049 37.1194 11.5461C39.9869 11.5461 42.7683 11.4991 45.5458 11.597C45.9526 11.6126 46.4768 12.2193 46.7155 12.6733C48.335 15.7888 49.9116 18.9277 51.4529 22.0823C51.6954 22.5754 51.8441 23.2095 51.7776 23.7496Z" fill="#2F3945"></path>
    <path d="M41.141 38.1262C43.0657 36.2788 43.187 30.044 41.2388 27.5352C39.189 29.8013 39.1851 35.8874 41.141 38.1262Z" fill="#2F3945"></path>
    <path d="M23.3373 38.5204C25.1798 36.0155 25.0742 29.8042 23.1613 28.0586C21.1075 30.3247 21.2209 36.9236 23.3373 38.5204Z" fill="#2F3945"></path>
  </g>
  <defs>
    <clipPath id="clip0_5757_33493">
      <rect width="62.3529" height="60" fill="white" transform="translate(0.824219)"></rect>
    </clipPath>
  </defs>
</svg>
