<?xml version="1.0" encoding="UTF-8"?>
<svg xmlns="http://www.w3.org/2000/svg" width="60" height="60" viewBox="0 0 60 60" fill="none">
  <g clip-path="url(#clip0_5757_33956)">
    <path fill-rule="evenodd" clip-rule="evenodd" d="M60 13V47C60.0034 48.7082 59.6695 50.4002 59.0174 51.9789C58.3653 53.5577 57.4079 54.9922 56.2 56.2C54.9922 57.4079 53.5577 58.3653 51.9789 59.0174C50.4002 59.6695 48.7082 60.0034 47 60H13C11.2919 60.0034 9.59988 59.6695 8.02111 59.0174C6.44233 58.3653 5.00787 57.4079 3.80003 56.2C2.59219 54.9922 1.63474 53.5577 0.982641 51.9789C0.330539 50.4002 -0.0033868 48.7082 2.5896e-05 47V13C-0.0033868 11.2919 0.330539 9.59988 0.982641 8.02111C1.63474 6.44233 2.59219 5.00787 3.80003 3.80003C5.00787 2.59219 6.44233 1.63474 8.02111 0.982641C9.59988 0.330539 11.2919 -0.0033868 13 2.5896e-05H47C48.7082 -0.0033868 50.4002 0.330539 51.9789 0.982641C53.5577 1.63474 54.9922 2.59219 56.2 3.80003C57.4079 5.00787 58.3653 6.44233 59.0174 8.02111C59.6695 9.59988 60.0034 11.2919 60 13Z" fill="url(#paint0_linear_5757_33956)"></path>
    <path fill-rule="evenodd" clip-rule="evenodd" d="M41.3008 34.5H48.7508C49.4801 34.5 50.1796 34.7897 50.6953 35.3055C51.211 35.8212 51.5008 36.5207 51.5008 37.25C51.5008 37.9793 51.211 38.6788 50.6953 39.1945C50.1796 39.7103 49.4801 40 48.7508 40H41.3008V34.5Z" fill="white"></path>
    <path fill-rule="evenodd" clip-rule="evenodd" d="M32.15 34.4995C32.6696 34.4964 33.1846 34.5964 33.6653 34.7938C34.1459 34.9912 34.5826 35.2821 34.95 35.6495C35.3174 36.0169 35.6082 36.4536 35.8057 36.9342C36.0031 37.4148 36.1031 37.9299 36.1 38.4495C36.102 38.9807 36.0001 39.5073 35.8 39.9995H11.25C10.5207 39.9995 9.82118 39.7097 9.30546 39.194C8.78973 38.6783 8.5 37.9788 8.5 37.2495C8.5 36.5201 8.78973 35.8206 9.30546 35.3049C9.82118 34.7892 10.5207 34.4995 11.25 34.4995H32.15ZM31.45 16.3995V21.1995H28.25L24.35 14.4995C24.1787 14.204 24.0673 13.8776 24.0223 13.539C23.9772 13.2004 23.9993 12.8563 24.0874 12.5263C24.1755 12.1963 24.3277 11.8868 24.5355 11.6157C24.7432 11.3446 25.0024 11.1171 25.2981 10.9462C25.5939 10.7753 25.9204 10.6644 26.259 10.6199C26.5977 10.5753 26.9418 10.5979 27.2717 10.6865C27.6016 10.775 27.9108 10.9277 28.1816 11.1358C28.4524 11.344 28.6796 11.6035 28.85 11.8995L31.45 16.3995ZM34.2 21.0495L47.85 44.6995C48.2147 45.3294 48.3142 46.0783 48.1267 46.7816C47.9391 47.4848 47.4799 48.0848 46.85 48.4495C46.2201 48.8141 45.4712 48.9137 44.7679 48.7261C44.0646 48.5386 43.4647 48.0794 43.1 47.4495L34.85 33.0995C34.1 31.6995 33.55 30.5995 33.2 29.9995C32.3783 28.5996 32.0317 26.9714 32.2119 25.3582C32.3922 23.745 33.0896 22.2335 34.2 21.0495Z" fill="white"></path>
    <path fill-rule="evenodd" clip-rule="evenodd" d="M23.0021 37.0006H16.6521L31.0021 12.1506C31.3668 11.5207 31.9668 11.0615 32.67 10.8739C33.3733 10.6864 34.1222 10.7859 34.7521 11.1506C35.382 11.5152 35.8412 12.1152 36.0288 12.8185C36.2163 13.5217 36.1168 14.2707 35.7521 14.9006L23.0021 37.0006ZM19.6521 42.7506L17.0021 47.4006C16.8216 47.7125 16.5813 47.9857 16.2951 48.2048C16.009 48.4238 15.6825 48.5844 15.3342 48.6772C14.986 48.7701 14.6229 48.7934 14.2657 48.746C13.9084 48.6985 13.564 48.5811 13.2521 48.4006C12.9402 48.22 12.667 47.9798 12.4479 47.6936C12.2289 47.4074 12.0683 47.0809 11.9755 46.7327C11.8826 46.3845 11.8593 46.0214 11.9067 45.6641C11.9542 45.3069 12.0716 44.9625 12.2521 44.6506L14.2021 41.2506C14.8077 40.9493 15.4758 40.7951 16.1521 40.8006C16.8576 40.7774 17.556 40.9467 18.1726 41.2902C18.7891 41.6337 19.3006 42.1385 19.6521 42.7506Z" fill="white"></path>
  </g>
  <defs>
    <linearGradient id="paint0_linear_5757_33956" x1="29.9995" y1="60" x2="29.9995" y2="2.86102e-05" gradientUnits="userSpaceOnUse">
      <stop stop-color="#1D6FF2"></stop>
      <stop offset="1" stop-color="#1AC8FC"></stop>
    </linearGradient>
    <clipPath id="clip0_5757_33956">
      <rect width="60" height="60" fill="white"></rect>
    </clipPath>
  </defs>
</svg>
