<?xml version="1.0" encoding="UTF-8"?>
<svg xmlns="http://www.w3.org/2000/svg" width="60" height="60" viewBox="0 0 60 60" fill="none">
  <g clip-path="url(#clip0_5757_33921)">
    <path d="M59.9675 48.7016C59.5013 45.1809 59.0244 41.6637 58.5762 38.1393C58.4722 37.3103 58.1315 36.6499 57.5362 36.0685C56.5501 35.1103 55.6106 34.109 54.6424 33.1292C53.6598 32.135 52.6486 31.1696 51.6947 30.1504C51.0062 29.4146 50.2675 28.7542 49.3495 28.3595C48.2236 27.875 47.033 27.7601 45.8425 28.1118C44.383 28.5425 43.2785 29.4433 42.5721 30.7999C42.4538 31.0261 42.3067 31.0835 42.0665 31.0727C41.5537 31.0548 41.0409 31.0332 40.5317 31.0727C39.6818 31.1445 38.8929 31.4424 38.2188 31.9556C37.663 32.3791 37.1717 32.8815 36.623 33.3732C36.415 33.1758 36.1604 32.9425 35.9202 32.6985C34.8623 31.6218 33.8188 30.5344 32.7538 29.4685C31.4951 28.2087 29.9747 27.6668 28.2032 27.9683C26.2166 28.3056 24.8468 29.4649 24.0579 31.2916C23.4805 32.6303 23.4483 33.9941 24.0328 35.3579C24.4129 36.2444 25.0548 36.9191 25.7146 37.5902C27.3498 39.2411 28.9778 40.8992 30.6094 42.5537C31.2226 43.1746 31.8215 43.8063 32.4454 44.4128C32.6104 44.5707 32.639 44.6892 32.5673 44.9009C32.2123 45.9704 31.8394 47.0363 31.5453 48.1202C31.3589 48.8057 31.4234 49.4625 31.99 50.0331C33.9372 52.0034 35.8377 54.0204 37.8028 55.9728C38.2403 56.4071 38.8284 56.7373 39.4093 56.9598C40.4779 57.3689 41.5931 57.6596 42.6904 58.0042C44.6555 58.625 46.6206 59.2495 48.5893 59.8668C49.4105 60.1252 50.1564 59.9781 50.7947 59.3823C51.2931 58.9158 51.7916 58.4528 52.2757 57.9719C54.5814 55.6606 56.8764 53.3385 59.1894 51.038C59.8564 50.3741 60.093 49.6024 59.9747 48.6908L59.9675 48.7016ZM55.3739 48.8954C53.2797 50.9734 51.1927 53.0586 49.1129 55.1509C48.8475 55.4165 48.6288 55.4991 48.2415 55.3699C45.8819 54.5875 43.5045 53.8553 41.1485 53.073C40.7971 52.9545 40.4707 52.6853 40.2018 52.4198C38.9754 51.1959 37.7705 49.9506 36.5621 48.7124C36.4222 48.5688 36.268 48.4289 36.1676 48.2602C36.0959 48.1417 36.0564 47.9695 36.0851 47.8367C36.0995 47.7721 36.3111 47.7039 36.4186 47.7182C37.455 47.869 38.4698 46.9969 38.6383 46.0386C38.728 45.5182 38.7136 45.0086 38.3945 44.56C38.1793 44.2621 37.9642 43.9606 37.706 43.6986C35.7301 41.678 33.7471 39.6575 31.7569 37.6512C30.5951 36.4777 29.4189 35.3148 28.2319 34.1664C27.8482 33.7931 27.7765 33.384 27.9415 32.921C28.0957 32.4796 28.4112 32.1781 28.881 32.1135C29.0674 32.0884 29.3292 32.135 29.4547 32.2535C30.2616 33.0107 31.0433 33.7895 31.825 34.5719C33.9121 36.6571 35.9955 38.7459 38.0789 40.8382C38.5845 41.3443 39.0722 41.8683 39.585 42.3671C40.1229 42.8875 40.7469 43.1746 41.5286 43.0454C42.504 42.8839 43.2893 41.9544 43.2534 40.9603C43.2319 40.3107 42.9415 39.7759 42.504 39.3273C41.9051 38.71 41.2776 38.1178 40.6787 37.5041C40.4887 37.3067 40.313 37.0806 40.1875 36.8366C39.9615 36.3951 40.105 35.7599 40.4528 35.5015C40.8795 35.1892 41.5716 35.2287 41.9517 35.6055C43.1351 36.7791 44.3077 37.9599 45.4911 39.1335C45.9501 39.5857 46.4449 39.9841 47.137 40.002C48.0658 40.0271 48.7507 39.6431 49.1451 38.7818C49.5217 37.9635 49.3962 37.1954 48.8152 36.5387C48.2773 35.9286 47.6677 35.3794 47.0976 34.7944C46.825 34.5145 46.5561 34.231 46.3266 33.9152C46.0541 33.5383 46.1401 32.8169 46.4629 32.4832C46.7605 32.1745 47.4382 32.092 47.8327 32.3468C48.055 32.4903 48.263 32.6698 48.4495 32.8564C50.3142 34.7514 52.1681 36.6571 54.0435 38.5485C54.3232 38.832 54.4416 39.1442 54.4882 39.5211C54.7428 41.4807 55.0046 43.4402 55.2628 45.3998C55.3847 46.3401 55.4994 47.284 55.6249 48.2243C55.6644 48.5042 55.5783 48.7016 55.3739 48.9026V48.8954Z" fill="#0B0028"></path>
    <path d="M22.4859 37.8101C22.2457 37.9716 22.009 38.1439 21.7903 38.3341C20.9583 39.0663 20.1479 39.8199 19.3088 40.5377C18.5988 41.1479 17.8565 41.7221 17.1321 42.3107C16.8237 42.063 16.5476 41.8513 16.2822 41.6324C14.0123 39.7841 11.7926 37.8891 9.98533 35.5527C8.68722 33.8731 7.56841 32.1073 6.66117 30.1872C5.32361 27.3555 4.58132 24.3803 4.30879 21.2723C4.2801 20.9457 4.38768 20.8165 4.67814 20.7339C6.28464 20.2745 7.88756 19.8008 9.49406 19.3342C10.0284 19.1799 10.5591 19.0148 11.097 18.8641C12.8971 18.3509 14.7008 17.8556 16.4974 17.3244C16.856 17.2204 17.1931 17.1881 17.5445 17.2778C17.7812 17.3388 18.0178 17.407 18.2545 17.4788C19.8287 17.9346 21.3994 18.3975 22.9772 18.8497C24.6483 19.3307 26.3229 19.7972 27.9975 20.2745C28.5856 20.4432 29.1773 20.6119 29.7582 20.8021C29.8515 20.8344 29.9877 20.9852 29.977 21.0641C29.8084 22.3346 29.6184 23.6051 29.4355 24.872C29.3064 25.762 29.2634 26.5767 30.0774 27.2694C31.3576 28.3604 33.1756 27.5996 33.4948 26.1281C33.9753 23.903 34.2155 21.6527 34.2729 19.3809C34.298 18.3509 33.649 17.5003 32.6557 17.2168C31.1675 16.7897 29.6793 16.3482 28.1912 15.9283C27.9473 15.8601 27.8577 15.7525 27.8613 15.4905C27.8756 14.2164 27.8756 12.9423 27.8648 11.6683C27.8505 10.0317 27.7142 8.40949 27.0939 6.86983C26.2153 4.68416 24.8168 2.91122 22.8158 1.64433C21.6719 0.919359 20.4276 0.420496 19.1044 0.176447C18.0178 -0.0245335 16.9134 -0.0640119 15.8017 0.072368C14.7833 0.197981 13.8008 0.467152 12.8792 0.88347C12.0724 1.24595 11.3085 1.69098 10.5949 2.25804C9.0745 3.46392 7.97362 4.96051 7.21699 6.72268C6.73288 7.8532 6.4998 9.05191 6.48187 10.2757C6.4747 10.7208 6.54641 11.2017 6.71854 11.6072C7.1883 12.7342 8.64419 13.0859 9.67694 12.4435C10.4443 11.9625 10.6308 11.1945 10.6954 10.3655C10.7707 9.43593 10.9428 8.54587 11.391 7.70247C12.9617 4.75235 16.4185 3.46392 19.5275 4.68416C20.7862 5.17944 21.7867 6.0049 22.5325 7.1067C23.3071 8.25517 23.6263 9.55795 23.5868 10.9505C23.5581 12.0236 23.5725 13.0967 23.5689 14.1697C23.5689 14.2918 23.5689 14.4138 23.5689 14.5897C23.4075 14.5609 23.2964 14.5502 23.1924 14.5179C21.5787 14.0441 19.965 13.5668 18.3513 13.0895C17.6126 12.8706 16.8775 12.7772 16.1173 13.0285C15.228 13.3192 14.3243 13.5668 13.4243 13.8252C9.51199 14.945 5.59614 16.0575 1.68388 17.1773C0.547133 17.5111 -0.0660631 18.3939 0.00565575 19.5711C0.0415152 20.1848 0.0307574 20.8021 0.109648 21.4122C0.306875 22.995 0.453899 24.592 0.787391 26.1497C1.18543 28.0159 1.80938 29.8247 2.61622 31.5618C3.51629 33.4998 4.56697 35.3409 5.82923 37.0744C6.99107 38.6715 8.24257 40.1968 9.69487 41.5175C11.5918 43.2474 13.6 44.8552 15.583 46.4918C16.6122 47.3424 17.5409 47.3603 18.5916 46.5456C19.922 45.5084 21.2416 44.4569 22.529 43.3622C23.4541 42.5727 24.3291 41.7221 25.1969 40.8715C25.785 40.2937 25.9679 39.0376 25.1001 38.169C24.3972 37.4656 23.4649 37.1641 22.4967 37.8137L22.4859 37.8101Z" fill="#0B0028"></path>
    <path d="M17.7352 23.7066C16.5267 23.3083 15.2788 24.0799 15.0744 25.3934C14.9525 26.1722 14.9883 26.9726 14.9453 28.0098C14.9955 28.6666 15.0063 29.5746 15.1425 30.4646C15.2716 31.3116 15.8346 31.8535 16.6845 32.0366C17.5164 32.2124 18.23 31.9827 18.7751 31.308C19.1911 30.7912 19.27 30.1703 19.2807 29.5423C19.2951 28.5015 19.3022 27.4643 19.2807 26.4235C19.27 25.9928 19.2054 25.5585 19.1194 25.135C18.9616 24.3813 18.4309 23.9363 17.7423 23.7102L17.7352 23.7066Z" fill="#0B0028"></path>
  </g>
  <defs>
    <clipPath id="clip0_5757_33921">
      <rect width="60" height="60" fill="white"></rect>
    </clipPath>
  </defs>
</svg>
