<?xml version="1.0" encoding="UTF-8"?>
<svg xmlns="http://www.w3.org/2000/svg" width="60" height="60" viewBox="0 0 60 60" fill="none">
  <g clip-path="url(#clip0_5757_33990)">
    <path d="M32 60H27.5417C27.8683 59.9767 28.1933 59.9533 28.52 59.9317C28.445 59.8917 28.3683 59.8817 28.29 59.88C26.9917 59.8367 25.705 59.7267 24.4283 59.465C22.9467 59.1617 21.4833 58.7983 20.0567 58.29C17.6767 57.44 15.435 56.315 13.325 54.9183C11.9133 53.985 10.59 52.9433 9.36667 51.78C8.14833 50.6217 7.03667 49.36 6.03167 48.01C3.56333 44.6933 1.805 41.0383 0.851667 37.0083C0.458333 35.3467 0.128333 33.6733 0.158333 31.9533C0.161667 31.7433 0.158333 31.5317 0.158333 31.3217C0.14 31.3217 0.12 31.32 0.101667 31.3183C0.0883333 31.445 0.0766667 31.5717 0.0633333 31.6983C0.0416667 31.91 0.02 32.1217 0 32.3333C0 30.8617 0 29.3883 0 27.9167C0.03 28.1567 0.06 28.3967 0.075 28.5183C0.451667 20.9867 3.29833 14.4 8.65833 8.96167C14.0133 3.52833 20.56 0.586667 28.1733 0.0716667C28.0267 0.0483333 27.8667 0.025 27.7083 0C29.3467 0 30.9867 0 32.625 0C32.3017 0.0216667 31.98 0.0433333 31.6517 0.0666667C39.2933 0.531667 45.855 3.43833 51.245 8.855C56.6317 14.2683 59.5033 20.8433 59.9433 28.4633C59.9617 28.3017 59.9817 28.13 60 27.9583V31.5C59.9683 31.615 59.9133 31.73 59.9067 31.8467C59.8467 33.0467 59.7183 34.2367 59.4983 35.42C58.945 38.4133 57.985 41.265 56.5567 43.9533C54.9867 46.9067 52.9867 49.5333 50.5483 51.8283C48.405 53.845 46.0167 55.5017 43.3967 56.835C41.6733 57.7117 39.8733 58.385 38.0117 58.895C36.2033 59.3917 34.3717 59.7667 32.49 59.845C32.1567 59.8583 31.8217 59.8467 31.4867 59.8467C31.4867 59.87 31.4867 59.8933 31.485 59.915C31.6567 59.9433 31.8283 59.9717 32 60ZM28.4067 11.9283C28.4067 11.9283 28.4067 11.9367 28.4067 11.9417C30.2683 11.9417 32.1283 11.9417 33.99 11.9417C34.5783 11.9417 35.1083 11.5167 35.1817 10.98C35.27 10.3317 34.9017 9.73333 34.305 9.58333C34.105 9.53333 33.8933 9.51333 33.6867 9.51333C30.6317 9.51167 27.5767 9.51333 24.52 9.51667C24.0133 9.51667 23.5067 9.52167 23 9.53333C22.655 9.54167 22.6517 9.54833 22.54 9.23C21.9517 7.57333 20.2567 6.35 18.1983 6.64167C15.91 6.965 14.3567 9.07833 14.8183 11.4367C15.3717 14.255 18.65 15.5767 21.0317 13.9633C21.6933 13.515 22.1867 12.925 22.4767 12.1817C22.545 12.005 22.6083 11.9217 22.8033 11.9233C24.6717 11.9283 26.5383 11.9267 28.4067 11.9267V11.9283ZM52.8033 34.2433C53.1333 34.195 53.4767 34.1767 53.8017 34.0933C56.0283 33.5217 57.08 31.305 56.7633 29.5117C56.4117 27.52 54.5233 25.7883 52.0517 26.2367C50.4067 26.535 49.325 27.565 48.8833 29.1833C48.545 30.4267 48.8017 31.59 49.5783 32.625C49.67 32.7467 49.6833 32.8267 49.5983 32.9517C49.44 33.1867 49.2967 33.4333 49.1483 33.6767C47.5567 36.2967 45.9633 38.915 44.3733 41.5367C44.14 41.9217 43.885 42.2983 43.6917 42.7033C43.315 43.495 43.9467 44.415 44.82 44.375C45.29 44.3533 45.625 44.1133 45.8633 43.7183C47.3667 41.24 48.8717 38.7617 50.3767 36.285C50.795 35.5967 51.2183 34.9133 51.635 34.225C51.7067 34.105 51.7833 34.08 51.925 34.1117C52.2083 34.1733 52.4983 34.2 52.8 34.2433H52.8033ZM15.98 46.795C15.1117 47.7017 14.7367 48.7583 14.8517 49.9583C15.0683 52.23 17.0667 53.8383 19.3367 53.585C21.8233 53.3067 23.6483 50.7633 22.595 48.06C21.9183 46.3233 20.1733 45.3567 18.29 45.5983C18.155 45.615 18.0617 45.6117 17.98 45.4717C16.5167 42.9133 15.0467 40.3583 13.5783 37.805C13.1733 37.1017 12.7817 36.39 12.3517 35.7033C11.9867 35.1217 11.5633 35.0467 10.9417 35.215C10.2467 35.4033 9.98333 36.1533 10.255 36.8183C10.3433 37.035 10.475 37.235 10.5933 37.4383C11.9867 39.86 13.3817 42.2833 14.7767 44.705C15.1783 45.4017 15.5783 46.0983 15.9817 46.7967L15.98 46.795ZM7.61167 33.9567C9.06667 33.8933 10.05 33.405 10.825 32.4967C11.9883 31.1333 12.04 28.97 10.9683 27.5517C10.865 27.415 10.8117 27.3067 10.9217 27.13C12.175 25.0833 13.4183 23.0333 14.6633 20.9817C15.3617 19.8317 16.0667 18.6867 16.7467 17.525C17.0917 16.9333 16.8933 16.2133 16.3117 15.9033C15.775 15.6183 15.0933 15.685 14.6883 16.3167C14.535 16.555 14.3983 16.805 14.25 17.0483C12.4667 19.9817 10.6817 22.9133 8.90167 25.8483C8.81833 25.985 8.72833 26.0233 8.57833 25.9867C8.00167 25.85 7.42333 25.8567 6.84667 25.9867C4.85167 26.44 3.525 28.255 3.70167 30.29C3.885 32.4067 5.76167 34.0517 7.61167 33.9567ZM45.5083 10.5383C45.515 10.0517 45.415 9.58667 45.25 9.13333C44.4367 6.88333 41.74 5.81 39.6467 6.93667C38.1183 7.76 37.3883 9.06667 37.4583 10.8133C37.53 12.5867 38.945 13.99 40.3117 14.3933C40.905 14.5683 41.505 14.5383 42.1083 14.5017C42.1783 14.4967 42.2867 14.5417 42.3183 14.5983C43.6367 16.8783 44.95 19.1633 46.2633 21.4467C46.8367 22.445 47.4 23.4483 47.9933 24.435C48.345 25.02 49.0383 25.1583 49.63 24.8067C50.1667 24.4883 50.365 23.7933 50.055 23.2283C49.6917 22.5667 49.305 21.9167 48.9267 21.2617C47.4317 18.6667 45.9367 16.0717 44.4383 13.4783C44.38 13.3783 44.38 13.32 44.4633 13.23C45.1517 12.4667 45.4767 11.5583 45.5083 10.54V10.5383ZM31.7 50.8867V50.8833C33.5183 50.8833 35.3383 50.8933 37.1567 50.875C37.4767 50.8717 37.6217 50.9717 37.7517 51.2617C38.515 52.98 40.3867 53.9383 42.1983 53.565C45.0517 52.98 46.3967 49.695 44.7317 47.3217C43.82 46.0233 42.535 45.4317 40.9733 45.6067C39.3467 45.79 38.22 46.71 37.635 48.2433C37.5467 48.475 37.4517 48.5017 37.2483 48.5017C33.6033 48.4967 29.96 48.4983 26.315 48.4983C25.94 48.4983 25.6 48.5983 25.3267 48.865C24.985 49.1983 24.8717 49.7417 25.0667 50.1733C25.2767 50.6383 25.6383 50.8883 26.1617 50.8867C28.0083 50.885 29.855 50.8867 31.7017 50.8867H31.7ZM40.0367 30.615C40.05 30.6183 40.0633 30.62 40.0767 30.6233C39.9733 31.2233 39.9067 31.8317 39.7617 32.4217C39.2867 34.35 38.3317 36.0117 36.865 37.3533C35.0167 39.045 32.85 39.9917 30.3167 40.015C30.185 40.015 30.0533 40.0267 29.9233 40.0467C29.1833 40.165 28.765 40.8517 29.0067 41.5433C29.165 41.9967 29.5767 42.32 30.0983 42.285C30.94 42.23 31.7967 42.195 32.6167 42.0117C36.335 41.1833 39.0783 39.0317 40.9017 35.7083C41.6333 34.3767 42.05 32.9333 42.2067 31.42C42.25 31 42.2883 30.5767 42.3017 30.155C42.3217 29.4917 41.8433 28.965 41.2183 28.9333C40.6067 28.9017 40.11 29.3517 40.0433 30.0133C40.0233 30.2117 40.04 30.415 40.04 30.6167L40.0367 30.615ZM17.835 29.7283C17.835 29.8533 17.8283 29.9783 17.835 30.1033C17.8617 30.53 18.0433 30.8583 18.4383 31.0533C18.8333 31.2467 19.2117 31.225 19.58 30.98C19.9967 30.7033 20.0717 30.2817 20.08 29.8317C20.115 28.1483 20.5333 26.5667 21.39 25.115C22.9983 22.3917 25.3617 20.74 28.485 20.21C29.0567 20.1133 29.645 20.105 30.2233 20.0467C30.7 19.9983 31.1117 19.58 31.17 19.1033C31.2533 18.42 30.7583 17.8517 30.05 17.8367C28.79 17.8117 27.56 18.0183 26.365 18.4017C23.9233 19.1867 21.9117 20.595 20.3517 22.6333C18.7517 24.725 17.92 27.095 17.8333 29.7267L17.835 29.7283ZM26.1667 30.03C26.1483 30.0333 26.1283 30.0367 26.11 30.0383C26.175 30.46 26.185 30.9 26.315 31.3C26.9383 33.225 28.9633 34.3533 30.9383 33.9083C32.95 33.455 34.315 31.445 33.9583 29.43C33.575 27.2683 31.615 25.685 29.0817 26.2417C27.2967 26.6333 25.9683 28.4883 26.1683 30.0283L26.1667 30.03ZM21.8667 29.8083C21.8667 29.885 21.8667 29.9617 21.8667 30.0367C21.8783 30.6583 22.305 31.1217 22.915 31.1733C23.485 31.2217 23.99 30.8233 24.0867 30.225C24.1383 29.905 24.1233 29.5733 24.1767 29.2517C24.58 26.7983 25.9867 25.1883 28.32 24.3767C28.8617 24.1883 29.4317 24.1633 30.0017 24.125C30.2333 24.11 30.49 24.0383 30.6817 23.91C31.1417 23.605 31.275 23.1317 31.1033 22.635C30.93 22.1383 30.515 21.8467 29.97 21.86C28.395 21.9017 26.925 22.3133 25.6117 23.1883C23.255 24.76 22.0467 26.9933 21.8667 29.8067V29.8083ZM30.45 38.2383C32.15 38.1533 33.685 37.6 35.025 36.5567C37.1333 34.915 38.19 32.7333 38.245 30.065C38.2517 29.77 38.1483 29.5067 37.9433 29.2883C37.6617 28.9883 37.1283 28.8617 36.7517 29.0017C36.3 29.17 36.0267 29.56 36 30.0517C35.98 30.4033 35.975 30.76 35.91 31.105C35.6067 32.7317 34.7633 34.0233 33.4083 34.9633C32.415 35.6517 31.305 36.0033 30.0867 36.0017C29.44 36.0017 28.9517 36.5017 28.9317 37.1517C28.915 37.6783 29.3917 38.1817 29.97 38.2367C30.1283 38.2517 30.2883 38.2383 30.4483 38.2383H30.45Z" fill="url(#paint0_linear_5757_33990)"></path>
    <path d="M28.4041 11.9297C26.5358 11.9297 24.6691 11.9314 22.8008 11.9264C22.6058 11.9264 22.5425 12.008 22.4741 12.1847C22.1841 12.928 21.6908 13.518 21.0291 13.9664C18.6475 15.578 15.3691 14.258 14.8158 11.4397C14.3541 9.08136 15.9058 6.96803 18.1958 6.64469C20.2541 6.35303 21.9491 7.57636 22.5375 9.23303C22.6508 9.55136 22.6525 9.54303 22.9975 9.53636C23.5041 9.52469 24.0108 9.52136 24.5175 9.51969C27.5725 9.51636 30.6275 9.51303 33.6841 9.51636C33.8908 9.51636 34.1025 9.53636 34.3025 9.58636C34.8991 9.73469 35.2675 10.3347 35.1791 10.983C35.1058 11.518 34.5758 11.9447 33.9875 11.9447C32.1258 11.9447 30.2658 11.9447 28.4041 11.9447C28.4041 11.9397 28.4041 11.9364 28.4041 11.9314V11.9297ZM18.8058 9.00136C17.8658 9.00303 17.1425 9.70969 17.1375 10.628C17.1325 11.5247 17.8591 12.258 18.7575 12.263C19.6591 12.268 20.3891 11.5364 20.3941 10.6247C20.3991 9.75969 19.6558 8.99969 18.8075 9.00136H18.8058Z" fill="white"></path>
    <path d="M52.8054 34.2426C52.5037 34.1992 52.2137 34.1726 51.9304 34.1109C51.7888 34.0792 51.7137 34.1059 51.6404 34.2242C51.2237 34.9126 50.8004 35.5959 50.3821 36.2842C48.8771 38.7609 47.3721 41.2392 45.8688 43.7176C45.6288 44.1126 45.2937 44.3526 44.8254 44.3742C43.9521 44.4142 43.3204 43.4942 43.6971 42.7026C43.8904 42.2976 44.1438 41.9209 44.3788 41.5359C45.9688 38.9159 47.5621 36.2959 49.1537 33.6759C49.3021 33.4326 49.4454 33.1876 49.6037 32.9509C49.6871 32.8259 49.6737 32.7459 49.5837 32.6242C48.8071 31.5892 48.5488 30.4259 48.8888 29.1826C49.3304 27.5642 50.4121 26.5342 52.0571 26.2359C54.5287 25.7859 56.4171 27.5192 56.7688 29.5109C57.0854 31.3042 56.0321 33.5209 53.8071 34.0926C53.4804 34.1759 53.1371 34.1942 52.8087 34.2426H52.8054ZM52.7638 28.5692C51.9138 28.5542 51.1771 29.2692 51.1604 30.1276C51.1404 31.0742 51.8571 31.8159 52.8054 31.8292C53.6454 31.8409 54.3971 31.0892 54.4171 30.2176C54.4371 29.3126 53.7087 28.5859 52.7638 28.5692Z" fill="white"></path>
    <path d="M15.9803 46.7932C15.577 46.0948 15.177 45.3982 14.7753 44.7015C13.3803 42.2798 11.987 39.8582 10.592 37.4348C10.4753 37.2298 10.342 37.0315 10.2537 36.8148C9.98199 36.1498 10.2453 35.4015 10.9403 35.2115C11.562 35.0432 11.9853 35.1182 12.3503 35.6998C12.7803 36.3865 13.1737 37.0982 13.577 37.8015C15.047 40.3565 16.5153 42.9115 17.9787 45.4682C18.0587 45.6082 18.152 45.6115 18.2887 45.5948C20.172 45.3548 21.917 46.3198 22.5937 48.0565C23.647 50.7598 21.8237 53.3032 19.3353 53.5815C17.0637 53.8348 15.067 52.2265 14.8503 49.9548C14.7353 48.7548 15.1103 47.6965 15.9787 46.7915L15.9803 46.7932ZM18.857 51.2065C19.7637 51.2148 20.4937 50.4998 20.502 49.5998C20.5087 48.7298 19.7753 47.9748 18.9337 47.9482C17.9787 47.9182 17.2437 48.7048 17.2303 49.5748C17.2187 50.4632 17.9637 51.1998 18.857 51.2065Z" fill="white"></path>
    <path d="M7.60935 33.9567C5.75935 34.0517 3.88436 32.4083 3.69936 30.29C3.52269 28.255 4.84769 26.4417 6.84435 25.9867C7.42102 25.855 7.99935 25.8483 8.57602 25.9867C8.72602 26.0217 8.81602 25.985 8.89935 25.8483C10.6794 22.9133 12.4644 19.9817 14.2477 17.0483C14.396 16.805 14.5327 16.5567 14.686 16.3167C15.091 15.685 15.771 15.6183 16.3094 15.9033C16.891 16.2133 17.091 16.935 16.7444 17.525C16.066 18.6867 15.3594 19.8317 14.661 20.9817C13.416 23.0333 12.1727 25.0833 10.9194 27.13C10.811 27.3067 10.8644 27.415 10.966 27.5517C12.0377 28.97 11.986 31.1333 10.8227 32.4967C10.0477 33.405 9.06435 33.8933 7.60935 33.9567ZM9.33269 29.8967C9.33269 29.02 8.60769 28.29 7.73602 28.2883C6.82269 28.2867 6.08435 29.015 6.08602 29.915C6.08769 30.8367 6.78435 31.5367 7.70269 31.5383C8.65602 31.54 9.33435 30.8583 9.33435 29.8967H9.33269Z" fill="white"></path>
    <path d="M45.5077 10.5394C45.4761 11.5577 45.1511 12.466 44.4627 13.2294C44.3811 13.321 44.3811 13.3794 44.4377 13.4777C45.9361 16.071 47.4311 18.666 48.9261 21.261C49.3027 21.916 49.6894 22.566 50.0544 23.2277C50.3644 23.7927 50.1661 24.4877 49.6294 24.806C49.0377 25.1577 48.3444 25.0194 47.9927 24.4344C47.3994 23.4477 46.8377 22.4444 46.2627 21.446C44.9494 19.1627 43.6361 16.8777 42.3177 14.5977C42.2861 14.541 42.1761 14.4977 42.1077 14.501C41.5044 14.5377 40.9044 14.5677 40.3111 14.3927C38.9444 13.9894 37.5277 12.586 37.4577 10.8127C37.3877 9.06605 38.1177 7.75938 39.6461 6.93605C41.7394 5.80938 44.4377 6.88271 45.2494 9.13271C45.4127 9.58771 45.5144 10.051 45.5077 10.5377V10.5394ZM39.8327 10.5127C39.8327 11.4027 40.5827 12.1694 41.4477 12.1677C42.3577 12.166 43.1244 11.4044 43.1127 10.516C43.1011 9.65438 42.3361 8.89105 41.4811 8.88771C40.6044 8.88438 39.8327 9.64605 39.8327 10.5127Z" fill="white"></path>
    <path d="M31.6989 50.8886C29.8523 50.8886 28.0056 50.8886 26.1589 50.8886C25.6356 50.8886 25.2739 50.6386 25.0639 50.1753C24.8689 49.7436 24.9823 49.2003 25.3239 48.867C25.5956 48.6003 25.9373 48.5003 26.3123 48.5003C29.9573 48.5003 33.6006 48.5003 37.2456 48.5036C37.4489 48.5036 37.5439 48.477 37.6323 48.2453C38.2173 46.712 39.3456 45.792 40.9706 45.6086C42.5323 45.432 43.8189 46.0253 44.7289 47.3236C46.3939 49.6953 45.0489 52.9803 42.1956 53.567C40.3839 53.9386 38.5123 52.982 37.7489 51.2636C37.6206 50.9736 37.4756 50.8736 37.1539 50.877C35.3356 50.8953 33.5173 50.8853 31.6973 50.8853V50.8886H31.6989ZM43.0473 49.6286C43.0473 48.712 42.3223 47.9736 41.4206 47.9686C40.5139 47.9653 39.7956 48.6986 39.7989 49.6236C39.8023 50.522 40.5306 51.2453 41.4306 51.2436C42.3156 51.2436 43.0473 50.512 43.0473 49.6286Z" fill="white"></path>
    <path d="M40.0355 30.6185C40.0355 30.4168 40.0189 30.2152 40.0389 30.0152C40.1055 29.3535 40.6039 28.9035 41.2139 28.9352C41.8389 28.9685 42.3172 29.4952 42.2972 30.1568C42.2839 30.5802 42.2455 31.0018 42.2022 31.4218C42.0455 32.9352 41.6289 34.3785 40.8972 35.7102C39.0739 39.0335 36.3305 41.1852 32.6122 42.0135C31.7922 42.1952 30.9372 42.2318 30.0939 42.2868C29.5722 42.3202 29.1605 41.9985 29.0022 41.5452C28.7605 40.8535 29.1789 40.1668 29.9189 40.0485C30.0489 40.0285 30.1805 40.0168 30.3122 40.0168C32.8472 39.9935 35.0122 39.0485 36.8605 37.3552C38.3272 36.0135 39.2822 34.3502 39.7572 32.4235C39.9022 31.8335 39.9705 31.2252 40.0722 30.6252C40.0589 30.6218 40.0455 30.6202 40.0322 30.6168L40.0355 30.6185Z" fill="white"></path>
    <path d="M17.8341 29.7282C17.9207 27.0966 18.7524 24.7266 20.3524 22.6349C21.9124 20.5966 23.9241 19.1866 26.3657 18.4032C27.5607 18.0199 28.7907 17.8116 30.0507 17.8382C30.7591 17.8532 31.2541 18.4216 31.1707 19.1049C31.1124 19.5799 30.7007 19.9999 30.2241 20.0482C29.6457 20.1082 29.0574 20.1149 28.4857 20.2116C25.3607 20.7416 22.9991 22.3932 21.3907 25.1166C20.5341 26.5666 20.1157 28.1499 20.0807 29.8332C20.0707 30.2849 19.9974 30.7049 19.5807 30.9816C19.2107 31.2266 18.8341 31.2499 18.4391 31.0549C18.0441 30.8616 17.8624 30.5316 17.8357 30.1049C17.8274 29.9799 17.8357 29.8549 17.8357 29.7299L17.8341 29.7282Z" fill="white"></path>
    <path d="M26.1677 30.0312C25.9677 28.4912 27.2977 26.6362 29.081 26.2445C31.6144 25.6895 33.5744 27.2729 33.9577 29.4329C34.3144 31.4479 32.951 33.4579 30.9377 33.9112C28.9627 34.3562 26.9394 33.2279 26.3144 31.3029C26.1844 30.9029 26.1744 30.4629 26.1094 30.0412C26.1277 30.0379 26.1477 30.0345 26.166 30.0329L26.1677 30.0312ZM30.081 31.7662C31.031 31.7445 31.7744 30.9845 31.7627 30.0612C31.751 29.1062 30.996 28.3495 30.036 28.3412C29.111 28.3329 28.2927 29.2079 28.341 30.1429C28.3827 30.9579 29.101 31.7862 30.081 31.7645V31.7662Z" fill="white"></path>
    <path d="M21.8672 29.8066C22.0472 26.9949 23.2555 24.7599 25.6122 23.1883C26.9255 22.3133 28.3972 21.9016 29.9705 21.8599C30.5155 21.8449 30.9305 22.1366 31.1039 22.6349C31.2755 23.1316 31.1422 23.6049 30.6822 23.9099C30.4905 24.0366 30.2355 24.1083 30.0022 24.1249C29.4339 24.1633 28.8622 24.1883 28.3205 24.3766C25.9872 25.1899 24.5805 26.7999 24.1772 29.2516C24.1239 29.5716 24.1389 29.9033 24.0872 30.2249C23.9905 30.8233 23.4839 31.2216 22.9155 31.1733C22.3055 31.1216 21.8772 30.6583 21.8672 30.0366C21.8672 29.9599 21.8672 29.8833 21.8672 29.8083V29.8066Z" fill="white"></path>
    <path d="M30.4468 38.2389C30.2868 38.2389 30.1268 38.2523 29.9684 38.2373C29.3901 38.1823 28.9134 37.6806 28.9301 37.1523C28.9501 36.5039 29.4384 36.0023 30.0851 36.0023C31.3034 36.0023 32.4134 35.6523 33.4068 34.9639C34.7618 34.0239 35.6068 32.7323 35.9084 31.1056C35.9734 30.7606 35.9784 30.4039 35.9984 30.0523C36.0251 29.5606 36.2984 29.1723 36.7501 29.0023C37.1268 28.8623 37.6601 28.9889 37.9418 29.2889C38.1451 29.5073 38.2484 29.7706 38.2434 30.0656C38.1901 32.7339 37.1334 34.9156 35.0234 36.5573C33.6851 37.6006 32.1501 38.1539 30.4484 38.2389H30.4468Z" fill="white"></path>
    <path d="M18.8106 9C19.659 8.99834 20.4023 9.75834 20.3973 10.6233C20.3923 11.535 19.6623 12.2667 18.7606 12.2617C17.864 12.2567 17.1373 11.5233 17.1406 10.6267C17.1456 9.70834 17.869 9.00167 18.809 9H18.8106Z" fill="url(#paint1_linear_5757_33990)"></path>
    <path d="M52.7599 28.5705C53.7049 28.5872 54.4333 29.3139 54.4133 30.2189C54.3933 31.0905 53.6416 31.8422 52.8016 31.8305C51.8533 31.8172 51.1383 31.0755 51.1566 30.1289C51.1733 29.2705 51.9099 28.5555 52.7599 28.5705Z" fill="url(#paint2_linear_5757_33990)"></path>
    <path d="M18.8534 51.2084C17.9584 51.2 17.2134 50.4634 17.2267 49.5767C17.2384 48.7067 17.9751 47.92 18.9301 47.95C19.7717 47.9767 20.5051 48.7317 20.4984 49.6017C20.4917 50.5017 19.7601 51.2167 18.8534 51.2084Z" fill="url(#paint3_linear_5757_33990)"></path>
    <path d="M9.33427 29.8974C9.33427 30.8591 8.65594 31.5407 7.70261 31.5391C6.78427 31.5374 6.08761 30.8374 6.08594 29.9157C6.08427 29.0157 6.82261 28.2874 7.73594 28.2891C8.60761 28.2907 9.33261 29.0207 9.33261 29.8974H9.33427Z" fill="url(#paint4_linear_5757_33990)"></path>
    <path d="M39.8359 10.5117C39.8359 9.64506 40.6059 8.8834 41.4843 8.88673C42.3409 8.89006 43.1059 9.6534 43.1159 10.5151C43.1276 11.4034 42.3593 12.1651 41.4509 12.1667C40.5859 12.1684 39.8376 11.4017 39.8359 10.5117Z" fill="url(#paint5_linear_5757_33990)"></path>
    <path d="M43.0491 49.6249C43.0491 50.5082 42.3175 51.2382 41.4325 51.2399C40.5325 51.2399 39.8041 50.5182 39.8008 49.6199C39.7975 48.6949 40.5158 47.9615 41.4225 47.9649C42.3241 47.9682 43.0491 48.7082 43.0491 49.6249Z" fill="url(#paint6_linear_5757_33990)"></path>
    <path d="M30.078 31.7632C29.098 31.7849 28.3813 30.9549 28.338 30.1416C28.2896 29.2066 29.108 28.3316 30.033 28.3399C30.993 28.3482 31.748 29.1032 31.7596 30.0599C31.7713 30.9832 31.0263 31.7432 30.078 31.7649V31.7632Z" fill="url(#paint7_linear_5757_33990)"></path>
  </g>
  <defs>
    <linearGradient id="paint0_linear_5757_33990" x1="30" y1="0" x2="30" y2="60" gradientUnits="userSpaceOnUse">
      <stop stop-color="#1AC4FB"></stop>
      <stop offset="1" stop-color="#1C80F3"></stop>
    </linearGradient>
    <linearGradient id="paint1_linear_5757_33990" x1="18.769" y1="9" x2="18.769" y2="12.2617" gradientUnits="userSpaceOnUse">
      <stop stop-color="#1AC4FB"></stop>
      <stop offset="1" stop-color="#1C80F3"></stop>
    </linearGradient>
    <linearGradient id="paint2_linear_5757_33990" x1="52.785" y1="28.5703" x2="52.785" y2="31.8307" gradientUnits="userSpaceOnUse">
      <stop stop-color="#1AC4FB"></stop>
      <stop offset="1" stop-color="#1C80F3"></stop>
    </linearGradient>
    <linearGradient id="paint3_linear_5757_33990" x1="18.8625" y1="47.9492" x2="18.8625" y2="51.2085" gradientUnits="userSpaceOnUse">
      <stop stop-color="#1AC4FB"></stop>
      <stop offset="1" stop-color="#1C80F3"></stop>
    </linearGradient>
    <linearGradient id="paint4_linear_5757_33990" x1="7.71011" y1="28.2891" x2="7.71011" y2="31.5391" gradientUnits="userSpaceOnUse">
      <stop stop-color="#1AC4FB"></stop>
      <stop offset="1" stop-color="#1C80F3"></stop>
    </linearGradient>
    <linearGradient id="paint5_linear_5757_33990" x1="41.476" y1="8.88672" x2="41.476" y2="12.1667" gradientUnits="userSpaceOnUse">
      <stop stop-color="#1AC4FB"></stop>
      <stop offset="1" stop-color="#1C80F3"></stop>
    </linearGradient>
    <linearGradient id="paint6_linear_5757_33990" x1="41.425" y1="47.9648" x2="41.425" y2="51.2399" gradientUnits="userSpaceOnUse">
      <stop stop-color="#1AC4FB"></stop>
      <stop offset="1" stop-color="#1C80F3"></stop>
    </linearGradient>
    <linearGradient id="paint7_linear_5757_33990" x1="30.0479" y1="28.3398" x2="30.0479" y2="31.7649" gradientUnits="userSpaceOnUse">
      <stop stop-color="#1AC4FB"></stop>
      <stop offset="1" stop-color="#1C80F3"></stop>
    </linearGradient>
    <clipPath id="clip0_5757_33990">
      <rect width="60" height="60" fill="white"></rect>
    </clipPath>
  </defs>
</svg>
