<?xml version="1.0" encoding="UTF-8"?>
<svg xmlns="http://www.w3.org/2000/svg" width="60" height="60" viewBox="0 0 60 60" fill="none">
  <g clip-path="url(#clip0_5451_17590)">
    <path d="M13.05 57.4991C20.2573 57.4991 26.1 51.7057 26.1 44.5591C26.1 37.4126 20.2573 31.6191 13.05 31.6191C5.84268 31.6191 0 37.4126 0 44.5591C0 51.7057 5.84268 57.4991 13.05 57.4991Z" fill="#EF5350"></path>
    <path d="M30.0002 28.38C37.2075 28.38 43.0502 22.5866 43.0502 15.44C43.0502 8.29344 37.2075 2.5 30.0002 2.5C22.7929 2.5 16.9502 8.29344 16.9502 15.44C16.9502 22.5866 22.7929 28.38 30.0002 28.38Z" fill="#EF5350"></path>
    <path d="M46.9504 57.4991C54.1577 57.4991 60.0004 51.7057 60.0004 44.5591C60.0004 37.4126 54.1577 31.6191 46.9504 31.6191C39.7431 31.6191 33.9004 37.4126 33.9004 44.5591C33.9004 51.7057 39.7431 57.4991 46.9504 57.4991Z" fill="#EF5350"></path>
  </g>
  <defs>
    <clipPath id="clip0_5451_17590">
      <rect width="60" height="60" fill="white"></rect>
    </clipPath>
  </defs>
</svg>
