<?xml version="1.0" encoding="UTF-8"?>
<svg xmlns="http://www.w3.org/2000/svg" width="60" height="60" viewBox="0 0 60 60" fill="none">
  <g clip-path="url(#clip0_5451_20475)">
    <path d="M37.8246 59.9993H58.2396C58.5391 59.9996 58.8337 59.9232 59.0954 59.7774C59.357 59.6316 59.577 59.4212 59.7344 59.1664C59.8918 58.9115 59.9813 58.6206 59.9945 58.3214C60.0076 58.0221 59.944 57.7245 59.8096 57.4568C59.8096 57.4568 32.3296 2.3093 31.6371 0.936801C31.0171 -0.305699 29.4346 -0.328199 28.6371 0.949301C14.3046 23.6143 27.6421 41.7993 36.2546 59.0143C36.3983 59.3086 36.6215 59.5569 36.8989 59.731C37.1764 59.905 37.497 59.998 37.8246 59.9993Z" fill="#0052CC"></path>
    <path d="M14.9299 28.0285L0.187431 57.4435C0.0544833 57.7113 -0.00803103 58.0086 0.0057866 58.3073C0.0196042 58.606 0.109298 58.8963 0.266405 59.1507C0.423512 59.4051 0.642852 59.6153 0.903727 59.7615C1.1646 59.9076 1.45841 59.9849 1.75743 59.986H22.2649C22.5942 59.9929 22.9183 59.9033 23.1973 59.7283C23.4762 59.5533 23.6979 59.3004 23.8349 59.001C28.2774 49.8835 25.6049 35.996 17.8349 27.701C16.9299 26.741 15.5249 26.7985 14.9299 28.0285Z" fill="#0052CC"></path>
  </g>
  <defs>
    <clipPath id="clip0_5451_20475">
      <rect width="60" height="60" fill="white"></rect>
    </clipPath>
  </defs>
</svg>
