<?xml version="1.0" encoding="UTF-8"?>
<svg xmlns="http://www.w3.org/2000/svg" width="100" height="60" viewBox="0 0 100 60" fill="none">
  <g clip-path="url(#clip0_5757_33893)">
    <path d="M28.1791 21.7901C28.1533 22.7928 28.2766 23.7938 28.5448 24.7601C28.8404 25.5864 29.1962 26.3897 29.6095 27.1635C29.7574 27.3924 29.8382 27.6584 29.8424 27.9311C29.8424 28.2648 29.6427 28.5988 29.2104 28.9322L27.1152 30.3338C26.8624 30.5165 26.5618 30.6209 26.2505 30.6341C25.8717 30.6079 25.5161 30.4414 25.2528 30.1669C24.8045 29.6838 24.4034 29.1586 24.0551 28.5986C23.7226 28.0313 23.3897 27.3968 23.0241 26.6296C20.4299 29.6992 17.1705 31.234 13.2458 31.234C10.4511 31.234 8.22369 30.4328 6.59403 28.8305C4.96437 27.2282 4.13281 25.0937 4.13281 22.4241C4.13281 19.5877 5.13053 17.2851 7.15943 15.5498C9.18833 13.8146 11.8821 12.9468 15.3077 12.9468C16.4875 12.9565 17.6653 13.0457 18.8332 13.2139C20.0638 13.3808 21.3277 13.6476 22.6579 13.9481V11.512C22.6579 8.97499 22.1256 7.20729 21.0948 6.17266C20.0302 5.13821 18.2346 4.63768 15.6735 4.63768C14.4632 4.63763 13.2572 4.78326 12.0815 5.07145C10.8589 5.36371 9.65849 5.74286 8.48947 6.20604C8.11125 6.37583 7.7224 6.52073 7.3254 6.63981C7.15319 6.69678 6.97417 6.73046 6.79308 6.73995C6.32749 6.73995 6.0946 6.40633 6.0946 5.70551V4.07038C6.0946 3.53628 6.16114 3.1357 6.32749 2.90241C6.57846 2.59823 6.89771 2.35806 7.25905 2.20159C8.59304 1.53934 9.99943 1.03541 11.4497 0.699992C13.1445 0.263679 14.8886 0.050536 16.6382 0.065933C20.5967 0.065933 23.4895 0.966854 25.3521 2.76888C27.1813 4.57092 28.1125 7.30725 28.1125 10.9781V21.7901H28.1791ZM14.676 26.8624C15.8428 26.8495 16.9997 26.6466 18.1017 26.2617C19.3224 25.838 20.4115 25.1015 21.2612 24.1253C21.7973 23.5102 22.1843 22.779 22.392 21.9888C22.6205 21.0383 22.7321 20.0633 22.7245 19.0856V17.6855C21.7161 17.4392 20.6947 17.2498 19.6652 17.1182C18.6281 16.9864 17.5837 16.9198 16.5383 16.9188C14.31 16.9188 12.6804 17.3526 11.5828 18.2541C10.4853 19.1556 9.95317 20.4231 9.95317 22.0917C9.95317 23.66 10.3524 24.828 11.1838 25.629C11.9823 26.4633 13.1461 26.8637 14.676 26.8637V26.8624ZM41.3829 30.4664C40.7842 30.4664 40.3852 30.3663 40.119 30.1328C39.8528 29.9325 39.6201 29.4652 39.4205 28.8313L31.6043 3.03594C31.4528 2.60414 31.3524 2.15598 31.3051 1.70068C31.3051 1.16657 31.5713 0.866327 32.1036 0.866327H35.3629C35.9948 0.866327 36.4275 0.966472 36.6601 1.19995C36.9262 1.40024 37.1256 1.86758 37.3255 2.50145L42.9129 24.5926L48.1011 2.50202C48.2675 1.83439 48.4669 1.40081 48.7331 1.20052C48.9992 1.00023 49.4648 0.866899 50.0639 0.866899H52.7255C53.3574 0.866899 53.7901 0.967044 54.0563 1.20052C54.3225 1.40081 54.5552 1.86816 54.6882 2.50202L59.9432 24.8602L65.6951 2.50202C65.8947 1.83439 66.1274 1.40081 66.3605 1.20052C66.6267 1.00023 67.059 0.866899 67.6576 0.866899H70.7508C71.2831 0.866899 71.5824 1.13395 71.5824 1.70125C71.5746 1.88079 71.5524 2.05941 71.5158 2.23535C71.4637 2.52001 71.3857 2.79929 71.2829 3.0697L63.2675 28.8651C63.068 29.5324 62.8352 29.9663 62.569 30.1666C62.1931 30.408 61.7509 30.5248 61.3052 30.5002H58.4447C57.8128 30.5002 57.3801 30.4 57.1139 30.1666C56.8477 29.9331 56.615 29.4989 56.482 28.8313L51.3272 7.30725L46.2051 28.7979C46.0388 29.4655 45.8394 29.8991 45.5732 30.1332C45.307 30.3672 44.8414 30.4668 44.2424 30.4668L41.3829 30.4664ZM84.1206 31.3673C82.3958 31.3692 80.6767 31.1676 78.9987 30.7667C77.3358 30.3661 76.0387 29.9323 75.174 29.4314C74.6417 29.1312 74.2761 28.7973 74.143 28.4967C74.0135 28.2021 73.9456 27.884 73.9434 27.562V25.8613C73.9434 25.1605 74.2096 24.8268 74.7084 24.8268C74.9121 24.8275 75.1142 24.8613 75.3071 24.927C75.5067 24.9937 75.806 25.1273 76.1386 25.2606C77.3134 25.779 78.5399 26.1706 79.7972 26.4286C81.0999 26.6939 82.4258 26.8281 83.755 26.8292C85.8503 26.8292 87.4801 26.4622 88.6109 25.7279C89.1527 25.4 89.5982 24.9338 89.902 24.377C90.2059 23.8202 90.3574 23.1925 90.341 22.5578C90.3527 22.1283 90.2793 21.7006 90.1252 21.2996C89.9711 20.8987 89.7392 20.5324 89.4431 20.2219C88.8444 19.5878 87.713 19.0202 86.0839 18.4861L81.2603 16.9847C78.8324 16.2173 77.0364 15.0827 75.939 13.5807C74.8683 12.1958 74.2837 10.4946 74.2761 8.74189C74.2491 7.4498 74.5586 6.173 75.174 5.03769C75.7681 3.9641 76.585 3.03097 77.5695 2.30135C78.6061 1.51395 79.7787 0.925461 81.0284 0.565512C82.3899 0.172314 83.8015 -0.0184949 85.2181 -0.000830047C85.9631 -0.00624839 86.7075 0.03836 87.4465 0.132696C88.2115 0.232841 88.9103 0.366367 89.6083 0.499702C90.2737 0.66661 90.9054 0.833327 91.5041 1.03381C91.9894 1.18443 92.4576 1.38576 92.901 1.63448C93.2927 1.83263 93.6339 2.11802 93.8988 2.46883C94.115 2.79356 94.2201 3.18011 94.198 3.57004V5.1384C94.198 5.83922 93.9318 6.20661 93.433 6.20661C93.1668 6.20661 92.7345 6.07309 92.1691 5.80603C90.2733 4.93837 88.1447 4.50453 85.7833 4.50453C83.8875 4.50453 82.3909 4.80478 81.36 5.43922C80.329 6.07366 79.7968 7.04153 79.7968 8.40922C79.7877 8.85234 79.8719 9.2924 80.0438 9.70067C80.2157 10.1089 80.4715 10.4762 80.7946 10.7785C81.46 11.4126 82.6904 12.0467 84.4531 12.614L89.1759 14.1148C91.5714 14.8824 93.3001 15.9502 94.3311 17.3183C95.3463 18.6607 95.8848 20.3052 95.8609 21.9902C95.8781 23.3305 95.582 24.6563 94.9963 25.8611C94.4061 27.0033 93.5781 28.0048 92.5683 28.7977C91.4703 29.6553 90.2164 30.2903 88.8765 30.6671C87.336 31.1425 85.7321 31.3788 84.1204 31.3679L84.1206 31.3673Z" fill="#252F3E"></path>
    <path d="M90.4082 47.585C79.466 55.694 63.5682 59.9987 49.8988 59.9987C30.7415 59.9995 13.4801 52.8915 0.443005 41.0784C-0.587985 40.1438 0.343195 38.876 1.57381 39.6097C15.6755 47.8188 33.0701 52.7906 51.0631 52.7906C63.2026 52.7906 76.5393 50.2536 88.812 45.0486C90.6413 44.2142 92.2044 46.2503 90.4089 47.5856L90.4082 47.585Z" fill="#FF9900"></path>
    <path d="M94.9652 42.3809C93.5682 40.5789 85.7191 41.5134 82.1604 41.9472C81.0958 42.0807 80.9298 41.146 81.8942 40.4456C88.1469 36.0407 98.4239 37.3086 99.6213 38.7771C100.819 40.2787 99.2888 50.5901 93.4351 55.5291C92.5372 56.2966 91.6724 55.8961 92.0714 54.895C93.4021 51.5912 96.3621 44.1496 94.9652 42.3809Z" fill="#FF9900"></path>
  </g>
  <defs>
    <clipPath id="clip0_5757_33893">
      <rect width="100" height="60" fill="white"></rect>
    </clipPath>
  </defs>
</svg>
