<?xml version="1.0" encoding="UTF-8"?>
<svg xmlns="http://www.w3.org/2000/svg" width="52" height="60" viewBox="0 0 52 60" fill="none">
  <g clip-path="url(#clip0_5757_33760)">
    <path d="M25.9976 0C11.7244 0 0 3.82734 0 8.67525C0 9.95103 3.05845 28.0669 4.33286 35.2112C4.8427 38.5281 13.2537 43.1209 25.9976 43.1209C38.7416 43.1209 46.8977 38.5281 47.6623 35.2112C48.9367 28.0669 51.9951 9.95103 51.9951 8.67525C51.7404 3.82734 40.2707 0 25.9976 0ZM25.9976 37.2524C21.4098 37.2524 17.8415 33.6802 17.8415 29.0875C17.8415 24.4948 21.4098 20.9226 25.9976 20.9226C30.5853 20.9226 34.1536 24.4948 34.1536 29.0875C34.1536 33.425 30.5853 37.2524 25.9976 37.2524ZM25.9976 11.2268C16.822 11.2268 9.43048 9.69563 9.43048 7.65467C9.43048 5.6133 16.822 4.08253 25.9976 4.08253C35.1731 4.08253 42.5646 5.6133 42.5646 7.65467C42.5646 9.69584 35.1731 11.2268 25.9976 11.2268Z" fill="#205081"></path>
    <path d="M44.8099 42.0996C44.3001 42.0996 44.0453 42.3548 44.0453 42.3548C44.0453 42.3548 37.6733 47.4579 26.2039 47.4579C14.7342 47.4579 8.36238 42.3548 8.36238 42.3548C8.36238 42.3548 7.85253 42.0996 7.59761 42.0996C7.08777 42.0996 6.57812 42.3548 6.57812 43.1204V43.3754C7.59781 48.7335 8.36238 52.5608 8.36238 53.0712C9.12694 56.8986 16.7734 59.9605 25.9489 59.9605C35.1245 59.9605 42.7709 56.8986 43.5355 53.0712C43.5355 52.5608 44.3003 48.7335 45.3198 43.3754V43.1202C45.5747 42.6098 45.3198 42.0996 44.8099 42.0996Z" fill="#205081"></path>
    <path d="M26 32.9151C28.2523 32.9151 30.0782 31.0873 30.0782 28.8325C30.0782 26.5778 28.2523 24.75 26 24.75C23.7477 24.75 21.9219 26.5778 21.9219 28.8325C21.9219 31.0873 23.7477 32.9151 26 32.9151Z" fill="#205081"></path>
  </g>
  <defs>
    <clipPath id="clip0_5757_33760">
      <rect width="52" height="60" fill="white"></rect>
    </clipPath>
  </defs>
</svg>
