<?xml version="1.0" encoding="UTF-8"?>
<svg xmlns="http://www.w3.org/2000/svg" width="60" height="60" viewBox="0 0 60 60" fill="none">
  <g clip-path="url(#clip0_5757_33541)">
    <path d="M0 52.2635C0 56.5366 3.46383 60 7.73648 60H52.2633C56.5366 60 60 56.5362 60 52.2635V7.73672C60 3.46336 56.5362 0 52.2635 0H7.73672C3.46336 0 0 3.46383 0 7.73648V52.2635Z" fill="#563D7C"></path>
    <path d="M24.8788 26.5402V18.0434H32.358C33.0705 18.0434 33.7572 18.1027 34.4186 18.2215C35.08 18.3401 35.6652 18.552 36.1741 18.8573C36.6827 19.1627 37.0898 19.5867 37.3952 20.1293C37.7003 20.6721 37.8531 21.3675 37.8531 22.2152C37.8531 23.7417 37.3952 24.8442 36.4792 25.5225C35.5635 26.201 34.3933 26.5402 32.9685 26.5402H24.8788ZM16.8906 11.8359V48.1641H34.495C36.1232 48.1641 37.709 47.9606 39.2523 47.5535C40.7957 47.1464 42.1694 46.519 43.3736 45.671C44.5776 44.823 45.5359 43.729 46.2482 42.3893C46.9607 41.0494 47.3167 39.4636 47.3167 37.632C47.3167 35.3592 46.7655 33.4174 45.6632 31.8063C44.5607 30.195 42.8901 29.0672 40.6513 28.4227C42.2795 27.6427 43.5093 26.6419 44.3404 25.4208C45.1713 24.1997 45.5868 22.6734 45.5868 20.8416C45.5868 19.1456 45.307 17.7211 44.7473 16.5677C44.1876 15.4146 43.3989 14.4902 42.3813 13.7948C41.3638 13.0995 40.1427 12.5991 38.718 12.2939C37.2934 11.9885 35.7161 11.8359 33.9862 11.8359H16.8906ZM24.8788 41.9566V31.9842H33.5791C35.309 31.9842 36.6998 32.3827 37.7514 33.18C38.8028 33.9771 39.3288 35.3084 39.3288 37.174C39.3288 38.1239 39.1675 38.9039 38.8452 39.5145C38.523 40.125 38.0905 40.6085 37.5477 40.9645C37.0052 41.3208 36.3775 41.5751 35.6652 41.7279C34.9527 41.8802 34.2067 41.9566 33.4265 41.9566H24.8788Z" fill="white"></path>
  </g>
  <defs>
    <clipPath id="clip0_5757_33541">
      <rect width="60" height="60" fill="white"></rect>
    </clipPath>
  </defs>
</svg>
