<?xml version="1.0" encoding="UTF-8"?>
<svg xmlns="http://www.w3.org/2000/svg" width="60" height="60" viewBox="0 0 60 60" fill="none">
  <g clip-path="url(#clip0_5757_33881)">
    <path d="M59.2667 25.0645C56.7917 10.5073 44.2897 -0.00422616 29.4482 1.27466e-06C15.877 0.00211499 4.07367 8.97273 0.474441 22.0186C0.0340646 23.6145 0.535839 24.3056 2.17243 24.3078C5.59381 24.3162 9.01943 24.2359 12.4387 24.3437C14.0456 24.3944 14.9454 23.9125 15.7436 22.4329C19.9568 14.6185 29.842 11.9489 37.4703 16.4468C45.1726 20.9871 47.5798 30.9174 42.7992 38.4253C36.2698 48.6789 21.1382 48.0025 15.5044 37.174C14.9306 36.0727 14.2468 35.6331 13.0273 35.6901C11.2679 35.7726 9.50003 35.7113 7.73641 35.7113C5.9008 35.7113 4.06732 35.707 2.23383 35.7113C0.501964 35.7155 0.0255958 36.3644 0.485027 38.0342C3.95299 50.6193 16.1607 61.8812 33.6233 59.7337C50.3237 57.6813 62.0805 41.617 59.2667 25.0645Z" fill="#343434"></path>
    <path d="M36.6624 30.0594C36.6836 26.1215 33.5184 22.8939 29.6016 22.8558C25.6107 22.8178 22.3523 25.9947 22.3205 29.9579C22.2888 33.8852 25.4773 37.1319 29.3856 37.1572C33.3956 37.1826 36.6412 34.0162 36.6624 30.0594Z" fill="#343434"></path>
  </g>
  <defs>
    <clipPath id="clip0_5757_33881">
      <rect width="59.364" height="60" fill="white" transform="translate(0.316406)"></rect>
    </clipPath>
  </defs>
</svg>
