<?xml version="1.0" encoding="UTF-8"?>
<svg xmlns="http://www.w3.org/2000/svg" width="72" height="60" viewBox="0 0 72 60" fill="none">
  <path d="M22.2258 46.0647H36.5816V42.2706C36.0993 42.2706 35.623 42.2706 35.1466 42.2706C26.6905 42.2706 18.2345 42.2766 9.77841 42.2618C8.78427 42.2618 7.74872 42.2884 6.80784 42.0307C3.60353 41.154 1.61526 38.9949 0.875573 35.7784C-0.269458 30.7937 3.22185 26.7982 6.91731 25.9452C7.76647 25.7498 8.68072 25.7883 9.56538 25.8031C10.4767 25.8179 10.4382 25.8594 10.4974 24.9797C10.666 22.5066 11.5684 20.3297 13.1307 18.4016C14.752 16.3994 16.7788 15.0073 19.273 14.4002C21.2228 13.9233 23.2022 13.8907 25.152 14.5009C25.7704 14.6934 25.8503 14.649 25.9124 14.0181C26.1609 11.5598 27.158 9.40067 28.5368 7.39257C29.8653 5.45556 31.4926 3.82361 33.5134 2.61224C35.8449 1.20835 38.3273 0.230958 41.0641 0.0473272C46.9342 -0.349553 51.7895 1.75332 55.5708 6.2197C57.6892 8.71946 58.855 11.6931 59.2426 14.957C59.3846 16.1595 59.4881 17.362 59.3195 18.603C59.9053 18.6533 60.4882 18.6948 61.0681 18.754C64.0061 19.0532 66.4412 20.3178 68.385 22.554C70.4088 24.8849 71.3497 27.6157 71.3497 30.6663C71.3497 32.2302 70.9473 33.7377 70.3141 35.1742C68.9413 38.287 66.6719 40.4669 63.5031 41.6812C62.4557 42.084 61.3551 42.2766 60.213 42.2736C53.3103 42.2588 46.4076 42.2647 39.5019 42.2618C39.2948 42.2618 39.0847 42.2618 38.848 42.2618V46.0617H53.0736V52.7998H55.6536V59.997H48.4077C48.4077 57.8289 48.4077 55.6846 48.4077 53.5403C48.4077 52.788 48.4165 52.788 49.1858 52.7909C49.7273 52.7909 50.2717 52.7909 50.8131 52.785C50.8457 52.785 50.8782 52.7583 50.9285 52.7376V48.209H38.845V52.7998C39.3806 52.7998 39.9191 52.8057 40.4546 52.7998C41.2889 52.788 41.2919 52.785 41.2949 53.6232C41.3037 55.6964 41.3097 57.7697 41.3156 59.843C41.3156 59.8903 41.3008 59.9348 41.2919 59.9999H34.1081V52.7969C34.8271 52.7969 35.5372 52.7732 36.2473 52.8057C36.5816 52.8205 36.6289 52.711 36.623 52.4148C36.6053 51.1205 36.6141 49.8232 36.6112 48.5289C36.6112 48.4341 36.6023 48.3364 36.5934 48.2179H24.4478C24.4478 48.4815 24.4478 48.7362 24.4478 48.9939C24.4419 50.1786 24.4478 51.3633 24.4271 52.5481C24.4242 52.8146 24.5573 52.8146 24.7526 52.8117C25.4775 52.8057 26.2053 52.8117 26.9568 52.8117V60.0029H19.7819C19.7701 59.9466 19.7523 59.8903 19.7523 59.8311C19.7523 57.5979 19.7582 55.3647 19.7493 53.1315C19.7493 52.8354 19.8588 52.788 20.1222 52.7939C20.8115 52.8117 21.5009 52.7998 22.2347 52.7998V46.0706L22.2258 46.0647Z" fill="#4285F4"></path>
</svg>
