<?xml version="1.0" encoding="UTF-8"?>
<svg xmlns="http://www.w3.org/2000/svg" width="60" height="60" viewBox="0 0 60 60" fill="none">
  <g clip-path="url(#clip0_5451_19045)">
    <path d="M0 50.2755C0 49.5309 0 48.7919 0 48.0473C0.0391791 47.9185 0.0895522 47.7898 0.106343 47.6554C0.761194 43.518 3.02799 40.6348 6.86754 38.9944C7.57836 38.6921 8.33955 38.5185 9.10634 38.2778C9.0056 38.0762 8.91605 37.8859 8.8209 37.7011C7.97015 36.0159 7.09701 34.3308 6.26306 32.6344C5.70336 31.4979 6.38619 30.4677 7.61194 30.5573C7.80784 30.5741 7.99813 30.6077 8.18843 30.6413C8.93284 30.7701 9.68284 30.8988 10.3601 31.022C14.8265 17.591 24.0224 10.3632 38.1828 9.42827C38.1828 9.26032 38.1828 9.04757 38.1828 8.83482C38.1828 6.88092 38.1772 4.92701 38.1828 2.97871C38.1884 1.10318 39.2966 0.00585938 41.1828 0.00585938C46.4552 0.00585938 51.7276 0.00585938 56.9944 0.00585938C58.8638 0.00585938 59.9832 1.12558 59.9888 2.9955C59.9888 8.26937 59.9888 13.5376 59.9888 18.8115C59.9888 20.715 58.8806 21.8123 56.9608 21.8179C55.1082 21.8179 53.25 21.8179 51.3974 21.8179C51.2351 21.8179 51.0672 21.8347 50.8321 21.8515C50.9888 22.0755 51.0951 22.2322 51.2071 22.3834C52.153 23.6487 53.0933 24.9195 54.056 26.1736C54.4478 26.6887 54.6828 27.2206 54.3918 27.8476C54.084 28.5138 53.4963 28.6482 52.8302 28.637C52.0578 28.6202 51.2799 28.637 50.4515 28.637C50.4515 28.9337 50.4515 29.1465 50.4515 29.3592C50.4515 32.0913 50.4683 34.829 50.4403 37.5611C50.4403 38.1042 50.5578 38.3226 51.1287 38.4289C55.9701 39.3359 59.5746 43.3669 59.9664 48.2656C60.3526 53.086 57.4366 57.6433 52.8582 59.3116C51.9851 59.6308 51.056 59.7819 50.1549 60.0171H48.0448C47.916 59.9779 47.7873 59.9275 47.6586 59.9107C43.1698 59.3172 39.4534 55.9357 38.4739 51.5464C38.4179 51.2945 38.3619 51.0425 38.2948 50.729C36.834 51.8263 35.4515 52.8677 34.0634 53.909C33.8899 54.0378 33.722 54.1721 33.5429 54.2897C32.569 54.9112 31.444 54.3569 31.3937 53.2036C31.3545 52.3134 31.3881 51.4232 31.3881 50.4827C31.0578 50.4827 30.8284 50.4827 30.5933 50.4827C27.9011 50.4827 25.209 50.5051 22.5168 50.4659C21.9123 50.4547 21.7052 50.617 21.5765 51.2161C20.7201 55.2359 18.3246 57.9568 14.4907 59.3956C13.7183 59.6867 12.8843 59.8155 12.0784 60.0171H9.73321C9.62687 59.9779 9.52612 59.9219 9.41978 59.9051C4.875 59.2053 1.46082 56.1092 0.324627 51.636C0.201493 51.1769 0.106343 50.7234 0 50.2755ZM12.2295 38.2162C17.597 39.3023 20.7369 42.4431 21.7668 47.6834H31.3377C31.3545 47.4986 31.3713 47.3475 31.3769 47.1963C31.3825 46.4349 31.3545 45.6735 31.3993 44.9121C31.4608 43.8819 32.5131 43.3333 33.4086 43.8372C33.6101 43.9491 33.7948 44.1003 33.9851 44.2403C35.4067 45.304 36.8228 46.3677 38.306 47.4762C38.7369 45.0409 39.7668 42.9806 41.4907 41.2954C43.2146 39.6102 45.3022 38.6249 47.6866 38.2722V28.6202C46.8638 28.6202 46.069 28.609 45.2743 28.6202C44.6418 28.6314 44.1045 28.4802 43.8022 27.8812C43.4888 27.2598 43.6959 26.7223 44.0877 26.2016C45.0784 24.8972 46.0578 23.5815 47.0429 22.2714C47.1381 22.1427 47.2108 22.0027 47.334 21.8067C45.2239 21.8067 43.209 21.8067 41.1996 21.8067C39.2799 21.8011 38.1996 20.7094 38.194 18.7835C38.194 16.8296 38.194 14.8757 38.194 12.9274C38.194 12.7258 38.194 12.5187 38.194 12.3171C26.1325 12.1884 15.8731 20.8718 13.2425 31.5203C13.9701 31.649 14.6978 31.7778 15.4254 31.901C16.0354 32.0074 16.5616 32.2425 16.7575 32.8863C16.959 33.547 16.6903 34.0508 16.2034 34.4987C15.1399 35.4729 14.0877 36.4694 13.0354 37.4604C12.7836 37.6955 12.5373 37.9307 12.2351 38.2162H12.2295ZM43.6231 5.49807C43.6231 5.72201 43.6231 5.91236 43.6231 6.10272C43.6231 9.3219 43.6343 12.5411 43.6119 15.7659C43.6119 16.2529 43.7463 16.3929 44.2332 16.3873C47.4515 16.3649 50.6754 16.3761 53.8937 16.3761C54.084 16.3761 54.2743 16.3761 54.4925 16.3761V5.49807H43.6231ZM10.8246 54.5248C13.8022 54.6032 16.3153 52.1511 16.3601 49.1222C16.3993 46.1774 13.9478 43.6972 10.9422 43.6468C8.01493 43.5964 5.56903 45.9982 5.47948 49.0102C5.39552 51.9775 7.78545 54.4465 10.8246 54.5304V54.5248ZM54.5261 49.167C54.6045 46.211 52.2257 43.77 49.1642 43.6468C46.2705 43.5348 43.7687 45.9702 43.6511 49.0214C43.5392 51.9383 45.9907 54.4521 49.0187 54.5304C51.9851 54.6032 54.4478 52.207 54.5261 49.1726V49.167Z" fill="#0D0D0E"></path>
    <path d="M43.6227 5.49805H54.4921V16.3761C54.2738 16.3761 54.0835 16.3761 53.8932 16.3761C50.6749 16.3761 47.451 16.3649 44.2328 16.3873C43.7458 16.3873 43.6059 16.2529 43.6115 15.7658C43.6339 12.5467 43.6227 9.32748 43.6227 6.10269C43.6227 5.91234 43.6227 5.72199 43.6227 5.49805Z" fill="#F16030"></path>
    <path d="M10.8248 54.525C7.78566 54.4411 5.39573 51.9721 5.47968 49.0048C5.56924 45.9928 8.00954 43.591 10.9424 43.6414C13.948 43.6918 16.3995 46.172 16.3603 49.1168C16.3211 52.1457 13.8024 54.6034 10.8248 54.5194V54.525Z" fill="#F16030"></path>
    <path d="M54.5261 49.1662C54.4478 52.2007 51.9851 54.5969 49.0187 54.5241C45.9907 54.4513 43.5392 51.9319 43.6511 49.0151C43.7687 45.9638 46.2706 43.5285 49.1642 43.6404C52.2258 43.7636 54.6045 46.2046 54.5261 49.1606V49.1662Z" fill="#F16030"></path>
  </g>
  <defs>
    <clipPath id="clip0_5451_19045">
      <rect width="60" height="60" fill="white"></rect>
    </clipPath>
  </defs>
</svg>
