<?xml version="1.0" encoding="UTF-8"?>
<svg xmlns="http://www.w3.org/2000/svg" width="60" height="60" viewBox="0 0 60 60" fill="none">
  <path d="M4.10547 0.46875L8.81875 53.3827L29.9678 59.2795L51.1759 53.3611L55.893 0.46875H4.10547ZM46.1012 12.5916L44.5323 30.2189L44.537 30.3141L44.5305 30.533V30.5311L43.4158 42.8564L43.293 43.9514L29.9992 47.6283L29.9889 47.6377L16.7181 43.9402L15.8195 33.75H22.3272L22.7889 38.9316L30.0011 40.8862L29.9992 40.89V40.8891L37.2381 38.9067L38.0031 30.4688H22.8705L22.7406 29.0423L22.4448 25.7006L22.2897 23.9062H38.5783L39.1708 17.3438H14.3617L14.2319 15.9183L13.9366 12.5756L13.7809 10.7812H46.2564L46.1012 12.5916Z" fill="#1572B6"></path>
</svg>
