<?xml version="1.0" encoding="UTF-8"?>
<svg xmlns="http://www.w3.org/2000/svg" width="70" height="60" viewBox="0 0 70 60" fill="none">
  <g clip-path="url(#clip0_5757_33928)">
    <path d="M65.9969 39.2978C63.9822 38.8845 62.3939 39.7837 61.5072 41.4416C61.2135 41.9894 60.9625 42.213 60.3472 42.1723C59.4682 42.1143 58.5835 42.1578 57.6881 42.1578C57.6716 42.0775 57.6474 42.0175 57.6474 41.9565C57.6493 40.8609 57.6289 39.7643 57.6648 38.6687C57.7007 37.5615 57.3256 37.125 56.2131 37.1192C54.9378 37.1114 53.6616 37.1221 52.3853 37.1221C52.2167 37.1221 52.0481 37.1037 51.8794 37.093V30.2068H55.4892C55.4892 31.5114 55.4786 32.7842 55.4931 34.0569C55.5018 34.8244 55.9108 35.2115 56.6715 35.2135C57.9962 35.2174 59.32 35.227 60.6447 35.2067C61.0255 35.2009 61.2252 35.2764 61.3841 35.6771C62.1002 37.4879 64.0578 38.4955 65.9494 38.0822C67.6831 37.7038 69.0272 36.1784 69.1124 34.4944C69.2132 32.5132 68.1065 30.8601 66.2992 30.2939C64.5559 29.7471 62.5198 30.4013 61.7116 32.0399C61.2339 33.0087 60.6466 33.1771 59.7541 33.0707C59.5787 33.0494 59.3994 33.0678 59.2211 33.0678C58.7124 33.0678 58.2036 33.0678 57.6745 33.0678C57.6745 31.7824 57.6755 30.5736 57.6745 29.3638C57.6735 28.4327 57.2801 28.032 56.3624 28.0311C55.0386 28.0291 53.7139 28.0311 52.3901 28.0311H51.8601C51.8601 27.4358 51.8649 26.9209 51.8591 26.406C51.8484 25.4846 51.2621 24.8972 50.3444 24.8846C50.0256 24.8797 49.7068 24.8846 49.3172 24.8846C49.5498 20.989 48.5439 17.5715 45.4758 15.0396C42.3564 12.4651 38.86 12.1206 35.1242 13.6517C35.1242 11.1721 35.0757 8.75243 35.1426 6.33474C35.1814 4.94103 34.6038 3.95576 33.5291 3.17954C32.1588 2.18943 30.5851 1.66776 28.9764 1.24384C26.2039 0.514079 23.3732 0.187913 20.5145 0.062092C15.8494 -0.143092 11.2279 0.129842 6.69648 1.33966C5.1169 1.76164 3.58576 2.31428 2.28042 3.3402C1.3724 4.05157 0.840383 4.93813 0.881085 6.15762C0.937291 7.832 0.912095 9.50929 0.911126 11.1856C0.907249 19.4114 0.894652 27.6371 0.900466 35.8629C0.900466 36.672 1.17956 37.3844 1.79201 37.9806C2.81341 38.9736 4.04607 39.5814 5.35916 40.0392C8.28867 41.0612 11.3374 41.4774 14.4151 41.6807C17.9833 41.9168 21.5456 41.8287 25.0904 41.3148C25.6224 41.2374 26.1554 41.1629 26.6971 41.0854C26.7136 41.7958 26.7999 42.4085 27.4395 42.7714C27.4821 42.7956 27.5112 42.8789 27.5112 42.936C27.515 44.0596 27.5141 45.1833 27.5141 46.3515C26.2039 46.3515 24.9635 46.3496 23.724 46.3515C22.8751 46.3535 22.4507 46.7812 22.4507 47.63C22.4497 48.985 22.441 50.34 22.4555 51.6941C22.4584 51.9834 22.3722 52.1025 22.0921 52.2051C20.5726 52.7635 19.5435 54.2318 19.5028 55.8394C19.4504 57.9377 20.9312 59.642 23.0835 59.9605C24.9577 60.2382 26.9065 58.921 27.4269 57.024C27.9734 55.0312 26.952 52.9716 25.0158 52.2196C24.7028 52.0976 24.6107 51.9505 24.6195 51.6273C24.6427 50.7572 24.6262 49.8851 24.6253 49.0141C24.6253 48.8602 24.6253 48.7063 24.6253 48.5321C25.323 48.5321 25.951 48.5321 26.5799 48.5321C27.2098 48.5321 27.8397 48.535 28.4696 48.5263C29.2448 48.5156 29.6644 48.0956 29.6674 47.3252C29.6722 46.277 29.6683 45.2278 29.6683 44.1797V42.9824H37.9917V46.3505C37.324 46.3505 36.7115 46.3505 36.1 46.3505C35.4702 46.3505 34.8403 46.3496 34.2104 46.3525C33.376 46.3564 32.969 46.7648 32.968 47.6029C32.9661 48.925 32.9535 50.2471 32.9767 51.5682C32.9835 51.9263 32.8944 52.0928 32.5416 52.2312C30.7508 52.9329 29.7517 54.7631 30.0734 56.6785C30.3728 58.4622 31.9553 59.8618 33.8053 59.9798C35.7376 60.1037 37.5517 58.7516 37.983 56.8672C38.4258 54.9325 37.3976 52.9455 35.5506 52.2351C35.1998 52.1006 35.0912 51.9351 35.1126 51.5721C35.1475 50.9769 35.1223 50.3787 35.1223 49.7826V48.5447C35.287 48.5321 35.382 48.5185 35.4779 48.5195C36.6408 48.5234 37.8037 48.535 38.9656 48.5311C39.7467 48.5282 40.1576 48.113 40.1653 47.3378C40.1711 46.7087 40.1663 46.0795 40.1663 45.4504C40.1663 44.6326 40.1663 43.8148 40.1663 42.9892H48.759V46.3525C47.5448 46.3525 46.3538 46.3535 45.1628 46.3525C44.1269 46.3515 43.7431 46.7338 43.7412 47.7849C43.7383 49.075 43.7295 50.3662 43.747 51.6563C43.7509 51.9602 43.6666 52.1006 43.3739 52.2157C41.4794 52.9619 40.4715 54.8918 40.9163 56.8701C41.3185 58.6577 42.9543 59.9721 44.7984 59.9876C46.6445 60.004 48.3375 58.7032 48.7503 56.9524C49.1874 55.097 48.3646 53.1255 46.6823 52.4035C45.9826 52.1035 45.8896 51.7308 45.9255 51.1075C45.9642 50.4165 45.9342 49.7206 45.9332 49.0276C45.9332 48.8737 45.9332 48.7198 45.9332 48.534C47.1988 48.534 48.3927 48.5495 49.5866 48.5292C50.6468 48.5118 50.9666 48.172 50.9714 47.1181C50.9772 45.8279 50.9685 44.5378 50.9811 43.2476C50.9831 43.0899 51.0267 42.8595 51.1342 42.7889C51.7215 42.4056 51.8746 41.8549 51.8581 41.2035C51.8416 40.5667 51.8542 39.9298 51.8542 39.3133H55.4854C55.4854 40.5725 55.4834 41.7968 55.4854 43.0211C55.4873 43.9222 55.8807 44.3113 56.7839 44.3123C58.2511 44.3123 59.7183 44.3123 61.1835 44.3123C61.2552 44.4952 61.3075 44.6452 61.3705 44.7913C62.2049 46.7328 64.3369 47.7075 66.3361 47.0639C68.1162 46.4909 69.2064 44.8455 69.1057 42.8837C69.0204 41.2277 67.6579 39.6433 65.9911 39.3007L65.9969 39.2978ZM65.1005 32.2906C66.1035 32.2906 66.9553 33.1278 66.9688 34.1256C66.9824 35.1399 66.1209 35.9965 65.0898 35.9936C64.0626 35.9907 63.2021 35.1264 63.2176 34.113C63.2331 33.1268 64.0975 32.2896 65.1005 32.2906ZM25.4083 55.9371C25.4209 56.9437 24.5477 57.8186 23.5331 57.8167C22.5602 57.8148 21.7026 56.9843 21.6744 56.0165C21.6444 55.0051 22.4904 54.1117 23.5002 54.0885C24.5109 54.0653 25.3957 54.9218 25.4083 55.9371ZM35.8975 55.9768C35.8898 56.9892 35.0486 57.8264 34.0485 57.8177C33.0252 57.808 32.1763 56.9466 32.1889 55.9294C32.2015 54.9296 33.0446 54.0924 34.0437 54.0876C35.0622 54.0837 35.9053 54.9431 35.8965 55.9768H35.8975ZM46.7133 55.9749C46.6998 56.9708 45.846 57.808 44.843 57.8109C43.8487 57.8128 42.9843 56.965 42.9698 55.9729C42.9553 54.9702 43.8303 54.0895 44.8411 54.0885C45.8528 54.0876 46.7269 54.9683 46.7133 55.9749ZM46.0321 19.0291C47.0641 20.8351 47.2667 22.793 47.1087 24.8526H46.1513C46.1513 24.1761 46.1513 23.4889 46.1513 22.8008C46.1542 19.7811 44.1278 16.9308 41.3456 16.0433C37.9481 14.9593 34.3567 16.6704 32.9806 20.026C32.5843 20.9928 32.3934 21.9975 32.3934 23.0399C32.3934 23.6341 32.3934 24.2284 32.3934 24.8526H31.4504C31.2179 22.2327 31.683 19.8392 33.3779 17.7902C36.9364 13.4881 43.214 14.095 46.034 19.0271L46.0321 19.0291ZM43.9457 24.8662H34.5941C34.4778 22.9663 34.4526 21.109 35.7851 19.5566C38.1593 16.7895 42.3302 17.5696 43.6278 21.0161C44.0019 22.0101 44.1385 23.6167 43.9457 24.8662ZM3.50145 5.15589C4.44921 4.33612 5.60918 3.92479 6.7837 3.57152C10.0204 2.59786 13.3492 2.27073 16.7118 2.18846C20.5794 2.09458 24.415 2.34525 28.1827 3.27536C29.5433 3.6112 30.8913 4.01286 32.0668 4.81715C33.2868 5.6524 33.2442 6.01535 32.0474 6.84576C30.6287 7.83007 28.9754 8.25689 27.3232 8.58886C24.0584 9.24603 20.7509 9.54026 17.4144 9.47541C13.669 9.37766 9.94287 9.10569 6.35537 7.9133C5.52391 7.6365 4.7438 7.20387 3.94626 6.82931C3.78927 6.75575 3.65554 6.62703 3.5218 6.51089C2.91032 5.9776 2.89385 5.68144 3.50242 5.15493L3.50145 5.15589ZM3.03339 12.8581C3.07215 11.6492 3.04502 10.4394 3.04405 9.22958C3.04405 9.12408 3.04405 9.01859 3.04405 8.87728C6.26621 10.5352 9.70157 11.0782 13.1912 11.416C16.1566 11.7024 19.1277 11.7257 22.0912 11.4779C23.8219 11.3327 25.541 11.0317 27.2582 10.7598C28.8998 10.5004 30.4823 10.0155 32.0038 9.34282C32.309 9.20829 32.5949 9.02923 33.001 8.8105C33.001 9.15893 33.0029 9.43573 33.001 9.71157C32.9913 10.7917 32.9632 11.8718 32.9787 12.951C32.9845 13.3817 32.8585 13.7407 32.5087 13.9459C31.7354 14.4008 30.9678 14.8993 30.1354 15.2138C27.985 16.0268 25.731 16.4623 23.4449 16.6259C21.1134 16.7924 18.7711 16.9221 16.4356 16.8979C13.1883 16.864 9.96904 16.4778 6.8399 15.5516C5.71287 15.2177 4.6091 14.8073 3.65554 14.0805C3.24853 13.7698 3.01595 13.4117 3.03339 12.8571V12.8581ZM3.02079 27.3884C3.13418 26.256 3.04502 25.1043 3.04502 23.8935C3.34834 24.0435 3.61096 24.179 3.88036 24.3048C5.92704 25.263 8.10842 25.7518 10.3237 26.1031C13.0206 26.5299 15.7408 26.6935 18.4697 26.6644C21.2267 26.6354 23.9721 26.4341 26.6942 25.9289V31.2947C24.2648 31.7553 21.8499 31.9876 19.4146 32.0418C16.5054 32.1067 13.6079 31.9876 10.7307 31.5386C8.75576 31.2308 6.80793 30.8117 4.97347 29.9813C4.78257 29.8951 4.59941 29.7925 4.41141 29.7016C3.44428 29.2331 2.90354 28.5721 3.02176 27.3884H3.02079ZM26.7001 38.9242C25.1486 39.1081 23.6058 39.3762 22.0524 39.4546C19.8303 39.5669 17.5956 39.6482 15.3755 39.5504C11.8248 39.3946 8.30223 38.9765 4.98704 37.5479C4.8097 37.4715 4.63914 37.3795 4.46471 37.2973C3.45785 36.8221 2.889 36.1465 3.02079 34.9164C3.13999 33.8014 3.04599 32.6632 3.04599 31.436C4.9725 32.5277 6.99496 33.0639 9.05326 33.4481C12.8763 34.1605 16.738 34.4111 20.6201 34.1479C22.4991 34.0201 24.3704 33.7685 26.2446 33.5739C26.3851 33.5594 26.5256 33.5536 26.701 33.541V38.9252L26.7001 38.9242ZM22.9023 24.2419C20.6598 24.4548 18.3903 24.5023 16.1362 24.4481C12.6001 24.3629 9.08815 23.9796 5.74582 22.7176C4.94537 22.4156 4.21469 21.9171 3.47432 21.4719C3.13902 21.2696 3.03242 20.9174 3.03727 20.5109C3.05374 19.1317 3.04405 17.7525 3.04405 16.3065C4.75834 17.2705 6.55984 17.7854 8.40205 18.1783C11.0418 18.7426 13.7164 19 16.4114 19.0707C20.6027 19.181 24.758 18.9168 28.8388 17.888C29.5656 17.7051 30.2788 17.4699 31.0725 17.2366C29.9639 18.9584 29.3417 20.7625 29.2681 22.7369C29.2555 23.0795 29.0627 23.1734 28.7962 23.2218C26.8328 23.5751 24.8811 24.0532 22.9023 24.241V24.2419ZM49.6564 40.7815H28.9057V27.0932H49.6564V40.7815ZM65.0976 45.0904C64.0742 45.0846 63.2069 44.2164 63.2215 43.2108C63.236 42.214 64.0849 41.3826 65.0927 41.3787C66.1074 41.3748 66.9931 42.2623 66.9688 43.2563C66.9437 44.259 66.0899 45.0952 65.0976 45.0904Z" fill="#0B0028"></path>
    <path d="M36.3829 35.144C36.3829 35.4905 36.3771 35.716 36.3829 35.9415C36.4256 37.4271 37.479 38.6089 38.9142 38.785C40.3261 38.9583 41.6915 38.0708 42.0171 36.6712C42.1567 36.0702 42.082 35.4227 42.1402 34.7994C42.1644 34.542 42.2264 34.2594 42.3621 34.0445C43.3099 32.5424 43.0909 30.5796 41.8185 29.3988C40.5354 28.2074 38.4635 28.0806 37.0981 29.1085C35.6212 30.2205 35.1503 32.1165 36.0244 33.7135C36.3025 34.2206 36.4488 34.7036 36.381 35.143L36.3829 35.144ZM38.2358 30.9725C38.7872 30.446 39.6671 30.4315 40.266 30.9396C40.8387 31.4255 41.0306 32.3391 40.5005 32.8318C39.923 33.368 39.9375 33.9632 39.953 34.6204C39.9637 35.0559 39.9646 35.4914 39.952 35.926C39.9394 36.3441 39.6303 36.6596 39.2495 36.6248C38.8512 36.588 38.5885 36.3722 38.5789 35.9425C38.5701 35.5553 38.5769 35.1682 38.5769 34.782H38.575C38.575 34.6204 38.5624 34.4587 38.5769 34.2981C38.6254 33.7687 38.5314 33.3331 38.1098 32.9228C37.572 32.3982 37.6786 31.5058 38.2358 30.9725Z" fill="#0B0028"></path>
  </g>
  <defs>
    <clipPath id="clip0_5757_33928">
      <rect width="68.2391" height="60" fill="white" transform="translate(0.878906)"></rect>
    </clipPath>
  </defs>
</svg>
