<?xml version="1.0" encoding="UTF-8"?>
<svg xmlns="http://www.w3.org/2000/svg" width="60" height="38" viewBox="0 0 60 38" fill="none">
  <path d="M58.5003 13.4219C56.4847 12.25 53.8128 12.1094 51.5628 12.7656C51.2815 10.3281 49.6878 8.21875 47.8128 6.71875L47.0628 6.10938L46.4065 6.85937C45.1409 8.3125 44.7659 10.75 44.9534 12.625C45.0941 13.9844 45.5159 15.3906 46.3597 16.5156C45.7034 16.8906 45.0003 17.4062 44.344 17.6406C43.0315 18.1094 41.5784 18.5781 40.1722 18.5781H37.0315V11.9688H30.9378V0.25H23.9066V5.875H12.1878V11.9688H6.09405V18.5312H0.844051L0.750301 19.2344C0.515926 22.2344 0.890926 25.1406 2.15655 27.9062L2.67218 28.9375L2.71905 29.0312C6.42218 35.3125 12.8909 37.9375 19.9691 37.9375C33.6566 37.9375 44.9534 31.7969 50.1097 18.9062C53.5784 19.0938 57.1409 18.0625 58.8284 14.7344L59.2503 13.8906L58.5003 13.4219ZM13.1253 7.28125H17.8128V12.4375H13.1253V7.28125ZM19.2659 28C19.2659 28.7969 18.6097 29.4531 17.8128 29.4531C17.0159 29.4531 16.3597 28.7969 16.3597 28C16.3597 27.2031 17.0159 26.5469 17.8128 26.5469C18.6097 26.5938 19.2659 27.2031 19.2659 28ZM13.1253 13.375H17.8128V18.5312H13.1253V13.375ZM7.03155 13.375H12.1878V18.5312H7.03155V13.375ZM20.0159 36.9062C12.6097 36.8594 8.6253 34.375 5.34405 31.0938C6.32843 31.1406 7.26593 31.1875 8.10968 31.1875C8.85968 31.1875 9.60968 31.1875 10.3128 31.1406C12.1409 31.0469 13.7347 30.8125 15.0472 30.4375C16.1253 32.9219 18.0941 35.2188 21.6097 36.9062H20.0159ZM23.9066 18.5312H18.7503V13.375H23.9066V18.5312ZM23.9066 12.4375H18.7503V7.28125H23.9066V12.4375ZM30.0003 18.5312H24.8441V13.375H30.0003V18.5312ZM30.0003 12.4375H24.8441V7.28125H30.0003V12.4375ZM30.0003 6.34375H24.8441V1.1875H30.0003V6.34375ZM36.094 18.5312H30.9378V13.375H36.094V18.5312ZM18.1878 27.0625C18.0941 27.0156 17.9534 26.9688 17.8128 26.9688C17.2503 26.9688 16.7816 27.4375 16.7816 28C16.7816 28.5625 17.2503 29.0312 17.8128 29.0312C18.3753 29.0312 18.8441 28.5625 18.8441 28C18.8441 27.8594 18.7972 27.7188 18.7503 27.625C18.6566 27.7656 18.5628 27.8594 18.3753 27.8594C18.1409 27.8594 17.9534 27.6719 17.9534 27.4375C18.0003 27.25 18.0941 27.1094 18.1878 27.0625Z" fill="#2496ED"></path>
</svg>
