<?xml version="1.0" encoding="UTF-8"?>
<svg xmlns="http://www.w3.org/2000/svg" width="70" height="60" viewBox="0 0 70 60" fill="none">
  <g clip-path="url(#clip0_5451_19027)">
    <path d="M14.6574 0C19.1864 7.04792 21.8687 14.5259 22.9093 22.6355C23.2863 18.6911 25.596 15.3785 26.3382 11.6047C26.788 13.7355 27.1294 15.8945 27.7083 17.9883C28.9745 22.5732 31.1626 26.6762 34.2887 30.3018C42.3595 39.6599 39.597 54.0494 28.6925 59.6931C28.5188 59.7835 28.3407 59.8651 28.0631 59.9985C28.1314 59.7627 28.1611 59.613 28.2175 59.4751C29.7924 55.6568 28.9508 51.6694 25.9285 48.8164C23.0696 46.1177 21.0137 42.9607 20.2299 39.0579C20.1186 38.5033 20.0458 37.9413 19.8588 37.3675C19.7757 37.8375 19.7014 38.3091 19.6079 38.7776C18.8464 42.5945 16.9494 45.787 14.1245 48.4116C10.6673 51.6249 9.76482 55.375 11.506 59.8502C11.2745 59.7553 11.0741 59.6975 10.8974 59.5967C4.27696 55.8184 0.807902 50.1006 0.767823 42.501C0.744072 37.8479 2.44966 33.7108 5.53574 30.1831C9.70544 25.4188 12.7455 20.0524 14.2566 13.8705C15.3284 9.48867 15.4664 5.07427 14.7034 0.628722C14.6812 0.495267 14.6827 0.357364 14.6559 0L14.6574 0Z" fill="url(#paint0_linear_5451_19027)"></path>
    <path d="M43.141 46.3098C43.668 42.9512 43.432 39.7008 42.5176 36.3926H43.3963C51.1613 36.3926 58.9277 36.3926 66.6926 36.3926C68.2839 36.3926 69.0024 37.1177 68.9979 38.6939C68.992 40.5475 69.0039 42.401 68.992 44.2531C68.9831 45.5328 68.2349 46.3172 66.9836 46.3202C59.1934 46.3365 51.4032 46.3409 43.6131 46.3483C43.4928 46.3483 43.3726 46.3291 43.141 46.3098Z" fill="#E21A19"></path>
    <path d="M60.6356 23.0739C62.6885 23.0739 64.743 23.0694 66.7959 23.0753C68.2848 23.0798 69.0151 23.8316 69.0092 25.3189C69.0032 27.1724 69.0092 29.0275 69.0032 30.881C68.9973 32.2452 68.2744 33.0237 66.9161 33.0311C62.6856 33.0504 58.455 33.0519 54.2244 33.0311C52.8276 33.0237 52.1047 32.2378 52.0988 30.8276C52.0914 28.9978 52.0928 27.1695 52.0988 25.3396C52.1032 23.839 52.8766 23.0798 54.4011 23.0768C56.4793 23.0724 58.5574 23.0768 60.6356 23.0768V23.0739Z" fill="#E21A19"></path>
    <path d="M60.8105 49.6832C62.8886 49.6832 64.9668 49.6788 67.045 49.6847C68.4893 49.6892 69.2315 50.441 69.233 51.8853C69.233 53.6899 69.236 55.4945 69.227 57.2976C69.2196 58.8813 68.4819 59.6227 66.9173 59.6227C62.8114 59.6257 58.7041 59.6257 54.5982 59.6227C53.0455 59.6227 52.3211 58.905 52.3152 57.3658C52.3093 55.5375 52.3063 53.7077 52.3152 51.8793C52.3226 50.4158 53.05 49.6892 54.5032 49.6847C56.6066 49.6788 58.7085 49.6847 60.8119 49.6832H60.8105Z" fill="#E21A19"></path>
    <path d="M34.7957 23.0733C35.0391 23.0733 35.2826 23.0733 35.5245 23.0733C39.0366 23.0733 42.5502 23.0703 46.0623 23.0733C47.6046 23.0748 48.3424 23.8221 48.3364 25.3376C48.329 27.1911 48.3364 29.0447 48.3305 30.8982C48.326 32.2105 47.5942 32.9979 46.2909 33.0261C44.7828 33.0587 43.2731 33.0557 41.765 33.0201C41.5393 33.0142 41.2113 32.8036 41.1118 32.6005C40.0638 30.4519 38.6833 28.5405 37.1366 26.724C36.2162 25.6445 35.4592 24.4256 34.6279 23.2705C34.6843 23.2038 34.7393 23.137 34.7957 23.0703V23.0733Z" fill="#E21A19"></path>
    <path d="M36.2964 59.6253C36.5725 59.3228 36.7462 59.1271 36.9243 58.9358C39.2548 56.452 41.0094 53.6154 42.1093 50.3902C42.2845 49.8742 42.4983 49.6414 43.0816 49.6681C44.192 49.72 45.3053 49.677 46.4171 49.6844C47.7872 49.6948 48.522 50.4406 48.519 51.7915C48.5146 53.7177 48.5205 55.6439 48.5101 57.5701C48.5027 58.792 47.7516 59.609 46.5551 59.6164C43.1944 59.6372 39.8338 59.6238 36.2949 59.6238L36.2964 59.6253Z" fill="#E21A19"></path>
  </g>
  <defs>
    <linearGradient id="paint0_linear_5451_19027" x1="19.8578" y1="0" x2="19.8578" y2="59.9985" gradientUnits="userSpaceOnUse">
      <stop stop-color="#FFDA00"></stop>
      <stop offset="0.473958" stop-color="#FC4302"></stop>
      <stop offset="1" stop-color="#C7310E"></stop>
    </linearGradient>
    <clipPath id="clip0_5451_19027">
      <rect width="68.4653" height="60" fill="white" transform="translate(0.767578)"></rect>
    </clipPath>
  </defs>
</svg>
