<?xml version="1.0" encoding="UTF-8"?>
<svg xmlns="http://www.w3.org/2000/svg" width="60" height="60" viewBox="0 0 60 60" fill="none">
  <path d="M30.0001 5.61719C24.0638 5.61743 18.3212 7.72997 13.8 11.5768C9.27874 15.4236 6.27382 20.7537 5.3229 26.6134C4.37198 32.473 5.53711 38.4799 8.60982 43.5591C11.6825 48.6383 16.4623 52.4584 22.0939 54.3359C23.3439 54.5547 23.8126 53.8047 23.8126 53.1484C23.8126 52.5547 23.7813 50.5859 23.7813 48.4922C17.5001 49.6484 15.8751 46.961 15.3751 45.5548C14.8203 44.1871 13.9408 42.9751 12.8126 42.0234C11.9376 41.5547 10.6876 40.3984 12.7813 40.3672C13.5808 40.454 14.3475 40.7322 15.0166 41.1782C15.6858 41.6243 16.2375 42.2251 16.6251 42.9297C16.967 43.5439 17.4268 44.0847 17.978 44.5209C18.5293 44.9572 19.1613 45.2803 19.8376 45.4719C20.514 45.6635 21.2216 45.7198 21.9198 45.6375C22.6179 45.5551 23.293 45.3358 23.9063 44.9922C24.0145 43.7212 24.5809 42.5329 25.5001 41.6485C19.9376 41.0235 14.1251 38.8672 14.1251 29.3048C14.0899 26.8201 15.0068 24.4162 16.6876 22.586C15.9233 20.4266 16.0127 18.0567 16.9376 15.961C16.9376 15.961 19.0312 15.3047 23.8126 18.5235C27.9033 17.3984 32.2218 17.3984 36.3126 18.5235C41.0938 15.2735 43.1876 15.961 43.1876 15.961C44.1126 18.0567 44.202 20.4266 43.4376 22.586C45.1234 24.4131 46.0411 26.8191 46.0001 29.3048C46.0001 38.8984 40.1563 41.0235 34.5938 41.6485C35.1904 42.2532 35.6499 42.9792 35.9411 43.7773C36.2323 44.5753 36.3483 45.4267 36.2813 46.2735C36.2813 49.6173 36.25 52.3047 36.25 53.1485C36.25 53.8048 36.7188 54.586 37.9688 54.336C43.5905 52.4432 48.3565 48.6141 51.4161 43.5323C54.4757 38.4505 55.6298 32.4468 54.6723 26.5928C53.7148 20.7388 50.708 15.4156 46.1887 11.5735C41.6695 7.73131 35.9318 5.62027 30.0001 5.61719Z" fill="#0B0028"></path>
</svg>
