<?xml version="1.0" encoding="UTF-8"?>
<svg xmlns="http://www.w3.org/2000/svg" width="66" height="60" viewBox="0 0 66 60" fill="none">
  <g clip-path="url(#clip0_5757_33749)">
    <path d="M33.0188 60.01L44.9788 23.1582H21.0586L33.0188 60.01Z" fill="#E24329"></path>
    <path d="M33.0185 60.01L21.0582 23.1582H4.29688L33.0185 60.01Z" fill="#FC6D26"></path>
    <path d="M4.29469 23.1582L0.660277 34.3574C0.49868 34.8552 0.498657 35.3915 0.660213 35.8894C0.821769 36.3873 1.13661 36.8212 1.55961 37.1289L33.0163 60.0102L4.29444 23.1585L4.29469 23.1582Z" fill="#FCA326"></path>
    <path d="M4.29688 23.1596H21.0582L13.8552 0.963926C13.4845 -0.178207 11.8706 -0.177953 11.5002 0.963926L4.29688 23.1596Z" fill="#E24329"></path>
    <path d="M33.0198 60.01L44.9798 23.1582H61.7414L33.0198 60.01Z" fill="#FC6D26"></path>
    <path d="M61.7412 23.1582L65.3756 34.3574C65.5371 34.8553 65.5371 35.3916 65.3755 35.8895C65.2139 36.3874 64.899 36.8212 64.476 37.1289L33.0195 60.0102L61.7412 23.1585V23.1582Z" fill="#FCA326"></path>
    <path d="M61.7382 23.1596H44.9766L52.1799 0.963926C52.5506 -0.178207 54.1644 -0.177953 54.5349 0.963926L61.7382 23.1596Z" fill="#E24329"></path>
  </g>
  <defs>
    <clipPath id="clip0_5757_33749">
      <rect width="65" height="60" fill="white" transform="translate(0.5)"></rect>
    </clipPath>
  </defs>
</svg>
