<?xml version="1.0" encoding="UTF-8"?>
<svg xmlns="http://www.w3.org/2000/svg" width="76" height="60" viewBox="0 0 76 60" fill="none">
  <g clip-path="url(#clip0_5757_33900)">
    <path d="M50.3553 16.5644L56.8619 10.0763L57.2944 7.34585C45.4386 -3.40511 26.5907 -2.18496 15.8999 9.8891C12.9121 13.3105 10.7424 17.3637 9.55469 21.743L11.8841 21.4142L24.898 19.2783L25.9009 18.2544C28.6845 15.1858 32.537 13.2913 36.673 12.9568C40.8091 12.6224 44.9174 13.8733 48.1605 16.4546L50.3553 16.5644Z" fill="#EA4335"></path>
    <path d="M66.1311 21.5498C64.6355 16.0577 61.5643 11.1203 57.2945 7.34375L48.1612 16.4502C50.0643 18.0006 51.5896 19.9617 52.6218 22.1854C53.6541 24.4092 54.1664 26.8377 54.1202 29.2876V30.9031C56.2637 30.9031 58.3195 31.7522 59.8353 33.2635C61.351 34.7748 62.2026 36.8245 62.2026 38.9618C62.2026 41.0991 61.351 43.1488 59.8353 44.6601C58.3195 46.1714 56.2637 47.0205 54.1202 47.0205H37.8435L36.2461 48.7509V58.4728L37.8435 59.9995H54.1207C58.6551 60.0473 63.084 58.6363 66.7504 55.9757C70.4167 53.3152 73.1251 49.5469 74.4736 45.2302C75.822 40.9135 75.7387 36.2783 74.236 32.0125C72.7333 27.7467 69.8907 24.0777 66.1311 21.5498Z" fill="#4285F4"></path>
    <path d="M21.5832 59.9995H37.8427V47.0238H21.5832C20.4327 47.023 19.296 46.775 18.2503 46.2969L15.9437 47.0011L9.39082 53.4886L8.82031 55.6963C12.4887 58.4827 16.9716 59.9942 21.5832 59.9995Z" fill="#34A853"></path>
    <path d="M21.5859 17.9083C17.1811 17.9351 12.8947 19.3327 9.32524 21.9061C5.75576 24.4795 3.08147 28.1002 1.67582 32.2624C0.270167 36.4247 0.203351 40.9208 1.4847 45.1228C2.76605 49.3247 5.33158 53.0228 8.82302 55.7005L18.2535 46.2977C17.0552 45.7579 16.0061 44.9364 15.1963 43.9034C14.3864 42.8705 13.84 41.6572 13.6039 40.3674C13.3677 39.0776 13.449 37.75 13.8406 36.4984C14.2323 35.2469 14.9226 34.1087 15.8524 33.1817C16.7822 32.2546 17.9237 31.5663 19.179 31.1758C20.4342 30.7853 21.7657 30.7043 23.0593 30.9397C24.3529 31.1751 25.5698 31.72 26.6058 32.5274C27.6417 33.3349 28.4657 34.3809 29.0071 35.5757L38.4376 26.1729C36.4582 23.5928 33.9071 21.5043 30.9836 20.0705C28.0602 18.6368 24.8438 17.8968 21.5859 17.9083Z" fill="#FBBC05"></path>
  </g>
  <defs>
    <clipPath id="clip0_5757_33900">
      <rect width="74.8571" height="60" fill="white" transform="translate(0.570312)"></rect>
    </clipPath>
  </defs>
</svg>
