<?xml version="1.0" encoding="UTF-8"?>
<svg xmlns="http://www.w3.org/2000/svg" width="54" height="60" viewBox="0 0 54 60" fill="none">
  <g clip-path="url(#clip0_5757_33964)">
    <path d="M34.4128 18.2887L2.71276 0.167011C2.5165 0.0553398 2.29413 -0.0022662 2.06834 6.82306e-05C1.84255 0.00240266 1.62142 0.064594 1.4275 0.180299C1.23236 0.291352 1.07012 0.452129 0.957291 0.646269C0.844461 0.840409 0.785068 1.06098 0.785156 1.28554C0.785156 1.28554 0.797865 2.95639 0.810573 5.70649L23.902 28.8015L34.4128 18.2887Z" fill="url(#paint0_linear_5757_33964)"></path>
    <path d="M0.8125 5.70703C0.851202 15.6287 0.966732 39.7134 1.01814 51.7047L23.9184 28.802L0.8125 5.70703Z" fill="url(#paint1_linear_5757_33964)"></path>
    <path d="M52.5586 28.6608L34.4148 18.2891L23.8906 28.8041L35.7636 40.6792L52.5731 30.8858C52.7673 30.7736 52.9287 30.6126 53.0414 30.4187C53.1541 30.2248 53.2141 30.0048 53.2154 29.7805C53.2135 29.5527 53.1518 29.3294 53.0365 29.133C52.9213 28.9365 52.7565 28.7737 52.5586 28.6608Z" fill="url(#paint2_linear_5757_33964)"></path>
    <path d="M1.00391 51.7018C1.02932 55.9818 1.04261 58.7192 1.04261 58.7192C1.04071 58.9441 1.09934 59.1654 1.21235 59.3599C1.32537 59.5543 1.4886 59.7148 1.68495 59.8244C1.87998 59.938 2.10162 59.9978 2.32729 59.9978C2.55297 59.9978 2.77461 59.938 2.96964 59.8244L35.7747 40.6876L23.9024 28.8125L1.00391 51.7018Z" fill="url(#paint3_linear_5757_33964)"></path>
  </g>
  <defs>
    <linearGradient id="paint0_linear_5757_33964" x1="0.785156" y1="14.4007" x2="34.4128" y2="14.4007" gradientUnits="userSpaceOnUse">
      <stop stop-color="#63BE6B"></stop>
      <stop offset="0.506" stop-color="#5BBC6A"></stop>
      <stop offset="1" stop-color="#4AB96A"></stop>
    </linearGradient>
    <linearGradient id="paint1_linear_5757_33964" x1="0.8125" y1="28.7058" x2="23.8952" y2="28.7058" gradientUnits="userSpaceOnUse">
      <stop stop-color="#3EC6F2"></stop>
      <stop offset="1" stop-color="#45AFE3"></stop>
    </linearGradient>
    <linearGradient id="paint2_linear_5757_33964" x1="23.8906" y1="29.4841" x2="53.2154" y2="29.4841" gradientUnits="userSpaceOnUse">
      <stop stop-color="#FAA51A"></stop>
      <stop offset="0.387" stop-color="#FAB716"></stop>
      <stop offset="0.741" stop-color="#FAC412"></stop>
      <stop offset="1" stop-color="#FAC80F"></stop>
    </linearGradient>
    <linearGradient id="paint3_linear_5757_33964" x1="1.00391" y1="44.4052" x2="35.7747" y2="44.4052" gradientUnits="userSpaceOnUse">
      <stop stop-color="#EC3B50"></stop>
      <stop offset="1" stop-color="#E7515B"></stop>
    </linearGradient>
    <clipPath id="clip0_5757_33964">
      <rect width="52.4272" height="60" fill="white" transform="translate(0.785156)"></rect>
    </clipPath>
  </defs>
</svg>
