<?xml version="1.0" encoding="UTF-8"?>
<svg xmlns="http://www.w3.org/2000/svg" width="60" height="60" viewBox="0 0 60 60" fill="none">
  <g clip-path="url(#clip0_5757_33691)">
    <path d="M11.6422 13.045C11.0433 12.6936 10.3803 12.4653 9.69195 12.3734C9.00364 12.2816 8.30392 12.3281 7.63381 12.5102C6.9637 12.6922 6.33667 13.0062 5.78949 13.4338C5.24231 13.8613 4.78597 14.3938 4.44724 15C4.1984 15.4435 4.01325 15.9199 3.89724 16.415C3.21724 19.2925 4.95724 22.185 7.78224 22.875L7.77974 37.1225C6.79716 37.3669 5.90631 37.8905 5.21474 38.63C4.25069 39.6641 3.7291 41.0342 3.76133 42.4476C3.79356 43.861 4.37706 45.2059 5.38724 46.195C5.88311 46.6793 6.4708 47.0596 7.11575 47.3135C7.7607 47.5674 8.4499 47.6897 9.14284 47.6734C9.83577 47.6571 10.5185 47.5025 11.1508 47.2185C11.783 46.9346 12.3522 46.5271 12.8247 46.02L24.9572 53.1375C24.813 53.6321 24.7398 54.1448 24.7397 54.66C24.7422 57.6125 27.0972 60.0025 29.9997 60C30.5597 60 31.1122 59.9075 31.6472 59.73C34.4072 58.8025 35.9072 55.775 34.9922 52.965L47.0472 45.885C47.5972 46.5152 48.2906 47.0039 49.069 47.3101C49.8473 47.6163 50.6879 47.731 51.5198 47.6445C52.3518 47.558 53.1507 47.2729 53.8494 46.8131C54.5482 46.3533 55.1261 45.7323 55.5347 45.0025C55.7922 44.55 55.9872 44.06 56.1047 43.55C56.7772 40.685 55.0372 37.81 52.2222 37.1275V22.88C52.7041 22.761 53.1663 22.5732 53.5947 22.3225C54.8142 21.6013 55.702 20.4306 56.0676 19.0619C56.4331 17.6931 56.2472 16.2356 55.5497 15.0025C55.299 14.5628 54.9867 14.1612 54.6222 13.81C54.1245 13.3254 53.5347 12.9454 52.8878 12.6922C52.2409 12.439 51.5499 12.3178 50.8554 12.3357C50.161 12.3537 49.4771 12.5104 48.8441 12.7966C48.2112 13.0829 47.6419 13.4929 47.1697 14.0025L35.0397 6.8775C35.1847 6.38 35.2622 5.8575 35.2597 5.335C35.2572 2.385 32.9022 -0.00249804 29.9997 1.96156e-06C29.4922 1.96156e-06 28.9847 0.072502 28.4997 0.220002C25.7222 1.0575 24.1322 4.03 24.9572 6.8625L12.8197 13.9875C12.4763 13.6165 12.0794 13.2989 11.6422 13.045ZM33.8897 51.0525C33.4008 50.5041 32.8015 50.0652 32.1311 49.7645C31.4608 49.4638 30.7345 49.3081 29.9997 49.3075C28.5097 49.3075 27.1672 49.93 26.2147 50.94L14.0747 43.81L14.1272 43.6025H45.8722C45.8997 43.7225 45.9297 43.84 45.9647 43.9575L33.8897 51.0525ZM33.7747 9.07L45.9322 16.215L45.8847 16.395C45.1872 19.26 46.8997 22.1575 49.7147 22.865V37.1325C49.6497 37.15 49.5772 37.1675 49.5122 37.19L33.6322 9.215C33.6828 9.16982 33.7305 9.12139 33.7747 9.07ZM28.5372 10.485C29.4922 10.765 30.5072 10.765 31.4672 10.485L47.3497 38.45C46.6194 39.1628 46.1055 40.0676 45.8672 41.06H14.1347C13.8959 40.0717 13.385 39.1701 12.6597 38.4575L28.5372 10.485ZM14.0597 16.1975L26.2172 9.0675L26.3647 9.2175L10.4897 37.19L10.2822 37.1325V22.8625L10.4697 22.81C13.2572 21.9925 14.8647 19.035 14.0597 16.1975Z" fill="#DF34A6"></path>
  </g>
  <defs>
    <clipPath id="clip0_5757_33691">
      <rect width="60" height="60" fill="white"></rect>
    </clipPath>
  </defs>
</svg>
