<?xml version="1.0" encoding="UTF-8"?>
<svg xmlns="http://www.w3.org/2000/svg" width="60" height="60" viewBox="0 0 60 60" fill="none">
  <g clip-path="url(#clip0_5451_16546)">
    <path fill-rule="evenodd" clip-rule="evenodd" d="M13.6895 48.6391C13.6984 48.7783 13.6333 48.8055 13.5292 48.7315C13.3089 48.5744 13.0614 48.439 12.8833 48.2416C11.9894 47.2544 11.342 46.1271 11.0359 44.8197C10.9113 44.2868 10.9023 43.7533 10.9422 43.2035C11.0181 42.1479 10.9422 41.0951 10.6581 40.0676C10.6389 39.9991 10.5967 39.9372 10.5222 39.783L9.98078 40.4435L9.91563 40.4041C9.93203 38.883 9.88 37.3666 9.60813 35.8483L9.00906 37.2644L8.90969 37.2471C8.86563 37.0207 8.81594 36.7947 8.7775 36.5674C8.55203 35.2347 8.5136 33.8876 8.5886 32.5465C8.70438 30.4722 9.04657 28.4374 10.0127 26.5605C10.2845 26.0327 10.6131 25.5401 11.0509 25.0901C10.8273 25.1576 10.6005 25.2157 10.3806 25.2949C10.15 25.3779 9.92688 25.481 9.65172 25.5954C9.93953 24.8393 10.322 24.176 10.8194 23.5858C11.3102 23.0037 11.8347 22.4491 12.3639 21.8604L11.1348 21.4015L11.0481 21.3199C11.1334 21.2749 11.2263 21.2412 11.3022 21.1835C12.5022 20.2741 13.8747 19.7562 15.3189 19.3957C15.7778 19.2813 15.6977 19.3666 15.7295 18.8866C15.7816 18.1099 15.8664 17.3351 15.9377 16.5593L16.0084 16.5532L17.0627 18.5594C16.9478 15.4826 17.1691 12.4521 18.0194 9.48912L18.0916 9.48818C18.0967 9.58709 18.1098 9.68646 18.1061 9.7849C18.0808 10.4346 18.1445 11.0683 18.4047 11.6735C18.5852 12.0935 18.8486 12.439 19.2794 12.701C19.4594 10.8851 19.9445 9.16615 20.5164 7.41772L21.3733 8.38381C21.5031 7.16881 21.7778 6.03115 22.1973 4.89443L23.4175 6.44834L24.1408 3.026L24.6545 4.1524C24.6184 5.94162 25.4931 7.31225 26.7194 8.55865L25.3623 9.24397C26.785 9.12818 27.8078 8.6374 28.5367 7.72943C28.7519 7.3924 29.0013 7.07178 29.1747 6.71459C29.4353 6.17834 29.4156 6.16381 28.9258 5.83568C27.6166 4.95818 26.7288 3.76756 26.2595 2.26428C26.8192 1.54522 27.5969 1.17022 28.4069 0.884747L28.5105 2.49162L29.0359 2.21318C30.3808 1.47256 31.8123 0.974747 33.3161 0.679903C33.6053 0.623184 33.8973 0.583809 34.1894 0.541622C34.2227 0.536465 34.2611 0.565528 34.2967 0.579122L32.8905 1.70037C32.3767 2.11006 31.9684 2.61162 31.6136 3.16053L31.5644 3.21022L31.5634 3.25943C31.5128 3.31193 31.4467 3.35647 31.4139 3.41787C31.1463 3.91803 30.8697 4.4149 30.6264 4.92725C30.4848 5.22584 30.3995 5.55115 30.2842 5.87787L32.5441 6.09303L32.5839 6.17975C30.9602 7.64178 29.3336 9.101 27.8247 10.744L29.4409 10.9652C28.9825 11.1527 28.5705 11.2952 28.1814 11.486C27.0494 12.0415 25.9914 12.6949 25.2259 13.7393C24.6334 14.5479 24.018 15.3401 23.4128 16.1388L21.9916 14.7133L21.6288 16.3704L22.6375 17.2788L22.4777 17.5858C22.1627 18.2477 21.8205 18.8983 21.5425 19.5757C21.2528 20.2812 21.1877 21.0415 21.1338 21.798C21.0719 22.6671 20.9748 23.5343 20.9477 24.4043C20.9148 25.4585 20.9088 26.5151 21.0864 27.5622C21.2425 28.4843 21.3625 29.4133 21.5458 30.3293C21.6588 30.8951 21.8613 31.4426 22.0239 31.9985L22.0923 31.9849L22.7655 30.6344L22.833 30.6518C23.0763 31.8166 23.4217 32.9496 23.9172 34.0301C24.4103 35.1054 24.9784 36.1376 25.8728 36.9719V35.5469L25.9717 35.5479C26.1545 35.6435 26.3383 35.7377 26.5173 35.8399C27.7741 36.5562 29.0748 37.1833 30.4173 37.7201C32.0425 38.3697 33.6606 39.0358 35.2042 39.8651C35.6823 40.1219 36.1628 40.3957 36.5805 40.7374C37.5283 41.5137 38.4377 42.3372 39.363 43.1416L39.2861 43.3226C38.9833 43.9286 38.6748 44.5319 38.3767 45.1399C38.1128 45.6771 37.8597 46.219 37.6023 46.7585L37.5353 46.7486V44.8779C37.4289 45.1179 37.3867 45.3612 37.322 45.5979C37.0605 46.5597 36.7966 47.5207 36.5242 48.4788C36.4422 48.7676 36.235 48.9344 35.9509 49.0474C35.6181 49.1791 35.3073 49.1369 34.9881 49.0366L34.9909 49.0385L34.8986 48.9958C34.4134 48.6344 33.9292 48.2726 33.4431 47.913C33.3189 47.8216 33.1886 47.7387 33.0658 47.6547L33.2416 49.4444L33.1483 49.4927C31.1655 47.8765 28.7402 47.0749 26.5422 45.8547C25.8278 45.4001 25.1111 44.9482 24.4 44.4883C24.2102 44.3655 24.0377 44.2169 23.8145 44.0482L23.9233 44.929L23.8638 44.9711L21.8327 43.5766C21.8683 43.2996 21.9213 43.024 21.9358 42.7465C21.962 42.2397 22.0248 41.7251 21.9672 41.2258C21.8275 40.0197 21.2013 39.0954 20.2005 38.4096C19.7941 38.1307 19.4017 37.8279 19.0281 37.5063C18.8223 37.3296 18.663 37.0952 18.6175 36.8412L19.7847 36.9457C19.4378 36.2983 19.0919 35.7255 18.8177 35.1204C18.543 34.5138 18.2814 33.8885 18.3147 33.1207C18.5191 33.3982 18.6517 33.6565 18.9555 33.7793C18.8514 32.756 19.0009 31.7876 19.1673 30.8271C19.3333 29.8676 19.5644 28.9188 19.7669 27.9654C19.0595 29.2043 18.3377 30.4329 18.1206 31.9287L17.5366 31.3137C17.5108 31.6844 17.462 32.0196 17.4695 32.3538C17.4859 33.1033 17.5145 33.8529 17.567 34.6001C17.627 35.4527 17.86 36.2651 18.1966 37.0512C18.5805 37.9488 19.2381 38.6468 19.847 39.3827C20.2342 39.8505 20.5661 40.3568 20.6542 40.9722C20.7494 41.6379 20.8117 42.3087 20.8886 42.9771L21.0428 45.2397C20.5998 45.3312 19.3633 45.0321 19.1036 44.7504L19.3117 44.6393C19.0891 44.4471 18.8434 44.2793 18.6564 44.0618C18.3719 43.7308 18.3166 43.3038 18.25 42.8857C18.2327 42.7783 18.1459 42.6822 18.0911 42.5815C17.9875 42.6752 17.8516 42.7521 17.7906 42.8683C17.74 42.9658 17.7522 43.1144 17.7798 43.2302C17.8309 43.4458 17.897 43.6615 17.9861 43.864C18.2566 44.4752 18.5495 45.0762 18.8172 45.6888C19.1458 46.4402 19.4163 47.2085 19.398 48.0462C19.3923 48.2913 19.3422 48.3382 19.1163 48.2477C18.8111 48.1254 18.5125 47.9833 18.2195 47.8333C17.9894 47.7157 17.7719 47.5737 17.5206 47.426V47.6899L17.5005 47.7072C17.4288 47.6712 17.3472 47.6468 17.2863 47.5971C17.0275 47.3857 16.7748 47.1663 16.5198 46.9502L16.5217 46.9526L16.4702 46.8485L16.0131 45.7122L15.9714 45.8796L15.8978 46.0347C15.5552 45.4057 15.3742 44.7762 15.2814 44.1133C15.1145 44.6805 15.2931 45.2205 15.3681 45.8008L15.5186 45.6372C15.6484 45.8997 15.7614 46.1543 15.8978 46.3947C16.0356 46.6376 16.1884 46.8733 16.352 47.0993C16.435 47.2136 16.5564 47.3013 16.66 47.4012C16.9009 48.0082 17.1489 48.6124 17.2703 49.323L15.9653 48.9363C15.4389 48.7005 14.9008 48.4858 14.478 48.0719L14.3861 48.0429L14.3669 47.9777L14.3477 47.9904L14.3847 48.0433L14.8183 48.948L14.7873 49.0118L14.1095 48.7751L13.6895 48.6391ZM14.2202 47.8212L13.7097 46.5897L13.5419 46.7037L13.1992 45.0991C12.8711 45.7277 13.5161 47.5207 14.2202 47.8212ZM19.8334 27.7952L19.8264 27.7746L19.8086 27.7793L19.8156 27.8004L19.8334 27.7952Z" fill="#D3EDF6"></path>
    <path fill-rule="evenodd" clip-rule="evenodd" d="M39.3622 43.1416C38.4369 42.3373 37.5275 41.5137 36.5797 40.7374C36.1625 40.3957 35.6815 40.122 35.2034 39.8651C33.6598 39.0359 32.0417 38.3702 30.4165 37.7201C29.0736 37.1829 27.7733 36.5562 26.5165 35.8399C26.3375 35.7377 26.1542 35.6435 25.9709 35.5479L25.872 35.547V36.972C24.9776 36.1376 24.4095 35.1054 23.9164 34.0301C23.4209 32.9496 23.075 31.8166 22.8322 30.6518L22.7647 30.6345L22.0915 31.9849L22.0231 31.9985C21.8605 31.4426 21.6584 30.8951 21.545 30.3293C21.3612 29.4129 21.2417 28.4838 21.0856 27.5623C20.908 26.5151 20.914 25.4585 20.9469 24.4043C20.974 23.5348 21.0711 22.6671 21.133 21.798C21.1869 21.0415 21.252 20.2816 21.5417 19.5757C21.8197 18.8984 22.1619 18.2477 22.4769 17.5859L22.6367 17.2788L22.7365 17.352C23.3675 17.8713 24.005 18.3837 24.6233 18.9171C24.7409 19.0188 24.8295 19.1993 24.8544 19.3559C24.9022 19.6563 24.898 19.9652 24.9083 20.2709C24.9256 20.7832 25.0583 21.0012 25.542 21.1559C27.1939 21.6837 28.8758 21.9823 30.62 21.7788C31.1056 21.7221 31.512 21.5384 31.7947 21.1305C32.0436 20.7705 32.2878 20.4073 32.5212 20.037C32.7884 19.6137 32.8611 19.5851 33.3505 19.6591C33.5708 19.6924 33.6425 19.7951 33.6373 20.0009C33.6294 20.3145 33.6359 20.6285 33.6322 20.9426C33.6242 21.641 34.0081 22.0404 34.648 22.188C35.1931 22.3141 35.7505 22.406 36.3069 22.458C37.0123 22.5241 37.7267 22.5879 38.4158 22.3263C38.2475 22.7623 38.0806 23.1991 37.91 23.6341C37.835 23.8254 37.7665 24.0213 37.6709 24.2023C37.5308 24.4666 37.4853 24.7038 37.7689 24.9026L37.8204 24.9574L37.82 24.956L37.9555 25.2152C38.2747 25.8654 38.6295 26.501 38.9033 27.1695C39.3345 28.2241 39.4878 29.3426 39.5178 30.4779C39.5665 31.8115 39.312 33.0902 38.809 34.3202C38.6623 34.6779 38.5325 35.0707 38.2869 35.3534C37.1792 36.6284 35.7706 37.2082 34.0737 37.0334L33.5848 36.9766C33.6162 37.0418 33.6565 37.0666 33.6973 37.0905C34.8392 37.7548 35.9811 38.4195 37.1239 39.0823C37.1858 39.1179 37.258 39.1357 37.325 39.1615C37.5387 39.349 37.7534 39.5346 37.9653 39.724L38.9755 40.6324L39.0533 40.6868C39.3955 40.3915 39.724 40.0938 40.0681 39.8149C41.0844 38.9899 42.2019 38.3351 43.3962 37.7951C44.2676 37.4013 45.1076 36.9377 45.9617 36.5055C46.0119 36.4802 46.063 36.4573 46.1853 36.4643L45.8801 37.6301L45.8136 37.8649L45.793 37.8762L45.8023 37.8855L45.8136 37.8649C46.2097 37.6774 46.617 37.5105 46.9976 37.2954C47.3136 37.1173 47.5976 36.882 47.8962 36.6724C47.8395 36.7995 47.7936 36.933 47.7242 37.0535C47.2081 37.9516 46.519 38.7077 45.7681 39.4104C45.5544 39.6101 45.3242 39.792 45.0725 40.0066L45.1367 38.8713C44.0356 39.7873 43.1136 40.7712 42.2206 41.7855L42.1536 41.764L42.0608 40.4327C41.089 41.3074 40.1295 42.1273 39.3622 43.1416ZM26.2855 22.8888C26.3 23.0257 26.3023 23.1237 26.3215 23.2184C26.457 23.9018 26.8461 24.4263 27.3828 24.844C28.4895 25.7046 29.7847 26.1152 31.1417 26.3421C32.3647 26.5465 33.6008 26.4607 34.8326 26.4288L35.0483 26.3899L34.7651 25.7979C34.6245 25.5096 34.4769 25.2246 34.3428 24.9326C34.2458 24.7212 34.3119 24.574 34.513 24.4348C34.9367 24.1418 35.338 23.8155 35.7655 23.4902C35.4415 23.2245 35.0914 23.1054 34.7319 23.0777C33.6776 22.9966 32.622 22.9146 31.5659 22.8968C29.8212 22.8673 28.0761 22.8888 26.2855 22.8888ZM31.8359 30.0785L31.9334 30.0588C32.075 29.7729 32.2358 29.4945 32.3534 29.1996C32.4983 28.8368 32.6347 28.4904 33.0429 28.3324C33.2642 28.2471 33.4653 28.1088 33.6753 27.9945L33.6551 27.9162C31.8237 28.0296 30.0294 27.8299 28.2256 27.2468C28.2739 28.0207 28.4698 28.676 28.7928 29.3351L29.4889 28.5598C29.7078 29.1513 29.8545 29.727 30.2994 30.2262L31.1506 28.9685L31.8359 30.0785ZM33.4705 36.9537L33.4658 36.9391L33.4447 36.9349L33.4508 36.9598L33.4705 36.9537ZM23.4115 16.1393C24.0172 15.3401 24.6326 14.5484 25.2251 13.7398C25.9901 12.6954 27.0486 12.0415 28.1806 11.4865C28.5692 11.2957 28.9817 11.1537 29.4401 10.9657L27.8239 10.7445C29.3333 9.10195 30.9594 7.64227 32.5831 6.18023L32.5433 6.09352L30.2834 5.87836C30.3992 5.55164 30.484 5.22586 30.6256 4.92773C30.8689 4.41539 31.145 3.91898 31.4131 3.41836C31.4464 3.35648 31.512 3.31242 31.5626 3.25992C31.6465 3.2932 31.7276 3.3382 31.8144 3.35742L35.494 4.14914C35.8283 4.22133 35.8334 4.2232 35.8334 3.86508V2.01961C36.237 1.90898 36.6369 1.7782 37.0456 1.69195C37.9925 1.49133 38.9412 1.29961 39.8937 1.12945C40.3686 1.04461 40.8528 1.01461 41.3726 0.955078L40.3658 2.69367L40.4225 2.73398C40.8505 2.60742 41.2737 2.45789 41.7083 2.36227C42.1456 2.2657 42.5947 2.22352 43.0808 2.15086V2.85773C44.2747 2.70961 45.4245 2.73445 46.6058 2.95852L46.4079 3.36164C46.2064 3.7957 46.0081 4.23117 45.8056 4.6643C45.7189 4.84898 45.7625 4.95023 45.9673 5.0093C46.4492 5.14805 46.9269 5.3032 47.4054 5.45367C47.4987 5.4832 47.5887 5.52211 47.7176 5.57133C47.5104 5.82398 47.3122 6.04898 47.1317 6.28805C46.6222 6.96398 46.1192 7.64555 45.6162 8.32664C45.5881 8.36461 45.5815 8.41805 45.5651 8.46399L44.5503 10.0451C44.2405 10.5715 43.9297 11.097 43.624 11.6257C43.602 11.6641 43.6175 11.7241 43.6151 11.7748C43.4633 11.9955 43.2894 12.2046 43.1642 12.4395C42.5745 13.5471 41.9801 14.6529 41.4223 15.7765C40.8758 16.8776 40.3705 17.9993 39.8497 19.113C39.8192 19.1791 39.8108 19.2551 39.792 19.3268L37.2767 18.8121C37.0015 18.4366 36.5928 18.4024 36.2806 18.7296C35.5798 18.7521 34.8786 18.7863 34.1773 18.792C33.8173 18.7948 33.4475 18.7887 33.0987 18.7118C32.0201 18.4737 30.949 18.1995 29.8751 17.9393C29.698 17.5095 29.082 17.4434 28.7801 17.7148L28.7061 17.7124C27.3753 17.4855 26.0389 17.3295 24.6842 17.3838C24.6214 17.3866 24.5394 17.3449 24.4944 17.2976C24.1297 16.916 23.7715 16.5265 23.4115 16.1393ZM27.9889 16.9141L28.1215 16.8565C28.6939 16.557 29.2878 16.3765 29.9431 16.5096C30.0701 16.5354 30.2014 16.542 30.3542 16.5602C29.9694 15.9734 28.999 15.9213 28.4614 16.2701C28.228 16.4224 28.002 16.593 27.9889 16.9141ZM30.455 15.5965C30.2244 15.0434 29.4959 14.7691 28.8439 14.9487C28.2969 15.0991 27.7817 15.6846 27.8384 16.1407C28.5692 15.3166 29.4514 15.243 30.455 15.5965ZM37.6475 16.6526C38.3586 16.7191 38.9755 16.9535 39.4161 17.5788C39.4475 17.0618 39.2469 16.759 38.8287 16.5298C38.4373 16.3151 37.9606 16.3746 37.6475 16.6526ZM38.9019 18.6377C38.8419 18.0621 38.6619 17.5971 38.0895 17.433C37.7947 17.3487 37.497 17.397 37.2467 17.6346C37.9962 17.8418 38.2615 17.8648 38.9019 18.6377Z" fill="#E9F5FA"></path>
    <path fill-rule="evenodd" clip-rule="evenodd" d="M39.5171 30.4776C39.4871 29.3423 39.3343 28.2238 38.9026 27.1691C38.6289 26.5002 38.274 25.8646 37.9548 25.2149L37.8193 24.9557C38.0626 25.0288 38.3045 25.1081 38.5496 25.1737C38.9068 25.2698 39.2626 25.3804 39.6268 25.4362C39.8214 25.4657 40.0318 25.3959 40.2339 25.3654C40.3117 25.3537 40.3876 25.3265 40.5086 25.2941L40.4101 25.7812C41.2234 25.4029 41.8112 24.8226 42.287 24.1424C42.7609 23.4651 43.1659 22.7395 43.5925 22.0485L43.7837 22.3691C44.1273 21.832 43.8906 20.2448 43.3239 19.3002C43.4678 19.3002 43.5868 19.2918 43.7045 19.3016C44.4498 19.3621 45.2101 19.3551 45.8846 19.7545C46.4195 20.0709 46.8011 20.5199 47.057 21.1124L46.4861 21.0806C47.0551 22.0012 47.274 22.9546 47.1845 24.0454L46.7448 23.6957C46.7237 23.8002 46.7087 23.9076 46.6796 24.0107C46.5915 24.3201 46.495 24.6266 46.4097 24.9365C46.3867 25.019 46.3937 25.1099 46.3867 25.1966C46.479 25.1995 46.5812 25.2285 46.6623 25.1995C47.1282 25.034 47.589 24.854 48.0521 24.6801C48.2453 24.6079 48.4421 24.5441 48.6329 24.4654C48.8345 24.3829 48.9095 24.4546 48.8954 24.6576C48.3709 24.8404 47.8459 25.0218 47.3228 25.207C47.2557 25.2309 47.1948 25.2716 47.1306 25.3045C47.7939 25.2309 48.0568 25.266 48.3957 25.5027C48.6428 25.6752 48.6789 25.8895 48.459 26.099C48.2889 26.2616 48.0845 26.3906 47.8871 26.5223C47.7686 26.601 47.6345 26.6568 47.4709 26.7426L47.6987 26.8288C47.3373 27.066 46.989 27.2704 46.6689 27.5118C46.2704 27.8113 45.8706 28.117 45.5171 28.4666C45.2354 28.7451 45.3217 28.9391 45.7154 28.9706C46.1992 29.0095 46.6857 29.0113 47.1709 29.0282L47.4826 29.0287L47.2529 29.3263L47.2417 29.3456L47.2515 29.3249C47.4334 29.3249 47.6176 29.3427 47.7962 29.3179C47.9082 29.302 48.0657 29.249 48.1079 29.1651C48.1993 28.9827 48.3465 28.9598 48.5078 28.9298C48.8223 28.8702 49.1382 28.8177 49.4504 28.747C49.7003 28.6907 49.945 28.612 50.1925 28.5431L50.229 28.5946L49.6764 29.1098L49.5939 28.806C48.7168 29.2091 47.8511 29.5738 47.0186 30.0037C46.6168 30.2109 46.2779 30.5399 45.9109 30.8141L45.8907 30.8371L45.9137 30.817L46.149 30.8338L45.2284 31.6106C45.3751 31.7381 45.4928 31.9063 45.6507 31.9635C45.9484 32.0718 46.2662 32.1557 46.5803 32.1782C47.0542 32.212 47.5328 32.1843 48.0095 32.1829L48.0221 32.0784L47.6495 31.9256L49.5498 31.6968C48.2537 32.4946 46.757 32.4107 45.3236 32.6512C45.3259 33.0388 45.6507 33.2212 45.8584 33.4879L45.7037 33.6159L46.1532 33.9937C46.239 34.1282 46.1603 34.1381 46.0487 34.1437C45.2214 34.1849 44.4212 34.0452 43.6539 33.7495C43.1861 33.5695 42.7389 33.336 42.2818 33.1293L42.1398 33.0988L42.1328 33.0806L42.1187 33.0768L42.1389 33.1002L42.3381 33.5465C42.0742 33.4968 41.8126 33.4204 41.5468 33.4026C40.9309 33.3613 40.3482 33.5315 39.775 33.7368L39.565 33.8001C39.5814 33.5873 39.6114 33.3754 39.6118 33.1631C39.6137 32.3006 39.6081 31.4381 39.5996 30.5756C39.5987 30.5423 39.5457 30.5099 39.5171 30.4776Z" fill="#B3E0EE"></path>
    <path fill-rule="evenodd" clip-rule="evenodd" d="M39.3621 43.141C40.1295 42.1266 41.089 41.3068 42.0593 40.4326L42.1521 41.7638L42.2191 41.7854C43.1121 40.771 44.0341 39.7871 45.1352 38.8712L45.071 40.0065C45.3227 39.7918 45.5534 39.6099 45.7666 39.4102C46.5176 38.7071 47.2071 37.9515 47.7227 37.0534C47.7916 36.9334 47.838 36.7998 47.8948 36.6723L47.9435 36.6699L47.951 36.6765C47.7851 37.2184 47.637 37.7659 47.449 38.2998C47.0384 39.4688 46.2607 40.4227 45.5932 41.4437C44.921 42.4707 44.3055 43.5357 43.6699 44.5862C43.6207 44.6677 43.6062 44.7704 43.5752 44.8632L43.5555 44.8918L43.5818 44.8698C43.8738 44.7188 44.1645 44.5665 44.4574 44.417C44.727 44.2791 44.9984 44.1446 45.3124 44.0509L45.1127 44.4268C44.4162 45.7684 43.7266 47.1141 43.0198 48.451C42.738 48.9835 42.4245 49.4996 42.1057 50.011C42.0504 50.0996 41.8985 50.176 41.7907 50.1765C40.3765 50.1854 38.9618 50.1545 37.5485 50.1845C36.5252 50.206 35.749 49.7255 35.0201 49.0998L34.9863 49.0365C35.306 49.1373 35.6163 49.1795 35.9491 49.0473C36.2332 48.9343 36.4404 48.7674 36.5224 48.4787C36.7948 47.5201 37.0591 46.5591 37.3202 45.5977C37.3845 45.361 37.4271 45.1177 37.5335 44.8777V46.7485L37.6005 46.7584C37.8584 46.2188 38.1115 45.6765 38.3749 45.1398C38.673 44.5318 38.9815 43.9285 39.2843 43.3224L39.3621 43.141Z" fill="#65C1DD"></path>
    <path fill-rule="evenodd" clip-rule="evenodd" d="M21.8308 43.5757L23.8619 44.9702L23.9214 44.928L23.8127 44.0473C24.0353 44.216 24.2083 44.3651 24.3981 44.4874C25.1092 44.9473 25.8259 45.3991 26.5403 45.8538L25.022 46.2677C26.793 47.0257 28.3909 48.0949 29.1588 50.1185C28.637 50.1532 28.1613 50.1945 27.6845 50.2151C26.6603 50.2596 25.6361 50.3023 24.6114 50.3304C23.132 50.3721 21.6522 50.3998 20.1723 50.4349C19.7425 50.4448 19.3127 50.4537 18.8833 50.4705C18.1998 50.4982 17.6631 50.2348 17.2713 49.6741L17.1053 49.467L16.6319 49.7955C16.3511 49.5565 16.1111 49.2846 15.9648 48.9354L17.2698 49.3221C17.1484 48.6115 16.9 48.0073 16.6595 47.4002L16.5194 46.9488C16.7744 47.1649 17.027 47.3843 17.2858 47.5957C17.3467 47.6454 17.4283 47.6698 17.5005 47.7059L17.5342 47.7602L17.5202 47.6885V47.4246C17.7714 47.5723 17.9889 47.7143 18.2191 47.832C18.512 47.9815 18.8102 48.124 19.1158 48.2463C19.3417 48.3368 19.3919 48.2904 19.3975 48.0448C19.4158 47.2071 19.1448 46.4384 18.8167 45.6874C18.5491 45.0748 18.2561 44.4738 17.9856 43.8626C17.8966 43.6601 17.8305 43.4445 17.7794 43.2288C17.7517 43.113 17.7395 42.9645 17.7902 42.867C17.8511 42.7507 17.987 42.6738 18.0906 42.5801C18.1455 42.6813 18.2322 42.7774 18.2495 42.8843C18.3161 43.3024 18.3714 43.7295 18.6559 44.0604C18.843 44.2784 19.0891 44.4457 19.3113 44.6379L19.1031 44.749C19.3628 45.0307 20.5994 45.3298 21.0423 45.2384L20.8881 42.9757L21.0367 43.053L21.8308 43.5757Z" fill="#65C2DD"></path>
    <path fill-rule="evenodd" clip-rule="evenodd" d="M46.1524 33.9923L45.7029 33.6145L45.8575 33.4866C45.6504 33.2198 45.3255 33.0375 45.3227 32.6498C46.7561 32.4094 48.2524 32.4937 49.5489 31.6955L47.6486 31.9242L48.0213 32.077L48.0086 32.1816C47.5319 32.183 47.0533 32.2106 46.5794 32.1769C46.2649 32.1544 45.9471 32.07 45.6499 31.9622C45.4919 31.9045 45.3743 31.7367 45.2275 31.6092L46.1482 30.8325L45.9129 30.8156L45.91 30.8128C46.2775 30.5391 46.616 30.2095 47.0177 30.0023C47.8502 29.5725 48.716 29.2078 49.593 28.8047L49.6755 29.1084L50.2282 28.5933L50.1916 28.5417C49.9446 28.6102 49.6994 28.6889 49.4496 28.7456C49.1374 28.8164 48.8214 28.8689 48.5069 28.9284C48.3457 28.9584 48.1985 28.9814 48.1071 29.1637C48.0649 29.2477 47.9074 29.3006 47.7953 29.3166C47.6172 29.3414 47.4325 29.3236 47.2507 29.3236L47.2521 29.325L47.4818 29.0273L47.17 29.0269C46.6844 29.01 46.1979 29.0086 45.7146 28.9692C45.3204 28.9378 45.2346 28.7437 45.5163 28.4653C45.8697 28.1156 46.2696 27.8105 46.668 27.5105C46.9882 27.2695 47.3364 27.0647 47.6978 26.8275L47.47 26.7412C47.6341 26.6555 47.7677 26.6002 47.8863 26.5209C48.0836 26.3892 48.288 26.2603 48.4582 26.0977C48.6775 25.8881 48.6419 25.6734 48.3949 25.5014C48.056 25.2647 47.7925 25.2295 47.1297 25.3031C47.1935 25.2703 47.2549 25.2291 47.3219 25.2056C47.8455 25.0205 48.37 24.8386 48.8946 24.6562C49.3225 24.6736 49.7552 24.6567 50.1775 24.7162C50.7583 24.7978 51.0668 25.2497 51.3855 25.6702L51.3508 25.7334L50.7672 25.5459C51.1136 26.1375 51.4244 26.693 51.446 27.3773L51.3424 27.3178L51.281 27.1612C51.1202 27.547 51.0438 27.8784 50.8614 28.1348C50.5539 28.568 50.5671 28.9444 50.7963 29.4131C50.9604 29.7478 50.9669 30.1598 51.0438 30.5372L50.9472 30.5756L50.7016 30.2728C50.6711 30.7922 50.6646 31.2595 50.4086 31.6842L50.2971 31.4278C50.1147 31.5956 49.9333 31.748 49.773 31.9205C49.7289 31.9678 49.7289 32.0784 49.7435 32.1539C49.8274 32.5875 49.9708 33.0164 49.8077 33.4748L49.6183 33.3862C49.353 33.9689 48.8735 34.2647 48.2791 34.3303C47.6336 34.4016 46.998 34.2877 46.3872 34.057C46.3122 34.0275 46.2311 34.0134 46.1524 33.9923Z" fill="#EBF7FE"></path>
    <path fill-rule="evenodd" clip-rule="evenodd" d="M37.2762 18.8126L39.7915 19.3273L40.0024 19.3962C40.1745 19.4529 40.2382 19.5734 40.1871 19.7426C40.122 19.9549 40.061 20.1715 39.963 20.3688C39.9101 20.4762 39.7985 20.5812 39.6884 20.6276C39.4976 20.7077 39.3851 20.8334 39.3016 21.0157C39.1854 21.2698 39.0677 21.5276 38.9126 21.7582C38.7734 21.9654 38.5826 22.1384 38.4148 22.3259C37.7257 22.5879 37.0113 22.5237 36.3059 22.4576C35.749 22.4055 35.1921 22.3132 34.647 22.1876C34.0071 22.0399 33.6237 21.6405 33.6312 20.9421C33.6345 20.6285 33.6284 20.3145 33.6363 20.0004C33.6415 19.7946 33.5698 19.692 33.3495 19.6587C32.8601 19.5846 32.7879 19.6132 32.5202 20.0365C32.2868 20.4068 32.0426 20.7705 31.7937 21.1301C31.511 21.5379 31.1041 21.7221 30.619 21.7784C28.8748 21.9818 27.1929 21.6832 25.541 21.1554C25.0573 21.0007 24.9246 20.7832 24.9073 20.2704C24.897 19.9648 24.9007 19.6559 24.8534 19.3554C24.8285 19.1993 24.7404 19.0188 24.6223 18.9166C24.004 18.3827 23.3665 17.8709 22.7355 17.3515L22.6357 17.2784L21.627 16.3699L21.9898 14.7129L23.411 16.1384C23.771 16.5255 24.1287 16.9151 24.4934 17.298C24.5384 17.3454 24.6204 17.3866 24.6832 17.3843C26.0374 17.3299 27.3738 17.486 28.7051 17.7129L28.7791 17.7152L29.8741 17.9398C30.9485 18.1999 32.0191 18.4741 33.0977 18.7123C33.4465 18.7891 33.8163 18.7952 34.1763 18.7924C34.8776 18.7868 35.5788 18.7526 36.2796 18.7301L37.2762 18.8126ZM28.2415 18.1409C27.5084 18.0987 26.7757 18.0424 26.0421 18.0213C25.7477 18.0129 25.5813 18.1807 25.5462 18.4723C25.4843 18.9893 25.4337 19.5077 25.4013 20.0266C25.3685 20.5554 25.4201 20.6201 25.931 20.7926C27.3415 21.2693 28.797 21.4207 30.2791 21.3963C30.8205 21.387 31.219 21.146 31.4899 20.704C31.714 20.3393 31.9048 19.953 32.0909 19.5668C32.253 19.2307 32.202 19.0784 31.8424 18.9598C31.2949 18.7798 30.7329 18.6434 30.1774 18.4882L28.2415 18.1409ZM36.402 19.1993L36.3935 19.2532C36.1127 19.2532 35.831 19.2415 35.5507 19.257C35.3041 19.2705 35.058 19.3062 34.8148 19.3474C34.4941 19.4023 34.2902 19.5907 34.2588 19.9216C34.226 20.2662 34.1979 20.6126 34.1988 20.958C34.1998 21.5599 34.3099 21.693 34.8884 21.8323C35.7124 22.0305 36.5501 22.1093 37.3966 22.0695C37.6015 22.0596 37.8049 22.0137 38.0074 21.9748C38.276 21.9237 38.4682 21.7812 38.5784 21.5177C38.7757 21.0462 38.9984 20.5854 39.192 20.112C39.3527 19.7182 39.3134 19.6151 38.8999 19.5466C38.0702 19.4093 37.2349 19.3127 36.402 19.1993Z" fill="#515053"></path>
    <path fill-rule="evenodd" clip-rule="evenodd" d="M28.5356 7.73C27.8067 8.63844 26.7839 9.12875 25.3612 9.24453L26.7183 8.55922C25.492 7.31281 24.6173 5.94219 24.6534 4.15297C24.7153 3.05469 25.0514 2.05109 25.6889 1.1525C25.7503 1.06578 25.8272 0.990781 25.8965 0.910156L25.9355 0.928906L25.9383 1.02594C25.8947 1.09812 25.8286 1.16563 25.8108 1.24391C25.5614 2.33281 25.5651 3.41703 25.9214 4.48344C26.3076 5.63891 27.0361 6.54688 27.9914 7.28562C28.177 7.42812 28.3547 7.58141 28.5356 7.73Z" fill="#4F4E51"></path>
    <path fill-rule="evenodd" clip-rule="evenodd" d="M39.5174 30.4766C39.546 30.5089 39.599 30.5413 39.599 30.5741C39.6074 31.4361 39.613 32.2986 39.6112 33.1616C39.6107 33.3739 39.5807 33.5858 39.5643 33.7986C39.382 34.5491 39.238 35.3117 39.0079 36.0472C38.6512 37.1891 38.0605 38.2175 37.3241 39.1606C37.2571 39.1344 37.1849 39.117 37.123 39.0814C35.9802 38.4186 34.8384 37.7539 33.6965 37.0897C33.6557 37.0658 33.6154 37.0409 33.584 36.9758L34.0729 37.0325C35.7698 37.2073 37.1784 36.6275 38.286 35.3525C38.5316 35.0694 38.6615 34.677 38.8082 34.3194C39.3116 33.0889 39.5662 31.8097 39.5174 30.4766Z" fill="#66C2DD"></path>
    <path fill-rule="evenodd" clip-rule="evenodd" d="M35.8323 2.02008V3.86555C35.8323 4.22367 35.8271 4.2218 35.4929 4.14961C34.2667 3.88336 33.0395 3.6232 31.8132 3.35789C31.7261 3.33914 31.6454 3.29367 31.5615 3.26039L31.5625 3.21117L31.6117 3.16148C31.9665 2.61305 32.3748 2.11102 32.8886 1.70133L34.2948 0.580078C34.292 0.663047 34.307 0.751641 34.2831 0.828047C34.1743 1.17914 34.0539 1.52648 33.9146 1.94461C34.5962 1.69055 35.1892 1.37836 35.8318 1.27102L35.8323 2.02008Z" fill="#EBF7FD"></path>
    <path fill-rule="evenodd" clip-rule="evenodd" d="M28.5363 7.73039C28.3553 7.58226 28.1777 7.42852 27.9925 7.28508C27.0372 6.54633 26.3088 5.63836 25.9225 4.48289C25.5658 3.41648 25.562 2.33227 25.8119 1.24336C25.8297 1.16508 25.8958 1.09758 25.9394 1.02539L26.2586 2.26523C26.7278 3.76898 27.6156 4.95961 28.9248 5.83664C29.4147 6.16477 29.4344 6.1793 29.1738 6.71555C29.0008 7.07227 28.7514 7.39336 28.5363 7.73039Z" fill="#737F84"></path>
    <path fill-rule="evenodd" clip-rule="evenodd" d="M43.6148 11.7754C43.6167 11.7252 43.6012 11.6648 43.6237 11.6263C43.9293 11.0976 44.2401 10.5721 44.5499 10.0457C45.0885 9.93555 45.637 9.85773 46.1643 9.7082C47.3371 9.37633 48.3745 8.80117 49.2032 7.88711L49.507 7.56836C49.086 8.76273 48.4556 9.8282 47.5401 10.7099C46.6668 11.5513 45.591 11.8513 44.406 11.8265C44.1421 11.8213 43.8787 11.7932 43.6148 11.7754Z" fill="#4F4E51"></path>
    <path fill-rule="evenodd" clip-rule="evenodd" d="M49.5068 7.56719L49.2031 7.88594C48.3739 8.80047 47.337 9.37562 46.1642 9.70703C45.6368 9.85609 45.0884 9.93438 44.5498 10.0445L45.5646 8.46344C47.0004 8.695 48.2604 8.25437 49.4276 7.45562L49.5931 7.35156L49.5068 7.56719Z" fill="#737F84"></path>
    <path fill-rule="evenodd" clip-rule="evenodd" d="M47.9432 36.669L47.954 36.5996L47.9765 36.6057L47.9503 36.6751L47.9432 36.669Z" fill="#65C1DD"></path>
    <path fill-rule="evenodd" clip-rule="evenodd" d="M25.8975 0.910469L25.9218 0.882812L25.9368 0.92875L25.8975 0.910469Z" fill="#737F84"></path>
    <path fill-rule="evenodd" clip-rule="evenodd" d="M21.8308 43.5756C21.566 43.4012 21.3016 43.2264 21.0363 43.0539L20.8877 42.9766C20.8108 42.3081 20.7485 41.6378 20.6533 40.9717C20.5652 40.3562 20.2333 39.8495 19.8461 39.3822C19.2372 38.6462 18.5795 37.9478 18.1956 37.0506C17.8595 36.2645 17.6261 35.4522 17.5661 34.5995C17.5136 33.8519 17.4845 33.1023 17.4686 32.3533C17.4611 32.0191 17.5099 31.6839 17.5356 31.3131L18.1197 31.9281C18.3367 30.4323 19.0581 29.2038 19.766 27.9648C19.5634 28.9183 19.3328 29.867 19.1664 30.8266C19 31.7875 18.8505 32.7559 18.9545 33.7787C18.6508 33.6559 18.5177 33.3977 18.3138 33.1202C18.2805 33.888 18.5416 34.5128 18.8167 35.1198C19.091 35.725 19.4364 36.2973 19.7838 36.9452L18.6166 36.8406C18.662 37.0947 18.8214 37.3291 19.0272 37.5058C19.4008 37.8273 19.7931 38.1302 20.1995 38.4091C21.1999 39.0948 21.8266 40.0197 21.9663 41.2253C22.0244 41.7245 21.9611 42.2392 21.9349 42.7459C21.9194 43.0234 21.8664 43.2991 21.8308 43.5756ZM16.5194 46.9492L16.6595 47.4006C16.5555 47.3008 16.4345 47.2136 16.3516 47.0987C16.188 46.8728 16.0352 46.637 15.8974 46.3942C15.7605 46.1533 15.648 45.8988 15.5181 45.6367L15.3677 45.8003C15.2927 45.2205 15.1141 44.68 15.2809 44.1128C15.3738 44.7756 15.5547 45.4052 15.8974 46.0342L15.9709 45.8791L16.0127 45.7117L16.4697 46.848L16.5213 46.952L16.5194 46.9492Z" fill="#B3E0EE"></path>
    <path fill-rule="evenodd" clip-rule="evenodd" d="M14.2202 47.8197C13.5162 47.5192 12.8712 45.7262 13.1993 45.0977L13.542 46.7022L13.7098 46.5883L14.2202 47.8197Z" fill="#B4E1EE"></path>
    <path fill-rule="evenodd" clip-rule="evenodd" d="M19.8334 27.7945L19.8156 27.7992L19.8086 27.7781L19.8264 27.7734L19.8334 27.7945Z" fill="#B3E0EE"></path>
    <path fill-rule="evenodd" clip-rule="evenodd" d="M26.2852 22.8883C28.0753 22.8883 29.8209 22.8672 31.5656 22.8962C32.6217 22.914 33.6778 22.9961 34.7316 23.0772C35.0911 23.1048 35.4413 23.2239 35.7652 23.4897C35.3377 23.815 34.9364 24.1412 34.5127 24.4342C34.3116 24.5734 34.2459 24.7201 34.3425 24.932C34.4766 25.224 34.6242 25.5086 34.7648 25.7973L35.048 26.3893L34.8323 26.4283C33.6005 26.4601 32.3644 26.5454 31.1414 26.3415C29.7844 26.1147 28.4892 25.7045 27.3825 24.8434C26.8458 24.4258 26.4567 23.9017 26.3212 23.2178C26.302 23.1231 26.2997 23.0247 26.2852 22.8883Z" fill="#4F4E51"></path>
    <path fill-rule="evenodd" clip-rule="evenodd" d="M31.8359 30.0778L31.1506 28.9678L30.2993 30.2255C29.8545 29.7263 29.7078 29.1506 29.4889 28.5591L28.7928 29.3344C28.4698 28.6753 28.2734 28.0205 28.2256 27.2461C30.0298 27.8292 31.8242 28.0289 33.6551 27.9155L33.6753 27.9938C33.4653 28.1081 33.2642 28.2464 33.0429 28.3317C32.6346 28.4897 32.4982 28.8361 32.3534 29.1989C32.2353 29.4938 32.075 29.7727 31.9334 30.0581L31.8359 30.0778Z" fill="#D3EDF6"></path>
    <path fill-rule="evenodd" clip-rule="evenodd" d="M33.4701 36.9523L33.4504 36.9584L33.4443 36.9336L33.4654 36.9378L33.4701 36.9523Z" fill="#66C2DD"></path>
    <path fill-rule="evenodd" clip-rule="evenodd" d="M30.4544 15.5949C29.4508 15.241 28.5686 15.3151 27.8383 16.1391C27.7811 15.683 28.2968 15.0976 28.8438 14.9471C29.4954 14.768 30.2238 15.0418 30.4544 15.5949ZM27.9879 16.9126C28.001 16.592 28.2269 16.4213 28.4613 16.269C28.999 15.9198 29.9688 15.9718 30.3541 16.5591C30.2013 16.5409 30.0701 16.5343 29.943 16.5085C29.2877 16.3754 28.6933 16.5559 28.1215 16.8554L27.9879 16.9126ZM37.6469 16.651C37.9601 16.373 38.4368 16.3135 38.8282 16.5277C39.2468 16.757 39.4474 17.0602 39.4155 17.5768C38.9754 16.952 38.3585 16.7176 37.6469 16.651Z" fill="#D4EDF6"></path>
    <path fill-rule="evenodd" clip-rule="evenodd" d="M38.9017 18.6378C38.2614 17.8648 37.9961 17.8414 37.2461 17.6347C37.4964 17.397 37.7941 17.3487 38.0889 17.4331C38.6617 17.5977 38.8412 18.0627 38.9017 18.6378Z" fill="#CDEBF4"></path>
    <path fill-rule="evenodd" clip-rule="evenodd" d="M47.2514 29.3242L47.2415 29.3448L47.2528 29.3256L47.2514 29.3242ZM45.9126 30.8158L45.8896 30.8359L45.9098 30.813L45.9126 30.8158Z" fill="#EBF7FE"></path>
    <path fill-rule="evenodd" clip-rule="evenodd" d="M17.5197 47.6895L17.5337 47.7612L17.5 47.7068L17.5197 47.6895Z" fill="#D3EDF6"></path>
    <path fill-rule="evenodd" clip-rule="evenodd" d="M30.1775 18.4867C30.7334 18.6419 31.295 18.7783 31.8425 18.9583C32.2025 19.0764 32.2531 19.2292 32.0909 19.5653C31.9048 19.9516 31.7136 20.3378 31.49 20.7025C31.2186 21.1445 30.8206 21.3859 30.2792 21.3948C28.797 21.4192 27.3415 21.2678 25.9311 20.7911C25.4201 20.6186 25.3686 20.5539 25.4014 20.0251C25.4337 19.5062 25.4843 18.9878 25.5462 18.4708C25.5814 18.1792 25.7473 18.0114 26.0421 18.0198C26.7757 18.0409 27.5084 18.0976 28.2415 18.1398L28.0395 18.7717C27.8553 19.2381 27.8257 19.7186 27.9462 20.1995C28.0756 20.7147 28.5228 20.988 28.9896 20.8647C29.4143 20.7526 29.8789 20.1962 29.9234 19.7476C30.1423 19.3548 30.1704 18.9231 30.1775 18.4867Z" fill="#E8F4F8"></path>
    <path fill-rule="evenodd" clip-rule="evenodd" d="M36.4019 19.1992C37.2348 19.3127 38.0706 19.4092 38.8994 19.547C39.3128 19.6155 39.3522 19.7186 39.1914 20.1123C38.9983 20.5858 38.7751 21.0466 38.5778 21.5181C38.4676 21.7816 38.275 21.9236 38.0069 21.9752C37.8044 22.0141 37.6005 22.06 37.3961 22.0698C36.5495 22.1097 35.7119 22.0309 34.8878 21.8327C34.3098 21.6939 34.1997 21.5603 34.1983 20.9584C34.1973 20.613 34.2259 20.2661 34.2583 19.922C34.2897 19.5911 34.4936 19.4027 34.8142 19.3478C35.058 19.3066 35.3036 19.2709 35.5501 19.2573C35.8305 19.2419 36.1122 19.2536 36.393 19.2536L36.4019 19.1992ZM37.5072 20.2384C37.4659 20.3261 37.4467 20.3875 37.4111 20.4377C37.2555 20.6594 37.1247 20.9087 36.9306 21.0906C36.5134 21.4816 35.9936 21.3653 35.7583 20.8441C35.6645 20.6359 35.6158 20.4072 35.5445 20.1808C35.4906 20.7784 35.5487 21.1994 35.7236 21.4938C35.8994 21.7895 36.1459 21.9039 36.4736 21.842C37.0558 21.7309 37.5522 20.9819 37.5072 20.2384ZM35.8745 20.1255L35.8267 20.1709C35.9247 20.2942 35.9997 20.4728 36.1272 20.5281C36.3053 20.6055 36.4192 20.4306 36.5022 20.2844C36.5383 20.2216 36.5626 20.148 36.5748 20.0772C36.6156 19.8395 36.5078 19.5925 36.3531 19.5508C36.1839 19.5053 35.9823 19.6778 35.9106 19.9328L35.8745 20.1255Z" fill="#ECF5F9"></path>
    <path fill-rule="evenodd" clip-rule="evenodd" d="M28.0395 18.7715C28.0592 19.0584 28.0503 19.3509 28.1052 19.6307C28.1713 19.9649 28.3391 20.2499 28.7038 20.3512C29.0694 20.452 29.3666 20.3165 29.6248 20.069C29.7303 19.9682 29.8236 19.8552 29.923 19.7474C29.8789 20.196 29.4139 20.7524 28.9892 20.8645C28.5228 20.9877 28.0752 20.7145 27.9458 20.1993C27.8258 19.7184 27.8558 19.2379 28.0395 18.7715ZM37.5078 20.2373C37.5533 20.9802 37.0569 21.7298 36.4742 21.8404C36.147 21.9027 35.9005 21.7884 35.7242 21.4921C35.5489 21.1977 35.4913 20.7773 35.5452 20.1791C35.6164 20.4055 35.6647 20.6343 35.7589 20.8424C35.9942 21.3637 36.5141 21.4804 36.9313 21.089C37.1253 20.9071 37.2561 20.6577 37.4117 20.436C37.4469 20.3863 37.4661 20.3249 37.5078 20.2373Z" fill="#778287"></path>
    <path fill-rule="evenodd" clip-rule="evenodd" d="M35.8751 20.1252L35.9112 19.9326C35.983 19.6776 36.1845 19.5051 36.3537 19.5506C36.5084 19.5923 36.6162 19.8393 36.5755 20.077C36.5633 20.1482 36.5389 20.2213 36.5028 20.2841C36.4198 20.4304 36.3059 20.6048 36.1278 20.5279C36.0003 20.4721 35.9253 20.294 35.8273 20.1707L35.8751 20.1252ZM28.3719 19.1746C28.3826 18.8981 28.5673 18.6674 28.7792 18.666C28.9569 18.6646 29.1045 18.8793 29.0937 19.1231C29.082 19.3959 28.8701 19.649 28.6611 19.641C28.4731 19.6345 28.3606 19.4535 28.3719 19.1746Z" fill="#1C1C1C"></path>
    <path d="M6.58281 59.4391H5.80469V52.7467H9.53547V53.4381H6.58281V55.8873H9.35687V56.5788H6.58281V59.4391ZM14.8591 56.9256C14.8591 57.7436 14.6533 58.382 14.2413 58.8414C13.8292 59.3008 13.2602 59.5305 12.5336 59.5305C12.085 59.5305 11.6866 59.425 11.3387 59.2145C10.9909 59.0041 10.7223 58.7017 10.533 58.308C10.3436 57.9142 10.2494 57.4534 10.2494 56.9256C10.2494 56.1077 10.4537 55.4706 10.863 55.0145C11.2722 54.5584 11.8394 54.3302 12.5659 54.3302C13.2681 54.3302 13.8255 54.5636 14.2389 55.0305C14.6523 55.4973 14.8591 56.1292 14.8591 56.9256ZM11.0369 56.9256C11.0369 57.5664 11.1648 58.0548 11.4212 58.3905C11.6777 58.7261 12.0545 58.8939 12.5519 58.8939C13.0492 58.8939 13.427 58.727 13.6848 58.3928C13.9427 58.0586 14.0716 57.5697 14.0716 56.9256C14.0716 56.2877 13.9427 55.8034 13.6848 55.472C13.427 55.1406 13.0464 54.9752 12.5425 54.9752C12.0452 54.9752 11.6697 55.1383 11.4166 55.465C11.1634 55.7917 11.0369 56.2788 11.0369 56.9256ZM16.9052 54.422V57.6766C16.9052 58.0858 16.9984 58.3905 17.1845 58.592C17.3706 58.7936 17.6622 58.8944 18.0588 58.8944C18.5837 58.8944 18.9672 58.7509 19.21 58.4641C19.4528 58.1772 19.5737 57.7089 19.5737 57.0587V54.422H20.3336V59.4391H19.7064L19.5967 58.7659H19.5559C19.4003 59.013 19.1847 59.2023 18.9081 59.3336C18.6316 59.4648 18.317 59.5305 17.9627 59.5305C17.3523 59.5305 16.8953 59.3856 16.5916 59.0955C16.2878 58.8053 16.1359 58.3417 16.1359 57.7037V54.4216L16.9052 54.422ZM25.3787 59.4391V56.1934C25.3787 55.7842 25.2855 55.4795 25.0994 55.278C24.9133 55.0764 24.6217 54.9756 24.2252 54.9756C23.7002 54.9756 23.3158 55.1177 23.0716 55.4013C22.8273 55.6848 22.7055 56.1536 22.7055 56.8066V59.4386H21.9456V54.4216H22.5634L22.6872 55.1083H22.7237C22.8794 54.8613 23.0973 54.6695 23.3781 54.5336C23.6589 54.3977 23.9716 54.3297 24.3166 54.3297C24.9208 54.3297 25.3755 54.4755 25.6806 54.767C25.9858 55.0586 26.1386 55.5245 26.1386 56.1653V59.4381H25.3787V59.4391ZM31.1144 58.7659H31.0731C30.722 59.2755 30.197 59.5305 29.4986 59.5305C28.8423 59.5305 28.3319 59.3059 27.9672 58.8573C27.6025 58.4088 27.4202 57.7708 27.4202 56.9439C27.4202 56.117 27.6034 55.4744 27.9695 55.0169C28.3356 54.5594 28.8456 54.3302 29.4986 54.3302C30.1792 54.3302 30.7009 54.5772 31.0642 55.0717H31.1238L31.0919 54.7103L31.0736 54.3578V52.3164H31.8334V59.4391H31.2156L31.1144 58.7659ZM29.5947 58.8944C30.1136 58.8944 30.4895 58.7533 30.723 58.4711C30.9564 58.1889 31.0731 57.7333 31.0731 57.1047V56.9444C31.0731 56.2333 30.955 55.7261 30.7183 55.4223C30.4816 55.1186 30.1042 54.9667 29.5853 54.9667C29.1395 54.9667 28.7987 55.1402 28.562 55.4861C28.3253 55.832 28.2072 56.3214 28.2072 56.9533C28.2072 57.5941 28.3244 58.0778 28.5597 58.4045C28.795 58.7312 29.14 58.8944 29.5947 58.8944ZM36.5298 59.4391L36.3789 58.7252H36.3419C36.0916 59.0392 35.8422 59.2525 35.5933 59.3636C35.3444 59.4747 35.0345 59.5305 34.6619 59.5305C34.1645 59.5305 33.7745 59.4025 33.4923 59.1461C33.2102 58.8897 33.0691 58.525 33.0691 58.052C33.0691 57.0386 33.8795 56.508 35.5 56.4592L36.3512 56.4316V56.1203C36.3512 55.7266 36.2664 55.4359 36.0972 55.2484C35.928 55.0609 35.657 54.9667 35.2848 54.9667C34.8667 54.9667 34.3937 55.0947 33.8659 55.3511L33.6325 54.7698C33.8795 54.6353 34.1505 54.5303 34.4448 54.4539C34.7392 54.3775 35.0345 54.3395 35.3308 54.3395C35.9289 54.3395 36.3723 54.4722 36.6606 54.738C36.9489 55.0038 37.0933 55.4294 37.0933 56.0153V59.4395L36.5298 59.4391ZM34.8133 58.9033C35.2862 58.9033 35.658 58.7734 35.928 58.5142C36.198 58.255 36.333 57.8917 36.333 57.4248V56.9716L35.5731 57.0034C34.9689 57.0245 34.5334 57.1187 34.2662 57.2852C33.9991 57.4516 33.8659 57.7103 33.8659 58.0609C33.8659 58.3356 33.9489 58.5447 34.1153 58.6881C34.2817 58.8316 34.5137 58.9033 34.8133 58.9033ZM40.2789 58.9033C40.4134 58.9033 40.5428 58.8934 40.668 58.8737C40.7931 58.8541 40.8925 58.8334 40.9656 58.8119V59.3931C40.8831 59.4325 40.7617 59.4658 40.6019 59.4916C40.442 59.5173 40.2972 59.5305 40.1687 59.5305C39.1984 59.5305 38.7133 59.0195 38.7133 57.9972V55.0127H37.9947V54.6466L38.7133 54.3306L39.0339 53.2595H39.4736V54.422H40.9291V55.0127H39.4731V57.9653C39.4731 58.2677 39.5448 58.4992 39.6883 58.6609C39.8317 58.8227 40.0286 58.9033 40.2789 58.9033ZM41.9041 53.0622C41.9041 52.8883 41.9467 52.7608 42.032 52.6802C42.1173 52.5995 42.2242 52.5587 42.3526 52.5587C42.4745 52.5587 42.58 52.6 42.6686 52.6825C42.7572 52.765 42.8012 52.8916 42.8012 53.0627C42.8012 53.2338 42.7572 53.3608 42.6686 53.4447C42.58 53.5286 42.4745 53.5708 42.3526 53.5708C42.2247 53.5708 42.1178 53.5291 42.032 53.4447C41.9462 53.3603 41.9041 53.2333 41.9041 53.0622ZM42.7277 59.4391H41.9678V54.422H42.7277V59.4391ZM48.6695 56.9256C48.6695 57.7436 48.4637 58.382 48.0517 58.8414C47.6397 59.3008 47.0706 59.5305 46.3441 59.5305C45.8955 59.5305 45.497 59.425 45.1492 59.2145C44.8014 59.0041 44.5328 58.7017 44.3434 58.308C44.1541 57.9142 44.0598 57.4534 44.0598 56.9256C44.0598 56.1077 44.2642 55.4706 44.6734 55.0145C45.0827 54.5584 45.6498 54.3302 46.3764 54.3302C47.0786 54.3302 47.6359 54.5636 48.0494 55.0305C48.4628 55.4973 48.6695 56.1292 48.6695 56.9256ZM44.8473 56.9256C44.8473 57.5664 44.9753 58.0548 45.2317 58.3905C45.4881 58.7261 45.865 58.8939 46.3623 58.8939C46.8597 58.8939 47.2375 58.727 47.4953 58.3928C47.7531 58.0586 47.882 57.5697 47.882 56.9256C47.882 56.2877 47.7531 55.8034 47.4953 55.472C47.2375 55.1406 46.8569 54.9752 46.353 54.9752C45.8556 54.9752 45.4802 55.1383 45.227 55.465C44.9739 55.7917 44.8473 56.2788 44.8473 56.9256ZM53.4348 59.4391V56.1934C53.4348 55.7842 53.3416 55.4795 53.1555 55.278C52.9694 55.0764 52.6778 54.9756 52.2812 54.9756C51.7562 54.9756 51.3719 55.1177 51.1277 55.4013C50.8834 55.6848 50.7616 56.1536 50.7616 56.8066V59.4386H50.0017V54.4216H50.6195L50.7433 55.1083H50.7798C50.9355 54.8613 51.1534 54.6695 51.4342 54.5336C51.715 54.3977 52.0276 54.3297 52.3727 54.3297C52.9769 54.3297 53.4316 54.4755 53.7367 54.767C54.0419 55.0586 54.1947 55.5245 54.1947 56.1653V59.4381H53.4348V59.4391Z" fill="#4F4E51"></path>
  </g>
  <defs>
    <clipPath id="clip0_5451_16546">
      <rect width="60" height="60" fill="white"></rect>
    </clipPath>
  </defs>
</svg>
