<?xml version="1.0" encoding="UTF-8"?>
<svg xmlns="http://www.w3.org/2000/svg" width="54" height="60" viewBox="0 0 54 60" fill="none">
  <path d="M53.8751 35.895C53.8751 28.255 48.3226 21.9275 41.0451 20.8125V13.5925C43.0826 12.725 44.3276 10.8025 44.3276 8.565C44.3276 5.5075 41.8926 2.9525 38.8551 2.9525C35.8176 2.9525 33.4176 5.5075 33.4176 8.565C33.4176 10.8025 34.6651 12.725 36.7001 13.5925V20.765C34.9618 21.0008 33.2786 21.5407 31.7276 22.36C28.5126 19.91 18.0476 12.3175 12.0651 7.735C12.2142 7.20858 12.2923 6.66461 12.2976 6.1175C12.3002 4.49812 11.6596 2.94398 10.5167 1.7968C9.3737 0.649614 7.82193 0.00331215 6.20255 0C4.5858 0.00661845 3.03775 0.654539 1.89828 1.80151C0.758815 2.94847 0.121064 4.50074 0.125052 6.1175C0.118406 7.73622 0.754904 9.29131 1.89459 10.4408C3.03427 11.5904 4.58383 12.2402 6.20255 12.2475C7.34255 12.2475 8.40255 11.9075 9.32255 11.3575L28.3226 24.8L28.3176 24.7975C26.8137 26.2251 25.6168 27.9445 24.8 29.8504C23.9833 31.7564 23.5639 33.8089 23.5676 35.8825C23.5676 39.315 24.6976 42.48 26.5951 45.0225L20.8326 50.8575C20.3106 50.6649 19.7589 50.5659 19.2026 50.565C17.945 50.565 16.7676 51.0575 15.8851 51.9475C15.0001 52.8375 14.5126 54.0325 14.5126 55.3C14.5126 56.5675 15.0026 57.75 15.8851 58.64C16.7701 59.53 17.9576 60 19.2051 60C20.4626 60 21.6401 59.5425 22.5351 58.64C23.1438 58.0282 23.573 57.2611 23.7762 56.4223C23.9794 55.5835 23.9488 54.7051 23.6876 53.8825L29.5101 48C32.1509 50.0492 35.3999 51.1586 38.7426 51.1525C47.1101 51.1525 53.8751 44.32 53.8751 35.895ZM38.7376 43.9675C34.3026 43.9675 30.7051 40.3475 30.7051 35.8825C30.7051 31.4175 34.3001 27.7975 38.7376 27.7975C43.1726 27.7975 46.7701 31.4175 46.7701 35.8825C46.7701 40.3475 43.1726 43.9675 38.7376 43.9675Z" fill="#F8761F"></path>
</svg>
