<?xml version="1.0" encoding="UTF-8"?>
<svg xmlns="http://www.w3.org/2000/svg" width="60" height="60" viewBox="0 0 60 60" fill="none">
  <path d="M29.9984 41.2879C36.2324 41.2879 41.2859 36.2343 41.2859 30.0004C41.2859 23.7665 36.2324 18.7129 29.9984 18.7129C23.7645 18.7129 18.7109 23.7665 18.7109 30.0004C18.7109 36.2343 23.7645 41.2879 29.9984 41.2879Z" fill="#4E8EF7"></path>
  <path d="M53.0348 10.8465C53.0359 10.1021 52.8227 9.37314 52.4206 8.74669C52.0185 8.12023 51.4445 7.6228 50.7672 7.31384C50.09 7.00487 49.3381 6.89743 48.6014 7.00436C47.8647 7.11129 47.1744 7.42807 46.6129 7.91684C41.0201 3.70847 34.0397 1.7772 27.0791 2.51247C20.1186 3.24773 13.6957 6.59482 9.10563 11.8788C4.51554 17.1629 2.09967 23.9907 2.34516 30.9857C2.59065 37.9807 5.47923 44.6224 10.4285 49.5716C15.3777 54.5208 22.0194 57.4094 29.0144 57.6549C36.0093 57.9004 42.8372 55.4845 48.1212 50.8945C53.4053 46.3044 56.7524 39.8815 57.4876 32.9209C58.2229 25.9604 56.2916 18.98 52.0832 13.3871C52.6972 12.6832 53.0353 11.7806 53.0348 10.8465ZM30.0004 56.7184C25.7672 56.7219 21.5937 55.7194 17.8239 53.7937C14.054 51.8679 10.7957 49.0739 8.31738 45.642C5.83906 42.2101 4.21166 38.2384 3.56928 34.0542C2.92689 29.8699 3.28791 25.593 4.62259 21.5756C5.95726 17.5583 8.22739 13.9156 11.2459 10.9477C14.2645 7.97972 17.945 5.77148 21.9843 4.50489C26.0236 3.2383 30.3061 2.94962 34.4789 3.66263C38.6516 4.37563 42.5952 6.06993 45.9848 8.6059C45.4552 9.35258 45.2069 10.2626 45.2839 11.1748C45.3609 12.087 45.7583 12.9425 46.4056 13.5898C47.0529 14.2371 47.9084 14.6345 48.8206 14.7115C49.7328 14.7885 50.6428 14.5402 51.3895 14.0106C54.3553 17.9813 56.1583 22.6986 56.5968 27.6352C57.0354 32.5717 56.0924 37.533 53.873 41.9644C51.6537 46.3957 48.2456 50.1225 44.0298 52.728C39.8139 55.3335 34.9565 56.7151 30.0004 56.7184Z" fill="#4E8EF7"></path>
</svg>
