<?xml version="1.0" encoding="UTF-8"?>
<svg xmlns="http://www.w3.org/2000/svg" width="60" height="60" viewBox="0 0 60 60" fill="none">
  <path d="M24.6491 31.7883C24.6491 31.7883 23.1097 32.6841 25.7465 32.9869C28.9405 33.3516 30.5732 33.2991 34.0926 32.6339C34.0926 32.6339 35.0202 33.2137 36.3121 33.7162C28.4202 37.0973 18.4508 33.5203 24.6491 31.7883ZM23.684 27.375C23.684 27.375 21.9571 28.6542 24.5957 28.927C28.0082 29.2791 30.7021 29.3081 35.3671 28.41C35.3671 28.41 36.0107 29.0644 37.0246 29.4211C27.4846 32.212 16.8585 29.6409 23.684 27.375Z" fill="#0074BD"></path>
  <path d="M31.8143 19.8896C33.76 22.1293 31.3043 24.143 31.3043 24.143C31.3043 24.143 36.2416 21.5945 33.9743 18.4018C31.856 15.4257 30.2327 13.9477 39.0232 8.84961C39.0232 8.84961 25.2241 12.2949 31.8143 19.8896Z" fill="#EA2D2E"></path>
  <path d="M42.2503 35.0532C42.2503 35.0532 43.3903 35.993 40.995 36.7196C36.4406 38.0991 22.0368 38.5154 18.0361 36.7744C16.5989 36.1486 19.2956 35.2805 20.1436 35.0982C21.0281 34.9064 21.5334 34.9416 21.5334 34.9416C19.934 33.8152 11.1951 37.1536 17.0948 38.1113C33.1842 40.7189 46.4231 36.9366 42.2503 35.0532ZM25.3893 22.8029C25.3893 22.8029 18.0632 24.5433 22.7953 25.1761C24.794 25.4433 28.7756 25.3819 32.4872 25.0707C35.5195 24.8161 38.5626 24.2719 38.5626 24.2719C38.5626 24.2719 37.4943 24.7304 36.7204 25.2582C29.2795 27.2152 14.9081 26.3035 19.0457 24.3029C22.544 22.6102 25.3893 22.8029 25.3893 22.8029ZM38.5322 30.1482C46.0954 26.2191 42.5981 22.4429 40.1573 22.9514C39.5606 23.0761 39.2925 23.1839 39.2925 23.1839C39.2925 23.1839 39.5151 22.8352 39.9384 22.6857C44.7675 20.9888 48.4804 27.6924 38.3812 30.3474C38.3812 30.3474 38.497 30.2424 38.5322 30.1482Z" fill="#0074BD"></path>
  <path d="M33.9748 0.615234C33.9748 0.615234 38.1631 4.80539 30.0017 11.2474C23.457 16.4163 28.5092 19.3629 29.9989 22.7309C26.1785 19.2837 23.3764 16.249 25.256 13.4252C28.0165 9.28055 35.6642 7.27008 33.9748 0.615234Z" fill="#EA2D2E"></path>
  <path d="M26.1327 40.8002C33.3908 41.2643 44.54 40.542 44.8039 37.1074C44.8039 37.1074 44.2967 38.4091 38.8044 39.4423C32.6084 40.6085 24.9655 40.473 20.4336 39.7249C20.4336 39.7249 21.3617 40.4937 26.1327 40.8002Z" fill="#0074BD"></path>
  <path d="M44.4703 46.9602H44.2491V46.8364H44.8444V46.9602H44.6241V47.5775H44.4698L44.4703 46.9602ZM45.6586 46.9911H45.6558L45.4364 47.5775H45.3352L45.1172 46.9911H45.1148V47.5775H44.9686V46.8364H45.1828L45.3848 47.3609L45.5873 46.8364H45.8002V47.5775H45.6586V46.9911ZM24.9445 53.9239C24.2602 54.5173 23.5364 54.8511 22.8863 54.8511C21.9609 54.8511 21.4589 54.2952 21.4589 53.405C21.4589 52.4417 21.9961 51.7363 24.1486 51.7363H24.9441L24.9445 53.9239ZM26.8341 56.0558V49.4572C26.8341 47.7702 25.8717 46.6573 23.5542 46.6573C22.2014 46.6573 21.0155 46.992 20.0512 47.4177L20.3287 48.5863C21.0881 48.3073 22.0702 48.0486 23.0339 48.0486C24.3698 48.0486 24.9441 48.5863 24.9441 49.6991V50.533H24.2766C21.0323 50.533 19.5684 51.7916 19.5684 53.6844C19.5684 55.3152 20.5331 56.2419 22.3495 56.2419C23.5167 56.2419 24.3891 55.76 25.2033 55.0545L25.3514 56.0562L26.8341 56.0558ZM33.1397 56.0558H30.7833L27.9469 46.8266H30.0052L31.7658 52.498L32.1572 54.2019C33.0459 51.7372 33.6759 49.235 33.9909 46.827H35.993C35.4572 49.865 34.4916 53.2011 33.1397 56.0558ZM42.1809 53.9239C41.4942 54.5173 40.77 54.8511 40.1222 54.8511C39.1959 54.8511 38.6944 54.2952 38.6944 53.405C38.6944 52.4417 39.233 51.7363 41.3831 51.7363H42.1805L42.1809 53.9239ZM44.0714 56.0558V49.4572C44.0714 47.7702 43.1063 46.6573 40.7906 46.6573C39.4364 46.6573 38.2509 46.992 37.2867 47.4177L37.5647 48.5863C38.3241 48.3073 39.3075 48.0486 40.2712 48.0486C41.6053 48.0486 42.1809 48.5863 42.1809 49.6991V50.533H41.5134C38.2683 50.533 36.8048 51.7916 36.8048 53.6844C36.8048 55.3152 37.7686 56.2419 39.5845 56.2419C40.7522 56.2419 41.6231 55.76 42.4397 55.0545L42.5887 56.0562L44.0714 56.0558ZM17.4966 57.6242C16.9589 58.4113 16.088 59.0342 15.1355 59.3853L14.2031 58.2861C14.9283 57.9139 15.5494 57.3134 15.8386 56.7537C16.088 56.2555 16.1916 55.6147 16.1916 54.0814V43.543H18.1997V53.9366C18.1997 55.9873 18.0366 56.8166 17.4966 57.6242Z" fill="#EA2D2E"></path>
</svg>
