<?xml version="1.0" encoding="UTF-8"?>
<svg xmlns="http://www.w3.org/2000/svg" width="36" height="60" viewBox="0 0 36 60" fill="none">
  <g clip-path="url(#clip0_5451_20821)">
    <path d="M35.2557 29.3142C35.2557 39.3081 27.5126 47.4174 17.9559 47.4174C8.39918 47.4174 0.65625 39.3081 0.65625 29.3142C0.65625 19.3203 8.39932 11.2109 17.9559 11.2109C27.5128 11.2109 35.2558 19.3203 35.2558 29.3142" fill="#D33833"></path>
    <path d="M1.36783 33.7956C1.36783 33.7956 0.112239 14.9216 17.119 14.3789L15.9332 12.3516L6.71121 15.5211L4.07446 18.6192L1.77249 23.1307L0.460938 28.3847L0.851676 31.8969" fill="#EF3D3A"></path>
    <path d="M6.1101 16.9636C3.08275 20.1473 1.19922 24.5305 1.19922 29.3846C1.19922 34.2387 3.08275 38.6217 6.1101 41.8055C9.1515 44.9892 13.3231 46.9452 17.9549 46.9452C22.5868 46.9452 26.7582 44.9892 29.7996 41.8056C32.8271 38.6217 34.7105 34.2387 34.7105 29.3846C34.7105 24.5304 32.8271 20.1473 29.7996 16.9636C26.7584 13.7941 22.5868 11.824 17.9549 11.824C13.337 11.824 9.15164 13.7799 6.1101 16.9636ZM5.34282 42.5622C2.12017 39.1928 0.125 34.5243 0.125 29.3846C0.125 24.2449 2.12017 19.5763 5.34282 16.1927C8.56561 12.8233 13.0301 10.7246 17.955 10.7246C22.8798 10.7246 27.3443 12.8233 30.5671 16.1927C33.7897 19.562 35.7849 24.2305 35.7849 29.3846C35.7849 34.5242 33.7897 39.1928 30.5671 42.5622C27.3443 45.9458 22.8798 48.0302 17.9549 48.0302C13.0301 48.0302 8.56561 45.9458 5.34282 42.5622Z" fill="#231F20"></path>
    <path d="M25.2377 29.4132L22.6008 29.8129L19.0432 30.227L16.7412 30.2841L14.4951 30.2127L12.779 29.6703L11.2582 27.9854L10.0724 24.5447L9.80734 23.8022L8.23089 23.2598L7.30993 21.7037L6.6543 19.4763L7.37981 17.5205L9.09589 16.9066L10.477 17.5776L11.1327 19.0625L11.9279 18.9339L12.193 18.5913L11.9279 17.035L11.8582 15.0791L12.2488 12.3808L12.2349 10.8389L13.4346 8.86872L15.5413 7.31246L19.2246 5.69922L23.3124 6.31303L26.8699 8.94008L28.5163 11.6384L29.5764 13.5943L29.8416 18.4484L29.0463 22.6316L27.5953 26.3437L26.2282 28.3281" fill="#F0D6B7"></path>
    <path d="M23.0055 41.0779L13.5882 41.4776V43.0908L14.3835 48.7589L13.9928 49.23L7.40771 46.9314L6.94737 46.1176L6.2916 38.4937L4.74298 33.9251L4.4082 32.8401L9.68184 29.1281L11.3282 28.457L12.7791 30.2844L14.0347 31.4267L15.4857 31.8978L16.1413 32.0978L16.9366 35.6098L17.5366 36.3523L19.0572 35.8097L17.9969 37.9083L23.7169 40.678L23.0055 41.0778" fill="#335061"></path>
    <path d="M7.38027 17.5491L9.09635 16.9353L10.4775 17.6063L11.1331 19.0911L11.9284 18.9627L12.1238 18.1488L11.7331 16.5926L12.1237 12.8806L11.7889 10.8533L12.9748 9.43993L15.5418 7.35547L14.8163 6.3418L11.189 8.16913L9.66832 9.3828L8.81725 11.2673L7.50583 13.0947L7.11523 15.2506L7.38027 17.5491Z" fill="#6D6B6D"></path>
    <path d="M10.0869 11.2095C10.0869 11.2095 11.0773 8.71111 15.0256 7.49758C18.9738 6.28406 15.2211 6.62664 15.2211 6.62664L10.9377 8.31139L9.29165 9.996L8.56613 11.338L10.0869 11.2095ZM8.10579 17.0774C8.10579 17.0774 6.7245 12.3517 11.9981 11.6807L11.8028 10.8669L8.17553 11.7379L7.11523 15.2501L7.38027 17.5485L8.10579 17.0774Z" fill="#DCD9D8"></path>
    <path d="M10.213 23.3471L11.0779 22.4904C11.0779 22.4904 11.4686 22.5333 11.5383 23.0044C11.6081 23.4756 11.8034 27.7301 14.6356 30.0144C14.9006 30.2285 12.5289 29.6717 12.5289 29.6717L10.4221 26.3024M22.3367 22.0621C22.3367 22.0621 22.4901 20.0205 23.0343 20.1776C23.5784 20.3346 23.5784 20.8913 23.5784 20.8913C23.5784 20.8913 22.267 21.748 22.3367 22.0621ZM27.8057 14.5811C27.8057 14.5811 26.7174 14.8094 26.6198 15.7946C26.5221 16.7796 27.8057 15.9944 28.001 15.9231M19.8395 14.6524C19.8395 14.6524 18.3884 14.8523 18.3884 15.7946C18.3884 16.7367 20.0348 16.6654 20.4951 16.2657M10.8826 19.0355C10.8826 19.0355 8.38542 17.4792 8.12038 18.9641C7.85535 20.4488 7.26931 21.5195 8.51098 23.0757L7.65991 22.8045L6.86479 20.7201L6.59961 18.6927L8.12038 17.0795L9.83632 17.208L10.8269 18.0218L10.8827 19.0355M12.0685 14.7809C12.0685 14.7809 13.1845 8.84164 18.8489 7.69948C23.5085 6.75718 25.964 7.89948 26.8848 8.98437C26.8848 8.98437 22.7273 3.93042 18.779 5.47229C14.8309 7.02855 11.9289 9.85531 11.9987 11.6685C12.1103 14.7808 12.0684 14.7808 12.0684 14.7808M27.3452 9.65545C27.3452 9.65545 25.434 9.58409 25.3641 11.3401C25.3641 11.3401 25.3641 11.6114 25.4898 11.8826C25.4898 11.8826 27.0104 10.1265 27.9312 11.0688" fill="#F7E4CD"></path>
    <path d="M18.9879 12.0663C18.9879 12.0663 18.6531 9.38229 16.4209 10.9384C14.9699 11.9521 15.1093 13.3655 15.3606 13.6368C15.6256 13.908 15.5559 14.4505 15.7512 14.0794C15.9465 13.7082 15.8907 12.4947 16.6162 12.1519C17.3276 11.8093 18.5276 11.4383 18.9879 12.0663Z" fill="#F7E4CD"></path>
    <path d="M12.793 30.2832L6.59829 33.1098C6.59829 33.1098 9.16544 43.5606 7.85388 46.8015L6.93321 46.4589L6.86347 42.4756L5.14739 34.9374L4.42188 32.8528L10.8814 28.3984L12.7927 30.283M13.4207 36.0652L14.2996 37.1646V41.2049H13.2534C13.2534 41.2049 13.1278 38.3782 13.1278 38.0356C13.1278 37.6928 13.2534 36.4793 13.2534 36.4793M13.4487 41.8189L10.477 41.9474L11.3281 42.5613L13.4346 42.904" fill="#49728B"></path>
    <path d="M23.5919 41.1495L26.0332 41.0781L26.6332 47.2742L24.1359 47.617L23.5918 41.1493" fill="#335061"></path>
    <path d="M24.2461 41.1485L27.9292 40.9485C27.9292 40.9485 29.45 37.0367 29.45 36.8369C29.45 36.6369 30.7614 31.169 30.7614 31.169L27.7897 27.9995L27.1898 27.457L25.6133 29.0703V35.3379L24.2461 41.1485Z" fill="#335061"></path>
    <path d="M25.8938 40.6787L23.5918 41.1499L23.9267 43.0345C24.7777 43.4342 26.2287 42.3634 26.2287 42.3634M25.9635 28.8718L30.5815 32.3839L30.7071 30.7705L27.2192 27.4727L25.9636 28.8718" fill="#49728B"></path>
    <path d="M15.7367 54.4266L14.3695 48.7586L13.6859 44.5755L13.5742 41.4774L19.7546 41.1348H23.5913L23.2426 48.2161L23.8424 53.6841L23.7727 54.6978L18.7641 55.0976L15.7367 54.4266Z" fill="white"></path>
    <path d="M22.7407 41.0776C22.7407 41.0776 22.4059 48.0877 23.3965 53.0845C23.3965 53.0845 21.4154 54.3694 18.5273 54.6977L24.0662 54.4979L24.7218 54.0982L23.9267 43.0478L23.7173 40.6777" fill="#DCD9D8"></path>
    <path d="M26.7309 46.7454L29.2979 46.0029L34.167 45.7317L34.8925 43.4332L33.581 39.4499L32.0603 39.25L29.9537 39.9211L27.9446 40.9347L26.8704 40.7347L26.0332 41.0775" fill="white"></path>
    <path d="M26.6895 45.3889C26.6895 45.3889 28.4055 44.5751 28.6706 44.6465L27.945 40.9345L28.7961 40.5918C28.7961 40.5918 29.3961 44.104 29.3961 44.5037C29.3961 44.5037 33.0792 44.7036 33.414 44.7036C33.414 44.7036 34.2092 43.1473 34.0139 41.5341L34.7395 43.6899L34.8092 44.9035L33.7489 46.5167L32.5631 46.7881L30.5819 46.7167L29.9262 45.8458L27.6242 46.1883L26.8987 46.4597" fill="#DCD9D8"></path>
    <path d="M24.0947 40.6065L22.6437 36.8375L21.123 34.6101C21.123 34.6101 21.458 33.668 21.9183 33.668H23.4391L24.8901 34.2104L24.7644 36.709L24.0947 40.6065Z" fill="white"></path>
    <path d="M24.3877 39.3224C24.3877 39.3224 22.546 35.6818 22.546 35.1392C22.546 35.1392 22.8809 34.3254 23.3413 34.5254C23.8018 34.7252 24.7923 35.2678 24.7923 35.2678V33.9828L22.546 33.5117L21.0254 33.7116L23.5924 39.9363L24.1225 40.0077" fill="#DCD9D8"></path>
    <path d="M16.3229 30.426L14.4954 30.226L12.7793 29.6836V30.2976L13.6163 31.2399L16.2532 32.4534" fill="white"></path>
    <path d="M13.3786 30.627C13.3786 30.627 15.4154 31.4979 16.0853 31.298L16.1549 32.1118L14.3134 31.712L13.1973 30.8982L13.3786 30.627Z" fill="#DCD9D8"></path>
    <path d="M26.7319 33.897C25.6158 33.8684 24.5972 33.7256 23.7183 33.4686C23.7741 33.0974 23.6625 32.7406 23.7602 32.4692C24.0113 32.2836 24.4158 32.2836 24.7925 32.2409C24.4717 32.0837 24.0113 32.0124 23.6486 32.1124C23.6345 31.8554 23.523 31.6983 23.4531 31.4984C24.0811 31.2699 25.5599 29.7709 26.397 30.2563C26.8016 30.499 26.9691 31.841 26.9969 32.5121C27.0248 33.0545 26.9411 33.5971 26.7319 33.897Z" fill="#D33833"></path>
    <path d="M26.7319 33.897C25.6158 33.8684 24.5972 33.7256 23.7183 33.4686C23.7741 33.0974 23.6625 32.7406 23.7602 32.4692C24.0113 32.2836 24.4158 32.2836 24.7925 32.2409C24.4717 32.0837 24.0113 32.0124 23.6486 32.1124C23.6345 31.8554 23.523 31.6983 23.4531 31.4984C24.0811 31.2699 25.5599 29.7709 26.397 30.2563C26.8016 30.499 26.9691 31.841 26.9969 32.5121C27.0248 33.0545 26.9411 33.5971 26.7319 33.897Z" fill="black" stroke="#D33833" stroke-width="11.9904"></path>
    <path d="M21.3877 32.0259C21.3877 32.1117 21.3877 32.1971 21.3737 32.2829C21.025 32.5114 20.4668 32.5114 20.0762 32.7112C20.6344 32.7397 21.0808 32.8825 21.4714 33.0681C21.4573 33.2823 21.4573 33.5108 21.4435 33.7249C20.8017 34.1675 20.2158 34.8386 19.4624 35.2668C19.0997 35.4668 17.858 35.9807 17.4813 35.8807C17.272 35.8236 17.2441 35.5524 17.1605 35.2954C16.9791 34.753 16.5605 33.8676 16.5186 33.0396C16.4767 31.9974 16.3652 30.2413 17.4673 30.4554C18.3601 30.6268 19.3926 31.0409 20.0762 31.4263C20.5087 31.6833 20.7459 31.9688 21.3877 32.0259Z" fill="#D33833"></path>
    <path d="M21.3877 32.0259C21.3877 32.1117 21.3877 32.1971 21.3737 32.2829C21.025 32.5114 20.4668 32.5114 20.0762 32.7112C20.6344 32.7397 21.0808 32.8825 21.4714 33.0681C21.4573 33.2823 21.4573 33.5108 21.4435 33.7249C20.8017 34.1675 20.2158 34.8386 19.4624 35.2668C19.0997 35.4668 17.858 35.9807 17.4813 35.8807C17.272 35.8236 17.2441 35.5524 17.1605 35.2954C16.9791 34.753 16.5605 33.8676 16.5186 33.0396C16.4767 31.9974 16.3652 30.2413 17.4673 30.4554C18.3601 30.6268 19.3926 31.0409 20.0762 31.4263C20.5087 31.6833 20.7459 31.9688 21.3877 32.0259Z" fill="black" stroke="#D33833" stroke-width="11.9904"></path>
    <path d="M22.0144 33.2683C21.9167 32.6971 21.805 32.5403 21.8469 32.0404C23.3397 31.0267 23.6049 33.7823 22.0144 33.2683Z" fill="#D33833"></path>
    <path d="M22.0144 33.2683C21.9167 32.6971 21.805 32.5403 21.8469 32.0404C23.3397 31.0267 23.6049 33.7823 22.0144 33.2683Z" fill="black" stroke="#D33833" stroke-width="11.9904"></path>
    <path d="M24.1643 33.7266C24.1643 33.7266 23.7039 33.0555 24.0387 32.8556C24.3736 32.6558 24.6945 32.8556 24.8898 32.513C25.0852 32.1703 24.8898 31.9706 24.9595 31.5707C25.0293 31.171 25.3501 31.0996 25.685 31.0283C26.0198 30.9568 26.9406 30.8283 27.0662 31.1568L26.6756 29.9431L25.8803 29.6719L23.3831 31.1568L23.2575 31.8992V33.384M17.2444 35.9537C17.1608 34.8972 17.0771 33.855 16.9933 32.7985C16.8538 31.2281 17.3561 31.4992 18.6953 31.4992C18.9047 31.4992 19.9509 31.7421 20.0208 31.8992C20.3836 32.6558 19.4208 32.4844 20.4392 33.0555C21.2903 33.5267 22.8111 32.77 22.4622 31.6992C22.2668 31.4565 21.4578 31.6278 21.1648 31.4707L19.6161 30.6571C18.9605 30.3143 17.4536 29.8004 16.7561 30.2858C14.9842 31.5136 16.8678 34.5975 17.4955 35.8824" fill="#EF3D3A"></path>
    <path d="M18.9879 12.0676C17.1882 11.6392 16.2953 12.8385 15.7512 14.0805C15.2629 13.9664 15.4582 13.2811 15.5839 12.9385C15.9046 12.0391 17.2022 10.8254 18.2624 10.9968C18.7088 11.0539 19.3227 11.4823 18.9879 12.0676ZM27.7354 14.1519H27.8191C28.2238 15.0086 28.5725 15.9224 29.0888 16.6933C28.7401 17.5214 26.4938 18.2352 26.5216 16.779C27.0099 16.5649 27.8471 16.7361 28.2796 16.4506C28.0285 15.751 27.6796 15.1512 27.7354 14.1519ZM19.8948 14.1807C20.2854 14.9087 20.4108 15.6654 20.955 16.208C21.2062 16.4506 21.6805 16.7505 21.4434 17.4356C21.3876 17.5928 20.9829 17.9497 20.7457 18.0211C19.8948 18.2781 17.8996 18.0782 18.5693 16.9788C19.2808 17.0074 20.2296 17.45 20.7598 16.9217C20.3551 16.265 19.6296 14.9515 19.8948 14.1807ZM27.4146 21.5188C26.131 22.3613 24.6939 23.2893 22.5734 23.0751C22.127 22.6754 21.9457 21.7758 22.3921 21.1906C22.6152 21.5903 22.4757 22.3328 23.1176 22.4469C24.3174 22.6611 25.7124 21.6902 26.5774 21.362C27.1075 20.4339 26.5357 20.1056 26.0474 19.5059C25.0568 18.2923 23.7454 16.779 23.7871 14.9659C24.1918 14.666 24.2196 15.4227 24.2755 15.5512C24.7916 16.779 26.0893 18.3637 27.0238 19.4203C27.261 19.6772 27.6377 19.9342 27.6796 20.1056C27.8052 20.5909 27.3588 21.1903 27.4146 21.5188ZM10.4216 20.6338C10.0171 20.391 9.9195 19.3631 9.4451 19.3345C8.76148 19.2918 8.88704 20.6767 8.88704 21.4903C8.4267 21.0621 8.3429 19.72 8.67782 19.0348C8.28722 18.8348 8.11962 19.2489 7.89648 19.3916C8.1895 17.3215 10.868 18.4351 10.4216 20.6338ZM28.2238 22.3897C27.6238 23.5605 26.7727 24.8454 25.0149 24.8883C24.973 24.5171 24.9452 23.9318 25.0149 23.7033C26.3682 23.5605 27.2052 22.861 28.2238 22.3897ZM19.7971 23.1464C20.9132 23.7462 22.978 23.8175 24.5127 23.7746C24.5963 24.1174 24.5963 24.5456 24.5963 24.9597C22.6293 25.0453 20.3132 24.5456 19.7971 23.1464ZM19.5879 24.2601C20.3691 26.2588 23.0338 26.0305 25.2799 25.9733C25.1824 26.2303 24.973 26.5444 24.694 26.6443C23.9685 26.9441 21.9874 27.1726 20.9829 26.63C20.3551 26.2874 19.9366 25.5021 19.5879 25.0453C19.4343 24.8312 18.5973 24.2744 19.5879 24.2601Z" fill="#231F20"></path>
    <path d="M27.3169 35.2669C26.41 36.8659 25.5312 38.5078 24.457 39.9069C24.9033 38.5507 25.0986 36.2664 25.1685 34.5246C26.1171 34.0677 26.9263 34.6243 27.3169 35.2669Z" fill="#81B0C4"></path>
    <path d="M32.2149 41.0078C31.1965 41.2219 30.4849 42.2356 29.4805 42.1642C30.0385 41.3789 30.9872 41.0363 32.2149 41.0078ZM32.6614 42.6353C31.8243 42.7211 30.8477 42.8638 30.0107 42.7924C30.4152 42.1642 31.9499 42.3926 32.6614 42.6353ZM32.9544 44.0488C32.0196 44.0631 30.8616 44.0488 29.9688 43.9773C30.4989 43.392 32.3544 43.7632 32.9544 44.0488Z" fill="#231F20"></path>
    <path d="M25.5588 47.9035C25.6983 49.1028 26.1588 50.3165 26.103 51.6298C25.5867 51.8011 25.2938 51.9582 24.5961 51.9582C24.5544 50.8445 24.4008 49.1314 24.4427 48.0606C24.7775 48.0891 25.2797 47.8179 25.5588 47.9035Z" fill="#DCD9D8"></path>
    <path d="M24.0526 30.1994C23.5782 30.5133 23.1876 30.8988 22.7271 31.2415C21.7226 31.2986 21.1785 31.1702 20.4531 30.5848C20.467 30.542 20.5368 30.5562 20.5368 30.4991C21.611 30.9845 22.9782 30.2994 24.0526 30.1994Z" fill="#F0D6B7"></path>
    <path d="M18.4453 37.6651C18.7383 36.3658 19.8963 35.6806 20.9426 34.9668C22.0168 36.3659 22.6726 38.1648 23.3981 39.9065C21.682 39.3783 19.9381 38.536 18.4453 37.6651Z" fill="#81B0C4"></path>
    <path d="M24.4432 48.0738C24.4013 49.1446 24.5407 50.8436 24.5966 51.9714C25.2942 51.9714 25.5871 51.8144 26.1034 51.643C26.1592 50.3295 25.6988 49.116 25.5593 47.9167C25.2802 47.8168 24.7779 48.0881 24.4432 48.0738ZM13.6726 42.0204C14.1331 46.3177 14.7887 49.9154 16.0024 53.7275C18.6951 54.5698 21.9318 54.6412 24.3176 53.8845C23.8851 51.743 24.0665 49.1304 23.8154 46.8317C23.6199 45.1042 23.7176 43.3767 23.4526 41.6206C20.5646 41.0068 16.4909 41.4778 13.6726 42.0204ZM24.1362 41.6492C24.1082 43.4909 24.2199 45.3183 24.3595 47.16C25.0569 47.0602 25.5174 46.9888 26.1592 46.8317C25.9499 45.0613 25.9779 43.0483 25.5454 41.4778C25.057 41.4922 24.6244 41.478 24.1362 41.6492ZM27.638 41.3494C27.3032 41.278 26.9265 41.3494 26.6196 41.3494C26.773 42.8485 27.1218 44.5046 27.2474 46.0894C27.7357 46.1036 28.0007 45.8609 28.4054 45.7895C28.4332 44.4046 28.2937 42.4915 27.638 41.3494ZM32.9535 46.3177C33.986 46.0607 34.6277 44.7758 34.3347 43.4481C34.1394 42.5629 33.8046 40.8783 33.4278 40.307C33.1627 39.8931 32.4233 39.3363 31.8235 39.7217C30.8608 40.3499 29.1727 40.5355 28.4751 41.2922C28.8238 42.4915 28.9355 44.1191 29.0749 45.6324C30.2749 45.7039 31.7397 45.2899 32.7443 45.7324C32.0466 45.9609 31.1538 45.9609 30.5538 46.3035C31.0561 46.5462 32.2001 46.5033 32.9535 46.3177ZM23.3829 39.9073C22.6573 38.1656 22.0017 36.3668 20.9274 34.9676C19.881 35.6813 18.737 36.3668 18.4301 37.6659C19.9368 38.5368 21.6809 39.3791 23.3829 39.9073ZM25.1685 34.525C25.0988 36.2668 24.9035 38.5511 24.4571 39.9073C25.5313 38.494 26.4104 36.8663 27.3171 35.2673C26.9265 34.6249 26.1173 34.0681 25.1687 34.5249L25.1685 34.525ZM23.1457 33.797C22.741 33.754 22.3923 34.2823 21.8621 34.0538C21.7365 34.1965 21.6249 34.3394 21.4993 34.4822C22.6713 35.9383 23.2154 37.9944 24.1223 39.6932C24.6106 38.0515 24.5548 36.2668 24.6664 34.4822C23.9967 34.5107 23.6201 33.8399 23.1457 33.797ZM21.8482 32.0407C21.8063 32.5404 21.9179 32.6976 22.0155 33.2686C23.606 33.7826 23.341 31.0271 21.8482 32.0407ZM20.0763 31.4412C19.3927 31.0555 18.3603 30.6416 17.4674 30.4704C16.3653 30.2561 16.4768 32.0122 16.5187 33.0545C16.5606 33.8824 16.9792 34.7534 17.1606 35.3102C17.2442 35.5672 17.2721 35.8384 17.4814 35.8955C17.8581 35.9813 19.1137 35.4816 19.4625 35.2816C20.2159 34.8676 20.8018 34.1967 21.4437 33.7397C21.4576 33.5256 21.4576 33.2971 21.4715 33.083C21.0809 32.883 20.6484 32.7547 20.0763 32.7262C20.4531 32.5262 21.0251 32.5262 21.3738 32.2978C21.3738 32.2121 21.3738 32.1265 21.3878 32.0407C20.746 31.9694 20.5088 31.6839 20.0763 31.4412ZM13.5192 30.2276C12.9472 30.8272 15.1235 31.6268 15.8073 31.6696C15.8073 31.2984 16.0165 30.9416 15.9746 30.6702C15.1515 30.5275 14.0773 30.6273 13.5192 30.2276ZM20.5508 30.4989C20.5508 30.556 20.4809 30.5417 20.467 30.5846C21.2065 31.1699 21.7504 31.2983 22.741 31.2413C23.1876 30.913 23.5921 30.5132 24.0665 30.199C22.9782 30.299 21.6111 30.9843 20.5508 30.4989ZM26.9963 32.4977C26.9684 31.8409 26.8008 30.4846 26.3963 30.2419C25.5593 29.7422 24.0804 31.2555 23.4526 31.484C23.5223 31.6839 23.634 31.8409 23.6479 32.0978C24.0247 31.998 24.471 32.0694 24.7919 32.2263C24.4152 32.2692 24.0107 32.2692 23.7595 32.4548C23.6757 32.726 23.7874 33.083 23.7176 33.4542C24.5966 33.7112 25.6151 33.8397 26.7312 33.8824C26.9404 33.597 27.0241 33.0544 26.9963 32.4977ZM12.5565 30.7987C12.3751 30.6702 11.1614 29.0568 10.994 29.1282C8.80362 30.0135 6.75277 31.5412 4.92506 32.9973C6.66897 36.8378 7.38057 41.535 7.50613 46.0607C9.5013 47.0173 11.259 48.4022 13.9795 48.5449C13.6587 46.275 13.3797 44.2332 13.1983 42.0917C12.5147 41.7919 11.5381 42.106 10.8964 42.006C10.8964 41.2209 11.8729 41.6635 11.9565 41.1353C12.0125 40.7354 11.4124 40.7069 11.6078 40.0787C12.1101 40.2643 12.3751 40.6783 12.9053 40.8354C13.3936 39.7504 12.9053 37.823 12.9751 36.9092C12.9891 36.738 13.0587 35.9669 13.4354 36.0954C13.7703 36.2096 13.4215 38.1656 13.4495 39.0222C13.4773 39.8217 13.3517 40.5784 13.6726 41.0781C16.2956 40.7069 18.9603 40.4784 21.8063 40.3928C21.1785 40.1216 20.439 39.8646 19.6299 39.3934C19.1834 39.1364 17.8023 38.6082 17.6767 38.1799C17.4674 37.4945 18.2068 37.1377 18.3324 36.5522C17.007 37.2947 16.7559 35.8386 16.4351 34.8248C16.156 33.8967 15.9886 33.1973 15.9189 32.6689C14.7609 32.0694 13.5331 31.5125 12.5565 30.7987ZM25.8382 29.3138C27.6659 28.4145 28.0007 32.6976 27.2752 34.0824C27.3868 34.4964 27.7635 34.6535 27.9171 35.0246C26.8985 36.895 25.7686 38.6367 24.7221 40.4784C25.4895 39.9787 26.6057 40.3928 27.5124 40.0216C27.8473 39.8931 28.0845 39.1079 28.3356 38.4797C29.033 36.7665 29.7586 34.5963 30.0796 32.9689C30.1493 32.5977 30.3585 31.7837 30.3027 31.4554C30.219 30.8558 29.4377 30.4132 29.033 30.0563C28.2937 29.3709 27.8333 28.7858 27.0519 28.1432C26.7591 28.6144 26.0894 28.9283 25.8382 29.314V29.3138ZM8.38504 12.7383C7.52005 13.7235 7.70142 15.5509 7.79914 16.8643C9.3756 15.8508 11.4544 16.9501 11.4404 18.6633C12.1937 18.6489 11.7195 17.7068 11.58 17.0928C11.1334 15.1083 12.3333 12.9668 11.6357 11.1537C10.2825 11.2678 9.1803 11.8245 8.38504 12.7383ZM14.6073 7.04187C12.6403 7.61295 10.115 9.08346 9.30586 10.8966C9.93366 10.7967 10.3662 10.4826 10.98 10.4397C11.2172 10.4255 11.5242 10.5397 11.7892 10.4683C12.3193 10.3256 12.7798 9.0977 13.1843 8.64087C13.575 8.19828 14.0493 7.99842 14.3703 7.59871C14.5795 7.49871 14.8863 7.49871 14.9004 7.18461C14.8167 7.08461 14.719 7.01339 14.6073 7.04187ZM24.8616 7.58432C22.8109 6.39943 19.3509 5.51425 17.1745 6.62777C15.4165 7.5272 13.0449 9.01195 12.2356 10.8825C12.989 12.6954 12.0125 14.3515 11.9426 16.1932C11.9148 17.1784 12.3892 18.0209 12.4309 19.0917C12.1659 19.5342 11.3846 19.577 10.8406 19.5485C10.6592 18.606 10.3383 17.5496 9.38952 17.4354C8.05026 17.2784 7.05971 18.4206 7.00389 19.6056C6.93415 21.0048 8.05026 23.3176 9.64064 23.1606C10.2545 23.1035 10.4081 22.4753 11.0776 22.4753C11.4404 23.2177 10.5197 23.446 10.422 23.9742C10.394 24.1171 10.4917 24.6453 10.5615 24.9023C10.8545 26.1158 11.4962 27.7006 12.124 28.6286C12.9332 29.8135 14.5098 29.9849 16.2118 30.0991C16.5187 29.4281 17.6348 29.4852 18.3602 29.6565C17.4814 29.2997 16.6722 28.443 16.0026 27.6863C15.2351 26.8154 14.4539 25.8875 14.412 24.7453C15.877 26.8154 17.0768 28.6286 19.7276 29.5424C21.7365 30.2276 24.0804 29.2282 25.629 28.1147C26.2707 27.6577 26.6474 26.9154 27.1079 26.2586C28.8099 23.7459 29.6052 20.1765 29.4377 16.7073C29.368 15.2797 29.368 13.8519 28.8936 12.8954C28.4054 11.896 26.7451 10.9823 25.7685 11.896C25.5871 10.9109 26.5777 10.3112 27.7355 10.6682C26.9126 9.56892 26.0476 8.26964 24.8616 7.58432ZM28.6843 39.8646C30.2888 39.0508 33.2744 37.6801 34.2649 39.8646C34.6417 40.6783 35.0741 42.0347 35.2555 42.877C35.5205 44.0478 34.9625 46.5319 33.7766 46.9173C32.7302 47.26 31.5165 47.2458 30.2609 46.9888C30.1074 46.8603 29.954 46.646 29.8284 46.4176C28.9356 46.3891 28.0845 46.4606 27.3868 46.846C27.4566 47.5312 27.0102 47.6312 26.5777 47.7741C26.2707 49.0446 27.2055 50.7007 26.9823 51.8429C26.8288 52.6709 25.8382 52.7994 25.1129 52.9422C25.0849 53.3991 25.1407 53.7846 25.1965 54.1701C25.0292 54.7983 24.2896 55.1551 23.5782 55.2409C21.2484 55.5263 17.7186 55.6548 15.4864 54.8268C14.8585 53.2564 14.3703 51.3576 13.854 49.573C11.6776 49.8155 9.90582 48.6163 8.24556 47.8168C7.67358 47.5456 6.87833 47.3885 6.65505 46.9174C6.44583 46.4606 6.52949 45.5896 6.47367 44.7758C6.34811 42.6771 6.22255 40.6498 5.69247 38.5082C5.45527 37.5374 5.02278 36.6951 4.72976 35.7672C4.4508 34.9105 3.9764 33.8397 3.85084 32.983C3.66946 31.7125 4.8414 31.641 5.58083 31.0842C6.73885 30.2276 7.64561 29.7564 8.9012 28.9855C9.27802 28.7571 10.394 28.186 10.5196 27.9147C10.7708 27.3866 10.0872 26.6442 9.90582 26.2301C9.6128 25.5734 9.45926 25.0166 9.4175 24.374C8.37112 24.2027 7.56195 23.5603 7.08769 22.8465C6.29229 21.6472 5.73423 19.4342 6.43191 17.7639C6.48773 17.6354 6.75277 17.364 6.79467 17.1642C6.87833 16.7645 6.64113 16.2361 6.62721 15.8079C6.55747 13.6235 6.98997 11.7389 8.42694 11.0822C9.01284 8.69799 11.1055 7.91281 13.0728 6.72777C13.8122 6.28518 14.6214 5.99972 15.4584 5.68547C18.4579 4.5577 23.0759 4.7718 25.5732 6.69914C26.6335 7.51295 28.3216 9.24044 28.9215 10.4968C30.5258 13.7948 30.4004 19.32 29.2843 23.3462C29.1308 23.8886 28.9215 24.6738 28.6146 25.3306C28.4054 25.7875 27.7496 26.6869 27.8193 27.0866C27.9031 27.5007 29.3262 28.6 29.6331 28.8999C30.1773 29.4423 31.2235 30.1563 31.3072 30.8416C31.4049 31.5696 31.0004 32.5691 30.7912 33.2686C30.1213 35.6101 29.4518 37.7659 28.6843 39.8646Z" fill="#231F20"></path>
    <path d="M18.0104 23.6448C18.0941 23.5306 18.5683 23.3451 19.238 23.6734C19.238 23.6734 18.4428 23.8019 18.5125 25.1583L18.1777 25.0868C18.1918 25.1012 17.843 23.8733 18.0104 23.6448Z" fill="#F7E4CD"></path>
    <path d="M23.7861 35.2384C23.7861 35.4383 23.6187 35.6096 23.4233 35.6096C23.228 35.6096 23.0605 35.4383 23.0605 35.2384C23.0605 35.0384 23.228 34.8672 23.4233 34.8672C23.6327 34.8672 23.7861 35.0384 23.7861 35.2384ZM24.1488 36.9659C24.1488 37.1659 23.9815 37.3371 23.7861 37.3371C23.5908 37.3371 23.4233 37.1659 23.4233 36.9659C23.4233 36.7659 23.5908 36.5947 23.7861 36.5947C23.9954 36.5947 24.1488 36.7518 24.1488 36.9659Z" fill="#1D1919"></path>
  </g>
  <defs>
    <clipPath id="clip0_5451_20821">
      <rect width="36" height="60" fill="white"></rect>
    </clipPath>
  </defs>
</svg>
