<?xml version="1.0" encoding="UTF-8"?>
<svg xmlns="http://www.w3.org/2000/svg" width="54" height="60" viewBox="0 0 54 60" fill="none">
  <g clip-path="url(#clip0_5757_33822)">
    <path d="M45.411 29.7492C45.3377 29.7942 42.9228 29.3863 39.8964 29.1804C37.3344 29.0167 34.7648 29.0167 32.2028 29.1804C30.3045 29.3168 27.8042 28.3497 27.5059 29.4914C26.3886 33.7674 23.9804 37.4925 20.9282 40.3936C18.6987 42.5371 16.0499 44.1903 13.1506 45.248C9.76078 43.4967 8.15943 39.6012 9.60349 36.1858C10.7493 33.4755 12.0821 30.4925 9.62112 29.8092C7.82994 29.3127 6.84688 31.0368 6.15807 32.8849C4.83739 36.419 2.33027 40.0786 1.6157 44.4133C0.8618 48.9881 1.6157 53.8452 5.5479 56.5868C14.7086 62.9743 24.653 52.6312 35.1384 50.0274C38.935 49.0835 43.1086 49.2363 46.4564 47.2858C47.6654 46.5929 48.708 45.6408 49.5101 44.4971C50.3123 43.3533 50.8543 42.0459 51.0977 40.6678C51.853 36.2826 49.5859 31.9302 45.411 29.7492Z" fill="#C21325"></path>
    <path fill-rule="evenodd" clip-rule="evenodd" d="M30.852 27.7667C31.3358 27.818 31.753 27.8425 32.1063 27.8171L32.1116 27.8167L32.1169 27.8164C34.7361 27.649 37.3631 27.649 39.9823 27.8164L39.985 27.8166L39.9878 27.8167C41.5354 27.9221 42.9226 28.0787 43.9258 28.2022C44.1924 28.2351 44.4907 28.2731 44.7324 28.3039C44.876 28.3223 44.9996 28.338 45.0846 28.3486L45.3568 28.1813L46.0356 28.5359C50.6894 30.967 53.2996 35.879 52.4345 40.9014L52.434 40.9043L52.4335 40.9072C52.1552 42.4831 51.5354 43.978 50.6183 45.2857C49.7021 46.592 48.5118 47.6795 47.1317 48.4713C45.2415 49.5715 43.1652 50.052 41.1878 50.3824C40.5088 50.4959 39.8553 50.5905 39.2184 50.6828C37.9215 50.8706 36.6941 51.0484 35.4635 51.3543L35.4632 51.3544C32.9833 51.9702 30.4991 53.0537 27.9679 54.2806C27.1954 54.6551 26.4117 55.0466 25.6231 55.4405C23.8759 56.3133 22.1045 57.1982 20.3765 57.937C15.3261 60.0962 9.95609 61.3227 4.77569 57.7106C0.206894 54.5251 -0.512489 48.9816 0.277231 44.1895C0.665198 41.836 1.53347 39.7027 2.43052 37.77C2.72357 37.1386 3.01346 36.5401 3.29301 35.963C3.89715 34.7157 4.45302 33.5681 4.88812 32.4039C5.24255 31.453 5.7358 30.3433 6.48421 29.5354C6.87316 29.1155 7.36762 28.7362 7.98715 28.5255C8.62035 28.3101 9.29549 28.3014 9.98108 28.4914L9.98167 28.4916C10.8972 28.7458 11.6309 29.2776 12.0363 30.1117C12.4109 30.8824 12.4102 31.7221 12.3075 32.434C12.1204 33.7309 11.4852 35.228 10.9611 36.4635C10.924 36.5508 10.8875 36.6367 10.8518 36.7213C9.78838 39.2364 10.7969 42.1808 13.2653 43.7428C15.7625 42.7469 18.0469 41.2745 19.9915 39.4049L19.9943 39.4022L19.9971 39.3996C22.8906 36.6492 25.1495 33.1401 26.1938 29.1435C26.4386 28.2064 27.1811 27.7927 27.79 27.6494C28.3265 27.5232 28.9175 27.5559 29.3766 27.5977C29.6314 27.621 29.9599 27.6609 30.2692 27.6985C30.4829 27.7244 30.6874 27.7493 30.852 27.7667ZM28.694 30.2943C27.4563 34.656 24.9644 38.4354 21.8623 41.3849C19.4971 43.6581 16.6876 45.4113 13.6126 46.5331L13.0571 46.7358L12.5314 46.4642C8.5834 44.4244 6.60026 39.8009 8.35522 35.6502C8.36829 35.6193 8.3813 35.5885 8.3943 35.5578C8.98209 34.1677 9.48788 32.9715 9.62218 32.0408C9.68827 31.5828 9.63101 31.3792 9.59917 31.3137C9.59914 31.3136 9.59908 31.3134 9.59899 31.3132C9.59632 31.3051 9.56525 31.2115 9.26116 31.1269M28.694 30.2943C28.8043 30.2959 28.9479 30.3033 29.1321 30.3201C29.3856 30.3432 29.6068 30.3707 29.8528 30.4014C30.0616 30.4273 30.2884 30.4556 30.568 30.4852C31.0945 30.541 31.6996 30.5862 32.2937 30.5441C34.7958 30.3844 37.3056 30.3845 39.8077 30.5442C41.2855 30.6448 42.6179 30.795 43.5965 30.9155C43.9091 30.954 44.1341 30.9829 44.335 31.0086C44.4875 31.0282 44.6262 31.0459 44.7787 31.0648C44.8689 31.076 44.9547 31.0863 45.0315 31.0947C48.5661 33.0623 50.3909 36.7678 49.7615 40.4309C49.5528 41.6104 49.0887 42.7293 48.402 43.7084C47.7148 44.6883 46.8215 45.5041 45.7855 46.0979L45.7813 46.1003L45.7771 46.1027C44.3205 46.9513 42.6377 47.3693 40.7437 47.6858C40.1893 47.7784 39.6027 47.8637 38.9991 47.9514C37.6303 48.1504 36.1748 48.362 34.8133 48.7005C32.0506 49.3866 29.3598 50.5724 26.7913 51.8175C25.9525 52.2241 25.1333 52.6334 24.3271 53.0362C22.6192 53.8897 20.9697 54.7138 19.3163 55.4207C14.483 57.4871 10.3004 58.2383 6.32011 55.463C3.02454 53.1653 2.23609 48.9945 2.95415 44.6372C3.28076 42.6559 4.02336 40.792 4.88867 38.9277C5.13643 38.394 5.40028 37.8489 5.66672 37.2985C6.29925 35.9917 6.94643 34.6548 7.42786 33.3665L7.42829 33.3653C7.76264 32.4682 8.10527 31.792 8.46821 31.4002C8.63502 31.2201 8.76522 31.146 8.8553 31.1153C8.9317 31.0893 9.05109 31.0687 9.26096 31.1269" fill="white"></path>
    <path fill-rule="evenodd" clip-rule="evenodd" d="M7.98843 28.5255C8.62164 28.3101 9.29681 28.3014 9.98244 28.4914L9.98303 28.4916C10.8985 28.7458 11.6323 29.2776 12.0376 30.1117C12.4122 30.8824 12.4116 31.7221 12.3089 32.434C12.1217 33.7309 11.4866 35.228 10.9624 36.4634C10.9254 36.5507 10.8889 36.6367 10.8532 36.7213C9.7896 39.2367 10.7975 42.181 13.2653 43.7428C15.7627 42.7463 18.0469 41.273 19.9912 39.4025L19.9941 39.3997L19.9971 39.3969C22.8906 36.6465 25.1495 33.1374 26.1938 29.1408L28.818 29.8365C27.628 34.3906 25.0719 38.3305 21.8624 41.3821C19.4976 43.6564 16.6881 45.4106 13.6128 46.533L13.0571 46.7358L12.5314 46.4642C8.58299 44.4242 6.60179 39.8005 8.35657 35.6502C8.36965 35.6193 8.38266 35.5885 8.39565 35.5578C8.98345 34.1677 9.48924 32.9715 9.62353 32.0408C9.68962 31.5828 9.63237 31.3792 9.60053 31.3137C9.60049 31.3136 9.60044 31.3134 9.60034 31.3132C9.59768 31.3051 9.56661 31.2115 9.26252 31.1269M7.98843 28.5255C7.36889 28.7361 6.87429 29.1153 6.4852 29.5352L7.98843 28.5255ZM6.4852 29.5352C5.73656 30.3432 5.24336 31.4527 4.88938 32.4041L6.4852 29.5352ZM4.88938 32.4041C4.45414 33.5674 3.8986 34.7141 3.29492 35.9602C3.01481 36.5383 2.72434 37.1379 2.43071 37.7704C1.53348 39.7033 0.665228 41.8366 0.277254 44.1893L0.277231 44.1895C-0.512489 48.9816 0.206894 54.5251 4.77569 57.7106C9.95609 61.3227 15.3261 60.0962 20.3765 57.937C22.1045 57.1982 23.8759 56.3133 25.6231 55.4405C26.4117 55.0466 27.1954 54.6551 27.9679 54.2806C30.4991 53.0537 32.9833 51.9702 35.4632 51.3544L35.4635 51.3543C36.6941 51.0484 37.9215 50.8706 39.2184 50.6828C39.8553 50.5905 40.5088 50.4959 41.1878 50.3824C43.1652 50.052 45.2415 49.5715 47.1317 48.4713C48.5118 47.6795 49.7021 46.592 50.6183 45.2857C51.5354 43.978 52.1552 42.4831 52.4335 40.9072L52.434 40.9046L52.4345 40.902C53.3011 35.8823 50.691 30.9664 46.0354 28.5419L44.7892 30.9701C48.4827 32.8935 50.4069 36.6869 49.7614 40.4314C49.5526 41.6107 49.0886 42.7294 48.402 43.7084C47.7148 44.6883 46.8215 45.5041 45.7855 46.0979L45.7813 46.1003L45.7771 46.1027C44.3205 46.9513 42.6377 47.3693 40.7437 47.6858C40.1893 47.7784 39.6027 47.8637 38.9991 47.9514C37.6303 48.1504 36.1748 48.362 34.8133 48.7005C32.0506 49.3866 29.3598 50.5724 26.7913 51.8175C25.9525 52.2241 25.1333 52.6334 24.3271 53.0362C22.6192 53.8897 20.9697 54.7138 19.3163 55.4207C14.483 57.4871 10.3004 58.2383 6.32011 55.463C3.02454 53.1653 2.23609 48.9945 2.95415 44.6372M8.46891 31.4004C8.10602 31.792 7.7634 32.468 7.42995 33.3645L7.42951 33.3657L7.42906 33.3669C6.94758 34.654 6.30074 35.99 5.66849 37.2959C5.40148 37.8474 5.13707 38.3935 4.88882 38.9283C4.02336 40.7927 3.28077 42.6566 2.95415 44.6372M8.46891 31.4004C8.63575 31.2203 8.76607 31.1461 8.85635 31.1154L8.46891 31.4004ZM8.85635 31.1154C8.93295 31.0893 9.05248 31.0688 9.26232 31.1269L8.85635 31.1154Z" fill="white"></path>
    <path d="M35.9154 12.4362L43.2808 27.5504L52.1079 1.36479H19.7025L28.5079 27.5041L35.9154 12.4362Z" fill="#C21325"></path>
    <path fill-rule="evenodd" clip-rule="evenodd" d="M17.8093 -0.00195312H54.0015L43.5097 31.1218L35.91 15.5268L28.2733 31.061L17.8093 -0.00195312ZM21.5957 2.73153L28.7425 23.9471L35.9207 9.34557L43.0518 23.979L50.2143 2.73153H21.5957Z" fill="white"></path>
    <path d="M26.9798 35.1273C30.0464 35.1273 32.5323 32.6266 32.5323 29.5418C32.5323 26.4571 30.0464 23.9563 26.9798 23.9563C23.9132 23.9563 21.4272 26.4571 21.4272 29.5418C21.4272 32.6266 23.9132 35.1273 26.9798 35.1273Z" fill="#C21325"></path>
    <path fill-rule="evenodd" clip-rule="evenodd" d="M26.9798 25.3231C24.6607 25.3231 22.784 27.2137 22.784 29.5418C22.784 31.87 24.6607 33.7606 26.9798 33.7606C29.2988 33.7606 31.1755 31.87 31.1755 29.5418C31.1755 27.2137 29.2988 25.3231 26.9798 25.3231ZM20.0704 29.5418C20.0704 25.7004 23.1656 22.5896 26.9798 22.5896C30.7939 22.5896 33.8891 25.7004 33.8891 29.5418C33.8891 33.3832 30.7939 36.4941 26.9798 36.4941C23.1656 36.4941 20.0704 33.3832 20.0704 29.5418Z" fill="white"></path>
    <path d="M45.0652 35.1273C48.1318 35.1273 50.6177 32.6266 50.6177 29.5418C50.6177 26.4571 48.1318 23.9563 45.0652 23.9563C41.9986 23.9563 39.5126 26.4571 39.5126 29.5418C39.5126 32.6266 41.9986 35.1273 45.0652 35.1273Z" fill="#C21325"></path>
    <path fill-rule="evenodd" clip-rule="evenodd" d="M45.0652 25.3231C42.7461 25.3231 40.8694 27.2137 40.8694 29.5418C40.8694 31.87 42.7461 33.7606 45.0652 33.7606C47.3842 33.7606 49.2609 31.87 49.2609 29.5418C49.2609 27.2137 47.3842 25.3231 45.0652 25.3231ZM38.1559 29.5418C38.1559 25.7004 41.2511 22.5896 45.0652 22.5896C48.8793 22.5896 51.9745 25.7004 51.9745 29.5418C51.9745 33.3832 48.8793 36.4941 45.0652 36.4941C41.2511 36.4941 38.1559 33.3832 38.1559 29.5418Z" fill="white"></path>
    <path fill-rule="evenodd" clip-rule="evenodd" d="M45.0652 25.3231C42.7461 25.3231 40.8694 27.2137 40.8694 29.5418C40.8694 31.87 42.7461 33.7606 45.0652 33.7606C47.3842 33.7606 49.2609 31.87 49.2609 29.5418C49.2609 27.2137 47.3842 25.3231 45.0652 25.3231ZM38.1559 29.5418C38.1559 25.7004 41.2511 22.5896 45.0652 22.5896C48.8793 22.5896 51.9745 25.7004 51.9745 29.5418C51.9745 33.3832 48.8793 36.4941 45.0652 36.4941C41.2511 36.4941 38.1559 33.3832 38.1559 29.5418Z" fill="white"></path>
    <path d="M8.82519 35.1669C11.891 35.1669 14.3764 32.6668 14.3764 29.5828C14.3764 26.4987 11.891 23.9986 8.82519 23.9986C5.75935 23.9986 3.274 26.4987 3.274 29.5828C3.274 32.6668 5.75935 35.1669 8.82519 35.1669Z" fill="#C21325"></path>
    <path fill-rule="evenodd" clip-rule="evenodd" d="M8.82519 25.3654C6.5069 25.3654 4.63079 27.2554 4.63079 29.5828C4.63079 31.9101 6.5069 33.8001 8.82519 33.8001C11.1435 33.8001 13.0196 31.9101 13.0196 29.5828C13.0196 27.2554 11.1435 25.3654 8.82519 25.3654ZM1.91722 29.5828C1.91722 25.7421 5.01181 22.6319 8.82519 22.6319C12.6386 22.6319 15.7332 25.7421 15.7332 29.5828C15.7332 33.4234 12.6386 36.5336 8.82519 36.5336C5.01181 36.5336 1.91722 33.4234 1.91722 29.5828Z" fill="white"></path>
  </g>
  <defs>
    <clipPath id="clip0_5757_33822">
      <rect width="54" height="60" fill="white"></rect>
    </clipPath>
  </defs>
</svg>
