<?xml version="1.0" encoding="UTF-8"?>
<svg xmlns="http://www.w3.org/2000/svg" width="60" height="60" viewBox="0 0 60 60" fill="none">
  <path d="M4.51192 15.0843C-0.657923 22.5145 -0.0143295 32.1824 3.93489 40.078C4.02864 40.2674 4.12708 40.4535 4.22411 40.6396L4.4088 40.9954L4.52411 41.2002L4.72989 41.5687C4.8527 41.7848 4.97833 41.9999 5.10676 42.2151L5.32192 42.5695C5.46442 42.7996 5.6102 43.027 5.75926 43.2538L5.94583 43.5416C6.15161 43.8487 6.36208 44.1552 6.57958 44.4562L6.59786 44.4796L6.70473 44.624C6.8927 44.8832 7.0863 45.1391 7.28223 45.3923L7.49973 45.6688C7.67458 45.8887 7.85223 46.1071 8.03317 46.3246L8.23708 46.5684C8.47989 46.8543 8.72786 47.1388 8.98051 47.4177L8.99598 47.4332L9.02458 47.4651C9.27161 47.7346 9.52426 47.998 9.7802 48.2615L10.0225 48.5057C10.2208 48.7054 10.4224 48.9018 10.6258 49.0973L10.8729 49.3316C11.1447 49.588 11.4194 49.8393 11.6997 50.0849L11.7129 50.0952L11.8568 50.218C12.1038 50.4318 12.355 50.6441 12.6082 50.8523L12.9194 51.1002C13.1261 51.2662 13.3352 51.4293 13.5457 51.5896L13.8804 51.8441C14.1129 52.0152 14.3468 52.1835 14.583 52.348L14.839 52.5295L14.9093 52.5796C15.1333 52.7338 15.3625 52.8824 15.5918 53.031L15.8871 53.2279C16.2386 53.4501 16.5949 53.6699 16.9554 53.8823L17.2507 54.0487C17.5155 54.2015 17.7822 54.3515 18.0522 54.4982C18.1985 54.577 18.3485 54.6515 18.4957 54.727C18.6865 54.8268 18.8758 54.928 19.0699 55.0251L19.2025 55.0893L19.4374 55.2027C19.7379 55.3462 20.0407 55.4873 20.3468 55.6232L20.539 55.7095C20.8896 55.8627 21.243 56.0099 21.5997 56.1505L21.858 56.2523C22.188 56.3793 22.5227 56.5049 22.8588 56.623L22.9844 56.6666C23.3533 56.7955 23.7255 56.9151 24.1005 57.0318L24.37 57.1124C24.7516 57.2273 25.129 57.3646 25.5222 57.4373C50.5249 61.9968 57.7877 42.4124 57.7877 42.4124C51.6879 50.3591 40.8607 52.4554 30.6021 50.1215C30.2135 50.0338 29.8366 49.9124 29.4574 49.8004L29.1719 49.7137C28.8016 49.6002 28.4346 49.4807 28.0694 49.3551L27.918 49.3002C27.5908 49.1854 27.2679 49.064 26.9458 48.9398L26.673 48.8324C26.3205 48.6932 25.9699 48.5479 25.6235 48.396L25.414 48.3032C25.1163 48.1682 24.8219 48.0323 24.5285 47.8912L24.2725 47.7684C24.0424 47.6563 23.8146 47.5373 23.5877 47.4201C23.4358 47.3399 23.2811 47.2645 23.1307 47.181C22.8532 47.0324 22.5813 46.8782 22.3099 46.7207L22.0329 46.566C21.6724 46.3541 21.3166 46.1343 20.9641 45.9112L20.6758 45.719C20.4204 45.5545 20.1658 45.3866 19.915 45.2132L19.6704 45.0412C19.4285 44.8701 19.189 44.6971 18.9513 44.5213L18.633 44.2804C18.415 44.114 18.1985 43.9462 17.9843 43.7732L17.695 43.5412C17.4222 43.3166 17.1532 43.0916 16.8869 42.8601L16.7983 42.7855C16.5105 42.5329 16.2283 42.2737 15.949 42.0135L15.7094 41.7834C15.5027 41.5865 15.2993 41.3882 15.0991 41.1848L14.86 40.9462C14.6055 40.6855 14.3557 40.4216 14.111 40.154L14.074 40.1146C13.8152 39.8315 13.5621 39.5423 13.3141 39.2502L13.1154 39.014C12.9307 38.7913 12.7474 38.5659 12.5683 38.338L12.3682 38.0887C12.153 37.8093 11.9425 37.5313 11.7368 37.2477C6.04145 29.4787 3.99489 18.764 8.54692 9.96461M20.5605 8.82367C16.8213 14.204 17.0247 21.4068 19.9413 27.097C20.4302 28.0509 20.98 28.9766 21.595 29.8574C22.1552 30.6604 22.7763 31.6157 23.5197 32.2607C23.7893 32.5574 24.071 32.8471 24.3588 33.1316L24.58 33.3496C24.8594 33.6205 25.143 33.8868 25.4369 34.1455L25.4716 34.1755L25.48 34.184C25.8049 34.469 26.14 34.7423 26.4808 35.0123L26.7082 35.1895C27.0499 35.4515 27.3982 35.7084 27.7549 35.954L27.7854 35.977C27.9429 36.0857 28.1032 36.187 28.263 36.292L28.4894 36.4415C28.7444 36.6051 29.0027 36.7645 29.2652 36.9173L29.3754 36.981C29.6018 37.1113 29.831 37.2398 30.0611 37.3645L30.3054 37.4915C30.4643 37.5745 30.6232 37.6593 30.7849 37.7399L30.8575 37.7727C31.1871 37.9349 31.5194 38.0915 31.8588 38.2391L32.08 38.3301C32.3515 38.4454 32.6257 38.5579 32.9004 38.6629L33.2519 38.7918C33.5018 38.8846 33.7525 38.969 34.0052 39.0538L34.346 39.163C34.7055 39.2746 35.0608 39.4157 35.4354 39.478C54.7399 42.6763 59.1968 27.8127 59.1968 27.8127C55.1796 33.5985 47.3993 36.3595 39.0972 34.2041C38.7283 34.1071 38.365 34.0021 38.0036 33.8882L37.675 33.7818C37.4182 33.6988 37.1632 33.6107 36.9105 33.5184L36.5655 33.3899C36.288 33.283 36.0143 33.1734 35.7424 33.058L35.5207 32.9643C35.1799 32.8162 34.8443 32.6596 34.5138 32.496C34.3436 32.413 34.1763 32.3254 34.0085 32.2391L33.7169 32.0891C33.5022 31.9729 33.2885 31.852 33.078 31.7282L32.9252 31.6415C32.6636 31.4891 32.4063 31.3316 32.1513 31.169L31.9179 31.0134C31.7496 30.9046 31.5818 30.7935 31.4168 30.682C31.061 30.4363 30.7146 30.1795 30.3733 29.9188L30.1385 29.7337C26.5047 26.8649 23.6238 22.9434 22.2546 18.4973C20.8193 13.8866 21.1286 8.7107 23.6154 4.50977M34.0582 4.14648C31.8541 7.39023 31.6375 11.4187 33.1671 15.0009C34.78 18.8038 38.0847 21.7865 41.9421 23.2016C42.101 23.2602 42.2604 23.3127 42.4211 23.3676L42.6325 23.4346C42.8599 23.5059 43.0854 23.5888 43.3202 23.6334C53.9796 25.693 56.8708 18.1635 57.64 17.0549C55.1079 20.7013 50.8516 21.5765 45.6293 20.309C45.2168 20.2091 44.7635 20.0601 44.366 19.919C43.856 19.7371 43.3535 19.5299 42.8655 19.296C41.9383 18.8502 41.0543 18.3098 40.2349 17.691C35.5619 14.1449 32.659 7.38133 35.7082 1.87305" fill="#0868AC"></path>
</svg>
