<?xml version="1.0" encoding="UTF-8"?>
<svg xmlns="http://www.w3.org/2000/svg" width="60" height="60" viewBox="0 0 60 60" fill="none">
  <g clip-path="url(#clip0_5757_33697)">
    <path d="M29.9491 44.6621C43.2234 62.7577 56.2141 39.6113 56.1949 25.6918C56.1727 9.23492 39.4922 0.0371094 29.9384 0.0371094C14.6037 0.036875 0 12.7102 0 30.0502C0 49.3238 16.7402 59.9996 29.9384 59.9996C26.9517 59.5695 16.9985 57.437 16.8649 34.512C16.7747 19.0072 21.9227 12.8124 29.9168 15.5375C30.0959 15.6038 38.7345 19.0116 38.7345 30.1438C38.7345 41.2288 29.9491 44.6621 29.9491 44.6621Z" fill="url(#paint0_linear_5757_33697)"></path>
    <path d="M29.9341 15.5251C21.1629 12.5019 10.418 19.7312 10.418 34.2109C10.418 57.854 27.9382 59.9999 30.0621 59.9999C45.3968 59.9999 60.0005 47.3263 60.0005 29.9865C60.0005 10.713 43.2602 0.0371735 30.0621 0.0371735C33.7177 -0.469076 49.7648 3.99342 49.7648 25.9258C49.7648 40.2287 37.7827 48.0151 29.9892 44.6884C29.8102 44.6221 21.1713 41.2143 21.1713 30.0822C21.1713 18.9969 29.9341 15.5251 29.9341 15.5251Z" fill="url(#paint1_linear_5757_33697)"></path>
  </g>
  <defs>
    <linearGradient id="paint0_linear_5757_33697" x1="887.374" y1="883.704" x2="5369.33" y2="4820.08" gradientUnits="userSpaceOnUse">
      <stop></stop>
      <stop offset="1" stop-color="white"></stop>
    </linearGradient>
    <linearGradient id="paint1_linear_5757_33697" x1="4082.93" y1="5114.21" x2="-768.14" y2="1801.46" gradientUnits="userSpaceOnUse">
      <stop></stop>
      <stop offset="1" stop-color="white"></stop>
    </linearGradient>
    <clipPath id="clip0_5757_33697">
      <rect width="60" height="60" fill="white"></rect>
    </clipPath>
  </defs>
</svg>
