<?xml version="1.0" encoding="UTF-8"?>
<svg xmlns="http://www.w3.org/2000/svg" width="60" height="60" viewBox="0 0 60 60" fill="none">
  <g clip-path="url(#clip0_5757_33551)">
    <path d="M53.5478 37.9242C53.5448 39.1138 53.071 40.2538 52.2298 41.095C51.3886 41.9361 50.2486 42.41 49.0591 42.413H11.3247C10.1351 42.41 8.9951 41.9361 8.15394 41.095C7.31278 40.2538 6.83891 39.1138 6.83594 37.9242V23.6255C6.83891 22.4359 7.31278 21.2959 8.15394 20.4547C8.9951 19.6136 10.1351 19.1397 11.3247 19.1367H49.0591C50.2486 19.1397 51.3886 19.6136 52.2298 20.4547C53.071 21.2959 53.5448 22.4359 53.5478 23.6255V37.9242Z" fill="url(#paint0_linear_5757_33551)"></path>
    <path d="M45.6541 30.468C46.4764 30.6355 47.2173 31.0778 47.755 31.7222C48.2927 32.3665 48.5952 33.1746 48.6128 34.0137C48.6321 34.517 48.531 35.0177 48.3181 35.4743C48.1052 35.9308 47.7865 36.3299 47.3884 36.6387C46.3776 37.3747 45.1462 37.7443 43.8972 37.6868C42.42 37.6702 40.9722 37.271 39.6953 36.528C39.7216 36.0957 39.8231 35.6712 39.9953 35.2737C40.1453 34.8761 40.3678 34.5099 40.6516 34.1937C41.5952 34.7406 42.6545 35.0572 43.7434 35.118C44.0754 35.1373 44.4063 35.0646 44.6997 34.908C44.8011 34.8533 44.8857 34.7721 44.9445 34.673C45.0033 34.5739 45.034 34.4608 45.0334 34.3455C45.0334 33.9043 44.6922 33.5737 44.0097 33.3537L42.7853 32.8905C40.9328 32.2155 40.0066 31.1143 40.0066 29.5868C39.9852 29.0844 40.0794 28.5838 40.2819 28.1235C40.4844 27.6632 40.7899 27.2555 41.1747 26.9318C42.0443 26.1635 43.1606 25.7324 44.3209 25.7168C45.0478 25.7263 45.7713 25.8188 46.4772 25.9924C47.1566 26.2056 47.8066 26.5029 48.4122 26.8774C48.4324 27.3412 48.3491 27.8036 48.1684 28.2312C48.0341 28.64 47.7871 29.0026 47.4559 29.2774C46.486 28.7901 45.427 28.5056 44.3434 28.4412C44.1007 28.4244 43.86 28.4948 43.6647 28.6399C43.5899 28.701 43.5301 28.7784 43.4898 28.8661C43.4495 28.9539 43.4298 29.0497 43.4322 29.1462C43.4322 29.4987 43.7141 29.7774 44.2778 29.9824L45.6578 30.468H45.6541Z" fill="#F6F6F6"></path>
    <path d="M35.8103 30.468C36.6323 30.6359 37.3728 31.0783 37.9101 31.7227C38.4475 32.367 38.7497 33.1749 38.7672 34.0137C38.7865 34.5169 38.6857 35.0174 38.4731 35.4739C38.2605 35.9304 37.9423 36.3296 37.5447 36.6387C36.5337 37.3742 35.3024 37.7439 34.0534 37.6868C32.5762 37.67 31.1286 37.2708 29.8516 36.528C29.8776 36.0956 29.9792 35.6711 30.1516 35.2737C30.3012 34.876 30.5238 34.5097 30.8078 34.1937C31.7514 34.7406 32.8107 35.0572 33.8997 35.118C34.2317 35.1374 34.5626 35.0648 34.8559 34.908C34.9572 34.8532 35.0417 34.7719 35.1004 34.6729C35.1592 34.5738 35.1901 34.4607 35.1897 34.3455C35.1897 33.9043 34.8484 33.5737 34.1659 33.3537L32.9416 32.8905C31.0891 32.2155 30.1628 31.1143 30.1628 29.5868C30.1413 29.0844 30.2354 28.5837 30.438 28.1234C30.6405 27.6631 30.946 27.2554 31.3309 26.9318C32.1999 26.1636 33.3156 25.7325 34.4753 25.7168C35.2022 25.7262 35.9257 25.8187 36.6316 25.9924C37.311 26.2056 37.961 26.5029 38.5666 26.8774C38.5868 27.3412 38.5035 27.8036 38.3228 28.2312C38.1885 28.64 37.9415 29.0026 37.6103 29.2774C36.6398 28.79 35.5801 28.5054 34.4959 28.4412C34.2532 28.4242 34.0124 28.4947 33.8172 28.6399C33.7425 28.7011 33.6828 28.7785 33.6425 28.8662C33.6022 28.9539 33.5825 29.0497 33.5847 29.1462C33.5847 29.4987 33.8666 29.7774 34.4303 29.9824L35.8103 30.468Z" fill="#F6F6F6"></path>
    <path d="M28.6196 30.6236C28.6263 29.9842 28.517 29.349 28.2971 28.7486C28.096 28.1977 27.7818 27.695 27.3746 27.273C26.961 26.8528 26.465 26.5228 25.9177 26.3036C25.3216 25.9823 24.6678 25.7822 23.994 25.7148C23.2153 25.7731 22.4595 26.0044 21.7815 26.3917C21.1745 26.6672 20.6413 27.0822 20.2252 27.603C19.8039 28.1424 19.4936 28.7599 19.3121 29.4198C19.1061 30.1621 19.0052 30.9296 19.0121 31.6998C19.0054 32.4921 19.0872 33.2826 19.2558 34.0567C19.3993 34.7334 19.6836 35.3722 20.0902 35.9317C20.4894 36.4651 21.017 36.8889 21.624 37.1636C22.3581 37.5074 23.159 37.6847 23.9696 37.683C25.5263 37.7068 27.0509 37.2397 28.3271 36.348C28.2529 35.5917 27.9343 34.8802 27.4196 34.3211C26.8965 34.5235 26.3595 34.6876 25.8127 34.8123C25.4089 34.9039 24.9967 34.9536 24.5827 34.9605C24.3037 34.9877 24.0221 34.9532 23.758 34.8592C23.4938 34.7652 23.2537 34.6141 23.0546 34.4167C22.7199 34.0107 22.5398 33.4992 22.5465 32.973H28.3271C28.5358 32.2077 28.6343 31.4166 28.6196 30.6236ZM22.5296 30.7755C22.5314 30.1286 22.6707 29.4894 22.9383 28.9005C23.056 28.7351 23.2142 28.6027 23.3978 28.5161C23.5813 28.4294 23.784 28.3913 23.9865 28.4055C24.1984 28.3926 24.4102 28.4344 24.6013 28.527C24.7924 28.6196 24.9565 28.7599 25.0777 28.9342C25.3334 29.4296 25.4586 29.982 25.4415 30.5392V30.783H22.5296V30.7755Z" fill="#F6F6F6"></path>
    <path d="M54.7116 32.2504C54.381 32.5478 54.1204 32.9147 53.9486 33.3248C53.7767 33.7349 53.6979 34.1781 53.7178 34.6223V38.4679C53.7598 39.0222 53.6649 39.5783 53.4416 40.0873C53.2183 40.5963 52.8734 41.0427 52.4372 41.3873C51.5393 42.0515 50.4529 42.4121 49.3359 42.4166H48.6366V40.4891C49.0596 40.3887 49.4461 40.1718 49.7522 39.8629C50.015 39.6102 50.2211 39.3045 50.3565 38.966C50.492 38.6275 50.5538 38.264 50.5378 37.8998V34.7929C50.4726 33.9377 50.6391 33.0808 51.0197 32.3123C51.5961 31.5758 52.3797 31.0286 53.2697 30.741C52.2025 30.328 51.3207 29.5428 50.7872 28.5304C50.5578 27.8265 50.4717 27.0837 50.5341 26.346V23.4998C50.5764 22.7761 50.3295 22.0652 49.8478 21.5235C49.5161 21.2025 49.0903 20.9961 48.6328 20.9348V19.1348C49.4672 19.1348 49.8872 19.1348 50.3728 19.1348C51.088 19.1841 51.7648 19.4766 52.2909 19.9635C52.8972 20.4483 53.3382 21.1094 53.5528 21.8554C53.6728 22.2822 53.7272 22.7247 53.7141 23.1679V26.4623C53.6843 26.9357 53.7522 27.4101 53.9134 27.8562C54.0747 28.3023 54.326 28.7105 54.6516 29.0554C55.1076 29.476 55.6561 29.7836 56.2528 29.9535V31.4423C55.6835 31.581 55.1561 31.855 54.7153 32.241L54.7116 32.2504Z" fill="#F6F6F6" stroke="#404040" stroke-width="6.25" stroke-miterlimit="10"></path>
    <path d="M10.4887 19.1367H9.8625C9.1472 19.1856 8.47025 19.4781 7.94438 19.9655C7.30672 20.4207 6.85784 21.0937 6.6825 21.8573C6.61527 22.2914 6.5914 22.7311 6.61125 23.1698V26.4642C6.62836 26.9443 6.54646 27.4228 6.37066 27.8699C6.19485 28.317 5.92891 28.7231 5.58937 29.063C5.03963 29.4769 4.41504 29.7806 3.75 29.9573V31.4442C4.39036 31.586 4.99475 31.8578 5.52562 32.243C5.86889 32.5348 6.14374 32.8985 6.33071 33.3084C6.51768 33.7183 6.61217 34.1643 6.6075 34.6148V38.4605C6.55009 39.008 6.62892 39.5612 6.83697 40.0708C7.04502 40.5805 7.37585 41.0308 7.8 41.3817C8.6977 42.0467 9.78411 42.4079 10.9013 42.413H11.6906V40.4892C11.2428 40.3843 10.8283 40.169 10.485 39.863C10.2369 39.6035 10.0467 39.2943 9.92678 38.956C9.80688 38.6176 9.76005 38.2576 9.78938 37.8998V34.7948C9.82967 33.9312 9.63184 33.0731 9.2175 32.3142C8.64104 31.5777 7.85746 31.0305 6.9675 30.743C8.03432 30.3302 8.91599 29.5458 9.45 28.5342C9.71504 27.8379 9.8319 27.0939 9.79313 26.3498V23.5017C9.72626 22.7907 9.93951 22.0816 10.3875 21.5255C10.6998 21.2703 11.0701 21.0959 11.4656 21.0173H12.2681V19.1367H10.4887Z" fill="#F6F6F6" stroke="#404040" stroke-width="6.25" stroke-miterlimit="10"></path>
    <path d="M17.8841 34.742H17.2841C16.6316 34.742 16.386 34.3988 16.386 33.7088V21.0357C16.4217 20.4571 16.2428 19.8856 15.8835 19.4307C15.6022 19.1232 15.1128 19.127 14.4153 19.127H13.0597H12.9003V34.3257C12.8387 35.1543 13.0725 35.9781 13.5603 36.6507C13.8433 36.9219 14.1819 37.1283 14.5526 37.2555C14.9234 37.3828 15.3173 37.4278 15.7072 37.3876C16.505 37.3784 17.3008 37.3044 18.0866 37.1663C18.1455 36.8518 18.1682 36.5316 18.1541 36.212C18.1519 35.7114 18.0618 35.2151 17.8878 34.7457L17.8841 34.742Z" fill="#F6F6F6"></path>
  </g>
  <defs>
    <linearGradient id="paint0_linear_5757_33551" x1="30.1928" y1="19.1367" x2="30.1928" y2="42.413" gradientUnits="userSpaceOnUse">
      <stop offset="0.15" stop-color="#2A4F84"></stop>
      <stop offset="0.388" stop-color="#294E82"></stop>
      <stop offset="1" stop-color="#172E4E"></stop>
    </linearGradient>
    <clipPath id="clip0_5757_33551">
      <rect width="60" height="60" fill="white"></rect>
    </clipPath>
  </defs>
</svg>
