<?xml version="1.0" encoding="UTF-8"?>
<svg xmlns="http://www.w3.org/2000/svg" width="66" height="60" viewBox="0 0 66 60" fill="none">
  <path fill-rule="evenodd" clip-rule="evenodd" d="M0.13307 0H6.25977V40.6591H30.4882V45.6718H0.132812V0H0.13307ZM47.1973 11.975C51.3746 11.418 55.8306 12.2534 59.1723 15.0384C62.7929 17.5447 64.7423 22.0004 65.0204 26.1778C65.5776 31.1905 65.0204 36.2034 62.2356 40.3808C59.7293 43.7225 55.8306 45.9505 51.3746 46.2288C47.1973 46.7858 42.4632 45.9505 38.8429 43.1655C35.5009 40.3808 33.8299 36.2034 33.2729 32.0261C32.7162 27.5701 33.2729 22.5574 36.0579 18.6587C38.2859 14.76 42.7416 12.2534 47.1973 11.975ZM48.0329 16.7094C50.8176 16.4307 53.881 17.2661 56.109 19.2157C58.0583 21.4434 59.1723 24.2284 59.4509 27.0131C59.7293 30.0767 59.4509 33.4185 58.0583 36.2034C56.6659 38.9882 54.1596 40.9378 51.0962 41.4945C48.3113 42.0515 45.2482 41.2161 43.2986 39.5452C41.0706 37.8742 39.6782 35.3678 39.1212 32.8615C38.5642 29.2411 38.8429 25.6208 40.2352 22.2791C41.6276 19.2157 44.6909 16.9877 48.0326 16.7091L48.0329 16.7094Z" fill="black"></path>
  <path fill-rule="evenodd" clip-rule="evenodd" d="M0.132812 52.9121H65.8557V59.8744H0.132812V52.9121Z" fill="#3492FF"></path>
</svg>
