<?xml version="1.0" encoding="UTF-8"?>
<svg xmlns="http://www.w3.org/2000/svg" width="60" height="60" viewBox="0 0 60 60" fill="none">
  <path d="M0 0V28.748H28.879V0H0Z" fill="#D03F42"></path>
  <path d="M8.03906 7.52539V28.7695H28.9008V7.52539H8.03906Z" fill="#DA773C"></path>
  <path d="M14.9961 14.6875V28.7889H28.9201V14.6875H14.9961Z" fill="#E39735"></path>
  <path d="M0 31.2539V59.9957H28.879V31.2539H0Z" fill="#3C68AC"></path>
  <path d="M8.03906 31.2266V52.4755H28.9008V31.2266H8.03906Z" fill="#467BC0"></path>
  <path d="M14.9961 31.207V45.3089H28.9201V31.207H14.9961Z" fill="#84ACDD"></path>
  <path d="M31.1211 0V28.748H60.0001V0H31.1211Z" fill="#7AB951"></path>
  <path d="M31.1016 7.52539V28.7695H51.9633V7.52539H31.1016Z" fill="#91BF4E"></path>
  <path d="M31.082 14.6875V28.7889H45.0051V14.6875H31.082Z" fill="#C5D743"></path>
  <path d="M31.1211 31.2539V59.9957H60.0001V31.2539H31.1211Z" fill="#ECB842"></path>
  <path d="M31.1016 31.2266V52.4755H51.9633V31.2266H31.1016Z" fill="#F3D332"></path>
  <path d="M31.082 31.207V45.3089H45.0051V31.207H31.082Z" fill="#F8E67A"></path>
</svg>
