<?xml version="1.0" encoding="UTF-8"?>
<svg xmlns="http://www.w3.org/2000/svg" width="56" height="60" viewBox="0 0 56 60" fill="none">
  <path d="M35.2918 28.0098L23.1262 31.9334L12.5424 36.5471L9.58137 37.3192C8.82727 38.0277 8.03657 38.7453 7.18138 39.4718C6.24346 40.271 5.3699 40.9977 4.69853 41.5244C3.95376 42.1057 2.85029 43.1956 2.28942 43.8857C1.45259 44.9211 0.790542 46.02 0.505464 46.8648C-0.000324696 48.3906 0.248073 49.9346 1.22276 51.3606C2.47332 53.177 4.96533 55.0297 7.87099 56.2922C9.35155 56.9372 11.8435 57.7636 13.7193 58.2267C16.8364 59.0078 22.8687 59.8525 26.1882 59.9797C26.8593 60.007 27.7606 60.007 27.7973 59.9797C27.8709 59.9342 28.3859 58.9625 28.9837 57.7546C31.0251 53.6402 32.4963 49.7802 33.2962 46.4834C33.7744 44.4854 34.1513 41.8242 34.3995 38.6727C34.464 37.7917 34.4915 34.84 34.4363 33.8408C34.3535 32.206 34.2064 30.8801 33.9767 29.5813C33.9399 29.3905 33.9305 29.2179 33.949 29.2089C33.9857 29.1817 34.096 29.1454 35.5949 28.7184L35.2916 28.0101V28.0098H35.2918V28.0098ZM32.5148 29.6174C32.6251 29.6174 32.9193 32.4057 32.9928 34.1677C33.0113 34.5401 33.002 34.7853 32.9836 34.7853C32.9101 34.7853 31.4296 33.9226 30.3723 33.2687C29.4527 32.6964 27.7056 31.552 27.4298 31.3341C27.3377 31.2705 27.3468 31.2615 28.101 31.0071C29.379 30.5801 32.4136 29.6174 32.5148 29.6174ZM26.317 31.6338C26.3999 31.6338 26.6112 31.7517 27.117 32.0606C29.0112 33.2322 31.586 34.6491 32.6894 35.1214C33.0296 35.2667 33.0663 35.2122 32.2848 35.739C30.6112 36.8652 28.5238 37.9732 25.9674 39.0903C25.5169 39.2902 25.14 39.4445 25.1308 39.4445C25.1125 39.4445 25.1675 39.2176 25.241 38.9451C25.8571 36.6834 26.2066 34.3947 26.2251 32.5601C26.2342 31.6518 26.2342 31.6518 26.317 31.6247C26.2986 31.6338 26.3077 31.6338 26.317 31.6338ZM25.0389 32.1151C25.0939 32.1695 25.0572 34.204 24.9836 34.758C24.8181 36.0841 24.5607 37.3192 24.1378 38.7089C24.0366 39.0447 23.9445 39.3265 23.9263 39.3446C23.8894 39.3899 22.6296 38.1729 22.2158 37.7007C21.4985 36.8832 20.9377 36.0658 20.5239 35.2666C20.3124 34.8579 19.9815 34.0587 20.009 34.0314C20.1561 33.9315 25.0021 32.0788 25.0389 32.1151ZM19.025 34.4492C19.0342 34.4492 19.0433 34.4492 19.0527 34.4582C19.071 34.4764 19.1355 34.6218 19.1906 34.7852C19.4848 35.5754 20.1467 36.7379 20.717 37.4827C21.3423 38.3002 22.1608 39.172 22.8411 39.7442C23.0619 39.9258 23.264 40.0983 23.2916 40.1256C23.3469 40.1802 23.3652 40.171 21.8663 40.7342C20.1286 41.3881 18.2342 42.042 16.064 42.7322C15.5456 42.8973 15.0277 43.0638 14.5102 43.2318C14.4273 43.2591 14.455 43.2136 14.694 42.8413C15.7699 41.1792 17.4066 37.9187 18.3262 35.6117C18.4825 35.2121 18.6388 34.8125 18.6665 34.7217C18.7033 34.5944 18.7492 34.5491 18.8687 34.4855C18.933 34.4675 18.9975 34.4492 19.025 34.4492ZM17.1861 35.203C17.2136 35.2213 16.7446 36.193 16.2849 37.0831C15.3929 38.7996 14.4182 40.489 13.1124 42.5416C12.8918 42.8957 12.6803 43.2228 12.6527 43.2591C12.6068 43.3227 12.5883 43.3045 12.4412 43.023C12.1286 42.4144 11.871 41.6333 11.7331 40.9158C11.5951 40.2073 11.6228 38.9722 11.7791 38.2093C11.8986 37.6463 11.8895 37.6553 12.1653 37.5191C13.3423 36.9287 17.1493 35.1667 17.1861 35.203ZM33.0481 35.8389V36.2203C33.0481 38.2457 32.8274 41.0248 32.5055 43.0503C32.4503 43.4044 32.4042 43.695 32.3951 43.7042C32.3951 43.7042 32.1285 43.6316 31.8158 43.5406C30.4366 43.1137 28.9377 42.4871 27.5859 41.7515C26.6938 41.2701 25.3974 40.4799 25.4342 40.4435C25.4433 40.4345 25.8296 40.2347 26.2801 39.9985C28.0826 39.0722 29.8112 38.0731 31.3101 37.0832C31.871 36.7107 32.7168 36.1114 32.9009 35.9479L33.0481 35.8389ZM10.2434 38.5271C10.2802 38.5271 10.271 38.5997 10.2158 38.9267C10.179 39.1629 10.1331 39.5989 10.1148 39.8985C10.0411 41.2245 10.2619 42.2055 10.924 43.5496C11.1079 43.922 11.2551 44.2308 11.2458 44.2398C11.1813 44.2944 5.09411 46.0564 3.18133 46.5741C2.61126 46.7284 2.1148 46.8647 2.07783 46.8736C2.01359 46.8919 2.00434 46.8829 2.0319 46.7283C2.24337 45.3933 3.27331 43.6495 4.70773 42.1781C5.6641 41.1973 6.42736 40.6251 7.73309 39.8893C8.67101 39.3627 10.1147 38.5726 10.225 38.5362C10.2251 38.5271 10.2343 38.5271 10.2434 38.5271ZM24.5883 41.0611C24.5975 41.052 24.8181 41.1702 25.0848 41.3245C27.0526 42.4507 29.7928 43.4952 32.1283 44.031L32.34 44.0765L32.0456 44.2398C30.8227 44.912 26.8043 46.5649 22.6941 48.0817C22.0962 48.2996 21.5078 48.5177 21.3973 48.563C21.287 48.6084 21.1858 48.6357 21.1858 48.6266C21.1858 48.6174 21.3514 48.2996 21.5628 47.9091C22.7122 45.7839 23.8709 43.1954 24.4594 41.3971C24.5331 41.2246 24.579 41.0702 24.5883 41.0611ZM23.1262 41.5334C23.1356 41.5427 23.0619 41.7332 22.9699 41.9512C22.1699 43.8675 21.1215 45.9566 19.7791 48.2998C19.4389 48.8993 19.1538 49.3806 19.1445 49.3806C19.1354 49.3806 18.8595 49.2171 18.5285 49.0173C16.5789 47.8365 14.8503 46.3834 13.7193 44.9756L13.5537 44.7758L14.3904 44.5487C17.3882 43.7405 19.9352 42.8686 22.4641 41.7969C22.8227 41.6515 23.1171 41.5334 23.1262 41.5334ZM32.2113 44.6668C32.2205 44.8757 31.7515 46.7467 31.3652 48.0998C31.0434 49.2351 30.7674 50.1253 30.2618 51.6964C30.0411 52.3868 29.8482 52.9588 29.8388 52.9588C29.8297 52.9588 29.7745 52.9498 29.7193 52.9317C26.9883 52.4411 24.5423 51.76 22.2435 50.8518C21.5997 50.5974 20.6802 50.1887 20.6251 50.1434C20.6067 50.125 21.1585 49.8709 21.8573 49.5711C26.0412 47.7638 30.3814 45.7111 31.871 44.8303C32.0457 44.7212 32.1837 44.6668 32.2113 44.6668ZM11.2366 45.3753C11.255 45.3934 10.0872 47.0555 8.4503 49.3169C7.88023 50.1071 7.21819 51.0335 6.96996 51.3786C6.72164 51.7237 6.34467 52.2687 6.13317 52.5957L5.74679 53.186L5.33297 52.8409C4.84559 52.4412 3.99972 51.5875 3.62271 51.1152C2.83184 50.1435 2.29862 49.1172 2.08711 48.1818C1.98594 47.7458 1.98594 47.5277 2.07778 47.5006C2.21568 47.4643 4.67088 46.8921 6.96987 46.3652C8.24804 46.0747 9.72839 45.7296 10.2617 45.6024C10.7951 45.475 11.2274 45.3753 11.2366 45.3753ZM12.4135 45.8203L12.7077 46.1472C14.032 47.6095 15.3837 48.6905 17.0205 49.6348C17.3148 49.7984 17.5354 49.9436 17.5169 49.9529C17.4527 49.9982 11.8342 51.9689 9.23193 52.859C7.76994 53.3676 6.56526 53.7763 6.55618 53.7763C6.54702 53.7763 6.46421 53.7219 6.37211 53.6583L6.20669 53.5402L6.47333 53.1588C7.33764 51.9235 8.42287 50.5703 10.7861 47.7548L12.4135 45.8203ZM19.7516 51.0062C19.7606 50.9972 20.1652 51.1424 20.6617 51.3243C21.8573 51.7692 22.8043 52.0507 24.0734 52.3686C25.6366 52.7592 27.8986 53.1407 29.232 53.2496C29.4343 53.2677 29.5447 53.286 29.5079 53.3132C29.4434 53.3496 28.0918 53.7946 27.0987 54.1034C25.5169 54.5938 20.6894 56.0015 16.7538 57.1187C16.0274 57.3276 15.4021 57.5002 15.3653 57.5092C15.2734 57.5274 14.9699 57.4456 14.9699 57.4092C14.9699 57.3912 15.1905 57.1097 15.4573 56.8008C16.7813 55.2386 18.0964 53.4949 19.1906 51.8419C19.494 51.3876 19.7516 51.0153 19.7516 51.0062ZM18.1331 51.0517C18.1422 51.0608 17.4894 52.0961 16.3493 53.8762C15.8618 54.63 15.3193 55.4838 15.1261 55.7835C14.9422 56.0741 14.6664 56.5283 14.5101 56.7826L14.2434 57.2458L14.1055 57.2095C13.7744 57.1186 11.448 56.3102 10.8319 56.065C10.0686 55.7653 9.27785 55.4021 8.68929 55.0933C7.95376 54.7027 7.03428 54.1214 7.10777 54.1033C7.12613 54.0943 8.38593 53.7581 9.90309 53.3495C13.9307 52.2686 16.1651 51.642 17.6273 51.1879C17.8941 51.1061 18.1239 51.0425 18.1331 51.0517ZM29.5814 53.7036H29.5905C29.6273 53.7945 28.1378 57.8815 27.595 59.1712C27.4756 59.4618 27.4298 59.5346 27.3653 59.5253C27.209 59.5164 25.0481 59.2167 23.733 59.0259C21.4435 58.6808 17.5997 58.0177 16.6343 57.7998L16.4136 57.7544L17.7836 57.4454C20.7262 56.7915 22.1423 56.4374 23.5767 56.0014C25.3882 55.4565 27.1814 54.7753 28.9928 53.9398C29.2779 53.8126 29.517 53.7127 29.5814 53.7036Z" fill="url(#paint0_linear_5757_33660)"></path>
  <path d="M22.7508 0.000465184C22.5485 -0.0266324 19.2841 1.13588 17.1784 1.98043C14.3369 3.12494 12.1302 4.21488 10.7692 5.15923C10.2635 5.51359 9.62891 6.14019 9.52791 6.38537C9.49114 6.47621 9.47266 6.58518 9.47266 6.69416L10.7049 7.84763L13.6382 8.77402L20.6175 10.0092L28.599 11.3625L28.6819 10.6814C28.6543 10.6814 28.6358 10.6723 28.6085 10.6723L27.5599 10.5088L27.3486 10.1364C26.2635 8.24727 25.0681 5.90402 24.3693 4.32369C23.8268 3.09755 23.3118 1.68085 23.0267 0.663582C22.8704 0.0459905 22.8521 0.00967912 22.751 0.000632619V0.000423005H22.7508V0.000465184ZM22.6035 0.463805H22.613C22.622 0.472768 22.6588 0.727243 22.6957 1.02678C22.8518 2.29849 23.1371 3.52441 23.5876 4.85048C23.9278 5.84957 23.9278 5.79512 23.5325 5.67698C22.5945 5.42275 18.3923 4.70523 15.3486 4.28746C14.8612 4.22384 14.4474 4.1603 14.4474 4.15126C14.4106 4.11495 16.645 2.96139 17.629 2.50739C18.8887 1.93508 22.3462 0.509163 22.6035 0.463805ZM13.7392 4.53263L14.098 4.65057C16.0473 5.3046 20.9483 6.23103 23.6519 6.44898C23.9553 6.47625 24.2129 6.50356 24.2219 6.50356C24.2311 6.5126 23.9738 6.64885 23.6426 6.80318C22.337 7.44804 20.9025 8.23822 19.9093 8.84677C19.6152 9.02833 19.3484 9.17374 19.3117 9.17374C19.2749 9.17374 19.0819 9.13739 18.8796 9.11012L18.5118 9.05555L17.5923 8.16543C15.9739 6.61245 14.7049 5.41362 14.2175 4.95941L13.7392 4.53263ZM13.3715 4.81412L14.6681 6.41267C15.376 7.29366 16.0933 8.15643 16.2497 8.34707C16.4059 8.53793 16.5347 8.69239 16.5256 8.70144C16.4888 8.72866 14.6498 8.37438 13.675 8.15651C12.6727 7.92939 12.2589 7.82041 11.6428 7.62976L11.137 7.46621V7.33898C11.1462 6.73043 11.9279 5.82226 13.252 4.89596L13.3715 4.81412ZM24.3876 6.99391C24.4244 6.99391 24.4703 7.07562 24.5806 7.32084C24.8932 8.00197 25.8681 9.83669 26.107 10.1908C26.1808 10.309 26.3093 10.3181 25.0129 10.1092C21.8957 9.60952 20.8933 9.44622 20.8933 9.42805C20.8933 9.419 20.9853 9.35538 21.1048 9.29176C22.0704 8.7651 23.045 8.09293 23.9095 7.37541C24.121 7.20282 24.3141 7.03935 24.3508 7.01205C24.3599 6.99391 24.3784 6.98486 24.3876 6.99391Z" fill="url(#paint1_linear_5757_33660)"></path>
  <path d="M9.59209 6.25781C9.59209 6.25781 9.38991 6.57582 9.58297 7.04812C9.70263 7.33866 10.052 7.69281 10.4473 8.05618C10.4473 8.05618 14.5393 11.9979 15.0358 12.561C17.2978 15.1403 18.2818 17.6834 18.3738 21.1892C18.4289 23.4416 17.9966 25.4216 16.9208 27.7194C15.0082 31.8428 10.9713 36.3931 4.74609 41.4429L5.65658 41.1431C6.24506 40.7071 7.04508 40.244 8.92088 39.2268C13.2518 36.8834 18.1254 34.7309 24.1025 32.5149C32.7092 29.3178 46.8611 25.5758 54.9161 24.3589L55.753 24.2317L55.6242 24.0319C54.8887 22.9056 54.3828 22.2064 53.7758 21.4616C52.0104 19.3 49.868 17.5472 47.2472 16.094C43.6426 14.1051 38.9804 12.552 33.0771 11.3985C31.9645 11.1804 29.5185 10.7627 27.5323 10.463C23.3208 9.81832 20.5989 9.3732 17.6013 8.86459C16.5255 8.68286 14.9162 8.41046 13.8495 8.18346C13.2978 8.06527 12.2404 7.82009 11.4129 7.53856C10.7508 7.28413 9.79439 7.02982 9.59209 6.25781ZM11.9646 8.52848C11.9737 8.51952 12.1208 8.57384 12.3141 8.63746C12.6635 8.7554 13.114 8.89168 13.6475 9.0371C14.0511 9.14674 14.4557 9.25269 14.8612 9.35494C15.4129 9.4911 15.8726 9.61829 15.8818 9.61829C15.9463 9.68191 16.8751 12.6153 17.1877 13.7415C17.3071 14.1685 17.3992 14.5317 17.39 14.5317C17.3805 14.5409 17.2795 14.3864 17.16 14.1776C16.0841 12.3066 14.383 10.4084 12.4151 8.88251C12.1578 8.70104 11.9646 8.53753 11.9646 8.52848ZM16.4888 9.76367C16.5348 9.76367 16.7371 9.79093 16.9852 9.84538C18.5485 10.1905 21.3531 10.7173 23.1461 11.017C23.4496 11.0624 23.6888 11.117 23.6888 11.135C23.6888 11.1533 23.5783 11.2168 23.4403 11.2895C23.137 11.4438 21.9139 12.1613 21.5095 12.4338C20.4887 13.1059 19.5692 13.8325 18.9071 14.4864C18.6405 14.7498 18.4105 14.9677 18.4105 14.9677C18.4105 14.9677 18.3555 14.8134 18.3093 14.6226C17.9785 13.3601 17.2887 11.4891 16.6634 10.1723C16.5622 9.96344 16.4794 9.77267 16.4794 9.75458C16.4794 9.77271 16.4794 9.76367 16.4888 9.76367ZM24.4519 11.2622C24.5071 11.2803 24.5991 11.5892 24.7829 12.2703C25.1232 13.5873 25.2796 15.0586 25.2244 16.4301C25.2059 16.8115 25.1876 17.1657 25.1691 17.2112L25.1416 17.3019L24.6634 17.1476C23.6795 16.8388 22.0796 16.3755 20.7095 15.9941C19.9278 15.7852 19.2935 15.5945 19.2935 15.5763C19.2935 15.5218 20.4337 14.3956 20.921 13.9688C21.8496 13.1603 24.3691 11.2349 24.4519 11.2622ZM25.0864 11.353C25.114 11.3259 28.8933 11.9706 30.6129 12.2976C31.8911 12.5427 33.7485 12.9242 33.8588 12.9697C33.914 12.9878 33.7208 13.0968 33.1047 13.3692C30.6772 14.4501 28.8748 15.4218 27.0819 16.6026C26.6129 16.9114 26.2175 17.1657 26.2083 17.1657C26.1992 17.1657 26.19 16.9024 26.19 16.5844C26.19 14.8589 25.8405 13.115 25.1967 11.6437C25.1324 11.4984 25.0772 11.3622 25.0864 11.353ZM34.8611 13.2603C34.8887 13.2876 34.7691 14.0233 34.6588 14.4592C34.3278 15.8125 33.4359 17.8198 32.3417 19.7088C32.1484 20.0448 31.9738 20.3173 31.9553 20.3264C31.9371 20.3354 31.6887 20.1991 31.4036 20.0357C30.337 19.4181 29.1233 18.8368 27.799 18.2918C27.4314 18.1375 27.1094 18.0103 27.1002 17.9923C27.0357 17.9377 29.9967 16.0032 31.56 15.0768C32.8014 14.3321 34.8243 13.224 34.8611 13.2603ZM35.5599 13.3693C35.6427 13.3693 37.3163 13.8234 38.1897 14.0778C40.3507 14.7136 42.8334 15.6126 44.4518 16.3392L45.123 16.639L44.6542 16.7479C40.7002 17.647 37.3163 18.6826 34.0519 19.9904C33.7852 20.0993 33.5461 20.1902 33.5279 20.1902C33.5094 20.1902 33.6014 19.9813 33.7209 19.7269C34.7048 17.6653 35.3393 15.5128 35.4955 13.678C35.5048 13.5054 35.5322 13.3693 35.5599 13.3693ZM18.898 17.1476C18.9255 17.1203 20.2037 17.4201 20.8933 17.6106C21.9416 17.9014 24.1668 18.6369 24.1668 18.6915C24.1668 18.7006 23.9186 18.9095 23.6245 19.1639C22.4199 20.1538 21.2611 21.1981 19.8726 22.5242C19.4587 22.9149 19.1094 23.2327 19.0911 23.2327C19.0726 23.2327 19.0636 23.1781 19.0726 23.1055C19.2841 21.5796 19.2382 19.6179 18.944 17.6289C18.9163 17.3745 18.8888 17.1566 18.898 17.1476ZM45.7577 17.1749C45.7759 17.1929 45.1691 18.1375 44.7829 18.6733C44.2313 19.4544 43.4219 20.4899 41.592 22.7605C40.6267 23.9592 39.5414 25.3126 39.183 25.7667C38.815 26.2208 38.5117 26.6021 38.5023 26.6021C38.4932 26.6021 38.3738 26.4387 38.245 26.239C37.2151 24.7131 35.9828 23.378 34.5207 22.1791C34.2449 21.952 33.9416 21.7068 33.8404 21.6341C33.7393 21.5615 33.6564 21.4888 33.6564 21.4798C33.6564 21.4526 35.2195 20.7895 36.4059 20.3173C38.4841 19.4817 41.316 18.4826 43.4403 17.8377C44.553 17.4927 45.7392 17.1566 45.7577 17.1749ZM46.4657 17.3564C46.5024 17.3474 46.7232 17.4564 46.9898 17.6106C49.2244 18.8731 51.4127 20.4989 53.1416 22.1701C53.6289 22.6424 54.8335 23.8776 54.815 23.8866C54.815 23.8866 54.392 23.9229 53.8956 23.9592C50.0243 24.25 45.0681 25.0582 40.3048 26.1934C39.983 26.266 39.698 26.3296 39.6795 26.3296C39.6613 26.3296 40.0198 25.9755 40.4705 25.5486C43.2658 22.8875 44.544 21.2073 46.0519 18.2101C46.2634 17.7652 46.4474 17.3837 46.4657 17.3564C46.4565 17.3564 46.4565 17.3564 46.4657 17.3564ZM25.9875 19.4273C26.1163 19.4544 27.3117 20.0086 28.2128 20.4535C29.0404 20.8621 30.2819 21.5162 30.3462 21.5706C30.3554 21.5796 29.9139 21.8067 29.3716 22.0701C27.6427 22.9238 26.1623 23.7321 24.6174 24.6585C24.1761 24.922 23.8083 25.14 23.7991 25.14C23.7623 25.14 23.7715 25.1035 24.0198 24.6585C24.8474 23.1692 25.5094 21.389 25.8865 19.6542C25.9231 19.518 25.96 19.4273 25.9875 19.4273ZM24.7921 19.6452C24.8197 19.6725 24.5071 20.7895 24.3141 21.398C23.9369 22.5515 23.3025 23.9956 22.6865 25.0855C22.5392 25.3396 22.3186 25.7121 22.199 25.9209L21.9692 26.2842L21.4542 25.7939C20.8566 25.2217 20.3691 24.8675 19.744 24.5495C19.4955 24.4225 19.3025 24.3134 19.3025 24.2953C19.3025 24.2227 20.8749 22.8149 22.0795 21.7977C22.9438 21.062 24.7646 19.6179 24.7921 19.6452ZM32.1026 22.6151L32.5532 22.9057C33.5829 23.5688 34.7966 24.4497 35.7256 25.2217C36.2495 25.6484 37.261 26.5477 37.4635 26.7657L37.5736 26.8839L36.829 27.0927C32.6174 28.246 29.3623 29.2724 25.5645 30.653C25.1416 30.8073 24.7829 30.9344 24.7553 30.9344C24.7003 30.9344 24.6541 30.9798 25.6014 30.1169C28.029 27.9101 30.1806 25.4759 31.7807 23.1055L32.1026 22.6151ZM30.1807 23.0874C30.199 23.1055 28.9393 24.8583 28.1852 25.8483C27.2841 27.0291 25.684 29.009 24.5806 30.2985C24.121 30.8345 23.7256 31.2795 23.7071 31.2886C23.6795 31.2977 23.6703 31.1615 23.6703 30.9526C23.6703 29.8535 23.3853 28.6819 22.8887 27.6829C22.6772 27.2652 22.6404 27.1652 22.6865 27.1199C22.8612 26.9654 25.537 25.4578 27.2289 24.5587C28.3691 23.9593 30.1529 23.0692 30.1807 23.0874ZM18.5576 25.9029C18.5853 25.9029 18.7968 26.0118 19.0359 26.139C19.6244 26.4569 20.1485 26.8111 20.6175 27.1926C20.6358 27.2107 20.3968 27.4015 20.0841 27.6284C19.2106 28.246 17.8865 29.2361 17.1142 29.8446C16.3048 30.4804 16.2774 30.4985 16.3692 30.3623C16.9762 29.445 17.2795 28.9273 17.6015 28.2643C17.8865 27.6741 18.1715 26.9747 18.3738 26.3661C18.4473 26.1027 18.5393 25.9029 18.5576 25.9029ZM21.6566 28.3006C21.7024 28.2916 21.7578 28.3732 22.0059 28.7366C22.5301 29.5084 22.9347 30.544 23.036 31.3795L23.0542 31.5612L21.7946 32.0426C19.5416 32.9054 17.4635 33.7592 16.0565 34.3948C15.6612 34.5765 14.9715 34.9034 14.521 35.1215C14.0704 35.3485 13.7026 35.5211 13.7026 35.512C13.7026 35.503 13.9875 35.2941 14.337 35.0397C17.0866 33.0689 19.4681 30.9072 21.2519 28.7457C21.4451 28.5186 21.6199 28.3097 21.6381 28.3006L21.6566 28.3006ZM20.2313 28.6458C20.2681 28.6821 19.2199 29.8536 18.5026 30.5711C16.7279 32.3604 14.9716 33.7592 12.7922 35.1215C12.5164 35.2941 12.2681 35.4484 12.2405 35.4667C12.1761 35.503 12.2588 35.4121 13.2152 34.3858C13.8221 33.7409 14.2818 33.196 14.806 32.524C15.1554 32.079 15.2198 32.0154 15.7256 31.6611C17.0774 30.6983 20.1945 28.6094 20.2313 28.6458Z" fill="url(#paint2_radial_5757_33660)"></path>
  <defs>
    <linearGradient id="paint0_linear_5757_33660" x1="9.40261" y1="54.0649" x2="13.7733" y2="51.4502" gradientUnits="userSpaceOnUse">
      <stop stop-color="#909CA9"></stop>
      <stop offset="1" stop-color="#EDEDEE"></stop>
    </linearGradient>
    <linearGradient id="paint1_linear_5757_33660" x1="9.50492" y1="5.66373" x2="13.0445" y2="5.66373" gradientUnits="userSpaceOnUse">
      <stop stop-color="#939FAB"></stop>
      <stop offset="1" stop-color="#DCDEE1"></stop>
    </linearGradient>
    <radialGradient id="paint2_radial_5757_33660" cx="0" cy="0" r="1" gradientUnits="userSpaceOnUse" gradientTransform="translate(27.3657 21.6973) rotate(-171.561) scale(4.56228 9.01944)">
      <stop stop-color="#EE352C"></stop>
      <stop offset="1" stop-color="#A91D22"></stop>
    </radialGradient>
  </defs>
</svg>
