<?xml version="1.0" encoding="UTF-8"?>
<svg xmlns="http://www.w3.org/2000/svg" width="60" height="60" viewBox="0 0 60 60" fill="none">
  <path fill-rule="evenodd" clip-rule="evenodd" d="M41.2675 20.0684C42.0198 22.2448 42.5617 24.4666 42.7398 26.7696C42.9611 29.6266 42.8598 32.4635 42.2575 35.2737C42.2411 35.351 42.2064 35.4237 42.1806 35.4987C41.9917 35.4991 41.7991 35.4757 41.6144 35.5043C40.0539 35.7495 38.4948 36.0035 36.9358 36.2562C35.3242 36.5173 33.7103 36.768 32.1016 37.047C31.5316 37.1454 30.8261 37.0277 30.5959 37.8162C30.5894 37.8377 30.5238 37.8415 30.4858 37.8537L30.5636 33.1423C30.5369 29.3529 30.5106 25.5635 30.4844 21.7741L31.2353 21.6452C32.4634 21.4441 33.6916 21.2402 34.9206 21.0448C36.3873 20.8118 37.8555 20.5854 39.3231 20.358C39.9705 20.2573 40.6188 20.1649 41.2675 20.0684Z" fill="#439934"></path>
  <path fill-rule="evenodd" clip-rule="evenodd" d="M28.9353 51.5881C28.1431 50.907 27.3233 50.2559 26.5639 49.5397C22.4778 45.6856 19.4891 41.1495 18.0172 35.6806C17.6117 34.1755 17.3412 32.6459 17.2545 31.0906C17.1936 30.0022 17.1055 28.9039 17.1823 27.8211C17.3872 24.9411 17.8034 22.0887 18.6481 19.3147L18.6945 19.25C18.7766 19.3592 18.8947 19.4558 18.9364 19.5791C19.7609 22.0072 20.5794 24.4372 21.3936 26.8686C23.952 34.5092 26.5072 42.1517 29.0698 49.7905C29.12 49.9395 29.2498 50.0619 29.3431 50.1964L28.9353 51.5881Z" fill="#45A538"></path>
  <path fill-rule="evenodd" clip-rule="evenodd" d="M41.2674 20.069C40.6186 20.1655 39.9699 20.2579 39.3225 20.3577C37.8549 20.5851 36.3867 20.8115 34.92 21.0445C33.691 21.2399 32.4628 21.4438 31.2347 21.6449L30.4838 21.7738L30.4781 21.284C30.4533 20.8813 30.4106 20.4791 30.406 20.0765C30.3736 17.5087 30.3535 14.9409 30.3216 12.373C30.3019 10.7657 30.2724 9.15883 30.2395 7.55195C30.2194 6.55351 30.1978 5.55461 30.1528 4.55758C30.1285 4.0218 30.0422 3.48883 30.007 2.95305C29.9874 2.64508 30.0145 2.33477 30.0206 2.02539C30.4036 2.76742 30.7781 3.51508 31.1719 4.25148C31.7939 5.41586 32.7849 6.27367 33.6769 7.20977C37.2033 10.9091 39.7069 15.2104 41.2674 20.069Z" fill="#46A037"></path>
  <path fill-rule="evenodd" clip-rule="evenodd" d="M30.4864 37.8521C30.5244 37.8399 30.5905 37.8361 30.5966 37.8146C30.8267 37.0261 31.5322 37.1438 32.1022 37.0454C33.7109 36.7669 35.3248 36.5157 36.9364 36.2546C38.4955 36.0019 40.0545 35.7479 41.615 35.5027C41.7997 35.4736 41.9923 35.4976 42.1812 35.4971C41.8897 36.5377 41.66 37.6008 41.2902 38.6129C40.8702 39.7608 40.362 40.8811 39.8225 41.9794C39.0163 43.6215 38.0117 45.1529 36.8445 46.5558C35.945 47.6377 34.9423 48.6376 33.9373 49.6252C33.3819 50.1713 32.727 50.6161 32.1177 51.1069L31.9597 50.9991L31.3906 50.5126L30.8019 49.2221C30.3964 47.7113 30.1836 46.1733 30.1484 44.6105L30.1592 44.3476L30.2394 43.2104C30.2661 42.8222 30.3017 42.4346 30.3181 42.0455C30.3786 40.6477 30.4311 39.2499 30.4864 37.8521Z" fill="#409433"></path>
  <path fill-rule="evenodd" clip-rule="evenodd" d="M30.4838 37.8534C30.4284 39.2512 30.3759 40.6491 30.3164 42.0473C30.3 42.4364 30.2644 42.8241 30.2377 43.2122L29.8791 43.3477C29.0827 41.003 28.2858 38.6831 27.5062 36.3572C26.2172 32.5092 24.9436 28.6552 23.6564 24.8062C22.6172 21.6994 21.5695 18.5958 20.5158 15.4936C20.4666 15.3483 20.325 15.2348 20.2266 15.1064L22.5216 10.8867C22.6003 11.0236 22.7044 11.1516 22.7541 11.2987C23.8158 14.4408 24.8756 17.5833 25.9266 20.7291C27.2934 24.8212 28.6519 28.9167 30.0178 33.0094C30.0722 33.173 30.1622 33.3239 30.248 33.5072L30.562 33.1416C30.5358 34.7123 30.5095 36.2827 30.4838 37.8534Z" fill="#4FAA41"></path>
  <path fill-rule="evenodd" clip-rule="evenodd" d="M20.2291 15.1055C20.3275 15.2339 20.4686 15.3473 20.5183 15.4927C21.572 18.5948 22.6197 21.6984 23.6589 24.8053C24.9461 28.6542 26.2197 32.5083 27.5088 36.3562C28.2878 38.6817 29.0847 41.002 29.8816 43.3467L30.2402 43.2112L30.16 44.3484L30.0873 44.6105C29.9627 45.8555 29.8577 47.1033 29.7058 48.3455C29.6294 48.968 29.4672 49.5792 29.3439 50.1956C29.2511 50.0611 29.1208 49.9387 29.0706 49.7897C26.508 42.1505 23.9528 34.5084 21.3944 26.8678C20.5802 24.4364 19.7617 22.0064 18.9372 19.5783C18.8955 19.455 18.7778 19.3584 18.6953 19.2492C19.2063 17.8678 19.7177 16.4864 20.2291 15.1055Z" fill="#4AA73C"></path>
  <path fill-rule="evenodd" clip-rule="evenodd" d="M30.5639 33.1408L30.2498 33.5064C30.1641 33.3231 30.0741 33.1717 30.0197 33.0086C28.6542 28.9159 27.2953 24.8205 25.9284 20.7283C24.8775 17.5825 23.8177 14.44 22.7559 11.298C22.7067 11.1508 22.6027 11.0223 22.5234 10.8859L25.3617 7.15234C25.4512 7.27187 25.5788 7.37828 25.6252 7.51281C26.4131 9.81953 27.1941 12.1291 27.9703 14.44C28.6955 16.5981 29.4098 18.7595 30.1434 20.9148C30.1927 21.0592 30.3637 21.1614 30.4781 21.2833L30.4837 21.7731C30.5109 25.5616 30.5377 29.3514 30.5639 33.1408Z" fill="#57AE47"></path>
  <path fill-rule="evenodd" clip-rule="evenodd" d="M30.4758 21.2834C30.3614 21.1615 30.1903 21.0593 30.1411 20.9149C29.4075 18.7596 28.6931 16.5982 27.968 14.4401C27.1917 12.1291 26.4108 9.82008 25.6228 7.51289C25.5764 7.37836 25.4489 7.27195 25.3594 7.15242C26.2823 6.24867 27.1767 5.31258 28.1367 4.45055C28.9903 3.68461 29.6766 2.86336 29.708 1.65305C29.7094 1.60289 29.7356 1.55273 29.7759 1.41211L30.0192 2.0243C30.0131 2.33414 29.9855 2.64398 30.0056 2.95195C30.0408 3.48773 30.127 4.0207 30.1514 4.55648C30.1964 5.55352 30.218 6.55242 30.2381 7.55086C30.2705 9.15773 30.3 10.7646 30.3202 12.372C30.3516 14.9398 30.3722 17.5076 30.4045 20.0754C30.4083 20.479 30.4505 20.8807 30.4758 21.2834Z" fill="#60B24F"></path>
  <path fill-rule="evenodd" clip-rule="evenodd" d="M29.3453 50.1953C29.4686 49.5789 29.6308 48.9672 29.7072 48.3452C29.8595 47.1034 29.9641 45.8552 30.0887 44.6102L30.1197 44.6055L30.1506 44.6106C30.1858 46.1734 30.3986 47.7114 30.8041 49.2222C30.7216 49.3309 30.6048 49.428 30.5613 49.5508C30.2205 50.5117 29.8994 51.4802 29.5567 52.4411C29.5098 52.5723 29.3795 52.6745 29.2877 52.7898L28.9375 51.587L29.3453 50.1953Z" fill="#A9AA88"></path>
  <path fill-rule="evenodd" clip-rule="evenodd" d="M29.2852 52.7903C29.377 52.675 29.5078 52.5728 29.5542 52.4416C29.8969 51.4806 30.2184 50.5127 30.5587 49.5512C30.6023 49.4284 30.7186 49.3314 30.8016 49.2227L31.3898 50.5136C31.2736 50.6786 31.1133 50.8272 31.0486 51.0109L29.9217 54.3198C29.8753 54.4525 29.7169 54.5462 29.6109 54.6583L29.2852 52.7903Z" fill="#B6B598"></path>
  <path fill-rule="evenodd" clip-rule="evenodd" d="M29.6133 54.6584C29.7197 54.5468 29.8777 54.4526 29.9241 54.3199L31.0509 51.011C31.1152 50.8277 31.2759 50.6787 31.3922 50.5137L31.9617 50.9998C31.6866 51.2716 31.5337 51.5857 31.6256 51.9827L31.4527 52.549C31.3739 52.646 31.26 52.7304 31.2211 52.8415C30.8278 53.9679 30.4523 55.1004 30.0562 56.2268C30.0061 56.3698 29.8669 56.4818 29.7684 56.6074C29.7173 55.9573 29.6653 55.3085 29.6133 54.6584Z" fill="#C2C1A7"></path>
  <path fill-rule="evenodd" clip-rule="evenodd" d="M29.7646 56.6073C29.8626 56.4812 30.0018 56.3691 30.0524 56.2266C30.4485 55.1007 30.824 53.9682 31.2173 52.8413C31.2562 52.7307 31.3696 52.6459 31.4488 52.5488L31.2102 55.148C31.1465 55.2216 31.0541 55.2859 31.0237 55.3716C30.7541 56.1282 30.5001 56.8904 30.2296 57.647C30.1738 57.803 30.067 57.9409 29.9835 58.0866C29.9095 57.9896 29.7768 57.8959 29.7707 57.7946C29.7468 57.4004 29.7632 57.0034 29.7646 56.6073Z" fill="#CECDB7"></path>
  <path fill-rule="evenodd" clip-rule="evenodd" d="M29.9844 58.087C30.0678 57.9408 30.1747 57.803 30.2305 57.6473C30.5014 56.8913 30.755 56.1291 31.0245 55.372C31.055 55.2862 31.1478 55.2225 31.2111 55.1484L31.2167 56.8547L30.6458 58.3191L29.9844 58.087Z" fill="#DBDAC7"></path>
  <path fill-rule="evenodd" clip-rule="evenodd" d="M30.6484 58.3198L31.2194 56.8555L31.337 58.588L30.6484 58.3198Z" fill="#EBE9DC"></path>
  <path fill-rule="evenodd" clip-rule="evenodd" d="M31.6244 51.983C31.5326 51.5859 31.6849 51.2714 31.9605 51L32.1185 51.1078L31.6244 51.983Z" fill="#CECDB7"></path>
  <path fill-rule="evenodd" clip-rule="evenodd" d="M30.1478 44.6121L30.1169 44.607L30.0859 44.6116L30.1586 44.3496L30.1478 44.6121Z" fill="#4FAA41"></path>
</svg>
