<?xml version="1.0" encoding="UTF-8"?>
<svg xmlns="http://www.w3.org/2000/svg" width="60" height="60" viewBox="0 0 60 60" fill="none">
  <g clip-path="url(#clip0_5757_33624)">
    <path d="M16.3322 48.8841C15.9672 48.8841 15.6422 48.8616 15.3672 48.8191V50.0316C15.9322 50.2566 16.3997 50.3691 16.7822 50.3691C18.2147 50.3691 19.5347 49.4941 20.7397 47.7366C22.2797 45.4616 23.5247 41.8091 24.4697 36.7891H22.2697C21.9177 39.7114 21.2169 42.581 20.1822 45.3366C20.2522 44.8141 20.0797 43.8966 19.6697 42.5816L17.8522 36.7891H15.5772L18.1122 44.5366C18.4947 45.6991 18.6872 46.4741 18.6872 46.8541C18.6872 47.4016 18.4422 47.8966 17.9497 48.3391C17.5397 48.6991 17.0022 48.8841 16.3322 48.8841Z" fill="#105E86"></path>
    <path d="M48.7031 33.2324V46.8049H55.2781V45.1349H50.9156V33.2324H48.7031Z" fill="#DE8A03"></path>
    <path d="M2.6 35.9799H2.625L6.125 46.8049H7.8875L11.4125 35.9799H11.4325C11.8171 39.5765 12.0423 43.1884 12.1075 46.8049H14.4325C14.2894 42.2664 13.9323 37.7373 13.3625 33.2324H10.625L7.2575 43.2074H7.2375L3.9 33.2324H1.025C0.45801 37.7367 0.115919 42.2665 0 46.8049H2.1125C2.18 42.8349 2.3425 39.2274 2.6 35.9799Z" fill="#105E86"></path>
    <path d="M46.6969 39.7654C46.6969 35.2754 44.9019 33.0254 41.3094 33.0254C39.5494 33.0254 38.1744 33.5954 37.1844 34.7354C36.1094 35.9829 35.5694 37.8179 35.5694 40.2454C35.5694 42.6304 36.0444 44.3829 37.0044 45.4979C37.8794 46.5054 39.1969 47.0079 40.9619 47.0079C41.6219 47.0079 42.2269 46.9279 42.7744 46.7679L46.0869 48.6629L46.9869 47.1379H46.9794L44.4394 45.9104C44.6644 45.7229 44.8819 45.5229 45.0769 45.2979C46.1594 44.0529 46.6969 42.2079 46.6969 39.7654ZM41.1894 45.3279C40.0769 45.3279 39.2644 44.9179 38.7444 44.1004L38.7494 44.0879C38.1869 43.2054 37.9069 41.7804 37.9069 39.8279C37.9069 36.4079 38.9669 34.6979 41.0819 34.6979C42.1894 34.6979 43.0069 35.1079 43.5244 35.9254C44.0844 36.8129 44.3644 38.2229 44.3644 40.1554C44.3644 43.6004 43.3044 45.3279 41.1894 45.3279ZM32.9994 40.1854C32.9994 40.1854 31.0144 39.0679 30.0319 38.5404C28.9519 37.9504 28.3669 37.2579 28.3669 36.4554C28.3689 36.2083 28.4255 35.9648 28.5327 35.7422C28.6399 35.5196 28.795 35.3235 28.9869 35.1679C29.3669 34.8279 29.9144 34.6629 30.6219 34.6629C31.4944 34.6629 32.3819 34.8529 33.2819 35.2279L33.8144 34.0604C32.7706 33.3914 31.5541 33.0421 30.3144 33.0554C29.0644 33.0554 28.0519 33.3904 27.2644 34.0729C26.4819 34.7479 26.0894 35.6304 26.0894 36.7354C26.0894 38.0629 26.6144 38.8704 27.6694 39.6254C27.6694 39.6254 29.6069 40.7154 30.5769 41.2379C31.6219 41.8154 32.1969 42.5029 32.1969 43.3129C32.201 43.6061 32.1352 43.8961 32.0047 44.1587C31.8743 44.4213 31.683 44.649 31.4469 44.8229C30.9719 45.1829 30.3194 45.3629 29.4894 45.3629C28.5969 45.3629 27.6094 45.0979 26.5144 44.5579L25.9219 45.7254C27.1944 46.5679 28.4969 46.9904 29.8544 46.9904C31.3069 46.9904 32.4544 46.6229 33.3144 45.8854C34.1744 45.1504 34.6044 44.2029 34.6044 43.0479L34.6194 43.0554C34.6194 41.7329 34.0819 40.9354 32.9994 40.1854Z" fill="#DE8A03"></path>
    <path d="M41.0131 14.4191C40.7256 14.4191 40.5306 14.4541 40.3281 14.4991V14.5316H40.3631C40.4981 14.7866 40.7281 14.9741 40.8981 15.2016C41.0331 15.4641 41.1481 15.7266 41.2831 15.9866L41.3181 15.9491C41.5531 15.7866 41.6681 15.5266 41.6681 15.1316C41.5681 15.0166 41.5531 14.9016 41.4681 14.7891C41.3681 14.6241 41.1531 14.5441 41.0181 14.4141L41.0131 14.4191Z" fill="#105E86"></path>
    <path d="M59.2372 33.0009C58.7443 32.3645 58.1586 31.8058 57.4997 31.3434C56.9647 30.9859 55.7947 30.4834 55.5747 29.8834L55.5422 29.8484C55.9072 29.8159 56.3422 29.6859 56.6922 29.5884C57.2597 29.4409 57.7797 29.4734 58.3672 29.3284C58.6322 29.2634 58.8997 29.1809 59.1672 29.0984V28.9509C58.8672 28.6559 58.6422 28.2559 58.3322 27.9809C57.4657 27.2374 56.5429 26.5621 55.5722 25.9609C55.0472 25.6309 54.3822 25.4209 53.8297 25.1409C53.6297 25.0434 53.2947 24.9934 53.1797 24.8284C52.8797 24.4709 52.7047 23.9934 52.4922 23.5659C52.0122 22.6634 51.5422 21.6634 51.1247 20.7109C50.8247 20.0684 50.6422 19.4284 50.2747 18.8384C48.5497 16.0484 46.6822 14.3559 43.8097 12.7034C43.1922 12.3609 42.4522 12.2134 41.6697 12.0309C41.2522 12.0109 40.8347 11.9809 40.4197 11.9634C40.1447 11.8484 39.8797 11.5359 39.6447 11.3859C38.6947 10.7959 36.2347 9.52088 35.5347 11.2084C35.0847 12.2734 36.2022 13.3234 36.5897 13.8634C36.8772 14.2384 37.2397 14.6684 37.4397 15.0909C37.5572 15.3759 37.5897 15.6684 37.7072 15.9659C37.9722 16.6884 38.2247 17.4909 38.5747 18.1684C38.7572 18.5109 38.9572 18.8734 39.1922 19.1809C39.3272 19.3609 39.5572 19.4434 39.6097 19.7384C39.3747 20.0734 39.3597 20.5584 39.2247 20.9659C38.6247 22.8234 38.8597 25.1209 39.7097 26.4884C39.9772 26.8959 40.6147 27.7984 41.4672 27.4534C42.2172 27.1584 42.0522 26.2259 42.2672 25.4034C42.3172 25.2059 42.2847 25.0759 42.3872 24.9434V24.9809C42.6222 25.4434 42.8572 25.8809 43.0722 26.3434C43.5872 27.1484 44.4872 27.9834 45.2397 28.5409C45.6397 28.8359 45.9572 29.3459 46.4572 29.5284V29.4784H46.4197C46.3122 29.3359 46.1697 29.2684 46.0347 29.1509C45.718 28.8466 45.4255 28.5181 45.1597 28.1684C44.4563 27.2246 43.8317 26.2246 43.2922 25.1784C43.0172 24.6634 42.7872 24.1084 42.5672 23.6009C42.4672 23.4059 42.4672 23.1109 42.2997 23.0109C42.0497 23.3684 41.6822 23.6809 41.4997 24.1234C41.1822 24.8309 41.1497 25.6984 41.0297 26.6034C40.9622 26.6209 40.9947 26.6034 40.9622 26.6384C40.4272 26.5109 40.2447 25.9659 40.0447 25.5084C39.5447 24.3434 39.4622 22.4709 39.8947 21.1259C40.0122 20.7834 40.5122 19.6984 40.3122 19.3684C40.2072 19.0559 39.8772 18.8784 39.6947 18.6259C39.4607 18.2974 39.2597 17.9465 39.0947 17.5784C38.6947 16.6609 38.4947 15.6434 38.0597 14.7259C37.8597 14.3009 37.5097 13.8559 37.2247 13.4659C36.9072 13.0234 36.5572 12.7134 36.3047 12.1884C36.2222 12.0084 36.1047 11.7109 36.2372 11.5159C36.2722 11.3834 36.3422 11.3309 36.4722 11.2959C36.6922 11.1184 37.3097 11.3509 37.5272 11.4484C38.1447 11.6934 38.6647 11.9234 39.1822 12.2684C39.4172 12.4309 39.6697 12.7409 39.9697 12.8234H40.3197C40.8547 12.9384 41.4572 12.8584 41.9572 13.0034C42.8447 13.2834 43.6447 13.6909 44.3622 14.1334C46.5645 15.5105 48.3629 17.4461 49.5747 19.7434C49.7747 20.1209 49.8622 20.4684 50.0447 20.8609C50.3947 21.6709 50.8272 22.4884 51.1822 23.2709C51.5322 24.0434 51.8697 24.8334 52.3722 25.4734C52.6222 25.8159 53.6272 25.9959 54.0772 26.1759C54.4097 26.3234 54.9272 26.4584 55.2272 26.6384C55.8022 26.9809 56.3622 27.3759 56.9022 27.7534C57.1772 27.9409 58.0098 28.3509 58.0597 28.6809C56.7222 28.6459 55.6847 28.7784 54.8172 29.1434C54.5672 29.2409 54.1672 29.2409 54.1322 29.5534C54.2697 29.6834 54.2897 29.8959 54.4072 30.0784C54.6072 30.4059 54.9522 30.8459 55.2722 31.0784C55.6222 31.3484 55.9722 31.6084 56.3397 31.8384C56.9897 32.2309 57.7272 32.4634 58.3647 32.8584C58.7272 33.0884 59.0972 33.3809 59.4647 33.6259C59.6472 33.7484 59.7647 33.9709 59.9997 34.0484V34.0009C59.8847 33.8534 59.8497 33.6409 59.7372 33.4759C59.5697 33.3109 59.4022 33.1634 59.2372 33.0009Z" fill="#105E86"></path>
  </g>
  <defs>
    <clipPath id="clip0_5757_33624">
      <rect width="60" height="60" fill="white"></rect>
    </clipPath>
  </defs>
</svg>
