<?xml version="1.0" encoding="UTF-8"?>
<svg xmlns="http://www.w3.org/2000/svg" width="62" height="60" viewBox="0 0 62 60" fill="none">
  <path d="M31.5403 58.7882C47.5643 58.7882 60.5543 45.8087 60.5543 29.7977C60.5543 13.7866 47.5643 0.807104 31.5403 0.807104C15.5164 0.807104 2.52636 13.7866 2.52636 29.7977C2.52636 45.8087 15.5164 58.7882 31.5403 58.7882Z" fill="url(#paint0_radial_5451_19053)"></path>
  <path fill-rule="evenodd" clip-rule="evenodd" d="M37.0653 0.648543C37.054 0.657977 42.7133 0.333354 40.2946 21.9252C38.3382 39.3912 32.6261 58.6936 25.2793 59.9583C28.4455 60.4776 33.3781 56.1458 36.9343 47.2863C41.7082 35.3937 43.0016 20.1331 42.5654 10.8382C42.3176 5.55582 38.9884 -0.957386 37.0653 0.648543Z" fill="#2684FB"></path>
  <path fill-rule="evenodd" clip-rule="evenodd" d="M41.301 58.2501C41.3139 58.242 36.2371 59.975 28.3209 41.2284C21.2799 24.5538 18.9761 4.72292 25.01 0C21.89 1.07033 18.8071 8.62353 19.914 18.3887C21.4 31.4969 26.847 44.4347 31.781 52.651C34.585 57.3207 39.9659 59.0918 41.301 58.2501Z" fill="#2684FB"></path>
  <path fill-rule="evenodd" clip-rule="evenodd" d="M61.1085 24.6729C61.0947 24.6678 65.8409 27.9702 41.6658 37.552C25.447 43.9805 5.26691 45.7205 1.08171 39.6445C1.92372 42.6988 7.48045 45.1244 16.9587 44.6895C29.6816 44.1058 44.5738 39.3452 52.634 34.8536C59.4315 31.0657 63.7943 25.6426 61.1085 24.6729ZM0.696071 37.2613C0.709841 37.2678 -1.97718 32.1007 19.343 25.265C36.5893 19.7355 57.1433 16.9517 61.4244 23.3044C60.5802 20.118 54.4311 17.321 44.6039 17.7228C31.4122 18.2623 16.5187 23.4834 7.96239 27.8107C3.09979 30.2698 -1.62325 36.1357 0.696071 37.2613Z" fill="#2684FB"></path>
  <path fill-rule="evenodd" clip-rule="evenodd" d="M51.5212 52.3547C51.5318 52.3447 41.3852 62.4483 20.2464 44.5453C6.914 33.2538 4.42953 15.7371 8.58249 9.21062C5.97382 11.3665 4.09414 19.7538 7.30079 28.5423C11.9286 41.2264 20.4277 49.1881 29.9876 53.1229C42.6616 58.3395 48.6628 55.0616 51.5212 52.3547Z" fill="#2684FB"></path>
  <path fill-rule="evenodd" clip-rule="evenodd" d="M57.2127 44.8883C56.9286 45.0604 48.998 46.8395 31.9788 34.1966C18.3447 24.0684 13.0089 8.54797 15.2196 5.38046C13.5403 6.93657 13.6633 14.4281 18.3822 21.7245C25.1722 32.2232 29.6923 35.1107 38.1373 40.293C45.6362 44.8948 56.082 47.0158 57.2127 44.8883Z" fill="#2684FB"></path>
  <path fill-rule="evenodd" clip-rule="evenodd" d="M41.5455 17.1655C40.6416 17.1655 39.9089 17.8976 39.9089 18.8008C39.9089 19.704 40.6416 20.4361 41.5455 20.4361C42.4494 20.4361 43.1821 19.704 43.1821 18.8008C43.1821 17.8976 42.4494 17.1655 41.5455 17.1655ZM37.6323 18.8008C37.6323 16.6414 39.3843 14.8908 41.5455 14.8908C43.7067 14.8908 45.4586 16.6414 45.4586 18.8008C45.4586 20.9602 43.7067 22.7108 41.5455 22.7108C39.3843 22.7108 37.6323 20.9602 37.6323 18.8008Z" fill="white"></path>
  <path d="M41.5455 21.5735C43.078 21.5735 44.3204 20.3321 44.3204 18.8008C44.3204 17.2695 43.078 16.0281 41.5455 16.0281C40.013 16.0281 38.7706 17.2695 38.7706 18.8008C38.7706 20.3321 40.013 21.5735 41.5455 21.5735Z" fill="#2684FB"></path>
  <path fill-rule="evenodd" clip-rule="evenodd" d="M21.5283 21.5386C20.6244 21.5386 19.8916 22.2708 19.8916 23.174C19.8916 24.0771 20.6244 24.8093 21.5283 24.8093C22.4321 24.8093 23.1649 24.0771 23.1649 23.174C23.1649 22.2708 22.4321 21.5386 21.5283 21.5386ZM17.6151 23.174C17.6151 21.0145 19.3671 19.264 21.5283 19.264C23.6895 19.264 25.4414 21.0145 25.4414 23.174C25.4414 25.3334 23.6895 27.084 21.5283 27.084C19.3671 27.084 17.6151 25.3334 17.6151 23.174Z" fill="white"></path>
  <path d="M21.5283 25.9466C23.0608 25.9466 24.3031 24.7053 24.3031 23.174C24.3031 21.6427 23.0608 20.4013 21.5283 20.4013C19.9957 20.4013 18.7534 21.6427 18.7534 23.174C18.7534 24.7053 19.9957 25.9466 21.5283 25.9466Z" fill="#2684FB"></path>
  <path fill-rule="evenodd" clip-rule="evenodd" d="M8.09584 27.2655C7.19198 27.2655 6.45922 27.9976 6.45922 28.9008C6.45922 29.804 7.19198 30.5361 8.09584 30.5361C8.9997 30.5361 9.73246 29.804 9.73246 28.9008C9.73246 27.9976 8.9997 27.2655 8.09584 27.2655ZM4.18269 28.9008C4.18269 26.7414 5.93465 24.9908 8.09584 24.9908C10.257 24.9908 12.009 26.7414 12.009 28.9008C12.009 31.0602 10.257 32.8108 8.09584 32.8108C5.93465 32.8108 4.18269 31.0602 4.18269 28.9008Z" fill="white"></path>
  <path d="M8.09584 31.6735C9.62837 31.6735 10.8707 30.4321 10.8707 28.9008C10.8707 27.3695 9.62837 26.1282 8.09584 26.1282C6.56332 26.1282 5.32096 27.3695 5.32096 28.9008C5.32096 30.4321 6.56332 31.6735 8.09584 31.6735Z" fill="#2684FB"></path>
  <path fill-rule="evenodd" clip-rule="evenodd" d="M16.739 42.0691C15.8351 42.0691 15.1024 42.8013 15.1024 43.7045C15.1024 44.6077 15.8351 45.3398 16.739 45.3398C17.6428 45.3398 18.3756 44.6077 18.3756 43.7045C18.3756 42.8013 17.6428 42.0691 16.739 42.0691ZM12.8258 43.7045C12.8258 41.5451 14.5778 39.7945 16.739 39.7945C18.9002 39.7945 20.6521 41.5451 20.6521 43.7045C20.6521 45.8639 18.9002 47.6145 16.739 47.6145C14.5778 47.6145 12.8258 45.8639 12.8258 43.7045Z" fill="white"></path>
  <path d="M16.739 46.4771C18.2715 46.4771 19.5139 45.2358 19.5139 43.7045C19.5139 42.1732 18.2715 40.9318 16.739 40.9318C15.2064 40.9318 13.9641 42.1732 13.9641 43.7045C13.9641 45.2358 15.2064 46.4771 16.739 46.4771Z" fill="#2684FB"></path>
  <path fill-rule="evenodd" clip-rule="evenodd" d="M38.3384 37.8861C37.4345 37.8861 36.7018 38.6183 36.7018 39.5215C36.7018 40.4247 37.4345 41.1568 38.3384 41.1568C39.2423 41.1568 39.975 40.4247 39.975 39.5215C39.975 38.6183 39.2423 37.8861 38.3384 37.8861ZM34.4252 39.5215C34.4252 37.3621 36.1772 35.6115 38.3384 35.6115C40.4996 35.6115 42.2516 37.3621 42.2516 39.5215C42.2516 41.6809 40.4996 43.4315 38.3384 43.4315C36.1772 43.4315 34.4252 41.6809 34.4252 39.5215Z" fill="white"></path>
  <path d="M38.3384 42.2941C39.8709 42.2941 41.1133 41.0528 41.1133 39.5215C41.1133 37.9902 39.8709 36.7488 38.3384 36.7488C36.8059 36.7488 35.5635 37.9902 35.5635 39.5215C35.5635 41.0528 36.8059 42.2941 38.3384 42.2941Z" fill="#2684FB"></path>
  <path fill-rule="evenodd" clip-rule="evenodd" d="M27.6982 40.3818C26.7943 40.3818 26.0615 41.114 26.0615 42.0172C26.0615 42.9203 26.7943 43.6525 27.6982 43.6525C28.602 43.6525 29.3348 42.9203 29.3348 42.0172C29.3348 41.114 28.602 40.3818 27.6982 40.3818ZM23.785 42.0172C23.785 39.8577 25.537 38.1072 27.6982 38.1072C29.8593 38.1072 31.6113 39.8577 31.6113 42.0172C31.6113 44.1766 29.8593 45.9272 27.6982 45.9272C25.537 45.9272 23.785 44.1766 23.785 42.0172Z" fill="white"></path>
  <path d="M27.6982 44.7898C29.2307 44.7898 30.473 43.5485 30.473 42.0172C30.473 40.4859 29.2307 39.2445 27.6982 39.2445C26.1656 39.2445 24.9233 40.4859 24.9233 42.0172C24.9233 43.5485 26.1656 44.7898 27.6982 44.7898Z" fill="#2684FB"></path>
  <path fill-rule="evenodd" clip-rule="evenodd" d="M33.3261 52.0798C32.4223 52.0798 31.6895 52.8119 31.6895 53.7151C31.6895 54.6183 32.4223 55.3504 33.3261 55.3504C34.23 55.3504 34.9627 54.6183 34.9627 53.7151C34.9627 52.8119 34.23 52.0798 33.3261 52.0798ZM29.413 53.7151C29.413 51.5557 31.1649 49.8051 33.3261 49.8051C35.4873 49.8051 37.2393 51.5557 37.2393 53.7151C37.2393 55.8745 35.4873 57.6251 33.3261 57.6251C31.1649 57.6251 29.413 55.8745 29.413 53.7151Z" fill="white"></path>
  <path d="M33.3261 56.4878C34.8587 56.4878 36.101 55.2464 36.101 53.7151C36.101 52.1838 34.8587 50.9424 33.3261 50.9424C31.7936 50.9424 30.5512 52.1838 30.5512 53.7151C30.5512 55.2464 31.7936 56.4878 33.3261 56.4878Z" fill="#2684FB"></path>
  <path fill-rule="evenodd" clip-rule="evenodd" d="M41.5455 17.1655C40.6416 17.1655 39.9089 17.8976 39.9089 18.8008C39.9089 19.704 40.6416 20.4361 41.5455 20.4361C42.4494 20.4361 43.1821 19.704 43.1821 18.8008C43.1821 17.8976 42.4494 17.1655 41.5455 17.1655ZM37.6323 18.8008C37.6323 16.6414 39.3843 14.8908 41.5455 14.8908C43.7067 14.8908 45.4586 16.6414 45.4586 18.8008C45.4586 20.9602 43.7067 22.7108 41.5455 22.7108C39.3843 22.7108 37.6323 20.9602 37.6323 18.8008Z" fill="white"></path>
  <path d="M41.5455 21.5735C43.078 21.5735 44.3204 20.3321 44.3204 18.8008C44.3204 17.2695 43.078 16.0281 41.5455 16.0281C40.013 16.0281 38.7706 17.2695 38.7706 18.8008C38.7706 20.3321 40.013 21.5735 41.5455 21.5735Z" fill="#2684FB"></path>
  <defs>
    <radialGradient id="paint0_radial_5451_19053" cx="0" cy="0" r="1" gradientUnits="userSpaceOnUse" gradientTransform="translate(33.1173 29.1315) scale(40.0202 38.8398)">
      <stop stop-color="#F7FBFF"></stop>
      <stop offset="0.5" stop-color="#D9EBFF"></stop>
      <stop offset="0.74" stop-color="#A3D3FF"></stop>
      <stop offset="1" stop-color="#2684FB"></stop>
    </radialGradient>
  </defs>
</svg>
