<?xml version="1.0" encoding="UTF-8"?>
<svg xmlns="http://www.w3.org/2000/svg" width="60" height="60" viewBox="0 0 60 60" fill="none">
  <path d="M27.9553 5.53328C28.5806 5.1836 29.2851 5 30.0016 5C30.718 5 31.4225 5.1836 32.0478 5.53328L50.7453 16.0958C51.3311 16.4293 51.8191 16.9108 52.1604 17.4921C52.5018 18.0734 52.6845 18.7342 52.6903 19.4083V40.5958C52.6788 41.2959 52.4786 41.9799 52.1108 42.5757C51.7429 43.1714 51.2211 43.6569 50.6003 43.9808L31.9703 54.4908C31.3332 54.8429 30.6135 55.0179 29.8859 54.9977C29.1583 54.9775 28.4493 54.7627 27.8328 54.3758L22.2428 51.1458C21.8336 50.9629 21.4661 50.6983 21.1628 50.3683C21.4003 50.0483 21.8253 50.0083 22.1703 49.8683C22.9366 49.5945 23.6757 49.2497 24.3778 48.8383C24.4662 48.7861 24.5682 48.7616 24.6707 48.7679C24.7731 48.7741 24.8714 48.8108 24.9528 48.8733C26.5428 49.7858 28.1203 50.7258 29.7203 51.6308C30.0603 51.8283 30.4053 51.5658 30.6953 51.4058C36.792 47.9591 42.8895 44.5174 48.9878 41.0808C49.0966 41.0265 49.1865 40.9407 49.2458 40.8346C49.3051 40.7284 49.3311 40.6069 49.3203 40.4858C49.3253 33.4974 49.3261 26.5083 49.3228 19.5183C49.3338 19.3825 49.3021 19.2466 49.2322 19.1297C49.1622 19.0127 49.0576 18.9205 48.9328 18.8658C42.7428 15.3791 36.5545 11.8908 30.3678 8.40078C30.2604 8.32704 30.1331 8.28757 30.0028 8.28757C29.8725 8.28757 29.7453 8.32704 29.6378 8.40078C23.4495 11.8874 17.2628 15.3766 11.0778 18.8683C10.9523 18.9215 10.8468 19.013 10.7763 19.1297C10.7058 19.2464 10.674 19.3824 10.6853 19.5183V40.4858C10.6748 40.6065 10.7015 40.7275 10.7618 40.8325C10.8221 40.9376 10.9132 41.0216 11.0228 41.0733C12.6728 42.0099 14.3253 42.9433 15.9803 43.8733C16.4387 44.1567 16.9518 44.3401 17.486 44.4116C18.0202 44.4831 18.5635 44.4411 19.0803 44.2883C19.5289 44.1195 19.9152 43.8176 20.1873 43.423C20.4595 43.0284 20.6044 42.5601 20.6028 42.0808C20.6103 35.1308 20.5978 28.1808 20.6078 21.2358C20.6061 21.162 20.62 21.0888 20.6485 21.0208C20.6771 20.9528 20.7196 20.8915 20.7734 20.841C20.8272 20.7906 20.891 20.752 20.9607 20.7278C21.0303 20.7036 21.1043 20.6944 21.1778 20.7008C21.9728 20.6958 22.7653 20.6908 23.5603 20.7033C23.6375 20.7069 23.7131 20.7268 23.7821 20.7616C23.8511 20.7963 23.912 20.8453 23.9609 20.9052C24.0097 20.9651 24.0453 21.0347 24.0655 21.1093C24.0856 21.1839 24.0898 21.2619 24.0778 21.3383C24.0753 28.3308 24.0853 35.3233 24.0728 42.3133C24.1261 43.2635 23.9234 44.2106 23.4859 45.0558C23.0484 45.901 22.392 46.6133 21.5853 47.1183C20.508 47.6202 19.3287 47.8645 18.1407 47.832C16.9527 47.7994 15.7885 47.4909 14.7403 46.9308C12.9228 46.0233 11.1903 44.9558 9.40781 43.9808C8.787 43.6572 8.26523 43.1717 7.89775 42.5759C7.53027 41.98 7.33075 41.2958 7.32031 40.5958V19.4083C7.32564 18.7206 7.51483 18.0469 7.86826 17.457C8.22168 16.867 8.72648 16.3824 9.33031 16.0533C15.5403 12.5483 21.7495 9.04161 27.9578 5.53328H27.9553Z" fill="#689F63"></path>
  <path d="M33.3674 20.2071C36.1116 19.8526 38.9002 20.2798 41.4124 21.4396C42.3228 21.9827 43.0755 22.7542 43.596 23.6776C44.1165 24.6011 44.3867 25.6446 44.3799 26.7046C44.3447 26.8372 44.2629 26.9527 44.1495 27.0298C44.0361 27.107 43.8986 27.1406 43.7624 27.1246C42.9749 27.1246 42.1899 27.1346 41.4049 27.1196C41.2533 27.1103 41.1108 27.0445 41.0053 26.9353C40.8998 26.8261 40.839 26.6814 40.8349 26.5296C40.7457 26.0164 40.5458 25.5287 40.2493 25.1004C39.9527 24.6722 39.5664 24.3136 39.1174 24.0496C37.6228 23.4556 36.0087 23.2243 34.4074 23.3746C33.2272 23.3379 32.0599 23.6286 31.0349 24.2146C30.6819 24.4884 30.4235 24.866 30.2962 25.2942C30.1688 25.7225 30.1789 26.1799 30.3249 26.6021C30.5774 27.2021 31.2699 27.3946 31.8374 27.5721C35.1024 28.4271 38.5624 28.3421 41.7624 29.4646C42.4499 29.6559 43.0844 30.0021 43.6174 30.4766C44.1505 30.9511 44.5678 31.5414 44.8374 32.2021C45.1582 33.1391 45.2357 34.1423 45.0625 35.1175C44.8894 36.0927 44.4712 37.0078 43.8474 37.7771C42.7188 38.9497 41.2522 39.7406 39.6524 40.0396C37.569 40.463 35.4317 40.5541 33.3199 40.3096C31.2931 40.1932 29.35 39.4615 27.7499 38.2121C27.116 37.6297 26.6186 36.9145 26.2932 36.1176C25.9677 35.3207 25.8223 34.4617 25.8674 33.6021C25.8831 33.4642 25.9526 33.3381 26.0607 33.251C26.1688 33.164 26.3068 33.1231 26.4449 33.1371C27.2374 33.1296 28.0274 33.1271 28.8199 33.1371C28.8932 33.1358 28.966 33.149 29.0342 33.176C29.1024 33.203 29.1645 33.2432 29.217 33.2943C29.2696 33.3455 29.3114 33.4065 29.3403 33.4739C29.3691 33.5413 29.3842 33.6138 29.3849 33.6871C29.4238 34.1772 29.5629 34.6541 29.7933 35.0884C30.0238 35.5227 30.3408 35.9051 30.7249 36.2121C32.4193 37.0459 34.3128 37.3905 36.1924 37.2071C37.766 37.3272 39.337 36.9428 40.6774 36.1096C40.9863 35.8084 41.211 35.4317 41.3294 35.0169C41.4478 34.602 41.4557 34.1634 41.3524 33.7446C41.1574 33.0446 40.4274 32.7196 39.7999 32.5071C36.5749 31.4871 33.0799 31.8571 29.8874 30.7071C29.2179 30.5107 28.5989 30.1713 28.0732 29.7125C27.5475 29.2537 27.1276 28.6864 26.8424 28.0496C26.4758 27.0999 26.3831 26.0664 26.5749 25.0667C26.7667 24.067 27.2353 23.1411 27.9274 22.3946C29.4358 21.0626 31.3567 20.2901 33.3674 20.2071Z" fill="#689F63"></path>
</svg>
