<?xml version="1.0" encoding="UTF-8"?>
<svg xmlns="http://www.w3.org/2000/svg" width="60" height="60" viewBox="0 0 60 60" fill="none">
  <g clip-path="url(#clip0_5757_33808)">
    <path d="M30 60C46.5685 60 60 46.5685 60 30C60 13.4315 46.5685 0 30 0C13.4315 0 0 13.4315 0 30C0 46.5685 13.4315 60 30 60Z" fill="white"></path>
    <path fill-rule="evenodd" clip-rule="evenodd" d="M35.5752 11.3355L14.763 12.867C13.0849 13.0122 12.5 14.1062 12.5 15.4177V38.1645C12.5 39.1865 12.8645 40.06 13.7413 41.2275L18.6336 47.5704C19.4373 48.5918 20.1675 48.8102 21.702 48.7371L45.8711 47.2788C47.9152 47.1336 48.5 46.1851 48.5 44.5813V18.9906C48.5 18.1615 48.1717 17.922 47.204 17.216C47.1507 17.1772 47.0955 17.137 47.0384 17.0951L40.3949 12.4292C38.7885 11.2632 38.131 11.1165 35.5752 11.3355ZM22.25 18.5709C20.2767 18.704 19.8284 18.7342 18.7077 17.8245L15.8581 15.5645C15.5675 15.2722 15.7132 14.9077 16.443 14.8354L36.4516 13.3771C38.1306 13.231 39.0068 13.8152 39.6642 14.3252L43.0961 16.8044C43.2422 16.877 43.6067 17.3139 43.1684 17.3139L22.5047 18.5537L22.25 18.5709ZM19.9484 44.3621V22.6366C19.9484 21.689 20.2405 21.2512 21.1162 21.1776L44.8478 19.7929C45.6528 19.72 46.0173 20.2307 46.0173 21.1776V42.7575C46.0173 43.706 45.8708 44.509 44.5559 44.5813L21.8466 45.8944C20.5324 45.9666 19.9484 45.5298 19.9484 44.3621ZM42.367 23.802C42.5126 24.4589 42.367 25.115 41.7085 25.1889L40.6143 25.4067V41.4459C39.6643 41.9561 38.7882 42.2479 38.0583 42.2479C36.8895 42.2479 36.5968 41.883 35.7214 40.79L28.5641 29.5625V40.4255L30.8289 40.9361C30.8289 40.9361 30.8289 42.2479 29.0018 42.2479L23.9645 42.5399C23.8181 42.2479 23.9645 41.5194 24.4754 41.3734L25.7899 41.0094V26.6465L23.9648 26.5004C23.8184 25.8436 24.1829 24.8966 25.206 24.8231L30.6099 24.4591L38.0583 35.8328V25.7712L36.1593 25.5535C36.0134 24.7505 36.5968 24.1675 37.3271 24.0951L42.367 23.802Z" fill="#0B0028"></path>
  </g>
  <defs>
    <clipPath id="clip0_5757_33808">
      <rect width="60" height="60" fill="white"></rect>
    </clipPath>
  </defs>
</svg>
