<?xml version="1.0" encoding="UTF-8"?>
<svg xmlns="http://www.w3.org/2000/svg" width="134" height="60" viewBox="0 0 134 60" fill="none">
  <path d="M59.2151 32.1076H66.7469L62.7636 26.0541L55.4532 36.9991H52.1261L61.0183 23.8521C61.4051 23.321 62.0487 23 62.7636 23C63.4551 23 64.0995 23.3099 64.4737 23.8299L73.4002 36.9991H70.0731L68.504 34.553H60.8773L59.2151 32.1076ZM93.7741 34.553V23.1332H90.9513V35.6715C90.9513 36.0147 91.0923 36.3468 91.3617 36.6013C91.631 36.8557 91.9944 36.9991 92.393 36.9991H105.268L106.932 34.553H93.7741ZM47.0654 32.5064C49.8068 32.5064 52.033 30.4154 52.033 27.8258C52.033 25.2361 49.8077 23.1332 47.0654 23.1332H34.7142V37H37.5369V25.5785H46.8783C48.1907 25.5785 49.2446 26.586 49.2446 27.8249C49.2446 29.0638 48.1898 30.0713 46.8783 30.0713L38.9189 30.0602L47.3465 36.9991H51.4482L45.7774 32.5055L47.0654 32.5064ZM17.3411 36.9991C13.2891 36.9991 10 33.9007 10 30.0713C10 26.2419 13.2882 23.1323 17.3411 23.1323H25.8726C29.9265 23.1323 33.2129 26.2428 33.2129 30.0713C33.2129 33.8998 29.9265 36.9991 25.8726 36.9991H17.3411ZM25.6828 34.553C28.3085 34.553 30.4353 32.5499 30.4353 30.0713C30.4353 27.5927 28.3085 25.5777 25.6828 25.5777H17.5291C14.9061 25.5777 12.7785 27.5918 12.7785 30.0713C12.7785 32.5499 14.9061 34.553 17.5291 34.553H25.6828ZM79.2943 36.9991C75.2414 36.9991 71.9495 33.9007 71.9495 30.0713C71.9495 26.2419 75.2414 23.1323 79.2943 23.1323H89.4283L87.7752 25.5777H79.4823C76.8575 25.5777 74.7244 27.5918 74.7244 30.0713C74.7244 32.5499 76.8575 34.553 79.4823 34.553H89.6624L87.9993 36.9991H79.2943ZM113.819 34.553C111.652 34.553 109.812 33.1809 109.25 31.288H121.316L122.98 28.8427H109.25C109.812 26.9617 111.652 25.5777 113.819 25.5777H122.101L123.777 23.1323H113.631C109.578 23.1323 106.286 26.2428 106.286 30.0713C106.286 33.8998 109.578 36.9991 113.631 36.9991H122.336L124 34.553H113.819Z" fill="#EA1B22"></path>
</svg>
