<?xml version="1.0" encoding="UTF-8"?>
<svg xmlns="http://www.w3.org/2000/svg" width="60" height="60" viewBox="0 0 60 60" fill="none">
  <g clip-path="url(#clip0_5757_33941)">
    <path d="M0.141533 26.6664C0.35368 24.5871 0.815491 22.5619 1.47694 20.5821C2.66726 17.0179 4.46549 13.7904 6.87013 10.9026C10.1173 7.00314 14.0861 4.08331 18.7858 2.17112C21.4466 1.08844 24.211 0.413519 27.0754 0.141849C29.9154 -0.127319 32.7378 -0.0192513 35.5372 0.516083C40.2499 1.41715 44.5068 3.34435 48.3019 6.28269C51.7538 8.95536 54.4997 12.2249 56.5456 16.0798C57.9645 18.7535 58.9442 21.5822 59.5001 24.5586C59.9149 26.7795 60.0655 29.0204 59.9744 31.2758C59.8318 34.804 59.0923 38.2071 57.7254 41.4632C55.3808 47.0477 51.6858 51.537 46.6798 54.9411C43.4376 57.146 39.8857 58.6434 36.0466 59.4269C34.8262 59.6761 33.5764 59.7816 32.3405 59.9542C32.2675 59.9642 32.1954 59.9842 32.1234 59.9993H27.8705C27.4412 59.9517 27.0119 59.9027 26.5821 59.8562C24.1359 59.591 21.7653 59.0116 19.4647 58.1446C15.8102 56.7667 12.5415 54.7575 9.67704 52.1048C5.32307 48.0728 2.37706 43.1873 0.879036 37.4392C0.443741 35.7676 0.159542 34.0701 0.0444641 32.345C0.0394592 32.2724 0.0154457 32.2009 0.000434875 32.1288V27.8757C0.047966 27.4724 0.100506 27.0702 0.142033 26.6664H0.141533ZM30.2986 56.7122C44.8546 56.5271 56.6757 44.5921 56.6627 30.027C56.6496 15.1237 44.4643 3.28782 29.9279 3.33535C14.9431 3.38388 3.26617 15.6676 3.28918 29.998C3.25266 44.7852 15.485 56.9008 30.2986 56.7122Z" fill="#F16030"></path>
    <path d="M38.8092 24.996C40.6244 23.3489 42.3651 21.6259 44.0262 19.8227C44.0767 19.7677 44.1338 19.7187 44.2148 19.6406V47.7447H38.6285V47.487C38.6285 40.1249 38.6285 32.7628 38.6245 25.4012C38.6245 25.2261 38.6806 25.1125 38.8092 24.9965V24.996Z" fill="#F16030"></path>
    <path d="M30.3889 31.6101C31.8924 30.5195 33.392 29.4233 34.8885 28.3231C35.2007 28.0939 35.4964 27.8423 35.8281 27.5781V47.7442H30.2328C30.2283 47.6572 30.2208 47.5841 30.2208 47.5111C30.2203 42.3178 30.2208 37.1246 30.2168 31.9313C30.2168 31.7803 30.2668 31.6977 30.3884 31.6091L30.3889 31.6101Z" fill="#F16030"></path>
    <path d="M13.6606 34.314C16.1443 33.7442 18.5294 32.8881 20.844 31.829C24.8147 30.0118 28.4547 27.6619 31.878 24.9672C35.3314 22.2485 38.502 19.2286 41.4355 15.9575C41.7618 15.5938 42.0795 15.2231 42.4152 14.8398C41.6237 14.2215 40.8606 13.6251 40.0531 12.9942C41.9974 12.7525 43.8832 12.5179 45.7855 12.2812C46.0247 14.2015 46.2583 16.0796 46.5 18.0198C45.6759 17.3769 44.9039 16.7746 44.1219 16.1642C44.0138 16.2928 43.9202 16.4078 43.8222 16.5199C42.128 18.4611 40.3478 20.3198 38.477 22.0919C35.3289 25.0732 31.9706 27.7884 28.3271 30.1459C25.2745 32.1207 22.0708 33.7967 18.657 35.0615C16.9698 35.6864 15.2466 36.1847 13.4544 36.5849C13.4544 35.8935 13.4594 35.2356 13.4509 34.5782C13.4489 34.4156 13.4954 34.3525 13.6606 34.3145V34.314Z" fill="#F16030"></path>
    <path d="M22.048 36.2222C23.8302 35.4487 25.5519 34.5551 27.2316 33.5795C27.2931 33.544 27.3586 33.516 27.4297 33.4805V47.7439H21.8354C21.8354 47.6498 21.8354 47.5683 21.8354 47.4872C21.8364 43.8434 21.8384 40.1997 21.8344 36.5559C21.8344 36.3828 21.8814 36.2947 22.048 36.2222Z" fill="#F16030"></path>
    <path d="M19.0469 47.7379H13.4706V39.058C15.3498 38.5331 17.2031 38.0153 19.0469 37.5V47.7379Z" fill="#F16030"></path>
  </g>
  <defs>
    <clipPath id="clip0_5757_33941">
      <rect width="60" height="60" fill="white" transform="matrix(-1 0 0 1 60 0)"></rect>
    </clipPath>
  </defs>
</svg>
