<?xml version="1.0" encoding="UTF-8"?>
<svg xmlns="http://www.w3.org/2000/svg" width="120" height="60" viewBox="0 0 120 60" fill="none">
  <path d="M60 0C26.8642 0 0 13.4317 0 30C0 46.5683 26.8642 60 60 60C93.1358 60 120 46.5683 120 30C120 13.4317 93.1358 0 60 0ZM44.3877 35.8448C42.9558 37.1664 41.3658 37.712 39.6147 38.274C37.8636 38.8369 35.6353 38.7206 32.9257 38.7206H26.7846L25.0827 48.4103H17.9124L24.3107 15.4656H38.0993C42.2477 15.4656 45.2735 16.6429 47.1758 18.7911C49.0781 20.9392 49.6497 23.9886 48.8915 27.8382C48.5783 29.4244 48.0509 30.8992 47.3064 32.2131C46.561 33.528 45.5878 34.7557 44.3877 35.8448ZM65.3171 38.7206L68.1465 24.7482C68.4686 23.1126 68.3507 21.8976 67.7919 21.3036C67.2321 20.7086 66.0418 20.3104 64.222 20.3104H58.5357L54.8715 38.7206H47.7572L54.1556 6.74494H61.2698L59.5689 15.4656H65.9063C69.8946 15.4656 72.6444 16.2553 74.1579 17.6273C75.6713 18.9994 76.125 20.8792 75.52 23.9527L72.5433 38.7206H65.3171ZM104.855 27.8896C104.543 29.4758 104.014 30.9254 103.271 32.2383C102.527 33.5532 101.554 34.7557 100.353 35.8448C98.9213 37.1664 97.3303 37.712 95.5803 38.274C93.8302 38.8369 91.5998 38.7206 88.8902 38.7206H82.7492L81.0482 48.4103H73.878L80.2753 15.4656H94.0649C98.2132 15.4656 101.239 16.6429 103.14 18.7911C105.041 20.9392 105.613 24.0409 104.855 27.8896ZM91.3474 20.3104H86.436L83.7578 33.8758H88.1203C91.0096 33.8758 93.1643 33.5948 94.5785 32.5193C95.9947 31.4457 96.9483 29.7791 97.4443 27.2666C97.9196 24.8529 97.7035 22.9702 96.7961 21.978C95.8876 20.9858 94.0718 20.3104 91.3474 20.3104ZM35.3829 20.3104H30.4704L27.7923 33.8758H32.1537C35.044 33.8758 37.1978 33.5948 38.613 32.5193C40.0282 31.4457 40.9827 29.7791 41.4777 27.2666C41.9531 24.8529 41.737 22.9702 40.8295 21.978C39.9221 20.9858 38.1072 20.3104 35.3829 20.3104Z" fill="#777BB3"></path>
</svg>
