<?xml version="1.0" encoding="UTF-8"?>
<svg xmlns="http://www.w3.org/2000/svg" width="60" height="60" viewBox="0 0 60 60" fill="none">
  <path d="M2.03067 37.4031C2.03067 32.1067 2.03301 26.8104 2.02832 21.5141C2.02832 20.4609 2.16434 19.4476 2.76706 18.554C3.47063 17.5125 4.46265 16.9144 5.70093 16.7831C6.46547 16.701 7.24174 16.7127 8.01331 16.7127C10.9448 16.7056 13.8764 16.7455 16.8055 16.6986C18.0063 16.6798 19.0194 16.1239 19.6761 15.0919C20.2061 14.2569 20.1662 13.3304 19.7957 12.4461C19.5565 11.8761 19.2141 11.346 18.9021 10.8065C18.6536 10.3749 18.3792 9.95975 18.1188 9.5352C17.4247 8.39994 17.4294 7.1732 17.8046 5.96992C18.5222 3.66421 20.185 2.40932 22.5279 2.07156C25.1052 1.69861 27.4927 3.15991 28.3815 5.52895C28.8998 6.90815 28.8693 8.28031 28.1024 9.58915C27.5701 10.4969 27.026 11.3999 26.5382 12.3335C26.1981 12.9832 26.1582 13.7056 26.3506 14.4164C26.6249 15.432 27.3613 16.0278 28.2807 16.4406C28.9256 16.7291 29.6104 16.7221 30.2952 16.7268C32.9711 16.7455 35.6493 16.7549 38.3252 16.7807C38.8013 16.7854 39.2868 16.8042 39.7535 16.8909C41.374 17.1912 42.6826 18.5188 42.9664 20.1419C43.0415 20.5712 43.0766 21.0145 43.0766 21.4531C43.0766 24.3851 43.0649 27.3171 43.0602 30.249C43.0602 30.6877 43.0907 31.1286 43.079 31.5673C43.0649 32.1067 43.2807 32.5524 43.6653 32.8902C44.4181 33.5516 45.2882 33.9832 46.3154 33.9644C46.9064 33.9527 47.4692 33.7956 47.9453 33.4156C48.1517 33.2514 48.3557 33.0848 48.5574 32.9136C50.5508 31.2295 52.7413 30.9644 55.0701 32.088C56.7774 32.9113 57.7131 34.3069 57.9477 36.2115C58.2103 38.346 56.9861 40.7103 54.9575 41.6978C52.9406 42.6806 50.6282 42.5164 48.8177 40.9871C48.5856 40.7924 48.3534 40.6001 48.1118 40.4148C47.0752 39.6243 45.9636 39.5117 44.8051 40.1028C44.3853 40.3163 43.9795 40.586 43.6184 40.8909C43.2478 41.2029 43.0813 41.6486 43.0813 42.1435C43.0813 45.758 43.0743 49.3749 43.0837 52.9895C43.086 53.8949 43.0602 54.7956 42.6428 55.6165C41.8993 57.0755 40.6916 57.9128 39.0499 57.9457C36.5194 57.9973 33.9889 57.9644 31.4584 57.9644C23.0157 57.9644 14.5752 57.9691 6.13245 57.9597C3.93264 57.9597 2.07053 56.149 2.05412 53.9465C2.02363 49.7924 2.04005 45.6407 2.0377 41.4867C2.0377 40.1286 2.0377 38.7705 2.0377 37.4124H2.02832L2.03067 37.4031Z" fill="#009987"></path>
  <path d="M8.10742 36.8993V36.3645C8.10742 36.09 8.24813 35.8696 8.52956 35.7054L13.9822 32.4779C14.1299 32.3793 14.2777 32.3301 14.4278 32.3301C14.6037 32.3301 14.7608 32.3981 14.9015 32.5365C15.0422 32.6749 15.1126 32.8414 15.1126 33.0408C15.1126 33.2988 15.0117 33.4888 14.8077 33.6108L9.70686 36.6295L14.81 39.6295C15.0117 39.7609 15.1126 39.9579 15.1126 40.2159C15.1126 40.4153 15.0422 40.5818 14.9015 40.7202C14.7608 40.8586 14.6037 40.9266 14.4278 40.9266C14.2894 40.9266 14.1417 40.8774 13.9822 40.7789L8.52722 37.5607C8.24814 37.4059 8.10742 37.1878 8.10742 36.9016V36.8993Z" fill="white"></path>
  <path d="M25.2462 32.3693L19.6247 41.9017C19.538 42.0448 19.3973 42.1175 19.205 42.1175C19.0244 42.1175 18.8555 42.0566 18.6984 41.9322C18.5413 41.8079 18.4639 41.6508 18.4639 41.4584C18.4639 41.2872 18.5178 41.1066 18.628 40.9143L24.2519 31.3912C24.3457 31.2411 24.4887 31.166 24.6857 31.166C24.8616 31.166 25.0258 31.2247 25.1829 31.3443C25.3377 31.4616 25.4174 31.6187 25.4174 31.8087C25.4174 31.9893 25.3588 32.177 25.2439 32.3693H25.2462Z" fill="white"></path>
  <path d="M35.6686 36.3606V36.8977C35.6686 37.1792 35.535 37.3997 35.2676 37.5592L29.8103 40.775C29.6508 40.8735 29.5007 40.9227 29.3577 40.9227C29.1818 40.9227 29.0246 40.8571 28.8839 40.7257C28.7432 40.5943 28.6729 40.4255 28.6729 40.2214C28.6729 39.9587 28.776 39.7664 28.9848 39.6444L34.0786 36.6256L28.9848 33.6256C28.776 33.4943 28.6729 33.2949 28.6729 33.0298C28.6729 32.8258 28.7432 32.6569 28.8839 32.5255C29.0246 32.3942 29.1818 32.3262 29.3577 32.3262C29.496 32.3262 29.6461 32.3754 29.8103 32.4739L35.2653 35.6968C35.5326 35.8563 35.6686 36.0768 35.6686 36.3582V36.3606Z" fill="white"></path>
</svg>
