<?xml version="1.0" encoding="UTF-8"?>
<svg xmlns="http://www.w3.org/2000/svg" width="60" height="60" viewBox="0 0 60 60" fill="none">
  <path fill-rule="evenodd" clip-rule="evenodd" d="M57.7772 35.9925C57.5662 34.6247 56.4173 33.7289 55.0809 33.6684C54.5972 33.6464 54.1059 33.697 53.6236 33.7584C53.0409 33.8325 52.4653 33.9637 51.8841 34.0505C51.4823 34.1105 51.075 34.1381 50.6737 34.1794L50.6639 34.1273C51.413 32.7127 52.1934 31.3134 52.9022 29.8786C53.4455 28.778 53.9105 27.6375 54.3909 26.5064C55.1859 24.6323 55.8211 22.7002 56.347 20.7366C56.8509 18.8564 57.2822 16.9556 57.4177 15.0052C57.472 14.2261 57.5095 13.4438 57.5053 12.6638C57.5016 12.0417 57.4345 11.4188 57.3722 10.7986C57.3019 10.088 57.0872 9.41438 56.79 8.76609C56.3981 7.91203 55.7906 7.21125 55.1512 6.54562C54.6394 6.01266 54.0764 5.52703 53.5181 5.04187C52.7222 4.34953 51.8273 3.79688 50.8978 3.30609C49.8417 2.74828 48.7317 2.31187 47.5744 2.01703C46.8745 1.83844 46.1587 1.70578 45.45 1.56422C45.195 1.51266 44.9395 1.40625 44.6845 1.40625H39.8841C39.7106 1.40625 39.5386 1.49578 39.3638 1.51547C38.2144 1.64344 37.0786 1.86 35.9756 2.20172C35.5631 2.32969 35.1862 2.24906 34.7944 2.21297C34.4939 2.18531 34.1986 2.10469 33.8981 2.08969C32.7534 2.0325 31.6073 1.94859 30.4631 1.96078C29.3667 1.97203 28.2816 2.1525 27.2203 2.45391C26.332 2.70609 25.463 3.01406 24.667 3.48094C24.3263 3.68062 24.0562 3.64312 23.7038 3.54141C22.5192 3.19969 21.3263 2.87859 20.123 2.60906C19.373 2.44125 18.6019 2.35781 17.8359 2.27766C17.1019 2.20125 16.3622 2.15531 15.6244 2.13984C14.9034 2.12438 14.1773 2.12484 13.4597 2.18859C12.3164 2.29031 11.1947 2.52281 10.1044 2.89781C8.89359 3.31406 7.78359 3.91734 6.78281 4.70953C5.76703 5.51344 4.95234 6.495 4.29703 7.61578C3.60656 8.79844 3.13313 10.0645 2.83875 11.3944C2.67938 12.1148 2.57859 12.8555 2.46938 13.5872C2.43516 13.815 2.8125 14.0428 2.34375 14.2697V17.4544C2.8125 17.6663 2.44125 17.8777 2.46844 18.09C2.53359 18.6005 2.59125 19.1152 2.6775 19.6219C2.81391 20.4239 2.97562 21.2236 3.14062 22.0205C3.37078 23.1338 3.61031 24.2461 3.86531 25.3538C4.05094 26.16 4.26234 26.9616 4.48359 27.7589C4.82156 28.9767 5.15437 30.1969 5.53641 31.4011C5.89125 32.52 6.29766 33.623 6.70078 34.7259C7.25906 36.2517 7.9275 37.7283 8.72906 39.1434C9.42234 40.3687 10.2145 41.5163 11.2772 42.4603C11.9775 43.0823 12.757 43.5605 13.6645 43.7995C14.3775 43.987 15.1022 44.0095 15.832 43.86C16.6781 43.6866 17.4272 43.3223 18.0933 42.7767C18.1697 42.7139 18.2536 42.6661 18.3441 42.7814C18.6886 43.2178 19.1498 43.5089 19.6322 43.7606C20.9339 44.4394 22.3523 44.6428 23.7933 44.7258C24.142 44.7459 24.4945 44.6958 24.8461 44.6859C25.5309 44.6672 26.1966 44.5336 26.8514 44.3442C27.1945 44.2448 27.5297 44.1188 27.8789 44.0011C27.8972 44.3728 27.9206 44.7309 27.9314 45.0891L27.9802 47.0419C27.9891 47.3391 28.0008 47.6372 28.0284 47.933C28.0992 48.6956 28.1686 49.4588 28.2595 50.2191C28.3228 50.7431 28.3884 51.2714 28.5117 51.7828C28.7597 52.8155 29.0958 53.8209 29.5233 54.7959C29.9428 55.7527 30.5461 56.5603 31.3514 57.2264C32.392 58.087 33.6117 58.4541 34.9289 58.522C35.4736 58.5506 36.0337 58.5239 36.57 58.4264C37.4198 58.2722 38.2678 58.0781 39.0952 57.8287C40.7784 57.3206 42.2334 56.4431 43.3205 55.0252C43.9392 54.217 44.4473 53.3428 44.7736 52.3777C45.0427 51.5803 45.2962 50.775 45.4978 49.9589C45.6572 49.3158 45.7359 48.6525 45.833 47.9958C45.8972 47.5612 45.9356 47.1225 45.9759 46.6847C46.0416 45.9736 46.1086 45.263 46.1559 44.5505C46.1888 44.0545 46.1873 43.5563 46.207 43.0594C46.2131 42.908 46.2375 42.7575 46.2516 42.6066C46.2647 42.4669 46.335 42.4186 46.4775 42.4209C46.9795 42.4284 47.4825 42.4416 47.9831 42.4191C48.5442 42.3938 49.1105 42.3698 49.6627 42.277C50.4487 42.1453 51.2311 41.9789 52.0017 41.7769C52.9125 41.5387 53.7478 41.1122 54.5517 40.6261C55.4883 40.0603 56.3419 39.3966 57.0347 38.5416C57.637 37.7958 57.9225 36.9338 57.7772 35.9925ZM56.1778 36.4528C56.1469 36.8817 55.9505 37.2492 55.6655 37.5633C54.3206 39.0459 52.6336 39.9455 50.7038 40.3884C49.9706 40.5563 49.2141 40.6434 48.4636 40.7128C47.8247 40.7719 47.1764 40.7817 46.5352 40.7583C46.0636 40.7405 45.5958 40.6327 45.1139 40.5633C45.0656 41.0039 45.0197 41.4628 44.9639 41.9208L44.7394 43.6763C44.6714 44.2327 44.6184 44.7909 44.5486 45.3469C44.4802 45.8864 44.3948 46.4241 44.3231 46.9636C44.2561 47.4661 44.2069 47.9709 44.1323 48.4725C44.0175 49.2412 43.9078 50.0119 43.7578 50.7745C43.5778 51.6862 43.3017 52.5694 42.8512 53.3916C42.3019 54.3952 41.5228 55.1597 40.5314 55.7259C39.5095 56.31 38.3925 56.6138 37.26 56.8678C36.4584 57.0478 35.6325 57.0773 34.8206 57.0042C33.4125 56.8767 32.2106 56.2744 31.3022 55.1827C30.435 54.1406 29.8481 52.9463 29.6381 51.5944C29.5378 50.9517 29.4656 50.3034 29.408 49.6556C29.3442 48.9352 29.3006 48.2123 29.2678 47.49C29.2261 46.5727 29.1956 45.6553 29.1755 44.738C29.1506 43.6102 29.1427 42.4823 29.1267 41.3545L29.1239 41.3114C28.5502 41.6555 27.9862 42.0323 27.3881 42.3427C26.6878 42.7064 25.927 42.9173 25.1391 42.9769C24.5212 43.0238 23.8955 43.0664 23.2805 43.0172C22.2722 42.9361 21.2648 42.7781 20.362 42.2817C19.9959 42.0802 19.6139 41.835 19.3617 41.513C18.757 40.7414 19.0467 39.7664 19.9584 39.2972C20.5884 38.9723 21.2761 38.8369 21.9591 38.6789C22.5525 38.5416 23.1431 38.3855 23.722 38.1966C24.2948 38.0091 24.6562 37.5445 25.013 37.0889L25.5783 36.3619C25.3425 36.337 25.1203 36.3117 24.8981 36.2911C24.2236 36.2273 23.58 36.0417 22.9645 35.7689C22.4377 35.5359 22.4297 35.5106 22.0434 35.9297C21.3984 36.63 20.7712 37.3467 20.1394 38.0588C19.6744 38.5823 19.2122 39.1092 18.7495 39.6342C18.2911 40.1536 17.8617 40.7025 17.3681 41.1858C16.635 41.9034 15.7514 42.3352 14.6972 42.2864C14.0208 42.2555 13.4016 42.0183 12.8447 41.6306C11.6953 40.83 10.9209 39.7102 10.2159 38.5341C9.31266 37.027 8.61937 35.4216 8.02594 33.772C7.61531 32.632 7.20281 31.4911 6.84422 30.3347C6.45469 29.078 6.11297 27.8053 5.77688 26.5331C5.52281 25.5731 5.29734 24.6052 5.08219 23.6353C4.83797 22.5323 4.60313 21.4275 4.39594 20.317C4.25625 19.5675 4.17516 18.8072 4.06219 18.0525C3.90984 17.0353 3.88172 16.0087 3.93703 14.9873C3.98625 14.0672 4.11844 13.1494 4.24969 12.2353C4.43156 10.9706 4.84828 9.77719 5.44781 8.65031C5.81484 7.95984 6.27047 7.33219 6.79734 6.74906C7.66219 5.79187 8.70891 5.1 9.87328 4.58063C10.687 4.21781 11.5467 3.99938 12.4228 3.82875C13.7231 3.57563 15.0352 3.58547 16.3477 3.61266C16.9214 3.62437 17.4928 3.72891 18.0661 3.78562C19.3003 3.90844 20.5102 4.16813 21.7045 4.48875C22.575 4.72219 23.4277 5.02453 24.2911 5.28703C24.3778 5.31328 24.5048 5.31094 24.5756 5.26453C25.7456 4.50094 27.0244 3.99703 28.3842 3.70875C28.9003 3.59953 29.4328 3.55172 29.9606 3.51797C30.6023 3.47719 31.2492 3.43969 31.8895 3.47672C32.6592 3.52078 33.4252 3.63422 34.1902 3.73922C34.5614 3.78984 34.9237 3.91875 35.2959 3.95391C35.4741 3.97078 35.663 3.84047 35.8514 3.79688C36.8119 3.57516 37.7681 3.32812 38.737 3.15281C39.4584 3.0225 40.1953 2.96109 40.9289 2.91891C41.7469 2.87203 42.5709 2.83781 43.3884 2.87719C44.422 2.92687 45.4481 3.07406 46.4611 3.30984C47.7159 3.60188 48.9197 4.02609 50.0639 4.61484C50.9189 5.05453 51.7317 5.56453 52.4634 6.19172C52.943 6.60328 53.4338 7.00969 53.8669 7.46812C54.4012 8.03344 54.9464 8.59922 55.2816 9.32344C55.5337 9.86953 55.7137 10.4348 55.7634 11.033C55.8253 11.7764 55.9003 12.5227 55.8933 13.267C55.8867 13.9791 55.7897 14.6906 55.7208 15.4008C55.5642 17.0198 55.2122 18.6038 54.7847 20.1666C54.4313 21.4575 54.0183 22.7344 53.5711 23.9963C53.1591 25.1592 52.6838 26.3011 52.2033 27.4383C51.8484 28.2792 51.4664 29.1112 51.0511 29.9241C50.265 31.4644 49.4475 32.9888 48.502 34.4395C48.3389 34.6903 48.1842 34.9472 48.0248 35.2031C48.4373 35.4816 48.9047 35.5795 49.3753 35.6302C49.823 35.6789 50.2795 35.708 50.7267 35.6747C51.4425 35.6217 52.1559 35.5195 52.8675 35.4197C53.5725 35.3212 54.2634 35.1206 54.9872 35.1736C55.71 35.2261 56.227 35.7755 56.1778 36.4528ZM45.8592 34.8811C45.5522 34.4845 45.2391 34.0927 44.9386 33.6914C44.467 33.0614 44.1281 32.3578 43.7878 31.6509C43.4653 30.9811 43.0697 30.3469 42.7298 29.6845C42.1369 28.5291 41.5331 27.3773 40.987 26.1994C40.3003 24.7195 39.7589 23.1872 39.5883 21.548C39.5161 20.8542 39.4978 20.1614 39.638 19.4742C39.8625 18.3769 40.4358 17.5186 41.3995 16.9298C42.2934 16.3837 43.2895 16.2075 44.31 16.1522C44.9433 16.118 45.5794 16.1461 46.2366 16.1461L46.2145 16.035C45.8058 15.1805 45.4237 14.3114 44.9766 13.477C44.3456 12.2995 43.5384 11.2378 42.6394 10.2534C41.9733 9.52453 41.2519 8.84812 40.4616 8.25047C39.6844 7.66219 38.8655 7.13672 37.9917 6.70687C36.9497 6.19453 35.8645 5.79844 34.7259 5.54578C33.6319 5.30297 32.5308 5.15438 31.4086 5.14219C30.4514 5.13188 29.5003 5.175 28.568 5.39109C27.1608 5.71688 25.8736 6.29625 24.7537 7.23469C24.1284 7.75875 23.5828 8.34703 23.1052 9.00188C22.5445 9.77203 22.0922 10.6036 21.7055 11.4755C21.1748 12.6717 20.8106 13.9167 20.5617 15.1964C20.437 15.8344 20.3395 16.478 20.2402 17.1211C20.2055 17.3461 20.2027 17.5763 20.1825 17.8341C20.3555 17.7441 20.4802 17.6747 20.6077 17.6128L21.0225 17.4267C22.4255 16.785 23.8791 16.372 25.4414 16.4194C26.1052 16.4395 26.7403 16.5708 27.3305 16.8614C28.4625 17.4197 29.1248 18.3689 29.4127 19.5703C29.6114 20.3995 29.7473 21.2452 29.8795 22.0884C29.9831 22.747 30.0891 23.4127 30.1013 24.0769C30.1186 25.0477 30.0694 26.0203 30.0164 26.9906C29.9714 27.8175 29.7989 28.6313 29.5102 29.4028C28.9852 30.8058 28.4002 32.1858 27.8536 33.5808C27.6731 34.0416 27.5344 34.5187 27.3638 35.0255C27.6272 35.0255 27.8409 35.0236 28.0547 35.0264C28.1381 35.0278 28.2234 35.0302 28.3041 35.0494C28.9322 35.1975 29.4769 35.482 29.9236 35.9653C30.5194 36.6084 30.832 37.3589 30.848 38.2275C30.8569 38.7089 30.8062 39.1917 30.8086 39.6731C30.8184 41.9166 30.8353 44.16 30.8541 46.403C30.8573 46.7695 30.8756 47.1366 30.9019 47.5027C30.9567 48.2691 31.012 49.0359 31.087 49.8005C31.1395 50.3428 31.2127 50.8842 31.2984 51.4228C31.4198 52.1859 31.7672 52.8652 32.1614 53.5144C32.5008 54.0727 32.9419 54.547 33.5231 54.8742C34.5108 55.4302 35.5744 55.4766 36.6464 55.2717C37.3706 55.1334 38.0817 54.9113 38.7848 54.682C39.4781 54.4566 40.1044 54.0872 40.6303 53.5786C41.123 53.1009 41.4727 52.5187 41.7084 51.8761C42.1659 50.6297 42.3084 49.3172 42.4978 48.015C42.5686 47.5275 42.63 47.0386 42.6947 46.5502C42.7683 45.9942 42.8428 45.4388 42.9141 44.8833C42.9666 44.4694 43.0144 44.0545 43.065 43.6406C43.1372 43.0462 43.2136 42.4523 43.2825 41.8575C43.3355 41.3977 43.3805 40.9359 43.4273 40.4752C43.4878 39.8864 43.553 39.2977 43.605 38.708C43.6453 38.2603 43.6289 37.8047 43.7081 37.3655C43.8539 36.5602 44.2345 35.8748 44.9484 35.4319C45.247 35.2467 45.5841 35.1248 45.9155 34.9683L45.8592 34.8811ZM18.8606 31.5755C18.5039 30.7308 18.2897 29.8505 18.2259 28.9402C18.1659 28.0847 18.2677 27.2325 18.3553 26.3808C18.4406 25.5558 18.5114 24.727 18.5362 23.8983C18.5775 22.5361 18.4856 21.1758 18.4205 19.8145C18.3811 19.0041 18.4753 18.1837 18.5475 17.3714C18.6127 16.6397 18.6938 15.9061 18.832 15.1852C19.0641 13.9753 19.372 12.7828 19.8098 11.6269C20.2256 10.5309 20.7033 9.46359 21.3778 8.50266C21.84 7.84359 22.3645 7.22766 22.8684 6.58359L22.7189 6.53062C21.0792 6.00984 19.4128 5.60297 17.6991 5.42531C16.8886 5.34141 16.0753 5.29219 15.2625 5.24391C15.0131 5.22891 14.76 5.26266 14.5097 5.28656C13.89 5.34562 13.2628 5.36906 12.653 5.48531C11.6152 5.68266 10.6195 6.01453 9.6975 6.555C8.86969 7.04016 8.17453 7.66734 7.59234 8.41969C6.94922 9.25031 6.51656 10.1897 6.20578 11.1914C5.83875 12.3731 5.66391 13.5891 5.61656 14.8162C5.57531 15.892 5.55469 16.9739 5.74031 18.0455C5.87859 18.8433 5.97094 19.6495 6.12328 20.4441C6.33094 21.5273 6.55359 22.6083 6.81094 23.6803C7.17891 25.215 7.54641 26.752 7.98234 28.268C8.39953 29.7206 8.87016 31.1602 9.38016 32.5823C9.79734 33.743 10.2797 34.882 10.7878 36.0061C11.1187 36.7383 11.5195 37.4428 11.9395 38.1286C12.3863 38.8566 12.8944 39.5475 13.5839 40.0758C14.4539 40.7428 15.1275 40.8464 16.0116 40.1147C16.3903 39.8011 16.7105 39.4139 17.04 39.045C17.5636 38.4591 18.0689 37.8572 18.5902 37.2694C19.2539 36.5203 19.9261 35.7792 20.5931 35.0339C20.7342 34.8764 20.8697 34.7142 21.007 34.5548L20.7802 34.3556C19.9509 33.5592 19.3088 32.6358 18.8606 31.5755ZM44.0269 9.2775C44.5688 9.91313 45.0933 10.5675 45.578 11.2481C46.5155 12.5648 47.2645 13.9866 47.8162 15.5077C48.0605 16.178 48.2555 16.8548 48.1683 17.5884C48.1078 18.1022 48.113 18.6234 48.0675 19.14C48.0295 19.5698 47.9616 19.9973 47.9058 20.4258C47.8223 21.0717 47.7014 21.7158 47.6653 22.3645C47.6311 22.9819 47.6667 23.6058 47.7056 24.2245C47.745 24.8531 47.8298 25.4789 47.8875 26.1066C47.9527 26.8181 48.0403 27.5297 48.0605 28.2427C48.0769 28.8281 48.0248 29.4173 47.9738 30.0019C47.9128 30.7059 47.7342 31.3875 47.468 32.0414C47.2809 32.5017 47.0573 32.948 46.8459 33.4088L46.9308 33.4987L47.0597 33.5986L47.1895 33.3661C48.2859 31.6373 49.2614 29.842 50.1061 27.9788C50.6494 26.7787 51.1584 25.5619 51.6469 24.3384C52.4081 22.4334 53.0105 20.475 53.4764 18.4777C53.6855 17.5809 53.8453 16.6706 53.9873 15.7603C54.098 15.0488 54.1903 14.3287 54.2109 13.6106C54.233 12.8489 54.1908 12.0811 54.1205 11.3212C54.068 10.7475 53.9264 10.17 53.5669 9.70359C52.9889 8.95266 52.365 8.23453 51.5977 7.66641C50.9517 7.18781 50.3081 6.69703 49.6148 6.29438C48.5156 5.65688 47.3259 5.23219 46.0828 4.94297C44.8697 4.66031 43.6406 4.53844 42.4036 4.51266C41.6742 4.49719 40.9416 4.57547 40.2136 4.64391C39.5541 4.70578 38.8988 4.81125 38.2345 4.89844C38.947 5.29922 39.6497 5.65547 40.3125 6.07547C41.7061 6.95813 42.9548 8.02031 44.0269 9.2775ZM25.9214 33.9909C26.3719 32.5505 26.9855 31.1752 27.5798 29.7914C28.0617 28.6692 28.3252 27.487 28.4128 26.273C28.4564 25.6744 28.4442 25.0683 28.4147 24.4678C28.3814 23.8008 28.328 23.1319 28.2309 22.4714C28.1063 21.6272 27.9642 20.7825 27.7645 19.9538C27.548 19.057 27.0019 18.4327 26.0662 18.2025C25.4963 18.0623 24.93 18.068 24.3539 18.1589C22.9467 18.3806 21.6586 18.8991 20.4586 19.6584C20.2172 19.8113 20.0845 19.9345 20.1263 20.2809C20.2144 21.0145 20.2336 21.7598 20.2303 22.5005C20.2256 23.5486 20.1811 24.5967 20.1412 25.6444C20.1281 25.9856 20.0789 26.325 20.0423 26.6648C19.9861 27.1852 19.8778 27.705 19.8811 28.2244C19.8844 28.7597 19.9392 29.3077 20.0691 29.8261C20.4816 31.47 21.3553 32.8153 22.7873 33.7645C23.6681 34.3481 24.6427 34.6425 25.7123 34.6983C25.785 34.4527 25.8497 34.2206 25.9214 33.9909ZM24.2405 19.8877C24.052 19.492 24.1598 19.1644 24.5967 19.0125C24.7031 18.975 24.8128 18.9352 24.9234 18.9244C25.0753 18.9094 25.23 18.9206 25.3838 18.9206C25.9378 18.9234 26.4708 19.0008 26.9283 19.3533C27.2217 19.5792 27.3005 19.8792 27.1106 20.1872C26.8411 20.6241 26.43 20.8434 25.9252 20.8856C25.1297 20.9517 24.5714 20.5809 24.2405 19.8877ZM46.2905 19.7433C46.3542 19.2164 46.4053 18.6881 46.4705 18.1612C46.4967 17.9494 46.3852 17.8922 46.2075 17.887C45.6487 17.8716 45.09 17.8519 44.5312 17.8416C43.9012 17.8303 43.2881 17.9316 42.705 18.1711C42.0581 18.4373 41.5655 18.8639 41.3644 19.568C41.2144 20.093 41.1741 20.6175 41.227 21.1664C41.3077 22.0031 41.4933 22.815 41.7862 23.5927C42.1772 24.6338 42.5864 25.6744 43.0753 26.6719C43.7377 28.0223 44.4872 29.3297 45.1908 30.6595C45.3787 31.0144 45.5367 31.3847 45.7327 31.7991C46.1428 30.9305 46.343 30.0609 46.3659 29.1637C46.3852 28.4091 46.3247 27.6511 46.2806 26.8959C46.253 26.4338 46.1878 25.9744 46.1428 25.5131C46.08 24.8705 45.9848 24.2283 45.9703 23.5842C45.9558 22.9294 46.0022 22.2708 46.0584 21.6169C46.1114 20.9897 46.215 20.3677 46.2905 19.7433ZM45.03 19.2361C44.8223 19.8094 44.3784 20.1328 43.8028 20.228C43.2661 20.3161 42.7959 20.1178 42.4463 19.6898C42.1973 19.3852 42.2925 19.0242 42.6656 18.8184C43.0941 18.5812 43.5652 18.5212 44.1206 18.4852C44.2716 18.5128 44.4989 18.5358 44.715 18.5977C45.0286 18.6862 45.1444 18.922 45.03 19.2361ZM28.4259 36.8892C28.1189 36.6384 27.713 36.6239 27.4209 36.8991C27.0586 37.2413 26.7398 37.6327 26.4211 38.0184C26.0531 38.4642 25.7081 38.9278 25.2333 39.2733C24.5423 39.7753 23.737 39.9834 22.9275 40.1803C22.2839 40.3369 21.6375 40.4822 20.992 40.6327L20.9841 40.7161C21.1758 40.8047 21.3614 40.9153 21.5611 40.9786C22.5455 41.2903 23.5467 41.4455 24.5869 41.3573C25.3378 41.2936 26.0531 41.13 26.7309 40.8084C27.6637 40.3664 28.3814 39.6661 28.9917 38.8514C29.0939 38.7155 29.1403 38.5144 29.1525 38.3391C29.1942 37.7198 28.8797 37.2595 28.4259 36.8892ZM52.6842 37.1358C51.892 37.2206 51.0989 37.3106 50.3044 37.3561C49.9209 37.3781 49.5319 37.305 49.1447 37.2736C48.4955 37.2211 47.8617 37.0767 47.3128 36.7298C46.995 36.5297 46.7311 36.5072 46.3936 36.6206C45.9117 36.7828 45.5184 37.0294 45.4022 37.5516C45.323 37.9045 45.2944 38.2702 45.2625 38.6316C45.2564 38.6953 45.3361 38.8125 45.397 38.8284C45.7687 38.9264 46.1423 39.0422 46.5225 39.0764C46.9894 39.1186 47.4647 39.105 47.9348 39.0816C48.4425 39.0563 48.9534 39.0234 49.4536 38.9391C50.6325 38.7412 51.773 38.4187 52.7859 37.7503C53.1511 37.5089 53.513 37.2623 53.8758 37.0181L53.8458 36.9666C53.4586 37.0242 53.0733 37.0945 52.6842 37.1358Z" fill="#336791"></path>
</svg>
