<?xml version="1.0" encoding="UTF-8"?>
<svg xmlns="http://www.w3.org/2000/svg" width="62" height="60" viewBox="0 0 62 60" fill="none">
  <g clip-path="url(#clip0_5757_33574)">
    <path d="M30.7425 0.0175781C15.4879 0.0175781 16.4404 6.63287 16.4404 6.63287L16.4574 13.4865H31.0145V15.5442H10.6755C10.6755 15.5442 0.914062 14.4371 0.914062 29.8289C0.914062 45.2211 9.43406 44.6752 9.43406 44.6752H14.5188V37.5326C14.5188 37.5326 14.2447 29.0126 22.9028 29.0126H37.3409C37.3409 29.0126 45.4526 29.1437 45.4526 21.1729V7.99358C45.4526 7.99358 46.6846 0.0175781 30.7425 0.0175781ZM22.7157 4.62652C23.0597 4.62621 23.4004 4.69374 23.7183 4.82523C24.0361 4.95673 24.3249 5.14962 24.5682 5.39286C24.8114 5.63611 25.0043 5.92493 25.1358 6.2428C25.2673 6.56067 25.3348 6.90135 25.3345 7.24534C25.3348 7.58934 25.2673 7.93002 25.1358 8.24789C25.0043 8.56576 24.8114 8.85458 24.5682 9.09782C24.3249 9.34106 24.0361 9.53395 23.7183 9.66545C23.4004 9.79695 23.0597 9.86448 22.7157 9.86417C22.3717 9.86448 22.031 9.79695 21.7132 9.66545C21.3953 9.53395 21.1065 9.34106 20.8632 9.09782C20.62 8.85458 20.4271 8.56576 20.2956 8.24789C20.1641 7.93002 20.0966 7.58934 20.0969 7.24534C20.0966 6.90135 20.1641 6.56067 20.2956 6.2428C20.4271 5.92493 20.62 5.63611 20.8632 5.39286C21.1065 5.14962 21.3953 4.95673 21.7132 4.82523C22.031 4.69374 22.3717 4.62621 22.7157 4.62652Z" fill="url(#paint0_linear_5757_33574)"></path>
    <path d="M31.1738 59.7948C46.4284 59.7948 45.4759 53.1795 45.4759 53.1795L45.459 46.3261H30.9016V44.2685H51.2407C51.2407 44.2685 61.0021 45.3755 61.0021 29.9833C61.0021 14.5913 52.4821 15.1372 52.4821 15.1372H47.3974V22.2795C47.3974 22.2795 47.6715 30.7995 39.0134 30.7995H24.5752C24.5752 30.7995 16.4635 30.6685 16.4635 38.6395V51.819C16.4635 51.819 15.2317 59.7948 31.1736 59.7948H31.1738ZM39.2007 55.1863C38.8567 55.1866 38.516 55.1191 38.1981 54.9876C37.8802 54.8561 37.5914 54.6632 37.3482 54.42C37.1049 54.1768 36.912 53.8879 36.7805 53.5701C36.649 53.2522 36.5815 52.9115 36.5818 52.5675C36.5815 52.2235 36.649 51.8828 36.7805 51.5649C36.912 51.247 37.1048 50.9581 37.3481 50.7149C37.5913 50.4716 37.8802 50.2787 38.198 50.1472C38.5159 50.0157 38.8566 49.9481 39.2007 49.9485C39.5446 49.9481 39.8853 50.0157 40.2032 50.1472C40.5211 50.2787 40.8099 50.4716 41.0531 50.7148C41.2964 50.958 41.4893 51.2469 41.6208 51.5647C41.7523 51.8826 41.8198 52.2233 41.8195 52.5673C41.8198 52.9113 41.7523 53.2519 41.6208 53.5698C41.4893 53.8877 41.2964 54.1765 41.0531 54.4198C40.8099 54.663 40.5211 54.8559 40.2032 54.9874C39.8853 55.1189 39.5446 55.1866 39.2007 55.1863Z" fill="url(#paint1_linear_5757_33574)"></path>
  </g>
  <defs>
    <linearGradient id="paint0_linear_5757_33574" x1="578.376" y1="537.68" x2="3556.25" y2="3485.84" gradientUnits="userSpaceOnUse">
      <stop stop-color="#387EB8"></stop>
      <stop offset="1" stop-color="#366994"></stop>
    </linearGradient>
    <linearGradient id="paint1_linear_5757_33574" x1="868.798" y1="934.194" x2="4066.69" y2="3957.26" gradientUnits="userSpaceOnUse">
      <stop stop-color="#FFE052"></stop>
      <stop offset="1" stop-color="#FFC331"></stop>
    </linearGradient>
    <clipPath id="clip0_5757_33574">
      <rect width="60.241" height="60" fill="white" transform="translate(0.878906)"></rect>
    </clipPath>
  </defs>
</svg>
