<?xml version="1.0" encoding="UTF-8"?>
<svg xmlns="http://www.w3.org/2000/svg" width="116" height="40" viewBox="0 0 116 40" fill="none">
  <path fill-rule="evenodd" clip-rule="evenodd" d="M100.602 34.7991V40.0002H110.1C112.047 40.0002 115.387 38.5922 115.503 34.6554V32.6439C115.503 29.2818 112.715 27.2991 110.1 27.2991H105.366V24.8853H114.748V19.6554H105.743C103.419 19.6554 100.311 21.5519 100.311 25.0864V26.8968C100.311 30.4313 103.39 32.2416 105.743 32.2416C112.279 32.2703 104.175 32.2416 110.217 32.2416V34.7703M49.7101 33.5347C49.7101 33.5347 54.7934 33.1037 54.7934 26.6094C54.7934 20.1152 48.6353 19.5117 48.6353 19.5117H37.5391V40.0002H43.1162V35.0577L47.9382 40.0002H56.1877L49.7101 33.5347ZM47.5605 29.3393H43.1162V24.6554H47.5896C47.5896 24.6554 48.8386 25.1152 48.8386 26.983C48.8386 28.8508 47.5605 29.3393 47.5605 29.3393ZM68.562 19.6554H62.8977C58.8601 19.6554 57.4949 23.2761 57.4949 25.0002V40.0002H63.1592V36.4083H68.4749V40.0002H73.9649V25.0002C73.9649 20.6324 69.9563 19.6554 68.562 19.6554ZM68.4749 30.6037H63.1301V25.6324C63.1301 25.6324 63.1301 24.5117 64.902 24.5117H66.8482C68.4168 24.5117 68.4459 25.6324 68.4459 25.6324V30.6037H68.4749Z" fill="#CC0000"></path>
  <path d="M82.4436 19.6543H76.5469V39.9991H82.4436V19.6543Z" fill="#CC0000"></path>
  <path fill-rule="evenodd" clip-rule="evenodd" d="M90.7231 34.7405V19.6543H84.8555V34.7405V39.9991H90.7231H98.6531V34.7405H90.7231Z" fill="#CC0000"></path>
  <path fill-rule="evenodd" clip-rule="evenodd" d="M2.53125 39.9995H25.479C25.479 39.9995 21.0928 20.2006 35.6166 12.1834C38.7828 10.6604 48.8624 4.97071 65.3615 17.0397C65.8844 16.6086 66.3782 16.2638 66.3782 16.2638C66.3782 16.2638 51.2734 1.35002 34.4547 3.01668C26.0018 3.76381 15.6027 11.3788 9.50271 21.4362C3.40268 31.4937 2.53125 39.9995 2.53125 39.9995Z" fill="#CC0000"></path>
  <path fill-rule="evenodd" clip-rule="evenodd" d="M2.53125 39.9995H25.479C25.479 39.9995 21.0928 20.2006 35.6166 12.1834C38.7828 10.6604 48.8624 4.97071 65.3615 17.0397C65.8844 16.6086 66.3782 16.2638 66.3782 16.2638C66.3782 16.2638 51.2734 1.35002 34.4547 3.01668C26.0018 3.76381 15.6027 11.3788 9.50271 21.4362C3.40268 31.4937 2.53125 39.9995 2.53125 39.9995Z" fill="#CC0000"></path>
  <path fill-rule="evenodd" clip-rule="evenodd" d="M2.53125 39.9999H25.479C25.479 39.9999 21.0928 20.2011 35.6166 12.1838C38.7828 10.6608 48.8624 4.97118 65.3615 17.0401C65.8844 16.6091 66.3782 16.2643 66.3782 16.2643C66.3782 16.2643 51.2734 1.35048 34.4547 3.01715C25.9728 3.76428 15.5737 11.3792 9.47366 21.4367C3.37363 31.4942 2.53125 39.9999 2.53125 39.9999ZM50.3438 4.62635L50.46 2.70106C50.1986 2.55738 49.4724 2.21255 47.6424 1.69531L47.5262 3.59186C48.4848 3.90796 49.4143 4.25278 50.3438 4.62635Z" fill="#CC0000"></path>
  <path fill-rule="evenodd" clip-rule="evenodd" d="M47.5864 10.7184L47.4702 12.5287C48.4288 12.5575 49.3874 12.6724 50.3459 12.8736L50.4621 11.092C49.4745 10.8908 48.5159 10.7759 47.5864 10.7184ZM36.8387 1.75287H37.1292L36.5482 0C35.6478 0 34.7182 0.0574713 33.7597 0.172414L34.3116 1.86782C35.154 1.78161 35.9963 1.75287 36.8387 1.75287ZM38.233 12.3276L38.9011 14.3104C39.7435 13.9081 40.5859 13.5632 41.4283 13.3046L40.7892 11.408C39.8016 11.6954 38.9592 12.0115 38.233 12.3276ZM25.0453 4.77012L23.7382 2.78736C23.012 3.16092 22.2568 3.56322 21.4725 4.02299L22.8087 6.03449C23.5639 5.57471 24.2901 5.14368 25.0453 4.77012ZM31.0001 17.7012L32.3944 19.7701C32.8882 19.0517 33.4692 18.3908 34.1082 17.7299L32.8011 15.7759C32.133 16.3793 31.523 17.0402 31.0001 17.7012ZM26.7882 26.954L29.1411 28.7931C29.2573 27.6724 29.4606 26.5517 29.7511 25.431L27.6596 23.7931C27.282 24.8563 27.0206 25.9195 26.7882 26.954ZM14.0653 13.3046L12.0029 11.523C11.2477 12.2414 10.5215 12.9598 9.85337 13.6782L12.09 15.5747C12.7001 14.7989 13.3681 14.023 14.0653 13.3046ZM5.29288 26.1494L1.95239 24.9425C1.40048 26.1782 0.790477 27.615 0.5 28.3908L3.84049 29.5977C4.21811 28.6207 4.82811 27.2127 5.29288 26.1494ZM26.3525 34.2529C26.4106 35.7759 26.5558 37.0115 26.7011 37.8736L30.1868 39.1092C29.9254 37.9885 29.6639 36.7242 29.4896 35.3736L26.3525 34.2529Z" fill="#CC0000"></path>
</svg>
