<?xml version="1.0" encoding="UTF-8"?>
<svg xmlns="http://www.w3.org/2000/svg" width="68" height="60" viewBox="0 0 68 60" fill="none">
  <path fill-rule="evenodd" clip-rule="evenodd" d="M53.4199 18.5923C61.9417 21.2015 67.5 25.409 67.5 29.8488C67.5 34.2749 61.969 38.4824 53.5018 41.0916C55.4821 49.7525 54.6217 56.6512 50.7841 58.8643C49.8828 59.3834 48.8449 59.6293 47.6977 59.6293C43.9421 59.6293 39.0257 56.9791 34.0546 52.3617C29.0836 57.0064 24.1671 59.6839 20.4115 59.6839C19.2644 59.6839 18.2265 59.438 17.3388 58.9189C13.4876 56.7059 12.6135 49.7935 14.5801 41.1053C6.05829 38.4961 0.5 34.2885 0.5 29.8488C0.5 25.4227 6.03098 21.2288 14.5255 18.606C12.5453 9.94504 13.4056 3.04635 17.2432 0.833307C18.1445 0.314198 19.1824 0.0683039 20.3296 0.0683039V0.0546433C24.0852 0.0546433 29.0016 2.70483 33.9727 7.32217C38.9437 2.67751 43.8602 0 47.6158 0V0.0136725C48.744 0.0156418 49.7771 0.261641 50.6612 0.778664C54.5124 2.99171 55.3865 9.90406 53.4199 18.5923ZM47.6021 3.04637C44.7618 3.05362 40.5891 5.32067 36.1441 9.45325C38.0697 11.4614 39.9817 13.7564 41.8253 16.2836C44.8981 16.6115 47.8206 17.1169 50.4973 17.7727C50.7978 16.3929 51.0436 15.0405 51.1938 13.7564C51.8221 8.53798 51.0163 4.48073 49.159 3.41519C48.7356 3.18296 48.2303 3.06001 47.6021 3.06001V3.04637ZM31.8013 9.46691C27.3492 5.35502 23.1565 3.10099 20.3296 3.10099V3.11466C19.7014 3.11466 19.1688 3.22394 18.7591 3.46984C16.9154 4.54904 16.1233 8.60629 16.7652 13.8247C16.9291 15.0952 17.1612 16.4202 17.4753 17.7863C20.1521 17.1169 23.0746 16.6115 26.161 16.2836C27.9774 13.7564 29.8893 11.475 31.8013 9.46691ZM47.8753 26.1331C48.5854 24.3162 49.2136 22.4993 49.7189 20.7371C47.9299 20.2999 46.0589 19.9447 44.1197 19.6578C44.7888 20.6961 45.458 21.7616 46.0862 22.8545C46.7281 23.9473 47.3153 25.0402 47.8753 26.1331ZM40.1729 40.5042C41.3064 38.8786 42.3989 37.13 43.4641 35.2858C44.4884 33.4962 45.4307 31.6657 46.2911 29.8351C45.4307 28.0046 44.4884 26.1877 43.4505 24.3981C42.3852 22.5676 41.279 20.8327 40.1455 19.207C38.1243 19.0431 36.0622 18.9475 34 18.9475C31.9242 18.9475 29.862 19.0431 27.8272 19.2207C26.6936 20.8463 25.6011 22.5949 24.5359 24.4391C23.5116 26.2287 22.5556 28.0592 21.7089 29.8898C22.5693 31.7203 23.5116 33.5372 24.5495 35.3268C25.6148 37.1573 26.721 38.8922 27.8545 40.5178C29.8757 40.6818 31.9378 40.7774 34 40.7774C36.0758 40.7774 38.138 40.6818 40.1729 40.5042ZM49.7599 38.9469C49.2409 37.171 48.6127 35.3404 47.8753 33.5099C47.3153 34.6027 46.7281 35.7093 46.0999 36.8021C45.4717 37.9086 44.8025 38.9878 44.1333 40.0397C46.0862 39.7528 47.9709 39.384 49.7599 38.9469ZM30.2307 43.7145C31.4872 45.3128 32.7572 46.7745 34.0273 48.0859C35.2837 46.7745 36.5538 45.3128 37.7829 43.7145C36.5402 43.7828 35.2701 43.8101 33.9863 43.8101C32.7163 43.8101 31.4598 43.7691 30.2307 43.7145ZM18.2674 38.9605C20.0565 39.3977 21.9274 39.7528 23.8667 40.0397C23.1975 39.0015 22.542 37.936 21.9001 36.8431C21.2583 35.7502 20.671 34.6574 20.1111 33.5645C19.4009 35.3814 18.7727 37.1983 18.2674 38.9605ZM37.7556 15.9831C36.4992 14.3848 35.2291 12.9231 33.959 11.6117C32.7026 12.9231 31.4325 14.3848 30.2034 15.9831C31.4462 15.9148 32.7163 15.8875 34 15.8875C35.2701 15.8875 36.5265 15.9285 37.7556 15.9831ZM21.8865 22.8955C22.5147 21.7889 23.1839 20.7097 23.853 19.6578C21.9001 19.9447 20.0155 20.3136 18.2265 20.7371C18.7454 22.513 19.3736 24.3435 20.1111 26.174C20.671 25.0812 21.2583 23.9883 21.8865 22.8955ZM3.5318 29.8488C3.5318 31.9935 6.65919 34.6984 11.4937 36.7611C12.6818 37.2666 13.9656 37.731 15.3176 38.1545C16.0824 35.4907 17.0929 32.7175 18.3494 29.8761C17.0793 27.021 16.055 24.2342 15.2766 21.5567C13.9519 21.9802 12.6682 22.431 11.4937 22.9364C6.65919 24.9855 3.5318 27.704 3.5318 29.8488ZM16.8062 45.9412C16.1779 51.1596 16.9837 55.2168 18.841 56.2824C19.2507 56.5146 19.7697 56.6376 20.3842 56.6512C23.2248 56.6512 27.4038 54.3835 31.8559 50.2443C29.9303 48.2362 28.0183 45.9412 26.1747 43.4139C23.1019 43.0861 20.1794 42.5806 17.5027 41.9249C17.2022 43.3046 16.9564 44.6571 16.8062 45.9412ZM49.2409 56.2277C51.0846 55.1485 51.8767 51.0913 51.2348 45.8729C51.0846 44.6024 50.8388 43.2773 50.5247 41.8976C47.8479 42.567 44.9254 43.0724 41.839 43.4003C40.0226 45.9275 38.1107 48.2089 36.1987 50.217C40.6508 54.3289 44.8435 56.5829 47.6704 56.5829C48.2986 56.5829 48.8312 56.4736 49.2409 56.2277ZM52.7097 38.1409C54.0344 37.7174 55.3182 37.2666 56.4927 36.7611C61.3272 34.712 64.4545 31.9935 64.4682 29.8488C64.4682 27.704 61.3408 24.9992 56.5063 22.9364C55.3045 22.431 54.0208 21.9665 52.6688 21.543C51.904 24.2069 50.8934 26.98 49.637 29.8215C50.9071 32.6766 51.9313 35.4634 52.7097 38.1409ZM40.2286 29.7634C40.2286 33.2113 37.4343 36.0064 33.9875 36.0064C30.5406 36.0064 27.7463 33.2113 27.7463 29.7634C27.7463 26.3155 30.5406 23.5205 33.9875 23.5205C37.4343 23.5205 40.2286 26.3155 40.2286 29.7634Z" fill="#61DAFB"></path>
</svg>
