<?xml version="1.0" encoding="UTF-8"?>
<svg xmlns="http://www.w3.org/2000/svg" width="74" height="60" viewBox="0 0 74 60" fill="none">
  <g clip-path="url(#clip0_5757_33677)">
    <path d="M31.0144 7.0803C32.6614 6.69324 34.3473 6.53247 36.0511 6.68133C36.2152 6.69622 36.4689 6.61285 36.5524 6.4878C37.1641 5.57673 37.9519 4.89193 38.9544 4.43937C39.038 4.40067 39.1245 4.28157 39.1335 4.19225C39.1872 3.71885 39.214 3.24247 39.2528 2.74525C38.6173 2.64699 37.9847 2.51897 37.3431 2.45942C33.9326 2.1468 30.5847 2.48919 27.3591 3.64739C20.0964 6.25259 15.4654 11.3141 13.4065 18.7278C13.3319 18.9957 13.1917 19.1089 12.944 19.1833C12.028 19.4543 11.1 19.6925 10.2078 20.0259C7.51637 21.0382 5.09645 22.4733 3.28823 24.7599C1.51879 26.993 0.31629 29.4672 0.268548 32.388C0.265565 32.5726 0.226774 32.7601 0.202903 32.9447C0.187984 32.9447 0.173065 32.9447 0.158145 32.9418C0.104435 32.6023 0.0507258 32.2629 0 31.9235V36.3151L0.241694 34.9038C0.155161 38.572 1.59637 41.6684 3.84323 44.4344C6.12589 47.2391 9.13064 48.8469 12.7083 49.5257C12.7083 48.0877 12.7143 46.7032 12.6964 45.3187C12.6964 45.2234 12.5293 45.0775 12.4159 45.0478C10.4853 44.5803 8.85613 43.5859 7.54024 42.127C5.12032 39.4384 4.06702 36.2764 4.46984 32.6708C4.81 29.619 6.29597 27.2401 8.82927 25.5102C10.6136 24.2925 12.6248 23.6464 14.7194 23.2177C15.3401 23.0896 15.9667 23.0092 16.5903 22.8931C16.8022 22.8544 16.9723 22.774 17.02 22.5031C17.1513 21.7587 17.2766 21.0144 17.4676 20.2849C19.3235 13.169 23.856 8.76252 31.0203 7.08328L31.0144 7.0803Z" fill="#0B0028"></path>
    <path d="M73.8952 30.8959C73.8624 30.8988 73.8266 30.9048 73.7938 30.9078C73.8206 28.5199 73.2805 26.2601 72.3645 24.0807C71.4425 21.8953 70.1027 20.0046 68.3273 18.373C67.7335 19.4628 66.8622 20.2071 65.788 20.7371C65.7015 20.7788 65.6 20.8859 65.5881 20.9723C65.5433 21.3415 65.5374 21.6779 65.8537 21.9935C66.9517 23.0922 67.8171 24.3546 68.4138 25.7956C69.6581 28.8177 69.8819 31.9499 69.3508 35.1416C69.0196 37.1364 68.2825 38.9824 66.9458 40.5426C65.3852 42.3617 63.386 43.5289 61.1779 44.3774C60.9183 44.4786 60.8438 44.6126 60.8438 44.8657C60.8497 46.0567 60.8438 47.2476 60.8438 48.4385C60.8438 48.6321 60.8438 48.8256 60.8438 49.0221C60.9183 49.0221 60.9571 49.034 60.987 49.0221C62.4043 48.4326 63.8664 47.9294 65.23 47.2327C69.0196 45.3004 71.705 42.3677 73.012 38.2678C73.4954 36.7494 73.7967 35.1982 73.8534 33.6023C73.8564 33.4862 73.9489 33.376 74.0026 33.2629V30.4344C73.9668 30.5892 73.931 30.744 73.8952 30.8989V30.8959Z" fill="#0B0028"></path>
    <path d="M60.9599 20.3376C60.6884 19.9535 60.3989 19.5784 60.0916 19.2211C59.8887 18.9859 59.8678 18.8132 60.0558 18.5452C60.4527 17.9765 60.7898 17.3692 61.1718 16.7915C61.2255 16.7112 61.3896 16.6605 61.497 16.6695C62.1147 16.726 62.7293 16.8213 63.347 16.8749C64.1049 16.9374 64.6599 16.4521 64.7464 15.6988C64.83 14.9843 64.9165 14.2727 65.021 13.5611C65.1523 12.6738 64.6957 12.0754 63.7916 11.9652C63.3112 11.9086 62.8338 11.8342 62.3534 11.7776C62.1415 11.7508 62.0938 11.6377 62.055 11.4352C61.9207 10.7594 61.7656 10.0835 61.5686 9.42254C61.506 9.20817 61.5298 9.12183 61.6939 9.00273C62.2042 8.62758 62.7144 8.25244 63.2038 7.85049C63.72 7.42175 63.8244 6.84712 63.4574 6.32608C62.9442 5.59662 62.4071 4.88205 61.8461 4.18832C61.4105 3.6524 60.8376 3.57498 60.2557 3.96204C59.7902 4.26871 59.3456 4.61111 58.916 4.96839C58.728 5.12322 58.6206 5.08749 58.4385 4.96839C57.8567 4.59027 57.2718 4.21512 56.6631 3.88165C56.4155 3.74469 56.3737 3.61071 56.4214 3.35168C56.5318 2.78003 56.6303 2.20539 56.687 1.62778C56.7497 0.966806 56.3737 0.436834 55.7262 0.332626C54.8072 0.183757 53.8822 0.0795493 52.9542 0.00511497C52.3514 -0.042523 51.9814 0.243305 51.8442 0.832824C51.7159 1.38662 51.6383 1.95232 51.5786 2.51802C51.5488 2.79194 51.4593 2.89019 51.1847 2.93783C50.5522 3.04799 49.9166 3.17602 49.2989 3.35466C48.9797 3.44696 48.8156 3.35764 48.6425 3.1254C48.3202 2.68475 47.995 2.2441 47.6459 1.82727C47.1565 1.24072 46.6343 1.1514 46.0107 1.58014C45.3185 2.0595 44.6441 2.57459 43.9847 3.0986C43.373 3.58392 43.3073 4.24192 43.7758 4.86716C44.0652 5.25422 44.3606 5.6383 44.668 6.01047C44.8351 6.21294 44.844 6.34692 44.6769 6.57915C44.2831 7.13294 43.9578 7.7314 43.5818 8.30007C43.5162 8.4013 43.3402 8.4936 43.2238 8.48467C42.63 8.43406 42.0392 8.34473 41.4484 8.27328C40.7352 8.18693 40.1713 8.54422 40.04 9.2439C39.8818 10.0835 39.7595 10.9321 39.6909 11.7806C39.6223 12.6232 40.04 13.0639 40.8785 13.1711C41.3589 13.2336 41.8363 13.308 42.3167 13.3646C42.5435 13.3914 42.6181 13.5075 42.6628 13.7219C42.8031 14.3977 42.9582 15.0736 43.1402 15.7375C43.191 15.9281 43.182 16.0174 43.0209 16.1365C42.5196 16.5027 42.0243 16.8749 41.5439 17.2679C40.9889 17.7205 40.8874 18.2921 41.2962 18.8817C41.7826 19.5843 42.2988 20.2691 42.8448 20.9301C43.3372 21.5285 43.8743 21.5911 44.5218 21.1534C45.035 20.808 45.5154 20.412 45.9898 20.0547C46.7089 20.4894 47.4221 20.9122 48.1263 21.3499C48.2098 21.4035 48.2874 21.5583 48.2785 21.6536C48.2068 22.2818 48.0905 22.9041 48.0218 23.5323C47.9562 24.1367 48.2964 24.6816 48.8872 24.7888C49.851 24.9614 50.8267 25.0895 51.7994 25.1669C52.3843 25.2145 52.7841 24.8364 52.8856 24.2558C52.984 23.6961 53.0586 23.1304 53.1243 22.5647C53.1481 22.3592 53.2138 22.2699 53.4286 22.2282C54.1119 22.1032 54.7893 21.9543 55.4636 21.7995C55.7113 21.7429 55.8843 21.7846 56.0395 22.0019C56.3737 22.4634 56.7079 22.9279 57.0839 23.3566C57.5941 23.9372 58.1043 23.9968 58.725 23.5561C59.4023 23.0768 60.0707 22.5766 60.7212 22.0585C61.3478 21.5613 61.4194 20.9896 60.9539 20.3376H60.9599ZM52.3604 17.6312C50.0658 17.8426 47.2699 15.812 47.2252 12.6649C47.1834 9.81556 49.4511 7.5736 52.3127 7.49618C55.0459 7.41877 57.4807 9.72028 57.4837 12.5756C57.4837 15.7703 54.6162 17.8783 52.3634 17.6341L52.3604 17.6312Z" fill="#0B0028"></path>
    <path d="M32.6762 54.5702C31.3812 51.1314 30.0892 47.6895 28.7942 44.2506C28.7077 44.0244 28.6629 43.7832 28.3198 43.7832C26.7413 43.7951 25.1628 43.7921 23.5844 43.7862C23.289 43.7862 23.1278 43.8934 23.0145 44.1911C21.0869 49.336 19.1444 54.4749 17.2078 59.6169C17.1691 59.7211 17.1511 59.8342 17.1094 59.998C18.7266 59.998 20.2753 59.998 21.8239 59.998C22.0835 59.998 22.1641 59.8312 22.2237 59.6347C22.4266 58.9708 22.6325 58.3098 22.8205 57.6429C22.8861 57.4136 22.9906 57.3362 23.2412 57.3392C24.942 57.3511 26.6458 57.357 28.3466 57.3332C28.6868 57.3273 28.7972 57.4553 28.8778 57.7471C29.0538 58.3902 29.2627 59.0244 29.4507 59.6675C29.5193 59.9027 29.6506 60.0009 29.9102 59.995C31.0142 59.9771 32.1182 59.9771 33.2253 59.9712C33.6937 59.9712 34.1592 59.9712 34.6844 59.9712C34.6336 59.7896 34.6157 59.6943 34.5799 59.602C33.9444 57.9227 33.3058 56.2465 32.6732 54.5672L32.6762 54.5702ZM23.9723 53.9122C24.587 51.9085 25.1897 49.9464 25.7924 47.9873C25.8312 47.9962 25.867 48.0051 25.9058 48.017C26.4996 49.9732 27.0934 51.9323 27.6961 53.9152H23.9723V53.9122Z" fill="#0B0028"></path>
    <path d="M46.4075 44.0683C45.4168 43.8688 44.3904 43.8122 43.3759 43.7944C41.1021 43.7557 38.8255 43.7825 36.5517 43.7825C36.2036 43.7825 36.0355 43.9611 36.0475 44.3184C36.0594 44.6519 36.0743 44.9883 36.0743 45.3218C36.0743 50.0737 36.0743 54.8255 36.0624 59.5774C36.0624 59.9109 36.1549 59.9913 36.4861 59.9883C37.8766 59.9704 39.2671 59.9794 40.6575 59.9972C40.9291 60.0002 41.0305 59.9377 41.0276 59.6489C41.0126 58.0619 41.0186 56.472 41.0156 54.8851C41.0156 54.6022 41.0156 54.3194 41.0156 53.9978C41.8213 53.9978 42.5523 54.0068 43.2834 53.9978C44.2621 53.9829 45.2408 54.0068 46.2046 53.7448C47.9233 53.2803 49.087 52.268 49.6211 50.55C49.8777 49.7253 49.9105 48.8827 49.818 48.0461C49.5942 46.0244 48.5767 44.509 46.4075 44.0713V44.0683ZM43.7488 50.6007C42.9163 50.7555 42.048 50.7346 41.1946 50.7704C41.135 50.7704 41.0186 50.5917 41.0156 50.4964C40.9977 49.9754 41.0067 49.4544 41.0067 48.9363H40.9977C40.9977 48.4272 41.0037 47.921 40.9977 47.4119C40.9947 47.1975 41.0604 47.1022 41.2961 47.1082C41.9675 47.1231 42.6388 47.0993 43.3072 47.1171C44.2173 47.1409 44.9245 47.8019 45.0438 48.7041C45.1602 49.5705 44.641 50.4369 43.7488 50.6036V50.6007Z" fill="#0B0028"></path>
    <path d="M56.9899 43.8184H51.9531C51.971 44.0804 51.9949 44.2769 51.9949 44.4764C51.9979 49.5141 52.0039 54.5488 51.9949 59.5865C51.9949 59.8902 52.0516 59.9885 52.3798 59.9855C53.8061 59.9676 55.2354 59.9736 56.6647 59.9914C56.9809 59.9974 56.9989 59.8575 56.9989 59.6133C56.9929 54.5012 56.9929 49.392 56.9929 44.2799C56.9929 44.134 56.9929 43.991 56.9929 43.8184H56.9899Z" fill="#0B0028"></path>
    <path d="M26.3949 34.4724C27.2364 33.0909 26.8515 30.5006 24.1988 30.3786C22.1638 30.2863 20.1228 30.3309 18.0848 30.319C18.0282 30.319 17.9715 30.3518 17.9297 30.3637V40.1562H20.9255V36.1308C21.579 36.0237 22.0474 36.2142 22.3697 36.7829C22.9486 37.7952 23.4976 38.8224 24.0466 39.8466C24.1511 40.0431 24.2674 40.1473 24.5002 40.1443C25.4998 40.1354 26.5023 40.1414 27.5169 40.1414C27.5049 40.0788 27.5079 40.0104 27.4811 39.9597C26.9589 38.9891 26.4546 38.0066 25.9026 37.0538C25.6042 36.5358 25.2014 36.0892 24.5807 35.9194C24.5211 35.9016 24.4703 35.842 24.3629 35.7646C24.5658 35.7021 24.7031 35.6634 24.8433 35.6187C25.4908 35.4133 26.0309 35.062 26.3919 34.4695L26.3949 34.4724ZM23.3007 34.0943C23.0679 34.1956 22.8053 34.27 22.5517 34.2819C22.0236 34.3087 21.4924 34.2908 20.9285 34.2908V32.2067C21.6774 32.2424 22.4055 32.2483 23.1246 32.3228C23.4946 32.3615 23.787 32.7873 23.8288 33.1892C23.8646 33.5376 23.6528 33.9425 23.3007 34.0973V34.0943Z" fill="#0B0028"></path>
    <path d="M36.3699 32.3135V30.3186C36.2774 30.3127 36.2177 30.3097 36.155 30.3097C33.6695 30.3097 31.1839 30.3186 28.7013 30.3008C28.3552 30.3008 28.2627 30.3782 28.2657 30.7236C28.2806 33.5878 28.2776 36.452 28.2776 39.3163C28.2776 39.5723 28.2776 39.8254 28.2776 40.0934C28.4179 40.0993 28.5014 40.1082 28.588 40.1082C29.9426 40.1053 31.2973 40.0993 32.652 40.0963C33.8575 40.0963 35.063 40.1053 36.2684 40.0963C36.3699 40.0963 36.5609 39.9921 36.5609 39.9326C36.5817 39.2567 36.5728 38.5809 36.5728 37.8871H31.354V35.9131H36.0745V33.9897H31.348V32.3105H36.3729L36.3699 32.3135Z" fill="#0B0028"></path>
    <path d="M41.2046 31.9415C41.9655 31.8849 42.7771 31.8403 43.0874 32.8943C43.1202 33.0104 43.3022 33.1622 43.4156 33.1622C44.1616 33.1652 44.9046 33.1235 45.6505 33.1116C45.9161 33.1086 45.9788 32.9687 45.9251 32.7543C45.6714 31.6974 45.1493 30.8518 44.0601 30.4766C42.598 29.9735 41.118 30.0002 39.6679 30.4617C38.2565 30.9083 37.5076 32.2452 37.8298 33.6148C38.0447 34.5348 38.7101 35.0767 39.5217 35.4191C40.202 35.7049 40.936 35.8686 41.6432 36.0979C42.0759 36.2378 42.5354 36.345 42.9263 36.5683C43.538 36.9167 43.5618 37.7236 43.0009 38.1285C42.6428 38.3875 42.2251 38.5155 41.7685 38.453C40.8823 38.328 40.3691 37.7682 40.2109 36.7291C39.3217 36.7916 38.4564 36.8452 37.5911 36.9226C37.5195 36.9286 37.3912 37.0834 37.4031 37.1489C37.6627 38.5155 38.3102 39.5785 39.7246 40.0161C40.7659 40.3377 41.8401 40.3734 42.8994 40.2186C43.5588 40.1233 44.2511 39.9149 44.818 39.5725C46.6949 38.4471 46.9396 35.556 44.6659 34.4693C44.1347 34.2132 43.5559 34.0435 42.9889 33.8679C42.3265 33.6624 41.6462 33.5195 40.9868 33.3051C40.6824 33.2069 40.4586 32.9687 40.5093 32.5935C40.5481 32.3137 40.8823 31.9683 41.2016 31.9445L41.2046 31.9415Z" fill="#0B0028"></path>
    <path d="M52.5661 40.1556C52.9361 40.1735 52.9689 40.0454 52.9659 39.7417C52.954 37.5236 52.9659 35.3055 52.9421 33.0843C52.9391 32.7151 53.0674 32.6526 53.3897 32.6615C54.2699 32.6794 55.1531 32.6675 56.0722 32.6675V30.3184H46.8281V32.6735C46.9743 32.6735 47.0967 32.6735 47.216 32.6735C48.0247 32.6735 48.8303 32.6764 49.6389 32.6645C49.8806 32.6616 49.9672 32.7449 49.9642 32.9861C49.9522 35.2787 49.9582 37.5712 49.9373 39.8668C49.9373 40.1437 50.0268 40.1675 50.2536 40.1615C51.0234 40.1437 51.7963 40.1139 52.5631 40.1526L52.5661 40.1556Z" fill="#0B0028"></path>
  </g>
  <defs>
    <clipPath id="clip0_5757_33677">
      <rect width="74" height="60" fill="white"></rect>
    </clipPath>
  </defs>
</svg>
