<?xml version="1.0" encoding="UTF-8"?>
<svg xmlns="http://www.w3.org/2000/svg" width="86" height="60" viewBox="0 0 86 60" fill="none">
  <g clip-path="url(#clip0_5451_20416)">
    <path d="M35.8117 6.54533C38.5761 3.66502 42.4247 1.87857 46.6811 1.87857C52.3392 1.87857 57.2757 5.03361 59.9046 9.71735C62.1891 8.69668 64.7178 8.12885 67.3783 8.12885C77.5833 8.12885 85.8569 16.4745 85.8569 26.7687C85.8569 37.0641 77.5833 45.4097 67.3783 45.4097C66.156 45.4104 64.9366 45.2889 63.7385 45.047C61.4235 49.1764 57.012 51.9664 51.9485 51.9664C49.8288 51.9664 47.8239 51.4769 46.0388 50.6062C43.692 56.1264 38.2244 59.9969 31.852 59.9969C25.2159 59.9969 19.5602 55.7979 17.3893 49.909C16.4406 50.1105 15.4576 50.2155 14.4491 50.2155C6.54798 50.2156 0.142578 43.7443 0.142578 35.7602C0.142578 30.4098 3.02048 25.7381 7.29642 23.2388C6.41611 21.2132 5.92645 18.9775 5.92645 16.627C5.92645 7.44511 13.3807 0.00195312 22.5748 0.00195312C27.9729 0.00195312 32.7702 2.56849 35.8117 6.54533Z" fill="#00A1E0"></path>
    <path d="M12.5584 31.1136C12.5047 31.254 12.578 31.2834 12.5951 31.3077C12.7562 31.425 12.9199 31.5093 13.0847 31.6032C13.9589 32.0672 14.7844 32.2026 15.6477 32.2026C17.4059 32.2026 18.4974 31.2674 18.4974 29.7619V29.7326C18.4974 28.3406 17.2655 27.8352 16.1092 27.4701L15.959 27.4213C15.0872 27.138 14.3351 26.8939 14.3351 26.3199V26.2895C14.3351 25.7986 14.7746 25.4371 15.456 25.4371C16.213 25.4371 17.1117 25.6887 17.6904 26.0086C17.6904 26.0086 17.8601 26.1185 17.9224 25.9537C17.9565 25.8657 18.2496 25.0769 18.2802 24.9915C18.3131 24.8987 18.2545 24.8303 18.1947 24.7936C17.5341 24.3919 16.6208 24.1172 15.6758 24.1172L15.5 24.1184C13.8907 24.1184 12.7674 25.0903 12.7674 26.4835V26.5128C12.7674 27.9816 14.0067 28.4578 15.1679 28.7899L15.3547 28.8473C16.2009 29.1074 16.9299 29.3308 16.9299 29.9267V29.9561C16.9299 30.5006 16.4562 30.9059 15.6918 30.9059C15.3951 30.9059 14.4488 30.8999 13.4268 30.2539C13.3034 30.1818 13.2314 30.1294 13.1362 30.072C13.0862 30.0402 12.9604 29.9852 12.9055 30.1513L12.5584 31.1136ZM38.2983 31.1136C38.2446 31.254 38.3178 31.2834 38.3349 31.3077C38.496 31.425 38.6598 31.5093 38.8245 31.6032C39.6987 32.0672 40.5243 32.2026 41.3874 32.2026C43.1456 32.2026 44.2373 31.2674 44.2373 29.7619V29.7326C44.2373 28.3406 43.0053 27.8352 41.8489 27.4701L41.6988 27.4213C40.827 27.138 40.0748 26.8939 40.0748 26.3199V26.2895C40.0748 25.7986 40.5143 25.4371 41.1957 25.4371C41.9527 25.4371 42.8513 25.6887 43.4302 26.0086C43.4302 26.0086 43.5999 26.1185 43.6621 25.9537C43.6962 25.8657 43.9893 25.0769 44.0199 24.9915C44.0529 24.8987 43.9942 24.8303 43.9344 24.7936C43.2738 24.3919 42.3605 24.1172 41.4155 24.1172L41.2396 24.1184C39.6303 24.1184 38.507 25.0903 38.507 26.4835V26.5128C38.507 27.9816 39.7463 28.4578 40.9075 28.7899L41.0943 28.8473C41.9405 29.1074 42.6707 29.3308 42.6707 29.9267V29.9561C42.6707 30.5006 42.1957 30.9059 41.4314 30.9059C41.1347 30.9059 40.1885 30.8999 39.1665 30.2539C39.0431 30.1818 38.9699 30.1318 38.8772 30.072C38.8453 30.0512 38.6964 29.9938 38.6451 30.1513L38.2983 31.1136ZM55.8702 28.1646C55.8702 29.0157 55.7115 29.686 55.3989 30.1597C55.09 30.6286 54.6223 30.857 53.9704 30.857C53.3172 30.857 52.852 30.6298 52.548 30.1597C52.2402 29.6872 52.084 29.0157 52.084 28.1646C52.084 27.3149 52.2402 26.6457 52.548 26.1768C52.852 25.7129 53.3172 25.487 53.9704 25.487C54.6224 25.487 55.09 25.7129 55.4002 26.1768C55.7116 26.6456 55.8702 27.3148 55.8702 28.1646ZM57.3379 26.5871C57.1938 26.0999 56.9692 25.6701 56.6701 25.3124C56.3709 24.9534 55.9924 24.6653 55.543 24.4552C55.0949 24.2465 54.565 24.1403 53.9704 24.1403C53.3746 24.1403 52.8447 24.2465 52.3965 24.4552C51.9472 24.6653 51.5687 24.9535 51.2683 25.3124C50.9704 25.6714 50.7457 26.1011 50.6005 26.5871C50.4576 27.0718 50.3855 27.6017 50.3855 28.1646C50.3855 28.7276 50.4576 29.2587 50.6005 29.7422C50.7457 30.2281 50.9692 30.658 51.2696 31.0169C51.5687 31.3759 51.9485 31.6628 52.3966 31.8667C52.8459 32.0706 53.3746 32.1743 53.9705 32.1743C54.5651 32.1743 55.0938 32.0706 55.5431 31.8667C55.9912 31.6628 56.3709 31.3758 56.6701 31.0169C56.9692 30.6591 57.1939 30.2293 57.338 29.7422C57.4821 29.2575 57.5541 28.7263 57.5541 28.1646C57.5541 27.603 57.482 27.0718 57.3379 26.5871ZM69.39 30.6297C69.3412 30.4868 69.2032 30.5405 69.2032 30.5405C68.9896 30.6224 68.7624 30.6981 68.5207 30.7359C68.2752 30.7736 68.0054 30.7933 67.716 30.7933C67.0054 30.7933 66.4413 30.5821 66.0372 30.1645C65.6318 29.7469 65.4047 29.0717 65.4071 28.1584C65.4096 27.3269 65.6097 26.7017 65.97 26.2256C66.3278 25.7519 66.8724 25.5088 67.5988 25.5088C68.2045 25.5088 68.666 25.5784 69.1494 25.731C69.1494 25.731 69.2654 25.781 69.3203 25.6297C69.4485 25.2731 69.5438 25.0179 69.6805 24.626C69.7196 24.5149 69.6244 24.4673 69.5902 24.4538C69.3997 24.3793 68.9504 24.2585 68.6109 24.2072C68.2935 24.1584 67.9223 24.1327 67.5096 24.1327C66.8929 24.1327 66.3435 24.2377 65.8735 24.4478C65.4046 24.6565 65.0066 24.9446 64.6916 25.3037C64.3765 25.6627 64.1372 26.0924 63.9773 26.5784C63.8186 27.0631 63.738 27.5954 63.738 28.1584C63.738 29.3757 64.0664 30.3597 64.7148 31.0802C65.3643 31.8031 66.34 32.1706 67.6123 32.1706C68.3644 32.1706 69.1361 32.018 69.6905 31.7994C69.6905 31.7994 69.7967 31.7481 69.7503 31.6249L69.39 30.6297ZM71.9579 27.3494C72.0275 26.8769 72.1582 26.4836 72.3596 26.1772C72.6637 25.712 73.1276 25.4569 73.7797 25.4569C74.4318 25.4569 74.8628 25.7132 75.1716 26.1772C75.3768 26.4836 75.4659 26.894 75.5014 27.3494H71.9579ZM76.8993 26.3102C76.7748 25.8401 76.4658 25.3652 76.2632 25.1478C75.9432 24.8035 75.6308 24.563 75.3206 24.4286C74.9152 24.2552 74.4292 24.1405 73.8969 24.1405C73.2767 24.1405 72.7137 24.2443 72.2571 24.4592C71.7993 24.6741 71.4147 24.9672 71.113 25.3323C70.8114 25.6961 70.5843 26.1295 70.4402 26.6216C70.2949 27.1113 70.2217 27.6449 70.2217 28.2076C70.2217 28.7803 70.2974 29.3139 70.4476 29.7937C70.599 30.2773 70.8407 30.7034 71.1679 31.0562C71.4939 31.4116 71.914 31.69 72.417 31.884C72.9165 32.0769 73.5233 32.1771 74.2205 32.1758C75.6552 32.1709 76.4109 31.851 76.7223 31.6788C76.7773 31.6484 76.8298 31.5947 76.7637 31.4408L76.439 30.5311C76.3903 30.3956 76.2522 30.4456 76.2522 30.4456C75.8968 30.5775 75.3915 30.8144 74.2131 30.812C73.4427 30.8108 72.8712 30.5837 72.5134 30.2283C72.1459 29.8645 71.9664 29.3296 71.9347 28.5751L76.9029 28.58C76.9029 28.58 77.0335 28.5776 77.0471 28.4505C77.0519 28.397 77.2181 27.4299 76.8993 26.3102ZM32.1694 27.3494C32.2402 26.8769 32.3697 26.4836 32.5711 26.1772C32.8751 25.712 33.3391 25.4569 33.9911 25.4569C34.6431 25.4569 35.0742 25.7132 35.3843 26.1772C35.5881 26.4836 35.6773 26.894 35.7127 27.3494H32.1694ZM37.1095 26.3102C36.985 25.8401 36.6773 25.3652 36.4747 25.1478C36.1547 24.8035 35.8422 24.563 35.5321 24.4286C35.1267 24.2552 34.6408 24.1405 34.1084 24.1405C33.4894 24.1405 32.9252 24.2443 32.4686 24.4592C32.0108 24.6741 31.6261 24.9672 31.3245 25.3323C31.0229 25.6961 30.7958 26.1295 30.6518 26.6216C30.5077 27.1113 30.4332 27.6449 30.4332 28.2076C30.4332 28.7803 30.5089 29.3139 30.6592 29.7937C30.8106 30.2773 31.0524 30.7034 31.3795 31.0562C31.7056 31.4116 32.1256 31.69 32.6286 31.884C33.1281 32.0769 33.7348 32.1771 34.432 32.1758C35.8667 32.1709 36.6225 31.851 36.9339 31.6788C36.9889 31.6484 37.0413 31.5947 36.9754 31.4408L36.6519 30.5311C36.6018 30.3956 36.4639 30.4456 36.4639 30.4456C36.1086 30.5775 35.6042 30.8144 34.4235 30.812C33.6544 30.8108 33.0829 30.5837 32.7251 30.2283C32.3576 29.8645 32.1782 29.3296 32.1463 28.5751L37.1146 28.58C37.1146 28.58 37.2452 28.5776 37.2586 28.4505C37.2634 28.397 37.4294 27.4299 37.1095 26.3102ZM21.4306 30.6025C21.2364 30.4473 21.2096 30.4083 21.1437 30.3082C21.0459 30.1555 20.9959 29.9382 20.9959 29.6623C20.9959 29.2251 21.14 28.9114 21.4392 28.7001C21.4356 28.7014 21.8665 28.3277 22.8799 28.3411C23.5917 28.3509 24.2278 28.4559 24.2278 28.4559V30.7148H24.229C24.229 30.7148 23.5978 30.8503 22.8872 30.893C21.8762 30.9541 21.4269 30.6013 21.4306 30.6025ZM23.4073 27.1116C23.2059 27.0969 22.9445 27.0884 22.632 27.0884C22.2059 27.0884 21.7944 27.1421 21.4085 27.2459C21.0203 27.3496 20.6711 27.5121 20.3707 27.7269C20.0708 27.941 19.8242 28.2213 19.6503 28.5462C19.4745 28.8734 19.3854 29.2593 19.3854 29.6915C19.3854 30.1311 19.461 30.5132 19.6125 30.8259C19.7639 31.1397 19.9824 31.4009 20.2608 31.6025C20.5367 31.8039 20.8774 31.9516 21.273 32.0407C21.6625 32.1299 22.1045 32.175 22.588 32.175C23.0972 32.175 23.6051 32.1336 24.0972 32.0492C24.5843 31.9662 25.1826 31.8453 25.3486 31.8075C25.4651 31.7795 25.5811 31.7498 25.6966 31.7184C25.82 31.6879 25.8102 31.556 25.8102 31.556L25.8078 27.0127C25.8078 26.0163 25.5416 25.2775 25.0178 24.8197C24.4964 24.3631 23.7284 24.1322 22.7358 24.1322C22.3633 24.1322 21.7638 24.1836 21.4048 24.2556C21.4048 24.2556 20.3194 24.4656 19.8725 24.8148C19.8725 24.8148 19.7748 24.8759 19.8285 25.0127L20.1802 25.9578C20.2241 26.0799 20.3426 26.0383 20.3426 26.0383C20.3426 26.0383 20.3805 26.0237 20.4245 25.998C21.3806 25.4779 22.5893 25.4938 22.5893 25.4938C23.1266 25.4938 23.5393 25.6012 23.8176 25.8148C24.0887 26.0224 24.2266 26.3362 24.2266 26.9979V27.208C23.7993 27.147 23.4073 27.1116 23.4073 27.1116ZM63.4785 24.5517C63.5162 24.4393 63.4369 24.3856 63.4039 24.3734C63.3197 24.3404 62.8972 24.2513 62.5712 24.2305C61.9474 24.1927 61.6006 24.2977 61.2904 24.4369C60.9827 24.576 60.6409 24.8007 60.4503 25.0559V24.4516C60.4503 24.3673 60.3905 24.3001 60.3075 24.3001H59.0339C58.951 24.3001 58.8912 24.3672 58.8912 24.4516V31.8618C58.8912 31.9448 58.9595 32.0132 59.0425 32.0132H60.3478C60.3878 32.013 60.426 31.9969 60.4542 31.9685C60.4823 31.9401 60.4981 31.9017 60.4979 31.8618V28.1597C60.4979 27.6628 60.5529 27.1671 60.6628 26.8558C60.7703 26.548 60.9168 26.3014 61.0975 26.1243C61.2794 25.9485 61.4858 25.8252 61.7117 25.7556C61.9424 25.6848 62.1975 25.6616 62.3783 25.6616C62.6384 25.6616 62.9241 25.7287 62.9241 25.7287C63.0193 25.7397 63.0731 25.6811 63.1047 25.5944C63.1903 25.3673 63.432 24.6872 63.4785 24.5517Z" fill="white"></path>
    <path d="M51.2264 21.1177C51.0677 21.0689 50.9236 21.0359 50.7356 21.0005C50.545 20.9664 50.318 20.9492 50.0604 20.9492C49.1616 20.9492 48.4535 21.2032 47.9566 21.7037C47.462 22.202 47.1262 22.9602 46.9577 23.9578L46.8966 24.2935H45.7685C45.7685 24.2935 45.6317 24.2886 45.6024 24.4377L45.4181 25.4718C45.4046 25.5696 45.4475 25.6318 45.5792 25.6318H46.677L45.5634 31.8491C45.4766 32.3497 45.3765 32.7612 45.2654 33.0737C45.1567 33.3815 45.0505 33.6122 44.9187 33.7807C44.7917 33.9419 44.672 34.0615 44.4644 34.1311C44.2934 34.1885 44.0957 34.2154 43.8795 34.2154C43.7598 34.2154 43.6 34.1957 43.4815 34.1714C43.3643 34.1481 43.302 34.1225 43.2129 34.0846C43.2129 34.0846 43.0847 34.0359 43.0334 34.1641C42.9931 34.2703 42.7 35.0748 42.6646 35.1738C42.6305 35.2727 42.6793 35.3496 42.7415 35.3728C42.888 35.4241 42.9967 35.4583 43.1957 35.5059C43.4717 35.5707 43.7048 35.5743 43.9234 35.5743C44.38 35.5743 44.7976 35.5096 45.1432 35.3851C45.49 35.2593 45.7927 35.0407 46.0613 34.7453C46.3507 34.4253 46.5326 34.0908 46.7061 33.633C46.8783 33.1811 47.0261 32.6195 47.1432 31.9651L48.2629 25.6318H49.899C49.899 25.6318 50.0369 25.6366 50.0651 25.4865L50.2506 24.4536C50.2629 24.3547 50.2214 24.2936 50.0882 24.2936H48.4997C48.5083 24.2583 48.5803 23.6989 48.7622 23.1728C48.8404 22.9494 48.9869 22.7674 49.1103 22.6428C49.2324 22.5207 49.3728 22.4341 49.5267 22.384C49.6842 22.3327 49.8638 22.3083 50.0603 22.3083C50.2093 22.3083 50.3569 22.3254 50.468 22.3485C50.6219 22.3816 50.6817 22.3986 50.7221 22.4109C50.8845 22.4597 50.9064 22.4121 50.9382 22.334L51.318 21.2913C51.357 21.1787 51.2606 21.1311 51.2264 21.1177ZM29.0317 31.8626C29.0317 31.9456 28.9719 32.0128 28.8888 32.0128H27.5713C27.4883 32.0128 27.4297 31.9456 27.4297 31.8626V21.2594C27.4297 21.1764 27.4883 21.1092 27.5713 21.1092H28.8888C28.9719 21.1092 29.0317 21.1764 29.0317 21.2594V31.8626Z" fill="white"></path>
  </g>
  <defs>
    <clipPath id="clip0_5451_20416">
      <rect width="85.7143" height="60" fill="white" transform="translate(0.142578)"></rect>
    </clipPath>
  </defs>
</svg>
