<?xml version="1.0" encoding="UTF-8"?>
<svg xmlns="http://www.w3.org/2000/svg" width="82" height="60" viewBox="0 0 82 60" fill="none">
  <path d="M70.6004 34.5209C68.0255 34.5243 65.4852 35.0993 63.1713 36.2025C62.4469 35.0284 61.8875 33.7645 61.5081 32.4447C61.2901 31.4102 61.2397 30.3486 61.3587 29.2988C61.609 28.1437 61.9337 27.0051 62.3309 25.8899C62.3163 25.744 62.1523 25.0548 60.5037 25.0319C58.8551 25.009 57.4349 25.3379 57.2826 25.764C56.9963 26.5423 56.7663 27.3394 56.5944 28.1492C55.23 31.4366 53.5505 34.5908 51.5783 37.5696C50.4734 35.8005 50.0189 33.7164 50.2899 31.6611C50.5402 30.5059 50.8649 29.3673 51.2621 28.2521C51.2474 28.1063 51.0834 27.417 49.4348 27.3942C47.7862 27.3713 46.366 27.7002 46.2137 28.1263C46.0614 28.5524 45.8682 29.5562 45.5256 30.5114C45.183 31.4666 41.1829 40.1949 40.1346 42.4456C39.5958 43.5896 39.1302 44.5219 38.8023 45.1511C38.7867 45.1919 38.7671 45.2312 38.7437 45.2683C38.4509 45.8088 38.2957 46.1034 38.2957 46.1034V46.1177C38.0702 46.5124 37.8301 46.8784 37.71 46.8784C37.5006 46.0614 37.5107 45.2053 37.7393 44.3932C38.325 41.3646 39.7598 36.6573 39.7452 36.4943C39.7452 36.4056 40.0146 35.5877 38.8169 35.1644C38.5391 35.0353 38.2272 34.9935 37.9241 35.0447C37.621 35.0959 37.3416 35.2377 37.1244 35.4504C37.0189 35.4504 36.9457 35.6992 36.9457 35.6992C36.9457 35.6992 38.2488 30.4056 34.4596 30.4056C32.9841 30.6955 31.5827 31.2706 30.3381 32.0972C29.0935 32.9238 28.0306 33.9851 27.2122 35.2188C26.1931 35.7593 24.0233 36.9147 21.7012 38.1587C20.8227 38.642 19.9032 39.1253 19.0511 39.5886C18.9925 39.5314 18.931 39.4571 18.8724 39.3999C14.2604 34.601 5.78306 31.2149 6.1491 24.7945C6.2838 22.4552 7.10664 16.3122 22.4274 8.85078C35.0365 2.78214 45.0717 4.46375 46.8082 8.19301C49.2943 13.5181 41.4319 23.4046 28.404 24.8374C26.9627 25.123 25.4741 25.0885 24.0483 24.7366C22.6225 24.3846 21.296 23.7242 20.1667 22.8041C19.4786 22.0719 19.3732 22.029 19.1184 22.1749C18.6997 22.3951 18.9691 23.0529 19.1184 23.4332C19.6154 24.3116 20.2876 25.0839 21.0954 25.7042C21.9031 26.3246 22.83 26.7806 23.8212 27.0453C28.9464 28.1269 34.2899 27.6097 39.098 25.5667C47.0044 22.5839 53.1537 14.2902 51.3499 7.34363C49.5373 0.294061 37.5577 -2.03101 26.2195 1.90988C19.1177 4.24375 12.5557 7.9199 6.90752 12.7288C0.661517 18.4342 -0.325312 23.3903 0.0787897 25.4695C1.54293 32.8422 11.9412 37.6382 16.1023 41.1987C15.8915 41.316 15.6982 41.4189 15.5342 41.5047C13.4522 42.5143 5.51659 46.5667 3.52829 50.8508C1.28231 55.7126 3.88847 59.1873 5.6103 59.6563C8.20476 60.2629 10.9284 60.0631 13.401 59.0848C15.8736 58.1066 17.9717 56.3987 19.4025 54.1997C20.6208 52.3757 21.3697 50.2911 21.5854 48.1236C21.801 45.956 21.4771 43.7696 20.6411 41.7507C20.627 41.718 20.6072 41.688 20.5826 41.662L22.2136 40.7269C23.2766 40.112 24.3249 39.5429 25.2239 39.0738C24.6143 40.7911 24.2564 42.5838 24.1609 44.3989C23.9539 47.1809 24.8257 49.9372 26.6031 52.1206C26.8735 52.3479 27.1875 52.5206 27.5268 52.6286C27.8661 52.7366 28.224 52.7778 28.5797 52.7497C30.3366 52.7497 31.1419 51.3198 32.0233 49.621C33.1009 47.5448 34.0731 45.1311 34.0731 45.1311C34.0731 45.1311 32.8608 51.6544 36.1551 51.6544C37.3528 51.6544 38.5651 50.133 39.1068 49.3665V49.3808C39.1068 49.3808 39.1361 49.3379 39.1976 49.235L39.3908 48.929V48.9004C39.8711 48.0824 40.9487 46.2235 42.5504 43.1377C44.6178 39.1596 46.609 34.1863 46.609 34.1863C46.8011 35.2793 47.0662 36.3588 47.4026 37.418C47.8849 38.7019 48.4553 39.9526 49.1098 41.1616C48.6295 41.8193 48.3309 42.1854 48.3309 42.1854L48.3455 42.1997C47.956 42.6973 47.5373 43.2378 47.0717 43.764C45.6865 45.2514 44.4012 46.8248 43.224 48.4742C43.049 48.7513 42.9889 49.0831 43.0558 49.4019C43.1228 49.7208 43.3117 50.0027 43.5841 50.1902C44.2006 50.5034 44.9032 50.6166 45.59 50.5133C46.625 50.4562 47.6427 50.229 48.6003 49.8413C49.5256 49.5232 50.3986 49.0752 51.1918 48.5114C52.0094 47.9582 52.6676 47.2088 53.103 46.3353C53.5384 45.4618 53.7364 44.4936 53.6779 43.5238C53.5858 42.3022 53.2663 41.1072 52.735 39.9976C52.8843 39.7917 53.0278 39.5886 53.1684 39.3827C54.8332 36.9558 56.3337 34.4251 57.6603 31.8069C57.8524 32.8999 58.1175 33.9794 58.4539 35.0386C58.8517 36.1481 59.3414 37.2241 59.918 38.2559C58.0028 39.695 56.4942 41.5867 55.5344 43.7526C54.5915 46.4151 55.3236 47.6134 56.7057 47.8908C57.462 47.9417 58.2182 47.7905 58.8931 47.4533C59.8855 47.1348 60.8203 46.6657 61.6633 46.0634C62.5522 45.551 63.2967 44.8309 63.8298 43.9677C64.363 43.1046 64.668 42.1255 64.7175 41.1187C64.651 40.1136 64.4186 39.1256 64.0293 38.193C66.5567 37.2287 69.2971 36.9212 71.9825 37.3007C79.1099 38.1187 80.5184 42.4628 80.249 44.2931C80.1227 44.942 79.8556 45.5569 79.4656 46.0966C79.0757 46.6362 78.572 47.0881 77.9884 47.4218C77.4935 47.7278 77.3295 47.8308 77.3735 48.051C77.432 48.3741 77.6663 48.357 78.0909 48.2998C79.1651 47.9737 80.1129 47.3373 80.8092 46.4744C81.5055 45.6116 81.9177 44.5629 81.9913 43.4666C82.2168 39.1768 78.0235 34.4723 70.6092 34.5152L70.6004 34.5209ZM15.6074 52.6182C13.2414 55.1349 9.94707 56.0843 8.52393 55.2807C6.99537 54.4228 7.59566 50.7049 10.5005 48.0395C12.2236 46.5246 14.0861 45.1681 16.0642 43.9871C16.4098 43.7812 16.9193 43.4895 17.5284 43.1291L17.6923 43.0405L18.0525 42.8203C18.5715 44.5185 18.6185 46.3209 18.1889 48.0427C17.7592 49.7645 16.8682 51.3436 15.6074 52.6182ZM32.8286 41.1787C32.0057 43.1377 30.2839 48.1568 29.2356 47.8765C28.3366 47.642 27.7715 43.8384 29.057 40.0805C29.706 38.2715 30.6515 36.5774 31.8564 35.0643C33.1448 33.6601 34.568 33.1911 34.9106 33.7631C34.598 36.3223 33.8963 38.8217 32.8286 41.1787ZM47.0395 47.8193C46.694 47.9938 46.366 48.1053 46.2166 48.0252C46.1112 47.968 46.366 47.7393 46.366 47.7393C46.366 47.7393 48.1493 45.866 48.8521 45.0195C49.2562 44.5219 49.7306 43.9385 50.246 43.2779V43.4666C50.246 45.703 48.0293 47.2102 47.0424 47.825L47.0395 47.8193ZM58.0029 45.377C57.7482 45.2025 57.7921 44.6163 58.6472 42.7888C59.2417 41.6152 60.0723 40.5705 61.0893 39.7173C61.2452 40.1502 61.3264 40.6054 61.3295 41.0643C61.341 42.0411 61.0212 42.9941 60.42 43.7747C59.8188 44.5554 58.97 45.1198 58.0059 45.3799L58.0029 45.377Z" fill="#CD6799"></path>
</svg>
