<?xml version="1.0" encoding="UTF-8"?>
<svg xmlns="http://www.w3.org/2000/svg" width="60" height="60" viewBox="0 0 60 60" fill="none">
  <path d="M21.9995 0C18.6858 0 15.9999 2.68663 15.9999 5.9998C15.9991 6.78691 16.1537 7.56648 16.4548 8.29398C16.7559 9.02148 17.1976 9.68268 17.7547 10.2398C18.3118 10.7969 18.9734 11.2391 19.7017 11.541C20.4301 11.843 21.2109 11.9988 21.9995 11.9996H28.0001V5.9998C28.0015 4.41006 27.37 2.88488 26.2447 1.75973C25.1194 0.634578 23.5924 0.0015945 21.9995 0ZM21.9995 15.9995H5.9996C2.68591 15.9995 0 18.6861 0 22.0003C0 25.3134 2.68591 28.0001 5.9996 28.0001H22.0005C25.3132 28.0001 28.0001 25.3134 28.0001 22.0003C28.0001 18.6861 25.3132 15.9995 21.9995 15.9995Z" fill="#36C5F0"></path>
  <path d="M60.0001 22.0003C60.0001 18.6861 57.3132 15.9995 53.9995 15.9995C50.6858 15.9995 47.9999 18.6861 47.9999 22.0003V28.0001H53.9995C55.5924 27.9985 57.1194 27.3655 58.2447 26.2403C59.37 25.1152 60.0015 23.59 60.0001 22.0003ZM44.0002 22.0003V5.9998C44.0015 4.41006 43.3701 2.88488 42.2448 1.75973C41.1195 0.634578 39.5925 0.0015945 37.9996 0C34.6859 0 32 2.68663 32 5.9998V21.9993C32 25.3144 34.6859 28.0011 37.9996 28.0011C39.5925 27.9995 41.1195 27.3665 42.2448 26.2413C43.3701 25.1162 44.0015 23.59 44.0002 22.0003Z" fill="#2EB67D"></path>
  <path d="M37.9996 60.0001C39.5925 59.9985 41.1195 59.3655 42.2448 58.2403C43.3701 57.1152 44.0015 55.59 44.0002 54.0003C44.0015 52.4105 43.3701 50.8853 42.2448 49.7602C41.1195 48.635 39.5925 48.0021 37.9996 48.0005H32V54.0003C32 57.3134 34.6859 60.0001 37.9996 60.0001ZM37.9996 44.0006H54.0005C57.3132 44.0006 60.0001 41.314 60.0001 37.9998C60.0015 36.4101 59.37 34.8849 58.2447 33.7597C57.1194 32.6346 55.5924 32.0016 53.9995 32H37.9996C34.6859 32 32 34.6866 32 37.9998C31.9992 38.7869 32.1538 39.5665 32.4548 40.294C32.7559 41.0215 33.1976 41.6827 33.7547 42.2398C34.3119 42.7969 34.9735 43.2391 35.7018 43.541C36.4301 43.843 37.2109 43.9998 37.9996 44.0006Z" fill="#ECB22E"></path>
  <path d="M3.02725e-06 37.9998C-0.00078881 38.7869 0.153767 39.5665 0.454847 40.294C0.755926 41.0215 1.19763 41.6827 1.75475 42.2398C2.31186 42.7969 2.97347 43.2391 3.70181 43.541C4.43014 43.843 5.21093 43.9988 5.9996 43.9996C7.59248 43.998 9.11951 43.365 10.2448 42.2399C11.3701 41.1147 12.0015 39.5895 12.0002 37.9998V32H5.9996C2.68591 32 3.02725e-06 34.6866 3.02725e-06 37.9998ZM15.9999 37.9998V53.9993C15.9999 57.3134 18.6858 60.0001 21.9995 60.0001C23.5924 59.9985 25.1194 59.3655 26.2447 58.2403C27.37 57.1152 28.0015 55.59 28.0001 54.0003V37.9998C28.0009 37.2126 27.8463 36.433 27.5452 35.7054C27.2441 34.9778 26.8023 34.3166 26.245 33.7594C25.6878 33.2023 25.0261 32.7602 24.2976 32.4583C23.5692 32.1564 22.7883 32.0007 21.9995 32C18.6858 32 15.9999 34.6866 15.9999 37.9998Z" fill="#E01E5A"></path>
</svg>
