<?xml version="1.0" encoding="UTF-8"?>
<svg xmlns="http://www.w3.org/2000/svg" width="54" height="60" viewBox="0 0 54 60" fill="none">
  <g clip-path="url(#clip0_5451_19037)">
    <path d="M26.9094 0.0111305C32.6559 0.0111305 38.4025 0.0111305 44.1491 0.00667829C44.3474 0.00667829 44.4722 0.0734612 44.588 0.231514C45.8247 1.9189 47.2753 3.37699 49.1269 4.38764C49.5547 4.62138 50.0338 4.76162 50.4795 4.96642C50.5953 5.01985 50.7223 5.14228 50.7557 5.25804C51.4888 7.82473 52.0793 10.4226 52.5183 13.0538C52.8614 15.1107 53.1399 17.1766 53.2179 19.2646C53.2736 20.7561 53.3516 22.2498 53.3048 23.7391C53.2558 25.3018 53.1132 26.8645 52.9394 28.4206C52.6208 31.2856 51.9345 34.0682 50.963 36.7796C50.0227 39.4064 48.7949 41.8929 47.2708 44.2326C45.134 47.516 42.5336 50.381 39.5166 52.8809C37.8455 54.2633 36.0205 55.412 34.1912 56.5629C32.3328 57.7338 30.3676 58.6844 28.3399 59.5125C27.9277 59.6817 27.5088 59.833 27.0876 59.9733C26.9851 60.0089 26.847 60.0045 26.7445 59.9666C24.8059 59.2676 22.9365 58.4217 21.1472 57.3888C19.3624 56.3559 17.6311 55.2473 15.9933 53.9962C14.3556 52.7451 12.7624 51.434 11.3386 49.9425C7.35899 45.7663 4.38655 40.978 2.63294 35.464C1.89763 33.1555 1.33834 30.8047 1.07541 28.3939C0.90607 26.8378 0.774605 25.2751 0.716671 23.7124C0.660966 22.2409 0.652053 20.7606 0.754551 19.2936C0.888244 17.3925 1.11998 15.4959 1.37177 13.6059C1.66812 11.3932 2.14719 9.21382 2.68196 7.04782C2.83793 6.42006 3.00505 5.79453 3.18554 5.17122C3.2145 5.07328 3.31477 4.95752 3.40836 4.92635C5.88391 4.0515 7.66425 2.31514 9.19727 0.276036C9.35993 0.069009 9.51813 0 9.78106 0C12.1385 0.0155827 14.4982 0.0155827 16.8556 0.0155827C20.2069 0.0155827 23.5581 0.0155827 26.9094 0.0155827V0.0111305ZM26.9027 2.04133C21.9828 2.04133 17.0629 2.04133 12.143 2.04133C11.8644 2.04133 11.5859 2.02797 11.3074 2.04578C11.2027 2.05246 11.0511 2.10366 11.0044 2.1838C10.4139 3.18332 9.67633 4.06263 8.82515 4.84176C7.88485 5.70326 6.85541 6.41561 5.55413 6.62709C5.45832 6.64267 5.33799 6.77179 5.30903 6.86974C5.13077 7.4641 4.97034 8.0607 4.81436 8.66174C3.99215 11.8384 3.36602 15.0484 3.08081 18.3208C2.92483 20.1217 2.80228 21.9226 2.86467 23.7324C2.92038 25.3619 3.01842 26.987 3.24793 28.6031C3.59107 31.0095 4.15035 33.3625 4.95697 35.6554C6.63482 40.4237 9.30868 44.5665 12.856 48.146C14.5695 49.8757 16.4635 51.4006 18.4934 52.7541C21.0024 54.4258 23.6539 55.8194 26.4905 56.8545C26.7645 56.9547 27.023 56.9725 27.3015 56.8723C29.7459 55.9752 32.0677 54.8265 34.2736 53.4441C36.669 51.9438 38.915 50.2541 40.8981 48.2284C42.2038 46.895 43.4383 45.4992 44.5167 43.9721C46.3728 41.3498 47.9014 38.5627 48.9375 35.5063C50.0628 32.1871 50.7045 28.779 50.9028 25.2885C51.0209 23.2226 51.0276 21.1524 50.807 19.0932C50.6154 17.3079 50.4059 15.5248 50.1252 13.7528C49.7597 11.4577 49.1849 9.20714 48.5654 6.96768C48.503 6.74507 48.3827 6.6538 48.1576 6.5848C47.6206 6.42229 47.0658 6.26646 46.5778 5.99933C45.0716 5.17122 43.9463 3.92906 43.035 2.49768C42.8166 2.15709 42.596 2.02797 42.1949 2.0302C37.099 2.04356 32.0008 2.03911 26.9049 2.03911L26.9027 2.04133Z" fill="white"></path>
    <path d="M26.9045 2.04211C32.0004 2.04211 37.0986 2.04656 42.1945 2.0332C42.5956 2.0332 42.8162 2.16009 43.0346 2.50068C43.9459 3.93206 45.0711 5.17645 46.5774 6.00233C47.0654 6.26947 47.6202 6.42529 48.1572 6.5878C48.3823 6.65681 48.5048 6.74808 48.565 6.97069C49.1844 9.21014 49.7593 11.4607 50.1247 13.7558C50.4055 15.5278 50.615 17.3131 50.8066 19.0962C51.0272 21.1554 51.0205 23.2257 50.9024 25.2915C50.7041 28.7842 50.0624 32.1901 48.9371 35.5093C47.901 38.5657 46.3724 41.3528 44.5163 43.9751C43.4356 45.5 42.2034 46.898 40.8977 48.2314C38.9168 50.2549 36.6685 51.9445 34.2732 53.4471C32.0673 54.8296 29.7455 55.9782 27.3011 56.8753C27.0226 56.9777 26.7641 56.9577 26.49 56.8575C23.6535 55.8224 21.0019 54.4311 18.493 52.7571C16.4631 51.4036 14.5691 49.8787 12.8556 48.149C9.30826 44.5695 6.6344 40.4267 4.95655 35.6584C4.14771 33.3633 3.59066 31.0125 3.24751 28.6061C3.018 26.99 2.91996 25.3649 2.86426 23.7354C2.80187 21.9256 2.92442 20.1247 3.08039 18.3238C3.36338 15.0514 3.98951 11.8392 4.81395 8.66475C4.96992 8.06593 5.13035 7.46711 5.30861 6.87274C5.33758 6.77256 5.46013 6.64568 5.55371 6.63009C6.85722 6.41862 7.88443 5.70626 8.82474 4.84476C9.67592 4.0634 10.4135 3.1841 11.0039 2.1868C11.0507 2.10666 11.2 2.05546 11.307 2.04879C11.5833 2.03098 11.864 2.04433 12.1426 2.04433C17.0625 2.04433 21.9824 2.04433 26.9023 2.04433L26.9045 2.04211ZM26.9513 38.2696C29.848 38.2696 32.7424 38.2696 35.6391 38.2741C36.2652 38.2741 36.8267 38.1093 37.3303 37.742C38.2506 37.0697 38.6851 36.1348 38.7341 35.0262C38.7787 34.0445 38.7675 33.0628 38.7653 32.0788C38.7608 29.2139 38.7564 26.3489 38.7386 23.4839C38.7296 21.9991 38.0812 21.2244 36.6262 20.9906C36.0625 20.8994 35.4809 20.9127 34.9082 20.8949C34.701 20.8882 34.6141 20.837 34.6141 20.6078C34.623 19.5927 34.4626 18.5998 34.1663 17.627C33.5513 15.6035 32.3235 14.1031 30.4028 13.186C29.1015 12.5649 27.72 12.3667 26.2895 12.4313C25.0818 12.4847 23.9432 12.8075 22.9048 13.4086C20.8103 14.6218 19.7452 16.5496 19.2795 18.8491C19.1681 19.399 19.1548 19.9711 19.1102 20.5321C19.0901 20.7703 19.0277 20.8949 18.7448 20.8882C18.3013 20.8771 17.8557 20.9105 17.4101 20.9372C16.4319 20.9973 15.8102 21.4893 15.6186 22.382C15.5473 22.7136 15.5361 23.0631 15.5361 23.4037C15.5317 27.2527 15.5317 31.0994 15.5361 34.9483C15.5361 35.2889 15.5495 35.6339 15.6007 35.9723C15.779 37.161 16.4452 37.9602 17.4591 38.1783C17.7911 38.2496 18.1387 38.2629 18.4818 38.2652C21.3028 38.2718 24.1259 38.2696 26.9468 38.2696H26.9513Z" fill="#4EB276"></path>
    <path d="M26.9491 38.2718C24.1282 38.2718 21.305 38.274 18.4841 38.2674C18.1432 38.2674 17.7934 38.2518 17.4613 38.1805C16.4475 37.9624 15.7813 37.161 15.603 35.9745C15.5518 35.6383 15.5384 35.2933 15.5384 34.9505C15.5339 31.1015 15.5317 27.2548 15.5384 23.4059C15.5384 23.0653 15.5518 22.7158 15.6208 22.3841C15.8102 21.4915 16.4341 20.9995 17.4123 20.9394C17.8557 20.9127 18.3014 20.8771 18.747 20.8904C19.03 20.8971 19.0924 20.7725 19.1125 20.5343C19.1593 19.9711 19.1726 19.4012 19.2818 18.8513C19.7475 16.5495 20.8126 14.624 22.9071 13.4107C23.9455 12.8075 25.0841 12.4869 26.2918 12.4335C27.7223 12.3689 29.1016 12.5671 30.4051 13.1881C32.3258 14.1053 33.5535 15.6057 34.1685 17.6292C34.4649 18.602 34.6253 19.5948 34.6164 20.6099C34.6164 20.8392 34.7033 20.8904 34.9105 20.8971C35.4832 20.9149 36.0647 20.9016 36.6285 20.9928C38.0835 21.2266 38.7319 22.0035 38.7408 23.4861C38.7586 26.3511 38.7631 29.216 38.7676 32.081C38.7676 33.0627 38.7809 34.0467 38.7364 35.0284C38.6873 36.137 38.2528 37.0742 37.3326 37.7442C36.829 38.1115 36.2653 38.2785 35.6414 38.2763C32.7447 38.2696 29.8502 38.274 26.9536 38.274L26.9491 38.2718ZM26.8332 20.886C26.8332 20.886 26.8332 20.8838 26.8332 20.8815C28.4843 20.8815 30.1355 20.8793 31.7866 20.8838C31.9982 20.8838 32.1052 20.8259 32.0718 20.5988C31.9626 19.8598 31.9203 19.1007 31.7331 18.3816C31.3253 16.8055 30.3716 15.6858 28.7696 15.2072C27.8136 14.92 26.8355 14.8733 25.8506 15.0113C23.9477 15.2807 22.6665 16.3069 22.0559 18.1479C21.7885 18.956 21.7262 19.7952 21.6482 20.6322C21.6281 20.8593 21.744 20.8904 21.9312 20.8882C23.5644 20.8838 25.1977 20.886 26.8288 20.886H26.8332ZM28.8119 34.7323C28.7406 34.2025 28.676 33.7105 28.6069 33.2186C28.422 31.8985 28.2326 30.5806 28.0565 29.2606C28.0454 29.1826 28.0989 29.0535 28.1635 29.0112C28.7851 28.6016 29.155 28.0229 29.3333 27.315C29.5806 26.3266 29.3333 25.4651 28.5779 24.7928C27.827 24.125 26.9446 23.9224 25.9932 24.3209C25.0417 24.7171 24.4869 25.4651 24.3755 26.4802C24.2663 27.4819 24.7097 28.2722 25.4673 28.9088C25.5676 28.9934 25.6902 29.1493 25.6768 29.2539C25.4517 30.968 25.2066 32.6821 24.9638 34.3939C24.9192 34.7078 24.9303 34.7323 25.2467 34.7323C26.2873 34.7323 27.3257 34.7323 28.3662 34.7323C28.5022 34.7323 28.6403 34.7323 28.8119 34.7323Z" fill="#104123"></path>
  </g>
  <defs>
    <clipPath id="clip0_5451_19037">
      <rect width="52.6394" height="60" fill="white" transform="translate(0.680664)"></rect>
    </clipPath>
  </defs>
</svg>
