<?xml version="1.0" encoding="UTF-8"?>
<svg xmlns="http://www.w3.org/2000/svg" width="60" height="60" viewBox="0 0 60 60" fill="none">
  <path d="M9.66608 40.0262C11.1895 38.2027 11.3723 36.3184 10.1911 32.8215C9.44577 30.609 8.20358 28.9027 9.11295 27.5293C10.0833 26.0621 12.1458 27.4824 10.4301 29.4418L10.7723 29.6809C12.8348 29.9199 13.852 27.0934 12.3098 26.2871C8.24577 24.1637 4.68795 28.2465 6.25827 32.9715C6.93327 34.9731 7.87077 37.0965 7.11139 38.7887C6.45514 40.2371 5.18483 41.0902 4.3317 41.1324C2.55045 41.2074 3.75045 37.1246 5.78014 36.0934C5.95827 36.0043 6.21139 35.8824 5.97233 35.5871C3.44577 35.3012 1.96452 36.4684 1.11608 38.0996C-1.36361 42.8527 5.82702 44.6012 9.66608 40.0262ZM54.0661 26.0949C54.6473 27.5293 55.5333 28.9496 55.0036 30.2059C54.5723 31.284 54.0005 31.7293 53.3723 31.8371C52.4911 31.9871 52.7301 29.2215 54.2395 28.4012C54.3755 28.3262 54.5676 27.9699 54.3895 27.759C52.477 27.6559 51.3989 28.5652 50.8176 29.7793C49.1301 33.3231 54.6426 34.2934 57.352 30.8106C58.4301 29.4043 58.4723 28.0449 57.4411 25.5465C56.7848 23.9621 55.7817 22.7809 56.4098 21.7356C57.038 20.6902 58.6973 21.5856 57.488 23.0668L57.7551 23.2168C59.3255 23.3059 59.9676 21.2152 58.7723 20.6902C55.6176 19.3356 52.6739 22.7293 54.0661 26.0949Z" fill="#333333"></path>
  <path d="M34.0924 22.3122C33.0003 21.445 29.9393 22.8934 29.0628 25.0497C27.9706 27.7872 26.3581 31.7762 24.7737 33.5247C23.1003 35.3622 22.9362 33.9419 23.1003 32.8825C23.4893 30.384 25.9128 24.5997 27.2581 22.9731C26.7659 22.2419 23.5362 22.345 21.2956 25.8278C20.4612 27.1403 18.5487 31.5184 16.4065 34.9731C15.9378 35.7184 15.3612 35.1981 15.8065 33.4497C16.3128 31.4294 17.8081 25.884 19.7393 21.52C24.7924 20.5169 30.1596 19.8137 34.2706 19.7997C34.8237 19.6497 35.2081 19.1575 34.2706 19.1247C30.7268 19.0028 25.4065 19.4247 20.4284 20.0622C21.3659 18.1497 22.4159 16.6262 23.4612 15.9794C22.3268 15.2622 20.0253 15.5481 18.7081 17.4887C18.0661 18.4657 17.4913 19.4853 16.9878 20.5403C13.3596 21.0934 10.2378 21.745 8.65338 22.3403C7.06901 22.9356 7.1862 24.9559 8.18463 24.5809C10.8041 23.6467 13.4797 22.878 16.1956 22.2794C14.2128 26.7653 12.6565 32.0575 12.2815 34.2184C11.344 39.4497 14.5971 39.4215 16.1815 37.359C17.9065 35.095 21.4924 27.1544 22.0315 26.32C22.1956 26.034 22.4206 26.184 22.2987 26.4419C18.2909 34.4387 18.6378 37.5325 21.8815 36.8481C23.3487 36.534 25.8706 34.0356 26.5315 32.7231C26.6674 32.409 26.9487 32.4372 26.8924 32.5731C24.3753 39.159 21.1315 44.4934 18.9659 46.1715C16.9924 47.6809 15.5299 44.409 22.5096 39.7122C23.5409 39.009 23.0628 38.0528 21.8956 38.3809C18.2815 38.9481 7.96901 42.2247 3.45026 45.3606C3.10807 45.5997 2.79401 45.7919 2.80807 46.2981C2.80807 46.584 3.31432 46.4762 3.55338 46.3262C9.41276 42.8153 14.2128 41.4372 19.7112 40.2887C19.7881 40.3183 19.8733 40.3183 19.9503 40.2887C20.2034 40.2278 20.1893 40.3637 20.0253 40.4669C19.6503 40.6778 19.2799 40.87 19.1862 40.8981C15.4784 42.3465 13.2378 45.5481 14.0299 47.1747C14.7049 48.5809 18.3331 48.07 20.0534 47.1465C24.2721 44.859 27.3331 40.3731 29.4284 34.1856C31.2518 28.7106 33.5534 22.4997 34.0924 22.3122ZM58.594 34.9731C51.7315 34.0778 36.9331 35.2731 30.3987 37.0075C28.4534 37.5137 28.9924 38.545 29.9815 38.3528L30.4503 38.2497C35.8174 37.2044 48.8393 36.2903 56.4331 37.7434C57.3237 37.9028 60.0612 35.1559 58.594 34.9731ZM36.0049 34.1669C37.9221 33.2106 40.7815 27.2903 42.6284 24.0465C42.7643 23.8075 43.0034 23.9997 42.8674 24.1684C38.1424 32.3012 40.1487 33.2434 42.0143 33.1215C44.5315 32.9715 46.8143 29.3809 47.344 28.5934C47.5549 28.2794 47.6721 28.5325 47.5549 28.7575C47.4331 29.1325 47.0018 29.7887 46.6174 30.684C46.0503 31.9544 46.6456 32.4465 47.1424 32.6715C47.9206 33.0465 50.044 32.8075 50.3721 31.5044C48.2487 31.4575 53.3299 21.445 53.8549 20.8309C52.4487 20.0106 50.2362 20.9059 49.2378 22.8794C47.1003 27.0981 45.3049 30.52 44.1846 30.5762C42.0003 30.6981 46.6971 21.145 47.4659 20.845C46.9971 20.17 44.0299 20.4559 42.3706 23.0294C41.7706 23.9669 38.1237 30.4122 37.2143 31.4669C35.6299 33.3419 35.5081 31.734 35.9581 29.8544C36.1572 29.0491 36.4013 28.2557 36.6893 27.4778C37.7346 25.134 38.8549 24.37 39.544 23.6059C44.1612 18.4778 46.8096 14.3247 45.7643 12.6934C44.8268 11.245 41.7424 11.8872 39.7549 14.8778C36.094 20.3622 32.7237 27.8809 32.2784 31.3215C31.8331 34.7622 34.3174 35.0012 36.0049 34.1669ZM37.969 24.1075C38.1331 23.7325 38.2362 23.6387 38.5221 23.0012C40.1487 19.3825 42.1878 15.5715 43.6315 13.7903C44.5128 12.8528 45.7549 14.1184 43.5096 17.5403C42.2243 19.5363 40.7368 21.3945 39.0706 23.0856C38.6534 23.5544 38.2784 23.9387 38.1331 24.1637C37.9971 24.3465 37.8612 24.3137 37.969 24.1075Z" fill="#333333"></path>
</svg>
