<?xml version="1.0" encoding="UTF-8"?>
<svg xmlns="http://www.w3.org/2000/svg" width="60" height="54" viewBox="0 0 60 54" fill="none">
  <path d="M30 32.3438C32.9513 32.3438 35.3438 29.9513 35.3438 27C35.3438 24.0487 32.9513 21.6562 30 21.6562C27.0487 21.6562 24.6562 24.0487 24.6562 27C24.6562 29.9513 27.0487 32.3438 30 32.3438Z" fill="#61DAFB"></path>
  <path d="M50.2969 18.1875C49.2656 17.8125 48.1875 17.4375 47.0625 17.1094C47.3438 15.9844 47.5781 14.8594 47.7656 13.7812C48.75 7.59375 47.6719 3.23437 44.6719 1.54687C43.7812 1.03125 42.7969 0.796875 41.6719 0.796875C38.3906 0.796875 34.2188 3.23438 30 7.3125C25.7812 3.23438 21.6094 0.796875 18.3281 0.796875C17.2031 0.796875 16.2188 1.03125 15.3281 1.54687C12.3281 3.28125 11.25 7.64062 12.2344 13.7812C12.4219 14.8594 12.6562 15.9844 12.9375 17.1094C11.8125 17.4375 10.7344 17.7656 9.70313 18.1875C3.84375 20.4375 0.65625 23.5312 0.65625 27C0.65625 30.4688 3.89063 33.5625 9.70313 35.8125C10.7344 36.1875 11.8125 36.5625 12.9375 36.8906C12.6562 38.0156 12.4219 39.1406 12.2344 40.2188C11.25 46.4062 12.3281 50.7656 15.3281 52.4531C16.2188 52.9688 17.2031 53.2031 18.3281 53.2031C21.6562 53.2031 25.8281 50.7656 30 46.6875C34.2188 50.7656 38.3906 53.2031 41.6719 53.2031C42.7969 53.2031 43.7812 52.9688 44.6719 52.4531C47.6719 50.7188 48.75 46.3594 47.7656 40.2188C47.5781 39.1406 47.3438 38.0156 47.0625 36.8906C48.1875 36.5625 49.2656 36.2344 50.2969 35.8125C56.1562 33.5625 59.3438 30.4688 59.3438 27C59.3438 23.5312 56.1562 20.4375 50.2969 18.1875ZM43.3594 3.89062C45.2812 5.01562 45.9375 8.48438 45.1406 13.4062C45 14.3906 44.7656 15.4219 44.4844 16.5C42.0469 15.9375 39.4688 15.5625 36.75 15.3281C35.1562 13.0781 33.5156 11.0625 31.875 9.23438C35.3438 5.8125 38.8594 3.46875 41.7188 3.46875C42.3281 3.46875 42.8906 3.60937 43.3594 3.89062ZM38.1094 31.6875C37.2656 33.1875 36.2812 34.6875 35.25 36.1875C33.5156 36.3281 31.7812 36.375 30 36.375C28.1719 36.375 26.4375 36.3281 24.75 36.1875C23.7187 34.6875 22.7812 33.1875 21.9375 31.6875C21.0469 30.1406 20.2031 28.5469 19.4531 27C20.2031 25.4531 21.0469 23.8594 21.9375 22.3125C22.7812 20.8125 23.7656 19.3125 24.7969 17.8125C26.5312 17.6719 28.2656 17.625 30.0469 17.625C31.875 17.625 33.6094 17.6719 35.2969 17.8125C36.3281 19.3125 37.2656 20.8125 38.1094 22.3125C39 23.8594 39.8438 25.4531 40.5938 27C39.7969 28.5469 39 30.0938 38.1094 31.6875ZM42 30.1406C42.7031 31.7812 43.2656 33.375 43.7812 34.9688C42.1875 35.3438 40.5 35.625 38.7188 35.8594C39.2812 34.9688 39.8906 34.0312 40.4062 33.0469C40.9687 32.0625 41.4844 31.0781 42 30.1406ZM30 42.8438C28.875 41.625 27.7969 40.3125 26.7656 38.9531C27.8437 39 28.9219 39.0469 30 39.0469C31.0781 39.0469 32.1562 39 33.2344 38.9531C32.2031 40.3125 31.125 41.625 30 42.8438ZM21.2812 35.8125C19.5 35.5781 17.8125 35.2969 16.2187 34.9219C16.7344 33.375 17.2969 31.7344 18 30.0938C18.5156 31.0312 19.0312 32.0156 19.5937 32.9531C20.1562 33.9844 20.7188 34.875 21.2812 35.8125ZM18 23.8594C17.2969 22.2187 16.7344 20.625 16.2187 19.0312C17.8125 18.6562 19.5 18.375 21.2812 18.1406C20.7188 19.0312 20.1094 19.9688 19.5937 20.9531C19.0312 21.9375 18.5156 22.9219 18 23.8594ZM30 11.1562C31.125 12.375 32.2031 13.6875 33.2344 15.0469C32.1562 15 31.0781 14.9531 30 14.9531C28.9219 14.9531 27.8437 15 26.7656 15.0469C27.7969 13.6875 28.875 12.375 30 11.1562ZM40.4062 21L38.7188 18.1875C40.5 18.4219 42.1875 18.7031 43.7812 19.0781C43.2656 20.625 42.7031 22.2656 42 23.9063C41.4844 22.9219 40.9687 21.9375 40.4062 21ZM14.8594 13.4062C14.0625 8.48438 14.7187 5.01562 16.6406 3.89062C17.1094 3.60937 17.6719 3.46875 18.2812 3.46875C21.0938 3.46875 24.6094 5.76562 28.125 9.23438C26.4844 11.0156 24.8437 13.0781 23.25 15.3281C20.5312 15.5625 17.9531 15.9844 15.5156 16.5C15.2344 15.4219 15.0469 14.3906 14.8594 13.4062ZM3.28125 27C3.28125 24.7969 5.95313 22.4531 10.6406 20.7188C11.5781 20.3438 12.6094 20.0156 13.6406 19.7344C14.3906 22.0781 15.3281 24.5625 16.4531 27.0469C15.3281 29.5312 14.3438 31.9688 13.6406 34.3125C7.17188 32.4375 3.28125 29.625 3.28125 27ZM16.6406 50.1094C14.7187 48.9844 14.0625 45.5156 14.8594 40.5938C15 39.6094 15.2344 38.5781 15.5156 37.5C17.9531 38.0625 20.5312 38.4375 23.25 38.6719C24.8437 40.9219 26.4844 42.9375 28.125 44.7656C24.6562 48.1875 21.1406 50.5312 18.2812 50.5312C17.6719 50.5312 17.1094 50.3906 16.6406 50.1094ZM45.1406 40.5938C45.9375 45.5156 45.2812 48.9844 43.3594 50.1094C42.8906 50.3906 42.3281 50.5312 41.7188 50.5312C38.9062 50.5312 35.3906 48.2344 31.875 44.7656C33.5156 42.9844 35.1562 40.9219 36.75 38.6719C39.4688 38.4375 42.0469 38.0156 44.4844 37.5C44.7656 38.5781 44.9531 39.6094 45.1406 40.5938ZM49.3594 33.2812C48.4219 33.6562 47.3906 33.9844 46.3594 34.2656C45.6094 31.9219 44.6719 29.4375 43.5469 26.9531C44.6719 24.4688 45.6562 22.0313 46.3594 19.6875C52.8281 21.5625 56.7188 24.375 56.7188 27C56.7188 29.2031 54 31.5469 49.3594 33.2812Z" fill="#61DAFB"></path>
</svg>
