<?xml version="1.0" encoding="UTF-8"?>
<svg xmlns="http://www.w3.org/2000/svg" width="60" height="60" viewBox="0 0 60 60" fill="none">
  <g clip-path="url(#clip0_5757_33785)">
    <path d="M52.5 0H7.5C5.51088 0 3.60322 0.790176 2.1967 2.1967C0.790176 3.60322 0 5.51088 0 7.5L0 52.5C0 54.4891 0.790176 56.3968 2.1967 57.8033C3.60322 59.2098 5.51088 60 7.5 60H52.5C54.4891 60 56.3968 59.2098 57.8033 57.8033C59.2098 56.3968 60 54.4891 60 52.5V7.5C60 5.51088 59.2098 3.60322 57.8033 2.1967C56.3968 0.790176 54.4891 0 52.5 0Z" fill="#0277BD"></path>
    <path d="M26.25 45C26.25 45.9946 25.8549 46.9484 25.1516 47.6516C24.4484 48.3549 23.4946 48.75 22.5 48.75H11.25C10.2554 48.75 9.30161 48.3549 8.59835 47.6516C7.89509 46.9484 7.5 45.9946 7.5 45V11.25C7.5 10.2554 7.89509 9.30161 8.59835 8.59835C9.30161 7.89509 10.2554 7.5 11.25 7.5H22.5C23.4946 7.5 24.4484 7.89509 25.1516 8.59835C25.8549 9.30161 26.25 10.2554 26.25 11.25V45ZM52.5 30C52.5 30.9946 52.1049 31.9484 51.4016 32.6516C50.6984 33.3549 49.7446 33.75 48.75 33.75H37.5C36.5054 33.75 35.5516 33.3549 34.8484 32.6516C34.1451 31.9484 33.75 30.9946 33.75 30V11.25C33.75 10.2554 34.1451 9.30161 34.8484 8.59835C35.5516 7.89509 36.5054 7.5 37.5 7.5H48.75C49.7446 7.5 50.6984 7.89509 51.4016 8.59835C52.1049 9.30161 52.5 10.2554 52.5 11.25V30Z" fill="#ECEFF1"></path>
  </g>
  <defs>
    <clipPath id="clip0_5757_33785">
      <rect width="60" height="60" fill="white"></rect>
    </clipPath>
  </defs>
</svg>
