<?xml version="1.0" encoding="UTF-8"?>
<svg xmlns="http://www.w3.org/2000/svg" width="60" height="60" viewBox="0 0 60 60" fill="none">
  <g clip-path="url(#clip0_5451_19017)">
    <path d="M0.00301674 29.9444C0.00301674 23.5014 -0.00323131 17.0616 0.00614076 10.6186C0.0155128 4.29455 4.25481 0.0180016 10.5622 0.0117402C23.5238 -0.00391338 36.4854 -0.00391338 49.4438 0.0117402C55.745 0.0180016 59.9874 4.28829 59.9936 10.6154C60.003 23.5359 60.003 36.4594 59.9936 49.3799C59.9874 55.7164 55.745 59.9898 49.4407 59.9961C36.4791 60.0086 23.5175 60.0055 10.5591 59.9961C5.46693 59.993 1.72123 57.2567 0.387272 52.5074C0.0967375 51.4743 0.031133 50.3535 0.0248849 49.2703C-0.00635533 42.8304 0.00926479 36.3874 0.00926479 29.9476L0.00301674 29.9444ZM4.88274 13.4613V14.7887C4.88274 26.5445 4.88274 38.2972 4.88274 50.053C4.88274 53.2056 6.11985 54.4422 9.27199 54.4422C23.0583 54.4422 36.8415 54.4015 50.6278 54.4767C53.3738 54.4923 55.1733 53.1868 55.1483 49.9152C55.0577 38.2001 55.1139 26.485 55.1139 14.7699C55.1139 14.3535 55.1139 13.9371 55.1139 13.4581H4.88587L4.88274 13.4613ZM46.3698 7.44717C46.3729 8.69006 47.3757 9.66684 48.6191 9.63867C49.8406 9.61049 50.8559 8.5617 50.8215 7.36264C50.7871 6.24811 49.7406 5.22437 48.6003 5.19306C47.4288 5.15862 46.3667 6.23246 46.3729 7.44717H46.3698ZM41.1933 5.20558C40.0061 5.24002 38.9721 6.33264 39.0158 7.50978C39.0596 8.71198 40.1311 9.68876 41.3526 9.6418C42.6085 9.5917 43.4926 8.59614 43.4301 7.30003C43.3707 6.1041 42.3773 5.17428 41.1964 5.20871L41.1933 5.20558Z" fill="#F16030"></path>
    <path d="M20.0592 19.3008V49.6186H8.74707V19.3008H20.056H20.0592Z" fill="#009987"></path>
    <path d="M51.2367 34.1475H39.959V18.998H51.2367V34.1475Z" fill="#009987"></path>
    <path d="M24.374 49.7165V34.8926H35.6268V49.7165H24.374Z" fill="#009987"></path>
    <path d="M35.6324 19.2734V30.2059H24.3672V19.2734H35.6324Z" fill="#009987"></path>
    <path d="M39.9473 49.3877V38.7871H51.2125V49.3877H39.9473Z" fill="#009987"></path>
  </g>
  <defs>
    <clipPath id="clip0_5451_19017">
      <rect width="60" height="60" fill="white"></rect>
    </clipPath>
  </defs>
</svg>
