<?xml version="1.0" encoding="UTF-8"?>
<svg xmlns="http://www.w3.org/2000/svg" width="68" height="60" viewBox="0 0 68 60" fill="none">
  <g clip-path="url(#clip0_5757_33481)">
    <path d="M19.8013 0.00585938C17.9877 0.00980597 16.2125 1.0425 15.2996 2.61771L1.09997 27.3592C0.201051 28.9386 0.201051 31.0032 1.09997 32.5826L15.2996 57.3243C16.2125 58.8996 17.9877 59.9325 19.8013 59.9362H48.2006C50.0142 59.9322 51.7895 58.8996 52.7023 57.3243L66.902 32.5826C67.8009 31.0032 67.8006 28.9386 66.902 27.3592L52.7023 2.61771C51.7895 1.04223 50.0142 0.00954286 48.2006 0.00585938H19.8013ZM20.0592 14.4801C20.0983 14.4762 20.1392 14.4762 20.1783 14.4801H25.0765C25.1854 14.4837 25.2916 14.5148 25.3852 14.5705C25.4789 14.6263 25.5569 14.7049 25.6122 14.799L33.9218 29.6519C33.9637 29.7255 33.9905 29.8071 34.0005 29.8913C34.0109 29.8071 34.0377 29.7255 34.0797 29.6519L42.3693 14.799C42.4264 14.7022 42.5076 14.6219 42.605 14.566C42.7023 14.5101 42.8125 14.4805 42.9246 14.4801H47.8232C48.2568 14.4838 48.5818 15.0319 48.3785 15.417L40.2672 29.971L48.3785 44.505C48.6009 44.8923 48.2683 45.4656 47.8232 45.4619H42.9246C42.8105 45.4595 42.699 45.4269 42.6015 45.3674C42.504 45.3079 42.4239 45.2236 42.3693 45.123L34.0797 30.2699C34.0377 30.1965 34.0109 30.1147 34.0007 30.0307C33.9905 30.115 33.9637 30.1964 33.9218 30.2702L25.6119 45.123C25.5591 45.2207 25.4822 45.3032 25.3885 45.3625C25.2948 45.4219 25.1875 45.4561 25.0768 45.4619H20.178C19.7329 45.4659 19.4003 44.8923 19.6227 44.505L27.734 29.971L19.6227 15.417C19.4283 15.0655 19.6657 14.5551 20.0592 14.4801Z" fill="#3498DB"></path>
  </g>
  <defs>
    <clipPath id="clip0_5757_33481">
      <rect width="67.1503" height="60" fill="white" transform="translate(0.425781)"></rect>
    </clipPath>
  </defs>
</svg>
