<?xml version="1.0" encoding="UTF-8"?>
<svg xmlns="http://www.w3.org/2000/svg" width="60" height="60" viewBox="0 0 60 60" fill="none">
  <path d="M32.5 2.50061C31.8075 2.50061 31.25 3.05811 31.25 3.75061V5.00061C31.25 5.69311 31.8075 6.25061 32.5 6.25061H45.0049L45.0244 14.3561C45.0269 15.3877 45.8629 16.2233 46.8945 16.2262L55 16.2476V51.875C55 52.9461 54.1962 53.75 53.125 53.75H24.375C23.3038 53.75 22.5 52.9461 22.5 51.875V50C22.5 49.3075 21.9425 48.75 21.25 48.75H20C19.3075 48.75 18.75 49.3075 18.75 50V51.875C18.75 54.9589 21.2912 57.5 24.375 57.5H53.125C56.2088 57.5 58.75 54.9589 58.75 51.875V13.7671C58.7499 13.2698 58.5523 12.793 58.2007 12.4414L48.8085 3.04932C48.4569 2.69757 47.9802 2.50012 47.4829 2.5L32.5 2.50061ZM18.75 28.7506C18.75 29.4431 19.3075 30.0006 20 30.0006H21.25C21.9425 30.0006 22.5 29.4431 22.5 28.7506V16.2506C22.5 15.5581 21.9425 15.0006 21.25 15.0006H20C19.3075 15.0006 18.75 15.5581 18.75 16.2506V28.7506Z" fill="#242730"></path>
  <path d="M24.375 2.5C21.2912 2.5 18.75 5.04113 18.75 8.125V11.25C18.75 11.9425 19.3075 12.5 20 12.5H21.25C21.9425 12.5 22.5 11.9425 22.5 11.25V8.125C22.5 7.05387 23.3038 6.25 24.375 6.25H27.5C28.1925 6.25 28.75 5.6925 28.75 5V3.75C28.75 3.0575 28.1925 2.5 27.5 2.5H24.375ZM5 32.5C3.61499 32.5 2.5 33.615 2.5 35V43.75C2.5 45.135 3.61499 46.25 5 46.25H36.25C37.635 46.25 38.75 45.135 38.75 43.75V35C38.75 33.615 37.635 32.5 36.25 32.5H5ZM11.0156 35.9253H12.5073C13.0086 35.9253 13.2471 36.0923 13.2471 36.5698C13.2471 36.9637 13.0453 37.1906 12.6514 37.2144L13.4399 38.3252L14.2017 37.2144C13.8197 37.1781 13.6304 36.9517 13.6304 36.5698C13.6304 36.0923 13.8566 35.9253 14.3579 35.9253H15.6592C16.1605 35.9253 16.3989 36.0923 16.3989 36.5698C16.3989 36.9995 16.1716 37.2266 15.73 37.2266C15.6702 37.2266 15.6236 37.2271 15.564 37.2141L14.1064 39.2307L15.8252 41.5451C15.8729 41.5451 15.9215 41.5326 15.9692 41.5326C16.4109 41.5326 16.6382 41.7598 16.6382 42.1893C16.6382 42.667 16.3997 42.8339 15.8984 42.8339H14.3335C13.8322 42.8339 13.5938 42.667 13.5938 42.1893C13.5938 41.7717 13.7842 41.5686 14.2139 41.5448L13.3203 40.2435L12.3999 41.5448C12.8415 41.5573 13.0566 41.7598 13.0566 42.1893C13.0566 42.667 12.8182 42.8339 12.3169 42.8339H10.957C10.4557 42.8339 10.2271 42.667 10.2271 42.1893C10.2271 41.7598 10.4422 41.5326 10.8838 41.5326C10.9315 41.5326 10.98 41.5451 11.0278 41.5451L12.6392 39.3625L11.0864 37.2141C11.0387 37.2141 10.9925 37.2266 10.9448 37.2266C10.5032 37.2266 10.2759 36.9995 10.2759 36.5698C10.2759 36.0923 10.5143 35.9253 11.0156 35.9253ZM17.7417 35.9253H18.6499C19.0557 35.9253 19.2833 36.1038 19.4385 36.5454L20.5835 39.8511L21.6943 36.5454C21.8495 36.1038 22.0746 35.9253 22.4805 35.9253H23.3887C23.89 35.9253 24.1284 36.0923 24.1284 36.5698C24.1284 36.9876 23.9016 37.2144 23.4839 37.2144H23.3887L23.5547 41.5576H23.6499C24.0677 41.5576 24.2822 41.7723 24.2822 42.1899C24.2822 42.6794 24.0441 42.8345 23.5547 42.8345H22.2412C21.7518 42.8345 21.5137 42.6794 21.5137 42.1899C21.5137 41.7723 21.7282 41.5576 22.146 41.5576H22.2413L22.1583 38.0005L21.2989 40.6519C21.1676 41.0577 20.9411 41.2134 20.5592 41.2134C20.1772 41.2134 19.9507 41.0577 19.8194 40.6519L18.9722 38.0005L18.8892 41.5576H18.9845C19.4022 41.5576 19.6168 41.7723 19.6168 42.1899C19.6168 42.6794 19.3786 42.8345 18.8892 42.8345H17.5758C17.0864 42.8345 16.8482 42.6794 16.8482 42.1899C16.8482 41.7723 17.0628 41.5576 17.4805 41.5576H17.5758L17.7419 37.2144H17.6466C17.2288 37.2144 17.002 36.9876 17.002 36.5698C17.002 36.0923 17.2404 35.9253 17.7417 35.9253ZM25.1245 35.9253H27.6196C28.0971 35.9253 28.3374 36.1043 28.3374 36.5698C28.3374 37.0472 28.0971 37.2144 27.6196 37.2144H27.1069V41.5576H29.7559V40.52C29.7559 40.0186 29.9227 39.7803 30.3882 39.7803C30.8656 39.7803 31.0229 40.0306 31.0229 40.52V42.3096C31.0229 42.7272 30.9019 42.8345 30.4126 42.8345H25.1245C24.6471 42.8345 24.4214 42.6676 24.4214 42.1899C24.4214 41.7127 24.6471 41.5576 25.1245 41.5576H25.6396V37.2144H25.1245C24.6471 37.2144 24.4214 37.0472 24.4214 36.5698C24.4214 36.1043 24.6471 35.9253 25.1245 35.9253Z" fill="#11C111"></path>
</svg>
