<?xml version="1.0" encoding="UTF-8"?>
<svg xmlns="http://www.w3.org/2000/svg" width="130" height="44" viewBox="0 0 130 44" fill="none">
  <g clip-path="url(#clip0_5451_20448)">
    <path d="M129.981 9.37109V39.5496L125.717 43.6265V14.0943L129.981 9.37109Z" fill="#E79225"></path>
    <path d="M102.034 9.39595L97.6172 14.0943L97.8456 14.3926L125.539 14.2931L125.792 14.0943L129.981 9.37109L102.034 9.39595Z" fill="#FFF16D"></path>
    <path d="M97.6172 14.0957H125.792V43.6528H97.6172V14.0957Z" fill="url(#paint0_linear_5451_20448)"></path>
    <path d="M121.503 24.7346C120.945 23.3674 120.107 22.1244 119.016 21.0555C117.975 20.0114 116.808 19.216 115.488 18.6939C114.193 18.1719 112.797 17.8984 111.274 17.8984C109.751 17.8984 108.33 18.1719 107.035 18.6939C105.715 19.216 104.548 20.0114 103.507 21.0555C102.415 22.1244 101.603 23.3674 101.045 24.7346C100.486 26.1018 100.232 27.5934 100.232 29.234C100.232 30.825 100.512 32.3165 101.07 33.7086C101.628 35.1007 102.441 36.3436 103.532 37.4374C104.548 38.4566 105.715 39.2272 107.01 39.7493C108.304 40.2713 109.751 40.5448 111.299 40.5448C112.797 40.5448 114.193 40.2713 115.488 39.7493C116.782 39.2272 117.975 38.4566 119.016 37.4374C120.107 36.3436 120.945 35.1007 121.503 33.7335C122.062 32.3662 122.341 30.8498 122.341 29.2589C122.341 27.5934 122.062 26.1018 121.503 24.7346ZM115.691 34.4792C114.599 35.747 113.152 36.3934 111.274 36.3934C109.396 36.3934 107.923 35.747 106.832 34.4792C105.741 33.2114 105.208 31.4465 105.208 29.2092C105.208 26.9222 105.766 25.1572 106.832 23.8645C107.923 22.5719 109.37 21.9504 111.274 21.9504C113.152 21.9504 114.599 22.5967 115.691 23.8645C116.757 25.1572 117.315 26.9222 117.315 29.2092C117.315 31.4465 116.782 33.2114 115.691 34.4792Z" fill="white"></path>
    <path d="M94.8508 6.91016V7.05931L98.4552 34.1802L96.3484 39.8977L96.0692 39.6989L92.3633 13.6966L92.4394 13.3486L94.7493 7.05931L94.8508 6.91016Z" fill="#009ADA"></path>
    <path d="M67.1072 10.6887L94.8508 6.91016L92.5156 13.4232L92.1856 13.7712L66.2441 17.5L66.3711 12.8514L67.1072 10.6887Z" fill="#91C9ED"></path>
    <path d="M92.5153 13.4238L96.3482 39.8984L69.0106 43.6521L65.3301 18.0724L66.9292 16.8543L92.5153 13.4238Z" fill="url(#paint1_linear_5451_20448)"></path>
    <path d="M87.8699 18.4944C87.743 17.6741 87.4638 17.0526 87.0069 16.63C86.6262 16.3068 86.1693 16.1328 85.6362 16.1328C85.5093 16.1328 85.357 16.1328 85.2047 16.1577C84.494 16.2571 83.9609 16.5803 83.631 17.1023C83.3771 17.4752 83.2756 17.9475 83.2756 18.4944C83.2756 18.6933 83.301 18.917 83.3264 19.1407L84.3163 26.0266L76.4476 27.1701L75.4576 20.2842C75.3307 19.4887 75.0515 18.8673 74.5946 18.4447C74.2138 18.0967 73.7569 17.9226 73.2493 17.9226C73.1224 17.9226 72.9955 17.9226 72.8685 17.9475C72.1324 18.0469 71.574 18.3701 71.2186 18.8921C70.9648 19.265 70.8633 19.7373 70.8633 20.2842C70.8633 20.4831 70.8887 20.7068 70.914 20.9554L73.6046 38.8786C73.7316 39.6989 74.0108 40.3204 74.5184 40.743C74.8992 41.0661 75.3561 41.2153 75.9145 41.2153C76.0668 41.2153 76.2191 41.2153 76.3714 41.1904C77.0567 41.091 77.5644 40.7678 77.8944 40.2458C78.1228 39.8729 78.2244 39.4255 78.2244 38.9034C78.2244 38.7046 78.199 38.4808 78.1736 38.2571L77.0821 31.1724L84.9509 30.0289L86.0423 37.1136C86.1693 37.9339 86.4485 38.5554 86.9307 38.9531C87.3115 39.2763 87.7684 39.4503 88.3014 39.4503C88.4283 39.4503 88.5806 39.4503 88.7329 39.4255C89.4437 39.326 89.9767 39.0029 90.3067 38.4808C90.5351 38.108 90.6621 37.6605 90.6621 37.1136C90.6621 36.9147 90.6367 36.691 90.6113 36.4673L87.8699 18.4944Z" fill="white"></path>
    <path d="M41.1396 0L31.2656 22.9695L32.6109 33.0621L32.6871 33.0373L43.7795 8.60113L43.7287 8.0791L41.3427 0.323164L41.1396 0Z" fill="#66BF6B"></path>
    <path d="M41.1387 0L43.7024 8.42712L43.7531 8.60113L68.1716 19.3153L68.2478 19.2655L66.1664 11.2113L41.1387 0Z" fill="#98D0A0"></path>
    <path d="M43.7037 8.42773L68.2491 19.2662L57.1567 43.9012L32.6113 33.0628L43.7037 8.42773Z" fill="url(#paint2_linear_5451_20448)"></path>
    <path d="M60.8119 21.2552C60.2789 19.8631 59.5428 18.6699 58.5782 17.6755C57.6137 16.6812 56.446 15.8857 55.0754 15.3139C53.7047 14.7422 52.334 14.4688 50.9379 14.4688H50.8618C49.4403 14.4688 48.0442 14.7919 46.6736 15.3885C45.2267 16.01 43.983 16.8552 42.9169 17.9738C41.8508 19.0676 40.9878 20.41 40.3278 21.9512C39.6678 23.4676 39.3125 25.0089 39.2363 26.5252V27.0473C39.2363 28.3897 39.4648 29.7072 39.9471 30.9998C40.4547 32.3671 41.1908 33.5354 42.1554 34.5298C43.1199 35.5241 44.3129 36.3196 45.7344 36.8913C47.0797 37.4631 48.4504 37.7365 49.8464 37.7365H49.8718C51.2679 37.7365 52.664 37.4382 54.0346 36.8665C55.4815 36.245 56.7506 35.375 57.8167 34.2563C58.8828 33.1625 59.7712 31.845 60.4312 30.3038C61.0911 28.7625 61.4465 27.2462 61.5226 25.7298V25.2823C61.548 23.9151 61.3196 22.5727 60.8119 21.2552ZM55.913 28.4145C54.9992 30.5524 53.7554 32.019 52.2578 32.8145C51.4456 33.2371 50.6079 33.4608 49.7703 33.4608C49.0342 33.4608 48.2473 33.2868 47.4604 32.9637C45.7344 32.2428 44.6683 31.0993 44.2114 29.4586C44.0591 28.9117 43.983 28.3399 43.983 27.7433C43.983 26.5501 44.2876 25.2326 44.8967 23.8156C45.8359 21.6281 47.0797 20.1365 48.5773 19.3162C49.3896 18.8687 50.2272 18.6699 51.0648 18.6699C51.8263 18.6699 52.5878 18.8439 53.4001 19.1671C55.1007 19.888 56.1668 21.0315 56.6237 22.6721C56.776 23.1942 56.8522 23.7659 56.8522 24.3625C56.8522 25.6055 56.5476 26.9478 55.913 28.4145Z" fill="white"></path>
    <path d="M29.3119 3.90234L33.3224 30.2029L31.4949 39.4504L31.241 39.1272L27.332 13.7216V13.2244L29.0581 4.3498L29.3119 3.90234Z" fill="#760D16"></path>
    <path d="M0.0195312 17.5001L1.92326 8.20291L29.3116 3.90234L27.4586 13.3735V13.995L0.349511 17.7487L0.0195312 17.5001Z" fill="#EF463E"></path>
    <path d="M27.4586 13.373L31.4945 39.4499L4.38542 43.6013L0.0195312 17.4996L27.4586 13.373Z" fill="url(#paint3_linear_5451_20448)"></path>
    <path d="M24.5396 35.2993C24.3365 35.0507 24.0319 34.8767 23.6765 34.7524C23.3212 34.6281 22.8897 34.5784 22.3566 34.5784C21.8744 34.5784 21.3159 34.6281 20.7067 34.7275L13.5487 35.9207C13.6249 35.3738 13.9041 34.6778 14.3864 33.8077C14.9194 32.8382 15.7317 31.6699 16.7724 30.3275C17.1277 29.8552 17.4069 29.5072 17.61 29.2586C17.7369 29.0846 17.94 28.8608 18.1938 28.5377C19.8437 26.4247 20.8336 24.7094 21.2398 23.367C21.4682 22.5964 21.5951 21.8258 21.6459 21.0552C21.6713 20.8315 21.6713 20.6326 21.6713 20.4337C21.6713 19.8868 21.6205 19.3399 21.519 18.793C21.4428 18.2959 21.3159 17.8981 21.1382 17.575C20.9606 17.2518 20.7575 17.0032 20.5037 16.8541C20.2245 16.68 19.7929 16.6055 19.2599 16.6055C18.8284 16.6055 18.2953 16.6552 17.6608 16.7546L9.38589 18.1467C8.39595 18.3207 7.63446 18.5942 7.17757 19.0416C6.79682 19.3896 6.61914 19.8371 6.61914 20.3343C6.61914 20.4586 6.61914 20.6077 6.64452 20.7569C6.77144 21.4529 7.1268 21.9501 7.71061 22.1987C8.06597 22.3478 8.4721 22.4224 8.97976 22.4224C9.30974 22.4224 9.69049 22.3976 10.0966 22.323L17.0008 21.1298C17.0008 21.2541 17.0262 21.3783 17.0262 21.4778C17.0262 21.9004 16.95 22.323 16.7977 22.7207C16.5947 23.2925 16.087 24.088 15.2494 25.1072C15.0209 25.3806 14.6656 25.8281 14.1833 26.3998C12.3049 28.6122 10.985 30.5015 10.1728 32.0676C9.58896 33.1614 9.20821 34.2055 8.97976 35.2744C8.85285 35.8959 8.7767 36.4676 8.7767 37.0394C8.7767 37.4371 8.80208 37.8348 8.87823 38.2077C8.97976 38.7546 9.10668 39.2021 9.28436 39.5501C9.46204 39.8981 9.71587 40.1716 9.99509 40.3207C10.2743 40.4699 10.655 40.5196 11.2135 40.5196C11.8988 40.5196 12.838 40.4202 14.031 40.2213L21.5444 38.9535C22.8643 38.7298 23.8035 38.4066 24.3365 37.984C24.768 37.636 24.9965 37.1637 24.9965 36.6168C24.9965 36.4676 24.9711 36.3185 24.9457 36.1693C24.8949 35.8461 24.768 35.5478 24.5396 35.2993Z" fill="white"></path>
  </g>
  <defs>
    <linearGradient id="paint0_linear_5451_20448" x1="1506.26" y1="56.3919" x2="1506.26" y2="2880.57" gradientUnits="userSpaceOnUse">
      <stop offset="0.00562" stop-color="#FFE513"></stop>
      <stop offset="1" stop-color="#FDB924"></stop>
    </linearGradient>
    <linearGradient id="paint1_linear_5451_20448" x1="205.284" y1="421.324" x2="2975.06" y2="2715.06" gradientUnits="userSpaceOnUse">
      <stop offset="0.00562" stop-color="#008CD2"></stop>
      <stop offset="1" stop-color="#00649D"></stop>
    </linearGradient>
    <linearGradient id="paint2_linear_5451_20448" x1="1814.57" y1="993.845" x2="1814.57" y2="3468.12" gradientUnits="userSpaceOnUse">
      <stop stop-color="#26A146"></stop>
      <stop offset="1" stop-color="#008A52"></stop>
    </linearGradient>
    <linearGradient id="paint3_linear_5451_20448" x1="1376.55" y1="261.486" x2="1778.27" y2="2835.73" gradientUnits="userSpaceOnUse">
      <stop stop-color="#D92231"></stop>
      <stop offset="1" stop-color="#BA2234"></stop>
    </linearGradient>
    <clipPath id="clip0_5451_20448">
      <rect width="130" height="44" fill="white"></rect>
    </clipPath>
  </defs>
</svg>
