<svg width="100" height="100" viewBox="0 0 100 100" fill="none" xmlns="http://www.w3.org/2000/svg">
<g clip-path="url(#clip0_10406_5239)">
<path fill-rule="evenodd" clip-rule="evenodd" d="M147.98 48C146.928 -4.53552 104.535 -46.9283 52 -47.98V48H147.98ZM50 50H149.961C149.306 50.0003 148.652 50.0068 148 50.0196C141.848 50.1403 135.833 50.8164 130.002 52C90.8174 59.9532 59.9532 90.818 52 130.002C50.8164 135.833 50.1403 141.848 50.0196 148C50.0066 148.665 50 149.332 50 150V50ZM48 52H-47.98C-46.9283 104.535 -4.53561 146.928 48 147.98V52ZM-49.9804 52C-48.9281 105.64 -5.64024 148.928 48 149.98C48.6651 149.993 49.3318 150 50 150H150V50C150 -4.56018 106.305 -48.915 52 -49.9804C51.3349 -49.9934 50.6682 -50 50 -50L-50 -50L-50 50C-50 50.6682 -49.9934 51.3349 -49.9804 52ZM50 50V-50C50 -49.3318 49.9934 -48.6651 49.9804 -48C49.8597 -41.8484 49.1836 -35.833 48 -30.0018C40.0468 9.18229 9.18229 40.0468 -30.0018 48C-35.833 49.1836 -41.8484 49.8597 -48 49.9804C-48.6651 49.9934 -49.3318 50 -50 50H50ZM-48 47.98C4.53563 46.9283 46.9283 4.53563 47.98 -48L-48 -48L-48 47.98ZM148 148V52.02C95.464 53.0716 53.0717 95.4648 52.02 148H148Z" fill="#00E2C5"/>
</g>
<defs>
<clipPath id="clip0_10406_5239">
<rect width="100" height="100" fill="white"/>
</clipPath>
</defs>
</svg>
