<svg width="101" height="100" viewBox="0 0 101 100" fill="none" xmlns="http://www.w3.org/2000/svg">
<g clip-path="url(#clip0_10388_5827)">
<path fill-rule="evenodd" clip-rule="evenodd" d="M50.9939 25C50.3228 25.0002 49.6578 25.0268 49 25.0788C47.2211 25.2196 45.4946 25.5467 43.84 26.0404C35.7903 28.4424 29.4424 34.7904 27.0404 42.84C26.3635 45.1083 26 47.5117 26 50C26 49.3268 25.9734 48.6599 25.9212 48.0001C25.9212 48 25.9212 48 25.9212 47.9999C25.7803 46.221 25.4533 44.4946 24.9596 42.84C22.0639 33.1358 13.4334 25.9047 3.00013 25.0788C2.3403 25.0266 1.67326 25 1 25C1 25.6733 1.02661 26.3403 1.07885 27.0001C1.90474 37.4334 9.13581 46.0639 18.84 48.9596C20.4946 49.4533 22.221 49.7803 23.9999 49.9212C24 49.9212 24 49.9212 24.0001 49.9212C24.6599 49.9734 25.3268 50 26 50C25.8082 50 25.6169 50.0022 25.4261 50.0065C25.4205 50.0066 25.4149 50.0067 25.4094 50.0068C25.4048 50.0069 25.4002 50.0071 25.3956 50.0072C24.9271 50.0183 24.4618 50.0423 24.0001 50.0788C24 50.0788 24 50.0788 23.9999 50.0788C22.221 50.2197 20.4946 50.5467 18.84 51.0404C9.13582 53.9361 1.90475 62.5667 1.07885 72.9999C1.02661 73.6597 1 74.3267 1 75C1.67326 75 2.3403 74.9734 3.00013 74.9212C13.4334 74.0953 22.0639 66.8643 24.9596 57.1601C25.4533 55.5055 25.7803 53.779 25.9212 52.0001C25.9212 52 25.9212 52 25.9212 51.9999C25.9732 51.3424 25.9998 50.6778 26 50.007C26.0002 50.6778 26.0268 51.3425 26.0788 52C26.2196 53.7789 26.5466 55.5055 27.0404 57.1601C29.4424 65.2097 35.7903 71.5576 43.84 73.9596C46.1083 74.6365 48.5117 75 51 75C50.3268 75 49.6599 75.0266 49.0001 75.0788C49 75.0788 49 75.0788 48.9999 75.0788C47.221 75.2197 45.4946 75.5467 43.84 76.0404C34.1358 78.9362 26.9047 87.5667 26.0788 97.9999C26.0266 98.6597 26 99.3267 26 100C26.6733 100 27.3403 99.9734 28.0001 99.9212C38.4334 99.0952 47.0639 91.8641 49.9596 82.1599C50.4533 80.5054 50.7803 78.779 50.9212 77.0001C50.9212 77 50.9212 77 50.9212 76.9999C50.9734 76.3401 51 75.6732 51 75C51 75.6732 51.0266 76.3401 51.0788 76.9999C51.0788 77 51.0788 77 51.0788 77.0001C51.2197 78.779 51.5467 80.5054 52.0404 82.1599C54.9361 91.8641 63.5667 99.0952 73.9999 99.9212C74.6597 99.9734 75.3267 100 76 100C76 99.3267 75.9734 98.6597 75.9212 97.9999C75.0952 87.5667 67.8641 78.9361 58.1599 76.0404C56.5054 75.5467 54.779 75.2197 53.0001 75.0788C53 75.0788 53 75.0788 52.9999 75.0788C52.3401 75.0266 51.6732 75 51 75C53.4883 75 55.8917 74.6365 58.1599 73.9596C66.2096 71.5576 72.5576 65.2096 74.9596 57.1599C75.6365 54.8917 76 52.4883 76 50C76 50.6732 76.0266 51.3401 76.0788 51.9999C76.0788 52 76.0788 52 76.0788 52.0001C76.2197 53.779 76.5467 55.5054 77.0404 57.1599C79.9361 66.8641 88.5667 74.0952 98.9999 74.9212C99.6597 74.9734 100.327 75 101 75C101 74.3267 100.973 73.6597 100.921 72.9999C100.095 62.5667 92.8641 53.9361 83.1599 51.0404C81.5054 50.5467 79.779 50.2197 78.0001 50.0788C78 50.0788 78 50.0788 77.9999 50.0788C77.3401 50.0266 76.6732 50 76 50C76.6732 50 77.3401 49.9734 77.9999 49.9212C78 49.9212 78 49.9212 78.0001 49.9212C79.779 49.7803 81.5054 49.4533 83.1599 48.9596C92.8641 46.0639 100.095 37.4334 100.921 27.0001C100.973 26.3403 101 25.6733 101 25C100.327 25 99.6597 25.0266 98.9999 25.0788C88.5667 25.9047 79.9361 33.1358 77.0404 42.84C76.5467 44.4946 76.2197 46.221 76.0788 47.9999C76.0788 48 76.0788 48 76.0788 48.0001C76.0266 48.6599 76 49.3268 76 50C76 47.5117 75.6365 45.1083 74.9596 42.84C72.5576 34.7904 66.2096 28.4424 58.16 26.0404C55.8917 25.3635 53.4883 25 51 25C51.6732 25 52.3401 24.9734 52.9999 24.9212C53 24.9212 53 24.9212 53.0001 24.9212C54.779 24.7803 56.5054 24.4533 58.16 23.9596C67.8641 21.0639 75.0952 12.4334 75.9212 2.00013C75.9734 1.3403 76 0.673259 76 0C75.3267 0 74.6597 0.0266146 73.9999 0.0788476C63.5667 0.904748 54.9361 8.13582 52.0404 17.84C51.5467 19.4946 51.2197 21.221 51.0788 22.9999C51.0788 23 51.0788 23 51.0788 23.0001C51.0266 23.6599 51 24.3268 51 25C51 24.8217 50.9981 24.6438 50.9944 24.4664C50.9943 24.4611 50.9942 24.4558 50.9941 24.4504C50.994 24.4464 50.9939 24.4425 50.9938 24.4385C50.9832 23.9555 50.9588 23.4759 50.9212 23.0001C50.9212 23 50.9212 23 50.9212 22.9999C50.7803 21.221 50.4533 19.4946 49.9596 17.84C47.0639 8.13581 38.4334 0.904744 28.0001 0.078847C27.3403 0.0266145 26.6733 1.36001e-07 26 0C26 0.673259 26.0266 1.3403 26.0788 2.00013C26.9047 12.4334 34.1358 21.0639 43.84 23.9596C45.4945 24.4533 47.221 24.7803 48.9999 24.9212C49 24.9212 49 24.9212 49.0001 24.9212C49.6579 24.9732 50.3228 24.9998 50.9939 25ZM48.906 22.906C37.8745 21.9104 29.0897 13.1255 28.094 2.09405C39.1255 3.08967 47.9103 11.8745 48.906 22.906ZM50.9944 27C50.9941 27 50.9938 27 50.9935 27C38.2939 27.0035 28 37.2996 28 50V50.0065C28 50.0068 28 50.0072 28 50.0075C28.004 62.7067 38.2999 73 51 73C63.7024 73 74 62.7024 74 50C74 37.2975 63.7024 27 51 27H50.9944ZM53.094 22.906C54.0897 11.8745 62.8745 3.08968 73.906 2.09405C72.9103 13.1255 64.1255 21.9103 53.094 22.906ZM78.094 47.906C79.0897 36.8745 87.8745 28.0897 98.906 27.094C97.9103 38.1255 89.1255 46.9103 78.094 47.906ZM78.094 52.0941C89.1254 53.0897 97.9103 61.8746 98.906 72.906C87.8746 71.9103 79.0897 63.1255 78.094 52.0941ZM53.094 77.094C64.1254 78.0897 72.9103 86.8746 73.906 97.906C62.8746 96.9103 54.0897 88.1254 53.094 77.094ZM48.906 77.094C47.9103 88.1255 39.1255 96.9103 28.094 97.906C29.0897 86.8745 37.8745 78.0897 48.906 77.094ZM23.906 52.094C22.9104 63.1256 14.1256 71.9103 3.09405 72.906C4.08968 61.8745 12.8745 53.0897 23.906 52.094ZM23.906 47.906C12.8745 46.9103 4.08967 38.1255 3.09405 27.094C14.1255 28.0897 22.9103 36.8745 23.906 47.906Z" fill="#00E2C5"/>
</g>
<defs>
<clipPath id="clip0_10388_5827">
<rect width="100" height="100" fill="white" transform="translate(0.5)"/>
</clipPath>
</defs>
</svg>
