<svg width="101" height="101" viewBox="0 0 101 101" fill="none" xmlns="http://www.w3.org/2000/svg">
<path fill-rule="evenodd" clip-rule="evenodd" d="M64.0041 54.7385L76.8156 67.5504C78.9363 69.6711 82.3753 69.6711 84.496 67.5504L97.308 54.7384C99.4287 52.6177 99.4288 49.1791 97.3079 47.0581L84.496 34.2466C82.3753 32.1257 78.9363 32.1256 76.8156 34.2465L64.0041 47.0582C61.883 49.1791 61.8831 52.6178 64.0041 54.7385ZM98.7222 45.6439C101.624 48.5459 101.624 53.2509 98.7222 56.1526L85.9102 68.9646C83.0085 71.8664 78.3031 71.8664 75.4013 68.9646L62.5899 56.1526C59.6876 53.2509 59.6876 48.5459 62.5899 45.644L75.4013 32.8323C78.3031 29.9304 83.0085 29.9304 85.9102 32.8323L98.7222 45.6439ZM15.8865 32.8323L3.0749 45.644C0.172947 48.5459 0.172952 53.2509 3.07491 56.1526L15.8865 68.9646C18.7885 71.8664 23.4935 71.8664 26.3954 68.9646L39.2071 56.1526C42.109 53.2509 42.109 48.5459 39.2071 45.6439L26.3954 32.8323C23.4935 29.9304 18.7885 29.9304 15.8865 32.8323ZM24.9813 67.5504L37.7929 54.7384C39.9137 52.6178 39.9138 49.1791 37.7929 47.0582L24.9812 34.2466C22.8604 32.1256 19.4216 32.1256 17.3008 34.2466L4.48911 47.0582C2.3682 49.1791 2.36825 52.6177 4.48907 54.7384L17.3007 67.5504C17.3007 67.5504 17.3007 67.5503 17.3007 67.5504C19.4216 69.6711 22.8604 69.6711 24.9813 67.5504C24.9813 67.5503 24.9813 67.5504 24.9813 67.5504ZM47.0583 97.3076C49.1791 99.4287 52.6176 99.4288 54.7389 97.3075L67.5504 84.4961C69.6711 82.3753 69.6711 78.9363 67.5504 76.8156L54.7389 64.0042C52.6176 61.8829 49.1791 61.883 47.0583 64.0041L34.2465 76.8156C32.1257 78.9363 32.1257 82.3753 34.2465 84.496L32.8323 85.9103C29.9304 83.0085 29.9304 78.3031 32.8323 75.4014L45.644 62.5899C48.5459 59.6876 53.2508 59.6876 56.1531 62.5899L68.9646 75.4014C71.8663 78.3031 71.8663 83.0085 68.9646 85.9103L56.1531 98.7217C53.2508 101.624 48.5459 101.624 45.644 98.7217L32.8323 85.9103L34.2465 84.496L47.0583 97.3076ZM54.739 37.7928C54.739 37.7927 54.739 37.7928 54.739 37.7928L67.5503 24.9813C69.6711 22.8604 69.6711 19.4216 67.5503 17.3007L54.739 4.4892C54.739 4.48917 54.739 4.48923 54.739 4.4892C52.6177 2.36823 49.179 2.36828 47.0582 4.48912L34.2465 17.3007C32.1256 19.4217 32.1257 22.8603 34.2465 24.9812L47.0582 37.7929C49.179 39.9137 52.6177 39.9137 54.739 37.7928ZM45.644 39.2071C48.5459 42.1091 53.2508 42.109 56.1531 39.2071L68.9646 26.3954C71.8663 23.4935 71.8663 18.7885 68.9646 15.8865L56.1531 3.0749C53.2508 0.172947 48.5459 0.172952 45.644 3.07491L32.8323 15.8865C29.9304 18.7885 29.9304 23.4935 32.8323 26.3954L45.644 39.2071Z" fill="#00E2C5"/>
</svg>
