<svg width="100" height="100" viewBox="0 0 100 100" fill="none" xmlns="http://www.w3.org/2000/svg">
<g clip-path="url(#clip0_10244_7953)">
<path fill-rule="evenodd" clip-rule="evenodd" d="M23.9596 17.84C21.0639 8.13577 12.4334 0.904738 2.00013 0.0788463C1.3403 0.0266142 0.673259 0 0 0C0 0.673259 0.0266141 1.3403 0.0788461 2.00013C0.904738 12.4334 8.1358 21.0639 17.84 23.9596C19.4946 24.4533 21.221 24.7803 22.9999 24.9212C23 24.9212 23 24.9212 23.0001 24.9212C23.6599 24.9734 24.3268 25 25 25C24.3268 25 23.6599 25.0266 23.0001 25.0788C23 25.0788 23 25.0788 22.9999 25.0788C21.221 25.2197 19.4946 25.5467 17.84 26.0404C8.1358 28.9361 0.904738 37.5666 0.0788461 47.9999C0.0788395 48 0.0788333 48 0.0788267 48.0001C0.0266078 48.6599 0 49.3268 0 50C0 50.6732 0.0266083 51.3401 0.0788283 51.9999C0.0788349 52 0.0788411 52 0.0788476 52.0001C0.904749 62.4333 8.13582 71.0639 17.84 73.9596C19.4946 74.4533 21.221 74.7803 22.9999 74.9212C23 74.9212 23 74.9212 23.0001 74.9212C23.6599 74.9734 24.3268 75 25 75C24.3268 75 23.6599 75.0266 23.0001 75.0788C23 75.0788 23 75.0788 22.9999 75.0788C21.221 75.2197 19.4946 75.5467 17.84 76.0404C8.13582 78.9361 0.904749 87.5667 0.0788476 97.9999C0.0266146 98.6597 0 99.3267 0 100C0.673259 100 1.3403 99.9734 2.00013 99.9212C12.4334 99.0952 21.0639 91.8641 23.9596 82.16C24.4533 80.5054 24.7803 78.779 24.9212 77.0001C24.9212 77 24.9212 77 24.9212 76.9999C24.9734 76.3401 25 75.6732 25 75C25 75.6732 25.0266 76.3401 25.0788 76.9999C25.0788 77 25.0788 77 25.0788 77.0001C25.2197 78.779 25.5467 80.5054 26.0404 82.16C28.9361 91.8641 37.5666 99.0952 47.9999 99.9212C48 99.9212 48 99.9212 48.0001 99.9212C48.6599 99.9734 49.3268 100 50 100C50.6732 100 51.3401 99.9734 51.9999 99.9212C52 99.9212 52 99.9212 52.0001 99.9212C62.4333 99.0952 71.0639 91.8641 73.9596 82.1599C74.4533 80.5054 74.7803 78.779 74.9212 77.0001C74.9212 77 74.9212 77 74.9212 76.9999C74.9734 76.3401 75 75.6732 75 75C75 75.6732 75.0266 76.3401 75.0788 76.9999C75.0788 77 75.0788 77 75.0788 77.0001C75.2197 78.779 75.5467 80.5054 76.0404 82.1599C78.9361 91.8641 87.5667 99.0952 97.9999 99.9212C98.6597 99.9734 99.3267 100 100 100C100 99.3267 99.9734 98.6597 99.9212 97.9999C99.0952 87.5667 91.8641 78.9361 82.1599 76.0404C80.5054 75.5467 78.779 75.2197 77.0001 75.0788C77 75.0788 77 75.0788 76.9999 75.0788C76.3401 75.0266 75.6732 75 75 75C75.6732 75 76.3401 74.9734 76.9999 74.9212C77 74.9212 77 74.9212 77.0001 74.9212C78.779 74.7803 80.5054 74.4533 82.1599 73.9596C91.8641 71.0639 99.0952 62.4333 99.9212 52.0001C99.9212 52 99.9212 52 99.9212 51.9999C99.9734 51.3401 100 50.6732 100 50C100 49.3268 99.9734 48.6599 99.9212 48.0001C99.9212 48 99.9212 48 99.9212 47.9999C99.0953 37.5666 91.8641 28.9361 82.16 26.0404C80.5054 25.5467 78.779 25.2197 77.0001 25.0788C77 25.0788 77 25.0788 76.9999 25.0788C76.3401 25.0266 75.6732 25 75 25C75.6732 25 76.3401 24.9734 76.9999 24.9212C77 24.9212 77 24.9212 77.0001 24.9212C78.779 24.7803 80.5054 24.4533 82.16 23.9596C91.8641 21.0639 99.0953 12.4334 99.9212 2.00013C99.9734 1.3403 100 0.673259 100 0C99.3267 0 98.6597 0.0266145 97.9999 0.0788473C87.5667 0.904745 78.9361 8.13579 76.0404 17.84C75.5467 19.4946 75.2197 21.221 75.0788 22.9999C75.0788 23 75.0788 23 75.0788 23.0001C75.0266 23.6599 75 24.3268 75 25C75 24.3268 74.9734 23.6599 74.9212 23.0001C74.9212 23 74.9212 23 74.9212 22.9999C74.7803 21.221 74.4533 19.4946 73.9596 17.84C71.0639 8.13579 62.4333 0.904745 52.0001 0.0788473C52 0.0788408 52 0.0788345 51.9999 0.078828C51.3401 0.0266082 50.6732 0 50 0C49.3268 0 48.6599 0.0266078 48.0001 0.078827C48 0.0788335 48 0.0788397 47.9999 0.0788463C37.5666 0.904738 28.9361 8.13577 26.0404 17.84C25.5467 19.4946 25.2197 21.221 25.0788 22.9999C25.0788 23 25.0788 23 25.0788 23.0001C25.0266 23.6599 25 24.3268 25 25C25 24.3268 24.9734 23.6599 24.9212 23.0001C24.9212 23 24.9212 23 24.9212 22.9999C24.7803 21.221 24.4533 19.4946 23.9596 17.84ZM2.09405 2.09405C13.1255 3.08966 21.9103 11.8744 22.906 22.906C11.8745 21.9103 3.08966 13.1256 2.09405 2.09405ZM26.9999 24.9212C26.3401 24.9734 25.6732 25 25 25C25 25.6732 24.9734 26.3401 24.9212 26.9999C24.9212 27 24.9212 27 24.9212 27.0001C24.7803 28.779 24.4533 30.5054 23.9596 32.16C21.5576 40.2097 15.2096 46.5576 7.15998 48.9596C5.50543 49.4533 3.77898 49.7803 2.00013 49.9212C1.3403 49.9734 0.673259 50 0 50C0.673259 50 1.3403 50.0266 2.00013 50.0788C3.77898 50.2197 5.50543 50.5467 7.15998 51.0404C15.2096 53.4424 21.5576 59.7904 23.9596 67.84C24.4533 69.4946 24.7803 71.221 24.9212 72.9999C24.9212 73 24.9212 73 24.9212 73.0001C24.9734 73.6599 25 74.3268 25 75C25.6732 75 26.3401 75.0266 26.9999 75.0788C27 75.0788 27 75.0788 27.0001 75.0788C28.779 75.2197 30.5054 75.5467 32.16 76.0404C40.2096 78.4424 46.5576 84.7904 48.9596 92.8401C49.4533 94.4946 49.7803 96.221 49.9212 97.9999C49.9734 98.6597 50 99.3267 50 100C50 99.3267 50.0266 98.6597 50.0788 97.9999C50.2197 96.221 50.5467 94.4946 51.0404 92.8401C53.4424 84.7904 59.7904 78.4424 67.8401 76.0404C69.4946 75.5467 71.221 75.2197 72.9999 75.0788C73 75.0788 73 75.0788 73.0001 75.0788C73.6599 75.0266 74.3268 75 75 75C75 74.3268 75.0266 73.6599 75.0788 73.0001C75.0788 73 75.0788 73 75.0788 72.9999C75.2197 71.221 75.5467 69.4946 76.0404 67.8401C78.4424 59.7904 84.7904 53.4424 92.8401 51.0404C94.4946 50.5467 96.221 50.2197 97.9999 50.0788C98.6597 50.0266 99.3267 50 100 50C99.3267 50 98.6597 49.9734 97.9999 49.9212C96.221 49.7803 94.4946 49.4533 92.8401 48.9596C84.7904 46.5576 78.4424 40.2097 76.0404 32.16C75.5467 30.5054 75.2197 28.779 75.0788 27.0001C75.0788 27 75.0788 27 75.0788 26.9999C75.0266 26.3401 75 25.6732 75 25C74.3268 25 73.6599 24.9734 73.0001 24.9212C73 24.9212 73 24.9212 72.9999 24.9212C71.221 24.7803 69.4946 24.4533 67.84 23.9596C59.7904 21.5576 53.4424 15.2097 51.0404 7.15999C50.5467 5.50544 50.2197 3.77899 50.0788 2.00013C50.0266 1.3403 50 0.673259 50 0C50 0.673259 49.9734 1.3403 49.9212 2.00013C49.7803 3.77899 49.4533 5.50544 48.9596 7.15999C46.5576 15.2097 40.2097 21.5576 32.16 23.9596C30.5054 24.4533 28.779 24.7803 27.0001 24.9212C27 24.9212 27 24.9212 26.9999 24.9212ZM26.9999 25.0788C26.3401 25.0266 25.6732 25 25 25C25 25.6732 25.0266 26.3401 25.0788 26.9999C25.0788 27 25.0788 27 25.0788 27.0001C25.2197 28.779 25.5467 30.5054 26.0404 32.16C28.4424 40.2097 34.7904 46.5576 42.84 48.9596C44.4946 49.4533 46.221 49.7803 47.9999 49.9212C48 49.9212 48 49.9212 48.0001 49.9212C48.6599 49.9734 49.3268 50 50 50C49.3268 50 48.6599 50.0266 48.0001 50.0788C48 50.0788 48 50.0788 47.9999 50.0788C46.221 50.2197 44.4946 50.5467 42.84 51.0404C34.7904 53.4424 28.4424 59.7904 26.0404 67.84C25.5467 69.4946 25.2197 71.221 25.0788 72.9999C25.0788 73 25.0788 73 25.0788 73.0001C25.0266 73.6599 25 74.3268 25 75C25.6732 75 26.3401 74.9734 26.9999 74.9212C27 74.9212 27 74.9212 27.0001 74.9212C28.779 74.7803 30.5054 74.4533 32.16 73.9596C40.2096 71.5576 46.5576 65.2096 48.9596 57.1599C49.4533 55.5054 49.7803 53.779 49.9212 52.0001C49.9212 52 49.9212 52 49.9212 51.9999C49.9734 51.3401 50 50.6732 50 50C50 50.6732 50.0266 51.3401 50.0788 51.9999C50.0788 52 50.0788 52 50.0788 52.0001C50.2197 53.779 50.5467 55.5054 51.0404 57.1599C53.4424 65.2096 59.7904 71.5576 67.8401 73.9596C69.4946 74.4533 71.221 74.7803 72.9999 74.9212C73 74.9212 73 74.9212 73.0001 74.9212C73.6599 74.9734 74.3268 75 75 75C75 74.3268 74.9734 73.6599 74.9212 73.0001C74.9212 73 74.9212 73 74.9212 72.9999C74.7803 71.221 74.4533 69.4946 73.9596 67.8401C71.5576 59.7904 65.2096 53.4424 57.1599 51.0404C55.5054 50.5467 53.779 50.2197 52.0001 50.0788C52 50.0788 52 50.0788 51.9999 50.0788C51.3401 50.0266 50.6732 50 50 50C50.6732 50 51.3401 49.9734 51.9999 49.9212C52 49.9212 52 49.9212 52.0001 49.9212C53.779 49.7803 55.5054 49.4533 57.1599 48.9596C65.2096 46.5576 71.5576 40.2097 73.9596 32.16C74.4533 30.5054 74.7803 28.779 74.9212 27.0001C74.9212 27 74.9212 27 74.9212 26.9999C74.9734 26.3401 75 25.6732 75 25C74.3268 25 73.6599 25.0266 73.0001 25.0788C73 25.0788 73 25.0788 72.9999 25.0788C71.221 25.2197 69.4946 25.5467 67.84 26.0404C59.7904 28.4424 53.4424 34.7903 51.0404 42.84C50.5467 44.4946 50.2197 46.221 50.0788 47.9999C50.0788 48 50.0788 48 50.0788 48.0001C50.0266 48.6599 50 49.3268 50 50C50 49.3268 49.9734 48.6599 49.9212 48.0001C49.9212 48 49.9212 48 49.9212 47.9999C49.7803 46.221 49.4533 44.4946 48.9596 42.84C46.5576 34.7903 40.2097 28.4424 32.16 26.0404C30.5054 25.5467 28.779 25.2197 27.0001 25.0788C27 25.0788 27 25.0788 26.9999 25.0788ZM27.094 27.094C38.1255 28.0897 46.9103 36.8744 47.906 47.906C36.8745 46.9103 28.0897 38.1256 27.094 27.094ZM52.094 47.906C53.0897 36.8744 61.8745 28.0897 72.906 27.094C71.9103 38.1256 63.1255 46.9103 52.094 47.906ZM52.0941 52.094C63.1255 53.0897 71.9103 61.8746 72.906 72.906C61.8746 71.9103 53.0897 63.1254 52.0941 52.094ZM47.906 52.094C46.9103 63.1255 38.1255 71.9103 27.094 72.906C28.0897 61.8745 36.8745 53.0897 47.906 52.094ZM47.906 2.09405C46.9103 13.1256 38.1255 21.9103 27.094 22.906C28.0897 11.8744 36.8745 3.08966 47.906 2.09405ZM72.906 22.906C61.8745 21.9103 53.0897 13.1256 52.094 2.09405C63.1255 3.08967 71.9103 11.8744 72.906 22.906ZM97.906 47.906C86.8745 46.9103 78.0897 38.1256 77.094 27.094C88.1255 28.0897 96.9103 36.8744 97.906 47.906ZM77.094 72.906C78.0897 61.8746 86.8746 53.0897 97.906 52.0941C96.9103 63.1255 88.1254 71.9103 77.094 72.906ZM52.0941 97.906C53.0897 86.8746 61.8746 78.0897 72.906 77.094C71.9103 88.1254 63.1255 96.9103 52.0941 97.906ZM27.094 77.094C38.1255 78.0897 46.9103 86.8745 47.906 97.906C36.8745 96.9103 28.0897 88.1255 27.094 77.094ZM2.09405 52.094C13.1255 53.0897 21.9103 61.8745 22.906 72.906C11.8745 71.9103 3.08967 63.1255 2.09405 52.094ZM22.906 27.094C21.9103 38.1256 13.1255 46.9103 2.09405 47.906C3.08966 36.8744 11.8745 28.0897 22.906 27.094ZM77.094 22.906C78.0897 11.8744 86.8745 3.08967 97.906 2.09405C96.9103 13.1256 88.1255 21.9103 77.094 22.906ZM77.094 77.094C88.1254 78.0897 96.9103 86.8746 97.906 97.906C86.8746 96.9103 78.0897 88.1254 77.094 77.094ZM22.906 77.094C21.9103 88.1255 13.1255 96.9103 2.09405 97.906C3.08967 86.8745 11.8745 78.0897 22.906 77.094Z" fill="#00E2C5"/>
</g>
<defs>
<clipPath id="clip0_10244_7953">
<rect width="100" height="100" fill="white"/>
</clipPath>
</defs>
</svg>
