<svg width="100" height="100" viewBox="0 0 100 100" fill="none" xmlns="http://www.w3.org/2000/svg">
<path fill-rule="evenodd" clip-rule="evenodd" d="M15.4844 89.6523C15.3305 89.6525 15.1781 89.6222 15.0359 89.5632C14.8938 89.5043 14.7648 89.4177 14.6562 89.3086L11.375 86.0293C11.1555 85.8096 11.0323 85.5117 11.0323 85.2012C11.0323 84.8906 11.1555 84.5928 11.375 84.373C11.832 83.9141 12.5742 83.9141 13.0332 84.3711L15.4844 86.8242L23.1484 79.1582C23.6055 78.7012 24.3477 78.7012 24.8066 79.1582C25.0262 79.3783 25.1494 79.6765 25.1494 79.9873C25.1494 80.2982 25.0262 80.5963 24.8066 80.8164L16.3125 89.3086C16.204 89.4177 16.0749 89.5043 15.9328 89.5632C15.7907 89.6222 15.6383 89.6525 15.4844 89.6523ZM42.6387 6.29883C42.6289 4.12109 40.8555 2.35156 38.6738 2.35156C36.4961 2.35156 34.7246 4.11523 34.7109 6.29102V6.31445C34.7109 6.96094 34.1875 7.48633 33.5391 7.48633H27.9102V16.416H49.4395V7.48633H43.7793L43.75 7.48438L43.7207 7.48242H43.7187L43.6895 7.48047L43.6602 7.47656L43.6309 7.47266L43.6035 7.46875H43.6016L43.5742 7.46289L43.5449 7.45703L43.5176 7.44922L43.4902 7.44141H43.4883L43.4609 7.43359L43.4336 7.42383L43.4082 7.41602H43.4063L43.3809 7.4043L43.3535 7.39453L43.3281 7.38281L43.3027 7.37109L43.2773 7.35742L43.252 7.3457L43.2266 7.33008L43.2031 7.31641L43.1777 7.30078L43.1543 7.28711L43.1309 7.26953L43.1094 7.25391L43.0859 7.23633L43.0645 7.21875L43.043 7.20117L43.0215 7.18164C43.002 7.16406 42.9805 7.14258 42.9609 7.12305L42.9434 7.10156C42.9238 7.08203 42.9062 7.06055 42.8887 7.03711C42.8711 7.01563 42.8535 6.99414 42.8379 6.9707L42.8086 6.92188C42.6992 6.74414 42.6387 6.53711 42.6387 6.31445V6.29883ZM32.4766 5.14258C33.0273 2.22266 35.5977 0.0078125 38.6738 0.0078125C41.752 0.0078125 44.3203 2.22266 44.873 5.14258H49.457C50.7402 5.14258 51.7832 6.18555 51.7832 7.46875V10.7793H64.5C69.0059 10.7793 72.6719 14.4453 72.6719 18.9512V91.8242C72.6719 96.3301 69.0059 99.9961 64.5 99.9961H12.8496C8.3418 99.9961 4.67578 96.332 4.67578 91.8242V18.9512C4.67578 14.4453 8.3418 10.7793 12.8496 10.7793H25.5664V7.46875C25.5664 6.18555 26.6094 5.14258 27.8926 5.14258H32.4766ZM25.5664 13.123H12.8496C9.63477 13.123 7.01953 15.7383 7.01953 18.9512V91.8242C7.01953 95.0391 9.63477 97.6543 12.8496 97.6543H64.5C67.7148 97.6543 70.3281 95.0391 70.3281 91.8242V18.9512C70.3281 15.7383 67.7148 13.123 64.5 13.123H51.7832V16.4336C51.7832 17.7168 50.7402 18.7598 49.457 18.7598H27.8926C26.6094 18.7598 25.5664 17.7168 25.5664 16.4336V13.123ZM86.4609 94.4629C86.0156 94.4629 85.6094 94.2109 85.4121 93.8125L77.6055 78.0703C77.5664 77.998 77.5352 77.918 77.5117 77.8359L77.5078 77.8203V77.8184L77.5039 77.8008L77.5 77.791L77.498 77.7832L77.4941 77.7637L77.4922 77.7461L77.4883 77.7344V77.7285L77.4844 77.7109V77.7051L77.4824 77.6914L77.4805 77.6758V77.6738L77.4785 77.6543L77.4766 77.6465V77.6367L77.4746 77.6191V77.6172L77.4707 77.5625V14.3418C77.4707 9.48828 81.418 5.54102 86.2695 5.54102H86.5234C91.377 5.54102 95.3242 9.48828 95.3242 14.3418V77.5391L95.3223 77.5566V77.5937L95.3203 77.6113V77.6172L95.3184 77.6309L95.3164 77.6465V77.6484L95.3145 77.666V77.6758L95.3125 77.6855L95.3105 77.7031V77.7051L95.3066 77.7207C95.3008 77.7578 95.293 77.7949 95.2832 77.8301L95.2793 77.8477L95.2734 77.8652L95.2676 77.8828L95.2617 77.9004C95.2461 77.9492 95.2266 77.9961 95.2051 78.041L95.1953 78.0605L87.5137 93.8047C87.3184 94.2051 86.9121 94.4609 86.4648 94.4629H86.4609ZM79.8145 76.3555H92.9805V23.1406H79.8145V76.3555ZM80.5313 78.6992L86.4531 90.6367L92.2754 78.6992H80.5313ZM79.8145 20.7969H92.9805V14.3418C92.9805 10.7812 90.084 7.88477 86.5234 7.88477H86.2695C82.709 7.88477 79.8145 10.7812 79.8145 14.3418V20.7969ZM63.6953 33.3516H30.332C29.6855 33.3516 29.1621 32.8262 29.1621 32.1797C29.1621 31.5332 29.6855 31.0078 30.332 31.0078H63.6953C64.3418 31.0078 64.8672 31.5332 64.8672 32.1797C64.8672 32.8262 64.3418 33.3516 63.6953 33.3516ZM63.6953 46.3652H30.332C29.6855 46.3652 29.1621 45.8398 29.1621 45.1934C29.1621 44.5449 29.6855 44.0215 30.332 44.0215H63.6953C64.3418 44.0215 64.8672 44.5449 64.8672 45.1934C64.8672 45.8398 64.3418 46.3652 63.6953 46.3652ZM63.6953 59.3789H30.332C29.6855 59.3789 29.1621 58.8535 29.1621 58.207C29.1621 57.5605 29.6855 57.0352 30.332 57.0352H63.6953C64.3418 57.0352 64.8672 57.5605 64.8672 58.207C64.8672 58.8535 64.3418 59.3789 63.6953 59.3789ZM63.6953 72.3926H30.332C29.6855 72.3926 29.1621 71.8672 29.1621 71.2207C29.1621 70.5723 29.6855 70.0488 30.332 70.0488H63.6953C64.3418 70.0488 64.8672 70.5723 64.8672 71.2207C64.8672 71.8672 64.3418 72.3926 63.6953 72.3926ZM63.6953 85.4062H30.332C29.6855 85.4062 29.1621 84.8809 29.1621 84.2344C29.1621 83.5859 29.6855 83.0625 30.332 83.0625H63.6953C64.3418 83.0625 64.8672 83.5859 64.8672 84.2344C64.8672 84.8809 64.3418 85.4062 63.6953 85.4062ZM15.4844 37.5977C15.3305 37.5978 15.1781 37.5676 15.0359 37.5086C14.8938 37.4496 14.7648 37.363 14.6562 37.2539L11.375 33.9746C11.1555 33.7549 11.0323 33.457 11.0323 33.1465C11.0323 32.8359 11.1555 32.5381 11.375 32.3184C11.4837 32.2092 11.613 32.1227 11.7552 32.0636C11.8975 32.0045 12.05 31.9741 12.2041 31.9741C12.3582 31.9741 12.5107 32.0045 12.653 32.0636C12.7952 32.1227 12.9245 32.2092 13.0332 32.3184L15.4844 34.7695L23.1484 27.1035C23.6055 26.6465 24.3477 26.6465 24.8066 27.1035C25.2637 27.5625 25.2637 28.3047 24.8066 28.7617L16.3125 37.2559C16.0926 37.4749 15.7948 37.5979 15.4844 37.5977ZM15.4844 50.6113C15.1836 50.6113 14.8848 50.4961 14.6562 50.2676L11.375 46.9883C10.918 46.5313 10.918 45.7891 11.375 45.3301C11.832 44.873 12.5742 44.873 13.0332 45.3301L15.4844 47.7832L23.1484 40.1172C23.6055 39.6602 24.3477 39.6602 24.8066 40.1172C25.0262 40.3373 25.1494 40.6354 25.1494 40.9463C25.1494 41.2571 25.0262 41.5553 24.8066 41.7754L16.3125 50.2676C16.2038 50.3765 16.0748 50.4629 15.9327 50.5219C15.7906 50.5809 15.6382 50.6113 15.4844 50.6113ZM15.4844 63.625C15.1836 63.625 14.8848 63.5098 14.6562 63.2812L11.375 60.002C11.1555 59.7822 11.0323 59.4844 11.0323 59.1738C11.0323 58.8633 11.1555 58.5654 11.375 58.3457C11.832 57.8867 12.5742 57.8867 13.0332 58.3437L15.4844 60.7969L23.1484 53.1309C23.6055 52.6738 24.3477 52.6738 24.8066 53.1309C25.2637 53.5898 25.2637 54.332 24.8066 54.7891L16.3125 63.2812C16.2038 63.3902 16.0748 63.4766 15.9327 63.5356C15.7906 63.5946 15.6382 63.625 15.4844 63.625ZM15.4844 76.6387C15.1836 76.6387 14.8848 76.5254 14.6562 76.2949L11.375 73.0156C11.1555 72.7959 11.0323 72.498 11.0323 72.1875C11.0323 71.877 11.1555 71.5791 11.375 71.3594C11.4837 71.2503 11.613 71.1637 11.7552 71.1046C11.8975 71.0455 12.05 71.0151 12.2041 71.0151C12.3582 71.0151 12.5107 71.0455 12.653 71.1046C12.7952 71.1637 12.9245 71.2503 13.0332 71.3594L15.4844 73.8105L23.1484 66.1445C23.6055 65.6875 24.3477 65.6875 24.8066 66.1445C25.2637 66.6016 25.2637 67.3438 24.8066 67.8027L16.3125 76.2949C16.2041 76.4042 16.0751 76.4909 15.9329 76.5499C15.7908 76.6089 15.6383 76.6391 15.4844 76.6387Z" fill="#00E2C5"/>
</svg>
