<svg width="100" height="100" viewBox="0 0 100 100" fill="none" xmlns="http://www.w3.org/2000/svg">
<path d="M86.2987 100H13.5987C10.6987 100 7.89866 98.7 6.19866 96.6C4.69866 94.7 4.09866 92.4 4.59866 90.1C6.29866 82.4 9.89866 75.3 15.0987 69.4C19.0987 64.8 20.0987 57.6 17.2987 51.7C14.9987 46.9 13.8987 41.7 13.8987 36.3C13.9987 16.3 30.2987 0 50.1987 0C70.0987 0 86.3987 16.3 86.3987 36.2C86.3987 41.7 85.1987 47 82.7987 51.9C79.9987 57.7 80.7987 65 84.7987 69.6C89.8987 75.4 93.3987 82.5 94.9987 90C95.4987 92.3 94.9987 94.6 93.3987 96.5C91.8987 98.7 89.1987 100 86.2987 100ZM50.1987 2C31.3987 2 15.9987 17.4 15.9987 36.2C15.9987 41.3 17.0987 46.2 19.1987 50.8C22.2987 57.3 21.1987 65.5 16.6987 70.7C11.6987 76.4 8.19866 83.2 6.59866 90.5C6.19866 92.2 6.59866 94 7.79866 95.4C9.09866 97 11.2987 98 13.5987 98H86.1987C88.4987 98 90.6987 97 91.9987 95.4C93.0987 94 93.4987 92.3 93.1987 90.5C91.5987 83.3 88.1987 76.6 83.3987 71C78.8987 65.8 77.8987 57.6 81.0987 51.1C83.2987 46.4 84.4987 41.4 84.4987 36.2C84.4987 17.4 69.0987 2 50.1987 2Z" fill="#005BFF"/>
</svg>
