<svg width="100" height="100" viewBox="0 0 100 100" fill="none" xmlns="http://www.w3.org/2000/svg">
<g clip-path="url(#clip0_10244_8009)">
<path fill-rule="evenodd" clip-rule="evenodd" d="M69.8697 6.29088C64.2524 2.32664 57.3982 -0.00195312 50 -0.00195312C57.4484 -0.00195312 64.5164 1.62673 70.8673 4.54739C88.0617 12.4547 100 29.8322 100 49.9981C100 77.6121 77.614 99.998 50 99.998C22.3857 99.998 0 77.6121 0 49.9981C0 29.832 11.9384 12.4544 29.1332 4.54712C35.484 1.62663 42.5518 -0.00195312 50 -0.00195312C42.6021 -0.00195312 35.748 2.32654 30.1307 6.29063C21.2803 12.5363 15.5 22.8421 15.5 34.4981C15.5 53.5521 30.9462 68.998 50 68.998C69.054 68.998 84.5 53.5521 84.5 34.4981C84.5 22.8423 78.7199 12.5366 69.8697 6.29088ZM22.1607 10.8913C9.95725 19.5943 2 33.8669 2 49.9981C2 76.5075 23.4903 97.998 50 97.998C76.5094 97.998 98 76.5075 98 49.9981C98 33.8671 90.0428 19.5947 77.8396 10.8916C83.2415 17.2559 86.5 25.4964 86.5 34.4981C86.5 54.6566 70.1586 70.998 50 70.998C29.8416 70.998 13.5 54.6566 13.5 34.4981C13.5 25.4963 16.7587 17.2556 22.1607 10.8913ZM64 34.4981C64 26.7661 57.7319 20.498 50 20.498C42.268 20.498 36 26.7661 36 34.4981C36 42.23 42.268 48.4981 50 48.4981C57.7319 48.4981 64 42.23 64 34.4981ZM50 18.498C58.8365 18.498 66 25.6615 66 34.4981C66 43.3346 58.8365 50.4981 50 50.4981C41.1635 50.4981 34 43.3346 34 34.4981C34 25.6615 41.1635 18.498 50 18.498Z" fill="#00E2C5"/>
</g>
<defs>
<clipPath id="clip0_10244_8009">
<rect width="100" height="100" fill="white"/>
</clipPath>
</defs>
</svg>
