<svg width="100" height="100" viewBox="0 0 100 100" fill="none" xmlns="http://www.w3.org/2000/svg">
<path fill-rule="evenodd" clip-rule="evenodd" d="M49.9978 11.084C55.5428 11.0849 60.9007 12.9897 65.0841 16.4475C69.2674 19.9052 71.9942 24.6829 72.762 29.9C76.266 28.7799 80.0416 28.675 83.6085 29.5987C87.1755 30.5223 90.3728 32.4328 92.7938 35.0872C95.2149 37.7416 96.7504 41.02 97.205 44.5056C97.6597 47.9912 97.013 51.5265 95.3472 54.662C93.6814 57.7976 91.0717 60.3917 87.85 62.1145C84.6282 63.8374 80.9399 64.6112 77.2541 64.3375C73.5682 64.0638 70.0513 62.755 67.1504 60.5776C64.2495 58.4001 62.0958 55.4523 60.963 52.109C57.5961 53.8422 53.8272 54.7499 49.9978 54.7499C46.1683 54.7499 42.3994 53.8422 39.0325 52.109C37.8989 55.4497 35.7453 58.3948 32.8456 60.5699C29.9458 62.745 26.4308 64.052 22.7472 64.3248C19.0637 64.5975 15.3779 63.8236 12.1584 62.1015C8.93896 60.3794 6.33113 57.7869 4.66639 54.6534C3.00166 51.5199 2.35519 47.9869 2.80916 44.5035C3.26312 41.0201 4.79702 37.7436 7.2159 35.0904C9.63478 32.4372 12.8294 30.5271 16.3938 29.6029C19.9581 28.6787 23.7312 28.7821 27.2335 29.9C28.0013 24.6829 30.7281 19.9052 34.9115 16.4475C39.0948 12.9897 44.4527 11.0849 49.9978 11.084ZM51.0209 57.4C50.9383 57.2066 50.7968 57.0409 50.6145 56.9244C50.4322 56.8078 50.2175 56.7455 49.9978 56.7455C49.778 56.7455 49.5633 56.8078 49.381 56.9244C49.1987 57.0409 49.0572 57.2066 48.9746 57.4L45.4199 65.662L36.0514 66.32C35.8316 66.3345 35.6213 66.411 35.4475 66.5397C35.2737 66.6684 35.1443 66.8435 35.0758 67.0424C35.0073 67.2414 35.0028 67.4553 35.063 67.6567C35.1232 67.8581 35.2452 68.0379 35.4135 68.173L42.5914 73.94L40.3525 82.615C40.3006 82.8174 40.3133 83.03 40.389 83.2255C40.4647 83.4211 40.5999 83.5909 40.7774 83.7132C40.955 83.8356 41.1668 83.905 41.386 83.9126C41.6052 83.9202 41.8218 83.8657 42.0083 83.756L50.0009 79.056L57.9662 83.743C58.1516 83.8592 58.3696 83.9196 58.5917 83.9165C58.8138 83.9133 59.0298 83.8467 59.2115 83.7253C59.3933 83.6039 59.5323 83.4334 59.6106 83.2359C59.6888 83.0384 59.7027 82.8231 59.6504 82.618L57.4083 73.942L64.5535 68.2C64.7301 68.0688 64.8607 67.8899 64.928 67.6868C64.9954 67.4838 64.9964 67.266 64.9308 67.0624C64.8653 66.8588 64.7363 66.6789 64.5609 66.5463C64.3854 66.4138 64.1719 66.3349 63.9483 66.32L54.5799 65.662L51.0209 57.4ZM52.7893 67.06L49.9978 60.571L47.2409 66.98C47.1742 67.182 47.0451 67.3602 46.8703 67.4915C46.6955 67.6227 46.4832 67.701 46.2609 67.716L38.9114 68.232L44.5409 72.756C44.6976 72.882 44.8144 73.0469 44.8782 73.2323C44.9419 73.4178 44.9502 73.6164 44.902 73.806L43.1441 80.617L49.3978 76.937C49.5734 76.829 49.7777 76.7705 49.987 76.7684C50.1962 76.7663 50.4018 76.8206 50.5799 76.925L56.8535 80.617L55.1104 73.861C55.0485 73.6649 55.0482 73.4558 55.1095 73.2596C55.1709 73.0633 55.2912 72.8883 55.4556 72.756L61.0851 68.232L53.7356 67.716C53.5294 67.7023 53.3313 67.6339 53.1638 67.5187C52.9964 67.4034 52.8663 67.2459 52.7883 67.064L52.7893 67.06ZM21.2767 47.555C22.3192 47.5553 23.3296 47.2121 24.1357 46.5841C24.9418 45.956 25.4938 45.0818 25.6975 44.1105C25.9012 43.1391 25.7441 42.1308 25.2529 41.2571C24.7618 40.3835 23.9669 39.6987 23.0039 39.3194C22.0408 38.9401 20.9691 38.8897 19.9714 39.1769C18.9736 39.4641 18.1115 40.071 17.532 40.8943C16.9525 41.7176 16.6914 42.7064 16.7932 43.6921C16.8951 44.6777 17.3535 45.5994 18.0904 46.3C18.5083 46.6982 19.0049 47.014 19.5517 47.2293C20.0986 47.4445 20.6848 47.5558 21.2767 47.555ZM26.0335 47.792C25.8639 47.9532 25.6854 48.1057 25.4988 48.249C27.5238 48.9398 29.328 50.1134 30.7383 51.6572C32.1486 53.201 33.1176 55.0631 33.5525 57.065C35.1947 55.3126 36.3997 53.231 37.0778 50.975C35.8841 50.2021 34.7691 49.325 33.7472 48.355C31.6099 46.3299 29.9149 43.9236 28.7597 41.2742C27.6045 38.6248 27.0118 35.7847 27.0157 32.917C27.0157 32.631 27.022 32.348 27.0335 32.065C26.2383 31.782 25.4211 31.5583 24.5893 31.396C23.499 31.1862 22.3892 31.0813 21.2767 31.083C18.1095 31.0831 15.0099 31.9529 12.3511 33.5878C9.69224 35.2227 7.58759 37.553 6.29054 40.2979C4.99349 43.0428 4.55936 46.0855 5.04042 49.0594C5.52148 52.0333 6.89721 54.8117 9.00197 57.06C9.43756 55.0591 10.4068 53.1981 11.8169 51.6553C13.2269 50.1125 15.0304 48.9395 17.0546 48.249C16.8678 48.106 16.6893 47.9534 16.5199 47.792C15.579 46.8982 14.9382 45.7594 14.6786 44.5197C14.419 43.2799 14.5522 41.9949 15.0614 40.8271C15.5706 39.6593 16.4328 38.6611 17.5391 37.9588C18.6455 37.2566 19.9461 36.8817 21.2767 36.8817C22.6073 36.8817 23.9079 37.2566 25.0143 37.9588C26.1206 38.6611 26.9828 39.6593 27.492 40.8271C28.0012 41.9949 28.1344 43.2799 27.8748 44.5197C27.6152 45.7594 26.9744 46.8982 26.0335 47.792ZM31.5767 58.853C31.4226 56.358 30.271 54.0133 28.3573 52.2983C26.4436 50.5833 23.9126 49.6277 21.2818 49.627C18.651 49.6262 16.1193 50.5803 14.2045 52.2942C12.2898 54.008 11.1366 56.3521 10.9809 58.847C13.8815 61.0628 17.4877 62.278 21.2096 62.2938C24.9316 62.3096 28.5491 61.1251 31.4704 58.934L31.5767 58.853ZM78.7209 47.553C79.7634 47.5523 80.7734 47.2084 81.5789 46.5796C82.3843 45.9509 82.9354 45.0763 83.1382 44.1048C83.341 43.1334 83.183 42.1252 82.6911 41.252C82.1993 40.3788 81.4039 39.6947 80.4406 39.3161C79.4773 38.9375 78.4056 38.888 77.4081 39.1758C76.4106 39.4637 75.5491 40.0713 74.9702 40.8949C74.3914 41.7186 74.131 42.7075 74.2335 43.693C74.3361 44.6786 74.7951 45.5999 75.5325 46.3C75.9505 46.6981 76.4472 47.0137 76.994 47.2289C77.5408 47.4441 78.1269 47.5546 78.7188 47.554L78.7209 47.553ZM83.4778 47.79C83.3081 47.9512 83.1296 48.1037 82.943 48.247C84.9672 48.9375 86.7707 50.1105 88.1808 51.6533C89.5908 53.1961 90.5601 55.0571 90.9956 57.058C93.0998 54.8095 94.475 52.0311 94.9557 49.0573C95.4363 46.0836 95.0018 43.0412 93.7046 40.2966C92.4074 37.5519 90.3027 35.222 87.6439 33.5874C84.9852 31.9527 81.8858 31.083 78.7188 31.083C77.6063 31.0814 76.4965 31.1863 75.4062 31.396C74.5744 31.5583 73.7572 31.782 72.962 32.065C72.9735 32.348 72.9799 32.631 72.9799 32.917C72.9838 35.7847 72.3911 38.6248 71.2358 41.2742C70.0806 43.9236 68.3856 46.3299 66.2483 48.355C65.2264 49.325 64.1114 50.2021 62.9178 50.975C63.5958 53.231 64.8008 55.3126 66.443 57.065C66.8779 55.0631 67.8469 53.201 69.2572 51.6572C70.6675 50.1134 72.4717 48.9398 74.4967 48.249C74.3101 48.1057 74.1316 47.9532 73.962 47.792C73.0211 46.8982 72.3803 45.7594 72.1207 44.5197C71.8611 43.2799 71.9943 41.9949 72.5035 40.8271C73.0127 39.6593 73.8749 38.6611 74.9812 37.9588C76.0876 37.2566 77.3882 36.8817 78.7188 36.8817C80.0494 36.8817 81.3501 37.2566 82.4564 37.9588C83.5627 38.6611 84.4249 39.6593 84.9341 40.8271C85.4433 41.9949 85.5765 43.2799 85.3169 44.5197C85.0573 45.7594 84.4165 46.8982 83.4757 47.792L83.4778 47.79ZM89.0188 58.845C88.8719 56.3436 87.7221 53.9906 85.8058 52.2695C83.8894 50.5485 81.352 49.59 78.7148 49.591C76.0777 49.592 73.5411 50.5525 71.6262 52.275C69.7113 53.9976 68.5636 56.3515 68.4188 58.853L68.5241 58.934C71.4454 61.1251 75.0628 62.3096 78.7848 62.2938C82.5068 62.278 86.113 61.0628 89.0135 58.847L89.0188 58.845ZM49.9978 34.258C51.3615 34.2579 52.6831 33.8086 53.7372 32.9866C54.7914 32.1646 55.5129 31.0208 55.7789 29.7501C56.0448 28.4794 55.8388 27.1604 55.1958 26.0178C54.5529 24.8753 53.5128 23.9799 52.2528 23.4841C50.9928 22.9884 49.5909 22.9231 48.2858 23.2992C46.9808 23.6754 45.8535 24.4698 45.0958 25.5471C44.3382 26.6243 43.9973 27.9178 44.131 29.2072C44.2648 30.4965 44.865 31.7019 45.8293 32.618C46.376 33.1389 47.0258 33.552 47.7411 33.8334C48.4565 34.1149 49.2234 34.2592 49.9978 34.258ZM55.7356 34.109C55.4102 34.4175 55.0581 34.6995 54.683 34.952C57.3621 35.7712 59.7533 37.273 61.5961 39.2938C63.439 41.3147 64.6629 43.7771 65.1346 46.413C67.9057 43.6073 69.7525 40.0928 70.4476 36.3025C71.1427 32.5122 70.6556 28.6116 69.0464 25.0809C67.4373 21.5503 64.7763 18.5438 61.3911 16.4318C58.0059 14.3199 54.0445 13.1946 49.9946 13.1946C45.9447 13.1946 41.9832 14.3199 38.5981 16.4318C35.2129 18.5438 32.5519 21.5503 30.9427 25.0809C29.3336 28.6116 28.8465 32.5122 29.5416 36.3025C30.2367 40.0928 32.0835 43.6073 34.8546 46.413C35.3263 43.7771 36.5502 41.3147 38.3931 39.2938C40.2359 37.273 42.6271 35.7712 45.3062 34.952C44.9311 34.6995 44.579 34.4175 44.2535 34.109C43.1184 33.031 42.3452 31.6574 42.0318 30.1619C41.7184 28.6664 41.8789 27.1162 42.493 25.7074C43.1071 24.2986 44.1472 23.0944 45.4817 22.2472C46.8163 21.4 48.3853 20.9478 49.9904 20.9478C51.5955 20.9478 53.1645 21.4 54.499 22.2472C55.8336 23.0944 56.8736 24.2986 57.4877 25.7074C58.1018 27.1162 58.2623 28.6664 57.949 30.1619C57.6356 31.6574 56.8624 33.031 55.7272 34.109H55.7356ZM63.122 48.2C62.9463 45.0059 61.487 41.9976 59.045 39.7957C56.603 37.5938 53.3646 36.3663 49.9978 36.3663C46.6309 36.3663 43.3925 37.5938 40.9505 39.7957C38.5085 41.9976 37.0492 45.0059 36.8735 48.2C40.5795 51.0716 45.2153 52.6399 49.9978 52.6399C54.7802 52.6399 59.416 51.0716 63.122 48.2Z" fill="#00E2C5"/>
</svg>
