<svg width="251" height="45" viewBox="0 0 251 45" fill="none" xmlns="http://www.w3.org/2000/svg">
<path d="M133.866 39.4893C130.899 39.4893 128.409 38.8923 126.399 37.6985C124.341 36.5504 122.761 34.7137 121.947 32.5096L126.351 31.0402C126.782 32.2342 127.643 33.2442 128.792 33.8412C130.085 34.6218 131.808 34.9893 133.866 34.9893C135.925 34.9893 137.504 34.5758 138.749 33.6577C139.802 32.8769 140.281 31.9585 140.281 30.6728V30.6269C140.281 30.1677 140.185 29.7085 139.993 29.3412C139.85 29.0658 139.467 28.7902 138.988 28.5147C138.222 28.1015 137.361 27.7342 136.499 27.5045C135.542 27.1831 134.201 26.8617 132.526 26.4942C131.186 26.2188 130.133 25.9893 129.367 25.7596C128.505 25.5301 127.643 25.2545 126.782 24.9331C125.872 24.6117 125.059 24.1525 124.341 23.5555L124.245 23.4637C123.623 22.8667 123.096 22.2239 122.761 21.4433C122.33 20.525 122.139 19.5607 122.187 18.5964C122.187 16.0249 123.288 13.8668 125.394 12.3974C127.309 11.0657 129.798 10.377 132.765 10.377C135.877 10.377 138.51 11.0657 140.568 12.4892C142.674 13.9127 144.062 15.979 144.78 18.5964L140.233 19.6525C139.85 18.0912 139.084 16.9433 137.887 16.1168C136.643 15.2902 134.967 14.877 132.813 14.877C130.851 14.877 129.271 15.2443 128.218 16.0249C127.309 16.6678 126.925 17.4943 126.925 18.6882C126.925 19.0555 126.973 19.331 127.117 19.6066C127.213 19.7902 127.356 20.0199 127.5 20.1577C127.787 20.3872 128.17 20.5709 128.505 20.7085L128.601 20.7545C129.271 21.0301 129.941 21.2596 130.611 21.3974C131.281 21.581 132.287 21.8107 133.531 22.0861C135.398 22.4993 136.834 22.8209 137.935 23.1882C139.084 23.5555 140.185 24.0147 141.238 24.5658C142.53 25.2545 143.488 26.1269 144.11 27.1831V27.229C144.684 28.285 144.972 29.479 144.924 30.7188C144.924 33.382 143.775 35.678 141.573 37.2393C139.563 38.7545 136.978 39.4893 133.866 39.4893Z" fill="#030510"/>
<path d="M86.0459 31.6372L89.4445 34.8975L89.0616 35.2648C86.9075 37.331 84.2269 38.7086 81.2591 39.2597C80.2539 39.4432 79.2966 39.5351 78.2913 39.5351C76.2808 39.5351 74.3184 39.1678 72.4514 38.4332C69.6273 37.331 67.2817 35.4483 65.6064 33.0607C63.9311 30.6729 63.0215 27.8259 63.0215 24.9332C63.0215 22.0402 63.9311 19.2392 65.6064 16.8055C67.2817 14.4178 69.675 12.5351 72.4514 11.4331C75.2278 10.3311 78.2913 10.0555 81.2591 10.6066C84.2269 11.1576 86.9075 12.5351 89.0616 14.6015L89.4445 14.9688L86.0459 18.229L85.663 17.8617C84.1791 16.4382 82.3601 15.5198 80.3017 15.1066C78.2913 14.7392 76.1851 14.9229 74.2704 15.6576C72.3557 16.4382 70.7281 17.678 69.5793 19.331C68.4305 20.984 67.8083 22.9127 67.8083 24.8872C67.8083 26.8616 68.4305 28.7902 69.5793 30.4432C70.7281 32.0964 72.3557 33.3821 74.2704 34.1167C76.1851 34.8975 78.2913 35.081 80.3017 34.6678C82.3121 34.2545 84.1791 33.3362 85.663 31.9127L86.0459 31.6372Z" fill="#030510"/>
<path d="M250.997 10.837V28.7452C250.997 29.9849 250.759 31.2247 250.375 32.3727C249.898 33.7044 249.132 34.9441 248.126 36.0003C247.839 36.2757 247.551 36.5973 247.264 36.8268C246.163 37.7911 244.87 38.5257 243.482 38.9849C242.285 39.3982 241.042 39.5819 239.7 39.5819C238.408 39.5819 237.115 39.3522 235.92 38.9849C234.531 38.5257 233.238 37.7911 232.139 36.8268C231.85 36.5973 231.563 36.3217 231.277 36.0003C231.084 35.7706 230.893 35.587 230.751 35.3574C230.558 35.587 230.415 35.7706 230.222 36.0003C229.936 36.2757 229.649 36.5973 229.363 36.8268C228.212 37.7911 226.969 38.5257 225.581 38.9849C224.384 39.3982 223.138 39.5819 221.799 39.5819C220.506 39.5819 219.214 39.3522 218.017 38.9849C216.629 38.5257 215.337 37.7911 214.235 36.8268C213.949 36.5973 213.662 36.3217 213.373 36.0003C212.369 34.9441 211.603 33.7044 211.124 32.3727C210.693 31.2247 210.502 30.0309 210.502 28.7452V10.6074H215.192V28.7452C215.192 29.8473 215.481 30.9492 216.054 31.9135C216.629 32.8779 217.491 33.6584 218.448 34.2554C220.458 35.3574 223.043 35.3574 225.054 34.2554C226.058 33.7044 226.873 32.8779 227.495 31.9135C228.07 30.9492 228.357 29.8473 228.357 28.7452V10.6074H231.899H233.096V28.7452C233.096 29.8473 233.382 30.9492 233.957 31.9135C234.531 32.8779 235.392 33.6584 236.351 34.2554C238.361 35.3574 240.946 35.3574 242.956 34.2554C243.962 33.7044 244.775 32.8779 245.35 31.9135C245.923 30.9492 246.211 29.8473 246.211 28.7452V10.837H250.997Z" fill="#030510"/>
<path d="M172.303 21.1683V39.3062H167.612V21.1683C167.612 20.0664 167.325 18.9643 166.75 18C166.176 17.0357 165.314 16.2551 164.309 15.7041C162.298 14.6021 159.713 14.6021 157.703 15.7041C156.698 16.2551 155.884 17.0816 155.262 18C154.783 18.7807 154.496 19.6072 154.4 20.5256V39.3062H149.613V2.2041H154.4V12.3521C155.262 11.7551 156.219 11.2959 157.176 10.9286C159.57 10.1021 162.298 10.1021 164.692 10.9286C166.08 11.3878 167.372 12.1225 168.473 13.0868C168.76 13.3163 169.048 13.5919 169.335 13.9133C170.34 15.0153 171.106 16.2092 171.585 17.5408C172.063 18.6888 172.303 19.9286 172.303 21.1683Z" fill="#030510"/>
<path d="M201.168 27.8265L201.071 28.0562C200.975 28.3775 200.833 28.6989 200.64 29.0664C200.067 30.2602 199.252 31.3622 198.248 32.2346C197.386 33.0154 196.381 33.6122 195.279 34.0714C194.18 34.5305 192.983 34.8062 191.833 34.8521C190.445 34.9438 189.105 34.7602 187.813 34.347C187.478 34.2551 187.142 34.1173 186.759 33.9337C185.515 33.3827 184.366 32.6021 183.456 31.6378C183.217 31.3622 182.93 31.0867 182.691 30.7654L206.003 21.2143L205.859 20.7551C205.668 20.1581 205.476 19.6072 205.237 19.0562C204.997 18.5051 204.71 17.9541 204.375 17.4031C203.991 16.8061 203.656 16.301 203.322 15.8418C202.461 14.7857 201.502 13.8674 200.353 13.0408C199.54 12.4439 198.63 11.9388 197.769 11.5255C197.195 11.25 196.62 11.0204 195.998 10.8367C195.041 10.5153 194.035 10.3317 193.029 10.1939C191.641 10.0561 190.254 10.0561 188.914 10.2398C187.622 10.4235 186.376 10.7908 185.228 11.25C184.031 11.7092 182.93 12.3521 181.877 13.1327C180.776 13.9592 179.818 14.8776 178.957 15.9337C178.335 16.7143 177.808 17.5867 177.377 18.4133C177.09 19.0102 176.851 19.5613 176.659 20.1122C176.324 21.0306 176.133 21.9949 175.989 22.9592C175.798 24.2908 175.846 25.6224 176.037 26.9081C176.228 28.148 176.611 29.3419 177.09 30.4438C177.569 31.5919 178.239 32.648 179.005 33.6581C179.866 34.7143 180.824 35.6327 181.973 36.4592C182.786 37.0562 183.696 37.5613 184.557 37.9745C185.132 38.25 185.754 38.4797 186.329 38.6632C187.286 38.9846 188.29 39.1684 189.296 39.3062C189.918 39.398 190.54 39.398 191.164 39.398C191.928 39.398 192.694 39.3521 193.413 39.2143C194.706 39.0305 195.95 38.7092 197.098 38.204C198.295 37.6989 199.396 37.1021 200.449 36.3214C201.55 35.4949 202.508 34.5765 203.369 33.5205C203.991 32.7397 204.517 31.8673 204.948 31.0408C205.237 30.4438 205.476 29.8929 205.668 29.3419C206.003 28.4235 206.194 27.4592 206.338 26.4949L206.434 25.5765L201.168 27.8265ZM180.824 26.5408C180.776 26.1275 180.728 25.8062 180.68 25.4389C180.584 24.1072 180.776 22.8214 181.207 21.5816C181.302 21.2602 181.446 20.9389 181.637 20.5714C182.212 19.3776 183.026 18.3214 184.031 17.4031C184.892 16.6225 185.898 16.0255 186.999 15.5663C188.099 15.1072 189.296 14.8317 190.445 14.7857C190.684 14.7857 190.924 14.7398 191.115 14.7398C192.263 14.7398 193.365 14.9235 194.466 15.2908C194.801 15.3827 195.137 15.5204 195.519 15.7041C196.765 16.2551 197.864 17.0357 198.821 18C199.061 18.2755 199.301 18.597 199.54 18.9184L180.824 26.5408Z" fill="#030510"/>
<path d="M119.508 24.979C119.508 16.8515 112.663 10.2852 104.286 10.2852C95.9094 10.2852 89.0645 16.8974 89.0645 24.979C89.0645 33.1065 95.9094 39.673 104.286 39.673C108.307 39.673 111.945 38.1576 114.674 35.6781V39.3055H119.46V26.127C119.508 25.7597 119.508 25.3922 119.508 24.979ZM104.334 35.0352C101.127 35.0352 98.255 33.6117 96.3403 31.3617C96.1966 31.2239 96.1009 31.0403 95.9574 30.9025C95.8615 30.7647 95.7658 30.627 95.6701 30.4892C95.6223 30.4433 95.6223 30.3973 95.5743 30.3973C94.4735 28.8362 93.8511 26.9535 93.8511 24.8873C93.8511 19.377 98.5421 14.877 104.238 14.877C109.839 14.877 114.386 19.1473 114.626 24.4738V25.0249C114.626 25.3463 114.626 25.6678 114.578 25.9892C114.578 26.0811 114.578 26.127 114.53 26.2189C114.482 26.4484 114.482 26.7238 114.386 26.9535C114.386 27.0454 114.338 27.183 114.338 27.2749C114.291 27.4127 114.291 27.5046 114.243 27.6422C114.195 27.826 114.147 28.0097 114.051 28.1933C114.003 28.377 113.908 28.5606 113.812 28.7903C113.716 28.9738 113.668 29.1576 113.573 29.3413C113.573 29.3413 113.573 29.3413 113.573 29.3873C113.477 29.5708 113.381 29.7546 113.285 29.9382C113.238 30.03 113.19 30.1219 113.094 30.2138C113.046 30.3055 112.95 30.3974 112.903 30.4892C112.903 30.5352 112.855 30.5811 112.807 30.627C111.036 33.2903 107.876 35.0352 104.334 35.0352Z" fill="#030510"/>
<path d="M1.69986 19.3803C0.611455 20.4245 0 21.8405 0 23.3171C-1.07255e-07 25.4632 1.81393 27.203 4.0512 27.203C6.27949 27.203 8.08756 25.4773 8.10205 23.343C8.1164 24.2596 8.89555 24.9986 9.8546 24.9986C10.8226 24.9986 11.6074 24.2458 11.6074 23.3173C11.6074 21.8407 10.9959 20.4245 9.90749 19.3803C8.81911 18.3363 7.34291 17.7498 5.80368 17.7498C4.26445 17.7498 2.78825 18.3363 1.69986 19.3803Z" fill="#030510"/>
<path d="M45.2084 25.5726C46.2966 24.5286 46.9082 23.1126 46.9082 21.636C46.9082 19.4899 45.0943 17.75 42.857 17.75C40.6287 17.75 38.8206 19.4758 38.8062 21.6102C38.7917 20.6935 38.0127 19.9545 37.0535 19.9545C36.0856 19.9545 35.3008 20.7073 35.3008 21.6358C35.3008 23.1124 35.9122 24.5286 37.0006 25.5726C38.0891 26.6168 39.5653 27.2033 41.1045 27.2033C42.6437 27.2033 44.1199 26.6168 45.2084 25.5726Z" fill="#030510"/>
<path d="M20.1296 43.3692C21.2179 44.4134 22.6941 44.9999 24.2334 44.9999C26.4705 44.9999 28.2843 43.2599 28.2843 41.1136C28.2843 38.9761 26.4851 37.2417 24.2602 37.2279C25.2159 37.214 25.9861 36.4666 25.9861 35.5465C25.9861 34.618 25.2015 33.8652 24.2334 33.8652C22.6943 33.8652 21.2179 34.4517 20.1296 35.4959C19.0411 36.5399 18.4297 37.9561 18.4297 39.4327C18.4297 40.909 19.0411 42.3252 20.1296 43.3692Z" fill="#030510"/>
<path d="M26.5845 1.63063C25.496 0.586554 24.0198 6.45418e-08 22.4807 0C20.2434 -1.96699e-07 18.4297 1.74006 18.4297 3.88622C18.4297 6.02376 20.2288 7.75821 22.4537 7.7721C21.498 7.78586 20.7278 8.53329 20.7278 9.45328C20.7278 10.3819 21.5125 11.1347 22.4805 11.1347C24.0198 11.1347 25.496 10.5481 26.5845 9.50404C27.6728 8.45996 28.2844 7.04389 28.2844 5.56734C28.2844 4.09078 27.6728 2.67471 26.5845 1.63063Z" fill="#030510"/>
<path d="M10.3485 5.54785C8.80926 5.54785 7.33307 6.13441 6.24466 7.17848L6.24507 7.17886C4.6631 8.69643 4.6631 11.1569 6.24507 12.6744C7.82242 14.1875 10.3769 14.192 11.96 12.6878C11.2893 13.3454 11.2939 14.4001 11.9738 15.0522C12.6583 15.7089 13.768 15.7089 14.4525 15.0522C14.4637 15.0415 14.4747 15.0307 14.4856 15.0197C15.5531 13.9788 16.1522 12.5766 16.1522 11.1152C16.1522 9.63863 15.5407 8.22256 14.4523 7.17848C13.3639 6.13441 11.8877 5.54785 10.3485 5.54785Z" fill="#030510"/>
<path d="M34.8893 29.9026C35.5693 30.5547 35.5738 31.6094 34.9032 32.2672C36.4862 30.7629 39.0408 30.7674 40.6181 32.2805C42.2 33.7979 42.2 36.2585 40.6181 37.7759L40.6185 37.7763C39.53 38.8205 38.0538 39.407 36.5147 39.407C34.9755 39.407 33.4993 38.8205 32.4108 37.7763C31.3225 36.7323 30.7109 35.3163 30.7109 33.8397C30.7109 32.3782 31.31 30.9761 32.3777 29.9352C32.3883 29.9242 32.3994 29.9133 32.4106 29.9026C33.0951 29.246 34.2049 29.246 34.8893 29.9026Z" fill="#030510"/>
<path d="M39.3805 5.98974C37.7985 4.47217 35.2336 4.47217 33.6517 5.98974C32.0777 7.49953 32.0697 9.94258 33.6276 11.4619C32.9413 10.8287 31.8498 10.8365 31.1736 11.4853C30.4891 12.1418 30.489 13.2063 31.1734 13.8629L31.1732 13.8632C32.2615 14.9072 33.7377 15.4938 35.2771 15.4938C36.8162 15.4938 38.2924 14.9072 39.3807 13.8632C40.4692 12.8191 41.0806 11.403 41.0806 9.92647C41.0806 8.44993 40.469 7.03381 39.3805 5.98974C39.3805 5.98978 39.3805 5.98968 39.3805 5.98974Z" fill="#030510"/>
<path d="M15.6864 31.091C16.3709 31.7476 16.3709 32.8123 15.6864 33.4689C15.0092 34.1186 13.9156 34.1253 13.2295 33.4893C14.7901 35.0086 14.783 37.4536 13.2081 38.9643C11.6262 40.482 9.06123 40.482 7.47926 38.9643C7.46191 38.9476 7.44477 38.931 7.4278 38.9141C6.37154 37.8751 5.7793 36.4805 5.7793 35.0274C5.7793 33.5508 6.39076 32.1346 7.47917 31.0906C8.56757 30.0465 10.0437 29.46 11.583 29.46C13.1222 29.46 14.5984 30.0465 15.6868 31.0906L15.6864 31.091Z" fill="#030510"/>
</svg>
