<svg width="100" height="100" viewBox="0 0 100 100" fill="none" xmlns="http://www.w3.org/2000/svg">
<g clip-path="url(#clip0_10275_5177)">
<path d="M50 0C22.4308 0 0 22.4288 0 50C0 77.5712 22.4308 100 50 100C77.5692 100 100 77.5712 100 50C100 22.4288 77.5692 0 50 0ZM50 96.1538C24.5519 96.1538 3.84615 75.4481 3.84615 50C3.84615 24.5519 24.5519 3.84615 50 3.84615C75.4481 3.84615 96.1538 24.5519 96.1538 50C96.1538 75.4481 75.4481 96.1538 50 96.1538Z" fill="#00E2C5"/>
<path d="M73.5622 29.4942L44.0064 62.7442L26.2006 48.5C25.8019 48.1852 25.2949 48.041 24.7903 48.0988C24.2856 48.1566 23.8243 48.4117 23.5071 48.8084C23.1898 49.2051 23.0425 49.7112 23.0971 50.2162C23.1517 50.7212 23.404 51.1841 23.7987 51.5038L43.0295 66.8884C43.4143 67.1971 43.9031 67.3459 44.3947 67.304C44.8862 67.2621 45.3428 67.0328 45.6699 66.6634L76.4391 32.048C76.6068 31.8591 76.7356 31.6391 76.8183 31.4004C76.9009 31.1617 76.9357 30.909 76.9207 30.6569C76.9057 30.4047 76.8412 30.158 76.7308 29.9308C76.6205 29.7036 76.4665 29.5003 76.2776 29.3327C76.0887 29.165 75.8686 29.0361 75.6299 28.9535C75.3912 28.8709 75.1386 28.8361 74.8864 28.8511C74.6343 28.8661 74.3875 28.9306 74.1603 29.0409C73.9331 29.1513 73.7299 29.3053 73.5622 29.4942Z" fill="#00E2C5"/>
</g>
<defs>
<clipPath id="clip0_10275_5177">
<rect width="100" height="100" fill="white"/>
</clipPath>
</defs>
</svg>
