<svg width="100" height="100" viewBox="0 0 100 100" fill="none" xmlns="http://www.w3.org/2000/svg">
<g clip-path="url(#clip0_10406_5252)">
<path fill-rule="evenodd" clip-rule="evenodd" d="M99.98 48.5704C99.9801 48.5769 99.9803 48.5834 99.9805 48.5899C99.9805 48.5913 99.9806 48.5926 99.9806 48.594C99.9935 49.0611 100 49.5298 100 50V100H50C50 99.3302 50.0132 98.6634 50.0393 98C50.2032 93.8333 50.877 89.7976 52 85.9536C56.7679 69.6334 69.6332 56.768 85.9535 52C89.7975 50.877 93.8333 50.2032 98 50.0393C98.657 50.0134 99.3172 50.0003 99.9805 50H50V2.18557e-06C50.6698 2.36124e-06 51.3366 0.0131748 52 0.0392727C78.0234 1.06299 98.937 21.9764 99.9607 48C99.9682 48.1898 99.9746 48.38 99.98 48.5704ZM97.9591 48C96.9378 23.0812 76.9187 3.06226 52 2.04091V48H97.9591ZM49.9607 2C49.9868 1.33658 50 0.669827 50 2.18557e-06L2.18557e-06 0L0 50C0 50.6698 0.0131721 51.3366 0.0392698 52C1.06298 78.0234 21.9763 98.937 48 99.9607C48.6634 99.9868 49.3302 100 50 100V50H0C0.669825 50 1.33657 49.9868 2 49.9607C6.16671 49.7968 10.2024 49.123 14.0464 48C30.3667 43.2321 43.2321 30.3667 48 14.0464C49.123 10.2024 49.7968 6.16671 49.9607 2ZM47.9591 2L2 2L2 47.9591C26.9189 46.9378 46.9378 26.9189 47.9591 2ZM48 52H2.04091C3.06225 76.9187 23.0811 96.9378 48 97.9591V52ZM98 52.0409C73.0809 53.0622 53.0622 73.0813 52.0409 98H98V52.0409Z" fill="#00E2C5"/>
</g>
<defs>
<clipPath id="clip0_10406_5252">
<rect width="100" height="100" fill="white"/>
</clipPath>
</defs>
</svg>
