<svg width="100" height="100" viewBox="0 0 100 100" fill="none" xmlns="http://www.w3.org/2000/svg">
<path d="M58.5947 15.877H58.5986C58.7437 15.877 58.8858 15.8366 59.0092 15.7604C59.1326 15.6841 59.2323 15.5751 59.2972 15.4454C59.3621 15.3157 59.3896 15.1705 59.3767 15.0261C59.3638 14.8816 59.3109 14.7437 59.224 14.6276L50.4902 0.372672C50.4203 0.258796 50.3224 0.164745 50.2058 0.0995012C50.0891 0.0342576 49.9577 0 49.8241 0C49.6905 0 49.5591 0.0342576 49.4425 0.0995012C49.3259 0.164745 49.2279 0.258796 49.158 0.372672L40.3861 14.6875C40.3135 14.8059 40.2738 14.9415 40.271 15.0804C40.2682 15.2192 40.3026 15.3563 40.3704 15.4775C40.4383 15.5987 40.5372 15.6996 40.657 15.7698C40.7769 15.84 40.9133 15.877 41.0521 15.877H45.6506V17.6541C39.492 19.4623 34.9805 25.1611 34.9805 31.8969C34.9805 35.6596 36.3885 39.2447 38.9441 41.9912C41.741 45.0098 45.7066 46.741 49.8244 46.741C53.9389 46.741 57.9045 45.011 60.7045 41.9944C63.2609 39.241 64.6687 35.6551 64.6687 31.8969C64.6687 25.1608 60.1566 19.4617 53.9973 17.6539V15.877H58.5947ZM52.4348 15.0957V17.2871C51.5732 17.1324 50.6997 17.0539 49.8244 17.0528C48.9332 17.0528 48.0615 17.1361 47.2131 17.2875V15.0957C47.2131 14.8885 47.1308 14.6898 46.9843 14.5433C46.8378 14.3968 46.639 14.3145 46.4318 14.3145H42.4473L49.8242 2.27619L57.2002 14.3145H53.2164C53.1138 14.3144 53.0121 14.3346 52.9173 14.3738C52.8225 14.4131 52.7363 14.4706 52.6637 14.5432C52.5911 14.6157 52.5336 14.7018 52.4943 14.7967C52.455 14.8915 52.4348 14.9931 52.4348 15.0957ZM40.432 41.2789L40.8176 39.8883C41.3811 37.6639 43.6996 35.7666 46.0021 35.575L49.1756 40.3082C49.247 40.4147 49.3436 40.502 49.4567 40.5624C49.5699 40.6227 49.6962 40.6543 49.8244 40.6543C49.9527 40.6543 50.0789 40.6227 50.1921 40.5624C50.3052 40.502 50.4018 40.4147 50.4732 40.3082L53.6471 35.5752C55.95 35.7678 58.2686 37.6654 58.8357 39.9041L59.2156 41.2824C56.735 43.7627 53.3416 45.1785 49.8242 45.1785C46.3041 45.1783 42.9109 43.7617 40.432 41.2789ZM60.4463 39.867L60.3463 39.5045C59.5768 36.4674 56.4002 33.9965 53.265 33.9965H53.241C53.1128 33.9965 52.9865 34.0281 52.8733 34.0884C52.7602 34.1488 52.6636 34.2361 52.5922 34.3426L49.8242 38.4703L47.0568 34.3426C46.9854 34.2361 46.8888 34.1488 46.7757 34.0884C46.6625 34.0281 46.5363 33.9965 46.408 33.9965H46.3814C43.2477 33.9965 40.0721 36.4674 39.307 39.4875L39.2022 39.866C37.4801 37.5793 36.5428 34.7979 36.5428 31.8969C36.5428 24.5735 42.5008 18.6153 49.8242 18.6153C57.1478 18.6153 63.1061 24.5735 63.1061 31.8969C63.1061 34.7942 62.1687 37.5764 60.4463 39.867ZM19.6447 77.1086C23.7592 77.1086 27.7248 75.3785 30.5248 72.3619C33.0813 69.6086 34.4891 66.0227 34.4891 62.2645C34.4891 55.5283 29.977 49.8293 23.8176 48.0215V46.2445H28.4189C28.564 46.2446 28.7062 46.2042 28.8296 46.128C28.953 46.0518 29.0527 45.9428 29.1177 45.8131C29.1826 45.6834 29.2102 45.5382 29.1972 45.3937C29.1843 45.2493 29.1314 45.1112 29.0445 44.9951L20.3105 30.7404C20.2406 30.6266 20.1427 30.5325 20.0261 30.4673C19.9095 30.402 19.7781 30.3678 19.6444 30.3678C19.5108 30.3678 19.3794 30.402 19.2628 30.4673C19.1462 30.5325 19.0482 30.6266 18.9783 30.7404L10.2068 45.0553C10.1342 45.1737 10.0945 45.3093 10.0917 45.4481C10.0889 45.587 10.1233 45.7241 10.1911 45.8453C10.259 45.9665 10.3579 46.0674 10.4777 46.1376C10.5976 46.2078 10.734 46.2448 10.8729 46.2447H15.4709V48.0219C9.3123 49.8301 4.80078 55.5289 4.80078 62.2647C4.80078 66.0274 6.20879 69.6125 8.76445 72.359C11.5611 75.3774 15.5268 77.1086 19.6447 77.1086ZM16.2521 44.682H12.2678L19.6443 32.6438L27.0203 44.682H23.0365C22.8293 44.682 22.6306 44.7644 22.4841 44.9109C22.3376 45.0574 22.2553 45.2561 22.2553 45.4633V47.6547C21.3937 47.4999 20.5202 47.4215 19.6449 47.4203C18.7537 47.4203 17.882 47.5037 17.0336 47.6551V45.4633C17.0335 45.2561 16.9511 45.0574 16.8046 44.9109C16.6581 44.7644 16.4594 44.6821 16.2521 44.682ZM19.6447 48.9828C26.9684 48.9828 32.9266 54.941 32.9266 62.2645C32.9266 65.1619 31.9891 67.944 30.2668 70.2348L30.1668 69.8723C29.3973 66.8352 26.2207 64.3643 23.0855 64.3643H23.0615C22.9333 64.3643 22.807 64.3958 22.6938 64.4562C22.5807 64.5166 22.4841 64.6039 22.4127 64.7104L19.6447 68.8381L16.8773 64.7104C16.8059 64.6039 16.7094 64.5166 16.5962 64.4562C16.483 64.3958 16.3568 64.3643 16.2285 64.3643H16.202C13.0682 64.3643 9.89258 66.8352 9.12754 69.8553L9.02266 70.2338C7.30059 67.9471 6.36328 65.1656 6.36328 62.2647C6.36328 54.941 12.3213 48.9828 19.6447 48.9828ZM10.2523 71.6465L10.6379 70.2559C11.2014 68.0315 13.5199 66.1342 15.8225 65.9426L18.9959 70.6758C19.0673 70.7823 19.1639 70.8696 19.277 70.9299C19.3902 70.9903 19.5165 71.0219 19.6447 71.0219C19.773 71.0219 19.8992 70.9903 20.0124 70.9299C20.1256 70.8696 20.2221 70.7823 20.2936 70.6758L23.4674 65.9428C25.7703 66.1354 28.0889 68.033 28.6561 70.2717L29.0359 71.65C26.5553 74.1303 23.1619 75.5461 19.6445 75.5461C16.1246 75.5461 12.7311 74.1293 10.2523 71.6465Z" fill="#00E2C5"/>
<path d="M14.0977 55.9278C14.0977 60.0117 16.5213 64.7592 19.6459 64.7592C22.7705 64.7592 25.1939 60.0117 25.1939 55.9278C25.1939 52.3252 23.1199 50.1742 19.6459 50.1742C16.1717 50.1742 14.0977 52.325 14.0977 55.9278ZM19.6459 63.1965C17.7088 63.1965 15.6602 59.4602 15.6602 55.9276C15.6602 52.4637 17.8277 51.7365 19.6459 51.7365C21.4641 51.7365 23.6314 52.4637 23.6314 55.9276C23.6314 59.4602 21.5828 63.1965 19.6459 63.1965ZM49.8256 19.8065C46.3514 19.8065 44.2773 21.9574 44.2773 25.56C44.2773 29.644 46.701 34.3914 49.8256 34.3914C52.9502 34.3914 55.3736 29.644 55.3736 25.56C55.3736 21.9574 53.2996 19.8065 49.8256 19.8065ZM49.8256 32.8289C47.8885 32.8289 45.8398 29.0926 45.8398 25.56C45.8398 22.0961 48.0074 21.369 49.8256 21.369C51.6438 21.369 53.8111 22.0961 53.8111 25.56C53.8111 29.0926 51.7625 32.8289 49.8256 32.8289ZM84.5281 35.6721V33.8953H89.1295C89.2745 33.8953 89.4167 33.8549 89.54 33.7787C89.6634 33.7025 89.7632 33.5935 89.8281 33.4638C89.893 33.3341 89.9205 33.1889 89.9076 33.0445C89.8947 32.9 89.8418 32.762 89.7549 32.6459L81.0209 18.3912C80.951 18.2774 80.853 18.1833 80.7364 18.1181C80.6198 18.0528 80.4884 18.0186 80.3548 18.0186C80.2212 18.0186 80.0898 18.0528 79.9732 18.1181C79.8565 18.1833 79.7586 18.2774 79.6887 18.3912L70.9168 32.7061C70.8442 32.8245 70.8044 32.9601 70.8017 33.0989C70.7989 33.2378 70.8332 33.3749 70.9011 33.4961C70.9689 33.6172 71.0679 33.7181 71.1877 33.7884C71.3075 33.8586 71.4439 33.8956 71.5828 33.8955H76.1812V35.6727C70.0227 37.4807 65.5113 43.1795 65.5113 49.9153C65.5113 53.6779 66.9193 57.2633 69.475 60.0098C72.2715 63.0281 76.2371 64.7594 80.3551 64.7594C84.4697 64.7594 88.4355 63.0295 91.2354 60.0129C93.7918 57.2592 95.1996 53.6731 95.1996 49.9153C95.1996 43.1787 90.6877 37.4797 84.5281 35.6721ZM70.9627 59.2969L71.3484 57.9065C71.9119 55.6819 74.2305 53.7846 76.5328 53.593L79.7063 58.3264C79.7777 58.4329 79.8742 58.5202 79.9874 58.5805C80.1006 58.6409 80.2268 58.6725 80.3551 58.6725C80.4833 58.6725 80.6096 58.6409 80.7228 58.5805C80.8359 58.5202 80.9325 58.4329 81.0039 58.3264L84.1777 53.593C86.4807 53.7858 88.7994 55.6834 89.3666 57.9221L89.7465 59.3008C87.266 61.7805 83.8725 63.1965 80.3549 63.1965C76.8348 63.1965 73.4414 61.7797 70.9627 59.2969ZM90.9773 57.8854L90.8773 57.5229C90.1078 54.4856 86.9313 52.0147 83.7961 52.0147H83.7719C83.6436 52.0147 83.5174 52.0462 83.4042 52.1066C83.291 52.167 83.1945 52.2542 83.123 52.3608L80.3551 56.4887L77.5877 52.3608C77.5163 52.2542 77.4197 52.167 77.3065 52.1066C77.1934 52.0462 77.0671 52.0147 76.9389 52.0147H76.9123C73.7785 52.0147 70.6031 54.4856 69.8381 57.5059L69.7332 57.8844C68.0111 55.5975 67.0738 52.8162 67.0738 49.9151C67.0738 42.5916 73.0318 36.6334 80.3551 36.6334C87.6787 36.6334 93.6371 42.5916 93.6371 49.9151C93.6371 52.8123 92.6996 55.5942 90.9773 57.8854ZM76.9625 32.3328H72.9779L80.3549 20.2945L87.7311 32.3328H83.7473C83.5401 32.3328 83.3414 32.4151 83.1948 32.5617C83.0483 32.7082 82.966 32.9069 82.966 33.1141V35.3055C82.1044 35.1506 81.2309 35.0721 80.3555 35.0709C79.4643 35.0709 78.5926 35.1545 77.7441 35.3055V33.1141C77.744 32.9069 77.6616 32.7082 77.515 32.5617C77.3684 32.4152 77.1697 32.3329 76.9625 32.3328Z" fill="#00E2C5"/>
<path d="M80.3516 37.8252C76.8775 37.8252 74.8035 39.9762 74.8035 43.5789C74.8035 47.6629 77.227 52.4104 80.3516 52.4104C83.4762 52.4104 85.8996 47.6629 85.8996 43.5789C85.8996 39.9762 83.8256 37.8252 80.3516 37.8252ZM80.3516 50.8479C78.4147 50.8479 76.366 47.1115 76.366 43.5789C76.366 40.1148 78.5334 39.3877 80.3516 39.3877C82.1697 39.3877 84.3371 40.1148 84.3371 43.5789C84.3371 47.1115 82.2885 50.8479 80.3516 50.8479ZM32.2164 99.2182V82.0504C32.2164 81.8432 32.1341 81.6445 31.9876 81.498C31.8411 81.3515 31.6424 81.2691 31.4352 81.2691H7.85156C7.64436 81.2691 7.44565 81.3515 7.29914 81.498C7.15262 81.6445 7.07031 81.8432 7.07031 82.0504V99.2182C7.07031 99.4254 7.15262 99.6241 7.29914 99.7706C7.44565 99.9171 7.64436 99.9994 7.85156 99.9994H31.4352C31.6424 99.9994 31.8411 99.9171 31.9876 99.7706C32.1341 99.6241 32.2164 99.4254 32.2164 99.2182ZM8.63281 82.8316H30.6539V98.4369H8.63281V82.8316ZM61.2646 50.2557H37.6811C37.5775 50.2557 37.475 50.2764 37.3795 50.3164C37.284 50.3564 37.1974 50.4149 37.1248 50.4886C37.0521 50.5624 36.9948 50.6498 36.9562 50.7459C36.9175 50.8419 36.8984 50.9447 36.8998 51.0482L37.5998 99.2295C37.6028 99.4347 37.6865 99.6305 37.8327 99.7745C37.9788 99.9185 38.1758 99.9992 38.3811 99.9992H61.9646C62.0682 99.9991 62.1707 99.9785 62.2662 99.9385C62.3617 99.8985 62.4483 99.84 62.5209 99.7662C62.5936 99.6925 62.6509 99.6051 62.6896 99.509C62.7282 99.4129 62.7473 99.3102 62.7459 99.2066L62.0459 51.0254C62.0429 50.8202 61.9592 50.6244 61.813 50.4804C61.6669 50.3364 61.4699 50.2556 61.2646 50.2557ZM60.4945 51.8182L61.1719 98.4369H39.151L38.4736 51.8182H60.4945ZM91.7939 67.2162H68.2103C68.1063 67.2162 68.0033 67.237 67.9074 67.2774C67.8115 67.3177 67.7246 67.3768 67.6518 67.4512C67.579 67.5256 67.5219 67.6139 67.4837 67.7107C67.4455 67.8075 67.427 67.911 67.4293 68.015L68.1291 99.2357C68.1337 99.4398 68.218 99.634 68.364 99.7768C68.51 99.9195 68.706 99.9994 68.9102 99.9994H92.4938C92.5978 99.9994 92.7008 99.9786 92.7967 99.9382C92.8926 99.8979 92.9795 99.8388 93.0523 99.7645C93.1251 99.69 93.1822 99.6018 93.2204 99.5049C93.2586 99.4081 93.2771 99.3046 93.2748 99.2006L92.575 67.9799C92.5704 67.7758 92.4861 67.5816 92.3401 67.4389C92.1941 67.2961 91.9981 67.2162 91.7939 67.2162ZM91.0301 68.7787L91.6947 98.4369H69.674L69.0094 68.7787H91.0301Z" fill="#00E2C5"/>
</svg>
