<svg width="100" height="100" viewBox="0 0 100 100" fill="none" xmlns="http://www.w3.org/2000/svg">
<g clip-path="url(#clip0_10255_8315)">
<path d="M49.8992 92.2004C39.0992 92.2004 28.2992 88.1004 20.0992 79.9004C12.0992 71.9004 7.69922 61.3004 7.69922 50.1004C7.69922 38.8004 12.0992 28.2004 20.0992 20.3004C28.0992 12.3004 38.6992 7.90039 49.8992 7.90039C61.0992 7.90039 71.7992 12.3004 79.6992 20.3004C96.0992 36.7004 96.0992 63.5004 79.6992 79.9004C71.4992 88.1004 60.6992 92.2004 49.8992 92.2004ZM21.4992 78.5004C37.1992 94.2004 62.6992 94.2004 78.2992 78.5004C93.9992 62.8004 93.9992 37.3004 78.2992 21.7004C70.6992 14.1004 60.5992 9.90039 49.8992 9.90039C39.1992 9.90039 28.9992 14.1004 21.4992 21.7004C13.9992 29.3004 9.69922 39.4004 9.69922 50.1004C9.69922 60.8004 13.8992 70.9004 21.4992 78.5004Z" fill="#00E2C5"/>
<path d="M100 100H0V0H100V100ZM2 98H98V2H2V98Z" fill="#00E2C5"/>
</g>
<defs>
<clipPath id="clip0_10255_8315">
<rect width="100" height="100" fill="white"/>
</clipPath>
</defs>
</svg>
