<svg width="100" height="100" viewBox="0 0 100 100" fill="none" xmlns="http://www.w3.org/2000/svg">
<g clip-path="url(#clip0_10357_8911)">
<path fill-rule="evenodd" clip-rule="evenodd" d="M51.9968 90.2195V97.9456C74.8507 96.6967 90.2255 74.1256 90.2255 50V48H97.9456C96.6965 25.1486 74.1247 9.7806 49.9968 9.7806H47.9968V2.05438C25.1437 3.30332 9.77475 25.8739 9.77475 50V52H2.05438C3.30316 74.8516 25.8693 90.2195 49.9968 90.2195H51.9968ZM0.050928 52C1.29675 76.3395 25.202 92.2195 49.9968 92.2195V100C50.6696 100 51.3364 99.9829 51.9968 99.9491C76.3384 98.7031 92.2255 74.7933 92.2255 50H100C100 49.3272 99.9829 48.6605 99.9491 48C98.7029 23.6604 74.7917 7.7806 49.9968 7.7806V0C49.3241 0 48.6573 0.017122 47.9968 0.050931C23.6556 1.29691 7.77475 25.2067 7.77475 50H0C0 50.6728 0.017121 51.3395 0.050928 52Z" fill="#005BFF"/>
</g>
<defs>
<clipPath id="clip0_10357_8911">
<rect width="100" height="100" fill="white"/>
</clipPath>
</defs>
</svg>
