<svg width="100" height="100" viewBox="0 0 100 100" fill="none" xmlns="http://www.w3.org/2000/svg">
<path d="M93.7772 50.958C91.9772 48.214 88.3652 47.558 84.5702 49.292L64.9612 58.241C64.1076 57.097 62.8855 56.2825 61.5012 55.935L46.0152 52.053C45.4013 51.9069 44.826 51.6307 44.3282 51.243C35.9172 44.862 26.7922 46.062 17.1932 54.802C16.7295 54.1663 16.0448 53.7271 15.2737 53.5708C14.5025 53.4144 13.7008 53.5522 13.0262 53.957L6.52616 57.857C5.81523 58.2861 5.3019 58.9779 5.09734 59.7827C4.89277 60.5875 5.01342 61.4405 5.43316 62.157L18.6882 84.646C18.8964 85.0065 19.1755 85.3212 19.5086 85.5711C19.8416 85.821 20.2218 86.0009 20.6262 86.1C20.8853 86.1664 21.1517 86.2 21.4192 86.2C21.9837 86.1978 22.5369 86.0416 23.0192 85.748L29.5192 81.848C30.2299 81.4187 30.743 80.7269 30.9476 79.9222C31.1521 79.1175 31.0316 78.2646 30.6122 77.548L30.3122 77.03L32.9582 75.459C33.8664 74.8972 34.9468 74.6817 36.0012 74.852L59.9572 78.283C60.2426 78.3245 60.5307 78.3452 60.8192 78.345C62.3777 78.2716 63.8835 77.7581 65.1622 76.864L92.1622 60.326C92.8413 59.9061 93.4282 59.3529 93.8875 58.6997C94.3467 58.0466 94.6688 57.3071 94.8342 56.526C95.0371 55.5743 95.0481 54.5916 94.8666 53.6355C94.6851 52.6794 94.3148 51.7692 93.7772 50.958ZM28.4142 80L21.9142 83.9C21.801 83.9677 21.6756 84.0124 21.5451 84.0315C21.4146 84.0506 21.2816 84.0436 21.1538 84.0111C21.026 83.9786 20.9059 83.9211 20.8004 83.8419C20.6949 83.7628 20.6062 83.6636 20.5392 83.55L7.28816 61.065C7.15426 60.8377 7.1156 60.5667 7.18059 60.3111C7.24559 60.0554 7.40897 59.8358 7.63516 59.7L14.1352 55.8C14.2482 55.7322 14.3736 55.6875 14.5041 55.6683C14.6345 55.6492 14.7675 55.6561 14.8953 55.6885C15.023 55.7209 15.1432 55.7783 15.2487 55.8573C15.3542 55.9364 15.4431 56.0355 15.5102 56.149L28.7612 78.64C28.8935 78.8669 28.9313 79.1366 28.8663 79.3911C28.8014 79.6456 28.639 79.8643 28.4142 80ZM92.7362 56.061C92.6331 56.5606 92.4292 57.0338 92.1369 57.4519C91.8446 57.8699 91.47 58.2238 91.0362 58.492L64.0362 75.03C62.9582 75.8555 61.6141 76.2556 60.2602 76.154L36.3072 72.722C34.7652 72.4804 33.1876 72.7948 31.8562 73.609L29.2172 75.177L18.3172 56.687C27.2802 48.366 35.3672 47.147 43.0252 52.957C43.7549 53.519 44.5943 53.9219 45.4892 54.14L60.9732 58.021C61.5012 58.1557 61.9972 58.3942 62.4323 58.7224C62.8673 59.0507 63.2327 59.4622 63.5072 59.933C64.0931 60.9054 64.2707 62.0701 64.0012 63.173C63.7266 64.2464 63.0374 65.167 62.0848 65.7328C61.1322 66.2986 59.9941 66.4634 58.9202 66.191L51.2532 64.237C50.9768 64.1665 50.6837 64.2086 50.4384 64.3541C50.1931 64.4996 50.0157 64.7367 49.9452 65.013C49.8746 65.2894 49.9167 65.5824 50.0623 65.8277C50.2078 66.073 50.4448 66.2505 50.7212 66.321L58.3882 68.275C60.0153 68.6882 61.7399 68.439 63.1835 67.582C64.6271 66.7251 65.6718 65.3304 66.0882 63.704C66.3817 62.5315 66.3384 61.3 65.9632 60.151L85.4702 51.251C87.5772 50.29 90.5472 49.945 91.9852 52.139C92.7444 53.2956 93.0144 54.7058 92.7362 56.061ZM14.5302 61.1C14.6636 61.3311 14.7255 61.5966 14.7081 61.8628C14.6907 62.1291 14.5946 62.3842 14.4322 62.5959C14.2697 62.8076 14.0481 62.9664 13.7954 63.0521C13.5427 63.1379 13.2703 63.1467 13.0125 63.0776C12.7548 63.0085 12.5234 62.8645 12.3475 62.6638C12.1716 62.4631 12.0592 62.2148 12.0245 61.9502C11.9897 61.6856 12.0343 61.4167 12.1524 61.1774C12.2705 60.9382 12.457 60.7393 12.6882 60.606C12.998 60.4274 13.366 60.3791 13.7114 60.4717C14.0568 60.5643 14.3513 60.7903 14.5302 61.1ZM59.1542 50.812C62.8934 50.812 66.5487 49.7032 69.6578 47.6258C72.7668 45.5484 75.1901 42.5956 76.621 39.141C78.052 35.6864 78.4264 31.885 77.6969 28.2176C76.9674 24.5502 75.1668 21.1815 72.5227 18.5374C69.8787 15.8934 66.5099 14.0928 62.8425 13.3633C59.1751 12.6338 55.3738 13.0082 51.9191 14.4391C48.4645 15.8701 45.5118 18.2933 43.4344 21.4024C41.357 24.5115 40.2482 28.1668 40.2482 31.906C40.2537 36.9185 42.2474 41.7241 45.7917 45.2684C49.3361 48.8128 54.1417 50.8065 59.1542 50.812ZM59.1542 15.151C62.4681 15.1506 65.7077 16.1329 68.4633 17.9738C71.2189 19.8146 73.3667 22.4312 74.6352 25.4928C75.9036 28.5543 76.2357 31.9232 75.5895 35.1735C74.9432 38.4238 73.3476 41.4094 71.0044 43.7529C68.6613 46.0963 65.6758 47.6923 62.4256 48.3389C59.1754 48.9856 55.8065 48.6539 52.7448 47.3858C49.6831 46.1177 47.0662 43.9702 45.225 41.2148C43.3839 38.4594 42.4012 35.2199 42.4012 31.906C42.4062 27.4642 44.1728 23.2057 47.3134 20.0647C50.4541 16.9237 54.7123 15.1566 59.1542 15.151ZM59.1542 46.687C62.0776 46.687 64.9353 45.8201 67.366 44.196C69.7968 42.5718 71.6913 40.2633 72.81 37.5625C73.9288 34.8616 74.2215 31.8896 73.6511 29.0224C73.0808 26.1551 71.6731 23.5214 69.6059 21.4543C67.5387 19.3871 64.905 17.9794 62.0378 17.409C59.1706 16.8387 56.1986 17.1314 53.4977 18.2501C50.7968 19.3689 48.4884 21.2634 46.8642 23.6941C45.2401 26.1248 44.3732 28.9826 44.3732 31.906C44.3782 35.8246 45.9371 39.5813 48.708 42.3522C51.4789 45.1231 55.2355 46.682 59.1542 46.687ZM59.1542 19.277C61.6519 19.277 64.0936 20.0177 66.1705 21.4054C68.2473 22.7931 69.866 24.7655 70.8218 27.0731C71.7777 29.3807 72.0278 31.92 71.5405 34.3698C71.0532 36.8196 69.8504 39.0699 68.0842 40.8361C66.318 42.6023 64.0677 43.8051 61.618 44.2923C59.1682 44.7796 56.6289 44.5295 54.3213 43.5737C52.0136 42.6178 50.0412 40.9991 48.6535 38.9223C47.2658 36.8455 46.5252 34.4038 46.5252 31.906C46.5289 28.5577 47.8606 25.3476 50.2282 22.9801C52.5958 20.6125 55.8059 19.2807 59.1542 19.277ZM54.7092 28.536C54.7104 27.5447 55.0425 26.5823 55.6528 25.8011C56.2631 25.02 57.1166 24.465 58.0782 24.224V22.405C58.0782 22.1196 58.1915 21.846 58.3933 21.6442C58.5951 21.4424 58.8688 21.329 59.1542 21.329C59.4395 21.329 59.7132 21.4424 59.915 21.6442C60.1168 21.846 60.2302 22.1196 60.2302 22.405V24.223C61.1815 24.4587 62.0276 25.0039 62.6352 25.773C62.723 25.8836 62.7882 26.0104 62.8271 26.1462C62.8659 26.2819 62.8777 26.424 62.8616 26.5643C62.8455 26.7046 62.802 26.8404 62.7335 26.9639C62.6649 27.0874 62.5727 27.1962 62.4622 27.284C62.3516 27.3719 62.2248 27.4371 62.089 27.4759C61.9532 27.5148 61.8111 27.5265 61.6708 27.5104C61.5305 27.4944 61.3947 27.4508 61.2713 27.3823C61.1478 27.3138 61.039 27.2216 60.9512 27.111C60.7099 26.8067 60.3954 26.5686 60.037 26.419C59.6787 26.2694 59.2882 26.2133 58.9022 26.2558C58.5162 26.2983 58.1473 26.4382 57.8301 26.6622C57.5129 26.8862 57.2578 27.1871 57.0886 27.5366C56.9194 27.8862 56.8417 28.2729 56.8628 28.6607C56.8839 29.0484 57.0031 29.4245 57.2092 29.7536C57.4154 30.0827 57.7017 30.3541 58.0413 30.5424C58.381 30.7307 58.7628 30.8296 59.1512 30.83C60.2363 30.8298 61.2841 31.2266 62.0969 31.9455C62.9097 32.6645 63.4315 33.6559 63.5638 34.733C63.6961 35.81 63.4299 36.8983 62.8153 37.7926C62.2006 38.6869 61.2801 39.3255 60.2272 39.588V41.407C60.2272 41.6924 60.1138 41.9661 59.912 42.1679C59.7102 42.3696 59.4365 42.483 59.1512 42.483C58.8658 42.483 58.5921 42.3696 58.3903 42.1679C58.1885 41.9661 58.0752 41.6924 58.0752 41.407V39.588C57.1239 39.3527 56.2778 38.8078 55.6702 38.039C55.5822 37.9282 55.517 37.8012 55.4782 37.6653C55.4393 37.5293 55.4276 37.387 55.4438 37.2465C55.46 37.106 55.5036 36.97 55.5723 36.8464C55.641 36.7228 55.7334 36.6139 55.8442 36.526C55.9549 36.4381 56.0819 36.3728 56.2179 36.334C56.3539 36.2952 56.4962 36.2835 56.6367 36.2997C56.7772 36.3158 56.9131 36.3595 57.0367 36.4282C57.1604 36.4969 57.2692 36.5892 57.3572 36.7C57.5984 37.0043 57.9129 37.2424 58.2713 37.392C58.6297 37.5416 59.0201 37.5977 59.4061 37.5552C59.7921 37.5127 60.161 37.3729 60.4782 37.1488C60.7954 36.9248 61.0506 36.6239 61.2197 36.2744C61.3889 35.9249 61.4666 35.5381 61.4455 35.1503C61.4244 34.7626 61.3052 34.3865 61.0991 34.0574C60.893 33.7283 60.6067 33.4569 60.267 33.2686C59.9274 33.0804 59.5455 32.9814 59.1572 32.981C57.9782 32.9802 56.8478 32.5117 56.0139 31.6784C55.18 30.8451 54.7107 29.7149 54.7092 28.536ZM31.7602 44.636C31.8544 44.7997 31.9902 44.9356 32.1537 45.0301C32.3172 45.1247 32.5028 45.1744 32.6917 45.1744C32.8805 45.1744 33.0661 45.1247 33.2296 45.0301C33.3931 44.9356 33.5289 44.7997 33.6232 44.636L38.8402 35.6C38.9346 35.4366 38.9844 35.2511 38.9845 35.0624C38.9845 34.8736 38.9349 34.6881 38.8405 34.5246C38.7461 34.3611 38.6104 34.2254 38.4469 34.131C38.2834 34.0366 38.0979 33.987 37.9092 33.987H35.8092V20.323C35.8093 20.1818 35.7816 20.0419 35.7276 19.9113C35.6737 19.7808 35.5945 19.6622 35.4946 19.5622C35.3948 19.4623 35.2763 19.383 35.1458 19.3289C35.0153 19.2748 34.8754 19.247 34.7342 19.247H30.6482C30.3628 19.247 30.0891 19.3604 29.8873 19.5622C29.6855 19.764 29.5722 20.0376 29.5722 20.323V33.985H27.4722C27.2833 33.9853 27.0979 34.0353 26.9346 34.13C26.7712 34.2247 26.6357 34.3607 26.5416 34.5244C26.4475 34.6881 26.3982 34.8737 26.3987 35.0626C26.3991 35.2514 26.4493 35.4367 26.5442 35.6L31.7602 44.636ZM30.6482 36.136C30.9335 36.136 31.2072 36.0226 31.409 35.8209C31.6108 35.6191 31.7242 35.3454 31.7242 35.06V21.4H33.6602V35.06C33.6602 35.3454 33.7735 35.6191 33.9753 35.8209C34.1771 36.0226 34.4508 36.136 34.7362 36.136H36.0462L32.6922 41.945L29.3382 36.136H30.6482ZM84.6852 44.636C84.7794 44.7997 84.9152 44.9356 85.0787 45.0301C85.2422 45.1247 85.4278 45.1744 85.6167 45.1744C85.8055 45.1744 85.9911 45.1247 86.1546 45.0301C86.3181 44.9356 86.4539 44.7997 86.5482 44.636L91.7652 35.6C91.8597 35.4365 91.9095 35.251 91.9095 35.0621C91.9095 34.8733 91.8598 34.6877 91.7653 34.5242C91.6708 34.3607 91.5349 34.2249 91.3712 34.1306C91.2076 34.0363 91.022 33.9868 90.8332 33.987H88.7332V20.323C88.7332 20.0376 88.6198 19.764 88.418 19.5622C88.2162 19.3604 87.9425 19.247 87.6572 19.247H83.5722C83.2876 19.2481 83.015 19.3619 82.8143 19.5636C82.6135 19.7653 82.5009 20.0384 82.5012 20.323V33.985H80.4012C80.2119 33.9844 80.0259 34.0338 79.8618 34.1281C79.6978 34.2224 79.5615 34.3584 79.4669 34.5223C79.3722 34.6861 79.3225 34.8721 79.3227 35.0613C79.3229 35.2505 79.3731 35.4364 79.4682 35.6L84.6852 44.636ZM83.5722 36.136C83.8575 36.136 84.1312 36.0226 84.333 35.8209C84.5348 35.6191 84.6482 35.3454 84.6482 35.06V21.4H86.5842V35.06C86.5842 35.3454 86.6975 35.6191 86.8993 35.8209C87.1011 36.0226 87.3748 36.136 87.6602 36.136H88.9702L85.6162 41.945L82.2622 36.136H83.5722Z" fill="#00E2C5"/>
</svg>
