<svg width="225" height="50" viewBox="0 0 225 50" fill="none" xmlns="http://www.w3.org/2000/svg">
<path fill-rule="evenodd" clip-rule="evenodd" d="M93.8428 45.418V16.8568C93.8428 13.305 96.722 10.4258 100.274 10.4258V30.2862L108.076 22.4081C109.317 21.1554 111.007 20.4506 112.77 20.4506H118.526L106.941 31.3266L118.526 45.418H113.892C111.889 45.418 109.995 44.5094 108.741 42.9475L102.638 35.3459L100.274 37.5684V45.418H93.8428ZM16.7415 43.4571C19.2634 44.9072 22.1322 45.6323 25.3477 45.6323C26.9239 45.6323 28.4844 45.4431 30.0291 45.0648C31.6053 44.655 33.0397 44.1033 34.3322 43.4098C35.6247 42.7162 36.6492 41.9439 37.4058 41.0927L34.0957 35.7493C33.1185 36.7581 31.9521 37.5777 30.5965 38.2082C29.241 38.8387 27.7908 39.154 26.2461 39.154C24.1655 39.154 22.3213 38.7284 20.7136 37.8772C19.1373 36.9945 17.9079 35.7651 17.0252 34.1889C16.174 32.5811 15.7484 30.7054 15.7484 28.5617C15.7484 26.4811 16.1898 24.6527 17.0725 23.0765C17.9552 21.4687 19.1373 20.2235 20.619 19.3408C22.1322 18.4581 23.8187 18.0168 25.6787 18.0168C27.1919 18.0168 28.5947 18.3478 29.8872 19.0098C31.1797 19.6718 32.3934 20.6018 33.5283 21.7997L37.8314 17.0237C36.5074 15.3529 34.742 14.0289 32.5353 13.0516C30.3601 12.0429 28.0903 11.5385 25.726 11.5385C23.3301 11.5385 21.0919 11.9641 19.0112 12.8152C16.9621 13.6664 15.1652 14.8643 13.6205 16.409C12.1074 17.9537 10.9094 19.7664 10.0267 21.847C9.17558 23.8961 8.75 26.1186 8.75 28.5144C8.75 31.8876 9.4593 34.8666 10.8779 37.4516C12.2965 40.0051 14.251 42.0069 16.7415 43.4571ZM40.6445 29.4267V45.3707H47.1228V35.1011C47.1228 33.4934 47.643 32.1694 48.6833 31.129C49.7551 30.0572 51.0634 29.5213 52.6081 29.5213C53.144 29.5213 53.6799 29.5843 54.2159 29.7104C54.7518 29.8365 55.1931 29.9942 55.5399 30.1833L57.2895 23.0903C56.9427 22.9642 56.5171 22.8696 56.0128 22.8066C55.5399 22.712 55.0197 22.6647 54.4523 22.6647C52.9706 22.6647 51.552 23.106 50.1965 23.9887C48.8724 24.8399 47.8006 25.9433 46.981 27.2988L46.8864 23.1849C43.4391 23.1849 40.6445 25.9794 40.6445 29.4267ZM59.917 45.4069V29.6993C59.917 26.1215 62.8174 23.221 66.3953 23.221V45.4069H59.917ZM75.4876 43.9415C77.1887 44.9629 79.1025 45.4736 81.2289 45.4736C83.1285 45.4736 84.9288 45.1048 86.63 44.3671C88.3311 43.601 89.6636 42.5938 90.6276 41.3453L87.438 37.515C86.6725 38.4229 85.8219 39.1322 84.8863 39.6429C83.9507 40.1253 82.93 40.3665 81.8243 40.3665C80.6618 40.3665 79.6128 40.0827 78.6772 39.5153C77.7416 38.9194 77.0044 38.125 76.4657 37.1319C75.927 36.1389 75.6577 35.0181 75.6577 33.7697C75.6577 32.5213 75.9128 31.4006 76.4232 30.4075C76.9619 29.4144 77.6849 28.6342 78.5921 28.0667C79.5277 27.4709 80.591 27.173 81.7817 27.173C82.8591 27.173 83.9223 27.4709 84.9714 28.0667C86.0204 28.6342 86.8426 29.3293 87.438 30.1521L90.6276 26.3218C89.692 24.9882 88.3878 23.9526 86.715 23.2149C85.0706 22.4772 83.2419 22.1084 81.2289 22.1084C79.1025 22.1084 77.1887 22.6191 75.4876 23.6405C73.8148 24.6619 72.4822 26.0522 71.4899 27.8114C70.5259 29.5705 70.0439 31.5566 70.0439 33.7697C70.0439 36.0112 70.5259 38.0115 71.4899 39.7706C72.4822 41.5298 73.8148 42.92 75.4876 43.9415ZM122.489 44.9842C124.161 45.6813 126.067 46.0299 128.208 46.0299C129.938 46.0299 131.492 45.7249 132.87 45.1149C134.249 44.4758 135.334 43.6044 136.125 42.5005C136.947 41.3967 137.357 40.1476 137.357 38.7532C137.357 37.0684 136.859 35.7177 135.862 34.701C134.718 33.51 132.753 32.5514 129.967 31.8251C127.885 31.2732 126.551 30.7939 125.964 30.3872C125.348 29.9806 125.026 29.4286 124.997 28.7315C124.997 27.279 126.052 26.5528 128.164 26.5528C129.073 26.5528 130.055 26.8143 131.111 27.3371C132.196 27.831 133.149 28.4555 133.97 29.2108L137.225 25.6814C136.14 24.5775 134.791 23.706 133.178 23.067C131.565 22.4279 129.85 22.1084 128.032 22.1084C126.448 22.1084 124.982 22.3989 123.633 22.9798C122.284 23.5608 121.199 24.3742 120.378 25.4199C119.557 26.4366 119.146 27.6276 119.146 28.9929C119.146 30.7068 119.689 32.1447 120.774 33.3066C122.005 34.6138 124.102 35.645 127.064 36.4003C129.058 36.9232 130.319 37.3589 130.847 37.7075C131.375 38.0851 131.639 38.5935 131.639 39.2325C131.639 39.9588 131.36 40.5252 130.803 40.9319C130.246 41.3386 129.513 41.5419 128.604 41.5419C127.46 41.5419 126.331 41.3386 125.216 40.9319C124.102 40.4962 123.105 39.799 122.225 38.8404L118.442 42.0212C119.469 43.2994 120.818 44.287 122.489 44.9842Z" fill="#121622"/>
<path fill-rule="evenodd" clip-rule="evenodd" d="M200.454 44.4444C201.905 45.0749 203.418 45.3901 204.994 45.3901C207.169 45.3901 209.092 44.8384 210.763 43.7351C212.465 42.6002 213.805 41.0555 214.782 39.101C215.76 37.1464 216.248 34.9082 216.248 32.3862C216.248 29.8643 215.744 27.626 214.735 25.6715C213.758 23.717 212.402 22.1881 210.668 21.0847C208.966 19.9813 207.027 19.4297 204.852 19.4297C203.339 19.4297 201.889 19.7607 200.502 20.4227C199.146 21.0847 198.059 21.9043 197.239 22.8816V9.86938C193.661 9.86938 190.761 12.7698 190.761 16.3477V44.8227H196.908L197.05 41.9855C197.901 42.9627 199.036 43.7824 200.454 44.4444ZM208.162 37.7769C206.964 39.164 205.42 39.8576 203.528 39.8576C201.574 39.8576 199.997 39.164 198.799 37.7769C197.602 36.3899 197.003 34.593 197.003 32.3862C197.003 30.211 197.602 28.4457 198.799 27.0901C199.997 25.703 201.574 25.0095 203.528 25.0095C205.451 25.0095 206.996 25.703 208.162 27.0901C209.36 28.4457 209.959 30.211 209.959 32.3862C209.959 34.593 209.36 36.3899 208.162 37.7769ZM142.865 45.4736V17.0319C142.865 13.3834 145.823 10.4257 149.471 10.4257H149.675V39.279H156.895C160.317 39.279 163.09 42.0524 163.09 45.4736H142.865ZM173.079 45.4736C171.182 45.4736 169.472 44.9628 167.949 43.9414C166.426 42.92 165.204 41.5297 164.285 39.7706C163.394 38.0114 162.948 36.0111 162.948 33.7697C162.948 31.4714 163.394 29.4569 164.285 27.7262C165.204 25.967 166.44 24.591 167.992 23.5979C169.573 22.6048 171.355 22.1083 173.338 22.1083C174.947 22.1083 176.355 22.4346 177.562 23.0872C178.769 23.7114 179.732 24.5342 180.451 25.5556C180.451 23.9103 181.784 22.5765 183.43 22.5765H186.313V45.048H180.407V42.0262C179.603 43.0193 178.554 43.8421 177.26 44.4947C175.996 45.1473 174.602 45.4736 173.079 45.4736ZM174.674 40.409C176.427 40.409 177.85 39.7989 178.942 38.5789C180.034 37.3589 180.58 35.7558 180.58 33.7697C180.58 31.7835 180.034 30.1805 178.942 28.9604C177.85 27.7404 176.427 27.1303 174.674 27.1303C172.95 27.1303 171.541 27.7404 170.449 28.9604C169.386 30.1805 168.854 31.7835 168.854 33.7697C168.854 35.7558 169.386 37.3589 170.449 38.5789C171.541 39.7989 172.95 40.409 174.674 40.409Z" fill="#030510"/>
<path d="M68.8524 5.8054C72.3259 8.83424 72.6864 14.1054 69.6575 17.579C66.6286 21.0524 61.3575 21.4129 57.8839 18.3841C54.4105 15.3552 54.05 10.084 57.0788 6.61059C60.1077 3.13701 65.3789 2.77651 68.8524 5.8054Z" fill="#030510"/>
<path d="M68.3682 6.21481C70.0241 7.65869 68.7275 10.8299 65.8151 14.1698C62.9028 17.5097 59.8776 19.2948 58.2218 17.8509C54.8819 14.9385 54.3351 10.0994 57.2474 6.75962C60.1598 3.41954 65.0282 3.30248 68.3682 6.21481Z" fill="#030510"/>
<path opacity="0.5" d="M69.6506 6.59985C69.1989 9.08113 67.9211 11.7367 65.8766 14.0813C63.7281 16.5452 61.1241 18.217 58.6133 18.952" stroke="#030510" stroke-width="0.0611965" stroke-miterlimit="10"/>
<path opacity="0.2" d="M66.4181 14.5705C68.3278 12.3805 69.6517 9.86888 70.2317 7.37154C70.0485 7.10496 69.8479 6.84743 69.6307 6.59985C69.1789 9.08113 67.9015 11.7366 65.857 14.0813C63.7085 16.5452 61.1046 18.2163 58.5938 18.9513C58.8655 19.1403 59.1452 19.3115 59.4318 19.4642C61.9436 18.5869 64.41 16.8734 66.4181 14.5705Z" fill="#030510"/>
<path d="M58.5914 18.9513C61.1023 18.2163 63.7061 16.5452 65.8547 14.0813C67.8992 11.7366 69.1766 9.08112 69.6283 6.59985C69.4264 6.36959 69.2101 6.14809 68.9791 5.93701C68.634 8.54457 67.3295 11.2572 65.2935 13.592C63.1581 16.0409 60.4818 17.7546 57.8555 18.3768C57.8582 18.3793 57.8608 18.3816 57.8635 18.3841C58.0982 18.5888 58.3415 18.7774 58.5914 18.9513Z" fill="#404040"/>
<path opacity="0.5" d="M59.4277 19.4642C61.9395 18.5869 64.406 16.8735 66.414 14.5706C68.3237 12.3805 69.6477 9.86892 70.2276 7.37158" stroke="#030510" stroke-width="0.0611965" stroke-miterlimit="10" stroke-linecap="round" stroke-linejoin="round"/>
<path opacity="0.5" d="M68.9791 5.93701C68.634 8.54457 67.3295 11.2572 65.2935 13.592C63.1581 16.0409 60.4818 17.7546 57.8555 18.3769" stroke="#030510" stroke-width="0.0611965" stroke-miterlimit="10" stroke-linecap="round" stroke-linejoin="round"/>
<path d="M59.4316 19.464C59.4667 19.4518 59.5018 19.4393 59.5369 19.4268" stroke="white" stroke-width="0.0611965" stroke-linecap="round" stroke-linejoin="round"/>
<path d="M59.8164 19.3221C62.1934 18.4088 64.5106 16.7548 66.4153 14.5704C68.2601 12.4549 69.5582 10.0392 70.1672 7.62622" stroke="white" stroke-width="0.0611965" stroke-linecap="round" stroke-linejoin="round" stroke-dasharray="0.19 0.25"/>
<path d="M70.207 7.47995C70.2158 7.44373 70.2244 7.40756 70.2328 7.37134" stroke="white" stroke-width="0.0611965" stroke-linecap="round" stroke-linejoin="round"/>
<path d="M68.9801 5.93701C68.9752 5.97383 68.9701 6.01065 68.9648 6.04755" stroke="white" stroke-width="0.0611965" stroke-linecap="round" stroke-linejoin="round"/>
<path d="M68.9203 6.3396C68.5001 8.8223 67.2269 11.3772 65.2955 13.592C63.2283 15.9627 60.6543 17.6444 58.1094 18.3139" stroke="white" stroke-width="0.0611965" stroke-linecap="round" stroke-linejoin="round" stroke-dasharray="0.18 0.24"/>
<path d="M57.9639 18.3506C57.9278 18.3595 57.8916 18.3684 57.8555 18.3769C57.8582 18.3793 57.8608 18.3817 57.8635 18.3841" stroke="white" stroke-width="0.0611965" stroke-linecap="round" stroke-linejoin="round"/>
<path d="M70.8214 8.85889C70.8023 8.85311 70.7802 8.74123 70.8158 8.6233C70.8376 8.56399 70.8567 8.56234 70.876 8.56812C70.8949 8.57386 70.8749 8.6783 70.8708 8.69459C70.8462 8.79012 70.8376 8.8638 70.8214 8.85889Z" fill="white" stroke="white" stroke-width="0.0153529" stroke-miterlimit="10"/>
<path d="M70.6736 9.30188C70.6547 9.29545 70.6362 9.18289 70.6756 9.06629C70.7147 8.94928 70.7223 8.85779 70.7413 8.86408C70.7601 8.87036 70.7831 8.9715 70.7439 9.0892C70.7043 9.20658 70.6923 9.30835 70.6736 9.30188Z" fill="white" stroke="white" stroke-width="0.0153529" stroke-miterlimit="10"/>
<path d="M70.489 9.79312C70.4704 9.78614 70.4556 9.67303 70.4988 9.55771C70.5416 9.44203 70.5523 9.35086 70.5711 9.35779C70.5897 9.36463 70.6094 9.4665 70.5663 9.58287C70.5228 9.69883 70.5076 9.80014 70.489 9.79312Z" fill="white" stroke="white" stroke-width="0.0153529" stroke-miterlimit="10"/>
<path d="M70.2913 10.2779C70.2729 10.2703 70.2617 10.1568 70.3085 10.043C70.3551 9.92872 70.3687 9.83792 70.3873 9.8454C70.4056 9.85288 70.422 9.95535 70.3752 10.0702C70.3281 10.1848 70.3096 10.2856 70.2913 10.2779Z" fill="white" stroke="white" stroke-width="0.0153529" stroke-miterlimit="10"/>
<path d="M70.0802 10.7564C70.0621 10.7483 70.0544 10.6345 70.1048 10.5221C70.1548 10.4094 70.1713 10.3191 70.1897 10.3272C70.2078 10.3352 70.2209 10.4381 70.1705 10.5515C70.1198 10.6645 70.0983 10.7646 70.0802 10.7564Z" fill="white" stroke="white" stroke-width="0.0153529" stroke-miterlimit="10"/>
<path d="M69.8558 11.2279C69.8379 11.2192 69.8338 11.1052 69.8872 10.9942C69.9412 10.8833 69.9601 10.7934 69.9783 10.8021C69.9961 10.8106 70.0063 10.914 69.952 11.0255C69.8984 11.1372 69.8736 11.2366 69.8558 11.2279Z" fill="white" stroke="white" stroke-width="0.0153529" stroke-miterlimit="10"/>
<path d="M69.6102 11.6924C69.5926 11.6831 69.5918 11.5691 69.6485 11.4597C69.7057 11.3505 69.7274 11.2612 69.7452 11.2704C69.7628 11.2795 69.7699 11.3831 69.7123 11.493C69.6554 11.6029 69.6278 11.7016 69.6102 11.6924Z" fill="white" stroke="white" stroke-width="0.0153529" stroke-miterlimit="10"/>
<path d="M69.3609 12.1501C69.3436 12.1402 69.3461 12.0263 69.4059 11.9186C69.4662 11.811 69.4905 11.7225 69.5082 11.7322C69.5254 11.7417 69.5295 11.8455 69.4688 11.9537C69.4086 12.062 69.3781 12.1597 69.3609 12.1501Z" fill="white" stroke="white" stroke-width="0.0153529" stroke-miterlimit="10"/>
<path d="M69.0961 12.6001C69.0791 12.5898 69.0849 12.476 69.1478 12.37C69.2112 12.2641 69.2379 12.1763 69.2553 12.1866C69.2723 12.1966 69.2734 12.3005 69.2096 12.4069C69.1464 12.5134 69.1132 12.6103 69.0961 12.6001Z" fill="white" stroke="white" stroke-width="0.0153529" stroke-miterlimit="10"/>
<path d="M68.8121 13.0423C68.7953 13.0316 68.8042 12.918 68.87 12.8138C68.9364 12.7098 68.9656 12.6227 68.9827 12.6335C68.9994 12.644 68.9975 12.7478 68.9309 12.8524C68.8646 12.9571 68.8287 13.053 68.8121 13.0423Z" fill="white" stroke="white" stroke-width="0.0153529" stroke-miterlimit="10"/>
<path d="M68.5222 13.477C68.5057 13.4658 68.5178 13.3524 68.5864 13.2502C68.6556 13.148 68.6873 13.0618 68.704 13.073C68.7204 13.084 68.7157 13.1877 68.6461 13.2904C68.5771 13.3932 68.5386 13.4881 68.5222 13.477Z" fill="white" stroke="white" stroke-width="0.0153529" stroke-miterlimit="10"/>
<path d="M68.2129 13.9036C68.1968 13.892 68.2119 13.779 68.2832 13.6786C68.3552 13.5784 68.3892 13.4931 68.4056 13.5047C68.4217 13.5162 68.4142 13.6198 68.3419 13.7205C68.2701 13.8214 68.229 13.9152 68.2129 13.9036Z" fill="white" stroke="white" stroke-width="0.0153529" stroke-miterlimit="10"/>
<path d="M67.8998 14.3218C67.884 14.3097 67.9021 14.1972 67.9762 14.0987C68.0507 14.0004 68.087 13.9161 68.1031 13.9282C68.119 13.94 68.1086 14.0433 68.0336 14.1421C67.9591 14.2411 67.9156 14.3339 67.8998 14.3218Z" fill="white" stroke="white" stroke-width="0.0153529" stroke-miterlimit="10"/>
<path d="M67.5731 14.7317C67.5576 14.7192 67.5786 14.6072 67.6553 14.5107C67.7325 14.4144 67.7709 14.331 67.7867 14.3435C67.8022 14.3558 67.7892 14.4588 67.7116 14.5556C67.6345 14.6526 67.5885 14.7441 67.5731 14.7317Z" fill="white" stroke="white" stroke-width="0.0153529" stroke-miterlimit="10"/>
<path d="M67.2445 15.1328C67.2294 15.1199 67.2533 15.0085 67.3325 14.914C67.412 14.8198 67.4527 14.7374 67.4682 14.7504C67.4833 14.763 67.4676 14.8657 67.3876 14.9604C67.3079 15.0553 67.2596 15.1456 67.2445 15.1328Z" fill="white" stroke="white" stroke-width="0.0153529" stroke-miterlimit="10"/>
<path d="M66.8945 15.5251C66.8796 15.5118 66.9066 15.401 66.9882 15.3087C67.0702 15.2166 67.1131 15.1353 67.1281 15.1487C67.143 15.1617 67.1246 15.264 67.0421 15.3566C66.9601 15.4493 66.9093 15.5383 66.8945 15.5251Z" fill="white" stroke="white" stroke-width="0.0153529" stroke-miterlimit="10"/>
<path d="M66.5406 15.9075C66.5261 15.8939 66.556 15.784 66.6401 15.6939C66.7247 15.604 66.7697 15.524 66.7844 15.5377C66.7989 15.5512 66.7777 15.6528 66.6927 15.7431C66.6081 15.8336 66.5549 15.9212 66.5406 15.9075Z" fill="white" stroke="white" stroke-width="0.0153529" stroke-miterlimit="10"/>
<path d="M66.175 16.2805C66.1609 16.2665 66.1938 16.1574 66.2803 16.0696C66.3673 15.9821 66.4144 15.9033 66.4287 15.9174C66.4429 15.9312 66.4189 16.0324 66.3315 16.1203C66.2445 16.2085 66.189 16.2946 66.175 16.2805Z" fill="white" stroke="white" stroke-width="0.0153529" stroke-miterlimit="10"/>
<path d="M65.788 16.6433C65.7743 16.6289 65.8101 16.5207 65.8989 16.4353C65.9882 16.3502 66.0375 16.2727 66.0514 16.2871C66.0652 16.3013 66.0385 16.4017 65.9487 16.4873C65.8594 16.5731 65.8016 16.6577 65.788 16.6433Z" fill="white" stroke="white" stroke-width="0.0153529" stroke-miterlimit="10"/>
<path d="M65.4069 16.9959C65.3935 16.981 65.4323 16.8739 65.5233 16.7909C65.6149 16.7082 65.6662 16.6321 65.6797 16.6469C65.6931 16.6615 65.6638 16.7611 65.5717 16.8443C65.4801 16.9276 65.4201 17.0106 65.4069 16.9959Z" fill="white" stroke="white" stroke-width="0.0153529" stroke-miterlimit="10"/>
<path d="M65.0062 17.3376C64.9933 17.3225 65.035 17.2163 65.1282 17.1359C65.222 17.0557 65.2753 16.9809 65.2885 16.9961C65.3014 17.0111 65.2694 17.1099 65.1751 17.1904C65.0813 17.2713 65.0191 17.3527 65.0062 17.3376Z" fill="white" stroke="white" stroke-width="0.0153529" stroke-miterlimit="10"/>
<path d="M64.6017 17.6687C64.5892 17.6532 64.6336 17.5482 64.7292 17.4704C64.8251 17.3928 64.8805 17.3196 64.8932 17.3351C64.9057 17.3504 64.871 17.4484 64.7746 17.5263C64.6786 17.6046 64.6141 17.6841 64.6017 17.6687Z" fill="white" stroke="white" stroke-width="0.0153529" stroke-miterlimit="10"/>
<path d="M64.1854 17.9883C64.1734 17.9724 64.2208 17.8688 64.3184 17.7936C64.4164 17.7187 64.4739 17.647 64.4861 17.6629C64.4982 17.6785 64.4608 17.7754 64.3623 17.8508C64.2641 17.9263 64.1974 18.0041 64.1854 17.9883Z" fill="white" stroke="white" stroke-width="0.0153529" stroke-miterlimit="10"/>
<path d="M63.7653 18.2959C63.7537 18.2798 63.804 18.1775 63.9037 18.1051C64.0038 18.0331 64.0632 17.9629 64.075 17.9792C64.0866 17.9952 64.0465 18.091 63.9459 18.1635C63.8456 18.2363 63.7768 18.3121 63.7653 18.2959Z" fill="white" stroke="white" stroke-width="0.0153529" stroke-miterlimit="10"/>
<path d="M63.3354 18.5918C63.3243 18.5753 63.3776 18.4745 63.4792 18.405C63.5814 18.3358 63.6428 18.2674 63.6541 18.284C63.6653 18.3003 63.6225 18.3949 63.5197 18.4645C63.4175 18.5344 63.3465 18.6082 63.3354 18.5918Z" fill="white" stroke="white" stroke-width="0.0153529" stroke-miterlimit="10"/>
<path d="M62.8939 18.8745C62.8832 18.8576 62.9394 18.7585 63.0431 18.6919C63.1472 18.6258 63.2105 18.5592 63.2214 18.5762C63.2321 18.5928 63.1866 18.6862 63.0819 18.7527C62.9776 18.8196 62.9044 18.8912 62.8939 18.8745Z" fill="white" stroke="white" stroke-width="0.0153529" stroke-miterlimit="10"/>
<path d="M62.4484 19.1439C62.4382 19.1267 62.4975 19.0294 62.6031 18.966C62.7092 18.903 62.7744 18.8384 62.7848 18.8556C62.795 18.8726 62.7467 18.9644 62.64 19.0279C62.5338 19.0915 62.4585 19.1609 62.4484 19.1439Z" fill="white" stroke="white" stroke-width="0.0153529" stroke-miterlimit="10"/>
<path d="M61.9834 19.3993C61.9738 19.3819 62.036 19.2862 62.1437 19.2266C62.2514 19.1665 62.3188 19.1041 62.3286 19.1217C62.3383 19.139 62.2871 19.2291 62.1787 19.2896C62.0703 19.3496 61.9929 19.4167 61.9834 19.3993Z" fill="white" stroke="white" stroke-width="0.0153529" stroke-miterlimit="10"/>
<path d="M61.5243 19.64C61.5153 19.6221 61.5805 19.5287 61.6901 19.4726C61.7996 19.4159 61.8689 19.3557 61.8782 19.3735C61.8873 19.3912 61.8333 19.4796 61.7231 19.5366C61.6127 19.5931 61.5332 19.6576 61.5243 19.64Z" fill="white" stroke="white" stroke-width="0.0153529" stroke-miterlimit="10"/>
<path d="M61.0456 19.865C61.0372 19.847 61.1056 19.7557 61.217 19.7033C61.3284 19.6504 61.3997 19.5925 61.4083 19.6106C61.4168 19.6285 61.3599 19.7151 61.2478 19.7684C61.1357 19.8212 61.054 19.883 61.0456 19.865Z" fill="white" stroke="white" stroke-width="0.0153529" stroke-miterlimit="10"/>
<path d="M60.7907 19.8974C60.9039 19.8482 60.9771 19.7929 60.9851 19.8112C60.993 19.8294 60.933 19.914 60.8194 19.9635C60.7059 20.0128 60.6776 19.9466 60.7907 19.8974Z" fill="white" stroke="white" stroke-width="0.0153529" stroke-miterlimit="10"/>
<path d="M70.5724 8.39007C70.5531 8.38479 70.5281 8.27351 70.5607 8.15471C70.5706 8.12106 70.5963 8.09273 70.6156 8.09806C70.6348 8.10329 70.6452 8.10054 70.6302 8.17376C70.5974 8.29316 70.5914 8.39535 70.5724 8.39007Z" fill="white" stroke="white" stroke-width="0.0153529" stroke-miterlimit="10"/>
<path d="M70.4377 8.83387C70.4187 8.8279 70.3975 8.71585 70.434 8.59833C70.4701 8.48039 70.4755 8.38872 70.4946 8.39455C70.5136 8.40033 70.5392 8.50082 70.5028 8.61949C70.4661 8.73788 70.4566 8.83984 70.4377 8.83387Z" fill="white" stroke="white" stroke-width="0.0153529" stroke-miterlimit="10"/>
<path d="M70.2664 9.32547C70.2477 9.31881 70.2302 9.20611 70.2707 9.08983C70.3108 8.97323 70.3193 8.88183 70.3383 8.88826C70.357 8.89469 70.3792 8.99605 70.3388 9.11338C70.2979 9.23044 70.2851 9.33203 70.2664 9.32547Z" fill="white" stroke="white" stroke-width="0.0153529" stroke-miterlimit="10"/>
<path d="M70.082 9.81115C70.0635 9.80399 70.0497 9.69074 70.094 9.57584C70.138 9.46061 70.1495 9.36954 70.1682 9.37661C70.1867 9.38363 70.2055 9.48568 70.1613 9.60159C70.1167 9.71723 70.1005 9.81841 70.082 9.81115Z" fill="white" stroke="white" stroke-width="0.0153529" stroke-miterlimit="10"/>
<path d="M69.8823 10.2904C69.8641 10.2825 69.854 10.1689 69.902 10.0556C69.9496 9.94176 69.9641 9.85114 69.9826 9.85886C70.0008 9.86643 70.0163 9.96903 69.9684 10.0835C69.9201 10.1976 69.9006 10.2982 69.8823 10.2904Z" fill="white" stroke="white" stroke-width="0.0153529" stroke-miterlimit="10"/>
<path d="M69.6616 10.7629C69.6436 10.7546 69.6371 10.6407 69.6886 10.5288C69.7398 10.4167 69.7571 10.3265 69.7754 10.3348C69.7935 10.3429 69.8056 10.4459 69.754 10.5589C69.7022 10.6713 69.6796 10.7713 69.6616 10.7629Z" fill="white" stroke="white" stroke-width="0.0153529" stroke-miterlimit="10"/>
<path d="M69.4373 11.2283C69.4195 11.2194 69.4166 11.1054 69.4711 10.995C69.5262 10.8847 69.5461 10.795 69.5642 10.8038C69.5818 10.8125 69.591 10.916 69.5356 11.027C69.4808 11.1381 69.4549 11.2372 69.4373 11.2283Z" fill="white" stroke="white" stroke-width="0.0153529" stroke-miterlimit="10"/>
<path d="M69.1898 11.6866C69.1723 11.6771 69.1727 11.5632 69.2306 11.4544C69.289 11.3458 69.3116 11.2567 69.3293 11.2661C69.3468 11.2753 69.3528 11.379 69.2941 11.4883C69.2359 11.5977 69.2073 11.696 69.1898 11.6866Z" fill="white" stroke="white" stroke-width="0.0153529" stroke-miterlimit="10"/>
<path d="M68.9386 12.1376C68.9214 12.1276 68.9251 12.0137 68.9861 11.9068C69.0477 11.7998 69.073 11.7115 69.0905 11.7215C69.1076 11.7312 69.1106 11.8351 69.0487 11.9425C68.9873 12.0501 68.9558 12.1476 68.9386 12.1376Z" fill="white" stroke="white" stroke-width="0.0153529" stroke-miterlimit="10"/>
<path d="M68.6563 12.5815C68.6394 12.571 68.6464 12.4573 68.7105 12.3521C68.7751 12.2469 68.8029 12.1594 68.8201 12.1698C68.837 12.1802 68.8369 12.2839 68.7719 12.3897C68.7076 12.4954 68.6731 12.5919 68.6563 12.5815Z" fill="white" stroke="white" stroke-width="0.0153529" stroke-miterlimit="10"/>
<path d="M68.3801 13.0169C68.3634 13.006 68.3736 12.8925 68.4406 12.7891C68.5082 12.6859 68.5385 12.5991 68.5553 12.6101C68.5719 12.6208 68.5689 12.7246 68.501 12.8285C68.4336 12.9324 68.3965 13.0278 68.3801 13.0169Z" fill="white" stroke="white" stroke-width="0.0153529" stroke-miterlimit="10"/>
<path d="M68.0902 13.4449C68.0739 13.4334 68.0873 13.3202 68.1571 13.2188C68.2276 13.1175 68.2602 13.0316 68.2768 13.043C68.2931 13.0542 68.2872 13.1579 68.2164 13.2598C68.1462 13.3618 68.1065 13.4562 68.0902 13.4449Z" fill="white" stroke="white" stroke-width="0.0153529" stroke-miterlimit="10"/>
<path d="M67.7791 13.8647C67.763 13.8529 67.7795 13.7401 67.8521 13.6406C67.9252 13.5412 67.9603 13.4563 67.9765 13.4682C67.9925 13.4797 67.9837 13.5832 67.9102 13.6831C67.8372 13.7832 67.795 13.8765 67.7791 13.8647Z" fill="white" stroke="white" stroke-width="0.0153529" stroke-miterlimit="10"/>
<path d="M67.464 14.2759C67.4483 14.2636 67.4677 14.1514 67.543 14.0538C67.6188 13.9564 67.656 13.8725 67.6721 13.8847C67.6877 13.8968 67.6762 14.0001 67.6 14.0979C67.5243 14.1959 67.4796 14.2881 67.464 14.2759Z" fill="white" stroke="white" stroke-width="0.0153529" stroke-miterlimit="10"/>
<path d="M67.1374 14.6783C67.122 14.6656 67.1443 14.5539 67.2222 14.4584C67.3005 14.363 67.34 14.2801 67.3556 14.2928C67.3709 14.3052 67.3567 14.4081 67.278 14.504C67.1997 14.5999 67.1526 14.6909 67.1374 14.6783Z" fill="white" stroke="white" stroke-width="0.0153529" stroke-miterlimit="10"/>
<path d="M66.7991 15.0726C66.784 15.0595 66.8093 14.9485 66.8898 14.8552C66.9703 14.7616 67.012 14.68 67.0272 14.693C67.0422 14.7059 67.0252 14.8083 66.9443 14.9023C66.8634 14.9959 66.8139 15.0857 66.7991 15.0726Z" fill="white" stroke="white" stroke-width="0.0153529" stroke-miterlimit="10"/>
<path d="M66.4471 15.4574C66.4324 15.444 66.4607 15.3336 66.5435 15.2423C66.6267 15.1512 66.6705 15.0705 66.6855 15.084C66.7001 15.0973 66.6805 15.1992 66.5967 15.2908C66.5135 15.3826 66.4616 15.4708 66.4471 15.4574Z" fill="white" stroke="white" stroke-width="0.0153529" stroke-miterlimit="10"/>
<path d="M66.0854 15.833C66.071 15.8191 66.1023 15.7096 66.1876 15.6206C66.2732 15.5318 66.3192 15.4523 66.3337 15.4662C66.3481 15.4799 66.3256 15.5813 66.2395 15.6705C66.1538 15.7599 66.0995 15.8468 66.0854 15.833Z" fill="white" stroke="white" stroke-width="0.0153529" stroke-miterlimit="10"/>
<path d="M65.7178 16.1983C65.7039 16.184 65.7382 16.0753 65.8258 15.9887C65.9139 15.9022 65.962 15.824 65.9761 15.8384C65.9901 15.8524 65.9649 15.9531 65.8763 16.04C65.7883 16.127 65.7317 16.2124 65.7178 16.1983Z" fill="white" stroke="white" stroke-width="0.0153529" stroke-miterlimit="10"/>
<path d="M65.3406 16.5533C65.3271 16.5387 65.3643 16.431 65.4542 16.3468C65.5446 16.2628 65.5949 16.1859 65.6086 16.2005C65.6221 16.2149 65.5942 16.315 65.5034 16.3994C65.4129 16.4841 65.354 16.568 65.3406 16.5533Z" fill="white" stroke="white" stroke-width="0.0153529" stroke-miterlimit="10"/>
<path d="M64.9497 16.8983C64.9366 16.8833 64.9767 16.7767 65.0689 16.6949C65.1616 16.6134 65.2139 16.5379 65.2273 16.553C65.2404 16.5677 65.2097 16.6669 65.1166 16.7488C65.0239 16.831 64.9628 16.9131 64.9497 16.8983Z" fill="white" stroke="white" stroke-width="0.0153529" stroke-miterlimit="10"/>
<path d="M64.5568 17.232C64.5442 17.2167 64.5873 17.1112 64.6817 17.0321C64.7766 16.9532 64.831 16.8792 64.8439 16.8946C64.8567 16.9097 64.8233 17.0082 64.7278 17.0873C64.633 17.1669 64.5695 17.2473 64.5568 17.232Z" fill="white" stroke="white" stroke-width="0.0153529" stroke-miterlimit="10"/>
<path d="M64.1426 17.5543C64.1303 17.5386 64.1764 17.4344 64.273 17.3579C64.3701 17.2818 64.4265 17.2093 64.439 17.2251C64.4513 17.2405 64.4151 17.3379 64.3176 17.4144C64.2204 17.4913 64.1547 17.5699 64.1426 17.5543Z" fill="white" stroke="white" stroke-width="0.0153529" stroke-miterlimit="10"/>
<path d="M63.7263 17.8651C63.7145 17.8491 63.7636 17.7462 63.8623 17.6725C63.9616 17.5992 64.02 17.5284 64.032 17.5446C64.0439 17.5603 64.005 17.6566 63.9052 17.7304C63.806 17.8044 63.7381 17.8811 63.7263 17.8651Z" fill="white" stroke="white" stroke-width="0.0153529" stroke-miterlimit="10"/>
<path d="M63.3062 18.1637C63.2949 18.1473 63.3469 18.0459 63.4478 17.9752C63.549 17.9048 63.6096 17.8356 63.6212 17.8521C63.6325 17.8682 63.5909 17.9634 63.489 18.0342C63.3876 18.1054 63.3175 18.1801 63.3062 18.1637Z" fill="white" stroke="white" stroke-width="0.0153529" stroke-miterlimit="10"/>
<path d="M62.8666 18.4493C62.8557 18.4326 62.9108 18.3327 63.0137 18.265C63.1171 18.1976 63.1795 18.1303 63.1907 18.1472C63.2015 18.1636 63.1572 18.2575 63.0532 18.3253C62.9497 18.3934 62.8773 18.4659 62.8666 18.4493Z" fill="white" stroke="white" stroke-width="0.0153529" stroke-miterlimit="10"/>
<path d="M62.425 18.7216C62.4146 18.7045 62.4728 18.6065 62.5777 18.542C62.683 18.4778 62.7475 18.4124 62.7581 18.4295C62.7685 18.4463 62.7213 18.5389 62.6153 18.6035C62.5098 18.6683 62.4353 18.7386 62.425 18.7216Z" fill="white" stroke="white" stroke-width="0.0153529" stroke-miterlimit="10"/>
<path d="M61.9776 18.98C61.9678 18.9627 62.0289 18.8664 62.1359 18.8056C62.243 18.7442 62.3096 18.6811 62.3197 18.6985C62.3295 18.7156 62.2794 18.8065 62.1717 18.8681C62.064 18.9294 61.9873 18.9973 61.9776 18.98Z" fill="white" stroke="white" stroke-width="0.0153529" stroke-miterlimit="10"/>
<path d="M61.5126 19.2241C61.5034 19.2065 61.5676 19.1122 61.6766 19.0549C61.7855 18.997 61.8541 18.9361 61.8635 18.9538C61.8729 18.9713 61.8198 19.0604 61.7102 19.1186C61.6006 19.1763 61.5217 19.2417 61.5126 19.2241Z" fill="white" stroke="white" stroke-width="0.0153529" stroke-miterlimit="10"/>
<path d="M61.0535 19.4524C61.0448 19.4345 61.1122 19.3424 61.223 19.2888C61.3338 19.2346 61.4044 19.176 61.4133 19.194C61.422 19.2118 61.3661 19.299 61.2545 19.3536C61.143 19.4076 61.062 19.4703 61.0535 19.4524Z" fill="white" stroke="white" stroke-width="0.0153529" stroke-miterlimit="10"/>
<path d="M60.5748 19.6647C60.5668 19.6465 60.6374 19.5568 60.75 19.5071C60.8626 19.4568 60.9352 19.4005 60.9434 19.4188C60.9515 19.4369 60.8926 19.5223 60.7792 19.5729C60.6658 19.623 60.5828 19.6829 60.5748 19.6647Z" fill="white" stroke="white" stroke-width="0.0153529" stroke-miterlimit="10"/>
<path d="M60.3168 19.6898C60.4312 19.6432 60.5057 19.5897 60.5133 19.6083C60.5208 19.6266 60.4587 19.7098 60.3439 19.7565C60.1855 19.8207 60.159 19.7537 60.3168 19.6898Z" fill="white" stroke="white" stroke-width="0.0153529" stroke-miterlimit="10"/>
<path d="M59.4297 19.4643C59.4648 19.452 59.4999 19.4396 59.5349 19.427" stroke="white" stroke-width="0.0611965" stroke-linecap="round" stroke-linejoin="round"/>
<path d="M59.8164 19.3223C62.1934 18.4091 64.5106 16.755 66.4153 14.5707C68.2601 12.4551 69.5582 10.0395 70.1672 7.62646" stroke="white" stroke-width="0.0611965" stroke-linecap="round" stroke-linejoin="round" stroke-dasharray="0.19 0.25"/>
<path d="M70.207 7.4802C70.2158 7.44398 70.2244 7.4078 70.2328 7.37158" stroke="white" stroke-width="0.0611965" stroke-linecap="round" stroke-linejoin="round"/>
<path d="M57.7882 17.4761C57.7929 17.4952 57.7092 17.5726 57.5887 17.6019C57.4681 17.6311 57.3251 17.697 57.3204 17.6777C57.3157 17.6583 57.4519 17.5609 57.5718 17.5319C57.6914 17.5028 57.7834 17.4566 57.7882 17.4761Z" fill="white" stroke="white" stroke-width="0.0153529" stroke-miterlimit="10"/>
<path d="M58.2262 17.3469C58.2319 17.3659 58.1523 17.4474 58.0332 17.4827C57.9138 17.5172 57.8338 17.561 57.8284 17.5419C57.8229 17.5227 57.8948 17.4477 58.013 17.4135C58.1309 17.3787 58.2204 17.3278 58.2262 17.3469Z" fill="white" stroke="white" stroke-width="0.0153529" stroke-miterlimit="10"/>
<path d="M58.7104 17.1806C58.7171 17.1992 58.6415 17.2845 58.5243 17.3255C58.4068 17.3659 58.3291 17.4136 58.3227 17.3948C58.3163 17.3759 58.3842 17.2975 58.5008 17.2575C58.6168 17.2168 58.7037 17.1617 58.7104 17.1806Z" fill="white" stroke="white" stroke-width="0.0153529" stroke-miterlimit="10"/>
<path d="M59.1847 16.992C59.1922 17.0103 59.1206 17.0989 59.0054 17.1452C58.8899 17.191 58.8145 17.2424 58.8072 17.2239C58.7999 17.2052 58.8642 17.1237 58.9787 17.0783C59.0929 17.0324 59.1772 16.9735 59.1847 16.992Z" fill="white" stroke="white" stroke-width="0.0153529" stroke-miterlimit="10"/>
<path d="M59.655 16.783C59.6632 16.801 59.5954 16.8926 59.4824 16.9438C59.369 16.9945 59.2959 17.0491 59.2878 17.031C59.2797 17.0127 59.3403 16.9284 59.4528 16.8781C59.5649 16.8273 59.6466 16.7649 59.655 16.783Z" fill="white" stroke="white" stroke-width="0.0153529" stroke-miterlimit="10"/>
<path d="M60.1134 16.5547C60.1223 16.5723 60.0583 16.6667 59.9475 16.7224C59.8364 16.7777 59.7656 16.8354 59.7568 16.8175C59.7479 16.7996 59.805 16.7129 59.9153 16.6579C60.0252 16.6027 60.1043 16.5369 60.1134 16.5547Z" fill="white" stroke="white" stroke-width="0.0153529" stroke-miterlimit="10"/>
<path d="M60.5601 16.3084C60.5697 16.3256 60.5093 16.4222 60.4008 16.4824C60.2919 16.542 60.2235 16.6024 60.214 16.585C60.2044 16.5674 60.258 16.4785 60.3661 16.4193C60.4737 16.3597 60.5503 16.2909 60.5601 16.3084Z" fill="white" stroke="white" stroke-width="0.0153529" stroke-miterlimit="10"/>
<path d="M61.0047 16.0458C61.015 16.0626 60.9582 16.1615 60.8521 16.2255C60.7455 16.2892 60.6795 16.3522 60.6693 16.3351C60.6591 16.3179 60.7092 16.227 60.815 16.1638C60.9204 16.1001 60.9943 16.0287 61.0047 16.0458Z" fill="white" stroke="white" stroke-width="0.0153529" stroke-miterlimit="10"/>
<path d="M61.4358 15.767C61.4467 15.7835 61.3935 15.8843 61.2897 15.9521C61.1855 16.0196 61.1217 16.085 61.1109 16.0682C61.1001 16.0514 61.1469 15.9587 61.2504 15.8917C61.3535 15.8244 61.4248 15.7504 61.4358 15.767Z" fill="white" stroke="white" stroke-width="0.0153529" stroke-miterlimit="10"/>
<path d="M61.8551 15.4737C61.8665 15.4898 61.8168 15.5923 61.7154 15.6637C61.6136 15.7347 61.5522 15.8023 61.5408 15.7859C61.5295 15.7695 61.573 15.6753 61.6741 15.6048C61.7748 15.5338 61.8435 15.4573 61.8551 15.4737Z" fill="white" stroke="white" stroke-width="0.0153529" stroke-miterlimit="10"/>
<path d="M62.2626 15.1664C62.2745 15.1822 62.2283 15.2863 62.1294 15.361C62.0301 15.4354 61.971 15.5051 61.9591 15.4891C61.9471 15.4731 61.9874 15.3774 62.0861 15.3035C62.1843 15.2292 62.2504 15.1505 62.2626 15.1664Z" fill="white" stroke="white" stroke-width="0.0153529" stroke-miterlimit="10"/>
<path d="M62.6661 14.8452C62.6786 14.8606 62.6359 14.9663 62.5392 15.0438C62.4428 15.1219 62.3858 15.1932 62.3734 15.1777C62.3609 15.1621 62.3982 15.0653 62.494 14.9877C62.5901 14.9106 62.6535 14.8297 62.6661 14.8452Z" fill="white" stroke="white" stroke-width="0.0153529" stroke-miterlimit="10"/>
<path d="M63.0579 14.5118C63.0709 14.5267 63.0316 14.6337 62.9374 14.7144C62.8436 14.7955 62.789 14.8687 62.7761 14.8535C62.7631 14.8384 62.7972 14.7404 62.8905 14.6598C62.984 14.5796 63.0448 14.4967 63.0579 14.5118Z" fill="white" stroke="white" stroke-width="0.0153529" stroke-miterlimit="10"/>
<path d="M63.4379 14.1657C63.4513 14.1801 63.4154 14.2884 63.3239 14.372C63.2327 14.4562 63.1805 14.531 63.1671 14.5163C63.1536 14.5016 63.1846 14.4026 63.2752 14.319C63.3662 14.2359 63.4243 14.1511 63.4379 14.1657Z" fill="white" stroke="white" stroke-width="0.0153529" stroke-miterlimit="10"/>
<path d="M63.8061 13.8079C63.8199 13.8221 63.7875 13.9313 63.6986 14.0177C63.61 14.1047 63.5601 14.1811 63.5464 14.1669C63.5324 14.1525 63.5603 14.0527 63.6483 13.9662C63.7366 13.8803 63.7921 13.7937 63.8061 13.8079Z" fill="white" stroke="white" stroke-width="0.0153529" stroke-miterlimit="10"/>
<path d="M64.1604 13.4389C64.1747 13.4526 64.1456 13.5628 64.0595 13.652C63.9737 13.7416 63.9263 13.8196 63.912 13.8058C63.8977 13.7918 63.9224 13.6912 64.0076 13.6021C64.0932 13.5134 64.1459 13.4252 64.1604 13.4389Z" fill="white" stroke="white" stroke-width="0.0153529" stroke-miterlimit="10"/>
<path d="M64.5029 13.0589C64.5176 13.0721 64.492 13.1833 64.4087 13.275C64.3257 13.3673 64.2807 13.4466 64.2661 13.4333C64.2512 13.4198 64.2728 13.3184 64.3552 13.2268C64.4381 13.1355 64.488 13.0457 64.5029 13.0589Z" fill="white" stroke="white" stroke-width="0.0153529" stroke-miterlimit="10"/>
<path d="M64.8396 12.6687C64.8548 12.6814 64.8324 12.7932 64.752 12.8875C64.6719 12.9823 64.6294 13.063 64.6142 13.0501C64.599 13.0371 64.6175 12.9351 64.6971 12.8408C64.7771 12.7471 64.8243 12.6558 64.8396 12.6687Z" fill="white" stroke="white" stroke-width="0.0153529" stroke-miterlimit="10"/>
<path d="M65.1567 12.2687C65.1722 12.281 65.1534 12.3934 65.0758 12.49C64.9986 12.5871 64.9585 12.6692 64.943 12.6567C64.9274 12.6442 64.9427 12.5416 65.0195 12.4452C65.0966 12.349 65.1411 12.2563 65.1567 12.2687Z" fill="white" stroke="white" stroke-width="0.0153529" stroke-miterlimit="10"/>
<path d="M65.4697 11.8584C65.4855 11.8702 65.4701 11.9832 65.3955 12.0822C65.3213 12.1816 65.2837 12.2648 65.2679 12.2528C65.2519 12.2407 65.2641 12.1378 65.3379 12.039C65.412 11.9406 65.4535 11.8466 65.4697 11.8584Z" fill="white" stroke="white" stroke-width="0.0153529" stroke-miterlimit="10"/>
<path d="M65.7685 11.4394C65.7848 11.4507 65.7729 11.5641 65.7015 11.6654C65.6304 11.7671 65.5954 11.8514 65.5793 11.8399C65.5629 11.8283 65.5719 11.725 65.6426 11.624C65.7136 11.5233 65.7522 11.428 65.7685 11.4394Z" fill="white" stroke="white" stroke-width="0.0153529" stroke-miterlimit="10"/>
<path d="M66.0458 11.0109C66.0623 11.0216 66.054 11.1353 65.9862 11.239C65.9179 11.3426 65.8858 11.4281 65.8692 11.4172C65.8526 11.4062 65.8581 11.3025 65.9259 11.1995C65.9934 11.0964 66.029 11 66.0458 11.0109Z" fill="white" stroke="white" stroke-width="0.0153529" stroke-miterlimit="10"/>
<path d="M66.309 10.5735C66.3259 10.5837 66.3213 10.6976 66.2569 10.8035C66.192 10.9093 66.1627 10.9958 66.1457 10.9853C66.1287 10.9749 66.1309 10.8711 66.1954 10.766C66.2593 10.6607 66.2918 10.5632 66.309 10.5735Z" fill="white" stroke="white" stroke-width="0.0153529" stroke-miterlimit="10"/>
<path d="M66.568 10.1276C66.5852 10.1373 66.5844 10.2512 66.5235 10.3593C66.4622 10.4672 66.4358 10.5546 66.4185 10.5447C66.4012 10.5348 66.4 10.431 66.4609 10.3238C66.5213 10.2164 66.5505 10.1179 66.568 10.1276Z" fill="white" stroke="white" stroke-width="0.0153529" stroke-miterlimit="10"/>
<path d="M66.8032 9.67294C66.8208 9.68203 66.8239 9.79592 66.7668 9.90596C66.7092 10.0159 66.6857 10.1042 66.6681 10.0949C66.6505 10.0855 66.6457 9.98184 66.703 9.87263C66.7596 9.76337 66.7854 9.66389 66.8032 9.67294Z" fill="white" stroke="white" stroke-width="0.0153529" stroke-miterlimit="10"/>
<path d="M67.0342 9.21095C67.0521 9.21935 67.0593 9.33306 67.0061 9.44512C66.9524 9.55704 66.9321 9.646 66.9141 9.63737C66.8961 9.62874 66.8877 9.52527 66.9411 9.41413C66.994 9.30286 67.0161 9.20246 67.0342 9.21095Z" fill="white" stroke="white" stroke-width="0.0153529" stroke-miterlimit="10"/>
<path d="M67.2318 8.74066C67.25 8.74846 67.2614 8.86185 67.2123 8.9757C67.1626 9.0895 67.1455 9.1792 67.1273 9.17117C67.109 9.16318 67.0969 9.06003 67.1462 8.94705C67.1949 8.83399 67.2134 8.73285 67.2318 8.74066Z" fill="white" stroke="white" stroke-width="0.0153529" stroke-miterlimit="10"/>
<path d="M67.4153 8.26305C67.4338 8.27016 67.4495 8.383 67.4048 8.49873C67.3595 8.61432 67.3458 8.70457 67.3273 8.69727C67.3087 8.68993 67.2927 8.58728 67.3376 8.47256C67.382 8.35775 67.3966 8.25593 67.4153 8.26305Z" fill="white" stroke="white" stroke-width="0.0153529" stroke-miterlimit="10"/>
<path d="M67.5928 7.77885C67.6116 7.78518 67.6317 7.89729 67.5917 8.01471C67.5509 8.13205 67.5407 8.22271 67.5219 8.2162C67.5031 8.20959 67.4831 8.10772 67.5236 7.9913C67.5634 7.87479 67.5739 7.77247 67.5928 7.77885Z" fill="white" stroke="white" stroke-width="0.0153529" stroke-miterlimit="10"/>
<path d="M67.7369 7.28781C67.7558 7.29337 67.7807 7.40455 67.7455 7.52354C67.7096 7.64244 67.7031 7.73347 67.684 7.72764C67.6649 7.72186 67.6409 7.62086 67.6765 7.50288C67.7115 7.38495 67.7177 7.28226 67.7369 7.28781Z" fill="white" stroke="white" stroke-width="0.0153529" stroke-miterlimit="10"/>
<path d="M67.8626 6.79116C67.8817 6.79571 67.9127 6.90542 67.8835 7.02611C67.8537 7.14703 67.8507 7.23801 67.8316 7.23315C67.8121 7.22819 67.7841 7.12834 67.8136 7.00903C67.8425 6.88959 67.8431 6.78657 67.8626 6.79116Z" fill="white" stroke="white" stroke-width="0.0153529" stroke-miterlimit="10"/>
<path d="M67.9672 6.28917C67.9867 6.29307 68.0204 6.40192 67.9956 6.52325C67.9704 6.64467 67.9722 6.73607 67.9527 6.73194C67.9332 6.7279 67.9 6.62957 67.925 6.50874C67.9498 6.38792 67.9476 6.28522 67.9672 6.28917Z" fill="white" stroke="white" stroke-width="0.0153529" stroke-miterlimit="10"/>
<path d="M68.0562 5.78402C68.0757 5.78751 68.1119 5.89562 68.0897 6.01741C68.0673 6.13934 68.0712 6.23069 68.0516 6.22702C68.032 6.22339 67.9965 6.1258 68.0189 6.00442C68.041 5.88314 68.0366 5.78049 68.0562 5.78402Z" fill="white" stroke="white" stroke-width="0.0153529" stroke-miterlimit="10"/>
<path d="M68.1271 5.32624C68.1466 5.32927 68.1855 5.43632 68.1665 5.55871C68.1468 5.68114 68.1532 5.77227 68.1335 5.76914C68.1138 5.76602 68.0758 5.66939 68.0952 5.54746C68.1143 5.42581 68.1073 5.32312 68.1271 5.32624Z" fill="white" stroke="white" stroke-width="0.0153529" stroke-miterlimit="10"/>
<path d="M57.87 17.8382C57.8747 17.8573 57.791 17.9347 57.6705 17.9639C57.457 18.0155 57.4408 17.9454 57.6535 17.8939C57.7732 17.8648 57.8652 17.8186 57.87 17.8382Z" fill="white" stroke="white" stroke-width="0.0153529" stroke-miterlimit="10"/>
<path d="M58.3163 17.708C58.322 17.727 58.2422 17.8085 58.1231 17.8435C58.0037 17.8779 57.9237 17.9217 57.9183 17.9026C57.9128 17.8834 57.9847 17.8084 58.103 17.7744C58.2209 17.7396 58.3105 17.6889 58.3163 17.708Z" fill="white" stroke="white" stroke-width="0.0153529" stroke-miterlimit="10"/>
<path d="M58.8027 17.5404C58.8093 17.559 58.7335 17.6442 58.6162 17.6849C58.4986 17.725 58.4208 17.7727 58.4145 17.7539C58.408 17.7349 58.4762 17.6566 58.5928 17.6169C58.709 17.5764 58.796 17.5216 58.8027 17.5404Z" fill="white" stroke="white" stroke-width="0.0153529" stroke-miterlimit="10"/>
<path d="M59.2967 17.3509C59.3041 17.3692 59.2322 17.4576 59.1169 17.5036C59.0013 17.549 58.9257 17.6003 58.9185 17.5817C58.9113 17.5631 58.9758 17.4817 59.0903 17.4366C59.2047 17.3911 59.2892 17.3324 59.2967 17.3509Z" fill="white" stroke="white" stroke-width="0.0153529" stroke-miterlimit="10"/>
<path d="M59.769 17.1404C59.7772 17.1585 59.709 17.2498 59.5959 17.3006C59.4823 17.351 59.4091 17.4054 59.4011 17.3872C59.3931 17.3689 59.4539 17.2848 59.5665 17.2349C59.6788 17.1844 59.7607 17.1223 59.769 17.1404Z" fill="white" stroke="white" stroke-width="0.0153529" stroke-miterlimit="10"/>
<path d="M60.2296 16.9109C60.2385 16.9286 60.1741 17.0225 60.0631 17.078C59.9517 17.1328 59.8807 17.1902 59.872 17.1724C59.8632 17.1544 59.9205 17.0679 60.0311 17.0135C60.1412 16.9585 60.2206 16.8931 60.2296 16.9109Z" fill="white" stroke="white" stroke-width="0.0153529" stroke-miterlimit="10"/>
<path d="M60.6881 16.6632C60.6977 16.6805 60.6369 16.7769 60.5282 16.8365C60.4191 16.8956 60.3503 16.9558 60.3409 16.9383C60.3314 16.9207 60.3853 16.832 60.4937 16.7732C60.6016 16.714 60.6785 16.6457 60.6881 16.6632Z" fill="white" stroke="white" stroke-width="0.0153529" stroke-miterlimit="10"/>
<path d="M61.1428 16.3988C61.153 16.4158 61.0958 16.5143 60.9893 16.5778C60.8825 16.641 60.816 16.7037 60.806 16.6866C60.7958 16.6694 60.8464 16.5786 60.9525 16.5159C61.0582 16.4528 61.1324 16.3817 61.1428 16.3988Z" fill="white" stroke="white" stroke-width="0.0153529" stroke-miterlimit="10"/>
<path d="M61.5779 16.1186C61.5887 16.1352 61.5349 16.2357 61.4308 16.303C61.3262 16.3699 61.2622 16.4351 61.2515 16.4182C61.2408 16.4014 61.288 16.3089 61.3918 16.2425C61.4952 16.1755 61.567 16.1019 61.5779 16.1186Z" fill="white" stroke="white" stroke-width="0.0153529" stroke-miterlimit="10"/>
<path d="M61.9993 15.8235C62.0106 15.8398 61.9603 15.942 61.8586 16.0128C61.7565 16.0833 61.6947 16.1506 61.6834 16.1342C61.6721 16.1178 61.7161 16.0237 61.8176 15.9537C61.9186 15.8833 61.9878 15.8072 61.9993 15.8235Z" fill="white" stroke="white" stroke-width="0.0153529" stroke-miterlimit="10"/>
<path d="M62.4186 15.5143C62.4305 15.5301 62.3836 15.634 62.2844 15.7082C62.1847 15.7821 62.1252 15.8514 62.1133 15.8353C62.1015 15.8193 62.1423 15.7239 62.2414 15.6504C62.34 15.5767 62.4065 15.4984 62.4186 15.5143Z" fill="white" stroke="white" stroke-width="0.0153529" stroke-miterlimit="10"/>
<path d="M62.834 15.1914C62.8464 15.2068 62.8031 15.3122 62.7059 15.3893C62.609 15.4668 62.5517 15.5378 62.5394 15.5222C62.527 15.5065 62.5648 15.41 62.661 15.3329C62.7576 15.2564 62.8215 15.1758 62.834 15.1914Z" fill="white" stroke="white" stroke-width="0.0153529" stroke-miterlimit="10"/>
<path d="M63.2278 14.8553C63.2407 14.8703 63.2008 14.9772 63.1062 15.0572C63.0119 15.1378 62.9568 15.2107 62.944 15.1955C62.9311 15.1802 62.9657 15.0824 63.0596 15.0023C63.1535 14.9228 63.2148 14.8402 63.2278 14.8553Z" fill="white" stroke="white" stroke-width="0.0153529" stroke-miterlimit="10"/>
<path d="M63.61 14.507C63.6233 14.5216 63.5867 14.6296 63.4946 14.7127C63.403 14.7962 63.3502 14.8708 63.3369 14.8559C63.3236 14.8412 63.3551 14.7423 63.4463 14.6593C63.5377 14.5768 63.5964 14.4924 63.61 14.507Z" fill="white" stroke="white" stroke-width="0.0153529" stroke-miterlimit="10"/>
<path d="M63.9879 14.1468C64.0017 14.161 63.9685 14.2701 63.8791 14.3559C63.7901 14.4422 63.7397 14.5184 63.726 14.5041C63.7121 14.4897 63.7405 14.39 63.8291 14.3042C63.918 14.2188 63.974 14.1325 63.9879 14.1468Z" fill="white" stroke="white" stroke-width="0.0153529" stroke-miterlimit="10"/>
<path d="M64.3541 13.7751C64.3683 13.7889 64.3385 13.8989 64.2518 13.9875C64.1654 14.0766 64.1175 14.1543 64.1034 14.1404C64.089 14.1264 64.1144 14.0258 64.2003 13.9373C64.2865 13.8492 64.3397 13.7613 64.3541 13.7751Z" fill="white" stroke="white" stroke-width="0.0153529" stroke-miterlimit="10"/>
<path d="M64.6987 13.3925C64.7133 13.4057 64.6869 13.5166 64.603 13.6079C64.5194 13.6995 64.4739 13.7787 64.4593 13.7652C64.4446 13.7516 64.4669 13.6503 64.5499 13.5592C64.6333 13.4685 64.6838 13.379 64.6987 13.3925Z" fill="white" stroke="white" stroke-width="0.0153529" stroke-miterlimit="10"/>
<path d="M65.049 12.9985C65.064 13.0114 65.041 13.123 64.9602 13.2171C64.8791 13.3109 64.8362 13.3916 64.8211 13.3786C64.8061 13.3655 64.825 13.2634 64.9056 13.1701C64.9859 13.0766 65.0338 12.9856 65.049 12.9985Z" fill="white" stroke="white" stroke-width="0.0153529" stroke-miterlimit="10"/>
<path d="M65.3761 12.5956C65.3915 12.608 65.3717 12.7203 65.2935 12.8164C65.2157 12.913 65.175 12.9948 65.1596 12.9822C65.1441 12.9695 65.1601 12.8671 65.2375 12.771C65.3154 12.6755 65.3604 12.5831 65.3761 12.5956Z" fill="white" stroke="white" stroke-width="0.0153529" stroke-miterlimit="10"/>
<path d="M65.691 12.1822C65.7068 12.1941 65.6905 12.307 65.6153 12.4053C65.5404 12.5042 65.5022 12.5872 65.4865 12.5751C65.4706 12.5629 65.4835 12.46 65.558 12.3617C65.6328 12.2639 65.6751 12.1702 65.691 12.1822Z" fill="white" stroke="white" stroke-width="0.0153529" stroke-miterlimit="10"/>
<path d="M65.9921 11.7597C66.0083 11.7712 65.9955 11.8845 65.9233 11.9852C65.8514 12.0864 65.8159 12.1704 65.7997 12.1588C65.7835 12.1471 65.7933 12.0439 65.8646 11.9433C65.9365 11.8432 65.9758 11.7482 65.9921 11.7597Z" fill="white" stroke="white" stroke-width="0.0153529" stroke-miterlimit="10"/>
<path d="M66.2812 11.3275C66.2977 11.3384 66.2884 11.452 66.2198 11.5552C66.1506 11.6582 66.1179 11.7436 66.1014 11.7324C66.0849 11.7213 66.0912 11.6176 66.1599 11.5152C66.2281 11.4126 66.2646 11.3165 66.2812 11.3275Z" fill="white" stroke="white" stroke-width="0.0153529" stroke-miterlimit="10"/>
<path d="M66.5564 10.8865C66.5732 10.8969 66.5676 11.0107 66.5022 11.1161C66.4364 11.2213 66.4064 11.3076 66.3896 11.297C66.3727 11.2864 66.3757 11.1826 66.4411 11.078C66.506 10.9733 66.5393 10.8761 66.5564 10.8865Z" fill="white" stroke="white" stroke-width="0.0153529" stroke-miterlimit="10"/>
<path d="M66.8175 10.4367C66.8347 10.4465 66.8328 10.5604 66.771 10.6679C66.7087 10.7752 66.6814 10.8624 66.6642 10.8524C66.647 10.8423 66.6466 10.7386 66.7086 10.6319C66.77 10.5251 66.8001 10.4269 66.8175 10.4367Z" fill="white" stroke="white" stroke-width="0.0153529" stroke-miterlimit="10"/>
<path d="M67.0647 9.97863C67.0822 9.98786 67.0842 10.1018 67.026 10.2113C66.9673 10.3206 66.943 10.4087 66.9255 10.3992C66.9079 10.3897 66.9041 10.286 66.9624 10.1774C67.0202 10.0686 67.047 9.96936 67.0647 9.97863Z" fill="white" stroke="white" stroke-width="0.0153529" stroke-miterlimit="10"/>
<path d="M67.2979 9.51224C67.3158 9.52087 67.3216 9.63463 67.2673 9.74609C67.2124 9.85741 67.1911 9.94624 67.1733 9.93738C67.1554 9.92852 67.1481 9.82496 67.2026 9.71437C67.2566 9.60373 67.2799 9.50357 67.2979 9.51224Z" fill="white" stroke="white" stroke-width="0.0153529" stroke-miterlimit="10"/>
<path d="M67.5074 9.0378C67.5255 9.04579 67.5355 9.15927 67.4852 9.27261C67.4343 9.38581 67.4162 9.47533 67.398 9.46707C67.3799 9.4588 67.3689 9.35561 67.4195 9.24318C67.4694 9.13071 67.4891 9.02981 67.5074 9.0378Z" fill="white" stroke="white" stroke-width="0.0153529" stroke-miterlimit="10"/>
<path d="M67.7029 8.55603C67.7213 8.56333 67.7356 8.67635 67.6894 8.79149C67.6428 8.90653 67.6279 8.99664 67.6095 8.98911C67.5911 8.98158 67.5763 8.8788 67.6227 8.76459C67.6685 8.65028 67.6844 8.54874 67.7029 8.55603Z" fill="white" stroke="white" stroke-width="0.0153529" stroke-miterlimit="10"/>
<path d="M67.8828 8.06769C67.9014 8.0743 67.92 8.18668 67.8783 8.30355C67.836 8.42025 67.8246 8.51086 67.8059 8.50398C67.7872 8.49718 67.7685 8.395 67.8106 8.27913C67.8519 8.16322 67.8639 8.06108 67.8828 8.06769Z" fill="white" stroke="white" stroke-width="0.0153529" stroke-miterlimit="10"/>
<path d="M68.0388 7.57202C68.0577 7.57785 68.0808 7.6894 68.0438 7.80784C68.0063 7.92614 67.9984 8.01717 67.9794 8.01106C67.9605 8.00491 67.9379 7.90364 67.9751 7.78622C68.0118 7.66865 68.0198 7.56614 68.0388 7.57202Z" fill="white" stroke="white" stroke-width="0.0153529" stroke-miterlimit="10"/>
<path d="M68.1713 7.07074C68.1903 7.0757 68.2186 7.18633 68.1862 7.30606C68.1537 7.42596 68.1495 7.51713 68.1304 7.51181C68.111 7.50653 68.0844 7.40618 68.1166 7.28723C68.1489 7.16857 68.1518 7.0656 68.1713 7.07074Z" fill="white" stroke="white" stroke-width="0.0153529" stroke-miterlimit="10"/>
<path d="M68.2968 6.56409C68.3162 6.56836 68.3484 6.67766 68.3213 6.79863C68.2937 6.91968 68.2936 7.01099 68.2742 7.00649C68.2547 7.00199 68.2236 6.90293 68.2511 6.78279C68.2779 6.66261 68.2773 6.55982 68.2968 6.56409Z" fill="white" stroke="white" stroke-width="0.0153529" stroke-miterlimit="10"/>
<path d="M68.3909 6.05331C68.4103 6.05684 68.4466 6.16486 68.4241 6.28683C68.401 6.40881 68.4042 6.50007 68.3847 6.4963C68.365 6.49254 68.3303 6.39471 68.3533 6.27361C68.3757 6.15251 68.3713 6.04982 68.3909 6.05331Z" fill="white" stroke="white" stroke-width="0.0153529" stroke-miterlimit="10"/>
<path d="M68.4593 5.58941C68.4788 5.59226 68.5192 5.69871 68.5017 5.82147C68.4835 5.94422 68.4908 6.03516 68.4711 6.03231C68.4513 6.02942 68.4124 5.93311 68.4304 5.81114C68.4478 5.68926 68.4394 5.58661 68.4593 5.58941Z" fill="white" stroke="white" stroke-width="0.0153529" stroke-miterlimit="10"/>
<path d="M68.9801 5.93726C68.9752 5.97407 68.9701 6.01089 68.9648 6.0478" stroke="white" stroke-width="0.0611965" stroke-linecap="round" stroke-linejoin="round"/>
<path d="M68.9203 6.33984C68.5001 8.82254 67.2269 11.3774 65.2955 13.5923C63.2283 15.963 60.6543 17.6446 58.1094 18.3142" stroke="white" stroke-width="0.0611965" stroke-linecap="round" stroke-linejoin="round" stroke-dasharray="0.18 0.24"/>
<path d="M57.9639 18.3508C57.9278 18.3598 57.8916 18.3686 57.8555 18.3771C57.8582 18.3796 57.8608 18.3819 57.8635 18.3843" stroke="white" stroke-width="0.0611965" stroke-linecap="round" stroke-linejoin="round"/>
</svg>
