<svg width="100" height="100" viewBox="0 0 100 100" fill="none" xmlns="http://www.w3.org/2000/svg">
<g clip-path="url(#clip0_10357_7407)">
<path fill-rule="evenodd" clip-rule="evenodd" d="M50.0987 2C50.0404 1.34029 50.0075 0.673299 50.001 0H81C91.4935 0 100 8.5066 100 19V81C100 91.4935 91.4935 100 81 100H50.001C50.0005 99.917 50 99.8335 50 99.75C50 99.6742 50.0003 99.5986 50.001 99.523C50.0055 99.0115 50.0252 98.5037 50.0597 98C50.1883 96.121 50.5226 94.2984 51.0401 92.5546C53.3692 84.7063 59.4106 78.4544 67.1291 75.8343C68.5559 75.35 70.04 74.9898 71.5685 74.7665C70.0377 74.5564 68.5511 74.2076 67.1218 73.7334C59.4139 71.1761 53.3706 64.9688 51.0404 57.1602C50.3636 54.8918 50 52.4884 50 50C50 47.5117 50.3635 45.1083 51.0404 42.84C53.4528 34.7557 59.8452 28.3878 67.9441 26.0096C70.1818 25.3525 72.5497 25 75 25H75.25V27H75C62.2976 27 52 37.2975 52 50C52 61.6299 60.6336 71.2467 71.8405 72.7851L71.8576 76.7455C61.1915 78.3034 52.8756 87.1083 52.0649 98H81C90.3889 98 98 90.3889 98 81V19C98 9.61116 90.3889 2 81 2H52.1073C53.2391 13.7847 63.1682 23 75.25 23V25C75.1666 25 75.0832 24.9996 75 24.9988C72.5514 24.975 70.1863 24.6028 67.9517 23.9292C59.8411 21.4845 53.4512 15.0705 51.0399 6.94536C50.5685 5.3567 50.2491 3.70261 50.0987 2ZM48.96 6.94537C49.4314 5.3567 49.7508 3.70262 49.9011 2C49.9594 1.34029 49.9923 0.673299 49.9988 0H19C8.5066 0 0 8.5066 0 19V81C0 91.4935 8.5066 100 19 100H49.9988C49.9996 99.917 50 99.8335 50 99.75C50 99.6669 49.9996 99.584 49.9988 99.5011C49.9939 98.997 49.9743 98.4966 49.9403 98C49.8117 96.121 49.4774 94.2984 48.96 92.5546C46.6309 84.7063 40.5895 78.4544 32.8709 75.8343C31.4441 75.35 29.96 74.9898 28.4314 74.7665C29.9622 74.5564 31.4488 74.2076 32.8782 73.7334C40.5861 71.1761 46.6294 64.9688 48.9596 57.1602C49.6364 54.8918 50 52.4884 50 50C50 47.5117 49.6365 45.1083 48.9596 42.84C46.5472 34.7557 40.1549 28.3877 32.0558 26.0096C29.8182 25.3525 27.4503 25 25 25H24.75C24.8334 25 24.9168 24.9996 25 24.9988C27.4485 24.975 29.8137 24.6028 32.0482 23.9292C40.1588 21.4845 46.5488 15.0705 48.96 6.94537ZM24.75 27V25V23C36.8316 23 46.761 13.7847 47.8926 2H19C9.61117 2 2 9.61117 2 19V81C2 90.3889 9.61116 98 19 98H47.9351C47.1244 87.1083 38.8086 78.3034 28.1424 76.7455L28.1594 72.7851C39.3663 71.2467 48 61.6299 48 50C48 37.2975 37.7025 27 25 27H24.75Z" fill="#005BFF"/>
</g>
<defs>
<clipPath id="clip0_10357_7407">
<rect width="100" height="100" fill="white"/>
</clipPath>
</defs>
</svg>
