<svg width="311" height="156" viewBox="0 0 311 156" fill="none" xmlns="http://www.w3.org/2000/svg">
<path d="M142.125 7.4707L104.898 8.77071C86.2694 9.42122 71.6955 25.0498 72.346 43.6781L73.646 80.9055L144.603 78.4276L142.125 7.4707Z" stroke="url(#paint0_linear_8971_15010)" stroke-width="2"/>
<path d="M73.6465 80.9053L36.4191 82.2053C17.7908 82.8558 3.21697 98.4844 3.86748 117.113L5.16749 154.34L76.1244 151.862L73.6465 80.9053Z" stroke="url(#paint1_linear_8971_15010)" stroke-width="2"/>
<path d="M71.168 9.94849L33.9406 11.2485C15.3123 11.899 0.73845 27.5276 1.38896 46.1559L2.68897 83.3832L73.6458 80.9054L71.168 9.94849Z" stroke="url(#paint2_linear_8971_15010)" stroke-width="2"/>
<path d="M71.168 9.94849L33.9406 11.2485C15.3123 11.899 0.73845 27.5276 1.38896 46.1559L2.68897 83.3832L73.6458 80.9054L71.168 9.94849Z" stroke="url(#paint3_linear_8971_15010)" stroke-width="2"/>
<path d="M144.602 78.4275L107.374 79.7275C88.7459 80.378 74.172 96.0066 74.8226 114.635L76.1226 151.862L147.079 149.384L144.602 78.4275Z" stroke="url(#paint4_linear_8971_15010)" stroke-width="2"/>
<path d="M107.885 44.188L70.6574 45.488C52.0291 46.1385 37.4552 61.7671 38.1058 80.3954L39.4058 117.623L110.363 115.145L107.885 44.188Z" stroke="url(#paint5_linear_8971_15010)" stroke-width="2"/>
<path d="M107.885 44.188L70.6574 45.488C52.0291 46.1385 37.4552 61.7671 38.1058 80.3954L39.4058 117.623L110.363 115.145L107.885 44.188Z" stroke="url(#paint6_linear_8971_15010)" stroke-width="2"/>
<path d="M308.982 143.731L271.755 145.031C253.127 145.682 237.498 131.108 236.848 112.48L235.548 75.2525L306.505 72.7746L308.982 143.731Z" stroke="url(#paint7_linear_8971_15010)" stroke-width="2"/>
<path d="M235.549 75.2524L198.321 76.5524C179.693 77.203 164.065 62.6291 163.414 44.0008L162.114 6.77347L233.071 4.2956L235.549 75.2524Z" stroke="url(#paint8_linear_8971_15010)" stroke-width="2"/>
<path d="M235.557 75.2524L198.329 76.5524C179.701 77.203 165.127 92.8315 165.778 111.46L167.078 148.687L238.035 146.209L235.557 75.2524Z" stroke="url(#paint9_linear_8971_15010)" stroke-width="2"/>
<path d="M235.525 75.2527L272.753 73.9527C291.381 73.3022 305.955 57.6736 305.304 39.0453L304.004 1.81798L233.048 4.29584L235.525 75.2527Z" stroke="url(#paint10_linear_8971_15010)" stroke-width="2"/>
<path d="M272.266 109.492L235.038 110.792C216.41 111.442 200.781 96.8686 200.131 78.2403L198.831 41.013L269.788 38.5351L272.266 109.492Z" stroke="url(#paint11_linear_8971_15010)" stroke-width="2"/>
<path d="M272.266 109.492L235.038 110.792C216.41 111.442 200.781 96.8686 200.131 78.2403L198.831 41.013L269.788 38.5351L272.266 109.492Z" stroke="url(#paint12_linear_8971_15010)" stroke-width="2"/>
<defs>
<linearGradient id="paint0_linear_8971_15010" x1="71.0948" y1="9.88005" x2="144.676" y2="78.4962" gradientUnits="userSpaceOnUse">
<stop stop-color="#00E2C5"/>
<stop offset="1" stop-color="#00E2C5" stop-opacity="0"/>
</linearGradient>
<linearGradient id="paint1_linear_8971_15010" x1="2.61633" y1="83.3146" x2="76.1978" y2="151.931" gradientUnits="userSpaceOnUse">
<stop stop-color="#00E2C5"/>
<stop offset="1" stop-color="#00E2C5" stop-opacity="0"/>
</linearGradient>
<linearGradient id="paint2_linear_8971_15010" x1="0.140282" y1="12.4288" x2="73.7143" y2="80.8321" gradientUnits="userSpaceOnUse">
<stop stop-color="#005BFF"/>
<stop offset="1" stop-color="#005BFF" stop-opacity="0"/>
</linearGradient>
<linearGradient id="paint3_linear_8971_15010" x1="0.13781" y1="12.3578" x2="73.7193" y2="80.974" gradientUnits="userSpaceOnUse">
<stop stop-color="#00E2C5"/>
<stop offset="1" stop-color="#00E2C5" stop-opacity="0"/>
</linearGradient>
<linearGradient id="paint4_linear_8971_15010" x1="73.5714" y1="80.8368" x2="147.153" y2="149.453" gradientUnits="userSpaceOnUse">
<stop stop-color="#00E2C5"/>
<stop offset="1" stop-color="#00E2C5" stop-opacity="0"/>
</linearGradient>
<linearGradient id="paint5_linear_8971_15010" x1="36.8571" y1="46.6683" x2="110.431" y2="115.072" gradientUnits="userSpaceOnUse">
<stop stop-color="#005BFF"/>
<stop offset="1" stop-color="#005BFF" stop-opacity="0"/>
</linearGradient>
<linearGradient id="paint6_linear_8971_15010" x1="36.8546" y1="46.5973" x2="110.436" y2="115.213" gradientUnits="userSpaceOnUse">
<stop stop-color="#00E2C5"/>
<stop offset="1" stop-color="#00E2C5" stop-opacity="0"/>
</linearGradient>
<linearGradient id="paint7_linear_8971_15010" x1="237.957" y1="146.283" x2="306.573" y2="72.701" gradientUnits="userSpaceOnUse">
<stop stop-color="#00E2C5"/>
<stop offset="1" stop-color="#00E2C5" stop-opacity="0"/>
</linearGradient>
<linearGradient id="paint8_linear_8971_15010" x1="164.524" y1="77.8038" x2="233.139" y2="4.22204" gradientUnits="userSpaceOnUse">
<stop stop-color="#00E2C5"/>
<stop offset="1" stop-color="#00E2C5" stop-opacity="0"/>
</linearGradient>
<linearGradient id="paint9_linear_8971_15010" x1="164.527" y1="77.6618" x2="238.108" y2="146.278" gradientUnits="userSpaceOnUse">
<stop stop-color="#00E2C5"/>
<stop offset="1" stop-color="#00E2C5" stop-opacity="0"/>
</linearGradient>
<linearGradient id="paint10_linear_8971_15010" x1="306.556" y1="72.8433" x2="232.974" y2="4.22724" gradientUnits="userSpaceOnUse">
<stop stop-color="#00E2C5"/>
<stop offset="1" stop-color="#00E2C5" stop-opacity="0"/>
</linearGradient>
<linearGradient id="paint11_linear_8971_15010" x1="201.238" y1="111.972" x2="269.861" y2="38.6034" gradientUnits="userSpaceOnUse">
<stop stop-color="#005BFF"/>
<stop offset="1" stop-color="#005BFF" stop-opacity="0"/>
</linearGradient>
<linearGradient id="paint12_linear_8971_15010" x1="201.24" y1="112.043" x2="269.856" y2="38.4615" gradientUnits="userSpaceOnUse">
<stop stop-color="#00E2C5"/>
<stop offset="1" stop-color="#00E2C5" stop-opacity="0"/>
</linearGradient>
</defs>
</svg>
