<svg width="311" height="156" viewBox="0 0 311 156" fill="none" xmlns="http://www.w3.org/2000/svg">
<path d="M142.742 7.55371L105.515 8.85372C86.8865 9.50423 72.3127 25.1328 72.9632 43.7611L74.2632 80.9885L145.22 78.5106L142.742 7.55371Z" stroke="url(#paint0_linear_8971_15024)" stroke-width="2"/>
<path d="M74.2637 80.9883L37.0363 82.2883C18.408 82.9388 3.83415 98.5674 4.48467 117.196L5.78468 154.423L76.7415 151.945L74.2637 80.9883Z" stroke="url(#paint1_linear_8971_15024)" stroke-width="2"/>
<path d="M71.7852 10.0315L34.5578 11.3315C15.9295 11.982 1.35564 27.6106 2.00615 46.2389L3.30616 83.4662L74.263 80.9884L71.7852 10.0315Z" stroke="url(#paint2_linear_8971_15024)" stroke-width="2"/>
<path d="M71.7852 10.0315L34.5578 11.3315C15.9295 11.982 1.35564 27.6106 2.00615 46.2389L3.30616 83.4662L74.263 80.9884L71.7852 10.0315Z" stroke="url(#paint3_linear_8971_15024)" stroke-width="2"/>
<path d="M145.219 78.5105L107.991 79.8105C89.3631 80.461 74.7892 96.0896 75.4397 114.718L76.7398 151.945L147.697 149.467L145.219 78.5105Z" stroke="url(#paint4_linear_8971_15024)" stroke-width="2"/>
<path d="M108.502 44.271L71.2746 45.571C52.6463 46.2215 38.0724 61.8501 38.7229 80.4784L40.023 117.706L110.98 115.228L108.502 44.271Z" stroke="url(#paint5_linear_8971_15024)" stroke-width="2"/>
<path d="M108.502 44.271L71.2746 45.571C52.6463 46.2215 38.0724 61.8501 38.7229 80.4784L40.023 117.706L110.98 115.228L108.502 44.271Z" stroke="url(#paint6_linear_8971_15024)" stroke-width="2"/>
<path d="M309.6 143.814L272.372 145.114C253.744 145.765 238.115 131.191 237.465 112.563L236.165 75.3355L307.122 72.8576L309.6 143.814Z" stroke="url(#paint7_linear_8971_15024)" stroke-width="2"/>
<path d="M236.166 75.3354L198.939 76.6355C180.31 77.286 164.682 62.7121 164.031 44.0838L162.731 6.85648L233.688 4.37861L236.166 75.3354Z" stroke="url(#paint8_linear_8971_15024)" stroke-width="2"/>
<path d="M236.174 75.3354L198.946 76.6355C180.318 77.286 165.744 92.9145 166.395 111.543L167.695 148.77L238.652 146.292L236.174 75.3354Z" stroke="url(#paint9_linear_8971_15024)" stroke-width="2"/>
<path d="M236.143 75.3357L273.37 74.0357C291.998 73.3852 306.572 57.7566 305.922 39.1283L304.622 1.90099L233.665 4.37885L236.143 75.3357Z" stroke="url(#paint10_linear_8971_15024)" stroke-width="2"/>
<path d="M272.883 109.575L235.655 110.875C217.027 111.525 201.399 96.9516 200.748 78.3233L199.448 41.096L270.405 38.6181L272.883 109.575Z" stroke="url(#paint11_linear_8971_15024)" stroke-width="2"/>
<path d="M272.883 109.575L235.655 110.875C217.027 111.525 201.399 96.9516 200.748 78.3233L199.448 41.096L270.405 38.6181L272.883 109.575Z" stroke="url(#paint12_linear_8971_15024)" stroke-width="2"/>
<defs>
<linearGradient id="paint0_linear_8971_15024" x1="71.712" y1="9.96306" x2="145.293" y2="78.5792" gradientUnits="userSpaceOnUse">
<stop stop-color="#00E2C5"/>
<stop offset="1" stop-color="#00E2C5" stop-opacity="0"/>
</linearGradient>
<linearGradient id="paint1_linear_8971_15024" x1="3.23351" y1="83.3976" x2="76.815" y2="152.014" gradientUnits="userSpaceOnUse">
<stop stop-color="#00E2C5"/>
<stop offset="1" stop-color="#00E2C5" stop-opacity="0"/>
</linearGradient>
<linearGradient id="paint2_linear_8971_15024" x1="0.75747" y1="12.5118" x2="74.3315" y2="80.9151" gradientUnits="userSpaceOnUse">
<stop stop-color="#005BFF"/>
<stop offset="1" stop-color="#005BFF" stop-opacity="0"/>
</linearGradient>
<linearGradient id="paint3_linear_8971_15024" x1="0.754997" y1="12.4408" x2="74.3364" y2="81.057" gradientUnits="userSpaceOnUse">
<stop stop-color="#00E2C5"/>
<stop offset="1" stop-color="#00E2C5" stop-opacity="0"/>
</linearGradient>
<linearGradient id="paint4_linear_8971_15024" x1="74.1886" y1="80.9198" x2="147.77" y2="149.536" gradientUnits="userSpaceOnUse">
<stop stop-color="#00E2C5"/>
<stop offset="1" stop-color="#00E2C5" stop-opacity="0"/>
</linearGradient>
<linearGradient id="paint5_linear_8971_15024" x1="37.4743" y1="46.7513" x2="111.048" y2="115.155" gradientUnits="userSpaceOnUse">
<stop stop-color="#005BFF"/>
<stop offset="1" stop-color="#005BFF" stop-opacity="0"/>
</linearGradient>
<linearGradient id="paint6_linear_8971_15024" x1="37.4718" y1="46.6803" x2="111.053" y2="115.296" gradientUnits="userSpaceOnUse">
<stop stop-color="#00E2C5"/>
<stop offset="1" stop-color="#00E2C5" stop-opacity="0"/>
</linearGradient>
<linearGradient id="paint7_linear_8971_15024" x1="238.574" y1="146.366" x2="307.19" y2="72.7841" gradientUnits="userSpaceOnUse">
<stop stop-color="#00E2C5"/>
<stop offset="1" stop-color="#00E2C5" stop-opacity="0"/>
</linearGradient>
<linearGradient id="paint8_linear_8971_15024" x1="165.141" y1="77.8868" x2="233.757" y2="4.30505" gradientUnits="userSpaceOnUse">
<stop stop-color="#00E2C5"/>
<stop offset="1" stop-color="#00E2C5" stop-opacity="0"/>
</linearGradient>
<linearGradient id="paint9_linear_8971_15024" x1="165.144" y1="77.7448" x2="238.725" y2="146.361" gradientUnits="userSpaceOnUse">
<stop stop-color="#00E2C5"/>
<stop offset="1" stop-color="#00E2C5" stop-opacity="0"/>
</linearGradient>
<linearGradient id="paint10_linear_8971_15024" x1="307.173" y1="72.9263" x2="233.591" y2="4.31025" gradientUnits="userSpaceOnUse">
<stop stop-color="#00E2C5"/>
<stop offset="1" stop-color="#00E2C5" stop-opacity="0"/>
</linearGradient>
<linearGradient id="paint11_linear_8971_15024" x1="201.855" y1="112.055" x2="270.478" y2="38.6864" gradientUnits="userSpaceOnUse">
<stop stop-color="#005BFF"/>
<stop offset="1" stop-color="#005BFF" stop-opacity="0"/>
</linearGradient>
<linearGradient id="paint12_linear_8971_15024" x1="201.858" y1="112.126" x2="270.473" y2="38.5446" gradientUnits="userSpaceOnUse">
<stop stop-color="#00E2C5"/>
<stop offset="1" stop-color="#00E2C5" stop-opacity="0"/>
</linearGradient>
</defs>
</svg>
