<svg width="473" height="161" viewBox="0 0 473 161" fill="none" xmlns="http://www.w3.org/2000/svg">
<path d="M76.9141 157.114L114.141 155.814C132.77 155.163 147.344 139.535 146.693 120.907L145.393 83.6793L74.4362 86.1571L76.9141 157.114Z" stroke="url(#paint0_linear_8971_14978)" stroke-width="2"/>
<path d="M74.4375 86.1572L111.665 84.8572C130.293 84.2067 144.867 68.5782 144.216 49.9499L142.916 12.7225L71.9596 15.2004L74.4375 86.1572Z" stroke="url(#paint1_linear_8971_14978)" stroke-width="2"/>
<path d="M111.453 117.609L74.2258 118.909C55.5975 119.559 39.969 104.986 39.3184 86.3573L38.0184 49.1299L108.975 46.652L111.453 117.609Z" stroke="url(#paint2_linear_8971_14978)" stroke-width="2"/>
<path d="M111.453 117.609L74.2258 118.909C55.5975 119.559 39.969 104.986 39.3184 86.3573L38.0184 49.1299L108.975 46.652L111.453 117.609Z" stroke="url(#paint3_linear_8971_14978)" stroke-width="2"/>
<path d="M71 15.6782L33.7726 16.9782C15.1444 17.6287 0.570482 33.2573 1.221 51.8856L2.521 89.113L73.4779 86.6351L71 15.6782Z" stroke="url(#paint4_linear_8971_14978)" stroke-width="2"/>
<path d="M73.9629 86.2004L36.7355 87.5004C18.1072 88.151 3.53337 103.78 4.18389 122.408L5.48389 159.635L76.4408 157.157L73.9629 86.2004Z" stroke="url(#paint5_linear_8971_14978)" stroke-width="2"/>
<path d="M304.816 7.0686L267.589 8.36861C248.961 9.01912 234.387 24.6477 235.037 43.276L236.337 80.5034L307.294 78.0255L304.816 7.0686Z" stroke="url(#paint6_linear_8971_14978)" stroke-width="2"/>
<path d="M236.338 80.5032L199.111 81.8032C180.482 82.4537 165.908 98.0823 166.559 116.711L167.859 153.938L238.816 151.46L236.338 80.5032Z" stroke="url(#paint7_linear_8971_14978)" stroke-width="2"/>
<path d="M233.859 9.54639L196.632 10.8464C178.004 11.4969 163.43 27.1255 164.08 45.7538L165.38 82.9811L236.337 80.5033L233.859 9.54639Z" stroke="url(#paint8_linear_8971_14978)" stroke-width="2"/>
<path d="M307.295 78.0254L270.068 79.3254C251.439 79.9759 236.865 95.6045 237.516 114.233L238.816 151.46L309.773 148.982L307.295 78.0254Z" stroke="url(#paint9_linear_8971_14978)" stroke-width="2"/>
<path d="M270.578 43.7859L233.351 45.0859C214.722 45.7364 200.149 61.365 200.799 79.9933L202.099 117.221L273.056 114.743L270.578 43.7859Z" stroke="url(#paint10_linear_8971_14978)" stroke-width="2"/>
<path d="M270.578 43.7859L233.351 45.0859C214.722 45.7364 200.149 61.365 200.799 79.9933L202.099 117.221L273.056 114.743L270.578 43.7859Z" stroke="url(#paint11_linear_8971_14978)" stroke-width="2"/>
<path d="M471.674 143.329L434.446 144.629C415.818 145.28 400.19 130.706 399.539 112.078L398.239 74.8504L469.196 72.3725L471.674 143.329Z" stroke="url(#paint12_linear_8971_14978)" stroke-width="2"/>
<path d="M398.24 74.8503L361.013 76.1503C342.385 76.8009 326.756 62.227 326.106 43.5987L324.806 6.37137L395.762 3.8935L398.24 74.8503Z" stroke="url(#paint13_linear_8971_14978)" stroke-width="2"/>
<path d="M398.248 74.8503L361.021 76.1503C342.392 76.8009 327.819 92.4294 328.469 111.058L329.769 148.285L400.726 145.807L398.248 74.8503Z" stroke="url(#paint14_linear_8971_14978)" stroke-width="2"/>
<path d="M398.217 74.8506L435.444 73.5506C454.072 72.9001 468.646 57.2715 467.996 38.6432L466.696 1.41588L395.739 3.89374L398.217 74.8506Z" stroke="url(#paint15_linear_8971_14978)" stroke-width="2"/>
<path d="M434.957 109.09L397.73 110.39C379.101 111.04 363.473 96.4665 362.822 77.8382L361.522 40.6109L432.479 38.133L434.957 109.09Z" stroke="url(#paint16_linear_8971_14978)" stroke-width="2"/>
<path d="M434.957 109.09L397.73 110.39C379.101 111.04 363.473 96.4665 362.822 77.8382L361.522 40.6109L432.479 38.133L434.957 109.09Z" stroke="url(#paint17_linear_8971_14978)" stroke-width="2"/>
<defs>
<linearGradient id="paint0_linear_8971_14978" x1="147.944" y1="154.705" x2="74.3628" y2="86.0886" gradientUnits="userSpaceOnUse">
<stop stop-color="#00E2C5"/>
<stop offset="1" stop-color="#00E2C5" stop-opacity="0"/>
</linearGradient>
<linearGradient id="paint1_linear_8971_14978" x1="145.468" y1="83.7479" x2="71.8862" y2="15.1318" gradientUnits="userSpaceOnUse">
<stop stop-color="#00E2C5"/>
<stop offset="1" stop-color="#00E2C5" stop-opacity="0"/>
</linearGradient>
<linearGradient id="paint2_linear_8971_14978" x1="40.4255" y1="120.089" x2="109.049" y2="46.7204" gradientUnits="userSpaceOnUse">
<stop stop-color="#005BFF"/>
<stop offset="1" stop-color="#005BFF" stop-opacity="0"/>
</linearGradient>
<linearGradient id="paint3_linear_8971_14978" x1="40.428" y1="120.16" x2="109.044" y2="46.5785" gradientUnits="userSpaceOnUse">
<stop stop-color="#00E2C5"/>
<stop offset="1" stop-color="#00E2C5" stop-opacity="0"/>
</linearGradient>
<linearGradient id="paint4_linear_8971_14978" x1="-0.0301591" y1="18.0876" x2="73.5513" y2="86.7037" gradientUnits="userSpaceOnUse">
<stop stop-color="#00E2C5"/>
<stop offset="1" stop-color="#00E2C5" stop-opacity="0"/>
</linearGradient>
<linearGradient id="paint5_linear_8971_14978" x1="2.93273" y1="88.6098" x2="76.5142" y2="157.226" gradientUnits="userSpaceOnUse">
<stop stop-color="#00E2C5"/>
<stop offset="1" stop-color="#00E2C5" stop-opacity="0"/>
</linearGradient>
<linearGradient id="paint6_linear_8971_14978" x1="233.786" y1="9.47795" x2="307.368" y2="78.0941" gradientUnits="userSpaceOnUse">
<stop stop-color="#00E2C5"/>
<stop offset="1" stop-color="#00E2C5" stop-opacity="0"/>
</linearGradient>
<linearGradient id="paint7_linear_8971_14978" x1="165.308" y1="82.9125" x2="238.889" y2="151.529" gradientUnits="userSpaceOnUse">
<stop stop-color="#00E2C5"/>
<stop offset="1" stop-color="#00E2C5" stop-opacity="0"/>
</linearGradient>
<linearGradient id="paint8_linear_8971_14978" x1="162.829" y1="11.9557" x2="236.411" y2="80.5719" gradientUnits="userSpaceOnUse">
<stop stop-color="#00E2C5"/>
<stop offset="1" stop-color="#00E2C5" stop-opacity="0"/>
</linearGradient>
<linearGradient id="paint9_linear_8971_14978" x1="236.265" y1="80.4347" x2="309.846" y2="149.051" gradientUnits="userSpaceOnUse">
<stop stop-color="#00E2C5"/>
<stop offset="1" stop-color="#00E2C5" stop-opacity="0"/>
</linearGradient>
<linearGradient id="paint10_linear_8971_14978" x1="199.55" y1="46.2662" x2="273.124" y2="114.67" gradientUnits="userSpaceOnUse">
<stop stop-color="#005BFF"/>
<stop offset="1" stop-color="#005BFF" stop-opacity="0"/>
</linearGradient>
<linearGradient id="paint11_linear_8971_14978" x1="199.548" y1="46.1952" x2="273.129" y2="114.811" gradientUnits="userSpaceOnUse">
<stop stop-color="#00E2C5"/>
<stop offset="1" stop-color="#00E2C5" stop-opacity="0"/>
</linearGradient>
<linearGradient id="paint12_linear_8971_14978" x1="400.649" y1="145.881" x2="469.264" y2="72.2989" gradientUnits="userSpaceOnUse">
<stop stop-color="#00E2C5"/>
<stop offset="1" stop-color="#00E2C5" stop-opacity="0"/>
</linearGradient>
<linearGradient id="paint13_linear_8971_14978" x1="327.215" y1="77.4017" x2="395.831" y2="3.81994" gradientUnits="userSpaceOnUse">
<stop stop-color="#00E2C5"/>
<stop offset="1" stop-color="#00E2C5" stop-opacity="0"/>
</linearGradient>
<linearGradient id="paint14_linear_8971_14978" x1="327.218" y1="77.2597" x2="400.799" y2="145.876" gradientUnits="userSpaceOnUse">
<stop stop-color="#00E2C5"/>
<stop offset="1" stop-color="#00E2C5" stop-opacity="0"/>
</linearGradient>
<linearGradient id="paint15_linear_8971_14978" x1="469.247" y1="72.4412" x2="395.666" y2="3.82514" gradientUnits="userSpaceOnUse">
<stop stop-color="#00E2C5"/>
<stop offset="1" stop-color="#00E2C5" stop-opacity="0"/>
</linearGradient>
<linearGradient id="paint16_linear_8971_14978" x1="363.929" y1="111.57" x2="432.553" y2="38.2013" gradientUnits="userSpaceOnUse">
<stop stop-color="#005BFF"/>
<stop offset="1" stop-color="#005BFF" stop-opacity="0"/>
</linearGradient>
<linearGradient id="paint17_linear_8971_14978" x1="363.932" y1="111.641" x2="432.548" y2="38.0594" gradientUnits="userSpaceOnUse">
<stop stop-color="#00E2C5"/>
<stop offset="1" stop-color="#00E2C5" stop-opacity="0"/>
</linearGradient>
</defs>
</svg>
