<svg width="100" height="100" viewBox="0 0 100 100" fill="none" xmlns="http://www.w3.org/2000/svg">
<g clip-path="url(#clip0_10357_5709)">
<path fill-rule="evenodd" clip-rule="evenodd" d="M63.0893 53.8331L75.8819 66.6262C77.9983 68.7426 81.4305 68.7426 83.5469 66.6262L96.3401 53.833C98.4565 51.7166 98.4566 48.2849 96.34 46.1682L83.5469 33.3755C81.4305 31.2588 77.9984 31.2588 75.8819 33.3754L63.0893 46.1682C60.9724 48.2849 60.9725 51.7167 63.0893 53.8331ZM97.7543 44.754C100.652 47.6517 100.652 52.3497 97.7543 55.2472L84.9611 68.0404C82.0636 70.9379 77.3652 70.9379 74.4677 68.0404L61.6751 55.2472C58.777 52.3497 58.777 47.6517 61.6751 44.754L74.4677 31.9612C77.3652 29.0635 82.0636 29.0635 84.9611 31.9612L97.7543 44.754ZM2.24749 55.2472L15.0403 68.0404C17.938 70.9379 22.6361 70.9379 25.5338 68.0404L38.3266 55.2472C41.2243 52.3497 41.2243 47.6517 38.3266 44.754L25.5338 31.9612C22.6361 29.0635 17.938 29.0635 15.0403 31.9612L2.24748 44.754C-0.650206 47.6517 -0.650201 52.3497 2.24749 55.2472ZM24.1196 66.6261L36.9124 53.8331C39.0289 51.7166 39.029 48.2849 36.9124 46.1682L24.1196 33.3754C22.0029 31.2588 18.5711 31.2588 16.4545 33.3754L3.6617 46.1683C1.54504 48.2849 1.5451 51.7166 3.66166 53.833L16.4545 66.6261C18.5711 68.7427 22.003 68.7427 24.1196 66.6261ZM46.1683 96.3397C48.2849 98.4565 51.7165 98.4566 53.8335 96.3396L66.6261 83.547C68.7426 81.4305 68.7426 77.9984 66.6261 75.8819L53.8335 63.0893C51.7165 60.9723 48.2849 60.9724 46.1683 63.0892L33.3754 75.8819C31.2588 77.9984 31.2588 81.4305 33.3754 83.5469L46.1683 96.3397ZM44.754 97.7538L31.9612 84.9612C29.0635 82.0637 29.0635 77.3652 31.9612 74.4677L44.754 61.6751C47.6517 58.7771 52.3497 58.7771 55.2477 61.6751L68.0404 74.4677C70.9379 77.3652 70.9379 82.0637 68.0404 84.9612L55.2477 97.7538C52.3497 100.652 47.6517 100.652 44.754 97.7538ZM46.1682 36.9124C48.2848 39.029 51.7165 39.0291 53.8336 36.9123L66.6261 24.1196C68.7426 22.003 68.7426 18.5711 66.6261 16.4544L53.8336 3.66178C53.8336 3.66175 53.8336 3.66181 53.8336 3.66178C51.7166 1.54508 48.2848 1.54513 46.1682 3.6617L33.3754 16.4545C31.2588 18.5712 31.2588 22.0029 33.3754 24.1195L46.1682 36.9124ZM55.2477 2.24748C52.3497 -0.650206 47.6517 -0.650201 44.754 2.24749L31.9612 15.0403C29.0635 17.938 29.0635 22.6361 31.9612 25.5338L44.754 38.3266C47.6517 41.2243 52.3497 41.2242 55.2477 38.3266L68.0404 25.5338C70.9379 22.6361 70.9379 17.938 68.0404 15.0403L55.2477 2.24748Z" fill="#005BFF"/>
</g>
<defs>
<clipPath id="clip0_10357_5709">
<rect width="100" height="100" fill="white"/>
</clipPath>
</defs>
</svg>
