<svg width="100" height="100" viewBox="0 0 100 100" fill="none" xmlns="http://www.w3.org/2000/svg">
<g clip-path="url(#clip0_10244_8035)">
<path fill-rule="evenodd" clip-rule="evenodd" d="M73.6506 65.0926C79.9263 67.1602 86.6781 67.8977 92.2628 66.872L99.9989 65.451L94.6186 59.9765C90.7548 56.0449 84.8776 52.8795 78.5599 51.0397C77.129 50.6229 75.6755 50.2742 74.2177 50C75.6755 49.7258 77.129 49.3771 78.5599 48.9604C84.8776 47.1206 90.7549 43.9551 94.6192 40.0235L100 34.549L92.2634 33.1279C86.6787 32.102 79.9271 32.8396 73.6515 34.9071C72.2695 35.3624 70.9106 35.8822 69.5923 36.4618C70.6008 35.4266 71.5599 34.3336 72.4589 33.1983C76.4352 28.1769 79.2355 22.3284 79.9319 16.9858L80.9018 9.54905L73.7645 12.7242C68.5937 15.0245 63.5698 19.4189 59.7652 24.6244C58.9442 25.7478 58.1799 26.9089 57.4832 28.0949C57.6551 26.7271 57.7549 25.3412 57.7834 23.9543C57.9136 17.6352 56.565 11.2956 53.8115 6.55835L50 0L46.1881 6.55835C43.4349 11.2956 42.0861 17.6351 42.2162 23.9541C42.2447 25.3411 42.3445 26.7271 42.5163 28.0949C41.8197 26.9088 41.0555 25.7476 40.2344 24.6242C36.4301 19.4187 31.4061 15.0243 26.2354 12.7242L19.0982 9.54905L20.0677 16.9858C20.7643 22.3285 23.5647 28.1769 27.541 33.1984C28.4399 34.3336 29.399 35.4266 30.4074 36.4618C29.0892 35.8822 27.7303 35.3624 26.3484 34.9072C20.0728 32.8397 13.3209 32.1022 7.73626 33.1279L0 34.549L5.38052 40.0235C9.24475 43.9552 15.1221 47.1205 21.44 48.9604C22.8709 49.3771 24.3244 49.7258 25.7822 50C24.3244 50.2742 22.8709 50.6229 21.44 51.0396C15.1222 52.8794 9.24473 56.0445 5.38052 59.9765L0 65.451L7.73626 66.872C13.321 67.8981 20.0727 67.1604 26.3484 65.0927C27.7304 64.6374 29.0892 64.1176 30.4074 63.538C29.399 64.5733 28.44 65.6663 27.5411 66.8015C23.5647 71.823 20.7643 77.6713 20.0677 83.014L19.0982 90.4505L26.2351 87.276C31.4059 84.9755 36.4298 80.5812 40.2342 75.3757C41.0552 74.2523 41.8194 73.0911 42.5161 71.905C42.3443 73.2728 42.2445 74.6588 42.2159 76.0458C42.0859 82.3648 43.4346 88.7043 46.1879 93.4415L49.9995 100L53.811 93.4415C56.5645 88.7043 57.9131 82.3646 57.7832 76.0457C57.7547 74.6587 57.655 73.2728 57.4832 71.905C58.1798 73.091 58.944 74.2522 59.765 75.3756C63.5693 80.5813 68.5932 84.9759 73.764 87.276L80.9008 90.4505L79.9313 83.014C79.2345 77.6713 76.4341 71.823 72.4579 66.8014C71.5591 65.6662 70.6001 64.5733 69.5918 63.538C70.91 64.1176 72.2687 64.6374 73.6506 65.0926ZM77.9481 83.2725C77.9481 83.2725 77.9481 83.2726 77.9481 83.2725C77.1637 77.2578 73.4116 70.3266 68.1591 64.9334L70.3969 61.7072C77.4247 64.7975 85.5672 66.0682 91.9016 64.9049L95.9307 64.1648L93.1922 61.3784C88.8111 56.9205 81.4542 53.3963 73.848 51.9655L73.848 48.0345C81.4542 46.6038 88.8111 43.0796 93.1928 38.6216L95.9315 35.8352L91.902 35.095C85.5677 33.9314 77.4253 35.2024 70.3974 38.2927L68.1597 35.0663C73.4127 29.6735 77.1647 22.742 77.9486 16.7273L78.4576 12.8254L74.5775 14.5515C68.7484 17.1447 62.968 22.7066 59.2077 29.1079L55.4988 27.8456C56.4122 20.5752 55.1719 12.8788 52.0824 7.56339L49.9999 3.98014L47.9173 7.56333C44.8279 12.8788 43.5875 20.5753 44.5008 27.8456L40.7918 29.1078C37.032 22.7066 31.2515 17.1445 25.4225 14.5516L21.5422 12.8253L22.0509 16.7272C22.0509 16.7272 22.0509 16.7272 22.0509 16.7272C22.8352 22.7419 26.5872 29.6736 31.8401 35.0663L29.6024 38.2927C22.5747 35.2025 14.4319 33.9316 8.09762 35.095C8.0976 35.095 8.09763 35.095 8.09762 35.095L4.06832 35.8352L6.80692 38.6216C11.1885 43.0796 18.5454 46.6036 26.152 48.0345L26.152 51.9655C18.5456 53.3963 11.1885 56.92 6.80697 61.3784L4.06836 64.1648L8.09758 64.9049C14.4318 66.0687 22.5743 64.7976 29.6024 61.7072L31.8402 64.9335C26.5872 70.3266 22.8352 77.2579 22.0509 83.2726L21.5422 87.1745L25.4221 85.4487C31.2513 82.8553 37.0318 77.2934 40.7915 70.8921L44.5005 72.1543C43.5872 79.4246 44.8277 87.121 47.917 92.4365L49.9995 96.0197L52.0818 92.4366C55.1714 87.1212 56.4117 79.4246 55.4988 72.1542L59.2078 70.8921C62.9675 77.2935 68.7479 82.8558 74.5768 85.4486L78.4568 87.1745L77.9481 83.2725ZM61.0354 60.7972C54.8598 66.6706 44.8865 66.6706 38.7108 60.7972C32.4783 54.8699 32.4783 45.2158 38.7108 39.2883C44.8865 33.4149 54.8598 33.4148 61.0354 39.2883C67.2678 45.2158 67.2678 54.8699 61.0354 60.7972ZM59.6571 59.348C54.2537 64.487 45.4927 64.487 40.0891 59.348C34.6856 54.209 34.6856 45.8766 40.0891 40.7375C45.4927 35.5984 54.2537 35.5984 59.6571 40.7375C65.0606 45.8766 65.0606 54.209 59.6571 59.348Z" fill="#00E2C5"/>
</g>
<defs>
<clipPath id="clip0_10244_8035">
<rect width="100" height="100" fill="white"/>
</clipPath>
</defs>
</svg>
