<svg width="192" height="50" viewBox="0 0 192 50" fill="none" xmlns="http://www.w3.org/2000/svg">
<path d="M2.36228 49.1664L0.886026 6.89219L16.2367 6.35614C30.508 5.85777 38.687 13.1368 39.1623 26.7485C39.6356 40.3002 31.9842 48.132 17.7129 48.6304L2.36228 49.1664ZM7.18429 44.5553L17.558 44.1931C28.5912 43.8078 34.5602 37.6557 34.1854 26.9223C33.8084 16.1288 27.4249 10.4081 16.3916 10.7934L6.01795 11.1557L7.18429 44.5553ZM44.9785 47.6782L43.5022 5.404L72.4046 4.39471L72.5596 8.83201L48.5142 9.67169L48.9979 23.5232L70.6447 22.7673L70.7955 27.0847L49.1487 27.8406L49.6806 43.0713L74.3256 42.2107L74.4805 46.648L44.9785 47.6782ZM78.9867 46.4906L77.5104 4.21641L104.194 3.2846L104.349 7.72189L82.6423 8.47991L83.1533 23.111L101.322 22.4765L101.471 26.7339L83.3019 27.3684L83.9636 46.3168L78.9867 46.4906ZM109.891 45.4114L108.415 3.1372L113.392 2.9634L114.868 45.2376L109.891 45.4114ZM121.472 45.007L119.995 2.7328L126.651 2.50037L149.55 37.6026L149.67 37.5984L148.418 1.74026L153.455 1.56437L154.931 43.8386L148.275 44.071L125.318 9.03087L125.199 9.03506L126.449 44.8332L121.472 45.007ZM161.511 43.6088L160.035 1.33459L188.938 0.325293L189.092 4.76259L165.047 5.60227L165.531 19.4538L187.178 18.6979L187.328 23.0153L165.682 23.7712L166.213 39.0019L190.858 38.1413L191.013 42.5786L161.511 43.6088Z" fill="white" fill-opacity="0.7"/>
</svg>
