<svg width="231" height="52" viewBox="0 0 231 52" fill="none" xmlns="http://www.w3.org/2000/svg">
<path d="M1.51578 50.2942L0.0395301 8.02L15.3902 7.48394C29.6615 6.98558 37.8405 14.2646 38.3158 27.8763C38.7891 41.428 31.1377 49.2598 16.8664 49.7582L1.51578 50.2942ZM6.33779 45.6831L16.7115 45.3209C27.7447 44.9356 33.7137 38.7835 33.3389 28.0501C32.9619 17.2567 26.5784 11.5359 15.5451 11.9212L5.17145 12.2835L6.33779 45.6831ZM44.132 48.806L42.6557 6.53181L71.5581 5.52251L71.7131 9.95981L47.6677 10.7995L48.1514 24.651L69.7983 23.8951L69.949 28.2125L48.3022 28.9684L48.8341 44.1991L73.4791 43.3385L73.634 47.7758L44.132 48.806ZM78.1402 47.6185L76.6639 5.34422L81.6409 5.17042L82.9622 43.0074L104.609 42.2514L104.764 46.6887L78.1402 47.6185ZM108.342 46.5638L106.866 4.28954L111.843 4.11574L113.319 46.39L108.342 46.5638ZM133.174 45.6966L115.448 3.98984L120.725 3.80557L135.862 40.1394L135.982 40.1352L148.428 2.83816L153.705 2.65389L138.931 45.4956L133.174 45.6966ZM158.791 44.8021L157.315 2.52783L186.217 1.51853L186.372 5.95583L162.327 6.79551L162.81 20.6471L184.457 19.8911L184.608 24.2085L162.961 24.9644L163.493 40.1952L188.138 39.3345L188.293 43.7718L158.791 44.8021ZM223.422 43.7458C220.064 43.8631 218.074 41.8913 217.134 39.0424L214.246 30.2578C213.238 27.1712 210.704 25.0983 207.826 25.1988L197.152 25.5716L197.776 43.4407L192.799 43.6145L191.323 1.34023L210.271 0.67854C219.026 0.37282 225.438 5.19198 225.685 12.2677C225.89 18.1441 221.67 22.7942 214.628 24.0007L214.63 24.0607C216.948 25.1204 218.459 27.1089 219.266 29.6022L221.631 37.1443C222.041 38.5709 222.916 39.5609 224.235 39.5149C225.614 39.4667 226.956 38.3392 227.857 36.6267L230.478 39.477C228.823 41.9362 226.361 43.6432 223.422 43.7458ZM196.997 21.1343L210.969 20.6464C216.845 20.4412 220.872 17.1186 220.712 12.5614C220.553 8.00417 216.303 4.91063 210.426 5.11584L196.455 5.60373L196.997 21.1343Z" fill="white" fill-opacity="0.7"/>
</svg>
