<svg width="100" height="100" viewBox="0 0 100 100" fill="none" xmlns="http://www.w3.org/2000/svg">
<path d="M52.2269 34.9308L52.5229 38.1308L54.0948 35.3279L65.921 14.2409L58.1635 37.1394L57.1324 40.1831L59.7085 38.2619L79.0891 23.8081L62.6887 41.5716L60.5087 43.9328L63.6435 43.2255L87.2274 37.9041L65.0198 47.4613L62.0679 48.7316L65.2194 49.3605L88.9288 54.0916L64.7539 53.7898L61.5405 53.7497L64.1637 55.6061L83.899 69.5716L61.9369 59.4631L59.0176 58.1195L60.659 60.8823L73.0078 81.6675L57.0559 63.5002L54.9355 61.0853L55.3113 64.2769L58.1383 88.2878L50.9548 65.2029L50 62.1344L49.0452 65.2029L41.8617 88.2878L44.6887 64.2769L45.0645 61.0853L42.9441 63.5002L26.9922 81.6675L39.341 60.8823L40.9824 58.1195L38.0631 59.4631L16.101 69.5716L35.8363 55.6061L38.4595 53.7497L35.2461 53.7898L11.0712 54.0916L34.7806 49.3605L37.9321 48.7316L34.9802 47.4613L12.7726 37.9041L36.3565 43.2255L39.4913 43.9328L37.3113 41.5716L20.9109 23.8081L40.2915 38.2619L42.8676 40.1831L41.8365 37.1394L34.079 14.2409L45.9052 35.3279L47.4771 38.1308L47.7731 34.9308L50 10.8568L52.2269 34.9308Z" stroke="#00E2C5" stroke-width="2"/>
</svg>
