<svg width="100" height="100" viewBox="0 0 100 100" fill="none" xmlns="http://www.w3.org/2000/svg">
<g clip-path="url(#clip0_10406_5221)">
<path fill-rule="evenodd" clip-rule="evenodd" d="M97.5 2H34V65.5H34.4022V33.75C34.4022 16.437 48.4371 2.40217 65.75 2.40217C83.0631 2.40217 97.098 16.4371 97.098 33.75V65.5H97.5V2ZM66 98H2.5L2.5 34.5H2.90218V66.25C2.90217 83.5631 16.9371 97.598 34.25 97.598C51.5631 97.598 65.598 83.5631 65.598 66.25V34.5H66V98ZM32 0V67.5H36.4022V33.75C36.4022 17.5416 49.5416 4.40217 65.75 4.40217C81.9585 4.40217 95.098 17.5417 95.098 33.75V67.5H99.5V0H32ZM68 32.5H63.598V66.25C63.598 82.4585 50.4585 95.598 34.25 95.598C18.0417 95.598 4.90218 82.4585 4.90218 66.25V32.5H0.500005L0.5 100H68V32.5Z" fill="#00E2C5"/>
</g>
<defs>
<clipPath id="clip0_10406_5221">
<rect width="100" height="100" fill="white"/>
</clipPath>
</defs>
</svg>
