<svg width="100" height="100" viewBox="0 0 100 100" fill="none" xmlns="http://www.w3.org/2000/svg">
<g clip-path="url(#clip0_10244_7766)">
<path fill-rule="evenodd" clip-rule="evenodd" d="M0 0H22C35.8071 0 47 11.1929 47 25V100H25C11.1929 100 0 88.807 0 75V0ZM45 98V25C45 12.2975 34.7025 2 22 2H2V75C2 87.7024 12.2975 98 25 98H45ZM78 2C65.2976 2 55 12.2975 55 25V98H75C87.7024 98 98 87.7024 98 75V2H78ZM78 0C64.193 0 53 11.1929 53 25V100H75C88.807 100 100 88.807 100 75V0H78Z" fill="#00E2C5"/>
</g>
<defs>
<clipPath id="clip0_10244_7766">
<rect width="100" height="100" fill="white"/>
</clipPath>
</defs>
</svg>
