<svg width="100" height="100" viewBox="0 0 100 100" fill="none" xmlns="http://www.w3.org/2000/svg">
<g clip-path="url(#clip0_10255_8312)">
<path d="M97.3205 56.2302L87.5605 52.5602L97.7005 50.1402C99.1405 49.8002 100.081 48.5202 99.9905 47.0402C99.9005 45.5602 98.8006 44.4102 97.3306 44.2502L86.9706 43.1202L96.1906 38.2502C97.5006 37.5602 98.1005 36.0902 97.6405 34.6802C97.1805 33.2702 95.8406 32.4302 94.3706 32.6402L84.0605 34.1302L91.7906 27.1102C92.8906 26.1102 93.1006 24.5402 92.3006 23.2902C91.5006 22.0402 90.0006 21.5602 88.6206 22.1302L79.0005 26.1402L84.7405 17.4202C85.5605 16.1802 85.3706 14.6002 84.2906 13.5902C83.2106 12.5802 81.6306 12.4902 80.4406 13.3902L72.1206 19.6702L75.5106 9.80023C75.9906 8.40023 75.4206 6.92023 74.1206 6.20023C72.8206 5.49023 71.2705 5.80023 70.3405 6.96023L63.8506 15.1102L64.6906 4.71023C64.8106 3.23023 63.8906 1.94023 62.4506 1.57023C61.0106 1.20023 59.5906 1.89023 58.9806 3.24023L54.7106 12.7502L52.9406 2.47023C52.6906 1.01023 51.4806 -0.00976562 49.9906 -0.00976562C48.5006 -0.00976562 47.2906 1.01023 47.0406 2.47023L45.2706 12.7502L41.0006 3.24023C40.3906 1.89023 38.9706 1.20023 37.5306 1.57023C36.0906 1.94023 35.1706 3.23023 35.2906 4.71023L36.1306 15.1102L29.6306 6.96023C28.7106 5.80023 27.1506 5.49023 25.8506 6.20023C24.5506 6.91023 23.9806 8.39023 24.4606 9.80023L27.8506 19.6702L19.5306 13.3902C18.3506 12.5002 16.7606 12.5802 15.6806 13.5902C14.6006 14.6102 14.4106 16.1802 15.2306 17.4202L20.9706 26.1402L11.3506 22.1302C9.98055 21.5602 8.47055 22.0302 7.68055 23.2902C6.88055 24.5402 7.09055 26.1102 8.19055 27.1102L15.9106 34.1302L5.60055 32.6402C4.13055 32.4302 2.79055 33.2702 2.33055 34.6802C1.87055 36.0902 2.47055 37.5602 3.78055 38.2502L13.0006 43.1202L2.64055 44.2502C1.17055 44.4102 0.0705524 45.5602 -0.0194476 47.0402C-0.109448 48.5202 0.830552 49.8002 2.27055 50.1402L12.4106 52.5602L2.65055 56.2302C1.26055 56.7502 0.490552 58.1402 0.770552 59.5902C1.05055 61.0502 2.29055 62.0002 3.76055 62.0202L14.1806 61.8402L5.64055 67.8302C4.43055 68.6802 4.02055 70.2202 4.65055 71.5602C5.28055 72.9002 6.72055 73.5602 8.15055 73.1702L18.1906 70.4002L11.4106 78.3302C10.4406 79.4602 10.4306 81.0402 11.3806 82.1902C12.3306 83.3302 13.8806 83.6102 15.1706 82.8802L24.2106 77.6902L19.6106 87.0602C18.9606 88.3902 19.3406 89.9302 20.5406 90.8002C21.7406 91.6702 23.3206 91.5502 24.3806 90.5202L31.8406 83.2502L29.7106 93.4702C29.4106 94.9202 30.1606 96.3202 31.5406 96.8702C32.9206 97.4102 34.4206 96.9102 35.1906 95.6402L40.6106 86.7402L41.0806 97.1602C41.1506 98.6402 42.2206 99.8102 43.6906 99.9902C45.1606 100.18 46.4906 99.3102 46.9306 97.8902L49.9706 87.9102L53.0106 97.8902C53.4006 99.1802 54.5406 100.01 55.8506 100.01C55.9806 100.01 56.1106 100.01 56.2506 99.9802C57.7206 99.7902 58.8006 98.6302 58.8606 97.1502L59.3306 86.7202L64.7505 95.6302C65.5205 96.9002 67.0206 97.4002 68.4006 96.8602C69.7806 96.3102 70.5306 94.9202 70.2306 93.4602L68.1005 83.2402L75.5605 90.5102C76.6205 91.5402 78.2006 91.6602 79.4006 90.7902C80.6006 89.9202 80.9806 88.3802 80.3306 87.0502L75.7306 77.6802L84.7705 82.8702C86.0605 83.6102 87.6205 83.3302 88.5605 82.1802C89.5105 81.0402 89.5005 79.4502 88.5305 78.3202L81.7405 70.3902L91.7906 73.1602C93.2206 73.5502 94.6606 72.8902 95.2906 71.5502C95.9206 70.2102 95.5206 68.6702 94.3006 67.8202L85.7606 61.8302L96.1805 62.0102H96.2405C97.7005 62.0102 98.9005 61.0202 99.1705 59.5802C99.4505 58.1202 98.6706 56.7402 97.2906 56.2202L97.3205 56.2302ZM96.2505 60.1002L83.0406 59.8702C81.9906 59.8502 81.5506 61.2102 82.4106 61.8202L93.2306 69.4102C94.2106 70.1002 93.4906 71.6402 92.3306 71.3202L79.5905 67.8002C78.5705 67.5202 77.8105 68.7302 78.5005 69.5302L87.1005 79.5802C87.8805 80.4902 86.8006 81.8002 85.7606 81.2002L74.3006 74.6202C73.3906 74.1002 72.3505 75.0702 72.8105 76.0202L78.6405 87.9002C79.1705 88.9802 77.8006 89.9802 76.9406 89.1402L67.4706 79.9102C66.7206 79.1702 65.4705 79.8602 65.6805 80.9002L68.3805 93.8602C68.6305 95.0402 67.0505 95.6602 66.4205 94.6402L59.5406 83.3402C58.9906 82.4402 57.6106 82.7902 57.5606 83.8502L56.9606 97.0702C56.9106 98.2702 55.2206 98.4802 54.8706 97.3302L51.0106 84.6702C50.7006 83.6602 49.2806 83.6602 48.9706 84.6702L45.1106 97.3302C44.7606 98.4802 43.0806 98.2702 43.0206 97.0702L42.4206 83.8502C42.3706 82.8002 40.9906 82.4402 40.4406 83.3402L33.5606 94.6402C32.9406 95.6602 31.3606 95.0402 31.6006 93.8602L34.3006 80.9002C34.5206 79.8702 33.2706 79.1802 32.5106 79.9102L23.0406 89.1402C22.1806 89.9802 20.8106 88.9802 21.3406 87.9002L27.1706 76.0202C27.6406 75.0702 26.6006 74.1002 25.6806 74.6202L14.2206 81.2002C13.1806 81.8002 12.1006 80.4902 12.8806 79.5802L21.4806 69.5302C22.1706 68.7302 21.4006 67.5202 20.3906 67.8002L7.65055 71.3202C6.49055 71.6402 5.77055 70.1002 6.75055 69.4102L17.5706 61.8202C18.4306 61.2102 17.9906 59.8602 16.9406 59.8702L3.73055 60.1002C2.53055 60.1202 2.21055 58.4502 3.34055 58.0302L15.7106 53.3702C16.7006 53.0002 16.6106 51.5702 15.5806 51.3302L2.73055 48.2602C1.56055 47.9802 1.67055 46.2902 2.86055 46.1602L16.0006 44.7302C17.0506 44.6202 17.3106 43.2102 16.3806 42.7202L4.69055 36.5502C3.63055 35.9902 4.15055 34.3702 5.34055 34.5502L18.4206 36.4402C19.4606 36.5902 20.0706 35.3002 19.2906 34.5902L9.50055 25.7002C8.61055 24.8902 9.52055 23.4602 10.6306 23.9202L22.8306 29.0102C23.8006 29.4202 24.7106 28.3102 24.1306 27.4302L16.8606 16.3802C16.2006 15.3802 17.4406 14.2102 18.3906 14.9402L28.9406 22.9102C29.7806 23.5502 30.9406 22.7102 30.5906 21.7102L26.2906 9.19023C25.9006 8.05023 27.3906 7.24023 28.1306 8.17023L36.3706 18.5202C37.0306 19.3402 38.3506 18.8202 38.2706 17.7702L37.2106 4.57023C37.1106 3.37023 38.7606 2.95023 39.2506 4.05023L44.6606 16.1302C45.0906 17.0902 46.5106 16.9102 46.6906 15.8702L48.9406 2.82023C49.1406 1.64023 50.8406 1.64023 51.0406 2.82023L53.2906 15.8702C53.4706 16.9102 54.8806 17.0902 55.3206 16.1302L60.7306 4.05023C61.2206 2.95023 62.8606 3.38023 62.7706 4.57023L61.7106 17.7702C61.6306 18.8202 62.9506 19.3502 63.6106 18.5202L71.8505 8.17023C72.6005 7.23023 74.0806 8.05023 73.6906 9.19023L69.3905 21.7102C69.0505 22.7102 70.2006 23.5502 71.0406 22.9102L81.5905 14.9402C82.5505 14.2202 83.7806 15.3802 83.1206 16.3802L75.8505 27.4302C75.2705 28.3102 76.1806 29.4102 77.1506 29.0102L89.3505 23.9202C90.4605 23.4602 91.3706 24.8902 90.4806 25.7002L80.6906 34.5902C79.9106 35.3002 80.5205 36.5902 81.5605 36.4402L94.6405 34.5502C95.8305 34.3802 96.3506 35.9902 95.2906 36.5502L83.6005 42.7202C82.6705 43.2102 82.9406 44.6202 83.9806 44.7302L97.1206 46.1602C98.3106 46.2902 98.4205 47.9902 97.2505 48.2602L84.4006 51.3302C83.3706 51.5702 83.2905 53.0002 84.2705 53.3702L96.6405 58.0302C97.7605 58.4502 97.4405 60.1202 96.2505 60.1002Z" fill="#00E2C5"/>
</g>
<defs>
<clipPath id="clip0_10255_8312">
<rect width="100" height="100" fill="white"/>
</clipPath>
</defs>
</svg>
