<svg width="100" height="100" viewBox="0 0 100 100" fill="none" xmlns="http://www.w3.org/2000/svg">
<g clip-path="url(#clip0_10406_5307)">
<path fill-rule="evenodd" clip-rule="evenodd" d="M10.4738 2.63231C6.61655 -13.7301 -7.6801 -26.0626 -25 -26.9489C-25.6624 -26.9828 -26.3292 -27 -27 -27C-27 -26.3292 -26.9828 -25.6624 -26.9489 -25C-26.0626 -7.68004 -13.7301 6.61656 2.63232 10.4738C4.85346 10.9974 7.14886 11.3286 9.49997 11.4489C9.49999 11.4489 9.50001 11.4489 9.50003 11.4489C10.1624 11.4828 10.8292 11.5 11.5 11.5C10.8292 11.5 10.1624 11.5172 9.50003 11.5511C9.50001 11.5511 9.49999 11.5511 9.49997 11.5511C7.14886 11.6714 4.85346 12.0026 2.63232 12.5262C-13.7301 16.3834 -26.0626 30.68 -26.9489 48C-26.9489 48 -26.9489 48 -26.9489 48C-26.9828 48.6624 -27 49.3292 -27 50C-27 50.6708 -26.9828 51.3376 -26.9489 52C-26.9489 52 -26.9489 52 -26.9489 52C-26.0626 69.3198 -13.7301 83.6165 2.63234 87.4738C4.85347 87.9974 7.14886 88.3286 9.49997 88.4489C9.49999 88.4489 9.50001 88.4489 9.50003 88.4489C10.1624 88.4828 10.8292 88.5 11.5 88.5C10.8292 88.5 10.1624 88.5172 9.50003 88.5511C9.50001 88.5511 9.49999 88.5511 9.49997 88.5511C7.14886 88.6714 4.85347 89.0026 2.63234 89.5262C-13.7301 93.3834 -26.0626 107.68 -26.9489 125C-26.9828 125.662 -27 126.329 -27 127C-26.3292 127 -25.6624 126.983 -25 126.949C-7.6801 126.063 6.61655 113.73 10.4738 97.3677C10.9974 95.1465 11.3286 92.8512 11.4489 90.5C11.4489 90.5 11.4489 90.5 11.4489 90.5C11.4828 89.8376 11.5 89.1708 11.5 88.5C11.5 89.1708 11.5172 89.8376 11.5511 90.5C11.5511 90.5 11.5511 90.5 11.5511 90.5C11.6714 92.8512 12.0026 95.1465 12.5262 97.3677C16.3835 113.73 30.6802 126.063 48 126.949C48.6624 126.983 49.3292 127 50 127C50.6708 127 51.3376 126.983 52 126.949C69.3198 126.063 83.6165 113.73 87.4738 97.3677C87.9974 95.1465 88.3286 92.8511 88.4489 90.5C88.4489 90.5 88.4489 90.5 88.4489 90.5C88.4828 89.8376 88.5 89.1708 88.5 88.5C88.5 89.1708 88.5172 89.8376 88.551 90.5C88.551 90.5 88.5511 90.5 88.5511 90.5C88.6714 92.8512 89.0026 95.1465 89.5262 97.3677C93.3834 113.73 107.68 126.063 125 126.949C125.662 126.983 126.329 127 127 127C127 126.329 126.983 125.662 126.949 125C126.063 107.68 113.73 93.3834 97.3677 89.5262C95.1465 89.0026 92.8512 88.6714 90.5 88.5511C90.5 88.5511 90.5 88.551 90.5 88.551C89.8376 88.5172 89.1708 88.5 88.5 88.5C89.1708 88.5 89.8376 88.4828 90.5 88.4489C90.5 88.4489 90.5 88.4489 90.5 88.4489C92.8511 88.3286 95.1465 87.9974 97.3677 87.4738C113.73 83.6165 126.063 69.3198 126.949 52C126.983 51.3376 127 50.6708 127 50C127 49.3292 126.983 48.6624 126.949 48C126.063 30.68 113.73 16.3834 97.3677 12.5262C95.1466 12.0026 92.8512 11.6714 90.5 11.5511C90.5 11.5511 90.5 11.5511 90.5 11.5511C89.8376 11.5172 89.1708 11.5 88.5 11.5C89.1708 11.5 89.8376 11.4828 90.5 11.4489C90.5 11.4489 90.5 11.4489 90.5 11.4489C92.8512 11.3286 95.1466 10.9974 97.3677 10.4738C113.73 6.61656 126.063 -7.68005 126.949 -25C126.983 -25.6624 127 -26.3292 127 -27C126.329 -27 125.662 -26.9828 125 -26.9489C107.68 -26.0626 93.3834 -13.7301 89.5262 2.63232C89.0026 4.85345 88.6714 7.14886 88.5511 9.49997C88.5511 9.49999 88.551 9.50001 88.551 9.50003C88.5172 10.1624 88.5 10.8292 88.5 11.5C88.5 10.8292 88.4828 10.1624 88.4489 9.50003C88.4489 9.50001 88.4489 9.49999 88.4489 9.49997C88.3286 7.14886 87.9974 4.85346 87.4738 2.63232C83.6165 -13.7301 69.3198 -26.0626 52 -26.9489C52 -26.9489 52 -26.9489 52 -26.9489C51.3376 -26.9828 50.6708 -27 50 -27C49.3292 -27 48.6624 -26.9828 48 -26.9489C48 -26.9489 48 -26.9489 48 -26.9489C30.6801 -26.0626 16.3835 -13.7301 12.5262 2.63231C12.0026 4.85345 11.6714 7.14886 11.5511 9.49997C11.5511 9.49999 11.5511 9.50001 11.5511 9.50003C11.5172 10.1624 11.5 10.8292 11.5 11.5C11.5 10.8292 11.4828 10.1624 11.4489 9.50003C11.4489 9.50001 11.4489 9.49999 11.4489 9.49997C11.3286 7.14885 10.9974 4.85345 10.4738 2.63231ZM-24.943 -24.943C-6.42244 -23.9141 8.41414 -9.07762 9.44301 9.44301C-9.07757 8.41414 -23.9141 -6.42238 -24.943 -24.943ZM13.5 11.4489C12.8376 11.4828 12.1708 11.5 11.5 11.5C11.5 12.1708 11.4828 12.8376 11.4489 13.5C11.4489 13.5 11.4489 13.5 11.4489 13.5C11.3286 15.8511 10.9974 18.1465 10.4738 20.3677C7.14016 34.509 -3.99104 45.6402 -18.1323 48.9738C-20.3535 49.4974 -22.6489 49.8286 -25 49.9489C-25.6624 49.9828 -26.3292 50 -27 50C-26.3292 50 -25.6624 50.0172 -25 50.0511C-22.6489 50.1714 -20.3535 50.5026 -18.1323 51.0262C-3.99104 54.3599 7.14016 65.4911 10.4738 79.6324C10.9974 81.8535 11.3286 84.1489 11.4489 86.5C11.4489 86.5 11.4489 86.5 11.4489 86.5C11.4828 87.1624 11.5 87.8292 11.5 88.5C12.1708 88.5 12.8376 88.5172 13.5 88.5511C13.5 88.5511 13.5 88.5511 13.5 88.5511C15.8511 88.6714 18.1465 89.0026 20.3676 89.5262C34.5089 92.8598 45.6402 103.991 48.9738 118.132C49.4974 120.353 49.8286 122.649 49.9489 125C49.9828 125.662 50 126.329 50 127C50 126.329 50.0172 125.662 50.0511 125C50.1714 122.649 50.5026 120.353 51.0262 118.132C54.3599 103.991 65.4911 92.8598 79.6324 89.5262C81.8535 89.0026 84.1489 88.6714 86.5 88.5511C86.5 88.5511 86.5 88.5511 86.5 88.5511C87.1624 88.5172 87.8292 88.5 88.5 88.5C88.5 87.8292 88.5172 87.1624 88.5511 86.5C88.5511 86.5 88.5511 86.5 88.5511 86.5C88.6714 84.1489 89.0026 81.8535 89.5262 79.6324C92.8598 65.4911 103.991 54.3599 118.132 51.0262C120.353 50.5026 122.649 50.1714 125 50.0511C125.662 50.0172 126.329 50 127 50C126.329 50 125.662 49.9828 125 49.9489C122.649 49.8286 120.353 49.4974 118.132 48.9738C103.991 45.6402 92.8598 34.509 89.5262 20.3677C89.0026 18.1465 88.6714 15.8511 88.5511 13.5C88.5511 13.5 88.551 13.5 88.551 13.5C88.5172 12.8376 88.5 12.1708 88.5 11.5C87.8292 11.5 87.1624 11.4828 86.5 11.4489C86.5 11.4489 86.5 11.4489 86.5 11.4489C84.1489 11.3286 81.8535 10.9974 79.6324 10.4738C65.4911 7.14016 54.3599 -3.991 51.0262 -18.1323C50.5026 -20.3535 50.1714 -22.6489 50.0511 -25C50.0172 -25.6624 50 -26.3292 50 -27C50 -26.3292 49.9828 -25.6624 49.9489 -25C49.8286 -22.6489 49.4974 -20.3535 48.9738 -18.1323C45.6402 -3.991 34.509 7.14016 20.3677 10.4738C18.1465 10.9974 15.8511 11.3286 13.5 11.4489C13.5 11.4489 13.5 11.4489 13.5 11.4489ZM13.5 11.5511C12.8376 11.5172 12.1708 11.5 11.5 11.5C11.5 12.1708 11.5172 12.8376 11.5511 13.5C11.5511 13.5 11.5511 13.5 11.5511 13.5C11.6714 15.8511 12.0026 18.1465 12.5262 20.3677C15.8599 34.509 26.9911 45.6402 41.1323 48.9738C43.3535 49.4974 45.6489 49.8286 48 49.9489C48 49.9489 48 49.9489 48 49.9489C48.6624 49.9828 49.3292 50 50 50C49.3292 50 48.6624 50.0172 48 50.0511C48 50.0511 48 50.0511 48 50.0511C45.6489 50.1714 43.3535 50.5026 41.1324 51.0262C26.9911 54.3599 15.8599 65.4911 12.5262 79.6324C12.0026 81.8535 11.6714 84.1489 11.5511 86.5C11.5511 86.5 11.5511 86.5 11.5511 86.5C11.5172 87.1624 11.5 87.8292 11.5 88.5C12.1708 88.5 12.8376 88.4828 13.5 88.4489C13.5 88.4489 13.5 88.4489 13.5 88.4489C15.8511 88.3286 18.1465 87.9974 20.3676 87.4738C34.5089 84.1401 45.6402 73.0089 48.9738 58.8676C49.4974 56.6465 49.8286 54.3511 49.9489 52C49.9489 52 49.9489 52 49.9489 52C49.9828 51.3376 50 50.6708 50 50C50 50.6708 50.0172 51.3376 50.0511 52C50.0511 52 50.0511 52 50.0511 52C50.1714 54.3511 50.5026 56.6465 51.0262 58.8676C54.3599 73.0089 65.4911 84.1401 79.6324 87.4738C81.8535 87.9974 84.1489 88.3286 86.5 88.4489C86.5 88.4489 86.5 88.4489 86.5 88.4489C87.1624 88.4828 87.8292 88.5 88.5 88.5C88.5 87.8292 88.4828 87.1624 88.4489 86.5C88.4489 86.5 88.4489 86.5 88.4489 86.5C88.3286 84.1489 87.9974 81.8535 87.4738 79.6324C84.1401 65.4911 73.0089 54.3599 58.8676 51.0262C56.6465 50.5026 54.3511 50.1714 52 50.0511C52 50.0511 52 50.0511 52 50.0511C51.3376 50.0172 50.6708 50 50 50C50.6708 50 51.3376 49.9828 52 49.9489C52 49.9489 52 49.9489 52 49.9489C54.3511 49.8286 56.6465 49.4974 58.8676 48.9738C73.0089 45.6402 84.1401 34.509 87.4738 20.3677C87.9974 18.1465 88.3286 15.8511 88.4489 13.5C88.4489 13.5 88.4489 13.5 88.4489 13.5C88.4828 12.8376 88.5 12.1708 88.5 11.5C87.8292 11.5 87.1624 11.5172 86.5 11.5511C86.5 11.5511 86.5 11.5511 86.5 11.5511C84.1489 11.6714 81.8535 12.0026 79.6324 12.5262C65.4911 15.8598 54.3599 26.991 51.0262 41.1323C50.5026 43.3535 50.1714 45.6489 50.0511 48C50.0511 48 50.0511 48 50.0511 48C50.0172 48.6624 50 49.3292 50 50C50 49.3292 49.9828 48.6624 49.9489 48C49.9489 48 49.9489 48 49.9489 48C49.8286 45.6489 49.4974 43.3535 48.9738 41.1323C45.6402 26.991 34.509 15.8598 20.3677 12.5262C18.1465 12.0026 15.8511 11.6714 13.5 11.5511C13.5 11.5511 13.5 11.5511 13.5 11.5511ZM13.557 13.557C32.0775 14.5859 46.9141 29.4224 47.943 47.943C29.4225 46.9141 14.5859 32.0776 13.557 13.557ZM52.057 47.943C53.0859 29.4224 67.9225 14.5859 86.443 13.557C85.4141 32.0776 70.5775 46.9141 52.057 47.943ZM52.057 52.057C70.5774 53.0859 85.4141 67.9226 86.443 86.443C67.9226 85.4141 53.0859 70.5774 52.057 52.057ZM47.943 52.057C46.9141 70.5775 32.0775 85.4141 13.557 86.443C14.5859 67.9226 29.4225 53.0859 47.943 52.057ZM47.943 -24.943C46.9141 -6.42238 32.0775 8.41414 13.557 9.44301C14.5859 -9.07762 29.4225 -23.9141 47.943 -24.943ZM86.443 9.44301C67.9225 8.41413 53.0859 -6.42239 52.057 -24.943C70.5775 -23.9141 85.4141 -9.07762 86.443 9.44301ZM124.943 47.943C106.422 46.9141 91.5859 32.0776 90.557 13.557C109.078 14.5859 123.914 29.4224 124.943 47.943ZM90.557 86.443C91.5859 67.9225 106.422 53.0859 124.943 52.057C123.914 70.5775 109.078 85.4141 90.557 86.443ZM52.057 124.943C53.0859 106.422 67.9225 91.5859 86.443 90.557C85.4141 109.078 70.5775 123.914 52.057 124.943ZM13.557 90.557C32.0775 91.5859 46.9141 106.422 47.943 124.943C29.4225 123.914 14.5859 109.078 13.557 90.557ZM-24.943 52.057C-6.42245 53.0859 8.41413 67.9226 9.44301 86.443C-9.07756 85.4141 -23.9141 70.5775 -24.943 52.057ZM9.44301 13.557C8.41414 32.0776 -6.42244 46.9141 -24.943 47.943C-23.9141 29.4224 -9.07757 14.5859 9.44301 13.557ZM90.557 9.44301C91.5859 -9.07763 106.422 -23.9141 124.943 -24.943C123.914 -6.42237 109.078 8.41414 90.557 9.44301ZM90.557 90.557C109.078 91.5859 123.914 106.422 124.943 124.943C106.422 123.914 91.5859 109.078 90.557 90.557ZM9.44301 90.557C8.41414 109.078 -6.42244 123.914 -24.943 124.943C-23.9141 106.422 -9.07757 91.5859 9.44301 90.557Z" fill="#00E2C5"/>
</g>
<defs>
<clipPath id="clip0_10406_5307">
<rect width="100" height="100" fill="white"/>
</clipPath>
</defs>
</svg>
