<svg width="101" height="100" viewBox="0 0 101 100" fill="none" xmlns="http://www.w3.org/2000/svg">
<path d="M86.7987 100H14.0987C11.1987 100 8.39866 98.7 6.69866 96.6C5.19866 94.7 4.59866 92.4 5.09866 90.1C6.79866 82.4 10.3987 75.3 15.5987 69.4C19.5987 64.8 20.5987 57.6 17.7987 51.7C15.4987 46.9 14.3987 41.7 14.3987 36.3C14.4987 16.3 30.7987 0 50.6987 0C70.5987 0 86.8987 16.3 86.8987 36.2C86.8987 41.7 85.6987 47 83.2987 51.9C80.4987 57.7 81.2987 65 85.2987 69.6C90.3987 75.4 93.8987 82.5 95.4987 90C95.9987 92.3 95.4987 94.6 93.8987 96.5C92.3987 98.7 89.6987 100 86.7987 100ZM50.6987 2C31.8987 2 16.4987 17.4 16.4987 36.2C16.4987 41.3 17.5987 46.2 19.6987 50.8C22.7987 57.3 21.6987 65.5 17.1987 70.7C12.1987 76.4 8.69866 83.2 7.09866 90.5C6.69866 92.2 7.09866 94 8.29866 95.4C9.59866 97 11.7987 98 14.0987 98H86.6987C88.9987 98 91.1987 97 92.4987 95.4C93.5987 94 93.9987 92.3 93.6987 90.5C92.0987 83.3 88.6987 76.6 83.8987 71C79.3987 65.8 78.3987 57.6 81.5987 51.1C83.7987 46.4 84.9987 41.4 84.9987 36.2C84.9987 17.4 69.5987 2 50.6987 2Z" fill="#00E2C5"/>
</svg>
