<svg width="208" height="54" viewBox="0 0 208 54" fill="none" xmlns="http://www.w3.org/2000/svg">
<path d="M2.02633 51.6923L0.550084 9.41804L15.9007 8.88199C30.172 8.38362 38.351 15.6626 38.8264 29.2743C39.2996 42.8261 31.6483 50.6579 17.377 51.1562L2.02633 51.6923ZM6.84835 47.0812L17.222 46.7189C28.2553 46.3336 34.2242 40.1816 33.8494 29.4481C33.4725 18.6547 27.089 12.934 16.0557 13.3193L5.682 13.6815L6.84835 47.0812ZM44.6425 50.2041L43.1663 7.92985L72.0687 6.92056L72.2236 11.3579L48.1783 12.1975L48.662 26.0491L70.3088 25.2932L70.4596 29.6105L48.8128 30.3665L49.3446 45.5972L73.9896 44.7366L74.1446 49.1739L44.6425 50.2041ZM94.5934 49.9607C84.8193 50.302 77.0504 44.4496 75.7873 35.7884L80.6729 34.7172C81.323 41.2985 87.0629 45.7809 94.4384 45.5234C101.094 45.291 105.048 41.6107 104.887 36.9935C104.757 33.2758 102.041 31.1493 95.8149 29.9258L88.9247 28.6055C81.3685 27.1283 77.7113 23.8339 77.5145 18.1974C77.2485 10.582 82.7587 5.04634 91.3934 4.74481C99.1287 4.47469 105.175 9.12652 106.621 16.1603L101.926 17.525C101.146 12.3891 97.0051 8.99156 91.6083 9.18001C85.8519 9.38104 82.3093 12.8068 82.4621 17.1841C82.5877 20.7819 84.9376 22.7411 90.3162 23.754L97.2065 25.0743C105.424 26.5884 109.636 30.2837 109.837 36.0402C110.107 43.7755 104.128 49.6277 94.5934 49.9607ZM114.474 47.7655L112.998 5.49128L117.975 5.31748L119.451 47.5917L114.474 47.7655ZM146.614 48.1441C133.842 48.5901 124.275 39.3784 123.818 26.3063C123.36 13.1743 132.141 3.32186 144.734 2.88213C153.129 2.58897 160.75 7.66607 163.529 15.0136L158.964 16.6739C156.784 10.9865 151.125 7.10165 144.829 7.32152C135.115 7.66074 128.423 15.459 128.795 26.1325C129.162 36.6261 136.745 44.046 146.879 43.6921C156.174 43.3675 163.31 36.2742 162.992 27.1597L139.486 27.9805L139.331 23.5432L167.934 22.5444L168.749 45.8702L164.551 46.0168L163.787 37.8785L163.727 37.8806C160.278 44.0047 154.17 47.8802 146.614 48.1441ZM174.117 45.6828L172.641 3.40852L179.296 3.17608L202.195 38.2783L202.315 38.2741L201.063 2.41597L206.1 2.24008L207.576 44.5143L200.92 44.7467L177.964 9.70658L177.844 9.71077L179.094 45.509L174.117 45.6828Z" fill="white" fill-opacity="0.7"/>
</svg>
