<svg width="261" height="56" viewBox="0 0 261 56" fill="none" xmlns="http://www.w3.org/2000/svg">
<path d="M1.99021 53.5443L0.51396 11.2701L15.8646 10.734C30.1359 10.2357 38.3149 17.5146 38.7903 31.1264C39.2635 44.6781 31.6122 52.5099 17.3409 53.0083L1.99021 53.5443ZM6.81222 48.9332L17.1859 48.571C28.2192 48.1857 34.1881 42.0336 33.8133 31.3002C33.4364 20.5067 27.0528 14.786 16.0196 15.1713L5.64588 15.5336L6.81222 48.9332ZM44.6064 52.0561L43.1302 9.78189L72.0326 8.7726L72.1875 13.2099L48.1422 14.0496L48.6259 27.9011L70.2727 27.1452L70.4234 31.4626L48.7766 32.2185L49.3085 47.4492L73.9535 46.5886L74.1084 51.0259L44.6064 52.0561ZM91.8665 50.4058L74.1402 8.699L79.417 8.51473L94.5542 44.8486L94.6741 44.8444L107.12 7.54731L112.397 7.36304L97.623 50.2047L91.8665 50.4058ZM117.483 49.5112L116.007 7.23698L144.909 6.22769L145.064 10.665L121.019 11.5047L121.503 25.3562L143.149 24.6003L143.3 28.9177L121.653 29.6736L122.185 44.9043L146.83 44.0437L146.985 48.481L117.483 49.5112ZM151.491 48.3236L150.015 6.04939L154.992 5.87559L156.313 43.7125L177.96 42.9566L178.115 47.3939L151.491 48.3236ZM199.752 48.1392C186.02 48.6188 176.712 39.9383 176.236 26.3266C175.759 12.655 184.439 3.34635 198.171 2.86683C211.963 2.38522 221.271 11.0656 221.749 24.7373C222.224 38.349 213.543 47.6576 199.752 48.1392ZM199.597 43.7019C210.33 43.3271 217.093 35.8266 216.712 24.9132C216.328 13.9399 209.059 6.92931 198.326 7.30413C187.592 7.67895 180.83 15.1795 181.213 26.1528C181.594 37.0662 188.863 44.0768 199.597 43.7019ZM227.589 45.6662L226.112 3.39201L243.442 2.78685C252.496 2.47066 258.979 7.58754 259.241 15.083C259.502 22.5784 253.33 28.0772 244.336 28.3912L231.864 28.8268L232.446 45.4966L227.589 45.6662ZM231.706 24.3295L244.179 23.894C250.235 23.6825 254.433 20.1138 254.264 15.2568C254.092 10.3398 249.713 7.01056 243.597 7.22415L231.124 7.65969L231.706 24.3295Z" fill="white" fill-opacity="0.7"/>
</svg>
