<svg width="100" height="100" viewBox="0 0 100 100" fill="none" xmlns="http://www.w3.org/2000/svg">
<path fill-rule="evenodd" clip-rule="evenodd" d="M32.3845 71.6197L32.3845 71.6198C37.0618 81.7325 43.8301 89.769 47.9088 94.0745L46.5312 95.3795L47.9088 94.0745C49.0798 95.3107 50.9217 95.3107 52.0928 94.0745C56.1713 89.769 62.9397 81.7325 67.6169 71.6198L67.6171 71.6194C68.4339 69.8548 69.8548 68.4339 71.6194 67.6171L71.6198 67.6169C81.7325 62.9397 89.769 56.1713 94.0745 52.0928C95.3107 50.9217 95.3107 49.0798 94.0745 47.9088L95.4499 46.4569C97.5189 48.4167 97.5189 51.5848 95.4499 53.5447C91.0639 57.6995 82.8469 64.6278 72.4594 69.4322C71.1251 70.0497 70.0497 71.1251 69.4322 72.4594C64.6278 82.8469 57.6995 91.0639 53.5447 95.4499C51.5848 97.5189 48.4167 97.5189 46.4569 95.4499C42.3019 91.0639 35.3736 82.8469 30.5693 72.4594C29.952 71.1251 28.8767 70.0497 27.5421 69.4322C17.1549 64.6278 8.93779 57.6995 4.55166 53.5447C2.48278 51.5848 2.48278 48.4167 4.55166 46.4569C8.93779 42.3019 17.1549 35.3736 27.5421 30.5693C28.8767 29.952 29.952 28.8767 30.5693 27.5421C35.3736 17.1549 42.3019 8.93779 46.4569 4.55166C48.4167 2.48278 51.5848 2.48278 53.5447 4.55166C57.6995 8.93779 64.6278 17.1549 69.4322 27.5421C70.0497 28.8767 71.1251 29.952 72.4594 30.5693C82.8469 35.3736 91.0639 42.3019 95.4499 46.4569L94.0745 47.9088C89.769 43.8301 81.7325 37.0618 71.6198 32.3845L71.6197 32.3844C69.8548 31.568 68.4338 30.147 67.6171 28.3821L67.6169 28.3817C62.9397 18.2693 56.1713 10.2327 52.0928 5.92707C50.9217 4.69095 49.0798 4.69099 47.9088 5.92709C43.8301 10.2327 37.0618 18.2693 32.3845 28.3817C31.568 30.147 30.1469 31.5681 28.3817 32.3845L27.637 30.7744L28.3817 32.3845C18.2693 37.0618 10.2327 43.8301 5.9271 47.9088C4.69098 49.0798 4.69095 50.9218 5.92711 52.0928M69.2777 50.0009C69.2777 60.647 60.647 69.2777 50.0009 69.2777C39.3546 69.2777 30.7241 60.647 30.7241 50.0009C30.7241 39.3545 39.3546 30.724 50.0009 30.724C60.647 30.724 69.2777 39.3545 69.2777 50.0009ZM67.2777 50.0009C67.2777 59.5424 59.5424 67.2777 50.0009 67.2777C40.4591 67.2777 32.7241 59.5424 32.7241 50.0009C32.7241 40.4591 40.4591 32.724 50.0009 32.724C59.5424 32.724 67.2777 40.4591 67.2777 50.0009Z" fill="#00E2C5"/>
</svg>
