<svg width="295" height="57" viewBox="0 0 295 57" fill="none" xmlns="http://www.w3.org/2000/svg">
<path d="M2.04617 54.9173L0.569921 12.6431L15.9206 12.107C30.1919 11.6087 38.3709 18.8876 38.8462 32.4993C39.3195 46.0511 31.6681 53.8829 17.3968 54.3813L2.04617 54.9173ZM6.86818 50.3062L17.2419 49.944C28.2751 49.5587 34.2441 43.4066 33.8692 32.6731C33.4923 21.8797 27.1088 16.159 16.0755 16.5443L5.70184 16.9066L6.86818 50.3062ZM44.6624 53.4291L43.1861 11.1549L48.1631 10.9811L49.6393 53.2553L44.6624 53.4291ZM72.1855 53.9689C62.4114 54.3102 54.6425 48.4578 53.3794 39.7966L58.265 38.7254C58.9151 45.3068 64.655 49.7892 72.0305 49.5316C78.6865 49.2992 82.6404 45.6189 82.4792 41.0018C82.3494 37.284 79.6335 35.1575 73.407 33.9341L66.5167 32.6137C58.9606 31.1365 55.3034 27.8422 55.1066 22.2056C54.8406 14.5902 60.3508 9.05457 68.9855 8.75304C76.7208 8.48291 82.7668 13.1347 84.2132 20.1686L79.518 21.5332C78.7383 16.3973 74.5972 12.9998 69.2004 13.1882C63.444 13.3893 59.9013 16.815 60.0542 21.1923C60.1798 24.7901 62.5297 26.7493 67.9083 27.7622L74.7986 29.0825C83.0164 30.5967 87.2279 34.2919 87.429 40.0484C87.6991 47.7837 81.7197 53.636 72.1855 53.9689ZM113.046 52.542C99.3143 53.0215 90.3117 44.5105 89.8301 30.719C89.3464 16.8674 97.1936 7.76799 110.146 7.31569C119.32 6.99531 126.657 12.5026 128.892 21.4901L124.195 22.7948C122.688 15.7631 117.256 11.5101 110.301 11.753C100.407 12.0985 94.4176 19.3919 94.8071 30.5452C95.2544 41.6363 102.277 48.4754 112.891 48.1047C121.346 47.8095 127.334 42.1971 128.298 33.6983L133.136 34.73C131.882 45.2202 124.079 52.1567 113.046 52.542ZM159.183 50.9309C145.451 51.4104 136.142 42.73 135.667 29.1183C135.19 15.4466 143.87 6.13801 157.602 5.65849C171.393 5.17688 180.702 13.8573 181.179 27.529C181.655 41.1407 172.974 50.4493 159.183 50.9309ZM159.028 46.4936C169.761 46.1188 176.523 38.6182 176.142 27.7049C175.759 16.7316 168.49 9.72097 157.757 10.0958C147.023 10.4706 140.261 17.9712 140.644 28.9445C141.025 39.8578 148.294 46.8684 159.028 46.4936ZM197.402 48.0953L179.676 6.38857L184.952 6.2043L200.09 42.5382L200.21 42.534L212.655 5.23688L217.932 5.05261L203.158 47.8943L197.402 48.0953ZM223.019 47.2008L221.542 4.92655L250.445 3.91726L250.6 8.35455L226.554 9.19424L227.038 23.0458L248.685 22.2899L248.836 26.6072L227.189 27.3632L227.721 42.5939L252.366 41.7333L252.521 46.1706L223.019 47.2008ZM287.65 46.1445C284.292 46.2618 282.302 44.2901 281.362 41.4411L278.474 32.6566C277.465 29.5699 274.931 27.497 272.053 27.5976L261.38 27.9703L262.004 45.8394L257.027 46.0132L255.55 3.73896L274.499 3.07727C283.254 2.77155 289.666 7.5907 289.913 14.6664C290.118 20.5428 285.898 25.1929 278.855 26.3994L278.858 26.4594C281.176 27.5191 282.686 29.5076 283.494 32.001L285.858 39.543C286.268 40.9696 287.144 41.9597 288.463 41.9136C289.842 41.8654 291.183 40.7379 292.084 39.0254L294.705 41.8757C293.05 44.335 290.588 46.0419 287.65 46.1445ZM261.225 23.533L275.196 23.0451C281.073 22.8399 285.099 19.5173 284.94 14.9601C284.781 10.4029 280.53 7.30935 274.654 7.51456L260.682 8.00246L261.225 23.533Z" fill="white" fill-opacity="0.7"/>
</svg>
