<svg width="100" height="100" viewBox="0 0 100 100" fill="none" xmlns="http://www.w3.org/2000/svg">
<g clip-path="url(#clip0_10406_5297)">
<path fill-rule="evenodd" clip-rule="evenodd" d="M48.9798 39.902C44.4388 17.7599 25.2608 0.954297 2 0.0392691C1.33657 0.0131714 0.669825 0 0 0V50V100H50H100V50V0C99.3302 0 98.6634 0.0131715 98 0.0392695C74.7394 0.954301 55.5612 17.7599 51.0202 39.902C50.4808 42.5319 50.148 45.2372 50.0393 48C50.0132 48.6634 50 49.3302 50 50C50 49.3302 49.9868 48.6634 49.9607 48C49.852 45.2372 49.5192 42.5319 48.9798 39.902ZM47.9591 48C46.9378 23.0811 26.9189 3.06224 2 2.04091V48H47.9591ZM0 50C0.669825 50 1.33657 50.0132 2 50.0393C6.16669 50.2032 10.2024 50.877 14.0464 52C31.6619 57.1463 45.2523 71.7264 48.9798 89.9021C49.5192 92.532 49.852 95.2372 49.9607 98C49.9868 98.6634 50 99.3302 50 100C50 99.3302 50.0132 98.6634 50.0393 98C50.148 95.2372 50.4808 92.532 51.0202 89.9021C54.7478 71.7264 68.3383 57.1463 85.9537 52C89.7977 50.877 93.8334 50.2032 98 50.0393C98.6634 50.0132 99.3302 50 100 50H50H0ZM52.0409 48H98V2.04091C73.0813 3.06225 53.0623 23.0811 52.0409 48ZM98 52.0409C73.0813 53.0623 53.0623 73.0813 52.0409 98H98V52.0409ZM47.9591 98C46.9378 73.0813 26.9189 53.0623 2 52.0409V98H47.9591Z" fill="#00E2C5"/>
</g>
<defs>
<clipPath id="clip0_10406_5297">
<rect width="100" height="100" fill="white"/>
</clipPath>
</defs>
</svg>
