<svg width="100" height="100" viewBox="0 0 100 100" fill="none" xmlns="http://www.w3.org/2000/svg">
<g clip-path="url(#clip0_10244_7791)">
<path fill-rule="evenodd" clip-rule="evenodd" d="M51.7432 42.8199L51.7432 42.8198L73.0222 4.98033L74.7655 5.96065L53.4865 43.8002C51.9575 46.5193 48.0426 46.5193 46.5135 43.8002L25.2343 5.96065C23.7348 3.29426 25.6617 3.98801e-06 28.7208 2.83658e-06L71.279 0C74.3385 0 76.265 3.29425 74.7655 5.96065L73.0223 4.9803C73.7721 3.64699 72.8088 2 71.279 2L28.7208 2C27.1912 2 26.2278 3.64714 26.9776 4.9803L26.9776 4.98032L48.2568 42.8198C49.0213 44.1794 50.9788 44.1793 51.7432 42.8199ZM43.8002 53.4865C46.5193 51.9575 46.5193 48.0425 43.8002 46.5135L5.96066 25.2342C3.29425 23.7348 1.994e-06 25.6617 0 28.7208V71.279C0 74.3385 3.29425 76.265 5.96066 74.7655L43.8002 53.4865ZM53.4865 56.2C51.9575 53.4805 48.0426 53.481 46.5135 56.2L25.2343 94.0395C23.7349 96.706 25.6617 100 28.7208 100H71.279C74.3385 100 76.265 96.7055 74.7655 94.0395L53.4865 56.2ZM56.2 46.5135C53.4805 48.0426 53.4805 51.9575 56.2 53.4865L94.0395 74.7655C96.706 76.265 100 74.3385 100 71.279V28.7208C100 25.6618 96.7055 23.7348 94.0395 25.2344L56.2 46.5135ZM48.2568 57.1804L26.9776 95.0198C26.2278 96.3531 27.1912 98 28.7208 98H71.279C72.8089 98 73.772 96.3527 73.0223 95.02L73.0222 95.0198L51.7432 57.1803L51.7432 57.1802C50.9789 55.8208 49.0215 55.8205 48.2568 57.1804ZM42.8198 51.7432L42.8199 51.7432C44.1793 50.9788 44.1794 49.0213 42.8198 48.2567L4.98033 26.9775C3.64711 26.2278 2 27.1912 2 28.7208L2 71.279C2 72.8088 3.64699 73.7721 4.98031 73.0223L5.96066 74.7655L4.98034 73.0222L42.8198 51.7432ZM57.1803 48.2568L57.1803 48.2568C55.8204 49.0215 55.8205 50.9787 57.1802 51.7432L57.1803 51.7432L95.0198 73.0222C96.3532 73.772 98 72.8089 98 71.279V28.7208C98 27.1912 96.3526 26.228 95.02 26.9775L95.0198 26.9776L57.1803 48.2568Z" fill="#00E2C5"/>
</g>
<defs>
<clipPath id="clip0_10244_7791">
<rect width="100" height="100" fill="white"/>
</clipPath>
</defs>
</svg>
