<svg width="100" height="100" viewBox="0 0 100 100" fill="none" xmlns="http://www.w3.org/2000/svg">
<g clip-path="url(#clip0_10244_7732)">
<path fill-rule="evenodd" clip-rule="evenodd" d="M45 16V1.96701e-06L0 0V45H16V27.3137L38.6863 50L16 72.6865V55H2.64937e-06L1.4572e-07 100H45V84H27.3137L50 61.3135L72.6865 84H55V100H100V55H84V72.6865L61.3135 50L84 27.3137V45H100V2.84563e-06L55 0V16H72.6865L50 38.6863L27.3137 16H45ZM57 14H77.5149L58.5347 32.9802L50 41.5147L22.4853 14H43V2L2 2L2 43H14V22.4853L41.5147 50L32.9802 58.5347L14 77.5149V57H2L2 98H43V86H22.4853L50 58.4851L77.5149 86H57V98H98V57H86V77.5149L58.4851 50L86 22.4853V43H98V2L57 2V14Z" fill="#00E2C5"/>
</g>
<defs>
<clipPath id="clip0_10244_7732">
<rect width="100" height="100" fill="white"/>
</clipPath>
</defs>
</svg>
