<svg width="100" height="100" viewBox="0 0 100 100" fill="none" xmlns="http://www.w3.org/2000/svg">
<g clip-path="url(#clip0_10244_8142)">
<path fill-rule="evenodd" clip-rule="evenodd" d="M50 98.0004C68.2119 98.0004 83 83.1264 83 64.7484C83 56.0887 78.9121 46.3864 72.7233 36.0512C67.6237 27.5349 61.2408 18.8119 54.8692 10.1042C53.5311 8.27559 52.1936 6.44765 50.8685 4.62245C50.4569 4.05546 49.5976 4.05674 49.1874 4.6349C47.3602 7.20981 45.4912 9.7971 43.6182 12.39C37.9323 20.2614 32.2089 28.1848 27.5009 35.9718C21.2249 46.3523 17 56.1131 17 64.7484C17 83.1264 31.7881 98.0004 50 98.0004ZM50 100C69.33 100 85 84.2174 85 64.7484C85 47.8924 70.5436 28.137 56.4646 8.89735C55.1311 7.07513 53.8011 5.25753 52.487 3.44747C51.269 1.76974 48.7561 1.78669 47.5563 3.47747C45.7525 6.01936 43.8989 8.5854 42.0351 11.1655C28.775 29.5218 15 48.591 15 64.7484C15 84.2174 30.67 100 50 100Z" fill="#00E2C5"/>
</g>
<defs>
<clipPath id="clip0_10244_8142">
<rect width="100" height="100" fill="white"/>
</clipPath>
</defs>
</svg>
