<svg width="100" height="100" viewBox="0 0 100 100" fill="none" xmlns="http://www.w3.org/2000/svg">
<path fill-rule="evenodd" clip-rule="evenodd" d="M96.9582 71.5C95.9104 46.4703 75.2871 26.5 50 26.5C24.7126 26.5 4.08961 46.4703 3.04178 71.5C3.01402 72.1632 3 72.83 3 73.5H29.4375C29.4375 62.1439 38.6436 52.9375 50 52.9375C61.3561 52.9375 70.5625 62.1439 70.5625 73.5H97C97 72.83 96.986 72.1632 96.9582 71.5ZM94.9564 71.5C93.91 47.5752 74.1824 28.5 50 28.5C25.8174 28.5 6.09001 47.5752 5.04365 71.5H27.5249C28.5372 59.9761 38.213 50.9375 50 50.9375C61.7867 50.9375 71.4628 59.9761 72.4751 71.5H94.9564Z" fill="#005BFF"/>
</svg>
