<svg width="100" height="100" viewBox="0 0 100 100" fill="none" xmlns="http://www.w3.org/2000/svg">
<g clip-path="url(#clip0_10357_9099)">
<path fill-rule="evenodd" clip-rule="evenodd" d="M66.0494 81.4431L69.1341 78.9658C76.1152 85.419 81.9042 89.5133 86.2129 91.6361C88.3756 92.7016 90.06 93.2175 91.2706 93.3443C92.4974 93.4728 92.93 93.1825 93.0572 93.0553C93.1843 92.928 93.4746 92.4952 93.3459 91.2683C93.2189 90.0575 92.7028 88.3731 91.6371 86.2106C89.5138 81.9021 85.4191 76.1139 78.966 69.1342L81.4431 66.0494C84.44 67.7996 86.8487 68.26 88.7371 68.0149C90.6036 67.7727 92.2175 66.8088 93.5895 65.2064C96.4142 61.9073 98.0001 56.1119 98.0001 50.003C98.0001 43.8942 96.4142 38.0988 93.5895 34.7997C92.2175 33.1973 90.6036 32.2333 88.7371 31.9911C86.8487 31.7461 84.44 32.2065 81.4431 33.9567L78.9661 30.8717C85.4192 23.8937 89.5138 18.1058 91.637 13.7971C92.7027 11.6345 93.2189 9.94979 93.3459 8.73856C93.4746 7.51123 93.1844 7.07743 93.0566 6.94952C92.929 6.82183 92.4962 6.5314 91.2699 6.65935C90.0594 6.78565 88.3751 7.30094 86.2126 8.3659C81.9041 10.4876 76.1152 14.5812 69.1341 21.0343L66.0494 18.557C67.7996 15.5601 68.26 13.1514 68.0149 11.263C67.7727 9.39648 66.8088 7.78263 65.2064 6.41062C61.9073 3.58595 56.1119 2 50.003 2C43.8942 2 38.0988 3.58595 34.7997 6.41062C33.1973 7.78263 32.2333 9.39648 31.9911 11.263C31.7461 13.1514 32.2065 15.5601 33.9567 18.557L30.8717 21.034C23.8937 14.581 18.1059 10.4867 13.7973 8.36407C11.6348 7.29867 9.95012 6.78285 8.73901 6.65614C7.51192 6.52777 7.07804 6.81803 6.94988 6.94612C6.82181 7.07412 6.5314 7.50759 6.65936 8.73436C6.78566 9.94525 7.30099 11.6298 8.36594 13.7927C10.4877 18.1017 14.5812 23.891 21.0343 30.8721L18.557 33.9567C15.5601 32.2065 13.1514 31.7461 11.263 31.9911C9.39648 32.2333 7.78263 33.1973 6.41062 34.7997C3.58595 38.0988 2 43.8942 2 50.003C2 56.1119 3.58595 61.9073 6.41062 65.2064C7.78263 66.8088 9.39648 67.7727 11.263 68.0149C13.1514 68.26 15.5601 67.7996 18.557 66.0494L21.0338 69.1345C14.5808 76.1111 10.4866 81.8978 8.364 86.2054C7.29862 88.3676 6.78283 90.0518 6.65614 91.2626C6.52777 92.4893 6.81802 92.9228 6.94594 93.0508C7.07387 93.1787 7.50735 93.4691 8.73423 93.3411C9.94517 93.2147 11.6298 92.6993 13.7926 91.6343C18.1017 89.5124 23.891 85.4189 30.8721 78.9658L33.9567 81.4431C32.2065 84.44 31.7461 86.8487 31.9911 88.7371C32.2333 90.6036 33.1973 92.2175 34.7997 93.5895C38.0988 96.4142 43.8942 98.0001 50.003 98.0001C56.1119 98.0001 61.9073 96.4142 65.2064 93.5895C66.8088 92.2175 67.7727 90.6036 68.0149 88.7371C68.26 86.8487 67.7996 84.44 66.0494 81.4431ZM32.2296 80.4345C30.9786 81.5909 29.7623 82.6754 28.5824 83.6895C4.3269 104.538 -4.53866 95.6647 16.3079 71.4245C17.3228 70.2444 18.4082 69.0278 19.5656 67.7765C18.012 68.6838 16.5509 69.3029 15.1823 69.6682C-5.06152 75.0714 -5.06077 24.9311 15.1846 30.3385C16.5525 30.7039 18.0128 31.3228 19.5656 32.2296C18.4092 30.9786 17.3247 29.7623 16.3106 28.5824C-4.53786 4.32655 4.33587 -4.53892 28.5819 16.3088C29.7619 17.3234 30.9784 18.4085 32.2296 19.5656C31.3225 18.0123 30.7034 16.5514 30.3381 15.1831C24.9334 -5.06152 75.075 -5.06102 69.6676 15.1846C69.3022 16.5525 68.6833 18.0128 67.7765 19.5656C69.0275 18.4091 70.2438 17.3247 71.4237 16.3105C95.679 -4.53785 104.54 4.33589 83.6914 28.5818C82.6767 29.7619 81.5916 30.9784 80.4345 32.2296C81.9878 31.3225 83.4487 30.7034 84.8171 30.3381C105.061 24.9335 105.061 75.0736 84.8164 69.6678C83.4482 69.3025 81.9876 68.6835 80.4345 67.7765C81.5913 69.0277 82.6761 70.2441 83.6905 71.424C104.54 95.6747 95.6793 104.539 71.4237 83.6896C70.2439 82.6755 69.0276 81.591 67.7765 80.4345C68.6833 81.9873 69.3023 83.4477 69.6676 84.8156C75.075 105.062 24.9309 105.062 30.3385 84.8155C30.7039 83.4476 31.3228 81.9873 32.2296 80.4345Z" fill="#005BFF"/>
</g>
<defs>
<clipPath id="clip0_10357_9099">
<rect width="100" height="100" fill="white"/>
</clipPath>
</defs>
</svg>
