<svg width="215" height="49" viewBox="0 0 215 49" fill="none" xmlns="http://www.w3.org/2000/svg">
<g clip-path="url(#clip0_10344_5540)">
<mask id="mask0_10344_5540" style="mask-type:luminance" maskUnits="userSpaceOnUse" x="0" y="0" width="34" height="25">
<path d="M33.1688 0H32.955L2.38987 10.0694C1.73635 10.2362 1.15271 10.6065 0.723159 11.1268C0.293613 11.6472 0.0403788 12.2906 0 12.9643L0 24.0154C0.130009 23.4151 0.423125 22.8625 0.847039 22.4183C1.27095 21.9741 1.8092 21.6557 2.40245 21.4981L28.7287 12.7881C28.9182 12.7168 29.0904 12.6058 29.2335 12.4625C29.3767 12.3192 29.4876 12.147 29.5589 11.9574L33.3324 0.402774C33.3324 0.402774 33.5336 0 33.194 0H33.1688Z" fill="white"/>
</mask>
<g mask="url(#mask0_10344_5540)">
<path d="M33.521 0H0V24.0154H33.521V0Z" fill="#030510"/>
</g>
<path d="M20.4652 39.5086C20.4945 39.4269 20.507 39.3401 20.5019 39.2534C20.4967 39.1667 20.4741 39.082 20.4353 39.0044C20.3965 38.9267 20.3423 38.8577 20.2761 38.8016C20.2099 38.7455 20.133 38.7034 20.0501 38.6779L2.44053 32.8377C1.84728 32.6801 1.30904 32.3616 0.885125 31.9175C0.461211 31.4733 0.168094 30.9206 0.0380859 30.3203V41.3714C0.0920341 42.0357 0.35288 42.6662 0.783878 43.1743C1.21488 43.6824 1.7943 44.0423 2.44053 44.2034L16.654 48.9612C16.7357 48.9888 16.8221 48.9999 16.9082 48.9939C16.9942 48.988 17.0783 48.965 17.1554 48.9264C17.2326 48.8878 17.3013 48.8343 17.3578 48.769C17.4142 48.7037 17.4571 48.6278 17.4841 48.5458L20.4652 39.5086Z" fill="#030510"/>
<mask id="mask1_10344_5540" style="mask-type:luminance" maskUnits="userSpaceOnUse" x="0" y="19" width="27" height="23">
<path d="M26.4898 19.5978L2.40245 27.5651C1.75811 27.7256 1.18006 28.0836 0.749255 28.5892C0.318448 29.0948 0.0564651 29.7225 0 30.3846L0 41.4357C0.130009 40.8354 0.423125 40.2827 0.847038 39.8385C1.27095 39.3943 1.8092 39.0759 2.40245 38.9183L22.2635 32.3481C22.453 32.2768 22.6251 32.1658 22.7683 32.0225C22.9115 31.8792 23.0224 31.707 23.0937 31.5174L26.8671 19.9628C26.8671 19.9628 27.0181 19.4971 26.6659 19.4971H26.4395" fill="white"/>
</mask>
<g mask="url(#mask1_10344_5540)">
<path d="M27.0558 19.5605H0V41.4488H27.0558V19.5605Z" fill="#030510"/>
</g>
<path d="M42.9023 44.0658V28.8359H53.3549V31.5924H45.984V35.0664H52.0845V37.8354H45.984V41.2968H53.8832V44.0658H42.9023Z" fill="#030510"/>
<path d="M55.4336 44.0536V33.0528H58.1757L58.2889 33.8709C58.6639 33.5453 59.0885 33.2819 59.5467 33.0906C60.0653 32.8576 60.626 32.7334 61.1944 32.7256C61.7439 32.7274 62.2903 32.808 62.817 32.9647C63.3745 33.1286 63.8896 33.4121 64.3264 33.7954C64.8777 33.4817 65.4593 33.2244 66.0622 33.0276C66.717 32.8202 67.4005 32.7182 68.0873 32.7256C68.8213 32.7033 69.5535 32.8098 70.2508 33.0402C70.7849 33.2179 71.2645 33.53 71.6434 33.9466C72.0222 34.3632 72.2877 34.8703 72.4142 35.4191C72.5743 36.0696 72.6504 36.7379 72.6406 37.4078V44.0536H69.6848V37.6092C69.7123 36.9875 69.5594 36.3711 69.2445 35.8345C69.0604 35.5918 68.8162 35.4014 68.536 35.2822C68.2559 35.163 67.9494 35.1191 67.6471 35.1548C67.4127 35.1537 67.1796 35.1876 66.9553 35.2555C66.7325 35.3215 66.5141 35.4014 66.3012 35.4946C66.1114 35.5805 65.9266 35.6772 65.7478 35.7841C65.6113 35.8622 65.4809 35.9506 65.3578 36.0484C65.3578 36.233 65.3872 36.4386 65.4459 36.6652C65.4624 36.9167 65.4624 37.1689 65.4459 37.4204V44.0536H62.5403V37.6092C62.5425 37.2924 62.513 36.9761 62.4523 36.6652C62.3985 36.3893 62.2963 36.125 62.1504 35.8848C62.0257 35.668 61.8483 35.4861 61.6347 35.3562C61.3616 35.2206 61.0588 35.1557 60.7542 35.1674C60.3129 35.1722 59.8801 35.2891 59.4964 35.5072C59.1291 35.7033 58.7905 35.9489 58.4901 36.2372V44.0536H55.4336Z" fill="#030510"/>
<path d="M76.4638 31.8061C76.2184 31.8238 75.9721 31.788 75.7419 31.7011C75.5116 31.6141 75.3031 31.4782 75.1306 31.3026C74.8492 31.0063 74.6878 30.6161 74.6777 30.2076C74.682 29.8002 74.8391 29.4093 75.118 29.1125C75.4871 28.7894 75.9609 28.6113 76.4513 28.6113C76.9417 28.6113 77.4154 28.7894 77.7846 29.1125C78.0634 29.4093 78.2205 29.8002 78.2248 30.2076C78.2244 30.6231 78.0671 31.0232 77.7846 31.3278C77.6121 31.5033 77.4035 31.6393 77.1733 31.7262C76.943 31.8132 76.6967 31.849 76.4513 31.8312M74.967 33.0899H77.9858V44.0529H74.9796V33.0521L74.967 33.0899Z" fill="#030510"/>
<path d="M80.3359 44.0543V33.0535H83.0151L83.1912 33.9849C83.5403 33.5925 83.9691 33.2792 84.449 33.0661C84.8475 32.8981 85.2745 32.8083 85.7068 32.8018C85.9817 32.8031 86.2556 32.8326 86.5244 32.8899C86.8271 32.955 87.1254 33.0391 87.4175 33.1416L86.8892 35.7219C86.6107 35.6069 86.325 35.5102 86.0339 35.4324C85.7751 35.3651 85.5088 35.3313 85.2415 35.3317C84.8356 35.3261 84.4357 35.4305 84.0843 35.6338C83.7738 35.8051 83.5002 36.036 83.2792 36.3134V44.0543H80.3359Z" fill="#030510"/>
<path d="M94.1128 44.053L93.9745 43.2349C93.6213 43.592 93.191 43.8633 92.7167 44.0278C92.1942 44.2249 91.6398 44.3231 91.0815 44.3173C90.6047 44.3068 90.133 44.2175 89.6853 44.053C89.2266 43.9087 88.7996 43.678 88.4275 43.3733C88.0738 43.0707 87.7868 42.6978 87.5847 42.2783C87.3674 41.8184 87.2597 41.3143 87.2703 40.8057C87.259 40.3022 87.3759 39.8041 87.6099 39.3582C87.8371 38.9443 88.1502 38.5838 88.5281 38.3009C88.9114 38.0068 89.335 37.7694 89.7859 37.596C90.2913 37.408 90.8136 37.2689 91.3456 37.1807C91.7613 37.0987 92.1812 37.0399 92.6035 37.0045L93.7481 36.9038V36.501C93.7554 36.3004 93.7187 36.1006 93.6404 35.9157C93.5622 35.7309 93.4444 35.5655 93.2953 35.4311C93.0045 35.1618 92.6223 35.0133 92.2261 35.0158C91.8904 35.0298 91.5591 35.0978 91.245 35.2172C90.8069 35.3825 90.4145 35.65 90.1004 35.9975L88.0627 34.5752C88.3418 34.217 88.6775 33.9066 89.0564 33.6564C89.4136 33.4219 89.7979 33.2317 90.201 33.09C90.576 32.9546 90.9637 32.8576 91.3582 32.8005C91.7332 32.7474 92.1116 32.7221 92.4902 32.725C93.0858 32.7183 93.679 32.7988 94.2512 32.9641C94.7624 33.1108 95.2348 33.3687 95.6348 33.7193C96.0289 34.0641 96.3388 34.4947 96.5404 34.978C96.7814 35.6208 96.8884 36.3062 96.8549 36.9919V44.053H94.1128ZM93.8613 38.9177L92.8928 39.0183C92.5531 39.0183 92.2261 39.1065 91.9242 39.1694C91.4221 39.2245 90.9528 39.446 90.5909 39.7987C90.3515 40.0651 90.2174 40.4097 90.2136 40.7679C90.2082 40.9371 90.2429 41.1053 90.3151 41.2584C90.3873 41.4116 90.4947 41.5455 90.6287 41.649C90.9964 41.9027 91.4418 42.0185 91.8865 41.9762C92.267 41.9766 92.6436 41.8995 92.9934 41.7497C93.3276 41.6108 93.6375 41.4196 93.9116 41.1833V38.9302L93.8613 38.9177Z" fill="#030510"/>
<path d="M102.626 40.957C102.61 41.0869 102.624 41.2186 102.665 41.3427C102.706 41.4668 102.775 41.5802 102.865 41.6745C102.994 41.7887 103.158 41.8554 103.331 41.8633C103.642 41.8633 103.949 41.7854 104.224 41.6367C104.489 41.501 104.742 41.3409 104.978 41.1584L106.047 43.1975C105.535 43.549 104.982 43.8364 104.4 44.0534C103.832 44.2599 103.231 44.3622 102.626 44.3555C102.247 44.355 101.87 44.2998 101.507 44.1918C101.153 44.091 100.824 43.9197 100.538 43.6884C100.266 43.4402 100.051 43.1351 99.9093 42.7947C99.7227 42.3665 99.6325 41.9024 99.6452 41.4353V35.3434H98.0352V33.0526H99.6578V30.208H102.626V33.0652H105.293V35.3434H102.626V40.957Z" fill="#030510"/>
<path d="M109.304 39.2713C109.303 39.6474 109.378 40.0198 109.525 40.3659C109.672 40.7121 109.888 41.0248 110.159 41.2852C110.619 41.6853 111.209 41.9045 111.819 41.9019C112.295 41.9007 112.766 41.8022 113.203 41.6124C113.744 41.3134 114.199 40.8799 114.524 40.3537L116.737 41.7005C116.22 42.5652 115.47 43.2673 114.574 43.727C113.66 44.1332 112.668 44.3309 111.668 44.306C110.962 44.3101 110.261 44.1952 109.593 43.9661C108.948 43.7447 108.359 43.3837 107.87 42.9088C107.359 42.4017 106.96 41.7928 106.7 41.1215C106.396 40.3177 106.246 39.4636 106.26 38.6042C106.24 37.7454 106.385 36.8907 106.687 36.0869C106.944 35.4131 107.338 34.8001 107.845 34.287C108.328 33.8018 108.906 33.4206 109.543 33.1667C110.211 32.8819 110.929 32.7322 111.656 32.7262C112.355 32.6999 113.052 32.831 113.694 33.1098C114.336 33.3886 114.908 33.8081 115.366 34.3373C116.406 35.7403 116.918 37.465 116.813 39.2084H109.266L109.304 39.2713ZM113.781 37.2322C113.776 36.9214 113.707 36.6149 113.58 36.3314C113.452 36.048 113.268 35.7934 113.039 35.5834C112.661 35.2368 112.169 35.0399 111.656 35.0296C111.393 35.0305 111.132 35.0818 110.888 35.1806C110.634 35.281 110.4 35.426 110.197 35.6086C109.977 35.8058 109.794 36.0401 109.656 36.3008C109.506 36.5877 109.408 36.8988 109.366 37.2197H113.769L113.781 37.2322Z" fill="#030510"/>
<path d="M119.809 40.3661C120.062 40.8673 120.433 41.2992 120.891 41.6248C121.366 41.9063 121.9 42.0714 122.451 42.1064C123.002 42.1414 123.554 42.0454 124.06 41.8262C124.208 41.749 124.331 41.6308 124.413 41.4857C124.496 41.3406 124.535 41.1747 124.526 41.008C124.513 40.8318 124.456 40.6618 124.359 40.5141C124.262 40.3664 124.129 40.2462 123.972 40.1647C123.36 39.8384 122.696 39.6212 122.01 39.5228C121.471 39.4244 120.941 39.2813 120.425 39.0949C119.97 38.9428 119.544 38.7128 119.167 38.4152C118.838 38.1498 118.572 37.8144 118.388 37.4334C118.194 37.0027 118.099 36.5338 118.111 36.0615C118.107 35.5917 118.22 35.1282 118.439 34.713C118.659 34.2977 118.978 33.9436 119.369 33.6826C120.333 33.0126 121.491 32.6766 122.664 32.726C123.688 32.6771 124.709 32.8848 125.633 33.3302C126.302 33.6815 126.88 34.186 127.318 34.8028L125.218 36.2377C124.933 35.8611 124.573 35.5481 124.161 35.3189C123.699 35.0664 123.178 34.9405 122.652 34.9538C122.192 34.9118 121.731 35.0129 121.331 35.2433C121.215 35.3285 121.121 35.4405 121.057 35.5698C120.994 35.6992 120.963 35.8419 120.966 35.9859C120.957 36.1428 120.995 36.2988 121.076 36.4336C121.157 36.5683 121.276 36.6755 121.419 36.7411C121.961 36.9637 122.526 37.1242 123.104 37.2194C123.71 37.3396 124.306 37.4993 124.89 37.6977C125.369 37.8551 125.819 38.0889 126.224 38.39C126.577 38.6596 126.861 39.009 127.054 39.4095C127.254 39.8475 127.353 40.3251 127.343 40.8066C127.363 41.3248 127.247 41.8391 127.006 42.2984C126.766 42.7577 126.409 43.146 125.972 43.4247C125.529 43.7153 125.04 43.9281 124.526 44.054C123.919 44.1924 123.299 44.26 122.677 44.2554C121.574 44.3226 120.474 44.0876 119.494 43.5757C118.724 43.1255 118.083 42.4838 117.633 41.7129L119.809 40.3661Z" fill="#030510"/>
<path d="M133.191 44.0658V28.8359H143.556V31.5924H136.273V35.2048H142.059V37.9235H136.273V44.0658H133.191Z" fill="#030510"/>
<path d="M149.681 44.053L149.543 43.2349C149.189 43.5916 148.759 43.8629 148.285 44.0279C147.762 44.225 147.208 44.3231 146.65 44.3174C146.166 44.3177 145.685 44.2369 145.228 44.0782C144.77 43.9339 144.343 43.7032 143.97 43.3985C143.617 43.0959 143.33 42.723 143.128 42.3035C142.91 41.8436 142.803 41.3395 142.813 40.8308C142.802 40.3273 142.919 39.8293 143.153 39.3834C143.38 38.9697 143.693 38.6092 144.071 38.3261C144.454 38.0319 144.878 37.7946 145.329 37.6212C145.834 37.4332 146.357 37.2941 146.889 37.2059C147.304 37.1239 147.724 37.0651 148.146 37.0297L149.291 36.929V36.501C149.298 36.3004 149.262 36.1006 149.183 35.9158C149.105 35.7309 148.987 35.5655 148.838 35.4312C148.547 35.1619 148.165 35.0133 147.769 35.0158C147.433 35.0298 147.102 35.0978 146.788 35.2172C146.35 35.3825 145.957 35.65 145.643 35.9976L143.606 34.5753C143.885 34.217 144.22 33.9066 144.599 33.6564C144.957 33.4219 145.341 33.2317 145.744 33.09C146.119 32.9547 146.507 32.8577 146.901 32.8005C147.251 32.751 147.604 32.7258 147.958 32.725C148.553 32.7181 149.147 32.7987 149.719 32.9642C150.23 33.1109 150.702 33.3687 151.102 33.7194C151.496 34.0641 151.806 34.4947 152.008 34.978C152.236 35.5894 152.342 36.2391 152.322 36.8912V44.053H149.681ZM149.429 38.9177L148.461 38.9932C148.121 38.9932 147.794 39.0813 147.492 39.1442C146.99 39.1993 146.521 39.4208 146.159 39.7736C145.92 40.0399 145.785 40.3845 145.782 40.7427C145.776 40.912 145.811 41.0801 145.883 41.2333C145.955 41.3865 146.063 41.5203 146.197 41.6238C146.565 41.8775 147.01 41.9934 147.455 41.9511C147.835 41.9515 148.212 41.8744 148.562 41.7245C148.896 41.5859 149.206 41.3946 149.48 41.1581V38.9303L149.429 38.9177Z" fill="#030510"/>
<path d="M164.158 41.423C163.761 42.3282 163.098 43.0917 162.259 43.6131C161.409 44.0968 160.444 44.3404 159.466 44.3179C158.775 44.3202 158.089 44.1966 157.441 43.9529C156.802 43.7143 156.22 43.3458 155.731 42.8705C155.219 42.3613 154.817 41.7531 154.548 41.0831C154.233 40.2824 154.083 39.4261 154.108 38.5658C154.094 37.7075 154.239 36.8539 154.536 36.0485C154.795 35.3683 155.188 34.7475 155.693 34.2234C156.161 33.7453 156.727 33.3758 157.353 33.1409C157.972 32.9061 158.629 32.7867 159.29 32.7885C159.898 32.7807 160.502 32.8787 161.076 33.078C161.569 33.2528 162.032 33.5033 162.447 33.8206C162.82 34.1109 163.142 34.4594 163.403 34.8527C163.641 35.21 163.836 35.5945 163.982 35.9981L161.63 37.1687C161.46 36.5711 161.125 36.0341 160.661 35.6205C160.301 35.341 159.859 35.1863 159.404 35.18C159.102 35.1778 158.805 35.2468 158.536 35.3814C158.246 35.5306 157.993 35.741 157.794 35.9981C157.551 36.3133 157.372 36.6723 157.265 37.0554C157.128 37.5553 157.064 38.0726 157.077 38.591C157.019 39.4604 157.263 40.3231 157.768 41.0328C158.155 41.4979 158.702 41.8003 159.301 41.8796C159.9 41.9589 160.507 41.8094 161.001 41.4607C161.41 41.1123 161.744 40.684 161.982 40.2021L164.158 41.423Z" fill="#030510"/>
<path d="M166.813 31.8061C166.568 31.8247 166.321 31.7893 166.091 31.7023C165.861 31.6153 165.652 31.4789 165.48 31.3026C165.199 31.0063 165.037 30.6161 165.027 30.2076C165.032 29.8002 165.189 29.4093 165.468 29.1125C165.837 28.7894 166.31 28.6113 166.801 28.6113C167.291 28.6113 167.765 28.7894 168.134 29.1125C168.404 29.4131 168.552 29.8036 168.549 30.2076C168.549 30.6231 168.392 31.0232 168.109 31.3278C167.936 31.5033 167.728 31.6393 167.498 31.7262C167.267 31.8132 167.021 31.849 166.776 31.8312M165.291 33.0899H168.26V44.0529H165.291V33.0521V33.0899Z" fill="#030510"/>
<path d="M173.681 28.8359H170.688V44.0784H173.681V28.8359Z" fill="#030510"/>
<path d="M177.567 31.8068C177.321 31.8246 177.075 31.7888 176.845 31.7018C176.614 31.6149 176.406 31.4789 176.233 31.3034C175.951 30.9988 175.793 30.5987 175.793 30.1831C175.797 29.7758 175.954 29.3849 176.233 29.0881C176.602 28.765 177.076 28.5869 177.567 28.5869C178.057 28.5869 178.531 28.765 178.9 29.0881C179.179 29.3849 179.336 29.7758 179.34 30.1831C179.34 30.5987 179.182 30.9988 178.9 31.3034C178.727 31.4789 178.519 31.6149 178.288 31.7018C178.058 31.7888 177.812 31.8246 177.567 31.8068ZM176.082 33.0655H179.051V44.0537H176.095V33.0529L176.082 33.0655Z" fill="#030510"/>
<path d="M184.902 40.957C184.887 41.0869 184.9 41.2186 184.941 41.3427C184.982 41.4668 185.051 41.5802 185.141 41.6745C185.271 41.7887 185.435 41.8554 185.607 41.8633C185.919 41.8633 186.226 41.7854 186.5 41.6367C186.766 41.5011 187.018 41.341 187.255 41.1584L188.324 43.1975C187.829 43.527 187.297 43.7974 186.739 44.003C186.171 44.2095 185.57 44.3119 184.965 44.3051C184.586 44.3046 184.209 44.2495 183.846 44.1415C183.492 44.0406 183.163 43.8694 182.877 43.638C182.581 43.3929 182.344 43.0828 182.186 42.7318C181.999 42.3035 181.909 41.8394 181.921 41.3724V35.3434H180.299V33.0526H181.921V30.208H184.902V33.0652H187.569V35.3434H184.902V40.957Z" fill="#030510"/>
<path d="M190.76 31.8068C190.514 31.8246 190.268 31.7888 190.038 31.7018C189.808 31.6149 189.599 31.4789 189.427 31.3034C189.143 30.9995 188.986 30.599 188.986 30.1831C188.989 29.7755 189.147 29.3842 189.427 29.0881C189.796 28.765 190.269 28.5869 190.76 28.5869C191.25 28.5869 191.724 28.765 192.093 29.0881C192.372 29.3849 192.529 29.7758 192.533 30.1831C192.533 30.5987 192.376 30.9988 192.093 31.3034C191.921 31.4789 191.712 31.6149 191.482 31.7018C191.252 31.7888 191.005 31.8246 190.76 31.8068M189.276 33.0655H192.244V44.0537H189.276V33.0529V33.0655Z" fill="#030510"/>
<path d="M196.94 39.2705C196.939 39.6466 197.014 40.019 197.161 40.3651C197.308 40.7113 197.524 41.024 197.795 41.2844C198.256 41.6845 198.846 41.9037 199.456 41.9011C199.949 41.9069 200.437 41.8082 200.89 41.6116C201.431 41.313 201.886 40.8794 202.21 40.353L204.424 41.6997C203.906 42.564 203.157 43.266 202.261 43.7262C201.351 44.1305 200.363 44.3283 199.368 44.3052C198.662 44.3093 197.96 44.1944 197.292 43.9653C196.647 43.7435 196.059 43.3826 195.569 42.9081C195.058 42.4009 194.66 41.792 194.399 41.1207C194.095 40.3169 193.946 39.4628 193.959 38.6034C193.938 37.7446 194.083 36.8898 194.387 36.0861C194.643 35.4119 195.037 34.7989 195.544 34.2862C196.028 33.801 196.606 33.4198 197.242 33.166C197.898 32.9051 198.599 32.7726 199.305 32.7758C200.004 32.7495 200.701 32.8805 201.343 33.1594C201.985 33.4382 202.557 33.8577 203.015 34.3869C204.055 35.7898 204.567 37.5145 204.462 39.2579H196.915L196.94 39.2705ZM201.418 37.2315C201.412 36.9206 201.344 36.6141 201.216 36.3306C201.089 36.0472 200.905 35.7927 200.676 35.5826C200.297 35.236 199.805 35.0391 199.292 35.0288C199.029 35.0297 198.769 35.081 198.525 35.1798C198.271 35.2807 198.037 35.4256 197.833 35.6078C197.614 35.805 197.431 36.0393 197.292 36.3C197.143 36.5869 197.045 36.898 197.003 37.2189H201.405L201.418 37.2315Z" fill="#030510"/>
<path d="M207.443 40.3656C207.696 40.8668 208.067 41.2987 208.524 41.6243C208.999 41.9058 209.534 42.0709 210.085 42.1059C210.636 42.1409 211.187 42.0449 211.694 41.8257C211.847 41.7575 211.978 41.6464 212.069 41.5056C212.161 41.3649 212.21 41.2006 212.21 41.0327C212.197 40.8565 212.14 40.6864 212.043 40.5388C211.946 40.3911 211.813 40.2708 211.656 40.1894C211.025 39.8558 210.339 39.6384 209.631 39.5475C209.092 39.4492 208.562 39.306 208.046 39.1195C207.591 38.9675 207.165 38.7375 206.788 38.4399C206.459 38.1747 206.192 37.8393 206.009 37.4581C205.814 37.0276 205.719 36.5585 205.732 36.0861C205.728 35.6163 205.841 35.1529 206.06 34.7376C206.28 34.3223 206.599 33.9683 206.99 33.7073C207.959 33.0506 209.116 32.728 210.285 32.7884C211.31 32.7396 212.33 32.9472 213.254 33.3926C213.923 33.7443 214.501 34.2488 214.939 34.8652L212.839 36.3001C212.554 35.9235 212.194 35.6105 211.782 35.3813C211.32 35.1289 210.799 35.003 210.273 35.0163C209.813 34.9743 209.352 35.0754 208.952 35.3058C208.836 35.391 208.742 35.503 208.678 35.6323C208.615 35.7616 208.584 35.9043 208.587 36.0484C208.578 36.2052 208.616 36.3613 208.697 36.496C208.778 36.6308 208.897 36.738 209.04 36.8036C209.582 37.0261 210.147 37.1865 210.725 37.2819C211.352 37.3995 211.97 37.5593 212.574 37.7602C213.053 37.918 213.503 38.1517 213.908 38.4524C214.261 38.722 214.545 39.0714 214.738 39.472C214.938 39.9099 215.037 40.3875 215.027 40.8691C215.046 41.387 214.929 41.9009 214.689 42.36C214.448 42.819 214.092 43.2075 213.656 43.4871C213.194 43.7844 212.683 43.9975 212.147 44.1164C211.54 44.2548 210.92 44.3224 210.298 44.3178C209.189 44.3658 208.089 44.1089 207.116 43.5752C206.345 43.1245 205.704 42.483 205.254 41.7124L207.443 40.3656Z" fill="#030510"/>
<path d="M157.003 20.139H143.393C142.629 20.15 141.867 20.0825 141.117 19.9376C140.584 19.8441 140.08 19.6287 139.645 19.3083C139.277 19.0155 139.001 18.6219 138.852 18.1755C138.678 17.631 138.597 17.0606 138.613 16.4889V12.7129H141.607V16.0735C141.598 16.3177 141.637 16.5613 141.72 16.791C141.802 16.9823 141.949 17.1383 142.135 17.2315C142.388 17.3526 142.661 17.4252 142.94 17.4455C143.359 17.4679 143.779 17.4679 144.198 17.4455H153.997V10.9633H156.99V20.139H157.003ZM144.425 8.32011C144.424 7.93822 144.556 7.5679 144.797 7.27239C145.039 6.97688 145.376 6.7745 145.75 6.69981C146.124 6.62512 146.513 6.68275 146.849 6.86286C147.186 7.04297 147.45 7.33439 147.595 7.68736C147.741 8.04033 147.76 8.43297 147.648 8.79822C147.537 9.16348 147.302 9.47871 146.984 9.69008C146.667 9.90146 146.285 9.99588 145.906 9.95721C145.526 9.91855 145.171 9.7492 144.903 9.47809C144.748 9.32812 144.626 9.14795 144.543 8.94876C144.461 8.74957 144.421 8.53559 144.425 8.32011M148.198 8.32011C148.201 8.00006 148.298 7.68789 148.477 7.42281C148.656 7.15774 148.91 6.95158 149.206 6.83025C149.502 6.70892 149.827 6.67783 150.14 6.74088C150.454 6.80393 150.742 6.95831 150.968 7.18463C151.194 7.41094 151.348 7.6991 151.411 8.01288C151.474 8.32667 151.443 8.65209 151.322 8.94826C151.201 9.24443 150.995 9.49814 150.73 9.6775C150.465 9.85687 150.153 9.95389 149.833 9.95638C149.401 9.95309 148.987 9.77964 148.681 9.47349C148.375 9.16734 148.201 8.75306 148.198 8.32011" fill="#030510"/>
<path d="M162.726 4.89648H159.732V20.139H162.726V4.89648Z" fill="#030510"/>
<path d="M166.37 11.9824H169.364V18.8799C169.379 19.8218 169.295 20.7627 169.112 21.6868C168.981 22.3761 168.678 23.0212 168.232 23.5622C167.763 24.0733 167.155 24.4364 166.483 24.6069C165.555 24.8438 164.599 24.9581 163.641 24.9467V22.1147C164.143 22.1204 164.643 22.0525 165.125 21.9133C165.455 21.8122 165.743 21.6041 165.942 21.3217C166.139 21.0146 166.26 20.6652 166.295 20.3022C166.351 19.8177 166.376 19.33 166.37 18.8422V11.9824V11.9824Z" fill="#030510"/>
<path d="M195.443 14.0096C195.248 13.4583 194.949 12.9497 194.562 12.5118C194.187 12.0968 193.729 11.7664 193.216 11.5426C192.286 11.1355 191.238 11.0862 190.273 11.4041C189.813 11.5696 189.387 11.8169 189.015 12.1342C188.528 12.5294 188.104 12.9962 187.757 13.5187C187.312 14.201 186.945 14.9315 186.663 15.6962C186.501 16.1807 186.254 16.6325 185.934 17.0304C185.857 17.1491 185.757 17.2514 185.64 17.3313C185.524 17.4112 185.393 17.4672 185.254 17.4961H176.185C175.897 17.5163 175.61 17.4411 175.368 17.2821C175.248 17.1435 175.161 16.9804 175.111 16.8043C175.061 16.6282 175.05 16.4434 175.078 16.2626V4.93457H172.072V16.6905C172.056 17.256 172.145 17.8196 172.336 18.352C172.492 18.7645 172.747 19.132 173.079 19.4219C173.407 19.6986 173.794 19.8967 174.211 20.0008C174.679 20.1205 175.161 20.1797 175.644 20.1771H185.267C185.723 20.1804 186.179 20.134 186.625 20.0386C187.12 19.9114 187.561 19.6291 187.883 19.2331C188.487 19.6438 189.148 19.962 189.845 20.1771C190.45 20.3575 191.076 20.4507 191.707 20.454C192.283 20.4939 192.86 20.4012 193.394 20.183C193.928 19.9648 194.405 19.6269 194.789 19.1953C195.509 18.257 195.87 17.0918 195.807 15.9102C195.813 15.2581 195.702 14.6102 195.48 13.997M192.449 17.1563C192.31 17.3219 192.134 17.4526 191.935 17.5378C191.736 17.6231 191.52 17.6605 191.304 17.6471C190.921 17.6522 190.54 17.5794 190.185 17.4332C189.807 17.2707 189.441 17.0814 189.091 16.8668C189.22 16.0296 189.572 15.2427 190.109 14.5886C190.266 14.4033 190.458 14.2511 190.674 14.1409C190.89 14.0306 191.126 13.9646 191.367 13.9466C191.614 13.939 191.858 14 192.072 14.1229C192.259 14.2316 192.418 14.3824 192.537 14.5634C192.655 14.7486 192.741 14.953 192.789 15.1676C192.841 15.3946 192.866 15.6269 192.864 15.8598C192.877 16.313 192.735 16.7571 192.462 17.1185" fill="#030510"/>
<path d="M209.277 4.89648V20.1264H197.529V17.4832H200.699V9.35217H203.693V17.4832H206.284V4.89648H209.277Z" fill="#030510"/>
<path d="M214.998 4.89648H212.004V20.139H214.998V4.89648Z" fill="#030510"/>
<path d="M52.1627 8.62267C52.5955 8.61938 53.0096 8.44593 53.3156 8.13978C53.6216 7.83363 53.795 7.41935 53.7983 6.9864C53.8021 6.71569 53.7387 6.44826 53.6138 6.20809C53.4888 5.96792 53.3063 5.76252 53.0825 5.61029C52.8587 5.45806 52.6007 5.36377 52.3315 5.33586C52.0623 5.30796 51.7904 5.34731 51.5402 5.4504C51.2899 5.55348 51.0692 5.71707 50.8977 5.92651C50.7262 6.13595 50.6093 6.38469 50.5575 6.65044C50.5058 6.91618 50.5207 7.19062 50.6011 7.44916C50.6814 7.70769 50.8246 7.94225 51.0179 8.13179C51.1677 8.28657 51.3478 8.4089 51.5469 8.49117C51.746 8.57345 51.9599 8.61392 52.1753 8.61009" fill="#030510"/>
<path d="M55.9127 8.62267C56.3455 8.61938 56.7596 8.44593 57.0656 8.13978C57.3716 7.83363 57.545 7.41935 57.5483 6.9864C57.5521 6.71569 57.4887 6.44826 57.3638 6.20809C57.2388 5.96792 57.0563 5.76252 56.8325 5.61029C56.6087 5.45806 56.3507 5.36377 56.0815 5.33586C55.8123 5.30796 55.5404 5.34731 55.2902 5.4504C55.0399 5.55348 54.8192 5.71707 54.6477 5.92651C54.4762 6.13595 54.3593 6.38469 54.3075 6.65044C54.2558 6.91618 54.2707 7.19062 54.3511 7.44916C54.4314 7.70769 54.5746 7.94225 54.7678 8.13179C54.9177 8.28657 55.0978 8.4089 55.2969 8.49117C55.496 8.57345 55.7099 8.61392 55.9253 8.61009" fill="#030510"/>
<path d="M79.595 12.3352C79.2607 11.8124 78.8028 11.3801 78.2617 11.0766C77.5924 10.7373 76.8482 10.5728 76.0983 10.5983C75.4049 10.5845 74.7172 10.7265 74.0858 11.0136C73.528 11.2721 73.0308 11.6452 72.6267 12.1087C72.2131 12.5837 71.8969 13.1353 71.6959 13.7324C71.4898 14.3014 71.3835 14.9018 71.3814 15.5071C71.3819 15.8567 71.4071 16.2058 71.4569 16.5518C71.495 16.8743 71.5842 17.1887 71.7211 17.4832H58.1869V16.8161C58.1944 16.0091 58.1185 15.2034 57.9605 14.412C57.8317 13.7423 57.58 13.1022 57.2183 12.524C56.8794 11.987 56.4012 11.552 55.8347 11.2654C55.1708 10.9529 54.4424 10.802 53.709 10.8248C53.0084 10.8355 52.3197 11.0078 51.6965 11.3283C51.1298 11.6006 50.628 11.9911 50.2248 12.4737C49.8262 12.9502 49.5191 13.4964 49.3192 14.0848C49.1365 14.654 49.0473 15.2491 49.0551 15.8469C49.0364 16.5175 49.1519 17.1851 49.3947 17.8105C49.5888 18.3264 49.9036 18.7882 50.3129 19.1572C50.7464 19.5119 51.2534 19.7656 51.7971 19.8998C52.4093 20.0566 53.0394 20.1327 53.6713 20.1264H55.0549C54.9825 20.5044 54.8336 20.8635 54.6173 21.1818C54.4009 21.5 54.1218 21.7705 53.7971 21.9767C53.3743 22.2368 52.9108 22.4241 52.426 22.5305C51.7861 22.6727 51.1319 22.7403 50.4764 22.7319C49.252 22.8361 48.0265 22.5449 46.9796 21.9011C46.6059 21.5657 46.3157 21.1474 46.1322 20.6797C45.9488 20.212 45.8771 19.7079 45.9231 19.2076V16.149H42.9043V19.8621C42.8393 20.676 42.9777 21.4934 43.3071 22.2405C43.6365 22.9875 44.1464 23.6409 44.791 24.1416C46.4455 25.1584 48.3758 25.6336 50.3129 25.5009C52.2176 25.6145 54.1098 25.1258 55.7215 24.1038C56.3547 23.6323 56.8869 23.0385 57.2866 22.3574C57.6863 21.6764 57.9454 20.922 58.0485 20.139H80.5007V15.6707C80.4959 15.0945 80.4285 14.5205 80.2994 13.9589C80.175 13.3843 79.9446 12.838 79.6202 12.3478M55.1932 17.4832H53.709C53.2543 17.5097 52.806 17.3661 52.4512 17.0804C52.2755 16.8737 52.1445 16.6327 52.0666 16.3727C51.9887 16.1127 51.9654 15.8394 51.9984 15.57C51.9799 15.0626 52.1064 14.5605 52.3631 14.1226C52.5007 13.9211 52.6904 13.7608 52.9119 13.6588C53.1335 13.5568 53.3786 13.517 53.621 13.5436C53.8803 13.52 54.1407 13.5775 54.366 13.7083C54.5913 13.839 54.7705 14.0366 54.8788 14.2736C55.1241 14.8498 55.24 15.4728 55.2184 16.0987V17.4832H55.1932ZM77.4693 17.4832H76.2115C75.7254 17.4942 75.2518 17.3288 74.8782 17.0175C74.6706 16.7976 74.5135 16.535 74.4179 16.248C74.3223 15.961 74.2905 15.6566 74.3248 15.356C74.323 15.1107 74.3483 14.8658 74.4002 14.626C74.4503 14.4001 74.5443 14.1862 74.6769 13.9967C74.8082 13.8095 74.9802 13.6545 75.1801 13.5436C75.425 13.4186 75.6977 13.358 75.9725 13.3674C76.2383 13.3598 76.5005 13.4298 76.7272 13.5687C76.9279 13.6971 77.0925 13.8748 77.2052 14.0848C77.324 14.317 77.4007 14.5684 77.4316 14.8274C77.4508 15.1208 77.4508 15.4151 77.4316 15.7085V17.458L77.4693 17.4832Z" fill="#030510"/>
<path d="M75.985 8.62267C76.4178 8.61938 76.8319 8.44593 77.1379 8.13978C77.4439 7.83363 77.6173 7.41935 77.6205 6.9864C77.6243 6.71569 77.5609 6.44826 77.436 6.20809C77.3111 5.96792 77.1286 5.76252 76.9048 5.61029C76.681 5.45806 76.4229 5.36377 76.1537 5.33586C75.8846 5.30796 75.6127 5.34731 75.3624 5.4504C75.1122 5.55348 74.8914 5.71707 74.7199 5.92651C74.5484 6.13595 74.4316 6.38469 74.3798 6.65044C74.328 6.91618 74.343 7.19062 74.4233 7.44916C74.5037 7.70769 74.6469 7.94225 74.8401 8.13179C74.99 8.28657 75.1701 8.4089 75.3692 8.49117C75.5683 8.57345 75.7822 8.61392 75.9976 8.61009" fill="#030510"/>
<path d="M86.3647 4.89648H83.3711V20.139H86.3647V4.89648Z" fill="#030510"/>
<path d="M127.858 4.89648V17.4832H125.669C125.373 17.4918 125.077 17.4622 124.789 17.3951C124.599 17.351 124.425 17.2552 124.286 17.1182C124.166 16.9803 124.091 16.8089 124.072 16.6273C124.054 16.3843 124.054 16.1403 124.072 15.8973V4.89648H121.015V16.149C121.044 16.3434 121.03 16.5416 120.976 16.7304C120.922 16.9192 120.828 17.0943 120.701 17.244C120.37 17.4358 119.987 17.5194 119.607 17.4832H116.814C116.415 17.4787 116.02 17.4064 115.645 17.2692C115.251 17.1408 114.923 16.8659 114.726 16.5014C114.726 16.4133 114.726 16.3126 114.726 16.2245C114.726 16.1364 114.726 16.0357 114.726 15.9224C114.752 15.2741 114.663 14.6263 114.462 14.0093C114.268 13.4579 113.969 12.9494 113.582 12.5114C113.207 12.0964 112.748 11.766 112.236 11.5423C111.305 11.1351 110.257 11.0858 109.293 11.4038C108.832 11.5687 108.406 11.8161 108.035 12.1338C107.549 12.53 107.125 12.9967 106.777 13.5184C106.324 14.1957 105.948 14.9219 105.657 15.6833C105.495 16.1677 105.248 16.6194 104.928 17.0175C104.772 17.2562 104.528 17.4236 104.249 17.4832H94.4628C94.2592 17.4837 94.0563 17.4583 93.8591 17.4077C93.6586 17.358 93.4703 17.2681 93.3056 17.1433C93.141 17.0156 93.0077 16.852 92.9157 16.665C92.8083 16.4282 92.7566 16.1698 92.7647 15.9098V11.9828H89.7585V18.8803C89.7648 19.3681 89.7396 19.8558 89.6831 20.3404C89.648 20.7033 89.5273 21.0527 89.3309 21.3599C89.1275 21.6438 88.8354 21.852 88.5007 21.9515C88.014 22.09 87.5099 22.1578 87.0039 22.1528V24.9219C87.8514 24.9196 88.6956 24.8182 89.5196 24.6198C90.1738 24.465 90.7791 24.1492 91.2805 23.701C91.7684 23.2336 92.1279 22.6484 92.3245 22.0018C92.5812 21.1531 92.7084 20.2705 92.7019 19.3838C92.9363 19.6774 93.2578 19.8889 93.6201 19.9879L94.0729 20.139H94.4125H104.224C104.705 20.1479 105.186 20.1015 105.657 20.0005C106.152 19.8742 106.593 19.5917 106.915 19.195C107.519 19.6056 108.18 19.9238 108.877 20.139C109.482 20.3199 110.108 20.4132 110.739 20.4159C111.456 20.437 112.168 20.286 112.814 19.9753C113.37 19.6921 113.833 19.2553 114.148 18.7167C114.462 19.1816 114.897 19.5516 115.406 19.7865C115.839 19.9903 116.31 20.1018 116.789 20.1138H120.248H121.179C121.485 20.0912 121.788 20.0406 122.085 19.9628C122.377 19.8872 122.657 19.7684 122.915 19.6103C123.177 19.4479 123.404 19.2338 123.581 18.981C123.789 19.4076 124.141 19.7467 124.575 19.9376C124.978 20.0861 125.404 20.1586 125.833 20.1516H130.814V4.89648H127.82H127.858ZM111.418 17.1559C111.279 17.3216 111.103 17.4523 110.904 17.5375C110.706 17.6228 110.49 17.6602 110.274 17.6468C109.89 17.6522 109.509 17.5794 109.154 17.4328C108.776 17.2703 108.411 17.081 108.06 16.8664C108.189 16.0293 108.541 15.2424 109.079 14.5882C109.235 14.403 109.427 14.2508 109.643 14.1405C109.859 14.0303 110.095 13.9643 110.337 13.9463C110.583 13.9387 110.827 13.9997 111.041 14.1225C111.228 14.2309 111.388 14.3818 111.506 14.5631C111.625 14.7483 111.71 14.9527 111.758 15.1672C111.81 15.3943 111.835 15.6266 111.833 15.8595C111.847 16.3127 111.704 16.7568 111.431 17.1182" fill="#030510"/>
<path d="M203.769 25.4249H200.447V24.2292H201.152C201.085 24.1313 201.042 24.0193 201.026 23.9019C201.017 23.7846 201.017 23.6668 201.026 23.5495C201.02 23.3126 201.063 23.077 201.152 22.8572C201.232 22.6659 201.352 22.4942 201.504 22.3538C201.65 22.2206 201.821 22.1179 202.007 22.0517C202.189 21.9852 202.38 21.9511 202.573 21.951C202.737 21.933 202.901 21.933 203.064 21.951L203.454 22.0769V23.2222C203.248 23.1677 203.038 23.134 202.825 23.1215C202.741 23.1136 202.657 23.1229 202.577 23.1489C202.497 23.1749 202.423 23.217 202.36 23.2726C202.311 23.3224 202.272 23.3815 202.246 23.4463C202.22 23.5111 202.208 23.5804 202.209 23.6502C202.206 23.789 202.255 23.9237 202.347 24.0278C202.423 24.0919 202.511 24.1396 202.607 24.1678C202.702 24.196 202.802 24.204 202.901 24.1914H203.769V25.4249Z" fill="#030510"/>
</g>
<defs>
<clipPath id="clip0_10344_5540">
<rect width="215" height="49" fill="white"/>
</clipPath>
</defs>
</svg>
