<svg width="100" height="100" viewBox="0 0 100 100" fill="none" xmlns="http://www.w3.org/2000/svg">
<path d="M88.409 95.173H11.7068C5.89127 95.173 1.16016 90.4419 1.16016 84.6264V15.7019C1.16016 9.88639 5.89127 5.15527 11.7068 5.15527H88.4068C94.2224 5.15527 98.9535 9.88639 98.9535 15.7019V84.6264C98.9557 90.4419 94.2246 95.173 88.409 95.173ZM11.7068 7.3775C7.11571 7.3775 3.38238 11.1131 3.38238 15.7019V84.6264C3.38238 89.2175 7.11793 92.9508 11.7068 92.9508H88.4068C92.9979 92.9508 96.7313 89.2153 96.7313 84.6264V15.7019C96.7313 11.1108 92.9957 7.3775 88.4068 7.3775H11.7068Z" fill="#00E2C5"/>
<path d="M97.8446 23.022H2.27127C1.65793 23.022 1.16016 22.5242 1.16016 21.9109C1.16016 21.2975 1.65793 20.7998 2.27127 20.7998H97.8446C98.4579 20.7998 98.9557 21.2975 98.9557 21.9109C98.9557 22.5242 98.4579 23.022 97.8446 23.022ZM18.5402 15.1998H13.3468C12.7335 15.1998 12.2357 14.702 12.2357 14.0887C12.2357 13.4753 12.7335 12.9775 13.3468 12.9775H18.5402C19.1535 12.9775 19.6513 13.4753 19.6513 14.0887C19.6513 14.702 19.1535 15.1998 18.5402 15.1998ZM32.7646 15.1998H27.5713C26.9579 15.1998 26.4602 14.702 26.4602 14.0887C26.4602 13.4753 26.9579 12.9775 27.5713 12.9775H32.7646C33.3779 12.9775 33.8757 13.4753 33.8757 14.0887C33.8757 14.702 33.3779 15.1998 32.7646 15.1998ZM46.989 15.1998H41.7957C41.1824 15.1998 40.6846 14.702 40.6846 14.0887C40.6846 13.4753 41.1824 12.9775 41.7957 12.9775H46.989C47.6024 12.9775 48.1002 13.4753 48.1002 14.0887C48.1002 14.702 47.6024 15.1998 46.989 15.1998Z" fill="#00E2C5"/>
<path d="M51.249 56.9512C50.7423 56.6664 50.1116 56.8577 49.8339 57.3602C48.7912 59.2544 47.9408 61.2218 47.307 63.2074C47.1331 63.7568 47.4353 64.3427 47.9835 64.5177C48.0883 64.5502 48.1951 64.5665 48.2999 64.5665C48.7414 64.5665 49.1514 64.2837 49.2928 63.8422C49.8849 61.9826 50.6814 60.1414 51.6589 58.3653C51.9366 57.8607 51.7525 57.228 51.249 56.9512ZM57.6729 47.4541C56.0972 48.9271 54.6497 50.4876 53.3709 52.0907C53.0119 52.5404 53.0851 53.1955 53.5347 53.5536C53.719 53.7008 53.9478 53.7812 54.1837 53.7814C54.4899 53.7814 54.7931 53.6471 54.9986 53.3887C56.2152 51.8649 57.5936 50.3796 59.0951 48.9758C59.5152 48.5831 59.5376 47.9239 59.1449 47.5028C58.7522 47.0858 58.093 47.0635 57.6729 47.4541ZM47.1392 68.5521C47.0512 68.5408 46.962 68.5429 46.8747 68.5583C46.7872 68.544 46.6997 68.5399 46.6102 68.5521C46.0375 68.609 45.6215 69.1217 45.6795 69.6935C45.7818 70.6953 45.833 71.7017 45.8331 72.7087C45.833 72.8455 45.8599 72.981 45.9122 73.1074C45.9645 73.2339 46.0412 73.3487 46.138 73.4455C46.2347 73.5422 46.3496 73.619 46.476 73.6713C46.6025 73.7236 46.738 73.7505 46.8748 73.7504C47.0116 73.7505 47.1471 73.7236 47.2735 73.6713C47.4 73.619 47.5148 73.5422 47.6116 73.4455C47.7083 73.3487 47.7851 73.2339 47.8374 73.1074C47.8897 72.981 47.9166 72.8455 47.9165 72.7087C47.9165 71.7015 47.9684 70.6864 48.0701 69.6935C48.1279 69.1217 47.7119 68.609 47.1392 68.5521ZM34.7205 46.2334C34.2871 45.857 33.629 45.9038 33.2515 46.3391C32.8752 46.7745 32.922 47.4317 33.3573 47.8081C35.0287 49.2566 36.5657 50.7968 37.9238 52.3878C38.0217 52.5021 38.1433 52.5938 38.2801 52.6567C38.4169 52.7196 38.5657 52.7521 38.7162 52.752C38.9563 52.752 39.1964 52.6706 39.3927 52.5017C39.8301 52.1293 39.882 51.4701 39.5087 51.0327C38.0815 49.3646 36.4712 47.7491 34.7205 46.2334ZM46.304 62.7822C45.5939 60.6623 44.6397 58.5728 43.4669 56.5688C43.1749 56.0724 42.5361 55.9076 42.0417 56.1964C41.5453 56.4874 41.3784 57.1262 41.6683 57.6226C42.769 59.5005 43.6642 61.4598 44.3285 63.4454C44.474 63.8808 44.8808 64.1555 45.3163 64.1555C45.4262 64.1555 45.537 64.1392 45.6469 64.1005C46.1921 63.9195 46.4871 63.3295 46.304 62.7822ZM29.2914 42.1624C27.6302 41.0922 26.5529 40.549 26.5072 40.5266C25.9914 40.2702 25.3668 40.4757 25.1105 40.9925C24.8531 41.5052 25.0607 42.1319 25.5743 42.3903C25.5845 42.3944 26.6059 42.9091 28.1622 43.9121C28.3298 44.0214 28.5257 44.0794 28.7258 44.0789C29.0676 44.0789 29.4034 43.91 29.6027 43.6007C29.9139 43.1185 29.7746 42.4736 29.2914 42.1624ZM69.7916 36.25C66.9199 36.25 64.5832 38.5857 64.5832 41.4583C64.5832 41.6614 64.6205 41.8541 64.6433 42.0513C64.0181 42.4492 63.3296 42.9026 62.5487 43.4624C62.0818 43.7981 61.974 44.4491 62.3097 44.915C62.4059 45.05 62.533 45.16 62.6804 45.2357C62.8279 45.3114 62.9913 45.3508 63.1571 45.3504C63.3747 45.3507 63.5868 45.2823 63.7633 45.1551C64.3264 44.7508 64.8402 44.4048 65.3223 44.0896C66.2294 45.6243 67.8836 46.6667 69.7917 46.6667C72.6634 46.6667 75 44.331 75 41.4583C74.9999 38.5857 72.6633 36.25 69.7916 36.25ZM69.7916 44.5834C68.0683 44.5834 66.6666 43.1816 66.6666 41.4583C66.6666 39.7351 68.0683 38.3333 69.7916 38.3333C71.5148 38.3333 72.9166 39.7351 72.9166 41.4583C72.9166 43.1816 71.5148 44.5834 69.7916 44.5834Z" fill="#00E2C5"/>
</svg>
