<svg width="100" height="100" viewBox="0 0 100 100" fill="none" xmlns="http://www.w3.org/2000/svg">
<g clip-path="url(#clip0_10357_7429)">
<path fill-rule="evenodd" clip-rule="evenodd" d="M31.1437 73.052L31.1437 73.0521C36.1276 83.8276 43.338 92.3884 47.6818 96.9738L46.2299 98.3493C41.8098 93.6834 34.4394 84.942 29.3285 73.8917C28.6719 72.4722 27.5279 71.3283 26.1082 70.6713C15.0581 65.5604 6.31669 58.19 1.65067 53.7701C-0.55023 51.6851 -0.55022 48.3148 1.65068 46.2299C6.31669 41.8098 15.0581 34.4394 26.1081 29.3285C27.5279 28.6718 28.6719 27.5279 29.3285 26.1082C34.4394 15.0582 41.8098 6.31669 46.2299 1.65067C48.3148 -0.550227 51.6851 -0.550222 53.7701 1.65067C58.19 6.31669 65.5604 15.0582 70.6713 26.1082C71.3283 27.5279 72.4722 28.6718 73.8917 29.3285C84.942 34.4394 93.6834 41.8098 98.3493 46.2299L96.9738 47.6818C92.3884 43.338 83.8276 36.1276 73.0521 31.1437L73.052 31.1437C71.2019 30.2878 69.7123 28.7982 68.8562 26.9481L68.856 26.9478C63.8722 16.1726 56.6618 7.61168 52.3181 3.02613C51.022 1.65795 48.9779 1.65797 47.6818 3.02611C43.338 7.61162 36.1276 16.1726 31.1437 26.9478C30.2879 28.7982 28.7982 30.2879 26.9477 31.1438C16.1725 36.1276 7.61162 43.338 3.02612 47.6818C1.65797 48.9779 1.65795 51.022 3.02613 52.3181C7.61168 56.6618 16.1726 63.8722 26.9478 68.856L26.9481 68.8562C28.7982 69.7123 30.2878 71.2019 31.1437 73.052ZM98.3493 46.2299C100.55 48.3148 100.55 51.6851 98.3493 53.7701C93.6834 58.19 84.942 65.5604 73.8917 70.6713C72.4722 71.3283 71.3283 72.4722 70.6713 73.8917C65.5604 84.942 58.19 93.6834 53.7701 98.3493C51.6851 100.55 48.3148 100.55 46.2299 98.3493L47.6819 96.9739C48.9779 98.342 51.022 98.3421 52.3181 96.9739C56.6618 92.3884 63.8722 83.8276 68.856 73.0521L68.8562 73.0516C69.7124 71.2019 71.2019 69.7124 73.0516 68.8562L73.0521 68.856C83.8276 63.8722 92.3884 56.6618 96.9738 52.3181C98.3421 51.022 98.342 48.9779 96.9739 47.6819L98.3493 46.2299ZM70.3793 50.0001C70.3793 61.255 61.255 70.3793 50.0001 70.3793C38.7449 70.3793 29.6208 61.255 29.6208 50.0001C29.6208 38.7448 38.7449 29.6207 50.0001 29.6207C61.255 29.6207 70.3793 38.7448 70.3793 50.0001ZM68.3793 50.0001C68.3793 60.1504 60.1504 68.3793 50.0001 68.3793C39.8495 68.3793 31.6208 60.1504 31.6208 50.0001C31.6208 39.8494 39.8495 31.6207 50.0001 31.6207C60.1504 31.6207 68.3793 39.8494 68.3793 50.0001Z" fill="#005BFF"/>
</g>
<defs>
<clipPath id="clip0_10357_7429">
<rect width="100" height="100" fill="white"/>
</clipPath>
</defs>
</svg>
