<svg width="100" height="100" viewBox="0 0 100 100" fill="none" xmlns="http://www.w3.org/2000/svg">
<g clip-path="url(#clip0_10357_5697)">
<path fill-rule="evenodd" clip-rule="evenodd" d="M2.18557e-06 0L3.77011e-06 25L50 50L0 75V100L50 75V100L100 75V50V25L50 0V25L2.18557e-06 0ZM50 25V50V75L100 50L50 25ZM52 23.7639L98 46.7639V26.2361L52 3.23607V23.7639ZM98 53.2361L52 76.2361V96.7639L98 73.7639V53.2361ZM48 73.7639V53.2361L2 76.2361L2 96.7639L48 73.7639ZM48 46.7639V26.2361L2 3.23607L2 23.7639L48 46.7639Z" fill="#005BFF"/>
</g>
<defs>
<clipPath id="clip0_10357_5697">
<rect width="100" height="100" fill="white"/>
</clipPath>
</defs>
</svg>
