<svg width="149" height="50" viewBox="0 0 149 50" fill="none" xmlns="http://www.w3.org/2000/svg">
<path d="M28.4561 10.7251H24.8333V16.2839C23.3336 12.98 19.2531 9.97997 13.9846 9.97997C5.82366 9.97997 0 16.1859 0 24.2545C0 32.0094 5.62889 38.4211 13.9846 38.4211C19.1558 38.4211 22.8856 35.7643 24.7749 31.9604V35.4211C24.7749 42.127 19.555 46.1368 14.4325 46.1368C12.738 46.1368 10.4495 45.5878 8.5115 44.1859C6.91438 43.078 5.96974 41.7741 5.32699 40.627H1.10046C2.79497 45.48 7.66425 49.3427 14.3352 49.3427C17.9676 49.3427 21.8436 47.7839 24.4827 45.1859C26.82 42.931 28.4561 39.676 28.4561 34.5682V10.7251ZM3.68118 24.1466C3.68118 17.8427 8.46281 13.431 14.3352 13.431C18.1624 13.431 20.8503 15.0388 22.4863 17.1859C24.1809 19.3427 24.9307 21.9996 24.9307 24.2545C24.882 27.2055 23.7816 29.9113 21.941 31.8623C20.0517 33.8133 17.4612 34.9702 14.4325 34.9702C7.51817 34.9702 3.68118 29.6564 3.68118 24.1957V24.1466ZM35.575 37.6761H39.2561V0.607422H35.575V37.6761ZM88.7086 47.8917H92.3897V37.6761V32.1662C93.6265 34.9702 97.4635 38.4211 103.385 38.4211C110.864 38.4211 116.006 33.0584 116.95 26.4996H113.211C112.217 31.4702 108.03 34.9702 102.781 34.9702C99.8008 34.9702 97.1129 33.8133 95.2237 31.9113C93.7824 30.4604 92.7793 28.5976 92.3605 26.4996H88.7086V47.8917ZM117.087 23.5094C116.746 16.7937 112.042 9.97997 103.385 9.97997C98.2621 9.97997 94.3764 12.431 92.1852 16.3329V0.607422H88.7086V23.5094H92.1658C92.3313 20.7545 93.4318 18.3329 95.1263 16.5388C97.0643 14.5878 99.7034 13.3819 102.683 13.3819C109.598 13.3819 113.123 18.6172 113.415 23.5094H117.087ZM148.747 25.2545C149.146 20.9408 147.656 16.7839 144.569 13.7839C142.037 11.3329 138.551 9.97997 134.772 9.97997C126.767 9.97997 120.69 16.3329 120.69 24.2545C120.69 30.9604 125.52 38.4211 134.821 38.4211C137.557 38.4211 140.196 37.676 142.436 36.2153C144.725 34.7643 146.614 32.5584 147.861 29.6564H144.024C142.28 33.1662 138.95 35.2153 134.821 35.2153C130.292 35.2643 124.576 32.0094 124.371 25.2545H148.747ZM124.42 22.2937C124.77 17.3917 129.055 13.127 134.821 13.127C140.342 12.98 144.871 17.5878 145.124 22.2937H124.42Z" fill="#030510"/>
<path d="M47.4851 9.45099C50.0756 4.93139 54.234 1.90197 58.8793 0.647071C63.5051 -0.598027 68.5983 -0.0784192 73.0683 2.50982L73.117 2.53923C77.6065 5.14707 80.6157 9.34315 81.8623 14.0098C83.1088 18.6765 82.5829 23.8235 79.9925 28.3432H79.9827C77.3923 32.8628 73.2339 35.902 68.5886 37.1471C63.953 38.402 58.8403 37.8726 54.3508 35.2647C49.8613 32.6569 46.8521 28.4608 45.6056 23.7941C44.3591 19.1177 44.8947 13.9706 47.4851 9.45099ZM58.9766 1.02942C54.4385 2.25491 50.358 5.2255 47.826 9.64707C45.2842 14.0784 44.7681 19.1177 45.9854 23.6863C47.2027 28.2549 50.1535 32.3628 54.5456 34.9216C58.9377 37.4706 63.9433 37.9902 68.4912 36.7647C73.0196 35.549 77.0806 32.5882 79.6224 28.1961L79.6419 28.1471C82.1836 23.7255 82.6998 18.6863 81.4825 14.1079C80.2651 9.53923 77.3143 5.44119 72.9223 2.88237C68.5302 0.323542 63.5245 -0.186262 58.9766 1.02942Z" fill="#030510"/>
<path d="M46.7362 22.2554L63.4086 23.726C62.7659 22.422 59.8735 16.7946 57.6239 12.0691L57.809 11.9515C60.6429 17.4515 63.8956 23.8338 63.915 23.8632L64.0709 24.1769L63.7203 24.1475L46.6973 22.6475L46.7362 22.2554ZM57.7797 11.9417C56.095 8.41224 54.566 5.23577 54.1667 4.17695L53.972 4.3044C53.2805 3.23577 55.2088 7.36322 57.6045 12.0201L57.7797 11.9417ZM54.1667 4.17695C54.0012 3.73577 54.0207 3.66715 54.2933 4.08872L54.1667 4.17695Z" fill="#030510"/>
<path d="M63.9242 24.0194L59.5613 35.8527L79.5741 26.4998L80.8596 16.2155L72.9908 4.54881L70.3906 3.21548L54.2636 4.39195L46.9499 22.4116L59.1328 35.8625L63.5541 23.8821L63.9242 24.0194ZM59.3666 36.3821L59.2789 36.6076L59.0647 36.3723L46.5701 22.588L46.4922 22.49L46.5311 22.3821L53.9519 4.12724L54.0006 4.00959L54.1175 3.99979L70.4198 2.81351L70.4783 2.80371L70.527 2.83312L73.2148 4.21548L73.2635 4.23508L73.2927 4.2841L81.2296 16.0586L81.2686 16.1174L81.2589 16.1861L79.9441 26.6567L79.9344 26.7645L79.837 26.8135L59.3666 36.3821Z" fill="#030510"/>
<path d="M79.7193 26.8334L63.6994 24.1471L63.0566 24.0393L63.6507 23.7746L80.9853 15.9805L81.1412 16.3432L64.4103 23.8628L79.7875 26.4413L79.7193 26.8334Z" fill="#030510"/>
<path d="M58.0524 11.98L75.0364 18.4603L72.9329 4.42113L73.3224 4.3623L75.4746 18.7349L75.5331 19.0682L75.2117 18.9505L57.916 12.3525L58.0524 11.98Z" fill="#030510"/>
<path d="M57.8633 12.0104L70.3092 2.85352L70.5429 3.16724L58.097 12.3339L57.8633 12.0104Z" fill="#030510"/>
<path d="M74.1823 5.1668C74.4634 4.67673 74.2965 4.05003 73.8096 3.76702C73.3227 3.48402 72.7001 3.65188 72.4191 4.14195C72.138 4.63202 72.3049 5.25872 72.7918 5.54172C73.2787 5.82473 73.9013 5.65687 74.1823 5.1668Z" fill="#030510"/>
<path d="M71.2759 3.50072C71.5448 3.03175 71.3851 2.43204 70.9192 2.16122C70.4532 1.89041 69.8575 2.05104 69.5885 2.52C69.3196 2.98897 69.4793 3.58868 69.9452 3.8595C70.4112 4.13032 71.0069 3.96969 71.2759 3.50072Z" fill="#030510"/>
<path d="M76.1255 19.2527C76.3944 18.7837 76.2347 18.184 75.7688 17.9132C75.3029 17.6424 74.7071 17.803 74.4382 18.272C74.1692 18.7409 74.3289 19.3406 74.7948 19.6115C75.2608 19.8823 75.8565 19.7216 76.1255 19.2527Z" fill="#030510"/>
<path d="M58.8286 12.6589C59.0976 12.19 58.9379 11.5902 58.4719 11.3194C58.006 11.0486 57.4102 11.2092 57.1413 11.6782C56.8723 12.1472 57.032 12.7469 57.498 13.0177C57.9639 13.2885 58.5597 13.1279 58.8286 12.6589Z" fill="#030510"/>
<path d="M64.5786 24.4411C64.8476 23.9722 64.6879 23.3725 64.2219 23.1017C63.756 22.8308 63.1602 22.9915 62.8913 23.4604C62.6223 23.9294 62.782 24.5291 63.248 24.7999C63.7139 25.0707 64.3097 24.9101 64.5786 24.4411Z" fill="#030510"/>
<path d="M81.7268 16.781C82.0098 16.2876 81.8418 15.6567 81.3516 15.3718C80.8614 15.0869 80.2347 15.2559 79.9518 15.7493C79.6688 16.2426 79.8368 16.8735 80.327 17.1584C80.8172 17.4433 81.4439 17.2743 81.7268 16.781Z" fill="#030510"/>
<path d="M80.5962 27.1247C80.8651 26.6558 80.7054 26.0561 80.2395 25.7852C79.7736 25.5144 79.1778 25.6751 78.9089 26.144C78.6399 26.613 78.7996 27.2127 79.2655 27.4835C79.7315 27.7543 80.3272 27.5937 80.5962 27.1247Z" fill="#030510"/>
<path d="M60.0493 36.7234C60.3183 36.2544 60.1586 35.6547 59.6926 35.3839C59.2267 35.1131 58.6309 35.2737 58.362 35.7427C58.093 36.2116 58.2527 36.8113 58.7187 37.0822C59.1846 37.353 59.7804 37.1923 60.0493 36.7234Z" fill="#030510"/>
<path d="M47.5614 22.9409C47.8304 22.472 47.6708 21.8724 47.2048 21.6017C46.7388 21.3309 46.1429 21.4916 45.8739 21.9605C45.6048 22.4294 45.7645 23.029 46.2305 23.2998C46.6965 23.5705 47.2923 23.4098 47.5614 22.9409Z" fill="#030510"/>
<path d="M54.9751 4.69017C55.244 4.22121 55.0844 3.62149 54.6184 3.35068C54.1525 3.07986 53.5567 3.24049 53.2878 3.70946C53.0188 4.17842 53.1785 4.77813 53.6444 5.04895C54.1104 5.31977 54.7061 5.15914 54.9751 4.69017Z" fill="#030510"/>
</svg>
