<svg width="100" height="100" viewBox="0 0 100 100" fill="none" xmlns="http://www.w3.org/2000/svg">
<path d="M84.8485 72.5303C78.4085 72.5303 73.1585 77.7704 73.1585 84.2204C73.1585 90.6604 78.3985 95.9104 84.8485 95.9104C91.2885 95.9104 96.5385 90.6704 96.5385 84.2204C96.5385 77.7704 91.2885 72.5303 84.8485 72.5303ZM84.8485 93.5804C79.6785 93.5804 75.4785 89.3804 75.4785 84.2104C75.4785 79.0403 79.6785 74.8403 84.8485 74.8403C90.0185 74.8403 94.2185 79.0403 94.2185 84.2104C94.2185 89.3804 90.0185 93.5804 84.8485 93.5804ZM88.6185 86.9404C88.6185 88.6604 87.5185 90.1303 86.0085 90.6303V91.5704C86.0085 92.2104 85.4885 92.7304 84.8485 92.7304C84.2085 92.7304 83.6885 92.2104 83.6885 91.5704V90.6303C83.0085 90.4003 82.3985 89.9804 81.9385 89.4004C81.5385 88.9004 81.6185 88.1703 82.1185 87.7703C82.6185 87.3703 83.3485 87.4503 83.7485 87.9503C84.0285 88.3003 84.4285 88.5004 84.8485 88.5004C85.6485 88.5004 86.2985 87.8004 86.2985 86.9404C86.2985 85.3804 85.2085 85.3803 84.8485 85.3803C82.5885 85.3803 81.0785 83.8204 81.0785 81.5004C81.0785 79.7804 82.1785 78.3103 83.6885 77.8103V76.8704C83.6885 76.2304 84.2085 75.7104 84.8485 75.7104C85.4885 75.7104 86.0085 76.2304 86.0085 76.8704V77.8103C86.7485 78.0603 87.4085 78.5404 87.8785 79.1904C88.2485 79.7104 88.1385 80.4303 87.6185 80.8103C87.0985 81.1803 86.3785 81.0704 85.9985 80.5504C85.7185 80.1604 85.2985 79.9404 84.8485 79.9404C84.0485 79.9404 83.3985 80.6404 83.3985 81.5004C83.3985 83.0604 84.4885 83.0603 84.8485 83.0603C87.1085 83.0503 88.6185 84.6104 88.6185 86.9404ZM42.4385 66.6604V53.2904L59.3785 25.7104C59.5985 25.3504 59.6085 24.9004 59.3985 24.5404C59.1985 24.1704 58.8085 23.9504 58.3885 23.9504H54.0085C54.3585 23.2304 54.4985 22.4304 54.4185 21.5804C54.0685 18.2104 51.9085 15.4904 49.0285 14.4604C50.2185 13.3804 50.9785 11.7804 50.9785 9.99035C50.9785 6.75035 48.4885 4.11035 45.4285 4.11035C42.3685 4.11035 39.8785 6.75035 39.8785 9.99035C39.8785 11.7804 40.6385 13.3804 41.8285 14.4604C39.8485 15.1804 38.1885 16.7004 37.2385 18.7104C36.5385 18.2804 35.7885 17.9504 35.0085 17.7204C36.6985 16.4204 37.7985 14.3104 37.7985 11.9304C37.7985 7.99035 34.7785 4.79035 31.0785 4.79035C27.3785 4.79035 24.3585 7.99035 24.3585 11.9304C24.3585 14.3104 25.4585 16.4204 27.1485 17.7204C26.3685 17.9504 25.6185 18.2904 24.9185 18.7104C23.9685 16.7004 22.3085 15.1804 20.3285 14.4604C21.5185 13.3804 22.2785 11.7804 22.2785 9.99035C22.2785 6.75035 19.7885 4.11035 16.7285 4.11035C13.6685 4.11035 11.1785 6.75035 11.1785 9.99035C11.1785 11.7804 11.9385 13.3804 13.1285 14.4604C10.2585 15.4904 8.08848 18.2104 7.73848 21.5804C7.64848 22.4304 7.78848 23.2304 8.14848 23.9504H4.61848C4.19848 23.9504 3.80848 24.1804 3.60848 24.5404C3.39848 24.9104 3.40848 25.3504 3.62848 25.7104L20.3985 53.1903V75.6604C20.3985 76.0504 20.5985 76.4203 20.9285 76.6303C21.1185 76.7503 21.3385 76.8103 21.5585 76.8103C21.7185 76.8103 21.8885 76.7804 22.0385 76.7104L41.7685 67.7003C42.1785 67.5203 42.4385 67.1104 42.4385 66.6604ZM45.4185 6.42035C47.1985 6.42035 48.6485 8.02035 48.6485 9.98035C48.6485 11.9404 47.1985 13.5404 45.4185 13.5404C43.6385 13.5404 42.1885 11.9404 42.1885 9.98035C42.1885 8.02035 43.6385 6.42035 45.4185 6.42035ZM44.3785 16.3204H46.4585C49.3485 16.3204 51.7785 18.6804 52.1085 21.8104C52.1685 22.4004 52.0285 22.9004 51.6585 23.3304C51.3185 23.7404 50.9185 23.9304 50.4185 23.9304H41.5185C40.9785 22.4904 40.1485 21.2104 39.1085 20.1804C39.9785 17.8804 42.0685 16.3204 44.3785 16.3204ZM29.7585 19.6404H32.3885C35.1585 19.6404 37.7085 21.3504 38.9985 23.9404H23.1485C24.4385 21.3504 26.9885 19.6404 29.7585 19.6404ZM31.0685 7.10035C33.4985 7.10035 35.4685 9.26035 35.4685 11.9204C35.4685 14.5804 33.4885 16.7404 31.0685 16.7404C28.6385 16.7404 26.6685 14.5804 26.6685 11.9204C26.6685 9.26035 28.6385 7.10035 31.0685 7.10035ZM16.7285 6.42035C18.5085 6.42035 19.9585 8.02035 19.9585 9.98035C19.9585 11.9404 18.5085 13.5404 16.7285 13.5404C14.9485 13.5404 13.4985 11.9404 13.4985 9.98035C13.4985 8.02035 14.9385 6.42035 16.7285 6.42035ZM10.4785 23.3404C10.1185 22.9004 9.96848 22.4104 10.0285 21.8204C10.3585 18.6904 12.7885 16.3304 15.6785 16.3304H17.7585C20.0785 16.3304 22.1585 17.8904 23.0185 20.2004C21.9885 21.2404 21.1485 22.5104 20.6085 23.9504H11.7085C11.2285 23.9404 10.8185 23.7404 10.4785 23.3404ZM40.1285 52.9604V65.9104L22.7185 73.8604V52.8703C22.7185 52.6603 22.6585 52.4504 22.5485 52.2704L6.68848 26.2604H56.3285L40.2985 52.3604C40.1885 52.5404 40.1285 52.7504 40.1285 52.9604ZM15.8185 33.8703C16.1585 34.4103 15.9985 35.1304 15.4585 35.4704C15.2685 35.5904 15.0485 35.6504 14.8385 35.6504C14.4585 35.6504 14.0785 35.4604 13.8585 35.1104L10.9785 30.5604C10.6385 30.0204 10.7985 29.3004 11.3385 28.9604C11.8785 28.6204 12.5985 28.7804 12.9385 29.3204L15.8185 33.8703ZM71.6085 85.4304C72.0285 85.8704 72.0285 86.5604 71.6185 87.0104L64.7485 94.4404C64.5185 94.6904 64.2085 94.8103 63.8985 94.8103C63.6185 94.8103 63.3385 94.7104 63.1085 94.5004C62.6385 94.0704 62.6085 93.3304 63.0485 92.8604L68.1185 87.3803H41.0085C38.6585 87.3803 36.4485 86.4004 34.7885 84.6104C33.1485 82.8504 32.2485 80.5204 32.2485 78.0504C32.2485 77.4104 32.7685 76.8904 33.4085 76.8904C34.0485 76.8904 34.5685 77.4104 34.5685 78.0504C34.5685 79.9304 35.2485 81.7003 36.4885 83.0303C37.7085 84.3403 39.3085 85.0603 41.0085 85.0603H68.0985L63.0185 79.6303C62.5785 79.1603 62.6085 78.4303 63.0685 77.9903C63.5385 77.5503 64.2685 77.5804 64.7085 78.0404L71.6085 85.4304Z" fill="#00E2C5"/>
</svg>
