<svg width="100" height="100" viewBox="0 0 100 100" fill="none" xmlns="http://www.w3.org/2000/svg">
<g clip-path="url(#clip0_10244_7967)">
<path fill-rule="evenodd" clip-rule="evenodd" d="M41.6934 21.3645C42.5937 17.6117 45.9711 14.8225 50 14.8225C54.7176 14.8225 58.542 18.6468 58.542 23.3645C58.542 27.3934 55.7528 30.7708 52 31.6711V44.6366C62.8616 43.6282 71.3645 34.4894 71.3645 23.3645C71.3645 11.5652 61.7994 2 50 2C38.8751 2 29.7363 10.503 28.7279 21.3645H41.6934ZM43.458 23.3645C43.458 19.7514 46.3869 16.8225 50 16.8225C53.613 16.8225 56.542 19.7514 56.542 23.3645C56.542 26.9776 53.613 29.9065 50 29.9065V46.729C50.6737 46.729 51.3408 46.7004 52 46.6446C63.9678 45.63 73.3645 35.5947 73.3645 23.3645C73.3645 10.4607 62.904 0 50 0C37.7699 0 27.7345 9.39687 26.7199 21.3645C26.664 22.0237 26.6355 22.6908 26.6355 23.3645H43.458ZM78.6355 41.6934C82.3883 42.5937 85.1775 45.9711 85.1775 50C85.1775 54.7176 81.3531 58.542 76.6355 58.542C72.6067 58.542 69.2292 55.7528 68.3289 52H55.3634C56.3717 62.8616 65.5105 71.3645 76.6355 71.3645C88.4349 71.3645 98 61.7994 98 50C98 38.8751 89.4971 29.7362 78.6355 28.7279V41.6934ZM76.6355 43.458C80.2485 43.458 83.1775 46.3869 83.1775 50C83.1775 53.613 80.2485 56.542 76.6355 56.542C73.0225 56.542 70.0935 53.613 70.0935 50H53.271C53.271 50.6737 53.2995 51.3408 53.3554 52C54.3699 63.9678 64.4052 73.3645 76.6355 73.3645C89.5395 73.3645 100 62.904 100 50C100 37.7698 90.6033 27.7344 78.6355 26.7199C77.9762 26.664 77.3092 26.6355 76.6355 26.6355V43.458ZM21.3645 58.3066C17.6117 57.4063 14.8225 54.0288 14.8225 50C14.8225 45.2823 18.6468 41.458 23.3645 41.458C27.3934 41.458 30.7708 44.2472 31.6711 48H44.6366C43.6282 37.1385 34.4894 28.6355 23.3645 28.6355C11.5652 28.6355 2 38.2007 2 50C2 61.125 10.503 70.2638 21.3645 71.2721V58.3066ZM23.3645 56.542C19.7514 56.542 16.8225 53.613 16.8225 50C16.8225 46.3869 19.7514 43.458 23.3645 43.458C26.9776 43.458 29.9065 46.3869 29.9065 50H46.729C46.729 49.3263 46.7004 48.6592 46.6446 48C45.63 36.0324 35.5946 26.6355 23.3645 26.6355C10.4607 26.6355 0 37.0961 0 50C0 62.2303 9.39687 72.2656 21.3645 73.2801C22.0237 73.336 22.6908 73.3645 23.3645 73.3645V56.542ZM58.3066 78.6355C57.4063 82.3883 54.0288 85.1775 50 85.1775C45.2823 85.1775 41.458 81.3531 41.458 76.6355C41.458 72.6067 44.2472 69.2292 48 68.3289V55.3634C37.1385 56.3717 28.6355 65.5105 28.6355 76.6355C28.6355 88.4349 38.2007 98 50 98C61.125 98 70.2638 89.4971 71.2721 78.6355H58.3066ZM56.542 76.6355C56.542 80.2485 53.613 83.1775 50 83.1775C46.3869 83.1775 43.458 80.2485 43.458 76.6355C43.458 73.0225 46.3869 70.0935 50 70.0935V53.271C49.3263 53.271 48.6592 53.2995 48 53.3554C36.0324 54.3699 26.6355 64.4052 26.6355 76.6355C26.6355 89.5395 37.0961 100 50 100C62.2303 100 72.2656 90.6033 73.2801 78.6355C73.336 77.9762 73.3645 77.3092 73.3645 76.6355H56.542Z" fill="#00E2C5"/>
</g>
<defs>
<clipPath id="clip0_10244_7967">
<rect width="100" height="100" fill="white"/>
</clipPath>
</defs>
</svg>
