<svg width="100" height="100" viewBox="0 0 100 100" fill="none" xmlns="http://www.w3.org/2000/svg">
<g clip-path="url(#clip0_10244_7937)">
<path fill-rule="evenodd" clip-rule="evenodd" d="M14 75.503C19.8216 75.6355 24.5 80.3965 24.5 86.25V100H27.5V86C27.5 80.201 32.201 75.5 38 75.5C43.799 75.5 48.5 80.201 48.5 86V100H51.5V86C51.5 80.201 56.201 75.5 62 75.5C67.799 75.5 72.5 80.201 72.5 86V100H76V86C76 80.201 80.701 75.5 86.5 75.5H100V72.5H86C80.201 72.5 75.5 67.799 75.5 62C75.5 56.201 80.201 51.5 86 51.5H100V48.5H86C80.201 48.5 75.5 43.799 75.5 38C75.5 32.201 80.201 27.5 86 27.5H100V24.5H86.5C80.701 24.5 76 19.799 76 14V0H72.5V14C72.5 19.799 67.799 24.5 62 24.5C56.201 24.5 51.5 19.799 51.5 14V0H48.5V14C48.5 19.799 43.799 24.5 38 24.5C32.201 24.5 27.5 19.799 27.5 14V0H24.5V13.75C24.5 19.6035 19.8216 24.3643 14 24.4972V24.5H0V27.5H14C19.799 27.5 24.5 32.201 24.5 38C24.5 43.799 19.799 48.5 14 48.5H0V51.5H14C19.799 51.5 24.5 56.201 24.5 62C24.5 67.799 19.799 72.5 14 72.5H0V75.5H14V75.503ZM17.4031 74.0312C21.5074 75.2563 24.7437 78.4927 25.9689 82.5966C27.1353 78.4653 30.3723 75.2025 34.4884 74C30.4083 72.808 27.192 69.5917 26 65.5116C24.7975 69.6278 21.5346 72.8649 17.4031 74.0312ZM26 58.4884C27.192 54.4083 30.4083 51.192 34.4884 50C30.4083 48.808 27.192 45.5917 26 41.5116C24.808 45.5917 21.5917 48.808 17.5116 50C21.5917 51.192 24.808 54.4083 26 58.4884ZM26 34.4884C27.192 30.4083 30.4083 27.192 34.4884 26C30.3723 24.7975 27.1353 21.5347 25.9689 17.4034C24.7437 21.5073 21.5073 24.7436 17.4031 25.9688C21.5346 27.1351 24.7975 30.3722 26 34.4884ZM41.5116 26C45.5917 27.192 48.808 30.4083 50 34.4884C51.192 30.4083 54.4083 27.192 58.4884 26C54.4083 24.808 51.192 21.5917 50 17.5116C48.808 21.5917 45.5917 24.808 41.5116 26ZM65.5116 26C69.5917 27.192 72.808 30.4083 74 34.4884C75.2172 30.3221 78.5451 27.0565 82.7482 25.9272C78.4534 24.5775 75.1578 20.9722 74.25 16.4998C73.3254 21.0552 69.9235 24.7111 65.5116 26ZM74 41.5116C72.808 45.5917 69.5917 48.808 65.5116 50C69.5917 51.192 72.808 54.4083 74 58.4884C75.192 54.4083 78.4083 51.192 82.4884 50C78.4083 48.808 75.192 45.5917 74 41.5116ZM74 65.5116C72.808 69.5917 69.5917 72.808 65.5116 74C69.9235 75.2889 73.3254 78.9448 74.25 83.5002C75.1578 79.0278 78.4534 75.4225 82.7482 74.0728C78.5451 72.9435 75.2172 69.6779 74 65.5116ZM58.4884 74C54.4083 72.808 51.192 69.5917 50 65.5116C48.808 69.5917 45.5917 72.808 41.5116 74C45.5917 75.192 48.808 78.4083 50 82.4884C51.192 78.4083 54.4083 75.192 58.4884 74ZM50 58.4884C51.192 54.4083 54.4083 51.192 58.4884 50C54.4083 48.808 51.192 45.5917 50 41.5116C48.808 45.5917 45.5917 48.808 41.5116 50C45.5917 51.192 48.808 54.4083 50 58.4884ZM48.5 38C48.5 43.799 43.799 48.5 38 48.5C32.201 48.5 27.5 43.799 27.5 38C27.5 32.201 32.201 27.5 38 27.5C43.799 27.5 48.5 32.201 48.5 38ZM72.5 38C72.5 43.799 67.799 48.5 62 48.5C56.201 48.5 51.5 43.799 51.5 38C51.5 32.201 56.201 27.5 62 27.5C67.799 27.5 72.5 32.201 72.5 38ZM38 72.5C43.799 72.5 48.5 67.799 48.5 62C48.5 56.201 43.799 51.5 38 51.5C32.201 51.5 27.5 56.201 27.5 62C27.5 67.799 32.201 72.5 38 72.5ZM72.5 62C72.5 67.799 67.799 72.5 62 72.5C56.201 72.5 51.5 67.799 51.5 62C51.5 56.201 56.201 51.5 62 51.5C67.799 51.5 72.5 56.201 72.5 62Z" fill="#00E2C5"/>
</g>
<defs>
<clipPath id="clip0_10244_7937">
<rect width="100" height="100" fill="white"/>
</clipPath>
</defs>
</svg>
