<svg width="100" height="100" viewBox="0 0 100 100" fill="none" xmlns="http://www.w3.org/2000/svg">
<g clip-path="url(#clip0_10357_9086)">
<path fill-rule="evenodd" clip-rule="evenodd" d="M49.9995 0L51.332 37.3199L60.395 1.09262L53.9395 37.8741L70.3365 4.32272L56.3745 38.9582L79.389 9.54915L58.531 40.5249L87.1565 16.5434L60.3145 42.5057L93.301 25L61.647 44.8141L97.5525 34.5491L62.471 47.3491L99.7255 44.7735L62.7495 50L99.7255 55.2265L62.471 52.651L97.5525 65.451L61.647 55.186L93.301 75L60.3145 57.4945L87.1565 83.4565L58.531 59.475L79.389 90.451L56.3745 61.042L70.3365 95.6775L53.9395 62.126L60.395 98.9075L51.332 62.68L49.9995 100L48.6668 62.68L39.6039 98.9075L46.0596 62.126L29.6627 95.6775L43.6245 61.042L20.6103 90.451L41.4681 59.475L12.8423 83.4565L39.6846 57.4945L6.69828 75L38.3518 55.186L2.44671 65.451L37.5281 52.651L0.273438 55.2265L37.2495 50L0.273438 44.7735L37.5281 47.3491L2.44671 34.5491L38.3518 44.8141L6.69828 25L39.6846 42.5057L12.8423 16.5434L41.4681 40.5249L20.6103 9.54915L43.6245 38.9582L29.6627 4.32272L46.0596 37.8741L39.6039 1.09262L48.6668 37.3199L49.9995 0ZM47.3927 37.7352L49.9994 37.4612L52.6066 37.7353L55.0995 38.5453L57.37 39.8562L59.3175 41.6097L60.8579 43.7299L61.925 46.1267L62.4696 48.6887L62.4696 51.3114L61.925 53.8734L60.8578 56.2706L59.3183 58.3895L57.3691 60.1446L55.1001 61.4546L52.6075 62.2645L49.9994 62.5386L47.3918 62.2645L44.899 61.4546L42.6303 60.1448L40.6807 58.3893L39.1407 56.2697L38.0744 53.8747L37.5294 51.3109L37.5294 48.6892L38.0744 46.1254L39.1406 43.7307L40.6815 41.6099L42.6294 39.856L44.8995 38.5453L47.3927 37.7352Z" fill="#005BFF"/>
</g>
<defs>
<clipPath id="clip0_10357_9086">
<rect width="100" height="100" fill="white"/>
</clipPath>
</defs>
</svg>
