<svg width="100" height="100" viewBox="0 0 100 100" fill="none" xmlns="http://www.w3.org/2000/svg">
<g clip-path="url(#clip0_10406_5204)">
<path fill-rule="evenodd" clip-rule="evenodd" d="M34.0369 49.9978L31.8503 51.6086C17.5006 62.1792 9.04069 72.1361 4.98301 80.1203C0.84058 88.2713 1.56357 93.6427 3.96989 96.0492C6.37598 98.4554 11.7462 99.1781 19.8953 95.0345C27.8776 90.9756 37.8319 82.5137 48.3989 68.1612L50.01 65.973L51.6204 68.1617C62.1808 82.5141 72.13 90.9758 80.1089 95.0346C88.2543 99.1781 93.6228 98.4554 96.0289 96.0492C98.4356 93.6423 99.1595 88.2705 95.0204 80.1197C90.966 72.1356 82.511 62.1788 68.168 51.6083L65.9827 49.9978L68.1684 48.388C82.5181 37.819 90.978 27.8629 95.0356 19.8792C99.1781 11.7286 98.4551 6.35716 96.0488 3.9507C93.6428 1.54449 88.2726 0.821741 80.1236 4.9658C72.1413 9.02508 62.1871 17.4877 51.6201 31.8418L50.0103 34.0286L48.3994 31.8426C37.8258 17.4934 27.8665 9.033 19.8807 4.97445C11.7278 0.830992 6.3557 1.55315 3.94966 3.95845C1.54421 6.36314 0.821844 11.7319 4.96766 19.8813C9.02852 27.8636 17.4934 37.8186 31.8498 48.3877L34.0369 49.9978ZM30.6641 49.9983C30.0973 49.581 29.5393 49.1645 28.9901 48.7488C-26.1585 7.01147 7.0037 -26.1379 48.7593 28.9827C49.1752 29.5317 49.592 30.0895 50.0095 30.6561C50.4268 30.0893 50.8433 29.5313 51.2589 28.9821C92.9886 -26.1572 126.151 7.01098 71.028 48.7486C70.479 49.1644 69.9212 49.5809 69.3545 49.9983C69.921 50.4158 70.4787 50.8326 71.0277 51.2485C126.124 92.992 92.9626 126.154 51.2587 71.0216C50.8432 70.4722 50.4267 69.914 50.0095 69.347C49.5921 69.9139 49.1755 70.472 48.7598 71.0213C7.02997 126.154 -26.1318 92.9919 28.9904 51.2483C29.5395 50.8325 30.0974 50.4158 30.6641 49.9983ZM64.5 50C64.5 58.0081 58.0081 64.5 50 64.5C41.9919 64.5 35.5 58.0081 35.5 50C35.5 41.9919 41.9919 35.5 50 35.5C58.0081 35.5 64.5 41.9919 64.5 50ZM62.5 50C62.5 56.9035 56.9035 62.5 50 62.5C43.0965 62.5 37.5 56.9035 37.5 50C37.5 43.0965 43.0965 37.5 50 37.5C56.9035 37.5 62.5 43.0965 62.5 50Z" fill="#00E2C5"/>
</g>
<defs>
<clipPath id="clip0_10406_5204">
<rect width="100" height="100" fill="white"/>
</clipPath>
</defs>
</svg>
