<svg width="100" height="100" viewBox="0 0 100 100" fill="none" xmlns="http://www.w3.org/2000/svg">
<g clip-path="url(#clip0_10406_5335)">
<path fill-rule="evenodd" clip-rule="evenodd" d="M50 -50L47.9615 8.4951C47.5019 21.6824 31.7429 28.21 22.0931 19.2101L-20.7107 -20.7107L19.2101 22.0931C28.21 31.7429 21.6824 47.5019 8.4951 47.9615L-50 50L8.4951 52.039C21.6824 52.498 28.21 68.257 19.2101 77.907L-20.7107 120.711L22.0931 80.79C31.7429 71.79 47.5019 78.318 47.9615 91.505L50 150L52.039 91.505C52.498 78.318 68.257 71.79 77.907 80.79L120.711 120.711L80.79 77.907C71.79 68.257 78.318 52.498 91.505 52.039L150 50L91.505 47.9615C78.318 47.5019 71.79 31.7429 80.79 22.0931L120.711 -20.7107L77.907 19.2101C68.257 28.21 52.498 21.6824 52.039 8.4951L50 -50ZM50.0002 7.41817L49.9603 8.56476C49.4409 23.4664 31.6333 30.8426 20.729 20.6727L19.8932 19.8932L20.6727 20.729C30.8426 31.6333 23.4664 49.4409 8.56476 49.9603L7.41817 50.0002L8.56467 50.0402C23.4665 50.5589 30.8425 68.3667 20.6727 79.2711L19.8932 80.1069L20.729 79.3274C31.6333 69.1574 49.4409 76.5341 49.9603 91.4353L50.0002 92.5819L50.0402 91.4354C50.5589 76.534 68.3666 69.1574 79.2711 79.3274L80.1068 80.1068L79.3274 79.2711C69.1574 68.3666 76.534 50.5589 91.4353 50.0402L92.5819 50.0002L91.4353 49.9603C76.5341 49.4409 69.1574 31.6333 79.3274 20.729L80.1069 19.8932L79.2711 20.6727C68.3667 30.8425 50.5589 23.4665 50.0402 8.56477L50.0002 7.41817Z" fill="#00E2C5"/>
</g>
<defs>
<clipPath id="clip0_10406_5335">
<rect width="100" height="100" fill="white"/>
</clipPath>
</defs>
</svg>
