<svg width="100" height="100" viewBox="0 0 100 100" fill="none" xmlns="http://www.w3.org/2000/svg">
<g clip-path="url(#clip0_10357_6949)">
<path fill-rule="evenodd" clip-rule="evenodd" d="M72.9264 58.1207L96.4994 81.6947C101.058 86.2529 108.449 86.2529 113.007 81.6947L136.581 58.1207C141.14 53.5625 141.14 46.1717 136.581 41.6131L113.007 18.0398L114.422 16.6256L137.996 40.1989C143.335 45.5386 143.335 54.1957 137.996 59.5349L114.422 83.1089C109.082 88.4482 100.424 88.4482 95.0852 83.1089L71.5122 59.5349C66.172 54.1957 66.172 45.5386 71.5122 40.199L95.0852 16.6256C100.424 11.2859 109.082 11.2859 114.422 16.6256L113.007 18.0398C108.449 13.4813 101.058 13.4812 96.4995 18.0397L72.9264 41.6132C68.3673 46.1717 68.3674 53.5626 72.9264 58.1207ZM-37.9953 59.5349L-14.4219 83.1089C-9.08237 88.4482 -0.425098 88.4482 4.91445 83.1089L28.4879 59.5349C33.8274 54.1957 33.8274 45.5386 28.4879 40.1989L4.91445 16.6256C-0.425098 11.2859 -9.08237 11.2859 -14.4219 16.6256L-37.9953 40.199C-43.3349 45.5386 -43.3349 54.1957 -37.9953 59.5349ZM-36.5811 41.6132L-13.0077 18.0398C-8.44921 13.4812 -1.05827 13.4812 3.50023 18.0398L27.0736 41.6131C31.6322 46.1717 31.6321 53.5625 27.0737 58.1207L3.50027 81.6947C-1.05824 86.2529 -8.44923 86.2529 -13.0077 81.6947L-36.5811 58.1207C-41.1395 53.5625 -41.1397 46.1717 -36.5811 41.6132ZM41.746 136.448C46.3045 141.007 53.6951 141.007 58.2543 136.448L81.8273 112.875C86.3856 108.317 86.3856 100.925 81.8273 96.3668L58.2543 72.7938C53.6951 68.2345 46.3045 68.2346 41.746 72.7937L18.1725 96.3668C13.614 100.925 13.614 108.317 18.1725 112.875L41.746 136.448ZM40.3317 71.3795L16.7583 94.9526C11.4187 100.292 11.4187 108.95 16.7583 114.289L40.3317 137.862C45.6713 143.202 54.3283 143.202 59.6685 137.862L83.2416 114.289C88.5808 108.95 88.5808 100.292 83.2416 94.9526L59.6685 71.3795C54.3283 66.0393 45.6713 66.0393 40.3317 71.3795ZM58.2544 26.9408C58.2545 26.9407 58.2544 26.9408 58.2544 26.9408L81.8273 3.36747C86.3856 -1.19104 86.3856 -8.58196 81.8273 -13.1406L58.2544 -36.7138C58.2544 -36.7139 58.2545 -36.7138 58.2544 -36.7138C53.6952 -41.2724 46.3044 -41.2724 41.7459 -36.7139L18.1725 -13.1405C13.614 -8.58193 13.614 -1.19107 18.1725 3.36743L41.7459 26.9409C46.3044 31.4994 53.6952 31.4993 58.2544 26.9408ZM83.2416 -14.5547L59.6685 -38.1281C54.3283 -43.4677 45.6713 -43.4677 40.3317 -38.1281L16.7583 -14.5547C11.4187 -9.21509 11.4187 -0.55791 16.7583 4.78164L40.3317 28.3551C45.6713 33.6947 54.3283 33.6946 59.6685 28.3551L83.2416 4.78164C88.5808 -0.55791 88.5808 -9.21509 83.2416 -14.5547Z" fill="#005BFF"/>
</g>
<defs>
<clipPath id="clip0_10357_6949">
<rect width="100" height="100" fill="white"/>
</clipPath>
</defs>
</svg>
