<?xml version="1.0" encoding="UTF-8"?>
<svg xmlns="http://www.w3.org/2000/svg" width="100" height="100" viewBox="0 0 100 100" fill="none">
  <g clip-path="url(#clip0_5451_18146)">
    <mask id="mask0_5451_18146" style="mask-type:luminance" maskUnits="userSpaceOnUse" x="0" y="0" width="100" height="100">
      <path d="M100 0H0V100H100V0Z" fill="white"></path>
    </mask>
    <g mask="url(#mask0_5451_18146)">
      <g clip-path="url(#clip1_5451_18146)">
        <mask id="mask1_5451_18146" style="mask-type:luminance" maskUnits="userSpaceOnUse" x="-33" y="-33" width="166" height="166">
          <path d="M133 -33H-33V133H133V-33Z" fill="white"></path>
        </mask>
        <g mask="url(#mask1_5451_18146)">
          <path d="M50.0004 -33L52.2123 28.951L67.2569 -31.1863L56.5408 29.8709L83.7598 -25.8243L60.5829 31.6706L98.787 -17.1484L64.1627 34.2713L111.681 -5.53787L67.1233 37.5595L121.881 8.5L69.3352 41.3914L128.938 24.3516L70.7031 45.5995L132.546 41.3241L71.1654 50L132.546 58.676L70.7031 54.4007L128.938 75.6487L69.3352 58.6088L121.881 91.5L67.1233 62.4409L111.681 105.538L64.1627 65.7285L98.787 117.149L60.5829 68.3297L83.7598 125.825L56.5408 70.1292L67.2569 131.186L52.2123 71.0488L50.0004 133L47.788 71.0488L32.7437 131.186L43.4601 70.1292L16.2412 125.825L39.4179 68.3297L1.21424 117.149L35.8383 65.7285L-11.6806 105.538L32.8776 62.4409L-21.8797 91.5L30.6652 58.6088L-28.9373 75.6487L29.2979 54.4007L-32.5449 58.676L28.8354 50L-32.5449 41.3241L29.2979 45.5995L-28.9373 24.3516L30.6652 41.3914L-21.8797 8.5L32.8776 37.5595L-11.6806 -5.53787L35.8383 34.2713L1.21424 -17.1484L39.4179 31.6706L16.2412 -25.8243L43.4601 29.8709L32.7437 -31.1863L47.788 28.951L50.0004 -33Z" fill="#005bff"></path>
        </g>
      </g>
    </g>
  </g>
  <defs>
    <clipPath id="clip0_5451_18146">
      <rect width="100" height="100" fill="white"></rect>
    </clipPath>
    <clipPath id="clip1_5451_18146">
      <rect width="166" height="166" fill="white" transform="translate(-33 -33)"></rect>
    </clipPath>
  </defs>
</svg>
