<svg width="100" height="100" viewBox="0 0 100 100" fill="none" xmlns="http://www.w3.org/2000/svg">
<path fill-rule="evenodd" clip-rule="evenodd" d="M58.2605 24.2898C56.6713 28.2234 50.8215 27.0866 50.8215 22.8438V5H48.1786V22.8438C48.1786 27.0863 42.3289 28.2236 40.7396 24.2898C40.7396 24.2898 40.7396 24.2898 40.7396 24.2898L34.0552 7.7453L31.6048 8.73532L38.7345 26.3819L36.8801 27.1311L29.698 9.35474C29.3132 8.40228 29.7734 7.31821 30.7258 6.9334L33.4358 5.83848C34.3882 5.45366 35.4723 5.91382 35.8571 6.86627L42.594 23.5406C43.3598 25.4361 46.1786 24.8882 46.1786 22.8438V4.86C46.1786 3.83275 47.0113 3 48.0386 3H50.9615C51.9887 3 52.8215 3.83275 52.8215 4.86V22.8438C52.8215 24.8882 55.6403 25.4361 56.4062 23.5406L63.1426 6.86627C63.5277 5.91382 64.6116 5.45366 65.5644 5.83848L68.2744 6.9334C69.2267 7.31821 69.687 8.40228 69.302 9.35474L62.1201 27.1311C61.3608 29.0098 63.7267 30.5758 65.1598 29.1431L78.7164 15.5861C79.4432 14.8597 80.6206 14.8597 81.3469 15.5861L83.4138 17.6529C84.1402 18.3793 84.1402 19.5569 83.4138 20.2833L71.2397 32.4575C69.7866 33.9108 71.4164 36.3 73.2996 35.4771L89.0761 28.5841C90.0178 28.1728 91.1142 28.6025 91.5253 29.5438L92.6957 32.2222C93.1068 33.1636 92.6771 34.26 91.736 34.6713L73.5563 42.6141C71.7093 43.4211 72.2855 46.1786 74.3008 46.1786H94.14C95.1672 46.1786 96 47.0113 96 48.0386V50.9615C96 51.9887 95.1672 52.8215 94.14 52.8215H74.3012C72.2855 52.8215 71.7098 55.5789 73.5563 56.3857L91.736 64.3288C92.6771 64.7399 93.1068 65.8364 92.6957 66.7775L91.5253 69.4559C91.1142 70.3976 90.0178 70.8272 89.0761 70.4157L73.2996 63.523C71.4164 62.7 69.7866 65.0891 71.2397 66.5427L83.4138 78.7164C84.1402 79.4432 84.1402 80.6206 83.4138 81.3469L81.3469 83.4138C80.6206 84.1402 79.4432 84.1402 78.7164 83.4138L65.1598 69.8568C63.7267 68.4241 61.3608 69.9902 62.1201 71.8688L69.302 89.6453C69.687 90.5976 69.2267 91.6815 68.2744 92.0666L65.5644 93.1616C64.6116 93.5462 63.5277 93.0863 63.1426 92.1335L56.4062 75.4596C55.6403 73.5638 52.8215 74.112 52.8215 76.1561V94.14C52.8215 95.1672 51.9887 96 50.9615 96H48.0386C47.0113 96 46.1786 95.1672 46.1786 94.14V76.1561C46.1786 74.112 43.3598 73.5638 42.594 75.4596L35.8571 92.1335C35.4723 93.0863 34.3882 93.5462 33.4358 93.1616L30.7258 92.0666C29.7733 91.6815 29.3132 90.5976 29.698 89.6453L36.8801 71.8688C37.6392 69.9902 35.2731 68.4241 33.8403 69.8568L20.2834 83.4138C19.557 84.1402 18.3793 84.1402 17.6529 83.4138L15.5862 81.3469C14.8598 80.6206 14.8598 79.4432 15.5862 78.7164L27.7603 66.5422C29.2136 65.0891 27.5838 62.7 25.7004 63.523L9.92362 70.4157C8.98232 70.8272 7.8858 70.3976 7.47453 69.4559L6.30432 66.7775C5.89305 65.8364 6.32274 64.7399 7.26407 64.3288L25.4436 56.3857C27.2904 55.5789 26.7143 52.8215 24.6989 52.8215H4.86C3.83275 52.8215 3 51.9887 3 50.9615V48.0386C3 47.0113 3.83275 46.1786 4.86 46.1786H24.6989C26.7143 46.1786 27.2905 43.4211 25.4436 42.6141L26.2444 40.7814C27.4785 41.3206 28.1913 42.2795 28.4508 43.3319C31.1154 34.224 39.5308 27.5714 49.5 27.5714C59.469 27.5714 67.8845 34.2239 70.5491 43.3318C70.8087 42.2794 71.5215 41.3206 72.7556 40.7814L90.8069 32.8947L89.7487 30.4728L74.1004 37.3098C70.1916 39.0177 66.81 34.0591 69.8254 31.0433L81.9006 18.9681L80.0317 17.0993L66.574 30.5573C63.6012 33.5293 58.6897 30.2818 60.2657 26.3819C60.2658 26.3818 60.2657 26.382 60.2657 26.3819L67.3952 8.73527L64.9446 7.74516L58.2605 24.2898ZM71.2539 46.7198C71.3691 47.6303 71.4285 48.5582 71.4285 49.5C71.4285 50.4419 71.3691 51.37 71.2539 52.2806C71.9129 51.4173 72.9515 50.8215 74.3012 50.8215H94V48.1786H74.3008C72.9514 48.1786 71.9129 47.5829 71.2539 46.7198ZM70.5492 55.6677C67.8848 64.7757 59.4692 71.4285 49.5 71.4285C39.5308 71.4285 31.1154 64.7759 28.4508 55.668C28.1913 56.7204 27.4785 57.6793 26.2442 58.2185L8.19323 66.1054L9.2512 68.5269L24.8995 61.6904C24.8996 61.6903 24.8994 61.6904 24.8995 61.6904C28.8076 59.9827 32.1908 64.9404 29.1745 67.9565C29.1745 67.9565 29.1745 67.9564 29.1745 67.9565L17.0993 80.0317L18.9681 81.9006L32.4261 68.4426C35.3994 65.4696 40.3098 68.7191 38.7345 72.618C38.7345 72.618 38.7345 72.618 38.7345 72.618L31.6048 90.2647L34.0551 91.2548L40.7396 74.7105C40.7396 74.7104 40.7396 74.7105 40.7396 74.7105C42.3291 70.7758 48.1786 71.9145 48.1786 76.1561V94H50.8215V76.1561C50.8215 71.9142 56.6711 70.7759 58.2606 74.7104L64.9447 91.2549L67.3952 90.2647L60.2659 72.6183C60.2658 72.6182 60.2659 72.6184 60.2659 72.6183C58.6898 68.7183 63.6011 65.4706 66.5738 68.4423L80.0317 81.9007L81.9007 80.0317L69.8255 67.957C66.8113 64.9418 70.1905 59.9818 74.1003 61.6903C74.1004 61.6903 74.1003 61.6903 74.1003 61.6903L89.7486 68.527L90.8068 66.1054L72.7556 58.2184C71.5215 57.6792 70.8087 56.7202 70.5492 55.6677ZM89.8764 68.5828C89.8762 68.5827 89.8767 68.5829 89.8764 68.5828ZM34.0027 91.3845C34.0026 91.3848 34.0028 91.3842 34.0027 91.3845ZM31.5523 90.3945C31.5524 90.3943 31.5523 90.3947 31.5523 90.3945ZM8.06483 66.1615C8.06503 66.1615 8.06462 66.1616 8.06483 66.1615ZM27.7461 52.2808C27.6308 51.3701 27.5714 50.442 27.5714 49.5C27.5714 48.5581 27.6308 47.6301 27.7461 46.7194C27.087 47.5828 26.0485 48.1786 24.6989 48.1786H5V50.8215H24.6989C26.0484 50.8215 27.087 51.4174 27.7461 52.2808ZM7.26405 34.6713L25.4436 42.6141L26.2444 40.7814L8.19307 32.8947L9.25117 30.4729L24.8996 37.3098C28.8083 39.0176 32.1904 34.0592 29.1745 31.0433L17.0994 18.9681L18.9681 17.0994L32.4261 30.5574C35.3996 33.5308 40.3096 30.2806 38.7345 26.3819L36.8801 27.1311C37.6392 29.0098 35.2731 30.5759 33.8403 29.1431L20.2834 15.5862C19.557 14.8598 18.3793 14.8598 17.6529 15.5862L15.5862 17.6529C14.8598 18.3793 14.8598 19.557 15.5862 20.2834L27.7603 32.4575C29.2136 33.9108 27.5838 36.3 25.7004 35.4771L9.92362 28.5841C8.98227 28.1728 7.8858 28.6025 7.47452 29.5438L6.30431 32.2222C5.89303 33.1636 6.32273 34.26 7.26405 34.6713ZM79.9327 17.0003C79.9327 17.0003 79.9326 17.0002 79.9327 17.0003ZM34.185 7.69285C34.1851 7.69282 34.185 7.69288 34.185 7.69285ZM34.0028 7.61565C34.0029 7.61571 34.0028 7.6156 34.0028 7.61565ZM69.4285 49.5C69.4285 60.5061 60.5061 69.4285 49.5 69.4285C38.4938 69.4285 29.5714 60.5061 29.5714 49.5C29.5714 38.4938 38.4938 29.5714 49.5 29.5714C60.5061 29.5714 69.4285 38.4938 69.4285 49.5Z" fill="#005BFF"/>
</svg>
