<svg width="155" height="50" viewBox="0 0 155 50" fill="none" xmlns="http://www.w3.org/2000/svg">
<path d="M101.725 18.6357C102.969 18.6357 103.977 19.6531 103.977 20.9078C103.977 22.1625 102.969 23.1798 101.725 23.1798C100.482 23.1798 99.4736 22.1625 99.4736 20.9078C99.4736 19.6546 100.482 18.6357 101.725 18.6357Z" fill="#030510"/>
<path d="M16.3531 41.0913C25.678 41.0913 32.7062 34.0908 32.7062 24.8635C32.7062 15.6363 25.678 8.63574 16.3531 8.63574C7.02816 8.63574 0 15.6363 0 24.8635C0 34.0908 7.02816 41.0913 16.3531 41.0913ZM16.3531 35.8639C10.1819 35.8639 5.49548 31.1369 5.49548 24.8635C5.49548 18.5901 10.1804 13.8631 16.3531 13.8631C22.5243 13.8631 27.2107 18.5901 27.2107 24.8635C27.2107 31.1369 22.5258 35.8639 16.3531 35.8639Z" fill="#030510"/>
<path d="M52.1342 40.9086C53.3508 40.9086 54.5224 40.7726 55.6475 40.5443V35.4077C54.7921 35.5891 53.8452 35.6813 52.8549 35.6813C46.1428 35.6813 41.5028 31.045 41.5028 24.8623C41.5028 18.681 46.1428 14.0447 52.8549 14.0447C53.8467 14.0447 54.7921 14.1354 55.6475 14.3168V9.1817C54.5209 8.95494 53.3508 8.81738 52.1342 8.81738C42.9441 8.81738 36.0059 15.7272 36.0059 24.8623C36.0059 34.0003 42.9441 40.9086 52.1342 40.9086Z" fill="#030510"/>
<path d="M76.1556 9.18164H59.4414V14.2729H65.1182V35.137C65.1182 38.1241 67.5183 40.5458 70.4788 40.5458V14.2729H76.1556V9.18164V9.18164Z" fill="#030510"/>
<path d="M125.152 9.18164H117.087V40.5458C120.047 40.5458 122.448 38.1241 122.448 35.137V29.5907H125.15C131.052 29.5907 135.512 25.1812 135.512 19.4081C135.514 13.5458 131.053 9.18164 125.152 9.18164ZM125.06 24.4994H122.448V14.2729H125.06C127.898 14.2729 130.062 16.4543 130.062 19.4096C130.062 22.3181 127.9 24.4994 125.06 24.4994Z" fill="#030510"/>
<path d="M145.631 41.0923C150.947 41.0923 155.001 38.0009 155.001 32.3201C155.001 22.7739 143.603 22.0467 143.603 16.9569C143.603 14.957 145.269 13.5935 147.792 13.5935C149.639 13.5935 152.027 14.3206 153.469 15.3667V10.0002C151.937 9.18243 149.729 8.63672 147.567 8.63672C142.476 8.63672 138.332 11.7734 138.332 17.2729C138.332 26.4094 149.731 26.8191 149.731 32.4546C149.731 34.6813 148.064 36.137 145.452 36.137C143.29 36.137 140.406 35.0456 138.468 33.5914V39.1362C140.63 40.4105 143.153 41.0923 145.631 41.0923Z" fill="#030510"/>
<path d="M111.161 37.6694C107.262 36.6158 104.223 33.9371 102.56 30.5434L105.974 27.251C106.883 30.1488 107.881 32.1745 110.998 33.0165C113.261 33.6287 114.715 36.1426 114.108 38.4268C113.778 38.3633 111.49 37.7586 111.161 37.6694Z" fill="#030510"/>
<path d="M80.8646 37.6694C84.763 36.6158 87.8029 33.9371 89.4659 30.5434L86.0515 27.251C85.142 30.1488 84.1442 32.1745 81.0279 33.0165C78.7641 33.6287 77.3108 36.1426 77.9176 38.4268C78.2472 38.3633 80.535 37.7586 80.8646 37.6694Z" fill="#030510"/>
<path fill-rule="evenodd" clip-rule="evenodd" d="M79.6504 16.2716C79.6504 22.2412 82.8371 27.4595 87.5865 30.2908C84.2739 32.8032 82.1314 36.8016 82.1314 41.3049V42.2678C82.1314 44.7666 84.1391 46.7922 86.6156 46.7922H87.0936V41.3049C87.0936 37.2445 89.8308 33.8297 93.5449 32.8365V39.5347C93.5449 42.0335 95.5525 44.0591 98.0291 44.0591H98.507V33.5636C98.507 33.3626 98.4935 33.166 98.4695 32.9725C101.948 34.1154 104.461 37.4138 104.461 41.3049V50H104.939C107.415 50 109.423 47.9744 109.423 45.4756V41.3049C109.423 36.8016 107.281 32.8032 103.968 30.2924C108.719 27.461 111.904 22.2427 111.904 16.2731C111.904 7.28474 104.684 0 95.7772 0C86.8703 0 79.6504 7.28474 79.6504 16.2716ZM95.7772 27.5366C89.6106 27.5366 84.6125 22.4937 84.6125 16.2716C84.6125 10.0496 89.6106 5.00665 95.7772 5.00665C101.942 5.00665 106.942 10.0496 106.942 16.2716C106.942 22.4921 101.944 27.5366 95.7772 27.5366Z" fill="#030510"/>
</svg>
