<svg width="100" height="100" viewBox="0 0 100 100" fill="none" xmlns="http://www.w3.org/2000/svg">
<path fill-rule="evenodd" clip-rule="evenodd" d="M64.5335 8.56285L64.3015 8.16735C57.9125 -2.72245 42.1683 -2.72245 35.779 8.16735L35.5469 8.56285C32.5993 13.5866 27.2259 16.689 21.4014 16.7298L20.9428 16.733C8.31731 16.8214 0.445305 30.4561 6.68146 41.4343L6.90796 41.833C9.78491 46.8976 9.78491 53.1025 6.90796 58.167L6.68146 58.5655C0.445305 69.544 8.31731 83.1785 20.9428 83.267L21.4014 83.27C27.2259 83.311 32.5993 86.4135 35.5469 91.437L35.779 91.8325C42.1683 102.722 57.9125 102.722 64.3015 91.8325L64.5335 91.437C67.4815 86.4135 72.8545 83.311 78.679 83.27L79.138 83.267C91.7635 83.1785 99.6355 69.544 93.399 58.5655L93.1725 58.167C90.2955 53.1025 90.2955 46.8976 93.1725 41.833L93.399 41.4343C99.6355 30.4561 91.7635 16.8214 79.138 16.733L78.679 16.7298C72.8545 16.689 67.4815 13.5866 64.5335 8.56285ZM91.66 59.5534L91.4337 59.1553C88.2087 53.4782 88.2085 46.5224 91.4335 40.8452L91.66 40.4464C97.1422 30.7962 90.2224 18.8107 79.124 18.7329L78.6651 18.7297C72.136 18.684 66.113 15.2064 62.8086 9.57506L62.5765 9.17941C62.5765 9.17938 62.5765 9.17945 62.5765 9.17941C56.9603 -0.392989 43.1204 -0.393144 37.504 9.17945L37.2719 9.57495C33.9678 15.2064 27.9444 18.684 21.4154 18.7297L20.9568 18.7329C20.9568 18.7329 20.9568 18.7329 20.9568 18.7329C9.85851 18.8107 2.93866 30.7961 8.42044 40.4464C8.42045 40.4465 8.42043 40.4464 8.42044 40.4464L8.64694 40.8451C11.8719 46.5223 11.8719 53.4777 8.64696 59.1549L8.42049 59.5533C8.4204 59.5535 8.42057 59.5532 8.42049 59.5533C2.93909 69.2039 9.85864 81.1892 20.9568 81.267L21.4144 81.27H21.4154C27.9444 81.316 33.9678 84.7937 37.2719 90.4248L37.504 90.8204C43.1205 100.393 56.9603 100.393 62.5765 90.8204L62.8084 90.425C66.1129 84.7941 72.1359 81.316 78.6649 81.27H78.666L79.124 81.267C90.2222 81.1892 97.1417 69.2039 91.66 59.5534C91.6599 59.5532 91.6601 59.5535 91.66 59.5534ZM76.8425 50C76.8425 64.8026 64.8426 76.802 50.0405 76.802C35.2379 76.802 23.2381 64.8026 23.2381 50C23.2381 35.1975 35.2379 23.1977 50.0405 23.1977C64.8426 23.1977 76.8425 35.1975 76.8425 50ZM74.8425 50C74.8425 63.698 63.738 74.802 50.0405 74.802C36.3424 74.802 25.2381 63.698 25.2381 50C25.2381 36.3021 36.3424 25.1977 50.0405 25.1977C63.738 25.1977 74.8425 36.3021 74.8425 50Z" fill="#00E2C5"/>
</svg>
