<svg width="100" height="100" viewBox="0 0 100 100" fill="none" xmlns="http://www.w3.org/2000/svg">
<g clip-path="url(#clip0_10357_5740)">
<path fill-rule="evenodd" clip-rule="evenodd" d="M60.0979 48.9798C82.2399 44.4389 99.0457 25.2608 99.9607 2C99.9868 1.33657 100 0.669825 100 0H94C94 24.3006 74.3005 44 50 44C25.6994 44 6 24.3006 6 0H0C0 0.669825 0.0131713 1.33657 0.0392689 2C0.954295 25.2608 17.76 44.4389 39.902 48.9798C43.1635 49.6487 46.5407 50 50 50C46.5407 50 43.1635 50.3513 39.902 51.0202C17.76 55.5612 0.954303 74.7394 0.0392696 98C0.0131715 98.6634 0 99.3302 0 100H6C6 75.6995 25.6994 56 50 56C74.3005 56 94 75.6995 94 100H100C100 99.3302 99.9868 98.6634 99.9607 98C99.0457 74.7394 82.2399 55.5612 60.0979 51.0202C56.8365 50.3513 53.4593 50 50 50C53.4593 50 56.8365 49.6487 60.0979 48.9798ZM97.9591 98C96.9106 72.4181 75.8395 52 50 52C24.1603 52 3.08944 72.418 2.04091 98H4.0427C5.08981 73.5228 25.265 54 50 54C74.735 54 94.9102 73.5228 95.9573 98H97.9591ZM2.04091 2C3.08943 27.5822 24.1603 48 50 48C75.8395 48 96.9106 27.5822 97.9591 2H95.9573C94.9102 26.4773 74.735 46 50 46C25.265 46 5.08981 26.4773 4.0427 2H2.04091ZM14.0546 2C15.0924 20.952 30.7889 36 50 36C69.2113 36 84.9076 20.952 85.9454 2H83.9422C82.9069 19.8468 68.1062 34 50 34C31.8937 34 17.0931 19.8467 16.0578 2H14.0546ZM12.0517 2C13.0918 22.0571 29.6841 38 50 38C70.3161 38 86.9083 22.0571 87.9483 2C87.9826 1.33768 88 0.670869 88 0H82C82 17.6731 67.673 32 50 32C32.3269 32 18 17.6731 18 0H12C12 0.670869 12.0174 1.33768 12.0517 2ZM26.0821 2C27.0984 14.3191 37.4187 24 50 24C62.5814 24 72.9016 14.3191 73.9179 2H71.9103C70.8998 13.213 61.4759 22 50 22C38.5239 22 29.1001 13.213 28.0897 2H26.0821ZM24.0758 2C24.0256 1.33992 24 0.672944 24 0H30C30 11.0457 38.9543 20 50 20C61.0455 20 70 11.0457 70 0H76C76 0.672944 75.9744 1.33992 75.9242 2C74.903 15.4249 63.6866 26 50 26C36.3135 26 25.097 15.4249 24.0758 2ZM85.9454 98C84.9076 79.0479 69.2113 64 50 64C30.7889 64 15.0924 79.0479 14.0546 98H16.0578C17.0931 80.1533 31.8937 66 50 66C68.1062 66 82.9069 80.1533 83.9422 98H85.9454ZM87.9483 98C86.9083 77.9427 70.3161 62 50 62C29.6841 62 13.0917 77.9427 12.0517 98C12.0174 98.6623 12 99.3291 12 100H18C18 82.327 32.3269 68 50 68C67.673 68 82 82.327 82 100H88C88 99.3291 87.9826 98.6623 87.9483 98ZM73.9179 98C72.9016 85.6809 62.5814 76 50 76C37.4187 76 27.0984 85.6809 26.0821 98H28.0897C29.1002 86.7872 38.5239 78 50 78C61.4759 78 70.8998 86.7872 71.9103 98H73.9179ZM75.9242 98C74.903 84.575 63.6866 74 50 74C36.3135 74 25.097 84.575 24.0758 98C24.0256 98.6601 24 99.3271 24 100H30C30 88.9545 38.9543 80 50 80C61.0455 80 70 88.9545 70 100H76C76 99.3271 75.9744 98.6601 75.9242 98Z" fill="#005BFF"/>
</g>
<defs>
<clipPath id="clip0_10357_5740">
<rect width="100" height="100" fill="white"/>
</clipPath>
</defs>
</svg>
