<svg width="100" height="100" viewBox="0 0 100 100" fill="none" xmlns="http://www.w3.org/2000/svg">
<path d="M82.1523 30.3658C81.6293 29.5672 81.3744 28.6227 81.4246 27.6695L81.6533 23.514C81.7257 22.1956 81.4126 20.8846 80.7521 19.7412C80.0915 18.5978 79.1123 17.6716 77.934 17.0757L74.2562 15.215C73.4074 14.7877 72.7189 14.0982 72.2927 13.2488L70.4351 9.56616C69.8409 8.38767 68.916 7.40793 67.7737 6.74678C66.6314 6.08563 65.3212 5.77174 64.0033 5.8435L59.8549 6.07221C58.9035 6.12179 57.9613 5.86599 57.1656 5.34213L53.7345 3.07651C52.6266 2.3438 51.3275 1.95313 49.9992 1.95312C48.6708 1.95313 47.3718 2.3438 46.2638 3.07651L42.8326 5.34213C42.0376 5.86613 41.0957 6.12177 40.1449 6.07163L35.9947 5.84311C34.6768 5.77052 33.3663 6.084 32.224 6.74513C31.0816 7.40626 30.1569 8.38632 29.5633 9.56518L27.7054 13.2482C27.2795 14.0975 26.5913 14.7871 25.7427 15.2146L22.0646 17.0753C20.887 17.672 19.9085 18.5985 19.2486 19.7419C18.5888 20.8853 18.276 22.1961 18.3486 23.5142L18.5773 27.6693C18.6276 28.6226 18.3726 29.5672 17.8496 30.3658L15.5865 33.8025C14.8548 34.9127 14.4648 36.2131 14.4648 37.5427C14.4648 38.8723 14.8548 40.1728 15.5865 41.283L17.8486 44.7191C18.3715 45.5174 18.6264 46.4615 18.5763 47.4144L18.3476 51.5703C18.2752 52.8885 18.5881 54.1993 19.2481 55.3426C19.9081 56.486 20.8867 57.4125 22.0644 58.0091L25.742 59.8691C26.5908 60.2964 27.2793 60.9859 27.7054 61.8353L29.5631 65.5185C29.6395 65.6703 29.721 65.8182 29.8076 65.9621L17.9955 84.7648C17.8802 84.9483 17.8181 85.1601 17.816 85.3767C17.8138 85.5934 17.8718 85.8064 17.9834 85.9921C18.0951 86.1777 18.256 86.3288 18.4484 86.4286C18.6407 86.5283 18.8569 86.5727 19.073 86.557L31.5785 85.6443L36.1843 97.306C36.2639 97.5075 36.3978 97.6831 36.5711 97.8131C36.7445 97.9431 36.9504 98.0225 37.1662 98.0425C37.2025 98.0457 37.2386 98.0474 37.2746 98.0474C37.4728 98.0473 37.6678 97.997 37.8413 97.901C38.0148 97.8051 38.1611 97.6667 38.2666 97.4988L50.0006 78.8218L61.7345 97.4996C61.84 97.6675 61.9863 97.8059 62.1598 97.9018C62.3333 97.9978 62.5283 98.0481 62.7265 98.0482C62.7625 98.0482 62.7986 98.0464 62.8349 98.0433C63.0507 98.0233 63.2567 97.9439 63.43 97.8139C63.6033 97.6838 63.7372 97.5083 63.8168 97.3068L68.4226 85.6443L80.9281 86.557C81.1442 86.5727 81.3604 86.5283 81.5528 86.4286C81.7451 86.3288 81.906 86.1777 82.0177 85.9921C82.1293 85.8064 82.1873 85.5934 82.1852 85.3767C82.183 85.1601 82.1209 84.9483 82.0056 84.7648L70.1935 65.9625C70.2801 65.8184 70.3616 65.6707 70.4379 65.5193L72.2957 61.8357C72.7216 60.9864 73.4098 60.297 74.2584 59.8697L77.9375 58.0091C79.1151 57.4125 80.0935 56.4859 80.7533 55.3425C81.4132 54.1991 81.7259 52.8884 81.6533 51.5703L81.4246 47.4146C81.3745 46.4616 81.6294 45.5175 82.1523 44.7193L84.4146 41.282C85.1463 40.1718 85.5363 38.8714 85.5363 37.5417C85.5363 36.2121 85.1463 34.9117 84.4146 33.8015L82.1523 30.3658ZM37.5138 94.2923L33.442 83.9824C33.3503 83.7502 33.1868 83.5533 32.9754 83.4206C32.764 83.2878 32.5157 83.2259 32.2668 83.2441L21.2121 84.0509L31.4238 67.7958C32.721 68.8179 34.3463 69.3317 35.9953 69.2412L40.1435 69.0121C41.0948 68.9628 42.037 69.2186 42.8328 69.7421L45.3343 71.3939L48.6168 76.6189L37.5138 94.2923ZM78.7896 84.0509L67.7349 83.2435C67.486 83.2253 67.2377 83.2872 67.0263 83.42C66.8149 83.5528 66.6514 83.7496 66.5597 83.9818L62.4873 94.2923L49.159 73.0767C50.7642 73.2858 52.3908 72.9062 53.7375 72.008L57.1691 69.7423C57.9643 69.2192 58.9058 68.9635 59.8564 69.0126L64.0064 69.2417C65.6553 69.3325 67.2807 68.8186 68.5777 67.7964L78.7896 84.0509ZM82.4572 39.9937L80.1951 43.4298C79.3971 44.6481 79.0081 46.089 79.0847 47.5433L79.3134 51.6992C79.3611 52.5628 79.1563 53.4215 78.724 54.1707C78.2918 54.9198 77.6508 55.527 76.8793 55.9179L73.2013 57.7783C71.9053 58.4307 70.8541 59.4833 70.2035 60.7802L68.3455 64.4644C67.9572 65.2364 67.352 65.8782 66.6041 66.311C65.8563 66.7438 64.9983 66.9489 64.1355 66.9009L59.9847 66.672C58.5318 66.5962 57.0928 66.9868 55.8775 67.7867L52.4461 70.0523C51.7209 70.5324 50.8705 70.7884 50.0008 70.7884C49.1312 70.7884 48.2808 70.5324 47.5556 70.0523L44.125 67.7867C43.0114 67.0541 41.7079 66.6632 40.375 66.6621C40.2552 66.6621 40.1351 66.6652 40.0154 66.6718L35.8662 66.9007C35.0033 66.9485 34.1452 66.7433 33.3973 66.3104C32.6493 65.8775 32.044 65.2356 31.6556 64.4636L29.7978 60.78C29.1472 59.483 28.0959 58.4303 26.7998 57.7779L23.1228 55.9193C22.3513 55.5283 21.7102 54.9213 21.2778 54.1721C20.8455 53.423 20.6406 52.5642 20.6881 51.7005L20.9168 47.5447C20.9933 46.0903 20.6044 44.6495 19.8064 43.4312L17.5443 39.9939C17.0651 39.2662 16.8096 38.414 16.8096 37.5427C16.8096 36.6714 17.0651 35.8192 17.5443 35.0915L19.8064 31.655C20.6047 30.4364 20.9936 28.9951 20.9168 27.5404L20.6881 23.3849C20.6404 22.5213 20.8453 21.6625 21.2775 20.9134C21.7098 20.1643 22.3508 19.5571 23.1222 19.1662L26.8004 17.306C28.0963 16.6535 29.1474 15.6009 29.798 14.304L31.656 10.6205C32.0444 9.84852 32.6496 9.20675 33.3975 8.7739C34.1454 8.34104 35.0034 8.13593 35.8662 8.18374L40.0168 8.41206C41.4696 8.4872 42.9084 8.09678 44.124 7.2976L47.5551 5.03198C48.28 4.55249 49.1299 4.29683 49.9991 4.29683C50.8682 4.29683 51.7182 4.55249 52.4431 5.03198L55.8738 7.2976C57.0895 8.09799 58.5293 8.4887 59.9828 8.41264L64.132 8.18413C64.9948 8.13672 65.8527 8.34204 66.6005 8.77493C67.3484 9.20781 67.9537 9.84946 68.3424 10.6212L70.2002 14.3042C70.8508 15.6011 71.9021 16.6537 73.198 17.306L76.8756 19.1671C77.6476 19.5577 78.2892 20.1646 78.722 20.9138C79.1547 21.663 79.3599 22.522 79.3125 23.3859L79.0843 27.5404C79.0077 28.9947 79.3967 30.4356 80.1947 31.6539L82.4568 35.0902C82.9363 35.818 83.1919 36.6704 83.1919 37.5419C83.1919 38.4135 82.9363 39.2659 82.4568 39.9937H82.4572Z" fill="#00E2C5"/>
<path d="M50 12.6016C36.2695 12.6016 25.0977 23.7885 25.0977 37.5387C25.0977 51.2889 36.2695 62.4758 50 62.4758C63.7305 62.4758 74.9023 51.2883 74.9023 37.5383C74.9023 23.7883 63.7305 12.6016 50 12.6016ZM50 60.132C37.5611 60.132 27.4414 49.9967 27.4414 37.5387C27.4414 25.0807 37.5611 14.9453 50 14.9453C62.4389 14.9453 72.5586 25.0807 72.5586 37.5383C72.5586 49.9959 62.4389 60.132 50 60.132Z" fill="#00E2C5"/>
<path d="M62.7191 32.6055L54.6566 31.432L51.051 24.1148C50.9542 23.9186 50.8045 23.7533 50.6188 23.6378C50.433 23.5222 50.2186 23.4609 49.9998 23.4609C49.781 23.4609 49.5666 23.5222 49.3808 23.6378C49.195 23.7533 49.0453 23.9186 48.9486 24.1148L45.3424 31.432L37.2804 32.6055C37.0642 32.6369 36.861 32.7283 36.6939 32.8692C36.5268 33.0101 36.4024 33.1949 36.3348 33.4027C36.2672 33.6106 36.2591 33.8332 36.3114 34.0454C36.3636 34.2577 36.4742 34.451 36.6306 34.6037L42.4656 40.2996L41.0879 48.343C41.051 48.5585 41.0751 48.7801 41.1576 48.9827C41.24 49.1852 41.3775 49.3607 41.5545 49.4891C41.7315 49.6176 41.9409 49.694 42.159 49.7097C42.3772 49.7253 42.5953 49.6796 42.7888 49.5777L49.9998 45.7813L57.2101 49.5775C57.4036 49.6794 57.6218 49.7251 57.8399 49.7094C58.058 49.6938 58.2674 49.6174 58.4444 49.489C58.6213 49.3605 58.7588 49.1851 58.8413 48.9826C58.9238 48.7801 58.948 48.5585 58.9111 48.343L57.534 40.2996L63.3689 34.6037C63.5253 34.451 63.6359 34.2577 63.6882 34.0454C63.7405 33.8332 63.7324 33.6106 63.6648 33.4027C63.5972 33.1949 63.4728 33.0101 63.3057 32.8692C63.1386 32.7283 62.9354 32.6369 62.7191 32.6055ZM55.4564 39.0521C55.3206 39.1848 55.219 39.3484 55.1604 39.5289C55.1019 39.7095 55.088 39.9016 55.1201 40.0887L56.2002 46.3973L50.5467 43.4195C50.3784 43.3308 50.191 43.2845 50.0008 43.2845C49.8105 43.2845 49.6232 43.3308 49.4549 43.4195L43.8 46.3969L44.8804 40.0883C44.9125 39.9012 44.8987 39.7091 44.8401 39.5285C44.7815 39.348 44.6799 39.1844 44.5441 39.0518L39.9658 34.5828L46.2908 33.6623C46.4789 33.6349 46.6575 33.5622 46.8112 33.4505C46.965 33.3387 47.0892 33.1912 47.1732 33.0207L49.9998 27.284L52.8267 33.0211C52.9108 33.1916 53.035 33.3391 53.1887 33.4508C53.3425 33.5626 53.5211 33.6353 53.7092 33.6627L60.0347 34.5832L55.4564 39.0521Z" fill="#00E2C5"/>
</svg>
