<svg width="100" height="100" viewBox="0 0 100 100" fill="none" xmlns="http://www.w3.org/2000/svg">
<g clip-path="url(#clip0_10357_7420)">
<path fill-rule="evenodd" clip-rule="evenodd" d="M40 15.5186C24.9766 19.8805 14 33.8143 14 50.3205C14 66.8262 24.9766 80.7603 40 85.122V97.5909C18.2987 92.9622 2 73.5625 2 50.3205C2 27.0782 18.2987 7.6786 40 3.0497V15.5186ZM40 1.00658C17.1776 5.66896 0 25.9758 0 50.3205C0 74.6648 17.1776 94.9718 40 99.6341C40.662 99.7693 41.3288 99.8914 42 100V83.5855C27.0826 79.965 16 66.445 16 50.3205C16 34.1955 27.0826 20.6757 42 17.0551V0.640625C41.3288 0.749257 40.662 0.871336 40 1.00658ZM60 97.5909C81.7014 92.9622 98 73.5625 98 50.3205C98 27.0782 81.7014 7.6786 60 3.0497V15.5186C75.0235 19.8805 86 33.8143 86 50.3205C86 66.8262 75.0235 80.7603 60 85.122V97.5909ZM60 99.6341C59.338 99.7693 58.6712 99.8914 58 100V83.5855C72.9175 79.965 84 66.445 84 50.3205C84 34.1955 72.9175 20.6757 58 17.0551V0.640625C58.6712 0.749257 59.338 0.871335 60 1.00658C82.8225 5.66895 100 25.9758 100 50.3205C100 74.6648 82.8225 94.9718 60 99.6341Z" fill="#005BFF"/>
</g>
<defs>
<clipPath id="clip0_10357_7420">
<rect width="100" height="100" fill="white"/>
</clipPath>
</defs>
</svg>
