<svg width="100" height="100" viewBox="0 0 100 100" fill="none" xmlns="http://www.w3.org/2000/svg">
<g clip-path="url(#clip0_10244_7808)">
<path fill-rule="evenodd" clip-rule="evenodd" d="M50 98C76.5094 98 98 76.5094 98 50C98 23.4903 76.5094 2 50 2C23.4903 2 2 23.4903 2 50C2 76.5094 23.4903 98 50 98ZM73.875 50C73.875 63.1856 63.1856 73.875 50 73.875C36.8142 73.875 26.125 63.1856 26.125 50C26.125 36.8142 36.8142 26.125 50 26.125C63.1856 26.125 73.875 36.8142 73.875 50ZM100 50C100 77.614 77.614 100 50 100C22.3857 100 0 77.614 0 50C0 22.3857 22.3857 0 50 0C77.614 0 100 22.3857 100 50ZM71.875 50C71.875 62.081 62.081 71.875 50 71.875C37.9188 71.875 28.125 62.081 28.125 50C28.125 37.9188 37.9188 28.125 50 28.125C62.081 28.125 71.875 37.9188 71.875 50Z" fill="#00E2C5"/>
</g>
<defs>
<clipPath id="clip0_10244_7808">
<rect width="100" height="100" fill="white"/>
</clipPath>
</defs>
</svg>
