<svg width="100" height="100" viewBox="0 0 100 100" fill="none" xmlns="http://www.w3.org/2000/svg">
<g clip-path="url(#clip0_10244_7735)">
<path fill-rule="evenodd" clip-rule="evenodd" d="M0 0V50V100H50H100V50V0H50H0ZM64.0463 2C59.5903 0.698166 54.8767 0 50 0C45.1233 0 40.4096 0.698166 35.9536 2C19.6333 6.76793 6.76793 19.6333 2 35.9536C0.698166 40.4096 0 45.1233 0 50C0 54.8767 0.698166 59.5903 2 64.0463C6.76794 80.3666 19.6333 93.232 35.9536 98C40.4097 99.3018 45.1233 100 50 100C54.8766 100 59.5902 99.3018 64.0463 98C80.3665 93.232 93.232 80.3665 98 64.0463C99.3018 59.5902 100 54.8766 100 50C100 45.1233 99.3018 40.4097 98 35.9536C93.232 19.6333 80.3666 6.76794 64.0463 2ZM70.0351 2C82.6418 7.26819 92.7318 17.3581 98 29.9649V2H70.0351ZM98 70.035C92.7318 82.6418 82.6418 92.7318 70.035 98H98V70.035ZM29.9649 98C17.3581 92.7318 7.26819 82.6418 2 70.0351V98H29.9649ZM2 29.9648C7.26818 17.3581 17.3581 7.26818 29.9648 2H2V29.9648ZM50 53.5C51.9329 53.5 53.5 51.9329 53.5 50C53.5 48.067 51.9329 46.5 50 46.5C48.067 46.5 46.5 48.067 46.5 50C46.5 51.9329 48.067 53.5 50 53.5ZM55.5 50C55.5 53.0375 53.0375 55.5 50 55.5C46.9624 55.5 44.5 53.0375 44.5 50C44.5 46.9624 46.9624 44.5 50 44.5C53.0375 44.5 55.5 46.9624 55.5 50Z" fill="#00E2C5"/>
</g>
<defs>
<clipPath id="clip0_10244_7735">
<rect width="100" height="100" fill="white"/>
</clipPath>
</defs>
</svg>
