<svg width="100" height="100" viewBox="0 0 100 100" fill="none" xmlns="http://www.w3.org/2000/svg">
<path d="M43.821 7.82031C34.275 7.82657 25.1217 11.6215 18.3716 18.3716C11.6215 25.1217 7.82657 34.275 7.82031 43.821C7.82657 53.3671 11.6215 62.5204 18.3716 69.2705C25.1217 76.0205 34.275 79.8155 43.821 79.8217C52.8283 79.828 61.5081 76.4442 68.1345 70.3432L89.6605 91.881C89.806 92.0274 89.9789 92.1436 90.1695 92.2229C90.36 92.3022 90.5644 92.343 90.7708 92.343C90.9771 92.343 91.1815 92.3022 91.372 92.2229C91.5626 92.1436 91.7356 92.0274 91.881 91.881C92.0274 91.7356 92.1436 91.5626 92.2229 91.372C92.3022 91.1815 92.343 90.9771 92.343 90.7708C92.343 90.5644 92.3022 90.36 92.2229 90.1695C92.1436 89.9789 92.0274 89.806 91.881 89.6605L70.3432 68.1345C76.4442 61.5081 79.828 52.8283 79.8217 43.821C79.8155 34.275 76.0205 25.1217 69.2705 18.3716C62.5204 11.6215 53.3671 7.82657 43.821 7.82031ZM43.821 10.9503C48.1385 10.9472 52.4143 11.7953 56.4038 13.4461C60.3932 15.0969 64.0181 17.518 67.0711 20.571C70.124 23.6239 72.5451 27.2488 74.1959 31.2383C75.8467 35.2277 76.6949 39.5035 76.6917 43.821C76.6949 48.1385 75.8467 52.4143 74.1959 56.4038C72.5451 60.3932 70.124 64.0181 67.0711 67.0711C64.0181 70.124 60.3932 72.5451 56.4038 74.1959C52.4143 75.8467 48.1385 76.6949 43.821 76.6917C39.5035 76.6949 35.2277 75.8467 31.2383 74.1959C27.2488 72.5451 23.6239 70.124 20.571 67.0711C17.518 64.0181 15.0969 60.3932 13.4461 56.4038C11.7953 52.4143 10.9472 48.1385 10.9503 43.821C10.9472 39.5035 11.7953 35.2277 13.4461 31.2383C15.0969 27.2488 17.518 23.6239 20.571 20.571C23.6239 17.518 27.2488 15.0969 31.2383 13.4461C35.2277 11.7953 39.5035 10.9472 43.821 10.9503Z" fill="#00E2C5"/>
</svg>
