<svg width="100" height="100" viewBox="0 0 100 100" fill="none" xmlns="http://www.w3.org/2000/svg">
<g clip-path="url(#clip0_10406_5265)">
<path fill-rule="evenodd" clip-rule="evenodd" d="M50 98C76.5094 98 98 76.5094 98 50C98 23.4903 76.5094 2 50 2C23.4903 2 2 23.4903 2 50C2 76.5094 23.4903 98 50 98ZM96 50C96 75.4051 75.4051 96 50 96C24.5949 96 4 75.4051 4 50C4 24.5949 24.5949 4 50 4C75.4051 4 96 24.5949 96 50ZM50 86C69.8824 86 86 69.8824 86 50C86 30.1178 69.8824 14 50 14C30.1178 14 14 30.1178 14 50C14 69.8824 30.1178 86 50 86ZM84 50C84 68.7776 68.7776 84 50 84C31.2223 84 16 68.7776 16 50C16 31.2223 31.2223 16 50 16C68.7776 16 84 31.2223 84 50ZM50 74C63.2549 74 74 63.2549 74 50C74 36.7452 63.2549 26 50 26C36.7452 26 26 36.7452 26 50C26 63.2549 36.7452 74 50 74ZM72 50C72 62.1501 62.1501 72 50 72C37.8497 72 28 62.1501 28 50C28 37.8497 37.8497 28 50 28C62.1501 28 72 37.8497 72 50ZM100 50C100 77.614 77.614 100 50 100C22.3857 100 0 77.614 0 50C0 22.3857 22.3857 0 50 0C77.614 0 100 22.3857 100 50ZM94 50C94 74.3005 74.3005 94 50 94C25.6994 94 6 74.3005 6 50C6 25.6994 25.6994 6 50 6C74.3005 6 94 25.6994 94 50ZM88 50C88 70.987 70.987 88 50 88C29.0132 88 12 70.987 12 50C12 29.0132 29.0132 12 50 12C70.987 12 88 29.0132 88 50ZM82 50C82 67.673 67.673 82 50 82C32.3269 82 18 67.673 18 50C18 32.3269 32.3269 18 50 18C67.673 18 82 32.3269 82 50ZM50 76C64.3595 76 76 64.3595 76 50C76 35.6406 64.3595 24 50 24C35.6406 24 24 35.6406 24 50C24 64.3595 35.6406 76 50 76ZM50 70C61.0455 70 70 61.0455 70 50C70 38.9543 61.0455 30 50 30C38.9543 30 30 38.9543 30 50C30 61.0455 38.9543 70 50 70Z" fill="#00E2C5"/>
</g>
<defs>
<clipPath id="clip0_10406_5265">
<rect width="100" height="100" fill="white"/>
</clipPath>
</defs>
</svg>
