<svg width="100" height="100" viewBox="0 0 100 100" fill="none" xmlns="http://www.w3.org/2000/svg">
<g clip-path="url(#clip0_10244_8044)">
<path fill-rule="evenodd" clip-rule="evenodd" d="M60.098 48.9798C82.2402 44.4388 99.0457 25.2608 99.9607 2C99.9868 1.33657 100 0.669825 100 0L0 8.7423e-06C0 0.669833 0.0131714 1.33658 0.0392692 2.00001C0.954299 25.2608 17.76 44.4388 39.902 48.9798C43.1597 49.6479 46.5329 49.9992 49.988 50C46.5329 50.0008 43.1597 50.3521 39.902 51.0202C17.76 55.5612 0.954307 74.7394 0.0392739 98C0.0131759 98.6634 4.37114e-06 99.3302 4.37114e-06 100H100C100 99.3302 99.9868 98.6634 99.9607 98C99.0457 74.7394 82.2402 55.5612 60.098 51.0202C56.8403 50.3521 53.4671 50.0008 50.012 50C53.4671 49.9992 56.8403 49.6479 60.098 48.9798ZM50.0115 52C50.0112 52 50.0118 52 50.0115 52V48C50.0118 48 50.0112 48 50.0115 48C75.8458 47.9934 96.9108 27.578 97.9591 2L2.04091 2.00001C3.08926 27.578 24.1535 47.9934 49.9875 48C49.9878 48 49.9872 48 49.9875 48L49.9884 52C49.9881 52 49.9887 52 49.9884 52C24.1544 52.0066 3.08927 72.4222 2.04092 98H97.9591C96.9108 72.4222 75.8458 52.0066 50.0115 52Z" fill="#00E2C5"/>
</g>
<defs>
<clipPath id="clip0_10244_8044">
<rect width="100" height="100" fill="white"/>
</clipPath>
</defs>
</svg>
