<svg width="100" height="100" viewBox="0 0 100 100" fill="none" xmlns="http://www.w3.org/2000/svg">
<g clip-path="url(#clip0_10357_6923)">
<path fill-rule="evenodd" clip-rule="evenodd" d="M32.16 50.9076C29.8917 50.2307 27.4883 49.8672 25 49.8672C27.4883 49.8672 29.8917 49.5037 32.16 48.8268C40.2096 46.4248 46.5576 40.0768 48.9596 32.0272C49.6365 29.7589 50 27.3555 50 24.8672C50 27.3555 50.3635 29.7589 51.0404 32.0272C53.4424 40.0768 59.7904 46.4248 67.8401 48.8268C70.1083 49.5037 72.5117 49.8672 75 49.8672C72.5117 49.8672 70.1083 50.2307 67.8401 50.9076C59.7904 53.3096 53.4424 59.6576 51.0404 67.7073C50.3635 69.9755 50 72.3789 50 74.8672C50 72.3789 49.6365 69.9755 48.9596 67.7073C46.5576 59.6576 40.2096 53.3096 32.16 50.9076ZM51.0404 82.0271C50.3635 79.7589 50 77.3555 50 74.8672C50 77.3555 49.6365 79.7589 48.9596 82.0271C45.8807 92.345 36.3188 99.8672 25 99.8672C11.1929 99.8672 0 88.6742 0 74.8672C0 63.5485 7.52209 53.9865 17.84 50.9076C20.1083 50.2307 22.5117 49.8672 25 49.8672C22.5117 49.8672 20.1083 49.5037 17.84 48.8268C7.52209 45.7479 0 36.186 0 24.8672C0 11.0601 11.1929 -0.132812 25 -0.132812C36.3188 -0.132812 45.8807 7.38927 48.9596 17.7072C49.6365 19.9755 50 22.3789 50 24.8672C50 22.3789 50.3635 19.9755 51.0404 17.7072C54.1193 7.38927 63.6813 -0.132812 75 -0.132812C88.807 -0.132812 100 11.0601 100 24.8672C100 36.186 92.4778 45.7479 82.1599 48.8268C79.8917 49.5037 77.4883 49.8672 75 49.8672C77.4883 49.8672 79.8917 50.2307 82.1599 50.9076C92.4778 53.9865 100 63.5485 100 74.8672C100 88.6742 88.807 99.8672 75 99.8672C63.6813 99.8672 54.1193 92.345 51.0404 82.0271ZM25 47.8672C37.7025 47.8672 48 37.5697 48 24.8672C48 12.1647 37.7025 1.86719 25 1.86719C12.2975 1.86719 2 12.1647 2 24.8672C2 37.5697 12.2975 47.8672 25 47.8672ZM52 24.8672C52 37.5697 62.2976 47.8672 75 47.8672C87.7024 47.8672 98 37.5697 98 24.8672C98 12.1647 87.7024 1.86719 75 1.86719C62.2976 1.86719 52 12.1647 52 24.8672ZM75 51.8672C62.2976 51.8672 52 62.1648 52 74.8672C52 87.5696 62.2976 97.8672 75 97.8672C87.7024 97.8672 98 87.5696 98 74.8672C98 62.1648 87.7024 51.8672 75 51.8672ZM48 74.8672C48 62.1648 37.7025 51.8672 25 51.8672C12.2975 51.8672 2 62.1648 2 74.8672C2 87.5696 12.2975 97.8672 25 97.8672C37.7025 97.8672 48 87.5696 48 74.8672Z" fill="#005BFF"/>
</g>
<defs>
<clipPath id="clip0_10357_6923">
<rect width="100" height="100" fill="white"/>
</clipPath>
</defs>
</svg>
