<svg width="100" height="100" viewBox="0 0 100 100" fill="none" xmlns="http://www.w3.org/2000/svg">
<g clip-path="url(#clip0_10357_6936)">
<path fill-rule="evenodd" clip-rule="evenodd" d="M53.5715 0H46.4286V41.3778L17.1701 12.1193L12.1193 17.1701L41.3778 46.4286H0V53.5715H41.3778L12.1193 82.83L17.1701 87.8805L46.4286 58.622V100H53.5715V58.622L82.83 87.8805L87.8805 82.83L58.622 53.5715H100V46.4286H58.622L87.8805 17.17L82.83 12.1193L53.5715 41.3778V0ZM82.83 14.6906L51.7533 45.7672V1.81818H48.2467V45.7673L17.1701 14.6906L14.6906 17.17L45.7673 48.2467H1.81818V51.7533H45.7672L14.6906 82.83L17.17 85.3092L48.2467 54.2325V98.1818H51.7533V54.2325L82.83 85.3092L85.3092 82.83L54.2325 51.7533H98.1818V48.2467H54.2325L85.3092 17.17L82.83 14.6906Z" fill="#005BFF"/>
</g>
<defs>
<clipPath id="clip0_10357_6936">
<rect width="100" height="100" fill="white"/>
</clipPath>
</defs>
</svg>
