<svg width="100" height="100" viewBox="0 0 100 100" fill="none" xmlns="http://www.w3.org/2000/svg">
<path d="M88.154 91.8444H9.50955C8.88733 91.8444 8.39844 91.3556 8.39844 90.7333V12.1111C8.39844 11.4889 8.88733 11 9.50955 11C10.1318 11 10.6207 11.4889 10.6207 12.1111V89.6222H88.1318C88.754 89.6222 89.2429 90.1111 89.2429 90.7333C89.2429 91.3556 88.754 91.8444 88.154 91.8444Z" fill="#00E2C5"/>
<path d="M3.66592 13.222C2.53258 13.222 1.5548 12.5998 1.13258 11.5775C0.71036 10.5553 0.932582 9.42198 1.71036 8.64421L7.59925 2.75532C8.11036 2.24421 8.77703 1.97754 9.48814 1.97754C10.1992 1.97754 10.8881 2.26643 11.377 2.75532L17.2659 8.64421C18.0215 9.39976 18.2659 10.5553 17.8437 11.5553C17.4215 12.5775 16.4881 13.1998 15.377 13.222H3.66592ZM9.51036 4.19976C9.44369 4.19976 9.31036 4.22198 9.17703 4.33309L3.28814 10.222C3.13258 10.3775 3.13258 10.5998 3.19925 10.7331C3.26592 10.9109 3.42147 10.9998 3.66592 10.9998H15.377C15.6215 10.9998 15.7548 10.8442 15.7992 10.7109C15.8215 10.6442 15.9104 10.3998 15.7104 10.1998L9.82147 4.33309C9.71036 4.22198 9.57703 4.19976 9.51036 4.19976Z" fill="#00E2C5"/>
<path d="M89.7319 99.2663C89.3985 99.2663 89.043 99.1997 88.7096 99.0663C87.6874 98.6441 87.0652 97.7108 87.043 96.5997V84.8886C87.043 83.7552 87.6652 82.7775 88.6874 82.3552C89.6874 81.933 90.843 82.1552 91.6207 82.933L97.5096 88.8219C98.0207 89.333 98.2874 89.9997 98.2874 90.7108C98.2874 91.4219 98.0207 92.0886 97.5096 92.5997C97.5096 92.5997 97.5096 92.5997 97.4874 92.6219L91.5985 98.5108C91.1096 98.9997 90.4207 99.2663 89.7319 99.2663ZM89.7319 84.3775C89.6652 84.3775 89.5985 84.3997 89.5319 84.4219C89.3541 84.4886 89.2652 84.6441 89.2652 84.8886V96.5997C89.2652 96.8441 89.4207 96.9775 89.5541 97.0219C89.6207 97.0441 89.8652 97.133 90.0652 96.933L95.9541 91.0441C96.0652 90.933 96.0874 90.7997 96.0874 90.7108C96.0874 90.6219 96.0652 90.5108 95.9541 90.3775L90.0652 84.4886C89.9541 84.4219 89.8207 84.3775 89.7319 84.3775Z" fill="#00E2C5"/>
<path d="M82.8207 91.8441C82.1984 91.8441 81.7095 91.3552 81.7095 90.733V18.5552H9.50955C8.88733 18.5552 8.39844 18.0663 8.39844 17.4441C8.39844 16.8219 8.88733 16.333 9.50955 16.333H82.7984C83.4207 16.333 83.9095 16.8219 83.9095 17.4441V90.733C83.9318 91.3552 83.4207 91.8441 82.8207 91.8441Z" fill="#00E2C5"/>
<path d="M69.5984 91.8446C68.9762 91.8446 68.4873 91.3557 68.4873 90.7334V31.7779H9.50955C8.88733 31.7779 8.39844 31.289 8.39844 30.6668C8.39844 30.0446 8.88733 29.5557 9.50955 29.5557H69.5984C70.2207 29.5557 70.7096 30.0446 70.7096 30.6668V90.7557C70.7096 91.3557 70.2207 91.8446 69.5984 91.8446Z" fill="#00E2C5"/>
<path d="M56.3762 91.8447C55.754 91.8447 55.2651 91.3559 55.2651 90.7336V44.9781H9.50955C8.88733 44.9781 8.39844 44.4892 8.39844 43.867C8.39844 43.2447 8.88733 42.7559 9.50955 42.7559H56.3762C56.9984 42.7559 57.4873 43.2447 57.4873 43.867V90.7336C57.4873 91.3559 56.9984 91.8447 56.3762 91.8447Z" fill="#00E2C5"/>
<path d="M43.1762 91.8442C42.554 91.8442 42.0651 91.3553 42.0651 90.7331V58.1998H9.50955C8.88733 58.1998 8.39844 57.7109 8.39844 57.0887C8.39844 56.4664 8.88733 55.9775 9.50955 55.9775H43.154C43.7762 55.9775 44.2651 56.4664 44.2651 57.0887V90.7331C44.2873 91.3553 43.7984 91.8442 43.1762 91.8442Z" fill="#00E2C5"/>
<path d="M9.50955 91.8442C9.22066 91.8442 8.93177 91.7331 8.73177 91.5109C8.28733 91.0664 8.28733 90.3776 8.73177 89.9331L90.4651 8.22201C90.9096 7.77756 91.5984 7.77756 92.0429 8.22201C92.4873 8.66645 92.4873 9.35534 92.0429 9.79978L10.3095 91.5331C10.0873 91.7331 9.79844 91.8442 9.50955 91.8442Z" fill="#00E2C5"/>
<path d="M96.4886 14.7338C95.7997 14.7338 95.1331 14.4671 94.5997 13.956L86.3108 5.66714C85.5108 4.86714 85.2664 3.73381 85.6886 2.71159C86.1108 1.71159 87.0886 1.04492 88.1775 1.04492H96.4886C97.9775 1.04492 99.1775 2.24492 99.1775 3.73381V12.0449C99.1775 13.1338 98.533 14.0894 97.533 14.5116C97.1775 14.6671 96.8219 14.7338 96.4886 14.7338ZM88.1775 3.26714C87.9553 3.26714 87.8219 3.4227 87.7553 3.55603C87.6886 3.73381 87.7331 3.91159 87.8886 4.08937L96.1775 12.3783C96.3553 12.556 96.5553 12.5338 96.6664 12.4894C96.7331 12.4671 96.9553 12.3338 96.9553 12.0671V3.73381C96.9553 3.48937 96.7331 3.26714 96.4886 3.26714H88.1775Z" fill="#00E2C5"/>
</svg>
