<svg width="100" height="100" viewBox="0 0 100 100" fill="none" xmlns="http://www.w3.org/2000/svg">
<g clip-path="url(#clip0_10357_5684)">
<path fill-rule="evenodd" clip-rule="evenodd" d="M70 100H100V0H0V30H35C30.9004 30 26.9653 30.7049 23.3095 32C9.72805 36.8115 0 49.7697 0 65C0 84.33 15.67 100 35 100C50.2304 100 63.1885 90.272 68 76.6905C69.2934 73.0396 69.9981 69.1102 70 65.0165V100ZM72 98H98V2H2V28H72V64.9826L68 64.9844C68 64.9841 68 64.9847 68 64.9844C67.991 46.7666 53.2199 32 35 32C16.7746 32 2 46.7746 2 65C2 83.2254 16.7746 98 35 98C53.2199 98 67.991 83.2344 68 65.0165C68 65.0162 68 65.0168 68 65.0165L72 65.0174V98ZM46.6905 32C43.0347 30.7049 39.0997 30 35 30H70V64.9835C69.9981 60.8898 69.2934 56.9605 68 53.3096C64.4837 43.3839 56.6162 35.5163 46.6905 32Z" fill="#005BFF"/>
</g>
<defs>
<clipPath id="clip0_10357_5684">
<rect width="100" height="100" fill="white"/>
</clipPath>
</defs>
</svg>
