<svg width="100" height="100" viewBox="0 0 100 100" fill="none" xmlns="http://www.w3.org/2000/svg">
<g clip-path="url(#clip0_10244_8022)">
<path fill-rule="evenodd" clip-rule="evenodd" d="M22.5173 93.9936C22.0552 95.8403 21.4808 97.8402 20.7987 99.998C21.8731 98.1585 23.0616 96.4656 24.3461 94.9193C37.8919 78.6128 62.1108 78.6135 75.6558 94.9213C76.9397 96.4671 78.1276 98.1593 79.2015 99.998C78.5202 97.8411 77.9464 95.8419 77.4847 93.9959C73.4691 77.9377 77.9423 73.4641 93.9964 77.4819C95.8428 77.9441 97.8425 78.5185 100 79.2005C98.1608 78.1262 96.4681 76.9377 94.9221 75.6532C78.6189 62.1079 78.6196 37.8907 94.9242 24.3465C96.4697 23.0627 98.1616 21.8748 100 20.801C97.8434 21.4823 95.8445 22.0561 93.9987 22.5176C77.9427 26.5329 73.4689 22.0591 77.4847 6.00016C77.9464 4.15412 78.5202 2.15498 79.2015 -0.00195312C78.1276 1.83677 76.9397 3.52899 75.6558 5.07471C62.1108 21.3825 37.8919 21.3832 24.3461 5.07676C23.0616 3.53048 21.8731 1.83758 20.7987 -0.00195312C21.4808 2.15586 22.0552 4.15575 22.5173 6.00243C26.5355 22.0596 22.0615 26.5328 6.00233 22.5176C4.15622 22.056 2.15701 21.4822 0 20.801C1.83883 21.8748 3.53115 23.0627 5.07695 24.3465C21.3855 37.8906 21.3862 62.108 5.07906 75.6532C3.53268 76.9377 1.83967 78.1262 0 79.2005C2.15792 78.5185 4.1579 77.9441 6.00466 77.482C22.0619 73.4642 26.5353 77.9372 22.5173 93.9936ZM25.2345 90.9853C25.5734 89.2099 25.7883 87.5801 25.8687 86.0951C26.0758 82.2717 25.4109 79.0031 23.2034 76.7957C20.9959 74.5884 17.7272 73.9236 13.9037 74.1307C12.4186 74.2111 10.7886 74.426 9.01325 74.7649C22.7416 60.9419 22.7408 39.0559 9.01077 25.2341C10.7873 25.5729 12.4182 25.7876 13.9041 25.8678C17.7277 26.0741 20.9962 25.4085 23.2035 23.2009C25.4109 20.9932 26.0758 17.7246 25.8687 13.9011C25.7883 12.416 25.5734 10.7861 25.2345 9.01077C39.058 22.7386 60.9455 22.7378 74.7681 9.00837C74.4292 10.7848 74.2145 12.4156 74.1343 13.9014C73.9279 17.7249 74.5933 20.9933 76.8005 23.2009C79.0078 25.4085 82.2759 26.0741 86.099 25.8678C87.5845 25.7876 89.215 25.5729 90.991 25.2342C77.2642 39.0559 77.2634 60.9419 90.9885 74.7648C89.2136 74.4259 87.5842 74.2111 86.0994 74.1307C82.2764 73.9236 79.0081 74.5884 76.8007 76.7957C74.5932 79.003 73.9279 82.2713 74.1343 86.0947C74.2145 87.5805 74.4292 89.2113 74.7681 90.9877C60.9455 77.2581 39.058 77.2573 25.2345 90.9853ZM70.5 49.998C70.5 61.3201 61.3221 70.498 50 70.498C38.6782 70.498 29.5 61.3201 29.5 49.998C29.5 38.6762 38.6782 29.498 50 29.498C61.3221 29.498 70.5 38.6762 70.5 49.998ZM68.5 49.998C68.5 60.2155 60.2175 68.498 50 68.498C39.7827 68.498 31.5 60.2155 31.5 49.998C31.5 39.7808 39.7827 31.498 50 31.498C60.2175 31.498 68.5 39.7808 68.5 49.998Z" fill="#00E2C5"/>
</g>
<defs>
<clipPath id="clip0_10244_8022">
<rect width="100" height="100" fill="white"/>
</clipPath>
</defs>
</svg>
