<svg width="100" height="100" viewBox="0 0 100 100" fill="none" xmlns="http://www.w3.org/2000/svg">
<g clip-path="url(#clip0_10406_5191)">
<path fill-rule="evenodd" clip-rule="evenodd" d="M76.1513 83.4522C75.6235 80.2858 73.4443 76.2715 68.5843 71.4112L69.9985 69.997C72.6215 72.6202 74.5566 75.0713 75.8939 77.3505C93.6137 107.55 6.3863 107.55 24.1062 77.3505C25.4435 75.0713 27.3786 72.6202 30.0016 69.997L31.4159 71.4112C26.5558 76.2715 24.3766 80.2858 23.8487 83.4522C23.3425 86.489 24.3139 88.9839 26.4148 91.0852C28.5849 93.2556 31.9784 95.0027 36.1747 96.2018C40.344 97.3932 45.1556 98 50 98C54.8444 98 59.656 97.3932 63.8253 96.2018C68.0216 95.0027 71.4151 93.2556 73.5852 91.0852C75.6861 88.9839 76.6576 86.489 76.1513 83.4522ZM22.6485 24.1041C-7.5495 6.38696 -7.54951 93.614 22.6485 75.8928C24.9275 74.5554 27.3786 72.6202 30.0016 69.997L28.5874 68.5828C23.7273 73.4431 19.7132 75.6226 16.547 76.1506C13.5103 76.6569 11.0156 75.6857 8.91452 73.5849C6.74424 71.4149 4.99716 68.0215 3.79814 63.8253C2.60683 59.6561 2 54.8444 2 50C2 45.1556 2.60683 40.3439 3.79814 36.1745C4.99717 31.978 6.74427 28.5843 8.91462 26.414C11.0158 24.3128 13.5106 23.3412 16.5472 23.8471C19.7134 24.3747 23.7275 26.5535 28.5875 31.413L30.0016 29.9988L31.4158 28.5845C26.5557 23.7249 24.3765 19.7112 23.8487 16.5454C23.3425 13.5092 24.3138 11.0148 26.4147 8.9139C28.5848 6.74382 31.9783 4.99689 36.1746 3.79797C40.3439 2.60678 45.1556 2 50 2C54.8444 2 59.6561 2.60678 63.8254 3.79797C68.0217 4.99689 71.4152 6.74382 73.5853 8.9139C75.6862 11.0148 76.6575 13.5092 76.1513 16.5454C75.6236 19.7112 73.4444 23.7249 68.5844 28.5845L69.9985 29.9988L71.4126 31.413C76.2727 26.5535 80.2867 24.3747 83.4529 23.8471C86.4894 23.3412 88.9842 24.3128 91.0854 26.414C93.2557 28.5843 95.0028 31.978 96.2019 36.1745C97.3932 40.3439 98 45.1556 98 50C98 54.8444 97.3932 59.6561 96.2019 63.8253C95.0028 68.0215 93.2558 71.4149 91.0855 73.5849C88.9844 75.6857 86.4897 76.6569 83.4531 76.1506C80.2869 75.6226 76.2728 73.4431 71.4127 68.5828L69.9985 69.997C72.6215 72.6202 75.0726 74.5554 77.3516 75.8928C107.549 93.614 107.549 6.38697 77.3516 24.104C75.0725 25.4412 72.6215 27.376 69.9985 29.9988C72.6216 27.3759 74.5566 24.9251 75.8939 22.6463C93.6135 -7.54876 6.38649 -7.54876 24.1062 22.6463C25.4435 24.9251 27.3786 27.3759 30.0016 29.9988C27.3786 27.376 24.9276 25.4412 22.6485 24.1041Z" fill="#00E2C5"/>
</g>
<defs>
<clipPath id="clip0_10406_5191">
<rect width="100" height="100" fill="white"/>
</clipPath>
</defs>
</svg>
