<svg width="100" height="100" viewBox="0 0 100 100" fill="none" xmlns="http://www.w3.org/2000/svg">
<g clip-path="url(#clip0_10357_9121)">
<path fill-rule="evenodd" clip-rule="evenodd" d="M54.1506 29.4363L50.2117 29.0223L49.9983 23.0452L49.7848 29.0223L45.8459 29.4363L44.3934 23.6301L45.428 29.5252L41.6612 30.7491L39.0329 25.371L41.2709 30.9229L37.8409 32.9032L34.1524 28.1898L37.4953 33.1543L34.552 35.8044L29.9635 31.9605L34.2661 36.122L31.9381 39.3262L26.651 36.5203L31.7244 39.6961L30.1135 43.3144L24.3586 41.6691L29.9814 43.7207L29.158 47.5947L23.1861 47.1819L29.1134 48.0197L29.1134 51.9803L23.1841 52.8184L29.158 52.4054L29.9814 56.2795L24.3586 58.3311L30.1135 56.6858L31.7244 60.304L26.6487 63.4812L31.9381 60.6742L34.2661 63.8785L29.9675 68.036L34.552 64.1954L37.4953 66.8456L34.1502 71.8133L37.8409 67.0972L41.2709 69.0775L39.0334 74.6281L41.6612 69.251L45.428 70.4749L44.3935 76.369L45.8459 70.5634L49.7848 70.9774L49.9983 76.9546L50.2117 70.9774L54.1506 70.5634L55.6045 76.375L54.569 70.4749L58.3357 69.251L60.9632 74.6272L58.726 69.0775L62.156 67.0971L65.8478 71.8147L62.5018 66.8456L65.4451 64.1954L70.0289 68.0355L65.7309 63.8784L68.0589 60.6742L73.3458 63.4799L68.2721 60.304L69.883 56.6858L75.6401 58.3317L70.0156 56.2795L70.8391 52.4054L76.8127 52.8184L70.8835 51.9803V48.0197L76.8106 47.1819L70.8391 47.5947L70.0156 43.7207L75.6401 41.6685L69.883 43.3144L68.2721 39.6961L73.3435 36.5217L68.0589 39.3262L65.7309 36.122L70.0329 31.961L65.4451 35.8044L62.5018 33.1543L65.8456 28.1884L62.156 32.9032L58.726 30.9229L60.9637 25.3718L58.3357 30.7491L54.569 29.5252L55.6046 23.6241L54.1506 29.4363ZM67.255 -31.1863L56.5388 29.8709L83.7579 -25.8243L60.5809 31.6706L98.785 -17.1484L64.1607 34.2713L111.679 -5.53787L67.1213 37.5595L121.879 8.5L69.3333 41.3914L128.936 24.3516L70.7011 45.5995L132.544 41.3241L71.1634 50L132.544 58.676L70.7011 54.4007L128.936 75.6487L69.3333 58.6088L121.879 91.5L67.1213 62.4409L111.679 105.538L64.1607 65.7285L98.785 117.149L60.5809 68.3297L83.7579 125.825L56.5388 70.1292L67.255 131.186L52.2104 71.0488L49.9984 133L47.7861 71.0488L32.7417 131.186L43.4581 70.1292L16.2393 125.825L39.4159 68.3297L1.21229 117.149L35.8363 65.7285L-11.6826 105.538L32.8756 62.4409L-21.8816 91.5L30.6633 58.6088L-28.9392 75.6487L29.2959 54.4007L-32.5469 58.676L28.8334 50L-32.5469 41.3241L29.2959 45.5995L-28.9392 24.3516L30.6633 41.3914L-21.8816 8.5L32.8756 37.5595L-11.6826 -5.53787L35.8363 34.2713L1.21229 -17.1484L39.4159 31.6706L16.2393 -25.8243L43.4581 29.8709L32.7417 -31.1863L47.7861 28.951L49.9984 -33L52.2104 28.951L67.255 -31.1863Z" fill="#005BFF"/>
</g>
<defs>
<clipPath id="clip0_10357_9121">
<rect width="100" height="100" fill="white"/>
</clipPath>
</defs>
</svg>
