<svg width="100" height="100" viewBox="0 0 100 100" fill="none" xmlns="http://www.w3.org/2000/svg">
<path fill-rule="evenodd" clip-rule="evenodd" d="M2.68582 44.1021L4.01763 45.5941C1.32746 47.9953 1.32745 51.9432 4.01764 54.3444C12.8337 62.2136 30.2045 74.9385 49.9997 74.9385C69.7948 74.9385 87.1657 62.2136 95.9817 54.3444C98.6718 51.9432 98.6718 47.9953 95.9817 45.594C87.1657 37.7249 69.7948 25 49.9997 25C30.2045 25 12.8337 37.7249 4.01763 45.5941L2.68582 44.1021ZM2.68582 55.8365C-0.89527 52.64 -0.895275 47.2985 2.68582 44.1021C11.5739 36.1686 29.4258 23 49.9997 23C70.5735 23 88.4255 36.1686 97.3135 44.102C100.895 47.2985 100.895 52.64 97.3135 55.8365C88.4255 63.77 70.5735 76.9385 49.9997 76.9385C29.4258 76.9385 11.5739 63.77 2.68582 55.8365ZM70.8155 49.9692C70.8155 61.4656 61.4961 70.785 49.9997 70.785C38.5035 70.785 29.184 61.4656 29.184 49.9692C29.184 38.473 38.5035 29.1535 49.9997 29.1535C61.4961 29.1535 70.8155 38.473 70.8155 49.9692ZM68.8155 49.9692C68.8155 60.361 60.3915 68.785 49.9997 68.785C39.608 68.785 31.184 60.361 31.184 49.9692C31.184 39.5776 39.608 31.1535 49.9997 31.1535C60.3915 31.1535 68.8155 39.5776 68.8155 49.9692Z" fill="#00E2C5"/>
</svg>
