<svg width="100" height="100" viewBox="0 0 100 100" fill="none" xmlns="http://www.w3.org/2000/svg">
<g clip-path="url(#clip0_10255_8331)">
<path d="M49.8992 92.1999C39.0992 92.1999 28.2992 88.0999 20.0992 79.8999C12.0992 71.8999 7.69922 61.2999 7.69922 50.0999C7.69922 38.7999 12.0992 28.1999 20.0992 20.2999C28.0992 12.2999 38.6992 7.8999 49.8992 7.8999C61.0992 7.8999 71.7992 12.2999 79.6992 20.2999C96.0992 36.6999 96.0992 63.4999 79.6992 79.8999C71.4992 88.0999 60.6992 92.1999 49.8992 92.1999ZM21.4992 78.4999C37.1992 94.1999 62.6992 94.1999 78.2992 78.4999C93.9992 62.7999 93.9992 37.2999 78.2992 21.6999C70.6992 14.0999 60.5992 9.8999 49.8992 9.8999C39.1992 9.8999 28.9992 14.0999 21.4992 21.6999C13.9992 29.2999 9.69922 39.3999 9.69922 50.0999C9.69922 60.7999 13.8992 70.8999 21.4992 78.4999Z" fill="#00E2C5"/>
<path d="M100 100H0V0H100V100ZM2 98H98V2H2V98Z" fill="#00E2C5"/>
</g>
<defs>
<clipPath id="clip0_10255_8331">
<rect width="100" height="100" fill="white"/>
</clipPath>
</defs>
</svg>
