<svg class="blog-tabbing__img" width="695" height="600" viewBox="0 0 695 600" fill="none" xmlns="http://www.w3.org/2000/svg">
<path d="M177.479 258.526C177.458 256.436 177.423 254.338 177.353 252.247C177.08 243.71 177.577 234.772 176.057 226.346C175.903 225.504 174.516 225.504 174.362 226.346C172.933 234.26 173.269 242.713 173.066 250.732C172.996 253.489 172.968 256.246 172.961 259.01C174.551 258.526 175.931 258.351 177.479 258.526Z" fill="#030510"/>
<path d="M172.926 341.162C172.912 347.848 172.898 354.534 172.891 361.219C173.08 361.275 173.269 361.325 173.452 361.409C173.48 354.639 173.34 347.883 172.926 341.162Z" fill="#030510"/>
<path d="M172.961 425.895C173.129 429.935 173.381 433.955 173.801 437.94C173.991 439.743 176.407 439.743 176.603 437.94C177.024 433.976 177.276 429.978 177.437 425.951C176.078 426.252 174.558 426.21 172.961 425.895Z" fill="#030510"/>
<path d="M539.591 436.439C514.213 433.604 487.973 435.225 462.462 435.225C437.253 435.225 412.05 435.239 386.84 435.239C335.923 435.253 285.006 435.323 234.089 435.309C204.831 435.295 175.6 435.092 146.37 436.509C145.179 436.565 145.179 438.305 146.37 438.361C197.196 440.816 248.246 439.539 299.12 439.582C350.037 439.631 400.954 439.624 451.871 439.638C480.85 439.645 510.774 441.651 539.591 438.431C540.866 438.291 540.866 436.579 539.591 436.439Z" fill="#030510"/>
<path d="M509.319 223.738C509.137 222.629 507.26 222.629 507.078 223.738C504.29 240.575 505.677 258.597 505.649 275.624C505.614 293.829 505.544 312.027 505.621 330.233C505.698 347.933 505.747 365.626 505.964 383.326C506.076 392.425 506.132 401.531 506.195 410.63C506.258 419.224 505.579 428.232 507.148 436.706C507.344 437.752 509.06 437.752 509.249 436.706C510.734 428.695 510.125 420.269 510.188 412.145C510.258 403.046 510.307 393.94 510.412 384.841C510.629 366.636 510.699 348.438 510.776 330.233C510.853 312.533 510.783 294.839 510.755 277.139C510.72 259.629 512.191 241.066 509.319 223.738Z" fill="#030510"/>
<path d="M509.214 225.351C495.422 223.59 480.936 224.86 467.025 224.544C452.967 224.221 438.894 224.341 424.836 224.327C397.21 224.299 369.583 224.278 341.964 224.285C286.214 224.292 230.456 224.783 174.706 224.951C172.598 224.958 172.598 228.22 174.706 228.227C230.456 228.396 286.214 228.887 341.964 228.894C369.59 228.894 397.217 228.873 424.836 228.852C438.894 228.838 452.974 228.964 467.025 228.634C480.922 228.304 495.429 229.588 509.214 227.827C510.797 227.617 510.797 225.554 509.214 225.351Z" fill="#030510"/>
<path d="M540.859 489.785C541.951 466.192 540.669 442.305 540.866 418.683C541.069 394.017 541.069 369.351 541.09 344.684C541.111 320.523 541.132 296.362 541.16 272.2C541.174 260.12 541.174 248.039 541.181 235.958C541.188 224.263 542.554 211.481 540.277 199.955C539.493 199.913 538.694 199.892 537.91 199.85C537.846 200.214 537.79 200.579 537.727 200.937C537.524 200.853 537.314 200.783 537.055 200.755C512.111 198.629 486.369 200.481 461.342 200.544C436.104 200.607 410.866 200.698 385.628 200.713C334.648 200.734 283.668 200.677 232.681 200.783C205.244 200.839 177.379 199.836 149.977 201.653C149.865 201.681 149.767 201.723 149.655 201.737C148.261 201.863 146.867 202.038 145.48 202.221C145.347 202.298 145.214 202.375 145.081 202.452C144.464 212.744 144.969 223.218 144.941 233.489C144.92 242.097 144.927 250.705 144.948 259.306C146.25 259.32 147.525 259.404 148.807 259.558C148.821 251.371 148.835 243.191 148.814 235.004C148.786 224.684 149.283 214.147 148.744 203.785C173.05 205.462 197.742 204.599 222.09 204.69C247.328 204.789 272.566 204.746 297.803 204.76C348.783 204.781 399.763 204.81 450.75 204.936C464.886 204.971 479.014 204.999 493.15 205.062C507.712 205.125 522.548 205.988 537.062 204.753C537.104 204.753 537.132 204.732 537.174 204.725C536.06 214.463 536.978 224.825 536.985 234.45C536.992 246.531 536.999 258.611 537.006 270.692C537.027 295.358 537.055 320.025 537.076 344.684C537.097 368.846 537.104 393.007 537.293 417.168C537.475 441.154 536.2 465.421 537.293 489.393C512.609 487.968 487.476 489.231 462.771 489.231C437.498 489.231 412.225 489.231 386.959 489.238C363.64 489.238 340.322 489.238 317.003 489.245C316.877 488.838 316.569 488.48 316.142 488.361C315.427 488.165 314.839 488.614 314.622 489.245C287.689 489.245 260.756 489.252 233.816 489.252C205.195 489.252 176.469 488.6 147.854 489.554C148.933 468.83 148.289 447.903 148.142 427.116C147.224 426.955 146.377 426.744 145.62 426.478C145.466 447.503 144.821 468.662 145.914 489.617C145.9 489.617 145.886 489.617 145.872 489.617C143.89 489.687 143.883 492.634 145.872 492.704C196.81 494.549 248.042 493.069 299.015 493.069C303.288 493.069 307.561 493.069 311.834 493.069C305.116 503.017 300.08 514.473 295.534 525.487C294.721 527.458 298.154 528.932 299.001 526.953C303.989 515.343 310.139 504.448 315.532 493.069C361.077 493.069 406.621 493.076 452.165 493.076C480.443 493.076 509.239 494.577 537.496 492.907C537.833 494.787 540.648 494.731 540.76 492.676C540.76 492.655 540.76 492.627 540.76 492.606C541.895 492.079 541.93 490.41 540.859 489.785Z" fill="#030510"/>
<path d="M390.54 526.118C385.217 513.855 377.007 500.792 368.805 490.234C368.28 489.553 367.019 490.297 367.341 491.09C372.37 503.486 379.564 517.145 387.514 527.893C388.859 529.724 391.444 528.201 390.54 526.118Z" fill="#030510"/>
<path d="M405.278 526.994C395.499 525.226 384.985 526.012 375.06 525.893C363.6 525.759 352.14 525.871 340.681 525.97C319.555 526.152 297.119 524.279 276.203 527.408C275.453 527.52 275.453 528.811 276.203 528.923C297.126 532.059 319.548 530.179 340.681 530.361C351.643 530.453 362.598 530.474 373.561 530.439C383.956 530.403 395.03 531.182 405.271 529.33C406.434 529.12 406.434 527.204 405.278 526.994Z" fill="#030510"/>
<path d="M275.898 527.641C273.741 529.331 272.172 531.892 271.086 534.383C270.084 536.684 268.648 540.128 269.44 542.619C269.748 543.594 271.03 543.538 271.359 542.619C272.207 540.297 271.758 537.701 272.655 535.274C273.636 532.629 275.205 530.615 276.823 528.363C277.257 527.767 276.381 527.262 275.898 527.641Z" fill="#030510"/>
<path d="M414.619 541.365C390.061 541.358 365.517 540.909 340.944 541.064C328.84 541.141 316.736 541.225 304.632 541.323C293.116 541.414 281.033 540.46 269.63 542.13C268.908 542.235 268.901 543.491 269.63 543.596C280.55 545.189 292.094 544.298 303.119 544.389C315.727 544.487 328.336 544.578 340.944 544.662C365.419 544.817 389.872 544.375 414.332 544.368C414.493 543.393 414.556 542.382 414.619 541.365Z" fill="#030510"/>
<path d="M414.297 544.696C414.458 543.784 414.535 542.844 414.598 541.89C412.952 536.579 410.059 529.921 405.226 527.164C404.61 526.814 404.056 527.494 404.315 528.076C405.464 530.644 407.383 532.798 408.7 535.295C410.129 538.01 411.117 540.873 411.81 543.854C412.112 545.096 413.457 545.236 414.297 544.696Z" fill="#030510"/>
<path d="M489.836 470.199C489.836 475.537 485.514 479.866 480.184 479.866C474.853 479.866 470.531 475.537 470.531 470.199C470.531 464.86 474.853 460.531 480.184 460.531C485.514 460.538 489.836 464.867 489.836 470.199Z" stroke="#030510" stroke-width="1.4031" stroke-miterlimit="10"/>
<path d="M515.723 471.047C515.723 474.204 513.166 476.764 510.014 476.764C506.862 476.764 504.312 474.204 504.312 471.047C504.312 467.89 506.869 465.336 510.014 465.336C513.173 465.336 515.723 467.89 515.723 471.047Z" stroke="#030510" stroke-width="1.4031" stroke-miterlimit="10"/>
<path d="M154.182 259.328H96.125C79.5565 259.328 66.125 272.76 66.125 289.328V397.707C66.125 414.275 79.5565 427.707 96.125 427.707H154.182C170.75 427.707 184.182 414.275 184.182 397.707V289.328C184.182 272.76 170.75 259.328 154.182 259.328Z" fill="white"/>
<path d="M137.607 277.273H109.727C93.158 277.273 79.7266 290.705 79.7266 307.273V368.578C79.7266 385.147 93.158 398.578 109.727 398.578H137.607C154.176 398.578 167.607 385.147 167.607 368.578V307.273C167.607 290.705 154.176 277.273 137.607 277.273Z" fill="white"/>
<path d="M183.803 258.437C163.833 257.497 143.638 258.332 123.64 258.465C104.433 258.598 85.1915 258.914 65.9917 259.63C65.8026 260.058 65.6274 260.493 65.4453 260.921C84.8202 261.657 104.251 261.973 123.64 262.106C143.631 262.246 163.826 263.074 183.803 262.134C186.185 262.029 186.185 258.549 183.803 258.437Z" fill="#030510"/>
<path d="M66.8432 258.76C66.598 258.949 66.3388 259.125 66.1217 259.328C65.8275 260.009 65.5403 260.689 65.2601 261.37C62.9836 273.212 64.4616 286.695 64.5877 298.615C64.7418 312.646 64.8679 326.677 64.8889 340.708C64.9239 368.77 64.7908 398.747 65.8835 426.795C65.9186 427.77 67.2634 427.777 67.3055 426.795C68.3982 398.754 68.111 368.77 68.146 340.708C68.1671 326.677 68.2931 312.646 68.4472 298.615C68.5803 286.043 70.2264 271.584 67.3405 259.3C67.2775 259.019 67.0813 258.844 66.8432 258.76Z" fill="#030510"/>
<path d="M184.831 426.998C184.908 426.724 185.034 426.493 185.181 426.296C185.209 426.079 185.23 425.868 185.244 425.651C185.244 425.574 185.279 425.525 185.286 425.455C165.834 424.844 146.326 425.209 126.86 425.188C107.338 425.167 86.6326 423.476 67.2717 426.058C66.3261 426.184 66.3261 427.405 67.2717 427.531C86.6326 430.113 107.338 428.422 126.86 428.401C146.032 428.38 165.253 428.724 184.425 428.156C184.572 427.777 184.719 427.398 184.831 426.998Z" fill="#030510"/>
<path d="M185.641 302.678C185.823 288.773 187.091 274.104 185.368 260.297C185.116 258.284 182.489 258.284 182.237 260.297C180.514 274.097 181.782 288.78 181.964 302.678C182.139 316.295 182.293 329.926 182.216 343.55C182.055 371.226 181.284 399.162 182.853 426.803C182.923 428.023 184.682 428.023 184.752 426.803C186.328 399.162 185.55 371.233 185.389 343.55C185.312 329.926 185.459 316.295 185.641 302.678Z" fill="#030510"/>
<path d="M167.508 277.205C153.855 275.177 139.587 276.145 125.816 276.173C110.98 276.201 96.151 276.363 81.3151 276.517C79.697 276.531 79.697 279.022 81.3151 279.036C96.151 279.183 110.98 279.344 125.816 279.379C139.601 279.407 153.848 280.376 167.508 278.348C168.075 278.271 168.075 277.289 167.508 277.205Z" fill="#030510"/>
<path d="M79.5221 339.74C79.6832 359.369 79.6832 379.005 80.3136 398.62C80.6499 398.691 80.9791 398.754 81.3153 398.831C81.9527 379.145 81.9527 359.439 82.1138 339.74C82.1979 329.813 81.7916 319.907 81.9037 309.994C82.0298 299.169 82.8073 288.064 81.9107 277.274C81.7916 275.871 79.8443 275.864 79.7252 277.274C78.8707 287.565 79.5291 298.187 79.7042 308.507C79.8723 318.918 79.431 329.322 79.5221 339.74Z" fill="#030510"/>
<path d="M164.113 276.704C163.594 276.606 163.251 276.613 162.796 276.887C162.131 277.286 162.131 278.255 162.796 278.661C163.258 278.942 163.601 278.942 164.113 278.844C165.171 278.647 165.171 276.908 164.113 276.704Z" fill="#030510"/>
<path d="M166.242 399.014C166.641 398.972 167.034 398.923 167.433 398.888C167.615 398.839 167.797 398.804 167.979 398.776C168.792 378.866 168.14 358.787 168.028 338.87C167.916 318.975 170.55 298.082 167.881 278.327C167.776 277.555 166.431 277.555 166.326 278.327C163.657 298.082 166.284 318.975 166.179 338.87C166.074 358.865 165.409 379.027 166.242 399.014Z" fill="#030510"/>
<path d="M167.603 396.719C153.348 395.674 138.631 396.116 124.335 396.095C109.982 396.067 95.3774 395.933 81.0668 397.126C80.3944 397.182 80.3944 398.115 81.0668 398.171C95.3774 399.364 109.982 399.231 124.335 399.203C138.631 399.174 153.355 399.623 167.603 398.578C168.793 398.487 168.793 396.81 167.603 396.719Z" fill="#030510"/>
<path d="M133.769 413.473C132.823 412.006 131.114 411.151 129.384 411.137C129.216 411.137 129.041 411.144 128.866 411.158C128.824 411.024 128.733 410.912 128.579 410.849C124.915 409.284 122.863 413.852 123.353 416.868C123.941 420.474 127.353 423.294 131.03 421.947C134.469 420.678 135.751 416.545 133.769 413.473ZM130.561 419.078C126.715 420.797 125.013 415.872 126.19 413.381C126.239 413.55 129.573 412.932 131.128 414.034C132.97 415.339 132.522 418.201 130.561 419.078Z" fill="#030510"/>
<path d="M341.699 93.812C320.791 92.8228 299.636 93.6928 278.699 93.7068C258.204 93.7208 237.701 93.7278 217.206 93.7419L155.712 93.7769C135.055 93.791 113.88 92.6755 93.2859 94.5136C93.2579 94.5206 93.2228 94.5346 93.1948 94.5416C93.0127 94.7451 92.8446 94.9626 92.6765 95.2011C92.5224 95.4256 92.3893 95.6501 92.2422 95.8816C92.3613 95.9798 92.5084 96.057 92.7045 96.078C113.473 97.9862 134.852 96.8427 155.705 96.8567C176.2 96.8708 196.703 96.8778 217.198 96.8918C237.694 96.9058 258.197 96.9129 278.692 96.9269C299.629 96.9409 320.777 97.8108 341.692 96.8217C343.626 96.7164 343.626 93.9032 341.699 93.812Z" fill="#030510"/>
<path d="M341.98 95.3152C341.847 94.3119 340.545 94.3049 340.411 95.3152C339.186 104.73 339.095 114.538 339.277 124.324C318.977 122.514 297.998 124.394 277.615 124.366C257.014 124.338 236.413 124.31 215.812 124.282C175.528 124.226 134.719 122.023 94.4914 124.443C95.0168 114.369 95.5772 104.218 94.8417 94.2839C94.8347 94.2067 94.7996 94.1366 94.7856 94.0664C94.2533 94.2278 93.7279 94.3821 93.2026 94.5435C93.0205 94.7469 92.8523 94.9644 92.6842 95.2029C92.5581 95.3853 92.4461 95.5818 92.327 95.7642C90.5688 108.217 90.849 121.146 90.4427 133.683C89.9944 147.321 89.5531 160.966 89.5742 174.618C89.6092 202.42 89.2099 230.216 89.4551 258.018C89.4691 259.484 91.7316 259.491 91.7316 258.018C91.7526 230.735 91.7876 203.403 92.7963 176.133C93.2796 163.001 93.5878 149.854 93.9591 136.714C94.0571 133.332 94.2183 129.923 94.3934 126.506C134.663 128.94 175.5 126.73 215.819 126.674C235.916 126.646 256.019 126.618 276.116 126.59C297.003 126.562 318.522 128.491 339.333 126.625C339.494 133.837 339.76 141.028 339.795 148.029C339.872 165.519 339.06 183.289 340.208 200.744C340.292 202.028 342.114 202.028 342.198 200.744C343.346 183.289 342.534 165.526 342.611 148.029C342.681 130.785 344.215 112.405 341.98 95.3152Z" fill="#030510"/>
<path d="M109.39 117.586C111.688 116.568 113.32 114.562 114.223 112.247C114.917 110.465 115.82 107.497 114.483 105.793C113.278 104.256 110.511 103.997 108.739 103.793C106.301 103.513 104.221 103.934 102.645 105.898C102.435 106.165 102.393 106.487 102.47 106.775C100.852 107.925 99.7868 109.792 99.9549 112.051C100.305 116.695 105.243 119.417 109.39 117.586ZM107.52 106.508C107.611 106.515 107.667 106.473 107.73 106.431C108.683 106.459 109.642 106.585 110.553 106.782C114.483 107.638 111.562 113.264 109.6 114.723C106.89 116.751 102.96 115.993 101.979 112.457C101.055 109.104 104.431 106.361 107.52 106.508Z" fill="#030510"/>
<path d="M130.937 116.063C132.583 115.333 133.745 113.902 134.39 112.247C134.887 110.97 135.532 108.851 134.572 107.63C133.71 106.536 131.728 106.347 130.467 106.199C128.723 106.003 127.238 106.297 126.11 107.701C125.956 107.89 125.928 108.122 125.984 108.325C124.829 109.146 124.065 110.486 124.184 112.092C124.436 115.432 127.967 117.375 130.937 116.063ZM129.592 108.15C129.655 108.15 129.697 108.122 129.739 108.093C130.418 108.115 131.105 108.206 131.756 108.346C134.565 108.956 132.478 112.976 131.077 114.022C129.136 115.467 126.328 114.934 125.627 112.401C124.969 110.009 127.385 108.044 129.592 108.15Z" fill="#030510"/>
<path d="M150.966 115.439C152.416 114.759 153.438 113.412 154.006 111.861C154.447 110.669 155.007 108.683 154.167 107.54C153.41 106.508 151.666 106.333 150.552 106.2C149.018 106.01 147.708 106.291 146.714 107.61C146.581 107.785 146.56 108.003 146.602 108.199C145.586 108.971 144.914 110.22 145.019 111.735C145.25 114.843 148.36 116.674 150.966 115.439ZM149.789 108.024C149.845 108.024 149.88 107.996 149.922 107.968C150.524 107.989 151.127 108.073 151.694 108.206C154.167 108.781 152.324 112.549 151.092 113.524C149.383 114.878 146.91 114.38 146.293 112.002C145.719 109.764 147.848 107.926 149.789 108.024Z" fill="#030510"/>
<path d="M124.859 227.265C117.147 233.713 111.291 223.926 109.582 217.619C108.503 213.648 108.216 209.474 107.571 205.426C106.591 199.302 104.861 193.647 100.672 189.122C105.589 186.428 108.055 181.391 108.664 175.695C109.239 170.3 107.789 165.017 107.27 159.685C106.857 155.518 106.71 151.26 108.615 147.38C109.386 145.781 110.422 144.364 111.711 143.122C114.17 140.449 116.951 140.042 120.04 141.915C120.061 142.715 121.273 142.932 121.469 142.112C122.05 139.691 120.222 138.625 117.987 138.358C113.658 137.832 109.68 141.129 107.494 144.539C99.6911 156.697 115.038 181.069 98.3603 187.628C97.5687 187.937 97.1064 188.968 97.8279 189.641C108.293 199.358 103.011 214.764 110.135 226.01C113.736 231.692 121.952 235.053 126.372 228.437C127.009 227.462 125.643 226.606 124.859 227.265Z" fill="#030510"/>
<path d="M324.42 196.656C324.518 189.816 326.612 184.084 333.589 181.453C334.625 181.061 335.095 179.475 333.925 178.879C330.184 176.964 327.06 175.217 325.807 171.014C324.574 166.875 325.793 161.607 326.472 157.44C327.369 151.918 328.77 146.201 327.306 140.644C325.737 134.709 318.641 128.136 313.653 134.772C313.079 135.537 314.256 136.274 314.893 135.734C320.294 133.762 323.565 135.278 324.693 140.273C325.225 142.23 325.428 144.215 325.309 146.229C325.246 149.007 324.616 151.82 324.146 154.549C323.397 158.906 322.584 163.333 322.486 167.766C322.346 173.94 325.372 177.356 330.128 180.064C324.364 183.481 320.357 190.083 322.297 196.944C322.367 197.182 322.5 197.344 322.654 197.47C323.103 197.477 323.551 197.477 323.999 197.484C324.238 197.308 324.413 197.035 324.42 196.656Z" fill="#030510"/>
<path d="M323.993 197.487C323.545 197.48 323.097 197.48 322.648 197.473C323.034 197.788 323.601 197.774 323.993 197.487Z" fill="#030510"/>
<path d="M120.436 149.464C129.528 149.323 138.445 149.864 147.523 150.32C155.025 150.699 162.807 150.79 169.805 147.738C170.848 147.282 170.071 145.767 169.069 145.984C160.18 147.878 151.873 148.411 142.802 147.927C135.307 147.528 127.692 146.868 120.338 148.706C119.917 148.804 120.001 149.464 120.436 149.464Z" fill="#030510"/>
<path d="M188.867 146.06C198.526 146.586 209.888 146.488 219.288 144.047C220.15 143.822 219.94 142.567 219.085 142.531C209.321 142.097 198.568 143.605 188.867 144.875C188.132 144.966 188.083 146.018 188.867 146.06Z" fill="#030510"/>
<path d="M239.089 141.733C250.009 142.673 261.035 142.491 271.99 142.392C282.896 142.294 294.027 142.547 304.877 141.431C306.383 141.277 306.453 139.074 304.877 139.032C293.95 138.758 282.924 139.614 271.99 139.783C261.035 139.951 250.038 139.699 239.089 140.316C238.172 140.365 238.186 141.656 239.089 141.733Z" fill="#030510"/>
<path d="M248.408 156.38C227.429 156.065 206.289 157.44 185.317 158.148C164.394 158.857 143.044 158.674 122.247 161.151C121.533 161.235 121.491 162.273 122.247 162.301C143.177 163.087 164.387 161.333 185.317 160.695C206.31 160.056 227.45 160.267 248.408 158.969C250.054 158.864 250.089 156.401 248.408 156.38Z" fill="#00E2C5"/>
<path d="M312.417 152.825C298.142 152.145 283.579 153.309 269.318 153.99C268.547 154.025 268.533 155.183 269.318 155.197C283.586 155.519 298.17 156.305 312.417 155.26C313.972 155.155 314 152.903 312.417 152.825Z" fill="#00E2C5"/>
<path d="M233.438 170.299C214.791 170.089 196.026 173.218 177.54 175.308C158.866 177.42 140.437 177.876 121.699 178.549C121.195 178.57 121.027 179.384 121.573 179.468C139.442 182.345 158.411 179.945 176.265 177.995C195.332 175.912 214.301 174.102 233.431 172.783C235.014 172.67 235.049 170.313 233.438 170.299Z" fill="#030510"/>
<path d="M281.966 169.713C278.338 168.478 274.863 169.285 271.172 169.79C265.68 170.547 260.216 170.554 254.69 170.218C254.171 170.19 254.066 170.996 254.571 171.123C263.992 173.396 272.412 170.639 281.77 171.193C282.645 171.242 282.729 169.972 281.966 169.713Z" fill="#030510"/>
<path d="M295.973 168.891C295.273 168.926 295.287 169.915 295.973 169.978C302.726 170.595 310.837 171.991 317.513 170.602C318.283 170.441 318.248 169.255 317.513 169.073C310.9 167.424 302.726 168.526 295.973 168.891Z" fill="#030510"/>
<path d="M193.445 246.743C193.416 244.239 194.565 239.742 191.819 238.395C191.385 238.178 190.916 238.62 191.147 239.069C192.751 242.099 191.287 248.539 191.392 252.047C191.504 255.604 191.357 259.47 192.667 262.802C192.877 263.335 193.837 263.532 193.949 262.802C194.754 257.66 193.501 251.977 193.445 246.743Z" fill="#030510"/>
<path d="M326.647 257.744C303.917 258.011 281.18 258.797 258.45 259.344C247.081 259.617 235.72 259.912 224.351 260.228C213.879 260.522 203.085 260.101 192.718 261.722C192.017 261.834 192.277 262.802 192.872 262.873C204.079 264.086 215.714 263.034 226.971 262.823C237.898 262.62 248.825 262.381 259.76 262.129C282.048 261.617 304.358 261.343 326.64 260.564C328.447 260.494 328.461 257.723 326.647 257.744Z" fill="#030510"/>
<path d="M326.836 247.789C326.619 245.025 326.745 242.149 325.617 239.595C325.421 239.146 324.742 239.315 324.63 239.722C323.782 242.717 324.476 246.148 324.679 249.227C324.889 252.441 324.994 255.682 325.491 258.86C325.673 260.024 327.481 259.702 327.495 258.586C327.544 255.001 327.116 251.367 326.836 247.789Z" fill="#030510"/>
<path d="M325.829 240.339C325.752 239.203 325.675 238.059 325.598 236.923C326.278 235.968 325.353 234.769 324.337 234.727C301.775 233.78 279.185 233.611 256.609 234.306C234.965 234.972 212.837 235.54 191.431 239.013C190.681 239.132 190.87 240.346 191.606 240.325C213.72 239.764 235.777 237.547 257.912 237.042C279.437 236.551 300.97 236.768 322.488 237.589C322.306 239.217 322.859 240.571 324.323 241.847C325.353 242.752 326.726 241.377 325.829 240.339Z" fill="#030510"/>
<path d="M386.047 241.237C377.193 242.037 368.031 246.807 359.885 250.146C358.974 250.518 358.575 251.36 359.016 252.286C360.165 254.685 362.708 254.931 365.11 255.541C369.404 256.629 373.747 257.821 378.195 257.948C379.568 257.99 379.729 256.039 378.51 255.633C375.659 254.671 372.731 254.201 369.796 253.563C368.374 253.254 365.012 252.967 362.995 252.027C370.742 249.01 379.456 246.625 386.306 242.149C386.671 241.903 386.566 241.188 386.047 241.237Z" fill="#030510"/>
<path d="M406.39 235.946C403.861 239.966 401.739 244.224 399.617 248.475C397.732 252.257 395.568 255.954 394.65 260.107C394.489 260.844 395.484 261.622 396.044 260.921C398.853 257.371 400.485 253.071 402.327 248.959C404.184 244.834 406.04 240.695 407.497 236.409C407.721 235.742 406.747 235.385 406.39 235.946Z" fill="#030510"/>
<path d="M441.023 247.958C439.797 245.446 434.845 245.004 432.499 244.12C427.848 242.366 423.351 240.178 418.629 238.62C417.376 238.206 416.654 240.058 417.747 240.718C420.955 242.64 424.359 244.212 427.805 245.664C429.318 246.302 430.845 246.927 432.387 247.509C433.038 247.754 435.434 248.281 436.961 248.856C434.383 250.603 430.712 251.844 428.191 253.142C425.214 254.679 422.237 256.089 419.603 258.179C418.713 258.881 419.687 260.291 420.668 260.01C424.415 258.944 427.784 256.945 431.245 255.177C434.257 253.633 438.383 252.342 440.778 249.922C441.303 249.382 441.339 248.61 441.023 247.958Z" fill="#030510"/>
<path d="M493.674 275.598C446.211 277.878 398.726 279.653 351.227 280.881C303.217 282.122 255.095 281.786 207.106 283.61C205.958 283.652 205.951 285.364 207.106 285.406C255.032 286.991 303.295 285.357 351.227 284.185C398.733 283.02 446.211 281.224 493.674 279.064C495.888 278.958 495.902 275.493 493.674 275.598Z" fill="#00E2C5"/>
<path d="M490.642 305.61C443.62 307.055 396.59 308.038 349.554 308.578C302.56 309.118 255.39 307.736 208.438 309.539C207.548 309.574 207.555 310.865 208.438 310.914C255.306 313.524 302.637 312.064 349.554 311.573C396.59 311.075 443.627 310.065 490.642 308.62C492.561 308.557 492.575 305.554 490.642 305.61Z" fill="#00E2C5"/>
<path d="M493.759 336.087C447.171 337.483 400.583 338.753 353.988 339.903C330.915 340.471 307.841 341.012 284.761 341.524C261.407 342.036 237.423 341.229 214.203 343.755C213.474 343.832 213.453 344.849 214.203 344.905C237.052 346.533 260.539 344.807 283.43 344.323C306.952 343.825 330.466 343.299 353.988 342.737C400.583 341.622 447.171 340.359 493.759 338.97C495.608 338.914 495.615 336.031 493.759 336.087Z" fill="#00E2C5"/>
<path d="M220.5 410.281C218.798 407.173 213.972 404.865 211.401 407.608C208.585 408.548 206.456 411.481 206.708 414.568C207.086 419.184 211.828 422.509 216.234 420.98C220.668 419.45 222.784 414.448 220.5 410.281ZM214.567 418.672C211.688 419.191 208.907 416.763 208.718 413.901C208.599 412.112 209.391 410.702 210.595 409.671C210.806 409.979 211.198 410.134 211.555 409.79C213.909 407.489 217.712 410.057 218.483 412.575C219.33 415.346 217.355 418.167 214.567 418.672Z" fill="#030510"/>
<path d="M242.376 408.941C240.674 405.833 235.847 403.525 233.284 406.268C230.468 407.208 228.338 410.141 228.591 413.228C228.969 417.844 233.711 421.169 238.117 419.64C242.544 418.111 244.659 413.116 242.376 408.941ZM236.443 417.332C233.564 417.851 230.783 415.424 230.594 412.561C230.475 410.772 231.266 409.362 232.471 408.331C232.681 408.64 233.074 408.794 233.431 408.45C235.784 406.149 239.588 408.717 240.358 411.235C241.206 414.006 239.231 416.827 236.443 417.332Z" fill="#00E2C5"/>
<path d="M264.977 408.892C263.275 405.785 258.449 403.477 255.885 406.22C253.069 407.16 250.94 410.092 251.192 413.179C251.57 417.795 256.313 421.12 260.718 419.591C265.145 418.055 267.261 413.06 264.977 408.892ZM259.044 417.283C256.165 417.802 253.385 415.375 253.195 412.512C253.076 410.724 253.868 409.313 255.073 408.282C255.283 408.591 255.675 408.745 256.032 408.401C258.386 406.1 262.189 408.668 262.96 411.187C263.808 413.958 261.832 416.778 259.044 417.283Z" fill="#030510"/>
<path d="M299.666 400.58C299.596 400.286 299.112 400.342 299.133 400.65C299.743 408.767 300.471 416.926 301.186 425.029C301.242 425.689 302.209 425.71 302.23 425.029C302.44 417.039 301.564 408.361 299.666 400.58Z" fill="#030510"/>
<path d="M383.642 399.141C369.647 399.499 355.644 399.709 341.642 399.751C327.745 399.787 313.49 398.678 299.642 399.78C299.019 399.829 299.033 400.663 299.642 400.741C313.392 402.403 327.801 401.597 341.642 401.575C355.644 401.547 369.64 401.351 383.642 401C384.833 400.965 384.833 399.106 383.642 399.141Z" fill="#030510"/>
<path d="M388.306 420.96C359.53 423.913 330.86 424.552 301.98 425.225C301.441 425.239 301.448 426.032 301.98 426.06C330.65 427.603 359.762 425.835 388.306 423.106C389.664 422.98 389.671 420.819 388.306 420.96Z" fill="#030510"/>
<path d="M384.498 400.551C384.365 399.983 383.588 400.158 383.539 400.684C382.908 407.356 384.526 415.122 385.906 421.64C386.145 422.748 387.791 422.271 387.595 421.177C386.376 414.379 386.074 407.237 384.498 400.551Z" fill="#030510"/>
<path d="M433.574 172.399C432.005 169.277 429.651 166.373 426.688 164.465C419.957 160.136 411.558 161.265 405.8 166.555C404.329 167.902 402.207 165.804 403.608 164.359C404.651 163.28 405.755 162.419 406.88 161.649C406.91 161.628 406.914 161.597 406.914 161.56C406.69 155.169 404.645 145.025 399.356 140.864C394.894 137.364 387.553 137.048 382.111 137.357C369.92 138.054 360.84 144.885 357.558 155.843C356.874 158.127 358.322 160.357 360.424 161.483C361.391 162.002 360.704 163.693 359.668 163.272C352.061 160.22 343.305 159.652 336.055 164.128C325.632 170.568 328.427 182.543 339.48 186.248C346.492 188.598 354.771 188.31 362.084 188.801C369.537 189.306 376.99 189.727 384.45 190.001C392.344 190.288 400.246 190.408 408.14 190.26C412.084 190.19 416.034 190.057 419.971 189.839C421.722 189.741 423.48 189.657 425.224 189.51C429.399 189.159 430.856 189.405 433.553 185.658C435.921 182.368 436.026 182.536 435.556 179.12C435.241 176.749 434.674 174.588 433.574 172.399Z" fill="white"/>
<path d="M409.802 160.031C409.704 153.275 407.441 144.485 402.832 139.658C398.139 134.74 389.587 134.081 383.191 134.361C369.819 134.944 354.353 144.365 355.103 159.365C348.665 157.526 341.661 158.095 335.588 161.294C328.723 164.914 323.799 171.957 327.399 179.709C331.007 187.483 339.538 189.917 347.362 190.864C360.923 192.506 374.772 193.011 388.417 193.411C401.852 193.804 416.527 194.751 429.828 192.421C437.407 191.096 439.957 185.869 438.85 178.482C436.777 164.619 422.025 154.643 409.802 160.031ZM433.569 185.673C430.872 189.426 429.415 189.18 425.24 189.524C423.496 189.671 421.738 189.763 419.987 189.854C416.043 190.064 412.1 190.198 408.156 190.275C400.255 190.422 392.36 190.303 384.466 190.015C377.006 189.742 369.546 189.321 362.1 188.816C354.787 188.324 346.508 188.605 339.496 186.262C328.443 182.558 325.648 170.582 336.071 164.142C343.314 159.666 352.077 160.227 359.684 163.286C360.72 163.7 361.407 162.009 360.44 161.497C359.221 160.845 357.953 160.326 356.665 159.87C358.773 146.582 368.51 138.15 382.127 137.371C387.569 137.062 394.91 137.371 399.372 140.879C404.661 145.032 406.706 155.183 406.93 161.574C406.93 161.595 406.944 161.609 406.944 161.631C405.802 162.402 404.682 163.272 403.624 164.374C402.23 165.819 404.352 167.923 405.816 166.569C411.574 161.28 419.973 160.15 426.704 164.479C429.667 166.387 432.014 169.291 433.59 172.413C434.69 174.602 435.257 176.763 435.586 179.141C436.042 182.544 435.936 182.382 433.569 185.673Z" fill="#030510"/>
<path d="M508.08 106.033C499.725 115.443 489.429 125.105 478.858 132.208C478.265 132.606 477.829 133.72 477.155 133.484C477.131 133.476 477.108 133.467 477.085 133.457C476.936 133.396 476.772 133.378 476.619 133.328C476.421 133.263 476.255 133.123 476.06 133.047C469.382 130.42 463.306 125.488 457.577 121.298C451.751 117.034 445.919 112.547 441.066 107.158C440.639 106.683 439.869 106.795 439.714 107.415C439.691 107.504 439.684 107.601 439.691 107.693C440.448 116.62 440.944 125.596 441.571 134.536C441.879 138.963 441.473 144.26 442.531 148.567C444.415 156.284 452.47 155.513 458.599 156.004C467.789 156.733 476.938 157.351 486.156 156.839C487.365 156.771 488.57 156.679 489.77 156.567C503.479 155.293 513.895 142.461 513.019 128.721C512.731 124.153 512.437 119.586 512.171 115.019C512.08 113.497 512.297 111.505 511.884 110.038C511.289 107.926 510.34 106.632 509.161 105.665C508.892 105.444 508.309 105.77 508.08 106.033Z" fill="white"/>
<path d="M460.54 120.271C469.657 126.77 483.365 126.09 491.704 118.619C491.985 118.367 492.265 118.114 492.544 117.86C499.286 111.727 502.554 102.653 502.168 93.5476C501.996 89.499 501.861 85.4482 501.713 81.3944C501.287 69.6928 489.653 59.2442 477.96 59.8768C476.62 59.9493 475.283 60.0271 473.954 60.1165C459.19 61.1078 446.845 76.7763 448.025 91.5261C448.219 93.947 448.377 96.3669 448.504 98.778C448.924 106.741 452.521 114.345 458.927 119.094C459.235 119.323 459.544 119.55 459.854 119.776C460.081 119.942 460.31 120.107 460.54 120.271ZM489.798 109.204C482.85 111.575 474.262 111.47 466.984 111.477C466.179 111.477 466.214 110.326 466.984 110.249C474.388 109.498 482.198 107.681 489.609 107.836C490.422 107.843 490.527 108.951 489.798 109.204ZM449.529 69.7066C463.041 67.2512 477.617 66.0937 491.234 68.3527C492.334 68.5351 492.04 70.2679 490.975 70.2609C477.092 70.0925 463.573 69.5874 449.69 70.8993C449.01 70.9554 448.863 69.8259 449.529 69.7066ZM450.979 79.2547C464.463 78.3287 478.122 78.1042 491.634 78.006C493.077 77.9989 493.063 80.1808 491.634 80.2369C478.136 80.749 464.484 81.1349 450.979 80.8192C449.963 80.7981 449.984 79.3249 450.979 79.2547ZM452.52 89.5815C453.115 89.6306 453.71 89.6867 454.306 89.7358C454.392 89.7482 454.479 89.7724 454.56 89.7393C456.476 88.9551 459.193 87.9989 456.309 89.0624C457.696 88.5502 459.882 88.7958 461.367 88.6905C464.736 88.452 468.105 88.2486 471.474 88.0521C478.493 87.6452 485.967 86.4807 492.958 87.3155C493.553 87.3857 493.791 88.2836 493.112 88.445C486.948 89.8902 480.307 89.6517 474.003 89.9884C466.879 90.3672 459.643 91.0618 452.52 90.711C451.791 90.6829 451.805 89.5184 452.52 89.5815ZM452.996 102.265C466.158 100.673 481.099 99.0524 494.302 100.42C495.073 100.498 495.402 101.753 494.499 101.894C488.075 102.89 481.421 102.616 474.928 102.883C467.622 103.185 460.302 103.69 452.996 103.725C452.029 103.725 452.092 102.371 452.996 102.265Z" fill="white"/>
<path d="M506.661 104.6C506.822 104.46 506.99 104.39 507.158 104.354C506.275 103.87 505.316 103.414 504.328 102.867C504.335 104.158 504.342 105.442 504.335 106.733C505.106 106.017 505.869 105.295 506.661 104.6Z" fill="#030510"/>
<path d="M515.501 137.444C515.2 131.635 514.899 125.819 514.577 120.01C514.352 115.983 515.249 109.824 513.106 106.14C511.502 103.383 507.684 102.317 504.917 101.159C504.693 101.068 504.497 101.089 504.329 101.167C504.336 101.735 504.329 102.31 504.336 102.878C505.33 103.425 506.283 103.881 507.166 104.366C507.677 104.26 508.153 104.583 508.307 105.046C509.89 106.077 511.158 107.445 511.901 110.055C512.314 111.521 512.097 113.514 512.188 115.036C512.454 119.603 512.748 124.17 513.036 128.737C513.554 136.861 513.498 145.02 513.932 153.116C504.651 154.337 496.266 155.137 486.88 155.663C477.655 156.175 467.806 156.757 458.616 156.028C452.48 155.536 444.432 156.308 442.548 148.591C441.49 144.277 441.896 138.98 441.588 134.56C440.957 125.573 440.467 116.551 439.697 107.579C439.816 107.067 439.977 106.596 440.18 106.155C440.159 106.126 440.131 106.098 440.11 106.077C439.837 105.755 440.187 105.214 440.572 105.453C441.819 103.306 443.913 101.812 445.693 99.9177C445.616 99.132 445.539 98.3463 445.461 97.5605C443.353 100.535 437.448 103.769 438.443 107.887C437.259 118.158 439.22 129.488 439.844 139.674C440.362 148.128 438.779 155.214 448.445 157.087C458.511 159.03 470.741 158.378 480.989 158.469C492.449 158.567 503.012 157.753 514.717 154.905C515.48 154.716 515.564 153.495 514.969 153.158C516.531 148.121 515.774 142.607 515.501 137.444Z" fill="#030510"/>
<path d="M447.16 98.0769C446.725 98.7434 446.221 99.3327 445.689 99.8939C446.004 103.142 446.298 106.39 446.571 109.631C447.363 110.214 448.147 110.81 448.925 111.406C448.694 94.8778 447.342 77.2199 443.286 61.1825C443.258 61.1825 443.237 61.1755 443.209 61.1755C442.957 61.1404 442.775 60.9229 442.726 60.6914C442.501 60.7125 442.291 60.8738 442.305 61.1544C442.985 73.2631 444.274 85.4069 445.457 97.5367C445.535 97.4315 445.612 97.3262 445.682 97.221C446.263 96.2739 447.762 97.1509 447.16 98.0769Z" fill="#030510"/>
<path d="M447.163 98.0793C447.765 97.1602 446.266 96.2763 445.685 97.2164C445.622 97.3216 445.538 97.4268 445.461 97.5321C445.538 98.3178 445.615 99.1035 445.692 99.8893C446.224 99.328 446.729 98.7457 447.163 98.0793Z" fill="#030510"/>
<path d="M443.249 61.0232C443.263 61.0723 443.27 61.1285 443.284 61.1776C453.3 62.4193 463.934 60.7987 473.964 60.1182C483.042 59.5079 492.436 59.4377 501.409 57.8943C501.437 57.6558 501.451 57.4173 501.486 57.1788C501.542 56.7648 502.207 56.7929 502.291 57.1788C502.319 57.298 502.333 57.4173 502.354 57.5365C502.753 57.0244 502.424 56.0352 501.633 56.0212C491.623 55.7967 481.375 57.4103 471.401 58.2521C462.014 59.0449 452.383 58.8765 443.074 60.1884C442.765 60.2305 442.674 60.462 442.723 60.6935C442.948 60.6654 443.186 60.7707 443.249 61.0232Z" fill="#030510"/>
<path d="M443.211 61.1683C443.239 61.1683 443.261 61.1753 443.289 61.1753C443.275 61.1262 443.268 61.0701 443.254 61.021C443.19 60.7684 442.952 60.6632 442.734 60.6843C442.776 60.9158 442.966 61.1333 443.211 61.1683Z" fill="#030510"/>
<path d="M501.889 57.8247C501.735 57.8528 501.574 57.8739 501.419 57.8949C500.453 65.5698 501.454 73.7078 501.735 81.3968C502.057 90.2573 502.323 99.1038 503.031 107.943C503.465 107.536 503.913 107.137 504.347 106.737C504.354 105.446 504.354 104.162 504.34 102.871C504.305 102.85 504.263 102.829 504.228 102.808C503.556 102.429 503.766 101.426 504.333 101.159C504.249 94.5718 503.997 87.9913 503.773 81.4038C503.507 73.5745 503.976 65.2331 502.372 57.5371C502.26 57.6774 502.113 57.7827 501.889 57.8247Z" fill="#030510"/>
<path d="M504.223 102.809C504.258 102.83 504.3 102.851 504.335 102.872C504.328 102.304 504.335 101.728 504.328 101.16C503.767 101.427 503.549 102.43 504.223 102.809Z" fill="#030510"/>
<path d="M501.483 57.1783C501.448 57.4168 501.434 57.6553 501.406 57.8939C501.56 57.8658 501.721 57.8448 501.876 57.8237C502.1 57.7816 502.247 57.6764 502.352 57.5361C502.324 57.4168 502.31 57.2975 502.289 57.1783C502.205 56.7994 501.546 56.7644 501.483 57.1783Z" fill="#030510"/>
<path d="M504.343 106.735C504.343 107.17 504.35 107.612 504.343 108.047C504.336 108.903 503.096 108.882 503.033 108.047C503.033 108.012 503.026 107.977 503.026 107.942C499.251 111.492 495.58 115.161 491.721 118.62C486.804 123.025 481.522 127.087 476.78 131.682C471.673 127.157 465.376 123.797 459.871 119.777C456.172 117.076 452.579 114.193 448.929 111.401C448.936 111.688 448.943 111.983 448.95 112.271C448.964 113.674 446.912 113.632 446.807 112.271C446.737 111.394 446.653 110.51 446.583 109.633C444.621 108.18 442.639 106.763 440.594 105.437C440.587 105.437 440.587 105.437 440.58 105.437C440.447 105.669 440.3 105.893 440.188 106.146C445.203 111.99 451.402 116.781 457.601 121.313C463.415 125.565 469.579 130.581 476.381 133.177C476.514 133.317 476.689 133.38 476.885 133.38C476.983 133.415 477.081 133.464 477.179 133.499C477.599 133.647 477.943 133.24 477.922 132.861C488.828 125.705 499.489 115.743 508.105 106.048C508.392 105.718 508.427 105.36 508.322 105.052C507.958 104.813 507.572 104.589 507.18 104.371C507.012 104.406 506.844 104.469 506.683 104.617C505.877 105.297 505.114 106.02 504.343 106.735Z" fill="#030510"/>
<path d="M440.113 106.05C440.134 106.078 440.162 106.106 440.183 106.127C440.295 105.874 440.443 105.657 440.576 105.418C440.19 105.194 439.839 105.734 440.113 106.05Z" fill="#030510"/>
<path d="M507.156 104.358C507.556 104.575 507.934 104.793 508.298 105.038C508.144 104.575 507.668 104.253 507.156 104.358Z" fill="#030510"/>
<path d="M448.945 112.264C448.945 111.976 448.931 111.682 448.924 111.394C448.146 110.798 447.355 110.208 446.57 109.619C446.647 110.496 446.724 111.38 446.794 112.257C446.907 113.625 448.959 113.667 448.945 112.264Z" fill="#030510"/>
<path d="M504.34 108.054C504.347 107.619 504.333 107.177 504.34 106.742C503.906 107.149 503.458 107.542 503.023 107.949C503.023 107.984 503.03 108.019 503.03 108.054C503.093 108.882 504.333 108.91 504.34 108.054Z" fill="#030510"/>
<path d="M490.994 70.2555C492.052 70.2696 492.353 68.5297 491.253 68.3473C477.636 66.0954 463.06 67.2459 449.548 69.7013C448.882 69.8206 449.029 70.9571 449.709 70.8869C463.592 69.5891 477.111 70.0872 490.994 70.2555Z" fill="#030510"/>
<path d="M491.651 80.2408C493.08 80.1846 493.094 77.9958 491.651 78.0098C478.139 78.108 464.48 78.3325 450.996 79.2586C450.001 79.3287 449.98 80.802 450.996 80.823C464.501 81.1458 478.153 80.7529 491.651 80.2408Z" fill="#030510"/>
<path d="M474.03 89.9955C480.334 89.6588 486.975 89.8973 493.139 88.4521C493.818 88.2908 493.58 87.3928 492.985 87.3226C485.994 86.4948 478.513 87.6524 471.501 88.0593C468.132 88.2557 464.763 88.4662 461.394 88.6977C459.916 88.8029 453.184 89.3361 452.589 89.287C451.867 89.2238 451.818 90.676 452.547 90.7181C459.67 91.0619 466.906 90.3744 474.03 89.9955Z" fill="#030510"/>
<path d="M494.517 101.896C495.413 101.755 495.091 100.499 494.321 100.422C481.117 99.0543 466.183 100.675 453.014 102.267C452.11 102.38 452.047 103.734 453.014 103.727C460.32 103.692 467.647 103.179 474.946 102.885C481.439 102.618 488.093 102.885 494.517 101.896Z" fill="#030510"/>
<path d="M489.63 107.832C482.219 107.677 474.409 109.494 467.005 110.245C466.235 110.322 466.2 111.48 467.005 111.473C474.283 111.466 482.871 111.571 489.819 109.2C490.548 108.954 490.443 107.846 489.63 107.832Z" fill="#030510"/>
<path d="M480.802 195.808C474.753 194.861 477.93 187.218 473.587 191.535C471.334 193.774 469.467 196.198 468.401 197.947C464.905 203.679 463.413 210.667 464.863 217.268C467.742 230.429 482.375 241.051 495.901 238.251C509.238 235.487 523.528 216.84 520.186 203.146C519.476 200.229 518.177 197.883 516.451 195.984C514.856 194.228 512.131 194.716 510.709 196.615C504.944 204.332 499.544 212.175 495.32 220.853C494.654 222.221 492.322 222.256 491.67 220.853C487.937 212.862 483.181 204.563 481.114 195.941C480.946 195.232 481.927 194.489 482.452 195.162C484.362 197.614 485.918 200.555 487.319 203.643C489.677 208.839 497.339 210.013 501.77 206.418C505.261 203.584 504.161 198.277 499.688 197.815C494.53 197.282 488.945 197.525 480.802 195.808Z" fill="white"/>
<path d="M520.187 203.148C523.528 216.842 509.238 235.489 495.901 238.254C482.382 241.053 467.743 230.438 464.864 217.27C463.421 210.669 464.892 203.667 468.401 197.95C479.602 179.702 500.826 187.56 509.147 191.06C509.484 190.626 509.813 190.184 510.149 189.749C510.618 189.138 511.123 188.486 511.641 187.833C503.361 183.961 490.872 180.825 482.165 183.645C481.962 183.708 481.794 183.842 481.654 183.989C476.709 184.676 471.343 189.349 468.618 192.492C463.701 198.16 460.752 205.73 460.955 213.271C461.396 229.463 476.4 242.975 492.378 242.701C508.923 242.421 525.636 222.679 524.824 206.424C524.481 199.5 521.097 193.888 515.725 190.148C514.877 191.159 514.058 192.19 513.252 193.242C516.565 195.48 519.08 198.63 520.187 203.148Z" fill="#00E2C5"/>
<path d="M528.151 176.208C520.677 178.137 516.124 182.178 511.641 187.833C511.879 187.945 512.124 188.05 512.355 188.163C513.553 188.745 514.674 189.411 515.724 190.141C516.88 188.752 518.078 187.405 519.381 186.163C522.946 182.775 527.919 179.576 532.255 177.716C534.168 176.903 529.706 175.808 528.151 176.208Z" fill="#00E2C5"/>
<path d="M482.452 195.165C481.927 194.491 480.939 195.235 481.114 195.943C483.188 204.565 487.937 212.865 491.67 220.855C492.322 222.258 494.654 222.223 495.32 220.855C499.544 212.177 504.944 204.327 510.709 196.617C511.55 195.494 512.397 194.365 513.252 193.242C511.991 192.393 510.611 191.678 509.147 191.061C503.382 198.623 497.799 206.453 493.485 214.941C490.241 208.136 487.019 201.023 482.452 195.165Z" fill="#00E2C5"/>
<path d="M511.634 187.832C511.116 188.491 510.612 189.137 510.142 189.747C509.806 190.182 509.477 190.624 509.141 191.059C510.598 191.67 511.985 192.385 513.245 193.241C514.044 192.189 514.87 191.157 515.718 190.147C514.667 189.418 513.547 188.751 512.349 188.169C512.118 188.05 511.872 187.944 511.634 187.832Z" fill="#00E2C5"/>
<path d="M535.001 286.906C531.559 287.784 528.961 291.202 529.603 294.695C529.968 296.645 530.927 298.399 531.263 300.328C531.397 301.096 530.114 301.284 529.456 301.701C525.019 304.511 520.301 307.033 517.016 311.272C516.585 311.82 515.7 310.949 515.073 310.645C513.924 310.09 512.821 309.19 511.776 308.635C509.787 307.575 507.672 306.909 505.619 306.018C505.515 305.97 505.421 305.926 505.33 305.995C497.886 311.607 493.342 322.459 490.615 330.986C490.58 331.091 490.558 331.2 490.61 331.298C491.691 333.339 494.917 334.494 496.856 335.321C498.567 336.043 500.376 336.473 502.094 337.154C502.23 337.208 502.38 337.222 502.515 337.276C502.543 337.287 502.571 337.301 502.597 337.318C502.664 337.36 502.73 337.404 502.803 337.433C503.765 337.869 502.648 339.402 502.486 340.444C501.674 345.649 501.046 350.695 501.255 356.052C501.295 357.087 499.433 356.966 498.595 357.574C498.195 357.864 497.802 358.175 497.417 358.522C496.268 359.567 495.126 360.605 493.971 361.637C493.813 361.773 493.695 361.982 493.763 362.179C497.066 371.747 504.615 378.532 511.125 385.994C511.3 386.189 511.557 386.375 511.807 386.299C512.008 386.238 512.208 386.171 512.407 386.086C513.367 385.672 514.27 385.138 515.111 384.528C516.07 383.834 516.96 383.027 517.751 382.143C518.298 381.532 518.543 381.104 519.348 380.901C519.916 380.753 520.274 381.561 520.754 381.899C523.096 383.551 525.526 384.866 528.167 386.071C530.598 387.186 533.852 388.125 535.983 389.899C536.374 390.224 537.014 390.454 537.049 390.961C537.161 392.456 536.741 393.985 536.699 395.493C536.643 397.609 538.642 399.898 540.745 400.129C547.859 400.909 555.512 401.011 562.178 398.751C563.384 398.343 564.028 396.874 563.737 395.634C563.526 394.704 563.383 393.788 563.298 392.861C563.239 392.22 562.307 391.365 562.7 390.856C564.704 388.246 568.409 387.727 571.064 385.903C575.267 383.013 578.615 379.147 581.186 374.763C581.881 373.57 583.634 375.309 584.915 375.826C586.158 376.327 587.41 376.805 588.709 377.183C592.105 378.169 596.075 376.844 597.889 373.808C601.315 368.073 603.186 361.534 604.117 354.848C604.392 352.879 603.294 350.72 601.499 349.865C600.105 349.212 598.452 349.079 597.128 348.328C597.044 348.28 596.963 348.234 596.867 348.24C596.726 348.249 596.592 348.202 596.526 348.069C595.65 346.245 596.638 344.519 597.086 342.604C597.78 339.608 599.853 333.841 597.696 331.098C597.646 331.036 597.606 330.973 597.574 330.91C597.181 330.138 598.139 329.127 599.006 329.127C599.309 329.127 599.629 329.107 599.88 328.936C600.705 328.376 601.594 327.897 602.431 327.366C604.722 325.918 605.786 323.063 604.813 320.533C601.684 312.395 594.435 305.608 587.964 299.496C585.505 297.175 581.459 296.519 579.435 299.227C578.715 300.19 578.279 301.547 577.501 302.507C577.348 302.696 577.24 302.935 577.044 303.079C577.008 303.106 576.967 303.129 576.924 303.148C576.876 303.17 576.838 303.203 576.794 303.233C576.641 303.328 576.401 303.291 576.28 303.145C576.256 303.117 576.229 303.093 576.195 303.08C576.183 303.075 576.172 303.067 576.163 303.058C572.306 299.471 567.626 298.888 562.728 297.459C561.329 297.047 562.719 294.651 562.598 293.197C562.549 292.619 562.487 292.043 562.417 291.469C562.153 289.291 560.673 287.415 558.564 286.811C550.569 284.52 542.968 284.872 535.001 286.906ZM565.068 329.001C574.181 339.973 572.255 357.918 559.786 365.425C547.493 372.826 532.496 366.316 525.856 353.597C519.461 341.346 526.371 330.644 531.147 325.704C532.989 323.799 534.964 321.882 537.377 320.783C545.681 317.003 559.98 322.877 565.068 329.001Z" fill="white"/>
<path d="M534.166 323.099C530.838 325.211 517.817 338.183 525.865 353.596C532.506 366.315 547.503 372.825 559.796 365.424C572.264 357.917 574.19 339.972 565.077 328.999C559.235 321.977 543.118 315.691 534.166 323.099ZM549.394 323.541C553.267 324.902 558.591 326.775 561.596 329.673C570.919 338.646 569.056 355.911 558.129 362.589C552.924 365.767 546.599 365.95 540.855 364.308C533.668 362.26 529.332 358.296 527.238 350.958C525.382 344.454 525.529 339.031 528.975 332.83C533.276 325.113 543.321 321.409 549.394 323.541Z" fill="#030510" stroke="#030510" stroke-width="0.175387" stroke-miterlimit="10"/>
<path d="M598.518 330.073C598.826 329.757 599.169 329.484 599.526 329.217C599.386 329.161 599.225 329.126 599.05 329.126C598.511 329.126 598.168 329.4 597.964 329.764C597.544 329.996 597.327 330.578 597.74 331.097C599.898 333.84 597.824 339.607 597.131 342.603C596.69 344.511 595.695 346.237 596.57 348.068C596.655 348.25 596.872 348.271 597.068 348.208C597.103 348.243 600.15 349.211 601.544 349.864C602.069 350.109 602.573 350.439 603.078 350.741C603.967 351.274 604.486 352.277 604.36 353.308C603.351 361.895 600.871 370.321 595.639 377.21C595.001 378.052 593.895 378.375 592.872 378.108C591.513 377.764 590.091 377.561 588.753 377.175C586.757 376.593 584.859 375.772 582.939 374.993C582.729 374.32 581.693 373.969 581.23 374.755C578.66 379.132 575.311 382.998 571.108 385.895C568.454 387.726 564.748 388.245 562.745 390.848C562.619 391.01 562.64 391.213 562.738 391.374C563.039 391.872 563.298 392.406 563.354 392.988C563.438 393.865 563.578 394.742 563.782 395.619C563.789 395.647 563.796 395.675 563.803 395.696C564.097 397.022 563.326 398.369 562.037 398.797C554.921 401.154 546.697 400.852 539.216 399.926C537.941 399.772 536.968 398.741 536.87 397.457C536.821 396.783 536.723 396.103 536.744 395.471C536.786 393.963 537.206 392.434 537.094 390.939C537.073 390.638 536.849 390.448 536.603 390.406C534.523 388.281 530.874 387.27 528.212 386.05C525.298 384.717 522.629 383.25 520.058 381.342C520.002 381.027 519.722 380.795 519.393 380.879C518.587 381.083 518.342 381.518 517.796 382.121C517.004 382.998 516.115 383.812 515.155 384.506C514.308 385.117 513.404 385.657 512.451 386.064C512.094 386.218 511.73 386.309 511.373 386.421C511.345 386.267 511.289 386.12 511.17 385.972C504.578 378.417 496.922 371.556 493.686 361.797C493.798 361.762 493.931 361.727 494.015 361.615C495.962 359.103 501.328 356.767 501.3 356.03C501.062 350.109 503.436 337.685 502.848 337.418C502.813 337.404 502.771 337.39 502.736 337.376C502.624 337.271 502.491 337.222 502.344 337.222C500.571 336.492 498.68 336.057 496.901 335.307C494.912 334.465 491.577 333.265 490.576 331.125C490.604 331.076 490.639 331.034 490.66 330.971C493.399 322.384 497.994 311.433 505.531 305.863C505.58 305.905 505.587 305.968 505.664 306.003C507.723 306.894 509.832 307.56 511.821 308.62C513.18 309.342 516.801 311.587 517.06 311.251C520.598 306.676 525.816 304.102 530.544 301.008C530.944 301.155 531.385 300.748 531.308 300.306C530.972 298.384 530.005 296.623 529.648 294.673C529.396 293.326 529.389 291.979 529.347 290.632C529.312 289.439 530.047 288.352 531.182 287.994C541.717 284.676 551.432 283.946 562.023 287.917C561.96 287.398 561.89 286.879 561.841 286.353C561.799 285.897 562.465 285.763 562.675 286.128C563.011 286.71 563.284 287.328 563.515 287.959C564.006 287.524 564.139 286.598 563.424 286.29C552.952 281.743 538.341 280.888 528.506 287.714C528.352 287.819 528.296 287.987 528.289 288.156C527.49 290.239 527.483 293.319 528.128 296.076C528.646 298.3 527.778 300.594 525.858 301.829C524.506 302.699 523.211 303.653 521.964 304.607C521.116 305.259 520.234 305.933 519.4 306.662C517.649 308.206 515.127 308.522 513.061 307.434C512.921 307.364 512.781 307.287 512.648 307.217C510.665 306.164 508.41 305.126 506.189 304.761C506.049 304.74 505.93 304.789 505.804 304.838C505.699 304.754 505.573 304.698 505.398 304.754C501.503 305.94 498.554 311.201 496.481 314.429C493.273 319.424 489.14 324.608 489.133 330.543C489.126 334.016 491.704 334.556 493.329 335.489C495.031 336.471 496.978 337.474 498.981 338.127C500.284 338.555 501.027 339.916 500.712 341.249C499.78 345.163 499.514 349.317 499.647 353.329C499.675 354.248 499.269 355.139 498.498 355.638C497.987 355.974 497.503 356.367 497.041 356.76C495.626 357.953 494.26 359.222 492.887 360.471C492.53 360.794 492.593 361.208 492.831 361.495C492.537 365.452 495.479 369.816 497.517 372.938C500.929 378.157 505.559 382.801 509.923 387.214C510.084 387.376 510.252 387.439 510.427 387.46C510.504 387.614 510.623 387.761 510.798 387.782C512.844 388.07 514.896 386.793 516.514 385.643C517.039 385.271 517.719 384.801 518.342 384.261C519.316 383.419 520.759 383.454 521.747 384.282C523.253 385.552 524.99 386.555 526.741 387.481C528.828 388.582 531.14 390.189 533.507 391.094C534.614 391.515 535.28 392.651 535.161 393.837C535.119 394.286 535.09 394.728 535.062 395.149C534.985 396.573 534.74 398.53 535.637 399.709C535.651 399.723 535.665 399.73 535.679 399.744C535.644 399.849 535.644 399.968 535.756 400.081C539.475 403.778 546.396 402.445 551.166 402.431C556.175 402.417 561.939 402.922 565.792 399.183C566.065 398.923 566.114 398.621 566.03 398.362C566.562 397.373 565.764 396.145 565.442 395.156C565.281 394.665 565.119 394.174 564.965 393.682C564.538 392.357 565.204 390.925 566.492 390.392C569.049 389.333 571.515 388.175 573.763 386.428C576.628 384.205 579.031 381.518 581.062 378.543C581.826 377.421 583.304 377.049 584.494 377.687C587.52 379.315 591.247 380.662 594.266 380.416C594.448 380.507 594.651 380.535 594.882 380.388C594.91 380.367 594.938 380.346 594.966 380.325C595.12 380.276 595.247 380.185 595.331 380.058C603.596 374.229 605.677 360.099 606.419 350.902C606.482 350.102 603.022 348.657 601.978 348.18C601.453 347.942 600.878 347.689 600.297 347.486C598.966 347.023 598.28 345.57 598.679 344.209C599.344 341.915 599.8 339.544 600.129 337.201C600.388 335.314 600.857 333.048 600.08 331.294C600.29 331.027 600.381 330.676 600.36 330.34C599.842 330.487 599.323 330.599 598.812 330.634C598.455 330.683 598.315 330.277 598.518 330.073Z" fill="#030510" stroke="#030510" stroke-width="0.175387" stroke-miterlimit="10"/>
<path d="M584.637 294.377C584.427 294.23 584.224 294.265 584.042 294.356C583.881 294.118 583.629 293.949 583.272 294.069C581.191 294.777 579.391 296.236 578.039 297.962C577.458 298.699 576.743 299.674 576.351 300.684C573.885 297.548 568.38 296.601 564.541 295.844C564.59 293.241 564.8 289.551 563.883 287.074C563.652 287.278 562.951 288.288 562.608 288.155C562.398 288.07 562.195 288.007 561.984 287.93C562.307 290.498 561.76 297.162 562.762 297.457C567.665 298.888 572.351 299.471 576.211 303.07C576.232 303.091 577.03 303.883 579.475 299.232C580.4 297.478 582.179 296.552 583.839 295.5C592.034 303.645 603.851 312.8 606.065 324.789C604.881 325.666 603.725 326.578 602.471 327.371C601.498 327.988 600.454 328.536 599.522 329.223C600.02 329.413 600.286 329.883 600.307 330.374C602.836 329.672 608.313 325.73 608.243 325.14C607.543 319.044 603.865 314.35 600.118 309.671C595.614 304.045 590.542 298.545 584.637 294.377Z" fill="#030510" stroke="#030510" stroke-width="0.175387" stroke-miterlimit="10"/>
<path d="M561.807 286.368C561.856 286.894 561.926 287.413 561.989 287.933C562.2 288.01 562.403 288.08 562.613 288.157C562.949 288.29 563.25 288.178 563.481 287.975C563.25 287.343 562.977 286.726 562.641 286.144C562.431 285.779 561.758 285.912 561.807 286.368Z" fill="#030510" stroke="#030510" stroke-width="0.175387" stroke-miterlimit="10"/>
<path d="M599.515 329.223C599.158 329.482 598.821 329.763 598.506 330.079C598.31 330.282 598.443 330.689 598.751 330.668C599.263 330.633 599.781 330.521 600.299 330.373C600.278 329.875 600.019 329.405 599.515 329.223Z" fill="#030510" stroke="#030510" stroke-width="0.175387" stroke-miterlimit="10"/>
<path d="M628.892 424.26C628.815 422.458 627.664 420.549 625.91 420.129C624.71 419.836 623.392 419.849 622.201 419.516C621.823 419.41 621.308 419.573 621.007 419.322C620.118 418.558 619.985 417.126 619.571 416.067C619.067 414.776 618.31 413.57 617.89 412.251C617.753 411.819 618.302 411.475 618.633 411.166C619.196 410.643 619.967 410.278 620.545 409.774C621.166 409.226 621.711 408.635 622.242 408.03C622.371 407.883 622.361 407.666 622.303 407.48C621.561 405.088 620.923 402.962 618.99 401.173C617.393 399.7 615.347 398.535 613.547 397.329C611.306 395.829 609.082 394.22 606.736 392.855C605.121 391.916 603.004 392.595 602.235 394.298C602.103 394.588 601.988 394.891 601.873 395.193C601.639 395.8 601.801 396.895 601.174 397.068C601.092 397.091 601.002 397.09 600.91 397.057C600.906 397.056 600.902 397.055 600.898 397.054C600.888 397.05 600.879 397.052 600.872 397.06C600.697 397.232 600.485 397.274 600.29 397.225C599.757 397.091 599.429 396.458 598.924 396.241C598.097 395.886 597.266 395.549 596.365 395.343C594.837 394.995 593.297 394.966 591.756 394.855C591.677 394.849 591.609 394.889 591.56 394.951C591.384 395.119 591.104 395.161 590.887 395.035C590.278 394.677 590.208 394.221 590.026 393.554C589.801 392.734 589.549 391.962 589.129 391.211C588.709 390.468 588.19 389.822 587.595 389.212C587.349 388.96 587.082 388.75 586.859 388.513C586.806 388.457 586.749 388.48 586.677 388.51C584.317 389.647 581.781 390.341 579.42 391.506C578.251 392.084 576.443 392.848 574.921 393.807C573.065 394.975 572.462 397.433 573.635 399.286C574.06 399.96 574.809 400.533 575.261 401.216C575.278 401.242 575.306 401.257 575.337 401.257C575.645 401.3 575.771 401.594 575.582 401.846C575.582 401.847 575.582 401.847 575.581 401.847C575.577 401.851 575.577 401.857 575.579 401.862C575.584 401.871 575.589 401.881 575.593 401.891C575.595 401.894 575.596 401.898 575.597 401.902C575.677 402.216 575.44 402.548 575.106 402.541C574.962 402.541 574.826 402.534 574.714 402.624C573.24 403.813 571.212 404.38 569.838 405.796C568.024 407.67 566.665 410.069 565.005 412.096C564.697 412.475 564.171 411.991 564.367 411.605C564.429 411.492 564.349 411.357 564.221 411.34C562.972 411.169 561.766 410.432 560.543 410.104C558.667 409.598 556.573 410.948 555.933 412.783C553.955 418.453 552.056 423.916 553.258 430.21C553.292 430.382 553.379 430.552 553.545 430.611C554.688 431.019 555.789 431.564 556.999 431.81C557.997 432.015 559.083 431.904 560.096 432.033C560.285 432.057 560.481 432.025 560.667 432.066C560.904 432.117 561.111 432.266 561.335 432.359C561.349 432.365 561.363 432.371 561.376 432.378C562.07 432.715 561.524 433.932 561.802 434.651C562.258 435.833 562.857 436.928 563.709 437.976C564.575 439.041 565.533 439.836 566.167 440.991C566.341 441.308 566.742 441.593 566.665 441.947C566.364 443.533 564.725 444.838 564.017 446.311C562.666 449.137 563.711 453.029 566.373 454.68C569.417 456.568 572.936 457.63 576.326 458.978C578.014 459.649 580.063 459.175 581.025 457.634C581.786 456.428 582.034 454.815 583.092 453.859C583.277 453.692 583.486 453.574 583.721 453.523C583.944 453.474 584.132 453.591 584.21 453.792C584.211 453.795 584.212 453.798 584.212 453.801C584.212 453.812 584.225 453.815 584.236 453.812C584.366 453.777 584.571 453.812 584.863 453.925C584.952 453.959 585.044 453.985 585.138 453.998C585.7 454.075 586.262 454.146 586.824 454.21C587.742 454.316 588.66 454.4 589.577 454.449C591.7 454.561 593.843 454.056 595.923 454.28C596.393 454.33 596.61 454.919 596.169 455.192C596.098 455.24 596.053 455.301 596.068 455.385C596.296 456.599 596.505 457.861 597.247 458.876C598.255 460.263 600.328 460.613 602.012 460.288C604.636 459.781 607.359 458.953 609.923 457.89C613.586 456.369 615.099 451.547 611.6 449.678C611.564 449.657 611.535 449.633 611.514 449.607C611.483 449.571 611.438 449.552 611.39 449.552C611.117 449.58 610.962 449.278 611.012 449.054C611.18 448.163 611.705 447.812 612.314 447.146C613.071 446.318 613.764 445.441 614.388 444.508C615.46 442.908 616.048 440.972 617.218 439.471C617.423 439.207 617.781 439.256 618.028 439.444C618.07 439.476 618.117 439.464 618.17 439.464C621.299 439.225 624.583 440.164 627.46 438.8C627.463 438.798 627.465 438.795 627.465 438.791C627.465 438.791 627.466 438.79 627.466 438.789C628.313 435.604 628.866 432.385 629.021 429.088C629.08 427.486 628.962 425.871 628.892 424.26ZM594.502 433.066C583.46 437.226 577.653 419.586 586.346 415.886C586.922 415.641 587.319 414.982 587.903 414.755C593.395 412.7 599.349 415.822 601.387 421.238C603.517 426.913 599.706 431.108 594.502 433.066Z" fill="white"/>
<path d="M587.877 414.764C587.534 414.89 587.345 415.22 587.296 415.556C577.223 418.313 583.044 437.382 594.476 433.074C599.68 431.11 603.498 426.921 601.361 421.253C599.323 415.83 593.369 412.708 587.877 414.764ZM594.532 430.457C590.406 432.534 586.533 430.843 584.487 426.865C582.239 422.481 584.193 418.783 587.877 416.461C587.955 416.475 588.025 416.489 588.109 416.482C592.143 416.033 596.241 416.938 598.462 420.685C601.046 425.027 598.427 428.5 594.532 430.457Z" fill="#00E2C5" stroke="#00E2C5" stroke-width="0.175387" stroke-miterlimit="10"/>
<path d="M630.388 420.454C629.695 419.016 627.488 418.693 626.066 418.426C625.387 418.3 624.651 418.181 623.916 418.167C622.816 418.139 621.885 417.423 621.506 416.392C621.38 416.048 621.24 415.718 621.107 415.41C620.841 414.771 620.519 414.105 620.133 413.487C619.867 413.06 620.007 412.519 620.421 412.232C620.939 411.867 621.408 411.411 621.787 411.039C622.655 410.183 623.405 409.075 623.825 407.903C623.993 407.756 624.098 407.545 624.077 407.251C623.685 402.466 621.051 399.905 617.191 397.415C614.516 395.689 611.819 393.984 609.136 392.266C607.245 391.059 605.564 389.698 603.252 389.929C603.056 389.951 602.93 390.049 602.839 390.168C602.678 390.224 602.538 390.322 602.419 390.491C601.704 391.466 601.158 392.574 600.653 393.669C600.422 394.16 600.156 394.679 599.967 395.212C597.929 394.118 595.288 393.592 592.976 393.837C592.493 393.886 592.031 393.563 591.94 393.086C591.73 391.985 591.057 390.792 590.63 390.105C589.908 388.94 588.311 386.66 586.749 387.06C586.581 387.102 586.49 387.221 586.441 387.362C586.343 387.334 586.252 387.285 586.147 387.306C582.813 387.832 579.352 389.67 576.445 391.333C574.897 392.217 571.892 393.493 571.549 395.514C571.416 395.605 571.311 395.731 571.297 395.914C571.164 397.345 571.654 398.832 572.341 400.074C572.586 400.523 572.929 401.056 573.321 401.519C571.745 402.01 570.225 403.133 569.146 404.15C567.977 405.258 567.045 406.626 566.219 408.057C565.525 409.264 564.061 409.776 562.772 409.257C562.149 409.005 561.511 408.815 560.937 408.647C559.564 408.24 557.687 407.644 556.335 408.282C556.055 408.415 552.756 416.378 552.006 419.556C551.137 423.253 550.941 426.915 551.775 430.633C551.782 430.654 551.796 430.668 551.796 430.689C551.782 430.788 551.796 430.886 551.859 430.984C552.847 432.422 554.563 433.103 556.202 433.545C556.727 433.685 557.351 433.839 558.002 433.931C559.067 434.085 559.97 434.793 560.279 435.825C560.79 437.544 561.806 439.234 563.066 440.497C563.963 441.388 564.026 442.791 563.361 443.872C562.898 444.615 562.527 445.394 562.254 445.997C561.574 447.491 560.3 450.136 561.238 451.932C562.863 455.04 565.868 456.969 569.006 458.506C572.137 460.042 575.577 461.768 579.114 461.396C581.047 461.031 581.524 459.6 582.182 458.618C582.687 457.86 583.359 457.026 583.45 456.107C583.534 454.633 587.779 455.931 589.082 456.036C590.588 456.163 592.332 456.282 593.922 455.98C594.433 455.882 594.924 456.247 594.994 456.766C595.162 457.931 595.519 459.067 596.241 460.007C596.78 460.716 598.685 461.894 599.021 461.922C602.846 462.189 606.979 460.372 610.586 459.214C612.954 458.45 617.563 456.219 617.528 454.507C617.486 452.36 615.608 450.684 613.724 449.8C613.15 449.533 613.066 448.761 613.507 448.305C614.25 447.534 614.88 446.558 615.405 445.836C616.19 444.748 617.086 443.472 617.654 442.125C618.102 441.065 619.265 440.504 620.386 440.75C623.384 441.416 628.392 441.753 629.331 439.339C634.57 425.884 630.486 420.657 630.388 420.454ZM628.98 429.097C628.826 432.394 628.273 435.614 627.425 438.799V438.806C624.553 440.174 617.402 439.192 617.177 439.48C616.008 440.981 615.419 442.917 614.348 444.517C613.724 445.45 613.031 446.327 612.274 447.155C611.665 447.821 611.139 448.172 610.971 449.063C610.929 449.287 611.076 449.596 611.35 449.561C611.378 449.561 611.406 449.547 611.434 449.54C611.455 449.596 611.49 449.645 611.56 449.687C613.423 450.684 614.705 452.164 615.566 453.988C615.77 454.409 615.608 454.928 615.209 455.173C610.761 457.952 604.863 460.014 599.694 460.653C599.407 460.688 599.14 460.568 598.93 460.372C598.37 459.86 597.669 459.523 597.2 458.885C596.43 457.832 596.927 454.233 595.876 454.289C593.789 454.402 591.652 454.57 589.53 454.458C588.612 454.409 587.695 454.318 586.777 454.219C586.168 454.149 585.558 454.072 584.949 453.988C584.571 453.826 584.319 453.777 584.171 453.826C583.177 453.77 582.329 454.752 582.098 455.777C581.636 456.31 581.37 457.019 580.984 457.636C580.564 458.309 580.095 458.955 579.639 459.6C579.373 459.972 578.897 460.105 578.477 459.909C573.055 457.411 566.926 456.324 562.765 451.757C562.513 451.483 562.639 451.104 562.646 450.733C562.688 448.095 563.347 447.632 563.977 446.313C564.684 444.84 566.324 443.535 566.625 441.949C566.667 441.725 566.408 441.9 566.233 441.823C565.623 440.378 564.649 439.192 563.662 437.971C562.534 436.575 561.07 432.296 560.937 432.254C560.79 432.071 560.559 432.008 560.342 432.071C559.249 431.882 558.051 432.029 556.958 431.805C555.648 431.531 554.465 430.921 553.218 430.507C553.232 430.416 553.239 430.318 553.218 430.205C551.838 422.993 554.535 416.862 556.755 410.267C556.902 409.825 557.351 409.545 557.806 409.643C558.695 409.825 559.662 409.874 560.503 410.106C561.813 410.457 565.063 411.965 565.371 411.586C567.031 409.559 567.984 407.672 569.798 405.806C571.22 404.339 575.535 401.877 575.535 401.863L575.542 401.856C575.738 401.61 575.605 401.309 575.297 401.266C575.283 401.266 575.262 401.266 575.248 401.266C574.792 400.572 574.029 399.983 573.594 399.295C573.041 398.418 572.761 397.485 572.516 396.517C572.453 396.264 572.481 395.984 572.635 395.766C573.98 393.844 577.503 392.434 579.38 391.508C581.741 390.343 584.277 389.649 586.637 388.512C586.686 388.484 586.693 388.442 586.728 388.414C586.966 388.695 587.268 388.926 587.555 389.214C588.15 389.824 588.668 390.47 589.089 391.213C589.509 391.957 589.768 392.736 589.985 393.556C590.167 394.223 590.238 394.679 590.847 395.037C591.064 395.163 591.337 395.121 591.519 394.953C591.554 394.924 591.561 394.882 591.589 394.847C593.179 394.967 594.756 394.988 596.325 395.345C597.522 395.619 598.594 396.124 599.701 396.594C599.764 397.134 600.415 397.485 600.843 397.05C600.85 397.05 600.857 397.057 600.864 397.057C601.347 397.233 601.753 396.552 601.41 396.194C601.711 395.591 601.914 394.917 602.194 394.3C602.531 393.563 602.923 392.855 603.301 392.139C603.539 391.69 604.093 391.487 604.548 391.711C607.707 393.255 610.593 395.388 613.5 397.338C615.3 398.544 617.346 399.709 618.943 401.182C620.876 402.971 621.506 405.097 622.256 407.489C622.291 407.601 622.347 407.7 622.417 407.784C621.815 408.478 621.205 409.159 620.498 409.783C619.748 410.443 618.655 410.864 618.137 411.713C617.92 411.783 617.752 411.972 617.843 412.26C618.263 413.579 619.02 414.785 619.524 416.076C619.937 417.136 620.07 418.567 620.96 419.331C621.121 419.472 624.448 419.794 625.863 420.138C626.312 420.243 626.767 420.426 627.229 420.601C628.161 420.966 628.784 421.857 628.798 422.853C628.868 424.93 629.078 427.02 628.98 429.097Z" fill="#00E2C5" stroke="#00E2C5" stroke-width="0.175387" stroke-miterlimit="10"/>
<path d="M153.753 443.528C153.76 442.553 152.401 442.616 152.282 443.528C150.559 456.823 151.406 472.481 157.325 484.681C157.43 484.905 157.844 484.807 157.809 484.548C156.05 470.657 153.655 457.65 153.753 443.528Z" fill="#030510"/>
<path d="M482.88 425.001C470.307 423.921 457.586 424.279 444.978 424.363C433.638 424.433 420.973 423.233 409.85 425.591C409.352 425.696 409.331 426.531 409.85 426.622C421.113 428.516 433.553 426.973 444.978 426.959C457.593 426.945 470.279 427.471 482.88 426.762C484.015 426.692 483.994 425.1 482.88 425.001Z" fill="#00E2C5"/>
<path d="M351.834 165.547C345.075 164.922 334.358 168.206 335.142 176.947C335.219 177.817 336.424 178.055 336.704 177.157C337.678 174.028 338.848 171.398 341.692 169.503C344.641 167.546 348.367 166.957 351.834 166.999C352.78 167.006 352.752 165.631 351.834 165.547Z" fill="#030510"/>
<path d="M511.866 127.748C511.782 127.039 510.83 127.025 510.753 127.748C509.765 136.966 511.152 148.029 514.171 156.806C514.514 157.809 515.887 157.395 515.726 156.378C514.234 146.816 513.043 137.352 511.866 127.748Z" fill="#030510"/>
<path d="M547.615 313.118C532.66 311.701 519.407 322.217 519.07 337.574C519.056 338.093 519.918 338.24 520.002 337.7C522.223 323.901 533.402 313.904 547.615 315.068C548.861 315.174 548.847 313.237 547.615 313.118Z" fill="#030510"/>
<path d="M539.377 309.757C530.747 307.597 524.037 314.36 519.939 321.186C519.61 321.74 520.38 322.35 520.836 321.88C525.788 316.668 530.831 309.743 539.02 311.069C539.86 311.196 540.245 309.975 539.377 309.757Z" fill="#030510"/>
<path d="M598.798 356.213C597.741 361.537 594.785 365.466 591.822 369.844C591.555 370.244 592.088 370.784 592.487 370.51C597.068 367.36 599.064 361.664 599.779 356.346C599.856 355.785 598.91 355.659 598.798 356.213Z" fill="#030510"/>
<path d="M594.537 357.471C593.185 360.242 591.147 363.28 590.566 366.325C590.454 366.907 591.224 367.545 591.672 366.97C593.606 364.536 594.593 361.07 595.826 358.229C596.204 357.359 594.972 356.587 594.537 357.471Z" fill="#030510"/>
<path d="M603.942 427.807L604.288 427.867C604.361 427.442 604.442 427.022 604.523 426.606C604.921 424.54 605.306 422.545 604.745 420.279L604.745 420.278C604.106 417.719 602.615 415.305 601.281 413.146C601.266 413.121 601.251 413.097 601.235 413.072L601.235 413.072L601.235 413.071C601.193 413.004 601.203 412.974 601.205 412.968C601.205 412.968 601.205 412.968 601.205 412.968C601.209 412.954 601.225 412.927 601.269 412.903C601.312 412.879 601.365 412.869 601.413 412.877C601.456 412.884 601.501 412.905 601.541 412.957L601.541 412.957C602.957 414.81 604.994 417.679 606.017 420.572C606.529 422.017 606.778 423.442 606.591 424.735C606.405 426.016 605.79 427.188 604.528 428.145L604.527 428.146C604.489 428.175 604.471 428.173 604.467 428.172L604.467 428.172C604.457 428.171 604.431 428.164 604.395 428.131C604.36 428.098 604.327 428.05 604.306 427.996C604.285 427.941 604.283 427.895 604.288 427.866L603.942 427.807ZM603.942 427.807C604.018 427.369 604.1 426.941 604.181 426.52C604.578 424.457 604.945 422.548 604.404 420.363L604.741 428.424C604.32 428.747 603.872 428.214 603.942 427.807Z" fill="#00E2C5" stroke="#00E2C5" stroke-width="0.701549"/>
<path d="M608.183 417.513C608.132 417.437 608.079 417.413 608.036 417.405C607.987 417.396 607.928 417.405 607.874 417.437C607.82 417.468 607.786 417.512 607.773 417.553C607.761 417.587 607.756 417.642 607.802 417.726L607.803 417.728L607.803 417.728C608.686 419.36 609.204 421.017 609.405 422.858C609.488 423.612 609.48 424.363 609.474 425.089L609.473 425.098C609.466 425.834 609.46 426.544 609.538 427.249C609.552 427.377 609.667 427.517 609.814 427.569C609.88 427.593 609.928 427.589 609.957 427.579C609.98 427.571 610.022 427.548 610.063 427.461L608.183 417.513ZM608.183 417.513C609.104 418.902 609.947 420.614 610.371 422.374C610.794 424.134 610.792 425.912 610.063 427.461L608.183 417.513Z" fill="#00E2C5" stroke="#00E2C5" stroke-width="0.701549"/>
<path d="M86.4832 293.416C86.4762 292.519 86.7494 290.905 86.0979 290.421C85.9929 290.344 85.8808 290.498 85.9368 290.659C86.3151 291.747 85.9718 294.062 85.9929 295.325C86.0209 296.602 85.9859 297.991 86.2941 299.19C86.3431 299.38 86.5742 299.45 86.5953 299.19C86.7984 297.338 86.4972 295.297 86.4832 293.416Z" fill="#030510"/>
<path d="M118.065 297.365C112.678 297.463 107.285 297.744 101.898 297.941C99.2013 298.039 96.5115 298.144 93.8147 298.256C91.335 298.361 88.7713 298.214 86.3197 298.789C86.1516 298.832 86.2146 299.175 86.3547 299.203C89.0095 299.638 91.7693 299.259 94.4381 299.182C97.0298 299.112 99.6215 299.021 102.206 298.937C107.488 298.754 112.776 298.656 118.058 298.376C118.492 298.354 118.492 297.358 118.065 297.365Z" fill="#030510"/>
<path d="M118.108 293.79C118.059 292.793 118.087 291.762 117.821 290.843C117.772 290.682 117.611 290.738 117.59 290.892C117.387 291.966 117.555 293.2 117.604 294.309C117.653 295.459 117.681 296.631 117.793 297.767C117.835 298.188 118.263 298.069 118.27 297.669C118.277 296.385 118.171 295.081 118.108 293.79Z" fill="#030510"/>
<path d="M117.867 291.115C117.846 290.708 117.832 290.294 117.811 289.888C117.972 289.544 117.755 289.116 117.51 289.095C112.165 288.751 106.807 288.695 101.455 288.947C96.3277 289.186 91.0812 289.389 86.0028 290.638C85.8277 290.68 85.8697 291.115 86.0448 291.108C91.2843 290.905 96.5168 290.112 101.763 289.93C106.87 289.754 111.969 289.831 117.069 290.126C117.027 290.708 117.16 291.199 117.503 291.655C117.755 291.978 118.077 291.487 117.867 291.115Z" fill="#030510"/>
<path d="M132.141 291.439C130.04 291.726 127.868 293.438 125.942 294.638C125.725 294.771 125.634 295.073 125.739 295.409C126.012 296.272 126.615 296.357 127.182 296.581C128.198 296.974 129.227 297.402 130.285 297.444C130.614 297.458 130.649 296.756 130.362 296.609C129.69 296.265 128.989 296.097 128.296 295.865C127.959 295.753 127.161 295.648 126.685 295.311C128.52 294.231 130.586 293.368 132.211 291.761C132.288 291.677 132.26 291.418 132.141 291.439Z" fill="#030510"/>
<path d="M136.958 289.537C136.355 290.982 135.851 292.512 135.354 294.041C134.905 295.402 134.394 296.728 134.177 298.222C134.135 298.489 134.373 298.769 134.506 298.517C135.171 297.24 135.557 295.697 135.998 294.223C136.439 292.743 136.881 291.256 137.224 289.712C137.273 289.467 137.042 289.334 136.958 289.537Z" fill="#030510"/>
<path d="M145.162 293.852C144.875 292.947 143.698 292.793 143.145 292.47C142.045 291.839 140.973 291.053 139.86 290.492C139.566 290.344 139.39 291.011 139.65 291.242C140.413 291.93 141.219 292.498 142.031 293.017C142.388 293.249 142.753 293.473 143.117 293.677C143.271 293.768 143.838 293.957 144.203 294.161C143.593 294.792 142.725 295.234 142.122 295.704C141.415 296.258 140.714 296.764 140.084 297.514C139.874 297.767 140.105 298.272 140.336 298.174C141.226 297.788 142.024 297.072 142.844 296.434C143.558 295.88 144.539 295.417 145.106 294.547C145.232 294.364 145.239 294.091 145.162 293.852Z" fill="#030510"/>
<path d="M157.645 303.786C146.395 304.607 135.139 305.245 123.882 305.687C112.5 306.136 101.096 306.01 89.7205 306.67C89.4473 306.684 89.4473 307.301 89.7205 307.315C101.082 307.883 112.521 307.301 123.882 306.873C135.139 306.452 146.395 305.814 157.645 305.035C158.17 304.993 158.177 303.744 157.645 303.786Z" fill="#030510"/>
<path d="M156.936 314.561C145.791 315.08 134.64 315.431 123.496 315.627C112.358 315.824 101.179 315.326 90.0482 315.971C89.8381 315.985 89.8381 316.448 90.0482 316.469C101.158 317.409 112.379 316.883 123.496 316.708C134.647 316.532 145.791 316.167 156.936 315.648C157.391 315.62 157.391 314.54 156.936 314.561Z" fill="#00E2C5"/>
<path d="M157.668 325.51C146.629 326.008 135.582 326.464 124.536 326.885C119.065 327.089 113.595 327.285 108.124 327.467C102.59 327.65 96.9026 327.362 91.397 328.267C91.2218 328.295 91.2218 328.66 91.397 328.681C96.8116 329.263 102.38 328.646 107.809 328.471C113.385 328.295 118.96 328.106 124.536 327.902C135.582 327.502 146.622 327.046 157.668 326.548C158.109 326.52 158.109 325.489 157.668 325.51Z" fill="#00E2C5"/>
<path d="M157.668 336.877C146.629 337.375 135.582 337.831 124.536 338.252C119.065 338.456 113.595 338.652 108.124 338.835C102.59 339.017 96.9026 338.729 91.397 339.634C91.2218 339.662 91.2218 340.027 91.397 340.048C96.8116 340.631 102.38 340.013 107.809 339.838C113.385 339.662 118.96 339.473 124.536 339.27C135.582 338.87 146.622 338.414 157.668 337.916C158.109 337.888 158.109 336.856 157.668 336.877Z" fill="#00E2C5"/>
<path d="M157.668 348.243C146.629 348.741 135.582 349.197 124.536 349.618C119.065 349.821 113.595 350.017 108.124 350.2C102.59 350.382 96.9026 350.095 91.397 351C91.2218 351.028 91.2218 351.392 91.397 351.413C96.8116 351.996 102.38 351.378 107.809 351.203C113.385 351.028 118.96 350.838 124.536 350.635C135.582 350.235 146.622 349.779 157.668 349.281C158.109 349.253 158.109 348.221 157.668 348.243Z" fill="#030510"/>
<path d="M157.668 359.602C146.629 360.1 135.582 360.556 124.536 360.977C119.065 361.18 113.595 361.377 108.124 361.559C102.59 361.741 96.9026 361.454 91.397 362.359C91.2218 362.387 91.2218 362.752 91.397 362.773C96.8116 363.355 102.38 362.738 107.809 362.562C113.385 362.387 118.96 362.197 124.536 361.994C135.582 361.594 146.622 361.138 157.668 360.64C158.109 360.619 158.109 359.588 157.668 359.602Z" fill="#030510"/>
<path d="M93.4412 383.207C92.9719 382.091 91.634 381.263 90.9265 382.246C90.149 382.582 89.5606 383.635 89.6307 384.743C89.7357 386.399 91.0456 387.591 92.2644 387.044C93.4902 386.497 94.0716 384.708 93.4412 383.207ZM91.8021 386.223C91.0036 386.413 90.2331 385.536 90.184 384.512C90.149 383.873 90.3732 383.361 90.7024 382.989C90.7584 383.101 90.8705 383.158 90.9686 383.031C91.62 382.203 92.6707 383.13 92.8878 384.035C93.119 385.024 92.5726 386.041 91.8021 386.223Z" fill="#030510"/>
<path d="M99.5037 382.722C99.0344 381.607 97.6965 380.779 96.989 381.761C96.2115 382.098 95.6231 383.15 95.6932 384.259C95.7982 385.914 97.1081 387.107 98.3269 386.56C99.5527 386.02 100.134 384.224 99.5037 382.722ZM97.8646 385.739C97.0661 385.928 96.2956 385.051 96.2465 384.027C96.2115 383.389 96.4357 382.877 96.7649 382.505C96.8209 382.617 96.933 382.673 97.0311 382.547C97.6825 381.719 98.7332 382.645 98.9503 383.55C99.1815 384.546 98.6351 385.557 97.8646 385.739Z" fill="#00E2C5"/>
<path d="M105.762 382.711C105.292 381.595 103.954 380.767 103.247 381.749C102.469 382.086 101.881 383.139 101.951 384.247C102.056 385.903 103.366 387.095 104.585 386.548C105.804 386.001 106.392 384.205 105.762 382.711ZM104.115 385.727C103.317 385.917 102.546 385.04 102.497 384.015C102.462 383.377 102.686 382.865 103.016 382.493C103.072 382.605 103.184 382.661 103.282 382.535C103.933 381.707 104.984 382.633 105.201 383.538C105.432 384.528 104.886 385.545 104.115 385.727Z" fill="#030510"/>
<path d="M115.35 379.723C115.329 379.618 115.196 379.639 115.203 379.751C115.372 382.669 115.575 385.595 115.771 388.506C115.785 388.745 116.051 388.752 116.058 388.506C116.114 385.637 115.876 382.522 115.35 379.723Z" fill="#030510"/>
<path d="M138.589 379.201C134.715 379.328 130.842 379.405 126.968 379.419C123.123 379.433 119.179 379.033 115.347 379.426C115.172 379.447 115.179 379.741 115.347 379.769C119.151 380.366 123.137 380.078 126.968 380.071C130.842 380.064 134.715 379.987 138.589 379.868C138.918 379.861 138.918 379.194 138.589 379.201Z" fill="#030510"/>
<path d="M139.871 387.045C131.914 388.105 123.978 388.336 115.985 388.575C115.838 388.582 115.838 388.862 115.985 388.876C123.915 389.43 131.97 388.792 139.871 387.817C140.25 387.768 140.257 386.996 139.871 387.045Z" fill="#030510"/>
<path d="M138.829 379.714C138.794 379.51 138.577 379.573 138.562 379.763C138.387 382.162 138.836 384.947 139.221 387.29C139.284 387.69 139.739 387.515 139.69 387.122C139.347 384.681 139.263 382.113 138.829 379.714Z" fill="#030510"/>
</svg>
