<svg class="blog-tabbing__img" width="695" height="600" viewBox="0 0 695 600" fill="none" xmlns="http://www.w3.org/2000/svg">
<path d="M491.033 226.907C491.236 228.921 491.075 230.934 491.446 232.954C491.81 234.905 492.768 236.658 493.104 238.588C493.181 239.03 492.74 239.443 492.342 239.289C487.618 242.383 482.412 244.957 478.871 249.531C478.613 249.861 478.095 249.644 477.976 249.293C476.45 248.921 474.995 247.616 473.637 246.894C471.65 245.834 469.537 245.168 467.487 244.277C467.41 244.242 467.403 244.179 467.354 244.137C459.824 249.714 455.241 260.658 452.498 269.244C452.477 269.307 452.442 269.349 452.414 269.399C453.408 271.538 456.746 272.731 458.733 273.58C460.51 274.33 462.392 274.765 464.17 275.495C464.324 275.495 464.45 275.544 464.562 275.649C464.597 275.663 464.639 275.677 464.674 275.691C465.261 275.958 465.107 276.779 464.618 277.052C463.687 282.847 462.896 288.389 463.127 294.31C463.155 295.046 462.357 295.222 461.896 294.878C460.993 295.446 460.125 296.029 459.293 296.779C458.145 297.824 457.004 298.863 455.85 299.894C455.745 299.985 455.633 300.041 455.521 300.076C458.754 309.835 466.402 316.696 472.987 324.251C473.113 324.391 473.169 324.546 473.19 324.7C473.546 324.588 473.91 324.496 474.267 324.342C475.226 323.928 476.128 323.395 476.968 322.785C477.927 322.09 478.815 321.284 479.606 320.4C480.152 319.789 480.397 319.361 481.202 319.158C481.523 319.074 481.81 319.305 481.866 319.621C484.434 321.529 487.093 322.995 490.011 324.328C492.67 325.549 496.316 326.559 498.394 328.685C498.639 328.727 498.863 328.916 498.884 329.218C498.996 330.712 498.576 332.241 498.534 333.75C498.499 335.076 498.954 336.626 498.471 337.861C507.414 339.144 517.791 339.832 526.188 336.156C525.831 335.489 525.712 334.605 525.544 333.89C525.244 332.564 525.083 331.266 525.027 329.926C524.628 329.975 524.243 329.456 524.509 329.113C526.51 326.503 530.212 325.984 532.864 324.16C537.062 321.269 540.407 317.404 542.975 313.02C543.437 312.227 544.473 312.578 544.683 313.258C546.6 314.037 548.489 314.858 550.49 315.44C552.373 315.987 554.423 316.155 556.228 316.892C562.645 309.28 565.353 299.536 566.277 289.715C565.206 289.385 564.282 288.606 563.268 288.122C561.875 287.47 560.224 287.337 558.901 286.586C558.852 286.558 558.831 286.509 558.796 286.467C558.607 286.53 558.391 286.509 558.3 286.326C557.425 284.502 558.412 282.777 558.859 280.862C559.552 277.866 561.623 272.099 559.468 269.357C559.055 268.837 559.272 268.255 559.692 268.024C559.888 267.666 560.238 267.385 560.777 267.385C560.959 267.385 561.113 267.42 561.253 267.476C562.183 266.789 563.226 266.242 564.198 265.624C565.451 264.832 566.606 263.927 567.788 263.043C565.57 251.047 553.765 241.892 545.585 233.754C543.927 234.799 542.415 235.894 541.226 237.486C540.435 238.545 539.987 240.082 539.05 241.043C538.987 241.239 538.84 241.373 538.644 241.436C538.623 241.45 538.609 241.478 538.588 241.492C538.42 241.597 538.147 241.541 538.042 241.359C538.021 241.345 537.993 241.345 537.972 241.331C534.116 237.732 529.435 237.149 524.537 235.718C523.536 235.424 523.725 234.161 524.509 233.887C524.523 231.264 524.082 228.759 523.76 226.192C512.564 221.982 502.32 223.063 491.033 226.907ZM526.874 267.259C535.978 278.231 534.053 296.176 521.598 303.682C509.317 311.083 494.336 304.573 487.702 291.854C479.662 276.435 492.677 263.471 495.994 261.359C503.118 253.544 521.045 260.237 526.874 267.259Z" fill="white"/>
<path d="M496.006 261.357C492.682 263.469 479.674 276.44 487.714 291.852C494.348 304.571 509.329 311.081 521.61 303.68C534.065 296.174 535.99 278.229 526.886 267.257C521.05 260.235 504.949 253.949 496.006 261.357ZM511.219 261.799C515.088 263.16 520.406 265.033 523.408 267.93C532.722 276.903 530.86 294.167 519.944 300.846C514.745 304.024 508.427 304.206 502.689 302.565C495.509 300.516 491.178 296.553 489.086 289.215C487.231 282.712 487.378 277.289 490.821 271.087C495.117 263.37 505.152 259.666 511.219 261.799Z" fill="#00E2C5" stroke="#00E2C5" stroke-width="0.175387" stroke-miterlimit="10"/>
<path d="M560.288 268.331C560.596 268.016 560.939 267.742 561.296 267.476C561.156 267.419 560.995 267.384 560.82 267.384C560.281 267.384 559.938 267.658 559.735 268.023C559.315 268.254 559.098 268.837 559.511 269.356C561.666 272.099 559.595 277.865 558.902 280.861C558.462 282.769 557.468 284.495 558.343 286.326C558.427 286.508 558.644 286.529 558.839 286.466C558.874 286.501 561.918 287.469 563.311 288.121C563.836 288.367 564.339 288.697 564.843 288.998C565.732 289.532 566.25 290.535 566.124 291.566C565.116 300.153 562.639 308.578 557.412 315.467C556.775 316.309 555.67 316.632 554.648 316.365C553.29 316.021 551.87 315.818 550.533 315.432C548.539 314.85 546.643 314.029 544.726 313.25C544.516 312.577 543.48 312.226 543.018 313.012C540.45 317.389 537.105 321.255 532.907 324.152C530.255 325.983 526.553 326.502 524.552 329.105C524.426 329.266 524.447 329.469 524.545 329.631C524.846 330.129 525.105 330.662 525.161 331.244C525.245 332.121 525.385 332.998 525.588 333.875C525.595 333.903 525.602 333.931 525.609 333.952C525.902 335.278 525.133 336.625 523.845 337.053C516.736 339.41 508.521 339.108 501.047 338.182C499.774 338.028 498.801 336.997 498.703 335.713C498.654 335.04 498.556 334.359 498.577 333.728C498.619 332.219 499.039 330.69 498.927 329.196C498.906 328.894 498.682 328.705 498.437 328.663C496.359 326.537 492.714 325.527 490.054 324.306C487.144 322.973 484.477 321.507 481.909 319.599C481.853 319.283 481.574 319.052 481.245 319.136C480.44 319.339 480.195 319.774 479.649 320.378C478.859 321.255 477.97 322.068 477.011 322.763C476.165 323.373 475.262 323.913 474.31 324.32C473.953 324.475 473.589 324.566 473.233 324.678C473.205 324.524 473.149 324.376 473.03 324.229C466.445 316.674 458.797 309.813 455.564 300.054C455.676 300.019 455.809 299.984 455.893 299.872C457.838 297.361 463.198 295.025 463.17 294.288C462.932 288.367 465.304 275.943 464.717 275.676C464.682 275.662 464.64 275.648 464.605 275.634C464.493 275.529 464.36 275.48 464.213 275.48C462.443 274.75 460.553 274.315 458.776 273.565C456.789 272.723 453.458 271.523 452.457 269.384C452.485 269.335 452.52 269.293 452.541 269.229C455.277 260.643 459.867 249.692 467.397 244.122C467.446 244.164 467.453 244.227 467.53 244.262C469.587 245.153 471.693 245.819 473.68 246.879C475.038 247.601 478.656 249.846 478.914 249.509C482.448 244.936 487.661 242.361 492.385 239.267C492.783 239.414 493.224 239.008 493.147 238.566C492.811 236.643 491.846 234.883 491.489 232.932C491.237 231.585 491.23 230.239 491.188 228.892C491.153 227.699 491.888 226.612 493.021 226.254C503.546 222.936 513.251 222.206 523.831 226.177C523.768 225.658 523.698 225.138 523.649 224.612C523.607 224.156 524.272 224.023 524.482 224.388C524.818 224.97 525.091 225.587 525.322 226.219C525.811 225.784 525.944 224.858 525.231 224.549C514.769 220.003 500.173 219.147 490.348 225.973C490.194 226.078 490.138 226.247 490.131 226.415C489.334 228.499 489.327 231.578 489.971 234.335C490.488 236.559 489.621 238.853 487.703 240.088C486.353 240.958 485.058 241.912 483.813 242.866C482.966 243.518 482.084 244.192 481.252 244.921C479.502 246.465 476.983 246.781 474.919 245.693C474.779 245.623 474.639 245.546 474.506 245.476C472.526 244.423 470.273 243.385 468.054 243.02C467.915 242.999 467.796 243.048 467.67 243.098C467.565 243.013 467.439 242.957 467.264 243.013C463.373 244.199 460.427 249.46 458.356 252.687C455.151 257.682 451.023 262.867 451.016 268.801C451.009 272.274 453.584 272.814 455.207 273.747C456.907 274.729 458.853 275.733 460.854 276.385C462.156 276.813 462.897 278.174 462.582 279.507C461.652 283.421 461.386 287.574 461.519 291.587C461.547 292.506 461.141 293.397 460.371 293.895C459.86 294.232 459.378 294.625 458.916 295.017C457.502 296.21 456.138 297.48 454.766 298.729C454.409 299.051 454.472 299.465 454.71 299.753C454.416 303.709 457.355 308.073 459.392 311.195C462.799 316.414 467.425 321.058 471.784 325.471C471.945 325.632 472.113 325.695 472.288 325.716C472.365 325.871 472.484 326.018 472.659 326.039C474.702 326.327 476.752 325.05 478.369 323.899C478.894 323.528 479.572 323.057 480.195 322.517C481.168 321.675 482.609 321.711 483.596 322.538C485.1 323.808 486.836 324.811 488.585 325.737C490.67 326.839 492.979 328.445 495.345 329.35C496.45 329.771 497.115 330.908 496.996 332.093C496.954 332.542 496.926 332.984 496.898 333.405C496.821 334.829 496.576 336.786 497.472 337.965C497.486 337.979 497.5 337.986 497.514 338C497.479 338.105 497.479 338.224 497.591 338.337C501.306 342.034 508.22 340.701 512.985 340.687C517.988 340.673 523.747 341.178 527.596 337.439C527.869 337.179 527.918 336.878 527.834 336.618C528.366 335.629 527.568 334.401 527.246 333.412C527.085 332.921 526.924 332.43 526.77 331.939C526.343 330.613 527.008 329.182 528.296 328.649C530.85 327.589 533.313 326.432 535.559 324.685C538.421 322.461 540.821 319.774 542.85 316.8C543.613 315.677 545.089 315.306 546.279 315.944C549.302 317.572 553.025 318.918 556.04 318.673C556.222 318.764 556.425 318.792 556.656 318.645C556.684 318.624 556.712 318.603 556.74 318.582C556.894 318.533 557.02 318.441 557.104 318.315C565.361 312.485 567.439 298.357 568.181 289.16C568.244 288.36 564.787 286.915 563.745 286.438C563.22 286.199 562.646 285.947 562.065 285.743C560.736 285.28 560.05 283.828 560.449 282.467C561.114 280.173 561.568 277.802 561.897 275.459C562.156 273.572 562.625 271.306 561.848 269.552C562.058 269.285 562.149 268.935 562.128 268.598C561.61 268.745 561.093 268.858 560.582 268.893C560.225 268.942 560.085 268.535 560.288 268.331Z" fill="#00E2C5" stroke="#00E2C5" stroke-width="0.175387" stroke-miterlimit="10"/>
<path d="M546.419 232.637C546.209 232.49 546.006 232.525 545.824 232.616C545.663 232.377 545.411 232.209 545.054 232.328C542.976 233.037 541.178 234.496 539.827 236.222C539.246 236.958 538.533 237.933 538.141 238.944C535.678 235.808 530.178 234.861 526.343 234.103C526.392 231.5 526.602 227.81 525.685 225.334C525.454 225.537 524.755 226.548 524.412 226.414C524.202 226.33 523.999 226.267 523.789 226.19C524.111 228.757 523.565 235.422 524.566 235.717C529.464 237.148 534.145 237.73 538.001 241.329C538.022 241.35 538.82 242.143 541.262 237.491C542.185 235.738 543.963 234.812 545.621 233.759C553.808 241.904 565.613 251.059 567.824 263.048C566.641 263.925 565.487 264.837 564.234 265.63C563.262 266.247 562.219 266.794 561.288 267.482C561.785 267.671 562.051 268.141 562.072 268.632C564.598 267.931 570.07 263.988 570 263.399C569.301 257.303 565.627 252.609 561.883 247.93C557.384 242.304 552.318 236.804 546.419 232.637Z" fill="#00E2C5" stroke="#00E2C5" stroke-width="0.175387" stroke-miterlimit="10"/>
<path d="M523.612 224.628C523.661 225.154 523.731 225.673 523.794 226.192C524.004 226.269 524.207 226.34 524.417 226.417C524.753 226.55 525.053 226.438 525.284 226.234C525.053 225.603 524.78 224.986 524.445 224.403C524.235 224.039 523.563 224.172 523.612 224.628Z" fill="#00E2C5" stroke="#00E2C5" stroke-width="0.175387" stroke-miterlimit="10"/>
<path d="M561.287 267.48C560.93 267.74 560.594 268.021 560.28 268.336C560.084 268.54 560.217 268.947 560.525 268.926C561.035 268.891 561.553 268.778 562.071 268.631C562.05 268.133 561.791 267.663 561.287 267.48Z" fill="#00E2C5" stroke="#00E2C5" stroke-width="0.175387" stroke-miterlimit="10"/>
<path d="M171.602 251.584C171.828 253.828 171.648 256.072 172.062 258.324C172.467 260.498 173.536 262.453 173.91 264.603C173.996 265.096 173.505 265.557 173.06 265.385C167.795 268.834 161.992 271.704 158.046 276.802C157.757 277.17 157.18 276.927 157.047 276.536C155.347 276.122 153.724 274.667 152.211 273.862C149.996 272.681 147.641 271.938 145.355 270.945C145.27 270.906 145.262 270.836 145.207 270.789C136.815 277.005 131.706 289.204 128.648 298.775C128.625 298.846 128.586 298.892 128.555 298.947C129.662 301.332 133.383 302.661 135.598 303.608C137.579 304.444 139.677 304.929 141.658 305.742C141.83 305.742 141.97 305.797 142.095 305.914C142.134 305.93 142.181 305.946 142.22 305.961C142.875 306.259 142.703 307.173 142.157 307.478C141.12 313.937 140.239 320.115 140.496 326.715C140.527 327.536 139.638 327.731 139.123 327.348C138.117 327.981 137.15 328.63 136.222 329.467C134.943 330.632 133.671 331.79 132.384 332.939C132.267 333.041 132.143 333.103 132.018 333.142C135.621 344.019 144.146 351.667 151.486 360.089C151.626 360.245 151.689 360.417 151.712 360.589C152.11 360.464 152.516 360.362 152.913 360.19C153.982 359.729 154.988 359.135 155.924 358.454C156.993 357.68 157.983 356.781 158.865 355.796C159.473 355.115 159.746 354.638 160.643 354.412C161.002 354.318 161.321 354.576 161.384 354.928C164.246 357.055 167.21 358.689 170.463 360.175C173.427 361.535 177.49 362.661 179.807 365.031C180.08 365.078 180.329 365.289 180.353 365.625C180.478 367.29 180.01 368.995 179.963 370.676C179.924 372.154 180.431 373.882 179.893 375.259C189.861 376.69 201.428 377.456 210.787 373.358C210.39 372.616 210.257 371.63 210.07 370.833C209.734 369.355 209.555 367.908 209.493 366.415C209.048 366.469 208.619 365.891 208.916 365.508C211.146 362.599 215.272 362.02 218.228 359.987C222.908 356.765 226.637 352.457 229.499 347.569C230.014 346.686 231.168 347.077 231.402 347.835C233.539 348.703 235.645 349.618 237.876 350.267C239.974 350.877 242.259 351.065 244.272 351.886C251.424 343.402 254.443 332.54 255.472 321.593C254.279 321.225 253.249 320.357 252.118 319.818C250.566 319.09 248.725 318.942 247.251 318.105C247.197 318.074 247.173 318.019 247.134 317.972C246.924 318.043 246.682 318.019 246.581 317.816C245.606 315.783 246.705 313.859 247.204 311.724C247.977 308.385 250.285 301.958 247.883 298.9C247.423 298.322 247.665 297.673 248.133 297.415C248.351 297.016 248.741 296.703 249.342 296.703C249.544 296.703 249.716 296.742 249.872 296.805C250.909 296.038 252.072 295.428 253.156 294.74C254.552 293.857 255.839 292.848 257.157 291.863C254.684 278.491 241.526 268.287 232.408 259.216C230.56 260.381 228.875 261.601 227.549 263.376C226.668 264.557 226.169 266.269 225.123 267.34C225.053 267.559 224.889 267.708 224.671 267.778C224.648 267.794 224.632 267.825 224.609 267.841C224.421 267.958 224.117 267.896 224 267.692C223.977 267.677 223.946 267.677 223.922 267.661C219.625 263.649 214.407 263 208.947 261.405C207.831 261.077 208.042 259.669 208.916 259.364C208.931 256.44 208.44 253.648 208.081 250.786C195.601 246.094 184.183 247.299 171.602 251.584ZM211.552 296.562C221.699 308.792 219.554 328.795 205.671 337.162C191.982 345.411 175.283 338.155 167.889 323.978C158.927 306.79 173.434 292.34 177.132 289.986C185.072 281.275 205.055 288.735 211.552 296.562Z" fill="white"/>
<path d="M177.143 289.983C173.438 292.337 158.939 306.795 167.901 323.975C175.295 338.152 191.994 345.408 205.683 337.159C219.566 328.792 221.711 308.789 211.564 296.559C205.059 288.732 187.111 281.725 177.143 289.983ZM194.1 290.476C198.413 291.993 204.341 294.08 207.687 297.31C218.069 307.311 215.994 326.555 203.826 333.999C198.031 337.542 190.988 337.745 184.592 335.915C176.59 333.632 171.761 329.214 169.429 321.035C167.362 313.786 167.526 307.741 171.364 300.829C176.153 292.227 187.338 288.098 194.1 290.476Z" fill="#030510" stroke="#030510" stroke-width="0.175387" stroke-miterlimit="10"/>
<path d="M248.801 297.757C249.144 297.405 249.526 297.1 249.924 296.803C249.768 296.74 249.589 296.701 249.394 296.701C248.793 296.701 248.411 297.006 248.185 297.413C247.717 297.671 247.475 298.32 247.935 298.899C250.337 301.956 248.029 308.384 247.257 311.723C246.765 313.85 245.658 315.773 246.633 317.814C246.726 318.018 246.968 318.041 247.186 317.971C247.225 318.01 250.618 319.089 252.17 319.816C252.755 320.09 253.317 320.457 253.879 320.793C254.869 321.388 255.446 322.506 255.306 323.655C254.183 333.227 251.422 342.618 245.595 350.297C244.885 351.235 243.653 351.595 242.514 351.298C241.001 350.915 239.418 350.688 237.928 350.258C235.705 349.609 233.591 348.694 231.454 347.826C231.22 347.075 230.066 346.684 229.551 347.56C226.689 352.439 222.96 356.748 218.281 359.977C215.324 362.018 211.198 362.597 208.968 365.498C208.827 365.678 208.851 365.905 208.96 366.085C209.295 366.64 209.584 367.234 209.646 367.883C209.74 368.861 209.896 369.838 210.122 370.815C210.13 370.847 210.138 370.878 210.145 370.901C210.473 372.379 209.615 373.881 208.18 374.358C200.255 376.985 191.098 376.649 182.768 375.617C181.349 375.445 180.265 374.295 180.155 372.864C180.101 372.114 179.992 371.355 180.015 370.651C180.062 368.97 180.53 367.265 180.405 365.6C180.382 365.264 180.132 365.052 179.859 365.006C177.542 362.636 173.479 361.51 170.515 360.15C167.27 358.664 164.298 357.03 161.436 354.903C161.374 354.551 161.062 354.293 160.695 354.386C159.798 354.613 159.525 355.098 158.917 355.771C158.035 356.748 157.045 357.655 155.976 358.429C155.032 359.11 154.026 359.712 152.965 360.165C152.568 360.337 152.162 360.439 151.764 360.564C151.733 360.392 151.671 360.228 151.538 360.064C144.198 351.642 135.673 343.994 132.07 333.117C132.195 333.078 132.343 333.039 132.436 332.914C134.605 330.114 140.579 327.511 140.548 326.689C140.283 320.09 142.927 306.241 142.272 305.944C142.233 305.928 142.186 305.913 142.147 305.897C142.022 305.78 141.874 305.725 141.71 305.725C139.737 304.912 137.631 304.427 135.65 303.59C133.435 302.652 129.722 301.315 128.607 298.93C128.638 298.875 128.677 298.828 128.7 298.758C131.75 289.187 136.867 276.98 145.259 270.771C145.314 270.818 145.322 270.889 145.407 270.928C147.701 271.921 150.048 272.664 152.263 273.845C153.777 274.65 157.809 277.152 158.098 276.777C162.036 271.679 167.847 268.809 173.112 265.36C173.557 265.525 174.048 265.071 173.962 264.578C173.588 262.436 172.512 260.473 172.114 258.299C171.833 256.798 171.825 255.297 171.778 253.795C171.739 252.466 172.558 251.254 173.822 250.855C185.553 247.156 196.371 246.343 208.164 250.769C208.094 250.19 208.016 249.612 207.961 249.025C207.915 248.517 208.656 248.368 208.89 248.775C209.264 249.424 209.568 250.112 209.826 250.816C210.372 250.331 210.52 249.299 209.724 248.955C198.064 243.888 181.793 242.934 170.842 250.542C170.671 250.659 170.608 250.847 170.601 251.035C169.711 253.357 169.704 256.79 170.421 259.863C170.998 262.342 170.031 264.899 167.894 266.275C166.389 267.245 164.946 268.308 163.557 269.372C162.614 270.099 161.631 270.85 160.703 271.663C158.753 273.383 155.945 273.735 153.644 272.523C153.488 272.445 153.332 272.359 153.184 272.281C150.976 271.108 148.465 269.95 145.992 269.544C145.836 269.52 145.704 269.575 145.563 269.63C145.446 269.536 145.306 269.473 145.111 269.536C140.774 270.857 137.491 276.722 135.182 280.319C131.61 285.887 127.008 291.665 127 298.281C126.992 302.152 129.863 302.754 131.672 303.794C133.567 304.888 135.736 306.007 137.966 306.734C139.417 307.211 140.244 308.728 139.893 310.214C138.856 314.577 138.559 319.206 138.707 323.679C138.739 324.703 138.286 325.696 137.428 326.252C136.859 326.627 136.321 327.065 135.806 327.503C134.23 328.832 132.709 330.247 131.181 331.639C130.783 331.999 130.853 332.46 131.118 332.781C130.791 337.191 134.067 342.055 136.336 345.535C140.135 351.352 145.29 356.529 150.15 361.448C150.329 361.627 150.516 361.698 150.711 361.721C150.797 361.893 150.93 362.058 151.125 362.081C153.402 362.402 155.688 360.978 157.489 359.696C158.074 359.282 158.831 358.758 159.525 358.156C160.609 357.217 162.216 357.256 163.316 358.179C164.993 359.594 166.927 360.713 168.877 361.745C171.201 362.972 173.775 364.763 176.411 365.772C177.644 366.241 178.385 367.508 178.252 368.829C178.205 369.33 178.174 369.822 178.143 370.292C178.057 371.879 177.784 374.061 178.783 375.374C178.798 375.39 178.814 375.398 178.829 375.413C178.79 375.531 178.79 375.664 178.915 375.789C183.057 379.91 190.763 378.424 196.075 378.408C201.651 378.393 208.071 378.956 212.361 374.788C212.665 374.498 212.719 374.162 212.626 373.873C213.218 372.77 212.329 371.402 211.971 370.299C211.791 369.752 211.612 369.205 211.44 368.657C210.964 367.179 211.705 365.584 213.14 364.99C215.987 363.809 218.733 362.519 221.237 360.572C224.427 358.093 227.102 355.098 229.364 351.783C230.214 350.531 231.86 350.117 233.186 350.829C236.555 352.643 240.705 354.144 244.067 353.87C244.269 353.972 244.495 354.003 244.753 353.839C244.784 353.816 244.815 353.792 244.846 353.769C245.018 353.714 245.158 353.612 245.252 353.472C254.456 346.974 256.772 331.225 257.599 320.973C257.669 320.082 253.816 318.471 252.654 317.939C252.069 317.673 251.429 317.392 250.782 317.165C249.3 316.649 248.536 315.03 248.98 313.513C249.721 310.956 250.228 308.313 250.595 305.702C250.883 303.598 251.406 301.072 250.54 299.118C250.774 298.82 250.876 298.429 250.852 298.054C250.275 298.218 249.698 298.343 249.129 298.383C248.731 298.437 248.575 297.984 248.801 297.757Z" fill="#030510" stroke="#030510" stroke-width="0.175387" stroke-miterlimit="10"/>
<path d="M233.342 257.97C233.108 257.806 232.881 257.845 232.679 257.947C232.499 257.681 232.218 257.493 231.821 257.626C229.504 258.416 227.5 260.042 225.994 261.966C225.347 262.787 224.551 263.874 224.114 265C221.369 261.505 215.238 260.449 210.964 259.605C211.019 256.704 211.253 252.59 210.231 249.83C209.974 250.057 209.194 251.183 208.811 251.034C208.577 250.94 208.351 250.87 208.117 250.784C208.476 253.646 207.868 261.075 208.983 261.403C214.443 262.998 219.661 263.647 223.958 267.659C223.982 267.682 224.871 268.566 227.593 263.381C228.623 261.427 230.604 260.394 232.452 259.221C241.578 268.3 254.736 278.505 257.201 291.868C255.883 292.846 254.596 293.862 253.2 294.746C252.116 295.434 250.953 296.044 249.916 296.81C250.47 297.021 250.766 297.545 250.79 298.093C253.605 297.311 259.705 292.916 259.627 292.259C258.847 285.464 254.752 280.233 250.579 275.017C245.564 268.746 239.917 262.615 233.342 257.97Z" fill="#030510" stroke="#030510" stroke-width="0.175387" stroke-miterlimit="10"/>
<path d="M207.925 249.043C207.979 249.629 208.057 250.208 208.128 250.787C208.362 250.873 208.588 250.951 208.822 251.037C209.196 251.186 209.531 251.06 209.789 250.834C209.531 250.13 209.227 249.442 208.853 248.793C208.619 248.386 207.87 248.535 207.925 249.043Z" fill="#030510" stroke="#030510" stroke-width="0.175387" stroke-miterlimit="10"/>
<path d="M249.921 296.809C249.523 297.098 249.149 297.411 248.798 297.763C248.58 297.989 248.728 298.443 249.071 298.419C249.64 298.38 250.218 298.255 250.795 298.091C250.771 297.536 250.483 297.012 249.921 296.809Z" fill="#030510" stroke="#030510" stroke-width="0.175387" stroke-miterlimit="10"/>
<path d="M241.232 415.113C240.288 415.113 239.461 414.903 238.733 414.482C234.562 412.068 236.103 404.066 236.294 403.158C236.425 402.514 237.074 402.113 237.697 402.238C238.34 402.369 238.746 403 238.615 403.645C238.228 405.499 237.638 411.102 239.921 412.417C241.304 413.206 245.128 413.199 255.235 404.099C255.721 403.658 256.468 403.697 256.908 404.191C257.347 404.677 257.308 405.433 256.816 405.867C249.949 412.055 244.807 415.113 241.232 415.113Z" fill="#030510"/>
<path d="M225.6 430.736C225.488 430.736 225.37 430.723 225.259 430.684C220.976 429.395 216.385 421.524 215.873 420.629C215.552 420.064 215.748 419.334 216.313 419.012C216.87 418.689 217.605 418.88 217.926 419.452C219.185 421.655 223.068 427.547 225.934 428.415C226.564 428.606 226.918 429.263 226.728 429.895C226.584 430.407 226.111 430.736 225.6 430.736Z" fill="#030510"/>
<path d="M219.272 435.893C219.16 435.893 219.042 435.88 218.931 435.841C214.648 434.552 210.057 426.681 209.545 425.786C209.224 425.221 209.42 424.491 209.984 424.169C210.542 423.84 211.276 424.037 211.598 424.609C212.857 426.812 216.74 432.704 219.606 433.572C220.236 433.763 220.59 434.42 220.4 435.052C220.255 435.558 219.783 435.893 219.272 435.893Z" fill="#030510"/>
<path d="M151.764 424.006C150.859 424.006 150.078 424.006 147.835 415.043C140.273 413.583 139.63 412.715 139.381 412.38C139.158 412.084 139.066 411.545 139.164 411.19C139.302 410.703 139.623 409.565 148.274 406.067C151.39 397.939 152.452 397.939 153.167 397.939C153.541 397.939 154.053 398.203 154.276 398.505C154.833 399.261 155.338 401.208 156.106 404.331C156.342 405.291 156.624 406.455 156.794 406.975C157.253 407.178 158.244 407.534 159.064 407.829C163.53 409.434 164.678 409.98 164.888 411.065C164.967 411.472 164.763 412.071 164.448 412.347C163.543 413.162 159.26 414.76 156.998 415.569C153.331 423.933 152.531 423.973 151.829 424.006C151.81 424.006 151.783 424.006 151.764 424.006ZM142.417 411.361C143.939 411.795 146.648 412.406 149.016 412.853C149.475 412.939 149.835 413.281 149.947 413.734C150.55 416.2 151.344 419.002 151.921 420.639C152.761 419.113 154.007 416.477 155.023 414.149C155.155 413.846 155.404 413.61 155.719 413.504C157.739 412.794 160.021 411.92 161.471 411.288C160.467 410.867 159.129 410.387 158.264 410.078C155.712 409.164 155.233 408.96 154.899 408.513C154.61 408.125 154.433 407.481 153.804 404.91C153.574 403.963 153.22 402.523 152.898 401.418C152.151 402.871 151.114 405.278 150.308 407.409C150.19 407.724 149.947 407.967 149.639 408.092C147.009 409.131 144.024 410.466 142.417 411.361Z" fill="#030510"/>
<path d="M312.799 97.1405C311.894 97.1405 311.113 97.1405 308.87 88.1778C301.308 86.718 300.659 85.85 300.409 85.5146C300.186 85.2187 300.095 84.6795 300.2 84.331C300.337 83.8378 300.659 82.7002 309.31 79.2019C312.425 71.0742 313.488 71.0742 314.203 71.0742C314.576 71.0742 315.088 71.3372 315.311 71.6397C315.869 72.3959 316.374 74.3424 317.141 77.4527C317.377 78.4193 317.666 79.5833 317.83 80.1093C318.289 80.3132 319.279 80.6683 320.099 80.9642C324.566 82.5687 325.713 83.1144 325.923 84.1994C326.002 84.6071 325.799 85.2055 325.484 85.4817C324.579 86.2971 320.289 87.895 318.026 88.7038C314.36 97.0616 313.566 97.1077 312.865 97.1405C312.845 97.1405 312.819 97.1405 312.799 97.1405ZM303.453 84.4953C304.974 84.9293 307.69 85.5475 310.051 85.988C310.51 86.0735 310.871 86.4155 310.982 86.8692C311.586 89.3351 312.379 92.1364 312.956 93.7672C313.796 92.2482 315.042 89.6113 316.059 87.2769C316.19 86.9744 316.439 86.7377 316.754 86.6325C318.774 85.9223 321.057 85.0477 322.506 84.4164C321.503 83.9956 320.165 83.5156 319.299 83.1999C316.747 82.2859 316.269 82.0886 315.934 81.6349C315.646 81.2469 315.468 80.6025 314.832 78.0182C314.603 77.0779 314.249 75.6378 313.927 74.5396C313.179 75.9929 312.143 78.3996 311.336 80.5302C311.218 80.8458 310.976 81.0891 310.667 81.214C308.037 82.2662 305.053 83.6076 303.453 84.4953Z" fill="#030510"/>
<path d="M556.283 354.02C555.378 354.02 554.598 354.02 552.355 345.057C544.792 343.598 544.143 342.73 543.894 342.394C543.671 342.098 543.579 341.559 543.684 341.204C543.822 340.711 544.143 339.573 552.794 336.075C555.91 327.947 556.972 327.947 557.687 327.947C558.061 327.947 558.572 328.21 558.795 328.513C559.353 329.262 559.858 331.215 560.625 334.326C560.861 335.292 561.15 336.456 561.314 336.976C561.773 337.18 562.764 337.535 563.59 337.831C568.05 339.435 569.204 339.981 569.414 341.059C569.493 341.467 569.29 342.065 568.975 342.348C568.07 343.164 563.774 344.761 561.517 345.57C557.851 353.935 557.057 353.974 556.356 354.014C556.329 354.02 556.303 354.02 556.283 354.02ZM546.937 341.375C548.459 341.809 551.168 342.421 553.535 342.868C553.994 342.953 554.355 343.295 554.467 343.749C555.07 346.215 555.864 349.016 556.441 350.647C557.28 349.121 558.527 346.484 559.543 344.157C559.674 343.854 559.924 343.617 560.238 343.512C562.258 342.802 564.541 341.927 565.99 341.296C564.987 340.875 563.649 340.395 562.783 340.08C560.232 339.166 559.753 338.968 559.419 338.515C559.13 338.127 558.953 337.482 558.317 334.898C558.087 333.958 557.733 332.517 557.412 331.419C556.664 332.866 555.628 335.279 554.821 337.41C554.703 337.725 554.46 337.969 554.152 338.094C551.522 339.146 548.537 340.481 546.937 341.375Z" fill="#030510"/>
<path d="M153.885 235.684H153.853C151.682 235.677 149.648 234.816 148.12 233.277C146.592 231.732 145.759 229.687 145.766 227.51C145.785 223.039 149.425 219.402 153.885 219.402C156.089 219.409 158.122 220.27 159.651 221.809C161.179 223.354 162.012 225.399 162.005 227.576C161.986 232.048 158.345 235.684 153.885 235.684ZM153.912 221.776C150.731 221.776 148.153 224.347 148.14 227.517C148.133 229.056 148.724 230.509 149.806 231.6C150.888 232.692 152.324 233.297 153.859 233.304L153.885 234.494V233.304C157.04 233.304 159.618 230.732 159.638 227.563C159.644 226.024 159.054 224.571 157.972 223.479C156.889 222.388 155.446 221.783 153.912 221.776Z" fill="#030510"/>
<path d="M355.425 76.4203H355.392C353.221 76.4137 351.188 75.5523 349.659 74.0135C348.131 72.4682 347.298 70.4232 347.305 68.2466C347.324 63.7751 350.965 60.1387 355.425 60.1387C357.628 60.1452 359.662 61.0067 361.19 62.5454C362.718 64.0907 363.551 66.1358 363.544 68.3123C363.531 72.7839 359.885 76.4203 355.425 76.4203ZM355.451 62.5125C352.27 62.5125 349.692 65.0836 349.679 68.2532C349.672 69.7919 350.263 71.2451 351.345 72.3367C352.427 73.4283 353.864 74.0333 355.398 74.0398L355.425 75.23V74.0398C358.579 74.0398 361.157 71.4687 361.177 68.2992C361.183 66.7605 360.593 65.3072 359.511 64.2156C358.428 63.1306 356.986 62.5257 355.451 62.5125Z" fill="#030510"/>
<path d="M537.987 214.284H537.954C535.783 214.277 533.75 213.416 532.222 211.877C530.694 210.332 529.861 208.286 529.867 206.11C529.887 201.638 533.527 198.002 537.987 198.002C540.191 198.009 542.224 198.87 543.752 200.409C545.28 201.954 546.113 203.999 546.107 206.176C546.087 210.647 542.447 214.284 537.987 214.284ZM538.013 200.382C534.832 200.382 532.255 202.954 532.242 206.123C532.235 207.662 532.825 209.115 533.907 210.207C534.99 211.298 536.426 211.903 537.961 211.91L537.987 213.1V211.91C541.142 211.91 543.719 209.339 543.739 206.169C543.746 204.63 543.155 203.177 542.073 202.086C540.991 200.994 539.548 200.389 538.013 200.382Z" fill="#030510"/>
<path d="M408.811 161.641C408.811 161.641 427.799 101.369 423.05 99.7844C418.302 98.1997 404.062 93.439 404.062 93.439C404.062 93.439 440.451 50.6124 446.78 56.9578C453.109 63.3032 476.839 106.13 468.929 107.715C461.019 109.299 448.361 107.715 448.361 107.715C448.361 107.715 443.612 166.401 438.87 167.986C434.122 169.571 408.811 161.641 408.811 161.641Z" fill="white"/>
<path d="M437.183 169.486C429.686 169.486 410.777 163.633 408.416 162.897L407.163 162.502L407.557 161.246C416.044 134.293 423.823 104.664 422.386 100.948L401.805 94.0704L403.064 92.5844C406.297 88.7771 434.933 55.3996 444.857 55.005C446.306 54.9393 447.205 55.5311 447.703 56.0242C450.701 59.0293 457.312 69.7014 462.749 80.3144C467.576 89.7306 473.027 101.948 471.59 106.696C471.21 107.951 470.357 108.767 469.183 109.004C462.605 110.325 453.075 109.536 449.553 109.168C449.218 113.14 448.149 125.271 446.693 137.41C443.033 167.98 440.594 168.795 439.282 169.229C438.764 169.407 438.049 169.486 437.183 169.486ZM410.449 160.773C420.104 163.738 435.15 167.684 438.364 166.763C441 164.363 444.837 134.885 447.047 107.61L447.159 106.242L448.517 106.413C448.641 106.426 461.057 107.951 468.665 106.426C468.79 106.4 468.947 106.367 469.078 105.933C469.767 103.651 467.852 96.0365 460.414 81.5177C455.174 71.2861 448.635 60.6863 445.847 57.8851C445.729 57.7668 445.5 57.609 444.962 57.6287C437.865 57.9114 415.788 81.8465 406.33 92.8079L423.462 98.5352C425.738 99.298 425.423 103.447 424.111 110.365C423.121 115.592 421.389 122.76 418.969 131.656C415.545 144.235 411.676 156.828 410.449 160.773Z" fill="#030510"/>
<path fill-rule="evenodd" clip-rule="evenodd" d="M192.649 308.459C192.649 308.459 187.579 293.079 202.172 288.331C216.766 283.584 417.079 286.22 417.079 286.22C417.079 286.22 490.996 284.754 495.463 292.658C499.936 300.562 497.549 496.053 497.549 496.053C497.549 496.053 482.135 504.983 445.137 504.47C408.139 503.957 208.744 500.15 198.611 495.468C188.478 490.786 192.649 308.459 192.649 308.459Z" fill="white"/>
<path d="M450.899 485.481C449.954 485.475 448.977 485.475 448.111 485.435L425.988 484.692C424.106 484.646 422.256 484.587 420.407 484.528C416.261 484.396 411.979 484.258 407.761 484.258C406.646 484.258 405.538 484.265 404.436 484.291L383.572 484.357L373.275 484.377C372.153 484.383 371.038 484.383 369.937 484.383C367.51 484.383 365.313 484.37 363.214 484.337L343.583 484.147L315.446 483.555L306.611 483.482C305.096 483.502 303.634 483.522 302.184 483.542L301.679 483.548C298.072 483.601 294.346 483.653 290.667 483.653H288.706C288.017 483.653 286.253 483.66 286.253 483.66C285.452 483.66 284.652 483.667 283.859 483.667C282.868 483.667 281.885 483.66 280.901 483.647L270.033 483.312L263.697 483.121L260.09 483.022L257.013 482.943C256.561 482.91 244.63 482.68 240.931 482.319C239.344 482.181 237.606 481.944 235.756 481.687C235.756 481.687 231.919 481.148 231.224 481.043L238.019 480.806L258.043 480.28L261.152 480.359L270.741 480.635C276.159 480.865 282.048 480.971 288.719 480.971C292.792 480.971 297.193 480.931 302.171 480.846L306.355 480.787L312.363 480.839C314.652 480.859 317.027 480.879 319.296 480.938L337.116 481.326C341.353 481.444 345.59 481.477 350.076 481.516H350.24C352.077 481.53 353.92 481.549 355.776 481.569L359.056 481.602C362.866 481.641 367.195 481.687 371.425 481.687C372.665 481.687 373.911 481.681 375.157 481.674L396.29 481.622L410.936 481.569C411.933 481.569 412.995 481.602 413.933 481.635C414.563 481.654 415.192 481.674 415.829 481.687L437.079 482.351L449.206 482.772C449.239 482.772 450.82 482.785 450.971 482.785C451.43 482.785 451.882 482.766 452.328 482.753H452.407C452.643 482.746 452.879 482.733 453.122 482.733C455.234 482.595 456.939 482.358 458.382 482.003C460.166 481.562 461.727 480.879 462.901 480.011C464.141 479.116 465.053 477.926 465.767 476.276C466.869 473.593 467.092 470.114 467.099 465.709C467.099 464.959 467.099 464.196 467.092 463.427C467.079 460.468 467.073 457.424 467.269 454.346L467.781 442.99C467.84 441.629 467.899 440.281 467.965 438.92L467.971 438.762C468.083 436.401 468.194 433.962 468.279 431.549L468.457 419.969C468.47 418.693 468.489 417.418 468.516 416.149L468.522 415.767C468.561 413.328 468.607 410.809 468.601 408.304L468.555 396.58C468.548 389.84 468.47 382.929 468.391 376.242L468.352 372.888C468.234 367.128 468.293 361.171 468.345 355.404C468.365 353.214 468.384 351.038 468.398 348.861L468.542 336.657L468.634 329.568C468.66 327.977 468.68 326.333 468.614 324.801C468.529 322.454 468.286 320.612 467.873 319.179C467.519 318.114 467.204 317.364 466.705 316.72C466.351 316.266 465.833 315.681 464.974 315.174L464.869 315.115C464.161 314.754 463.406 314.405 462.403 314.182C461.668 313.978 460.75 313.826 459.569 313.715C458.946 313.656 458.343 313.59 457.733 313.517C456.415 313.366 455.057 313.208 453.607 313.169L453.063 313.136C451.292 313.037 449.482 312.939 447.619 312.912L368.166 310.749L355.986 310.493L331.712 309.993L307.431 309.592C306.008 309.566 304.585 309.539 303.155 309.519H303.083C300.557 309.48 297.947 309.441 295.396 309.368L283.413 308.928C276.933 308.652 270.439 308.507 264.163 308.369L252.383 308.106C250.829 308.073 249.235 308.04 247.792 307.948L246.388 307.869C243.607 307.705 240.984 307.553 238.38 307.553C237.639 307.553 236.904 307.567 236.17 307.593C234.195 307.659 232.326 307.882 230.621 308.244C229.644 308.435 228.771 308.724 228.05 308.974L227.905 309.033C227.761 309.099 227.669 309.132 227.578 309.171C227.296 309.283 227.02 309.395 226.731 309.539L225.616 310.151L225.584 310.17C224.902 310.604 224.226 311.025 223.642 311.722C223.137 312.262 222.717 312.912 222.324 313.748C221.694 315.128 221.301 316.871 221.143 318.936C221.012 320.514 220.999 322.184 220.979 323.953L220.973 324.551L220.96 330.805L220.947 341.7C220.94 342.364 220.947 343.042 220.947 343.719C220.947 344.922 220.947 346.119 220.927 347.322L220.573 364.156L219.976 386.138L219.477 407.587C219.405 410.757 219.372 413.92 219.333 416.977C219.294 420.758 219.248 424.664 219.136 428.524L218.723 441.438L218.599 443.845C218.526 445.443 218.487 447.074 218.48 448.836C218.467 452.281 218.559 455.589 218.762 458.66C218.815 459.738 218.92 460.83 219.025 461.875C219.077 462.401 219.123 462.901 219.169 463.394L219.182 463.532C219.261 464.045 219.327 464.519 219.386 464.985C219.53 466.07 219.674 467.175 219.943 468.227L220.173 469.338C220.219 469.562 220.271 469.792 220.33 469.963L220.448 470.331L220.546 470.667L220.855 471.423C222.278 474.592 224.639 476.453 225.925 477.288C226.633 477.735 227.322 478.104 227.978 478.393C228.056 478.551 228.142 478.722 228.214 478.912C228.319 479.156 228.384 479.353 228.437 479.55L228.588 480.103L228.424 480.412C228.312 480.556 228.017 480.833 227.335 481.069C226.39 480.694 225.4 480.175 224.39 479.531C223.288 478.82 222.232 477.926 221.255 476.881C219.996 475.52 219.018 474.033 218.356 472.468L218.002 471.594L217.857 471.134L217.641 470.443C217.615 470.312 216.978 467.307 216.978 467.307C216.952 467.142 216.919 466.899 216.887 466.656L216.821 466.176C215.968 460.198 215.647 453.787 215.818 446.002C215.824 444.996 215.883 443.963 215.936 442.964C215.975 442.234 216.014 441.517 216.041 440.807L216.526 425.466C216.565 423.093 216.592 420.752 216.618 418.404V418.292C216.67 413.689 216.723 408.949 216.854 404.221L217.962 360.125L218.198 348.815C218.264 346.349 218.257 343.844 218.251 341.418C218.251 340.07 218.244 338.715 218.257 337.367L218.271 325.833C218.277 325.34 218.277 324.821 218.284 324.295C218.29 322.901 218.303 321.474 218.376 319.948C218.467 318.153 218.658 316.023 219.392 313.84C220.028 311.788 221.458 309.769 223.144 308.533L223.491 308.31C223.859 308.066 224.226 307.83 224.515 307.678C224.685 307.586 224.862 307.494 225.033 307.396C225.374 307.211 225.669 307.047 225.938 306.929L226.226 306.81C226.653 306.633 227.046 306.468 227.433 306.324L229.02 305.844C231.755 305.16 234.615 304.857 238.288 304.857C239.128 304.857 240.02 304.871 241.102 304.903C242.925 304.963 244.729 305.068 246.48 305.173L247.064 305.206L249.976 305.351L264.95 305.686C266.36 305.725 267.79 305.752 269.219 305.785C271.771 305.837 274.407 305.89 277.005 305.988L289.093 306.436C294.917 306.705 300.859 306.797 306.611 306.883C308.9 306.916 311.183 306.948 313.465 306.994L338.002 307.415L362.774 307.941L412.307 309.256L449.521 310.269C451.148 310.335 452.866 310.427 454.526 310.519L455.726 310.585C456.165 310.631 460.711 311.124 460.809 311.137C460.947 311.15 461.052 311.163 461.163 311.183L462.055 311.341C463.157 311.538 464.246 311.867 465.295 312.314C466.371 312.781 467.42 313.504 468.234 314.346C468.981 315.109 469.598 316.108 470.116 317.397C470.523 318.429 470.746 319.449 470.955 320.658C471.29 322.802 471.342 324.788 471.362 326.978L471.283 333.106L471.119 345.442L471.021 357.6C470.923 363.386 470.995 369.285 471.073 374.992C471.1 377.307 471.133 379.602 471.152 381.897C471.231 387.118 471.244 392.385 471.257 397.474V397.954C471.264 400.637 471.27 403.32 471.29 405.99C471.329 409.034 471.277 412.105 471.231 415.077C471.218 416.017 471.008 429.773 471.008 429.773C471.001 431.621 470.929 433.436 470.818 435.593L470.018 453.215L469.88 456.03C469.84 456.996 469.814 457.943 469.801 458.896C469.781 460.337 469.788 461.796 469.795 463.289L469.801 464.643C469.801 466.524 469.801 468.471 469.663 470.469C469.526 472.317 469.296 474.323 468.594 476.427C468.24 477.466 467.781 478.426 467.23 479.287C466.548 480.3 465.866 481.082 465.164 481.654C463.695 482.924 461.931 483.811 459.589 484.475C457.785 484.969 455.89 485.271 453.798 485.389C452.82 485.449 451.85 485.481 450.912 485.488H450.899V485.481Z" fill="#030510"/>
<path d="M436.711 508.923C436.665 508.884 436.619 508.844 436.573 508.805L435.747 508.068L434.645 508.141C432.769 508.272 430.939 508.358 429.332 508.437C428.486 508.476 427.738 508.509 427.063 508.548L423.692 508.706L324.201 507.496L275.692 506.135L250.054 505.366L236.903 504.945C234.017 504.86 230.994 504.721 228.331 504.603C226.77 504.531 225.202 504.465 223.628 504.399L206.765 503.663L204.942 503.512L204.103 503.439L203.217 503.288C203.04 503.249 202.791 503.209 202.535 503.17C202.148 503.104 201.82 503.051 201.518 502.959L201.413 502.933C200.79 502.749 200.22 502.584 199.643 502.4C199.052 502.144 198.468 501.874 197.891 501.598C197.432 501.309 196.855 500.934 196.298 500.526L195.989 500.237C195.55 499.829 195.169 499.481 194.914 499.145C194.855 499.053 194.71 498.869 194.573 498.679C194.291 498.297 193.995 497.909 193.877 497.646L193.825 497.534C193.471 496.857 193.182 496.285 193.044 495.825L192.664 494.707C192.631 494.589 192.598 494.437 192.566 494.286L192.467 493.878C191.877 491.281 191.772 488.743 191.693 486.711C191.647 485.087 191.621 483.496 191.601 481.911C191.588 481.188 191.582 480.464 191.569 479.741L191.011 415.189L191.628 348.177C191.647 346.533 191.628 344.922 191.601 343.364V343.278C191.588 342.424 191.575 341.562 191.569 340.701C191.575 338.557 191.477 336.335 191.378 334.178L191.169 329.318L191.037 325.485C191.018 324.801 190.991 324.097 190.965 323.387C190.9 321.579 190.827 319.725 190.893 317.877L190.952 313.866C190.959 313.517 190.965 313.136 190.972 312.748V312.656C190.985 311.781 190.991 310.881 191.044 310.216C191.096 308.882 191.09 307.632 191.077 306.304C191.064 305.041 191.057 303.766 191.096 302.457C191.162 300.083 191.372 297.282 192.434 294.422C193.018 293.008 193.759 291.765 194.632 290.766C194.782 290.582 194.933 290.437 195.117 290.266C195.235 290.154 195.346 290.049 195.458 289.937C195.576 289.826 195.924 289.49 196.088 289.372C196.665 288.912 197.235 288.471 197.826 288.096C200.023 286.617 202.725 285.545 205.48 285.058C207.775 284.637 210.064 284.605 212.399 284.605H213.409L221.155 284.44L237.972 284.065C242.609 283.96 247.404 283.848 252.192 283.842C253.982 283.835 255.766 283.822 257.557 283.809H257.754C260.082 283.789 262.41 283.77 264.732 283.77C265.782 283.77 266.831 283.776 267.874 283.783L283.51 284.151C286.888 284.223 290.292 284.335 293.584 284.44L293.886 284.447C295.631 284.499 297.375 284.559 299.127 284.611L306.932 284.848L346.075 285.459C350.784 285.545 355.585 285.683 360.229 285.821C365.869 285.985 371.647 286.15 377.314 286.229L392.832 286.485L408.344 286.242L423.908 285.953C424.82 285.939 425.751 285.92 426.682 285.9C428.034 285.867 429.404 285.834 430.736 285.834C431.037 285.834 431.339 285.834 431.641 285.841L439.42 285.946C440.325 285.966 441.243 285.972 442.168 285.985C443.801 286.005 445.487 286.018 447.12 286.084L454.846 286.347L470.154 286.913C470.882 286.939 472.489 287.005 472.489 287.005C474.221 287.077 476.018 287.149 477.848 287.182C480.084 287.255 482.773 287.399 485.587 287.892C488.644 288.432 491.064 289.247 493.202 290.45C495.635 291.798 497.741 293.902 498.993 296.237C499.649 297.453 500.174 298.749 500.495 299.998L500.528 300.11C500.692 300.623 500.784 301.076 500.889 301.602L501.361 303.97L501.538 304.864L501.63 305.758L501.827 307.77C501.964 308.901 501.991 309.96 502.017 311.071L502.03 311.578C502.148 316.582 501.82 321.487 501.505 326.234L501.394 328.062C501.269 330.075 501.145 332.133 501.092 334.125C501.027 335.427 501.027 336.808 501.027 337.86L500.994 356.272C501.027 359.474 501.112 362.67 501.197 365.767V365.852C501.243 367.555 501.289 369.258 501.328 370.955L501.348 371.606C501.466 376.13 501.597 380.812 501.63 385.493L501.722 392.805C501.742 394.338 501.715 395.903 501.696 397.415C501.682 398.276 501.669 399.138 501.663 399.999L501.578 407.193C501.551 408.718 501.512 410.244 501.466 411.763C501.466 411.763 501.414 413.584 501.394 414.308C501.269 418.871 501.132 423.743 500.948 428.438L500.692 435.461C500.64 436.987 500.613 438.492 500.587 439.998C500.574 440.814 500.554 441.616 500.541 442.425C500.377 448.001 500.351 453.643 500.325 459.087V459.252C500.305 462.737 500.292 466.347 500.233 469.864L500.128 476.664C500.115 477.269 500.108 477.887 500.102 478.505V478.689C500.082 480.228 500.062 481.786 499.964 483.292L499.262 496.824C499.092 498.554 498.679 501.197 497.072 503.571C496.383 504.59 495.445 505.524 494.428 506.214C493.477 506.865 492.369 507.385 491.129 507.773C488.748 508.502 486.473 508.673 484.374 508.746C483.606 508.772 482.846 508.779 482.098 508.779C481.022 508.779 479.973 508.759 478.937 508.739L477.887 508.719L474.772 508.693L471.61 508.746L465.248 508.871C463.917 508.897 462.592 508.923 461.26 508.95L460.815 508.956C458.152 509.009 455.41 509.068 452.754 509.088L436.711 508.923ZM424.702 506.043C425.331 506.096 428.132 506.332 431.68 506.688C432.677 506.78 433.713 506.878 434.783 506.977L435.95 507.089C435.95 507.089 436.868 506.24 436.894 506.214L450.268 506.365C451.271 506.379 452.275 506.392 453.278 506.392C454.295 506.392 455.187 506.379 456.007 506.352L468.534 506.109L475.014 505.991H475.323C476.477 505.991 477.612 506.01 478.727 506.03L478.976 506.037C479.815 506.05 480.642 506.069 481.455 506.069H482.163C484.446 506.069 486.21 505.971 487.738 505.747C490.021 505.432 491.923 504.735 493.222 503.722C494.625 502.67 495.583 501.111 496.134 498.961C496.363 498.106 496.494 497.212 496.593 495.891L497.098 485.922C497.131 485.264 497.163 484.627 497.196 483.982C497.281 482.391 497.367 480.76 497.367 479.097L497.564 465.551L497.629 451.67L497.905 437.585L498.397 423.454L498.803 409.152L498.993 394.699L498.829 380.141L498.259 357.83L498.272 350.4L498.311 335.309C498.377 332.153 498.587 328.976 498.783 325.906C498.902 324.124 499.033 322.118 499.125 320.205C499.4 314.55 499.459 309.842 498.842 305.285L498.823 305.173L498.114 301.616C497.787 300.32 497.465 299.255 496.973 298.249C495.944 296.072 494.474 294.396 492.494 293.146C489.372 291.167 484.872 290.128 478.346 289.885C475.821 289.812 473.171 289.72 470.666 289.615L462.881 289.313L447.356 288.774C443.998 288.681 440.607 288.642 437.334 288.603C435.471 288.583 433.635 288.557 431.792 288.53L400.342 289.056L392.4 289.181L384.562 289.043L368.703 288.747C354.588 288.267 340.277 288.05 326.438 287.846C319.505 287.741 312.356 287.636 305.279 287.491L289.433 286.998C286.016 286.886 282.566 286.814 279.227 286.735C277.351 286.696 275.482 286.65 273.606 286.604C272.668 286.584 271.744 286.564 270.819 286.538C269.14 286.498 267.402 286.452 265.67 286.439L249.929 286.544L246 286.571L214.387 287.268L210.504 287.294C207.552 287.34 205.224 287.695 203.158 288.412C201.951 288.839 200.882 289.339 199.879 289.944L199.459 290.214C199.085 290.457 198.691 290.707 198.285 291.036L197.596 291.568L197.058 292.094C196.206 292.949 195.583 293.863 195.143 294.902C194.933 295.316 194.802 295.724 194.697 296.053C194.651 296.184 194.618 296.296 194.579 296.401L194.514 296.585L194.474 296.776C194.448 296.914 194.409 297.052 194.376 297.19C194.291 297.545 194.179 297.986 194.113 298.492C193.74 300.61 193.72 303.016 193.746 305.929L193.753 306.514C193.759 307.606 193.772 308.724 193.733 309.888C193.726 310.157 193.713 310.42 193.694 310.683C193.667 311.144 193.635 311.624 193.648 312.071L193.576 317.621C193.576 317.943 193.569 318.252 193.562 318.561V318.646C193.543 319.58 193.53 320.547 193.589 321.579L193.851 329.18L194.186 336.979C194.317 343.16 194.343 348.085 194.271 352.438L193.681 413.137L193.805 428.07L194.245 479.129L194.264 480.484C194.291 482.463 194.317 484.436 194.369 486.297C194.441 488.598 194.573 491.018 195.051 493.116L195.235 493.938L195.537 494.799C195.602 494.996 195.688 495.272 195.838 495.575L196.042 495.963C196.265 496.482 196.547 496.837 196.704 497.035L196.737 497.074L196.77 497.133L196.809 497.186C197.111 497.607 197.399 497.87 197.57 498.028L197.629 498.08L197.773 498.258L198.003 498.442C199.367 499.547 201.427 500.336 203.801 500.664C204.319 500.77 204.811 500.809 205.25 500.842L205.526 500.862C205.729 500.875 205.893 500.888 206.064 500.908C206.444 500.941 206.779 500.973 207.172 500.987L210.668 501.138C213.954 501.276 217.22 501.421 220.473 501.565C226.291 501.822 232.305 502.091 238.202 502.295L264.903 503.143L363.357 505.905L385.552 505.892L406.56 505.872C407.511 505.872 408.449 505.866 409.387 505.866C412.142 505.866 414.431 505.885 416.588 505.925L424.702 506.043Z" fill="#030510"/>
<path d="M493.065 543.957L487.746 543.898C485.076 543.891 482.407 543.799 479.823 543.714C478.931 543.687 478.058 543.654 477.186 543.628L466.705 543.332C466.174 543.326 465.695 543.326 465.21 543.326C463.904 543.326 462.612 543.345 461.32 543.359C460.041 543.378 458.749 543.391 457.437 543.391C457.064 543.391 456.683 543.391 456.296 543.385L424.46 543.273L340.153 542.464L298.006 541.971C294.07 541.932 290.142 541.879 286.213 541.833H286.056C276.362 541.715 266.34 541.59 256.482 541.59H255.839C242.774 541.557 227.971 541.517 213.627 540.801C212.794 540.755 211.941 540.709 211.088 540.669L211.023 540.663C208.419 540.525 205.73 540.386 203.106 540.156C202.293 540.091 201.493 540.031 200.693 539.972L200.325 539.946C197.774 539.755 195.137 539.551 192.573 539.255C192.56 539.255 185.614 538.532 185.456 538.512C185.201 538.486 184.971 538.466 184.669 538.42C183.712 538.295 182.774 538.105 181.862 537.855C179.993 537.355 178.248 536.592 176.674 535.58C174.989 534.508 173.552 533.14 172.516 531.621C172.201 531.174 171.965 530.799 171.762 530.405L171.716 530.319C171.506 529.964 171.335 529.563 171.145 529.136L171.086 529.004C170.962 528.728 170.889 528.518 170.791 528.215C170.725 528.011 170.66 527.821 170.594 527.617L170.568 527.531L170.43 526.985L170.174 525.973C170.07 525.611 170.037 525.328 169.991 524.94C169.958 524.691 169.932 524.441 169.892 524.191L169.794 523.382L169.748 522.527C169.742 522.356 169.728 522.139 169.715 521.922C169.689 521.501 169.669 521.153 169.676 520.831C169.65 518.779 169.748 516.714 169.997 514.341C170.358 513.966 170.784 513.696 171.021 513.67L171.414 513.617L171.631 513.519L172.667 514.946C172.457 517.037 172.365 518.976 172.391 520.712C172.385 521.021 172.404 521.383 172.431 521.784C172.444 521.942 172.45 522.1 172.457 522.264L172.503 523.158L172.608 523.954C172.634 524.132 172.647 524.237 172.66 524.342C172.7 524.737 172.752 525.19 172.903 525.67L173.034 526.19L173.126 526.565L173.139 526.604C173.165 526.716 173.205 526.821 173.231 526.907C173.277 527.031 173.296 527.104 173.323 527.17C173.408 527.439 173.506 527.768 173.67 528.11L173.729 528.248C173.828 528.472 173.952 528.761 174.136 529.076C174.313 529.418 174.523 529.754 174.772 530.096C176.366 532.463 179.153 534.304 182.59 535.231C183.39 535.448 184.197 535.613 184.978 535.711C185.181 535.744 185.529 535.784 185.876 535.816C186.047 535.836 192.796 536.54 192.796 536.54C195.387 536.842 198.023 537.039 200.568 537.237C201.467 537.302 202.359 537.375 203.257 537.447C205.913 537.684 208.622 537.822 211.246 537.96C212.085 538.006 212.918 538.046 213.751 538.092C228.063 538.808 242.833 538.848 255.859 538.881H256.456C266.32 538.881 276.355 539.006 286.062 539.131L287.026 539.144C290.699 539.19 294.372 539.236 298.045 539.275L340.225 539.768L424.578 540.584C425.903 540.59 456.782 540.709 457.155 540.709C458.434 540.709 459.74 540.689 461.045 540.676H461.196C462.54 540.656 463.898 540.636 465.236 540.636C465.734 540.636 466.233 540.636 466.725 540.643L477.284 540.945C478.137 540.972 479.003 540.998 479.862 541.031C482.472 541.116 485.168 541.208 487.824 541.215L493.006 541.274L498.765 541.3C502.496 541.3 505.573 541.162 508.458 540.492C509.016 540.386 509.541 540.215 510.006 540.058C510.229 539.985 510.446 539.913 510.662 539.847L510.774 539.814C511.344 539.624 511.79 539.413 512.177 539.236C512.394 539.137 512.597 539.038 512.814 538.953L512.997 538.881L513.168 538.782C514.571 537.973 515.673 536.961 516.447 535.77C517.228 534.574 517.713 533.134 517.929 531.378C518.093 530.023 518.093 528.432 517.949 526.361C517.877 525.302 517.759 524.138 517.654 523.112C517.595 522.508 517.536 521.903 517.483 521.304V518.812L514.991 518.779L513.725 518.654C513.102 518.582 512.44 518.542 511.797 518.51L511.141 518.47C510.236 518.411 509.311 518.385 508.517 518.365C507.665 518.339 506.786 518.319 505.894 518.319C505.054 518.312 504.176 518.306 503.297 518.306L498.771 518.312C497.643 518.312 496.508 518.306 495.361 518.293L463.74 517.793C453.627 517.589 443.362 517.53 433.432 517.471C429.464 517.444 425.522 517.425 421.587 517.392L379.414 517.109C375.505 517.076 371.583 517.05 367.66 517.03C360.701 516.991 353.506 516.951 346.357 516.839L199.525 513.959C198.482 513.867 185.181 513.624 181.895 513.275L175.251 512.519C174.162 512.394 173.126 512.269 172.155 512.151C174.766 511.973 176.996 511.849 178.957 511.77L200.581 511.303L348.01 514.189L379.433 514.426L421.607 514.709C425.293 514.742 428.979 514.761 432.671 514.781L433.478 514.788C443.441 514.847 453.705 514.906 463.773 515.11L495.406 515.61C496.502 515.623 497.597 515.629 498.705 515.629L503.284 515.623C504.162 515.623 505.048 515.623 505.94 515.636C506.832 515.636 507.704 515.656 508.59 515.682C509.436 515.702 510.328 515.728 511.233 515.787L511.987 515.833C512.643 515.866 513.266 515.906 513.883 515.971L515.85 516.162C516.021 516.175 516.172 516.202 516.309 516.221L519.917 516.767C519.982 518.128 520.061 519.483 520.14 520.765C520.205 521.508 520.271 522.159 520.336 522.817L520.343 522.889C520.448 523.941 520.553 525.032 520.638 526.17C520.756 527.886 520.835 529.754 520.605 531.707C520.428 533.16 519.963 535.304 518.73 537.204C517.72 538.775 516.244 540.143 514.447 541.156C514.197 541.268 513.942 541.386 513.686 541.504C513.023 541.813 512.394 542.109 511.817 542.307C511.613 542.366 511.298 542.464 510.984 542.57L510.911 542.596C510.295 542.8 509.718 542.984 509.2 543.089C505.277 543.996 501.421 543.996 498.319 544.003L493.065 543.957Z" fill="#030510"/>
<path d="M362.921 532.451C361.767 532.451 360.613 532.411 359.498 532.365L358.435 532.326L346.255 532.24L337.125 532.194L333.984 532.24C331.668 532.234 329.707 532.155 327.838 532.003C325.805 531.826 323.791 531.609 321.66 530.997C321.194 530.853 320.617 530.662 320.007 530.353C319.469 530.077 318.984 529.735 318.518 529.321C318.407 529.222 318.308 529.13 318.203 529.011C318.059 528.86 317.974 528.755 317.862 528.584L317.81 528.505C317.698 528.36 317.613 528.222 317.547 528.078L317.521 528.019L317.488 527.966C317.429 527.861 317.37 527.716 317.311 527.512C317.134 526.92 317.239 526.263 317.587 525.77L317.659 525.73C317.665 525.724 317.731 525.691 317.862 525.671C317.993 525.651 318.079 525.625 318.17 525.625C318.203 525.632 318.236 525.638 318.256 525.645C318.269 525.691 318.288 525.783 318.302 525.941L318.321 526.125C318.367 526.578 318.433 527.328 319.043 527.946L319.036 527.94C319.082 527.986 319.148 528.051 319.22 528.111C319.299 528.196 319.377 528.268 319.443 528.328C319.823 528.67 320.256 528.972 320.689 529.182C321.043 529.367 321.515 529.544 322.073 529.715C324.034 530.281 326.303 530.524 328.061 530.675C329.937 530.826 331.957 530.899 334.076 530.899H334.502C334.915 530.899 335.322 530.886 335.735 530.872C336.128 530.859 336.529 530.846 336.935 530.846L346.642 530.899C348.125 530.912 349.6 530.918 351.076 530.925C353.706 530.932 356.428 530.945 359.137 531.004H359.196C360.494 531.057 361.721 531.103 362.954 531.103C363.8 531.103 364.554 531.076 365.263 531.03C366.424 530.951 367.388 530.813 368.214 530.603C369.224 530.346 369.939 530.011 370.772 529.413C370.903 529.327 371.034 529.215 371.159 529.11L371.238 529.038L371.953 528.459L371.782 527.92L371.822 527.709L371.402 527.072L371.054 526.809C370.615 526.5 370.123 526.263 369.782 526.105C368.142 525.395 366.089 524.882 363.984 524.652C363.354 524.579 362.613 524.573 361.898 524.566C361.577 524.566 361.249 524.56 360.927 524.553L334.876 524.132L331.367 523.803L328.048 523.435C327.858 523.416 327.654 523.389 327.451 523.363C327.13 523.323 326.815 523.277 326.533 523.251C326.9 523.218 327.261 523.199 327.668 523.179L329.97 523.06L335.427 522.811L362.456 523.238C362.81 523.245 363.184 523.245 363.603 523.277C364.115 523.317 364.633 523.376 365.177 523.455C366.26 523.626 367.263 523.85 368.247 524.132C369.178 524.408 370.188 524.75 371.231 525.336C371.487 525.487 371.697 525.612 371.926 525.783L372.156 525.96C372.182 525.98 372.261 526.059 372.327 526.118C372.477 526.256 372.595 526.381 372.687 526.513C373.133 527.078 373.317 527.703 373.212 528.242C373.16 528.577 373.041 528.88 372.864 529.163C372.753 529.347 372.661 529.478 372.556 529.597C372.438 529.735 372.313 529.879 372.228 529.952L372.182 529.985L372.163 530.004C371.717 530.419 371.264 530.708 370.805 530.991C369.978 531.491 368.975 531.852 367.729 532.082C366.797 532.26 365.827 532.359 364.587 532.411C364.03 532.444 363.472 532.451 362.921 532.451Z" fill="#030510"/>
<path d="M457.079 222.512C456.856 222.512 456.679 222.472 456.515 222.439C451.367 221.295 435.114 203.173 433.277 201.108L432.398 200.122L433.382 199.247C454.475 180.494 476.329 159.071 476.992 155.145L462.858 138.647L464.701 138.022C469.423 136.425 511.098 122.53 519.814 127.298C521.093 127.995 521.566 128.955 521.736 129.639C522.772 133.761 522.976 146.321 522.202 158.223C521.52 168.783 519.932 182.072 516.273 185.406C515.308 186.287 514.148 186.55 513.019 186.149C506.703 183.894 498.925 178.311 496.091 176.187C493.763 179.422 486.633 189.286 479.169 198.945C462.635 220.381 458.706 222.512 457.079 222.512ZM436.117 200.339C442.886 207.855 453.774 218.987 457.001 219.855C460.49 219.152 478.887 195.841 494.76 173.57L495.553 172.452L496.635 173.3C496.734 173.379 506.605 181.079 513.911 183.69C514.029 183.736 514.18 183.788 514.515 183.479C516.279 181.875 518.535 174.359 519.591 158.071C520.332 146.59 520.155 134.13 519.198 130.296C519.158 130.132 519.047 129.882 518.568 129.619C512.337 126.213 481.13 135.373 467.396 139.91L479.163 153.633C480.724 155.454 478.33 158.86 473.66 164.114C470.131 168.092 464.976 173.346 458.345 179.738C448.959 188.773 439.187 197.584 436.117 200.339Z" fill="#030510"/>
<path d="M324.655 258.4L296.57 464.156C310.364 465.773 327.147 466.503 343.925 466.398L347.703 257.42L324.655 258.4Z" fill="white"/>
<path d="M340.768 467.719C324.542 467.719 308.899 466.924 296.411 465.457L295.086 465.3L323.499 257.131L349.039 256.039L349.013 257.433L345.215 467.693L343.936 467.7C342.88 467.713 341.817 467.719 340.768 467.719ZM298.051 462.998C310.696 464.412 326.411 465.148 342.637 465.083L346.363 258.788L325.801 259.662L298.051 462.998Z" fill="#00E2C5"/>
<path d="M305.333 259.22L264.596 451.838C263.625 457.815 277.104 461.866 296.557 464.154L324.642 258.398L305.333 259.22Z" fill="white"/>
<path d="M297.69 465.608L296.411 465.457C278.459 463.346 267.69 460.058 264.397 455.679C263.446 454.41 263.079 453.049 263.308 451.622L304.262 257.945L326.155 257.012L297.69 465.608ZM306.413 260.49L265.886 452.109C265.781 452.753 265.971 453.404 266.49 454.094C268.064 456.179 273.914 460.039 295.44 462.689L323.138 259.773L306.413 260.49Z" fill="#00E2C5"/>
<path d="M347.692 257.415L343.914 466.393C359.813 466.294 375.685 465.439 388.986 463.881L364.673 256.691L347.692 257.415Z" fill="white"/>
<path d="M342.586 467.721L346.41 256.159L365.837 255.33L390.446 465.038L389.14 465.189C376.154 466.715 360.091 467.609 343.931 467.708L342.586 467.721ZM348.987 258.677L345.255 465.071C360.334 464.933 375.236 464.111 387.533 462.73L363.515 258.066L348.987 258.677Z" fill="#00E2C5"/>
<path d="M383.581 255.881L364.672 256.69L388.985 463.879C408.216 461.624 422.055 457.895 422.704 452.819C424.003 442.666 383.581 255.881 383.581 255.881Z" fill="white"/>
<path d="M387.839 465.339L363.211 255.434L384.632 254.52L384.868 255.604C386.521 263.239 425.316 442.732 424.011 452.983C423.316 458.447 411.582 462.551 389.144 465.181L387.839 465.339ZM366.149 257.945L390.141 462.419C412.599 459.67 421.033 455.594 421.407 452.654C422.404 444.849 396.556 322.07 382.533 257.248L366.149 257.945Z" fill="#00E2C5"/>
<path d="M297.511 200.975C297.511 200.975 263.989 227.336 259.621 242.453C255.252 257.57 273.893 319.262 284.157 313.89C294.422 308.518 288.597 278.77 298.337 269.617C308.077 260.464 317.791 256.716 317.791 256.716L297.511 200.975Z" fill="white"/>
<path d="M282.839 315.54C281.796 315.54 280.537 315.146 279.101 313.969C268.436 305.217 254.289 256.176 258.355 242.091C262.789 226.744 295.314 201.027 296.698 199.942L298.121 198.824L319.464 257.491L318.263 257.958C318.165 257.998 308.648 261.739 299.23 270.59C294.842 274.719 293.812 283.813 292.822 292.611C291.7 302.58 290.638 311.99 284.754 315.067C284.249 315.323 283.607 315.54 282.839 315.54ZM296.908 203.144C290.52 208.332 264.58 230.019 260.88 242.815C259.214 248.568 261.162 263.146 265.714 279.092C270.358 295.34 276.261 308.228 280.767 311.924C282.446 313.298 283.279 312.864 283.554 312.719C288.198 310.293 289.228 301.147 290.224 292.302C291.267 283.031 292.35 273.444 297.446 268.657C305.375 261.2 313.213 257.294 316.138 255.992L296.908 203.144Z" fill="#00E2C5"/>
<path d="M395.554 201.334C395.554 201.334 428.886 227.945 433.142 243.095C437.399 258.245 418.306 319.793 408.081 314.355C397.856 308.917 403.896 279.208 394.229 269.983C384.561 260.757 374.867 256.937 374.867 256.937L395.554 201.334Z" fill="white"/>
<path d="M409.404 316.006C408.624 316.006 407.968 315.789 407.456 315.513C401.592 312.389 400.602 302.973 399.559 292.998C398.634 284.193 397.677 275.086 393.315 270.93C383.936 261.987 374.472 258.193 374.38 258.16L373.18 257.687L394.955 199.178L396.372 200.309C397.749 201.407 430.084 227.361 434.406 242.741C438.374 256.859 423.86 305.794 413.136 314.467C411.686 315.618 410.434 316.006 409.404 316.006ZM376.518 256.221C379.437 257.549 387.242 261.507 395.119 269.023C400.176 273.85 401.186 283.444 402.163 292.722C403.094 301.572 404.059 310.726 408.683 313.185C408.958 313.329 409.791 313.777 411.477 312.409C416.002 308.746 422.01 295.904 426.772 279.689C431.442 263.776 433.495 249.211 431.875 243.444C428.267 230.615 402.491 208.739 396.142 203.504L376.518 256.221Z" fill="#00E2C5"/>
<path d="M383.488 276.426L308.016 273.986C308.016 273.986 280.18 218.752 292.157 188.524C304.133 158.296 338.895 88.1611 355.03 97.9456C371.164 107.73 397.341 175.399 402.666 192.713C407.992 210.033 383.488 276.426 383.488 276.426Z" fill="white"/>
<path d="M383.486 277.615C383.473 277.615 383.459 277.615 383.446 277.615L307.974 275.176C307.541 275.163 307.148 274.913 306.957 274.525C305.81 272.25 279.023 218.462 291.052 188.089C298.306 169.783 331.881 95.834 351.695 95.834C353.112 95.834 354.437 96.2022 355.644 96.9321C372.729 107.295 399.378 177.996 403.798 192.363C409.183 209.861 385.604 274.111 384.601 276.839C384.424 277.306 383.984 277.615 383.486 277.615ZM308.768 272.822L382.672 275.215C385.421 267.627 406.376 208.802 401.536 193.073C395.764 174.313 369.791 108.295 354.417 98.9705C353.578 98.4642 352.686 98.2143 351.695 98.2143C336 98.2143 305.403 158.315 293.256 188.97C282.296 216.64 305.764 266.634 308.768 272.822Z" fill="#00E2C5"/>
<path d="M164.899 96.5789C164.899 96.5789 211.206 56.1721 251.029 92.3508C338.538 171.862 215.66 200.236 234.185 208.666C252.711 217.096 238.679 219.897 207.645 222.56C166.088 226.124 99.22 153.891 164.899 96.5789Z" fill="white"/>
<path d="M204.578 224.001C181.086 224.001 152.799 202.723 141.414 175.862C134.418 159.357 128.059 126.985 164.039 95.5872C164.518 95.1663 176.002 85.2504 192.615 79.648C208.053 74.4467 230.875 72.2571 251.916 91.3722C274.54 111.927 285.347 131.246 284.033 148.777C282.266 172.396 259.753 187.395 244.86 197.324C239.507 200.888 233.443 204.932 233.574 206.55C233.588 206.734 233.903 207.089 234.737 207.464C241.51 210.541 244.21 212.941 243.77 215.486C243.074 219.55 234.323 221.588 207.764 223.863C206.713 223.955 205.649 224.001 204.578 224.001ZM165.767 97.5664C131.035 127.873 137.118 158.982 143.832 174.829C149.495 188.184 159.467 200.421 171.915 209.292C183.865 217.807 196.852 222.16 207.534 221.24C219.451 220.214 227.137 219.306 232.451 218.294C240.656 216.729 241.149 215.203 241.175 215.032C241.188 214.966 241.366 213.362 233.64 209.851C231.958 209.081 231.052 208.042 230.947 206.754C230.691 203.591 235.473 200.408 243.396 195.128C257.868 185.488 279.737 170.91 281.405 148.573C282.653 131.891 272.136 113.295 250.142 93.312C234.028 78.6682 214.977 74.9004 193.522 82.1073C177.394 87.5387 165.878 97.4678 165.767 97.5664Z" fill="#030510"/>
<path d="M210.023 194.43C236.471 194.43 257.913 172.969 257.913 146.494C257.913 120.02 236.471 98.5586 210.023 98.5586C183.574 98.5586 162.133 120.02 162.133 146.494C162.133 172.969 183.574 194.43 210.023 194.43Z" fill="white"/>
<path d="M210.024 195.746C182.893 195.746 160.82 173.652 160.82 146.495C160.82 119.338 182.893 97.2441 210.024 97.2441C237.155 97.2441 259.228 119.338 259.228 146.495C259.228 173.652 237.155 195.746 210.024 195.746ZM210.024 99.8744C184.345 99.8744 163.448 120.791 163.448 146.495C163.448 172.199 184.345 193.116 210.024 193.116C235.703 193.116 256.6 172.199 256.6 146.495C256.6 120.791 235.703 99.8744 210.024 99.8744Z" fill="#030510"/>
<path d="M210.014 176.889C226.845 176.889 240.489 163.232 240.489 146.385C240.489 129.538 226.845 115.881 210.014 115.881C193.183 115.881 179.539 129.538 179.539 146.385C179.539 163.232 193.183 176.889 210.014 176.889Z" fill="white"/>
<path d="M210.015 178.205C192.488 178.205 178.227 163.929 178.227 146.386C178.227 128.842 192.488 114.566 210.015 114.566C227.542 114.566 241.804 128.842 241.804 146.386C241.804 163.929 227.542 178.205 210.015 178.205ZM210.015 117.197C193.934 117.197 180.854 130.289 180.854 146.386C180.854 162.483 193.934 175.574 210.015 175.574C226.097 175.574 239.176 162.483 239.176 146.386C239.176 130.289 226.09 117.197 210.015 117.197Z" fill="#030510"/>
<path d="M210.014 153.91C214.168 153.91 217.536 150.539 217.536 146.381C217.536 142.223 214.168 138.852 210.014 138.852C205.86 138.852 202.492 142.223 202.492 146.381C202.492 150.539 205.86 153.91 210.014 153.91Z" fill="white"/>
<path d="M210.015 155.226C205.141 155.226 201.18 151.261 201.18 146.382C201.18 141.509 205.141 137.537 210.015 137.537C214.89 137.537 218.851 141.502 218.851 146.382C218.844 151.261 214.883 155.226 210.015 155.226ZM210.015 140.167C206.593 140.167 203.807 142.956 203.807 146.382C203.807 149.807 206.593 152.596 210.015 152.596C213.438 152.596 216.223 149.807 216.223 146.382C216.217 142.956 213.438 140.167 210.015 140.167Z" fill="#00E2C5"/>
<path d="M244.85 118.35C244.85 118.35 244.016 106.093 245.96 101.352C247.905 96.6111 271.567 78.7847 276.303 72.6497C281.04 66.5147 285.487 82.6775 275.469 94.1058C275.469 94.1058 292.963 88.339 298.015 94.6647C300.242 97.4527 287.156 102.746 277.414 110.269C267.671 117.791 260.163 122.525 244.85 118.35Z" fill="white"/>
<path d="M255.34 121.237C252.141 121.237 248.593 120.731 244.507 119.619L243.607 119.376L243.541 118.442C243.509 117.929 242.707 105.817 244.75 100.853C245.86 98.1568 251.72 92.9884 261.239 84.8084C267.125 79.7452 273.215 74.5111 275.271 71.8545C276.624 70.0989 277.958 69.895 278.831 70.0331C280.191 70.2435 281.328 71.4271 282.031 73.3669C283.653 77.8515 282.931 85.3542 278.831 91.8179C280.474 91.4234 282.517 90.996 284.691 90.7133C291.819 89.7861 296.654 90.8382 299.058 93.8432C299.511 94.4087 299.682 95.0794 299.557 95.783C299.17 97.9595 295.958 99.9848 289.835 103.687C286.136 105.923 281.945 108.448 278.24 111.314C270.718 117.101 264.484 121.237 255.34 121.237ZM246.103 117.318C260.129 120.895 267.04 116.621 276.618 109.223C280.448 106.271 284.704 103.7 288.462 101.425C291.865 99.3733 296.496 96.5787 296.93 95.4016C293.172 90.9105 280.48 93.8301 275.882 95.349L271.303 96.8548L274.483 93.2317C280.316 86.5838 280.96 78.1276 279.554 74.2481C279.147 73.1171 278.654 72.6568 278.418 72.6173C278.273 72.591 277.885 72.7488 277.34 73.4458C275.126 76.3128 269.208 81.4023 262.94 86.7876C256.338 92.4624 248.12 99.5311 247.168 101.839C245.801 105.199 245.906 113.419 246.103 117.318Z" fill="#00E2C5"/>
<path d="M210.017 147.685C209.662 147.685 209.314 147.527 209.078 147.224C208.677 146.705 208.769 145.962 209.281 145.554L275.289 94.0017C275.808 93.6006 276.55 93.6927 276.958 94.2056C277.358 94.725 277.266 95.4681 276.754 95.8758L210.746 147.428C210.529 147.599 210.273 147.685 210.017 147.685Z" fill="#00E2C5"/>
</svg>
