<svg class="blog-tabbing__img" width="695" height="600" viewBox="0 0 695 600" fill="none" xmlns="http://www.w3.org/2000/svg">
<path d="M129.423 336.236C128.622 332.551 113.94 339.938 102.683 347.879C91.9443 355.453 87.2264 367.24 86.4978 380.359C85.3138 401.634 96.817 417.489 103.912 422.327C107.391 424.697 108.502 423.159 109.96 421.343C116.472 413.205 135.343 390.071 139.497 385.93C142.092 383.337 139.961 384.633 129.423 336.236ZM138.677 382.952C138.276 385.859 134.669 389.284 121.59 404.54C105.023 423.883 107.564 422.747 104.841 420.619C95.0956 413.009 88.8932 401.884 88.4651 389.302C88.6017 376.639 88.0735 367.204 95.8152 356.375C100.251 350.168 111.526 342.799 125.78 337.452C127.784 336.701 127.638 334.957 137.602 377.417C138.249 380.126 138.886 381.468 138.677 382.952ZM174.116 370.915C186.493 366.56 189.098 366.793 188.06 364.253C178.105 339.893 159.224 334.053 136.655 333.365C132.247 333.231 133.941 330.405 142.338 379.384C143.094 383.748 143.832 381.566 174.116 370.915ZM137.693 335.645C167.285 336.781 180.91 348.997 185.637 362.715C186.457 365.103 186.165 365.138 174.498 369.288C158.086 375.136 150.599 377.9 147.138 378.839C143.823 379.742 144.187 378.973 143.95 377.64L136.6 337.148C136.409 336.137 136.527 335.601 137.693 335.645ZM173.342 415.781C168.952 411.721 160.126 403.825 143.295 387.585C142.111 386.449 141.473 387.021 140.289 389.302C139.096 391.573 137.356 395.553 133.986 401.213C124.132 417.802 117.829 425.224 116.035 428.81C113.785 433.309 118.758 432.781 132.411 434.704C147.083 436.77 170.755 428.703 176.183 421.71C177.495 420.029 178.624 420.673 173.342 415.781ZM172.75 422.56C147.794 438.03 131.728 432.763 120.079 429.902C118.53 429.517 118.403 428.936 120.015 426.298C122.219 422.667 127.274 415.066 137.265 398.933C140.089 394.372 140.462 390.822 142.484 390.688C145.371 390.491 151.637 397.252 173.25 417.954C175.172 419.769 175.054 421.138 172.75 422.56ZM168.569 378.973C157.321 382.487 150.581 383.712 147.566 384.705C144.898 385.581 145.134 386.261 147.721 388.166C151.492 390.92 160.235 396.25 172.294 408.457C181.329 417.596 182.322 417.06 183.679 413.858C188.497 402.519 190.647 389.937 189.062 374.135C188.597 369.485 183.415 374.331 168.569 378.973ZM183.57 409.923C181.958 415.647 179.662 412.964 178.296 411.685C170.864 404.808 162.922 397.18 150.472 387.79C148.96 386.646 149.315 386.297 153.605 385.072C156.701 384.186 161.911 382.782 170.108 380.091C176.028 378.15 181.32 375.798 185.4 374.501C188.524 373.509 189.362 389.355 183.57 409.923ZM178.579 334.885C181.448 331.925 180.163 327.025 176.274 325.486C175.946 325.361 175.527 325.021 175.473 324.726C174.562 320.255 181.083 324.1 182.012 322.133C182.122 321.9 181.721 321.122 181.52 321.113C174.726 320.693 174.935 319.942 174.526 321.194C172.631 327.06 172.331 327.642 174.362 327.722C179.471 327.928 179.325 336.155 174.79 333.454C174.061 333.025 172.458 333.392 172.777 334.232C173.424 335.967 176.575 336.942 178.579 334.885ZM191.384 322.92C191.093 323.126 183.779 335.305 183.87 336.119C184.344 340.081 196.558 319.146 191.384 322.92ZM189.071 322.195C189.208 321.757 188.524 320.854 188.087 320.711C186.885 320.309 184.699 321.981 184.462 323.528C184.062 326.264 187.923 325.934 189.071 322.195ZM163.305 334.876C165.673 335.69 169.316 335.663 170.227 335.797C171.101 335.923 171.556 335.055 171.101 334.554C169.452 332.748 163.687 334.492 166.128 332.068C167.686 330.521 171.903 327.463 172.458 323.036C172.832 320.031 170.108 317.527 166.611 320.076C162.567 323.018 165.545 326.765 166.565 323.126C167.576 319.486 171.675 321.248 170.3 324.1C166.374 332.14 160.281 333.83 163.305 334.876ZM193.342 331.728C192.413 331.496 190.501 331.594 189.062 334.501C187.978 336.665 190.127 338.909 194.335 333.946C195.027 333.123 194.572 332.032 193.342 331.728ZM171.247 450.049C170.318 449.817 168.405 449.915 166.966 452.822C165.882 454.995 168.032 457.23 172.24 452.276C172.932 451.453 172.476 450.362 171.247 450.049ZM166.975 440.525C167.112 440.087 166.429 439.184 165.991 439.041C164.789 438.639 162.603 440.311 162.376 441.858C161.975 444.585 165.828 444.255 166.975 440.525ZM159.416 439.434C152.621 439.014 152.821 438.263 152.421 439.524C150.526 445.39 150.226 445.972 152.257 446.052C157.375 446.249 157.221 454.485 152.694 451.784C151.974 451.355 150.362 451.722 150.681 452.562C151.328 454.288 154.479 455.263 156.483 453.215C159.352 450.255 158.068 445.355 154.179 443.816C153.851 443.691 153.432 443.351 153.377 443.047C152.466 438.576 158.988 442.421 159.926 440.454C160.026 440.23 159.625 439.443 159.416 439.434ZM169.289 441.25C168.997 441.455 161.683 453.635 161.784 454.449C162.239 458.411 174.453 437.476 169.289 441.25ZM144.506 438.397C140.462 441.339 143.44 445.086 144.46 441.447C145.471 437.807 149.57 439.569 148.186 442.421C144.269 450.479 138.185 452.169 141.218 453.206C143.577 454.02 147.22 454.002 148.131 454.127C149.005 454.253 149.47 453.385 149.014 452.884C147.366 451.078 141.601 452.822 144.032 450.407C145.59 448.86 149.816 445.802 150.362 441.366C150.727 438.343 148.012 435.848 144.506 438.397ZM221.531 393.049C221.167 392.905 220.958 392.709 220.338 393.469C219.482 394.542 217.815 397.529 213.853 405.273C213.389 406.185 214.619 407.706 216.149 404.746C220.475 396.42 222.679 393.514 221.531 393.049ZM222.424 402.734C219.619 402.975 217.952 405.577 218.863 406.758C219.91 408.108 222.57 406.856 223.945 404.433C224.473 403.529 223.481 402.644 222.424 402.734ZM218.526 392.056C218.48 389.185 213.198 391.493 214.655 393.889C215.201 394.775 218.553 393.549 218.526 392.056ZM201.175 388.854C200.601 388.72 200.337 388.658 199.973 389.087C199.372 389.802 199.217 392.7 195.364 397.1C195.1 397.404 194.891 397.726 195.009 398.074C195.109 398.378 195.428 398.522 195.701 398.504C196.485 398.432 197.651 396.5 197.578 396.957C197.341 398.691 196.394 401.616 196.029 402.912C195.401 405.166 197.514 405.729 197.96 403.324C198.516 400.364 201.895 389.024 201.175 388.854ZM209.117 389.856C208.398 389.561 206.986 389.364 206.185 389.239C204.973 389.051 204.208 389.427 203.944 390.697C202.796 396.304 201.585 397.18 204.563 396.974C208.207 396.724 208.298 400.462 206.54 402.832C205.975 403.592 204.436 403.977 203.297 403.494C202.715 403.243 201.603 402.805 201.321 403.064C199.545 404.746 206.185 408.886 209.054 401.374C211.586 394.73 204.873 395.785 205.283 393.21C205.766 390.196 207.442 392.262 209.518 391.376C210.429 391.001 210.055 390.241 209.117 389.856ZM83.137 373.804C82.1442 373.786 79.5211 377.739 80.013 378.597C80.778 379.93 83.7563 377.515 84.4849 376.701C85.2136 375.879 84.0933 373.822 83.137 373.804ZM78.9109 368.089C81.6433 366.149 81.37 366.426 80.6596 365.165C80.2953 364.53 77.7724 364.79 77.6267 366.444C77.5812 366.954 78.3189 368.51 78.9109 368.089ZM60.3855 363.502C59.9483 364.11 59.4291 365.353 59.6841 365.621C60.604 366.578 60.9319 365.317 61.4511 364.843C62.0522 364.298 63.5186 363.877 63.5823 364.799C63.7645 367.92 59.9938 368.85 59.2196 370.558C59.0648 370.906 59.2743 371.309 59.6568 371.38C60.3035 371.497 60.9866 371.076 61.697 371.157C64.821 371.506 63.473 376.272 60.5221 376.451C57.0246 376.674 57.5256 374.913 55.6038 374.895C54.183 374.877 55.03 378.427 60.7407 377.837C64.5022 377.452 67.016 373.044 64.821 370.343C63.5914 368.841 64.065 367.982 64.9121 366.82C68.4186 362.008 62.1433 361.069 60.3855 363.502ZM83.811 365.165C82.8728 366.14 74.0291 378.096 77.0074 377.318C78.1732 377.014 84.5214 366.569 84.5669 365.657C84.5851 365.246 84.0842 364.879 83.811 365.165ZM72.5991 362.438C66.9067 361.678 69.2383 362.527 66.8794 368.93C65.9504 371.461 68.9651 369.905 70.1127 370.584C71.9252 371.658 71.6337 378.231 67.6536 376.192C67.3075 376.013 66.4604 376.138 66.2874 376.415C66.0415 376.773 66.0141 377.658 66.2692 377.882C71.2147 382.103 77.2533 370.906 70.3404 368.027C68.7647 367.374 69.885 366.14 69.9214 365.192C70.0034 362.554 73.2276 365.478 75.3588 364.298C75.6867 364.119 75.7687 363.681 75.5137 363.395C74.6484 362.42 74.1748 362.643 72.5991 362.438Z" fill="#00E2C5"/>
<path fill-rule="evenodd" clip-rule="evenodd" d="M160.683 201.799C160.683 201.799 153.643 180.829 173.908 174.363C194.173 167.889 472.337 171.484 472.337 171.484C472.337 171.484 574.983 169.489 581.186 180.256C587.388 191.023 584.082 457.498 584.082 457.498C584.082 457.498 562.678 469.669 511.301 468.972C459.923 468.274 183.034 463.088 168.962 456.703C154.891 450.317 160.683 201.799 160.683 201.799Z" fill="white"/>
<path d="M519.286 443.092C517.975 443.084 516.618 443.084 515.416 443.03L484.695 442.019C482.081 441.957 479.512 441.876 476.944 441.796C471.188 441.617 465.24 441.429 459.384 441.429C457.835 441.429 456.296 441.438 454.766 441.474L425.794 441.563L411.494 441.59C409.937 441.599 408.389 441.599 406.859 441.599C403.489 441.599 400.437 441.581 397.523 441.536L370.263 441.277L331.19 440.472L318.922 440.374C316.818 440.401 314.787 440.428 312.774 440.454L312.073 440.463C307.063 440.535 301.89 440.606 296.781 440.606H294.057C293.101 440.606 290.651 440.615 290.651 440.615C289.54 440.615 288.429 440.624 287.327 440.624C285.951 440.624 284.585 440.615 283.219 440.597L268.127 440.132L259.329 439.873L254.32 439.739L250.048 439.632C249.419 439.587 232.852 439.274 227.715 438.782C225.511 438.594 223.098 438.263 220.529 437.924C220.529 437.924 215.201 437.19 214.236 437.038L223.671 436.716L251.478 436.001L255.795 436.108L269.111 436.484C276.634 436.797 284.813 436.949 294.075 436.949C299.731 436.949 305.843 436.895 312.756 436.779L318.567 436.698L326.909 436.77C330.088 436.797 333.385 436.824 336.536 436.904L361.283 437.432C367.166 437.593 373.05 437.637 379.28 437.691H379.508C382.058 437.709 384.617 437.736 387.195 437.763L391.749 437.807C397.04 437.861 403.051 437.924 408.926 437.924C410.647 437.924 412.378 437.915 414.108 437.906L443.454 437.834L463.792 437.763C465.176 437.763 466.652 437.807 467.954 437.852C468.829 437.879 469.703 437.906 470.586 437.924L500.096 438.827L516.937 439.399C516.982 439.399 519.177 439.417 519.387 439.417C520.024 439.417 520.653 439.39 521.272 439.372H521.39C521.718 439.363 522.046 439.345 522.383 439.345C525.316 439.158 527.684 438.836 529.688 438.353C532.165 437.754 534.333 436.815 535.963 435.634C537.684 434.418 538.95 432.799 539.943 430.546C541.473 426.888 541.783 422.149 541.792 416.139C541.792 415.12 541.792 414.073 541.783 413.027C541.765 408.994 541.756 404.844 542.029 400.65L542.739 385.171C542.821 383.319 542.903 381.477 542.994 379.626L543.003 379.411C543.158 376.192 543.313 372.874 543.431 369.583L543.677 353.799C543.695 352.056 543.723 350.321 543.759 348.595L543.768 348.076C543.823 344.758 543.887 341.315 543.878 337.908L543.814 321.928C543.805 312.735 543.696 303.318 543.586 294.205L543.532 289.636C543.368 281.784 543.45 273.664 543.522 265.803C543.55 262.816 543.577 259.847 543.595 256.887L543.796 240.254L543.923 230.587C543.96 228.423 543.987 226.178 543.896 224.085C543.778 220.884 543.441 218.371 542.867 216.422C542.375 214.973 541.938 213.944 541.245 213.077C540.754 212.46 540.034 211.664 538.841 210.975L538.695 210.895C537.712 210.403 536.664 209.929 535.271 209.625C534.251 209.348 532.976 209.142 531.336 208.981C530.471 208.901 529.633 208.811 528.786 208.713C526.955 208.507 525.07 208.293 523.057 208.239L522.301 208.194C519.842 208.06 517.328 207.926 514.742 207.89L404.409 204.939L387.495 204.59L353.787 203.911L320.069 203.365C318.093 203.329 316.117 203.294 314.131 203.267H314.031C310.524 203.213 306.899 203.159 303.356 203.061L286.716 202.462C277.718 202.086 268.701 201.89 259.985 201.702L243.627 201.344C241.468 201.299 239.255 201.255 237.251 201.129L235.302 201.022C231.44 200.799 227.797 200.593 224.181 200.593C223.152 200.593 222.132 200.611 221.112 200.647C218.371 200.736 215.775 201.04 213.407 201.532C212.05 201.791 210.838 202.185 209.837 202.533L209.636 202.614C209.436 202.703 209.308 202.748 209.181 202.802C208.789 202.954 208.407 203.106 208.006 203.303L206.458 204.134L206.412 204.161C205.465 204.751 204.527 205.324 203.716 206.28C203.015 207.023 202.432 207.899 201.885 209.044C201.011 210.931 200.465 213.3 200.246 216.117C200.064 218.264 200.046 220.544 200.018 222.959L200.009 223.772L199.991 232.295L199.973 247.149C199.964 248.052 199.973 248.973 199.973 249.894C199.973 251.531 199.973 253.167 199.945 254.804L199.454 277.751L198.625 307.718L197.933 336.951C197.832 341.271 197.787 345.581 197.732 349.748C197.678 354.899 197.614 360.229 197.459 365.488L196.885 383.087L196.712 386.369C196.612 388.551 196.557 390.769 196.548 393.165C196.53 397.86 196.657 402.367 196.94 406.553C197.013 408.028 197.158 409.504 197.304 410.934C197.377 411.65 197.441 412.33 197.504 413.009L197.523 413.197C197.632 413.895 197.723 414.538 197.805 415.182C198.005 416.658 198.206 418.169 198.579 419.6L198.898 421.111C198.962 421.415 199.035 421.728 199.117 421.97L199.281 422.471L199.417 422.927L199.845 423.964C201.822 428.283 205.1 430.823 206.886 431.959C207.869 432.567 208.826 433.077 209.736 433.461C209.846 433.676 209.964 433.917 210.064 434.168C210.21 434.499 210.301 434.767 210.374 435.035L210.583 435.786L210.356 436.207C210.201 436.403 209.791 436.779 208.844 437.101C207.532 436.591 206.157 435.885 204.754 434.999C203.224 434.025 201.758 432.808 200.401 431.386C198.652 429.535 197.295 427.505 196.375 425.377L195.883 424.188L195.683 423.562L195.382 422.614C195.346 422.435 194.462 418.33 194.462 418.33C194.426 418.107 194.38 417.776 194.335 417.445L194.244 416.792C193.06 408.645 192.614 399.908 192.85 389.293C192.859 387.916 192.941 386.512 193.014 385.153C193.069 384.16 193.124 383.176 193.16 382.21L193.834 361.302C193.889 358.065 193.925 354.882 193.962 351.671V351.519C194.034 345.241 194.107 338.785 194.289 332.337L195.829 272.233L196.157 256.816C196.248 253.453 196.238 250.037 196.229 246.728C196.229 244.886 196.22 243.053 196.238 241.202L196.257 225.48C196.266 224.81 196.266 224.094 196.275 223.388C196.284 221.492 196.302 219.543 196.402 217.468C196.53 215.026 196.794 212.12 197.814 209.142C198.698 206.343 200.683 203.598 203.024 201.907L203.507 201.594C204.017 201.264 204.527 200.942 204.927 200.736C205.164 200.611 205.41 200.486 205.647 200.351C206.121 200.101 206.53 199.877 206.904 199.717L207.305 199.556C207.897 199.314 208.443 199.091 208.98 198.894L211.185 198.232C214.983 197.302 218.954 196.891 224.054 196.891C225.22 196.891 226.458 196.909 227.961 196.953C230.493 197.034 232.998 197.177 235.43 197.32L236.24 197.365L240.284 197.561L261.078 198.017C263.036 198.071 265.021 198.107 267.007 198.152C270.55 198.223 274.211 198.295 277.818 198.429L294.604 199.037C302.692 199.404 310.943 199.529 318.931 199.645C322.11 199.69 325.279 199.734 328.449 199.797L362.521 200.378L396.922 201.094L465.705 202.891L517.383 204.268C519.642 204.358 522.028 204.483 524.332 204.617L525.999 204.707C526.609 204.769 532.921 205.44 533.057 205.458C533.249 205.476 533.394 205.494 533.549 205.52L534.788 205.735C536.318 206.003 537.83 206.45 539.287 207.058C540.781 207.693 542.238 208.677 543.368 209.822C544.406 210.868 545.262 212.227 545.982 213.98C546.546 215.384 546.856 216.779 547.147 218.425C547.612 221.349 547.685 224.059 547.712 227.037L547.603 235.389L547.375 252.201L547.238 268.772C547.102 276.66 547.202 284.699 547.311 292.479C547.348 295.636 547.393 298.766 547.421 301.887C547.53 309.005 547.548 316.177 547.566 323.117V323.77C547.575 327.427 547.585 331.085 547.612 334.725C547.667 338.874 547.594 343.059 547.53 347.11C547.512 348.389 547.22 367.142 547.22 367.142C547.211 369.655 547.111 372.132 546.956 375.083L545.845 399.103L545.654 402.94C545.599 404.254 545.563 405.551 545.544 406.848C545.517 408.815 545.526 410.8 545.535 412.83L545.544 414.673C545.544 417.239 545.544 419.895 545.353 422.614C545.162 425.136 544.843 427.872 543.869 430.734C543.377 432.147 542.739 433.461 541.974 434.633C541.027 436.01 540.08 437.083 539.105 437.852C537.065 439.587 534.615 440.794 531.363 441.697C528.859 442.368 526.227 442.779 523.321 442.949C521.964 443.03 520.616 443.075 519.314 443.084H519.286V443.092Z" fill="#030510"/>
<path d="M499.578 475.044C499.514 474.99 499.451 474.937 499.387 474.883L498.239 473.881L496.709 473.989C494.104 474.167 491.563 474.284 489.332 474.391C488.157 474.445 487.119 474.489 486.18 474.543L481.499 474.758L343.341 473.103L275.979 471.252L240.377 470.206L222.115 469.634C218.108 469.517 213.909 469.329 210.211 469.169C208.044 469.07 205.867 468.981 203.681 468.891L180.265 467.89L177.733 467.684L176.567 467.586L175.337 467.38C175.091 467.326 174.745 467.273 174.39 467.219C173.853 467.13 173.397 467.058 172.978 466.933L172.832 466.897C171.967 466.647 171.175 466.423 170.373 466.173C169.554 465.824 168.743 465.457 167.942 465.082C167.304 464.688 166.503 464.178 165.728 463.615L165.3 463.222C164.69 462.667 164.162 462.184 163.807 461.737C163.725 461.612 163.524 461.362 163.333 461.102C162.941 460.583 162.531 460.056 162.368 459.689L162.295 459.537C161.803 458.607 161.402 457.838 161.211 457.212L160.683 455.683C160.637 455.522 160.591 455.316 160.546 455.111L160.409 454.556C159.59 451.015 159.444 447.563 159.335 444.782C159.271 442.564 159.234 440.4 159.207 438.245C159.189 437.261 159.18 436.268 159.162 435.285L158.387 347.288L159.244 255.947C159.271 253.703 159.244 251.512 159.207 249.392V249.276C159.189 248.105 159.171 246.942 159.162 245.762C159.171 242.837 159.034 239.806 158.897 236.873L158.606 230.255L158.424 225.032C158.396 224.093 158.36 223.137 158.324 222.18C158.233 219.72 158.132 217.19 158.223 214.668L158.305 209.204C158.315 208.73 158.324 208.202 158.333 207.684V207.558C158.351 206.369 158.36 205.144 158.433 204.232C158.506 202.407 158.497 200.708 158.478 198.902C158.46 197.185 158.451 195.441 158.506 193.652C158.597 190.424 158.888 186.597 160.364 182.698C161.174 180.766 162.204 179.076 163.415 177.717C163.624 177.466 163.834 177.269 164.089 177.037C164.253 176.885 164.408 176.742 164.563 176.59C164.726 176.438 165.209 175.982 165.437 175.821C166.238 175.195 167.031 174.587 167.85 174.077C170.902 172.056 174.654 170.598 178.479 169.936C181.667 169.364 184.846 169.319 188.088 169.319H189.491L200.247 169.096L223.6 168.586C230.039 168.443 236.697 168.291 243.346 168.282C245.832 168.273 248.31 168.255 250.796 168.237H251.069C254.303 168.21 257.536 168.184 260.76 168.184C262.217 168.184 263.675 168.193 265.123 168.201L286.836 168.702C291.527 168.801 296.254 168.953 300.826 169.096L301.245 169.105C303.667 169.176 306.09 169.257 308.522 169.328L319.36 169.65L373.716 170.491C380.256 170.607 386.923 170.795 393.371 170.983C401.204 171.206 409.228 171.43 417.097 171.537L438.646 171.886L460.187 171.555L481.8 171.162C483.066 171.144 484.359 171.117 485.652 171.09C487.528 171.045 489.432 171.001 491.281 171.001C491.7 171.001 492.119 171.001 492.538 171.009L503.34 171.153C504.597 171.179 505.872 171.188 507.156 171.206C509.424 171.233 511.765 171.251 514.032 171.34L524.762 171.698L546.019 172.467C547.03 172.503 549.262 172.592 549.262 172.592C551.666 172.691 554.162 172.789 556.703 172.834C559.809 172.941 563.543 173.129 567.45 173.8C571.694 174.533 575.055 175.642 578.024 177.287C581.404 179.121 584.327 181.991 586.067 185.175C586.978 186.829 587.706 188.6 588.152 190.299L588.198 190.451C588.426 191.148 588.553 191.766 588.699 192.49L589.355 195.718L589.601 196.934L589.728 198.16L590.001 200.905C590.193 202.452 590.229 203.883 590.265 205.412L590.284 206.101C590.448 212.924 589.992 219.613 589.555 226.079L589.4 228.574C589.227 231.319 589.054 234.127 588.981 236.837C588.89 238.607 588.89 240.494 588.89 241.925L588.845 267.018C588.89 271.383 589.009 275.747 589.127 279.959V280.075C589.191 282.4 589.255 284.716 589.309 287.032L589.336 287.918C589.5 294.088 589.683 300.473 589.728 306.849L589.856 316.82C589.883 318.913 589.847 321.041 589.819 323.107C589.801 324.288 589.783 325.459 589.774 326.622L589.655 336.423C589.619 338.498 589.564 340.581 589.5 342.656C589.5 342.656 589.428 345.133 589.4 346.126C589.227 352.35 589.036 358.985 588.781 365.388L588.426 374.966C588.353 377.05 588.316 379.097 588.28 381.145C588.262 382.254 588.234 383.354 588.216 384.454C587.988 392.055 587.952 399.737 587.916 407.169V407.392C587.888 412.15 587.87 417.059 587.788 421.862L587.642 431.135C587.624 431.958 587.615 432.807 587.606 433.648V433.898C587.579 436 587.551 438.128 587.415 440.176L586.44 458.625C586.203 460.977 585.63 464.59 583.398 467.818C582.442 469.204 581.139 470.483 579.728 471.422C578.407 472.307 576.868 473.023 575.146 473.55C571.84 474.543 568.68 474.776 565.765 474.874C564.7 474.91 563.643 474.919 562.605 474.919C561.111 474.919 559.654 474.892 558.215 474.865L556.758 474.838L552.431 474.802L548.041 474.874L539.207 475.044C537.358 475.08 535.518 475.115 533.669 475.151L533.05 475.16C529.352 475.232 525.545 475.312 521.856 475.339L499.578 475.044ZM482.902 471.118C483.776 471.19 487.665 471.511 492.592 471.994C493.977 472.12 495.416 472.254 496.9 472.388L498.522 472.54C498.522 472.54 499.797 471.386 499.833 471.351L518.404 471.556C519.798 471.574 521.191 471.592 522.585 471.592C523.996 471.592 525.235 471.574 526.374 471.538L543.77 471.207L552.768 471.046H553.196C554.799 471.046 556.375 471.073 557.923 471.1L558.269 471.109C559.435 471.127 560.583 471.154 561.712 471.154H562.696C565.865 471.154 568.315 471.011 570.438 470.716C573.607 470.286 576.248 469.329 578.052 467.961C580.001 466.521 581.331 464.402 582.096 461.478C582.414 460.315 582.597 459.09 582.733 457.293L583.435 443.709C583.48 442.814 583.526 441.938 583.571 441.07C583.69 438.897 583.808 436.68 583.808 434.417L584.081 415.959L584.172 397.037L584.555 377.837L585.238 358.574L585.803 339.079L586.067 319.378L585.839 299.534L585.047 269.12L585.065 258.997L585.119 238.429C585.211 234.127 585.502 229.799 585.775 225.605C585.939 223.181 586.121 220.436 586.249 217.834C586.631 210.125 586.713 203.713 585.857 197.498L585.83 197.346L584.846 192.499C584.391 190.737 583.945 189.279 583.262 187.911C581.832 184.942 579.791 182.653 577.041 180.954C572.705 178.253 566.457 176.84 557.395 176.5C553.889 176.402 550.209 176.277 546.73 176.134L535.919 175.722L514.36 174.989C509.697 174.864 504.988 174.81 500.443 174.756C497.857 174.73 495.307 174.694 492.747 174.658L449.075 175.374L438.045 175.543L427.161 175.356L405.138 174.953C385.538 174.3 365.665 174.005 346.447 173.719C336.82 173.576 326.893 173.424 317.065 173.236L295.06 172.566C290.315 172.413 285.524 172.306 280.889 172.208C278.284 172.154 275.688 172.092 273.083 172.029C271.781 172.002 270.496 171.975 269.212 171.94C266.881 171.886 264.467 171.823 262.063 171.805L240.204 171.948L234.748 171.984L190.848 172.932L185.456 172.968C181.357 173.031 178.124 173.513 175.255 174.488C173.579 175.078 172.095 175.758 170.701 176.581L170.118 176.947C169.599 177.278 169.053 177.618 168.488 178.074L167.532 178.799L166.785 179.514C165.601 180.677 164.736 181.92 164.125 183.341C163.834 183.914 163.652 184.468 163.506 184.915C163.442 185.094 163.397 185.246 163.342 185.389L163.251 185.64L163.196 185.899C163.16 186.087 163.105 186.275 163.06 186.463C162.941 186.954 162.786 187.545 162.695 188.242C162.176 191.131 162.149 194.404 162.185 198.374L162.194 199.17C162.204 200.655 162.222 202.184 162.167 203.776C162.158 204.142 162.14 204.509 162.112 204.867C162.076 205.493 162.031 206.154 162.049 206.754L161.949 214.31C161.949 214.757 161.939 215.169 161.93 215.589V215.705C161.903 216.975 161.885 218.299 161.967 219.703L162.331 230.067L162.796 240.691C162.978 249.124 163.014 255.831 162.914 261.76L162.094 344.498L162.267 364.852L162.878 434.453L162.905 436.304C162.941 439.005 162.978 441.696 163.051 444.227C163.151 447.366 163.333 450.657 163.998 453.528L164.253 454.646L164.672 455.817C164.763 456.094 164.881 456.461 165.091 456.872L165.373 457.4C165.683 458.106 166.074 458.598 166.293 458.866L166.339 458.92L166.384 459.001L166.439 459.072C166.858 459.645 167.258 460.002 167.495 460.217L167.577 460.288L167.778 460.53L168.096 460.78C169.991 462.292 172.851 463.365 176.148 463.803C176.867 463.955 177.55 464 178.161 464.044L178.543 464.071C178.825 464.089 179.053 464.107 179.29 464.134C179.818 464.178 180.283 464.223 180.829 464.241L185.684 464.447C190.247 464.635 194.783 464.831 199.3 465.028C207.379 465.386 215.731 465.743 223.919 466.021L260.997 467.174L397.715 470.939L428.537 470.921L457.709 470.894C459.03 470.894 460.332 470.885 461.635 470.885C465.46 470.885 468.639 470.912 471.635 470.966L482.902 471.118Z" fill="#030510"/>
<path d="M578.079 522.88L570.693 522.8C566.986 522.791 563.279 522.665 559.691 522.549C558.452 522.513 557.241 522.469 556.029 522.433L541.475 522.022C540.737 522.013 540.072 522.013 539.398 522.013C537.586 522.013 535.792 522.039 533.997 522.057C532.221 522.084 530.427 522.102 528.605 522.102C528.086 522.102 527.558 522.102 527.021 522.093L482.811 521.941L365.738 520.832L307.211 520.162C301.746 520.108 296.29 520.036 290.835 519.974H290.616C277.155 519.813 263.238 519.643 249.549 519.643H248.656C230.513 519.598 209.957 519.544 190.038 518.561C188.881 518.498 187.697 518.436 186.513 518.373L186.422 518.364C182.806 518.176 179.072 517.988 175.429 517.675C174.299 517.586 173.188 517.506 172.077 517.416L171.567 517.38C168.024 517.121 164.363 516.844 160.801 516.441C160.783 516.441 151.138 515.449 150.919 515.431C150.564 515.395 150.245 515.368 149.826 515.306C148.497 515.136 147.194 514.876 145.928 514.537C143.332 513.857 140.91 512.811 138.724 511.442C136.383 509.985 134.388 508.116 132.949 506.041C132.512 505.433 132.184 504.914 131.902 504.387L131.838 504.27C131.547 503.787 131.31 503.233 131.046 502.661L130.964 502.482C130.791 502.106 130.691 501.811 130.554 501.409C130.463 501.131 130.372 500.872 130.281 500.595L130.244 500.479L130.053 499.736L129.698 498.35C129.552 497.858 129.507 497.474 129.443 496.937C129.397 496.597 129.361 496.258 129.306 495.909L129.17 494.809L129.106 493.646C129.097 493.414 129.079 493.119 129.06 492.824C129.024 492.251 128.997 491.777 129.006 491.339C128.969 488.54 129.106 485.732 129.452 482.495C129.953 481.985 130.545 481.618 130.873 481.583L131.419 481.511L131.72 481.377L133.159 483.326C132.867 486.179 132.74 488.826 132.776 491.187C132.767 491.607 132.795 492.099 132.831 492.645C132.849 492.859 132.858 493.074 132.867 493.298L132.931 494.523L133.077 495.614C133.113 495.855 133.132 495.998 133.15 496.141C133.204 496.678 133.277 497.295 133.487 497.957L133.669 498.663L133.796 499.173L133.815 499.227C133.851 499.379 133.906 499.522 133.942 499.638C134.006 499.808 134.033 499.906 134.07 500.005C134.188 500.371 134.325 500.827 134.552 501.283L134.634 501.471C134.771 501.784 134.944 502.178 135.199 502.607C135.445 503.072 135.736 503.528 136.083 503.993C138.296 507.221 142.167 509.725 146.939 510.986C148.05 511.281 149.171 511.505 150.254 511.648C150.537 511.693 151.019 511.746 151.502 511.8C151.739 511.827 161.111 512.784 161.111 512.784C164.709 513.195 168.37 513.463 171.904 513.732C173.152 513.821 174.39 513.92 175.638 514.018C179.327 514.34 183.088 514.528 186.732 514.715C187.897 514.778 189.054 514.832 190.211 514.894C210.084 515.869 230.595 515.923 248.683 515.967H249.512C263.211 515.967 277.146 516.137 290.625 516.307L291.964 516.325C297.065 516.388 302.165 516.45 307.265 516.504L365.838 517.175L482.975 518.284C484.815 518.292 527.695 518.453 528.214 518.453C529.99 518.453 531.802 518.427 533.615 518.409H533.824C535.691 518.382 537.577 518.355 539.435 518.355C540.127 518.355 540.819 518.355 541.502 518.364L556.166 518.775C557.35 518.811 558.552 518.847 559.745 518.892C563.37 519.008 567.114 519.133 570.802 519.142L577.997 519.223L585.994 519.258C591.177 519.258 595.448 519.071 599.456 518.149C600.23 518.006 600.959 517.765 601.605 517.559C601.915 517.461 602.215 517.362 602.516 517.273L602.671 517.228C603.463 516.969 604.083 516.683 604.62 516.441C604.921 516.307 605.203 516.173 605.503 516.057L605.758 515.958L605.995 515.824C607.944 514.724 609.474 513.347 610.549 511.72C611.633 510.092 612.307 508.134 612.608 505.737C612.835 503.886 612.835 501.722 612.635 498.896C612.535 497.456 612.371 495.864 612.225 494.469C612.143 493.646 612.061 492.815 611.988 492.01V488.621L608.527 488.576L606.769 488.406C605.904 488.308 604.984 488.254 604.092 488.209L603.181 488.156C601.924 488.075 600.64 488.039 599.538 488.012C598.354 487.977 597.133 487.95 595.895 487.95C594.729 487.941 593.508 487.932 592.288 487.932L586.003 487.941C584.437 487.941 582.861 487.932 581.267 487.914L537.358 487.225C523.314 486.948 509.06 486.868 495.271 486.778C489.76 486.743 484.286 486.716 478.822 486.671L420.258 486.287C414.83 486.242 409.383 486.206 403.937 486.179C394.273 486.126 384.282 486.072 374.354 485.92L170.456 481.994C169.008 481.869 150.537 481.538 145.974 481.055L136.747 480.018C135.236 479.848 133.796 479.678 132.448 479.517C136.073 479.275 139.17 479.106 141.893 478.998L171.922 478.363L376.649 482.298L420.285 482.62L478.849 483.005C483.968 483.049 489.086 483.076 494.214 483.103L495.334 483.112C509.169 483.192 523.423 483.273 537.404 483.55L581.331 484.23C582.852 484.248 584.373 484.257 585.912 484.257L592.27 484.248C593.49 484.248 594.72 484.248 595.958 484.265C597.197 484.265 598.408 484.292 599.638 484.328C600.813 484.355 602.052 484.391 603.308 484.471L604.356 484.534C605.267 484.578 606.132 484.632 606.988 484.722L609.72 484.981C609.957 484.999 610.167 485.035 610.358 485.061L615.367 485.804C615.458 487.655 615.568 489.506 615.677 491.25C615.768 492.26 615.859 493.155 615.95 494.049L615.959 494.147C616.105 495.578 616.251 497.062 616.369 498.619C616.533 500.962 616.642 503.501 616.324 506.157C616.078 508.143 615.431 511.058 613.719 513.651C612.316 515.797 610.267 517.658 607.771 519.044C607.425 519.196 607.07 519.357 606.715 519.527C605.795 519.947 604.921 520.349 604.119 520.618C603.837 520.698 603.399 520.832 602.962 520.975L602.862 521.011C602.006 521.288 601.204 521.548 600.485 521.682C595.038 522.916 589.683 522.925 585.375 522.925L578.079 522.88Z" fill="#030510"/>
<g clip-path="url(#clip0_9201_16840)">
<path d="M399.679 507.524C397.919 507.524 396.159 507.465 394.459 507.397L392.839 507.338L374.269 507.21L360.349 507.141L355.559 507.21C352.029 507.2 349.039 507.082 346.189 506.856C343.089 506.582 340.019 506.267 336.769 505.354C336.059 505.138 335.179 504.853 334.249 504.382C333.429 503.97 332.689 503.459 331.979 502.841C331.809 502.693 331.659 502.556 331.499 502.379C331.279 502.153 331.149 501.996 330.969 501.741L330.889 501.623C330.719 501.407 330.589 501.201 330.489 500.985L330.449 500.897L330.399 500.818C330.309 500.651 330.219 500.445 330.129 500.131C329.859 499.247 330.019 498.265 330.549 497.519L330.659 497.46C330.669 497.45 330.769 497.401 330.969 497.372C331.169 497.342 331.299 497.303 331.439 497.303C331.489 497.313 331.539 497.323 331.569 497.332C331.589 497.401 331.619 497.539 331.639 497.774L331.669 498.049C331.739 498.727 331.839 499.856 332.769 500.769L332.739 500.749C332.809 500.818 332.909 500.916 333.019 501.005C333.139 501.142 333.259 501.24 333.359 501.338C333.939 501.849 334.599 502.301 335.259 502.615C335.799 502.89 336.519 503.165 337.369 503.41C340.359 504.264 343.819 504.628 346.499 504.844C349.359 505.07 352.439 505.178 355.669 505.178H356.319C356.949 505.178 357.569 505.158 358.199 505.138C358.799 505.119 359.409 505.099 360.029 505.099L374.829 505.178C377.089 505.197 379.339 505.207 381.589 505.217C385.599 505.227 389.749 505.246 393.879 505.335H393.969C395.949 505.413 397.819 505.482 399.699 505.482C400.989 505.482 402.139 505.443 403.219 505.374C404.989 505.256 406.459 505.05 407.719 504.736C409.259 504.353 410.349 503.852 411.619 502.959C411.819 502.831 412.019 502.664 412.209 502.507L412.329 502.399L413.419 501.525L413.159 500.72L413.219 500.406L412.589 499.473L412.059 499.08C411.389 498.619 410.639 498.255 410.119 498.03C407.619 496.969 404.489 496.193 401.279 495.86C400.319 495.752 399.189 495.742 398.099 495.732C397.609 495.732 397.109 495.722 396.619 495.712L356.889 495.084L351.539 494.583L346.479 494.033C346.189 494.004 345.879 493.965 345.569 493.925C345.079 493.866 344.599 493.798 344.169 493.758C344.729 493.709 345.279 493.68 345.899 493.65L349.409 493.474L357.739 493.091L398.949 493.729C399.489 493.739 400.059 493.739 400.699 493.788C401.479 493.847 402.269 493.935 403.099 494.053C404.749 494.308 406.279 494.642 407.779 495.064C409.199 495.477 410.739 495.987 412.329 496.861C412.719 497.087 413.039 497.274 413.389 497.539L413.739 497.804C413.779 497.843 413.899 497.951 413.999 498.049C414.229 498.255 414.409 498.442 414.549 498.638C415.229 499.483 415.509 500.415 415.349 501.23C415.269 501.731 415.089 502.183 414.819 502.605C414.649 502.88 414.509 503.076 414.349 503.253C414.169 503.459 413.979 503.675 413.849 503.783L413.779 503.832L413.749 503.862C413.069 504.48 412.379 504.912 411.679 505.335C410.419 506.081 408.889 506.621 406.989 506.974C405.569 507.239 404.089 507.387 402.199 507.465C401.369 507.505 400.519 507.524 399.679 507.524Z" fill="#030510"/>
</g>
<path d="M498.859 124.532C498.859 134.012 492.611 137.392 484.96 144.779C483.448 146.236 492.392 154.204 490.434 155.081C488.321 156.037 476.28 152.085 473.985 152.63C471.216 153.292 468.356 153.641 465.46 153.641C448.292 153.641 433.938 147.282 433.938 130.425C433.938 113.568 451.097 98.9561 468.265 98.9561C485.434 98.9471 498.859 107.675 498.859 124.532Z" fill="white"/>
<path d="M580.686 210.597C575.304 218.467 543.982 219.942 533.253 219.844C531.13 219.826 519.572 233.938 517.56 233.195C515.374 232.399 515.565 215.399 513.552 214.192C511.12 212.734 499.553 210.722 497.513 208.71C485.381 196.79 487.112 181.417 499.253 169.496C511.394 157.585 549.565 152.496 565.777 164.658C579.411 174.898 593.62 191.701 580.686 210.597Z" fill="white"/>
<path d="M555.014 121.073C553.739 133.521 563.994 141.99 574.186 147.624C573.221 149.484 566.463 154.957 569.049 156.119C571.836 157.38 583.494 151.192 586.518 151.916C590.171 152.784 605.49 151.845 609.297 151.577C621.201 150.736 638.506 152.882 638.506 130.642C638.506 108.401 619.58 95.6846 596.919 95.6846C574.259 95.6846 556.653 105.164 555.014 121.073Z" fill="white"/>
<path d="M518.705 232.776C518.732 232.829 518.741 232.847 518.705 232.955C518.632 233.285 518.45 233.75 518.085 234.054C517.721 234.35 517.165 234.502 516.273 234.001C516.236 233.983 516.109 233.885 516.072 233.822C516.045 233.777 515.881 233.321 515.608 232.561C515.371 231.801 515.061 230.728 514.825 229.467L514.779 229.225L514.734 229.011C514.633 228.465 514.542 227.92 514.451 227.365C514.114 225.165 513.887 222.948 513.65 220.712C513.531 219.603 513.404 218.476 513.258 217.367C513.185 216.813 513.103 216.258 513.021 215.704L512.958 215.284L512.93 215.15C512.912 215.15 512.967 215.159 512.903 215.15L511.992 215.006C511.382 214.926 510.781 214.783 510.18 214.649C508.968 214.416 507.766 214.068 506.555 213.719C501.782 212.207 497.01 209.802 493.239 205.992C491.354 204.105 489.741 201.905 488.567 199.446C487.383 196.996 486.672 194.286 486.499 191.523C486.317 188.76 486.681 185.961 487.501 183.305C488.321 180.64 489.587 178.118 491.153 175.802C492.72 173.477 494.596 171.366 496.673 169.479C498.758 167.592 500.962 165.839 503.385 164.355L504.278 163.783L505.207 163.264C505.826 162.924 506.436 162.557 507.074 162.236C508.358 161.627 509.624 160.966 510.954 160.456C513.568 159.329 516.309 158.497 519.069 157.764C524.616 156.405 530.344 155.698 536.064 155.788L538.214 155.824L540.354 155.958L541.42 156.029L542.485 156.146L544.617 156.387C547.44 156.816 550.263 157.308 553.005 158.095C558.515 159.553 563.78 161.86 568.543 164.883C570.884 166.456 573.161 168.12 575.155 170.096C576.212 171.026 577.095 172.108 578.043 173.119C578.498 173.646 578.908 174.21 579.336 174.755C579.764 175.301 580.192 175.846 580.556 176.437C583.662 181.006 585.748 186.166 586.659 191.407C587.169 194.018 587.378 196.719 587.114 199.393C586.868 202.066 586.112 204.722 584.801 207.074C583.48 209.426 581.631 211.42 579.564 213.003C577.496 214.586 575.219 215.776 572.906 216.715C568.27 218.566 563.543 219.469 558.989 220.014C554.426 220.542 550.008 220.703 545.782 220.685C544.744 220.685 543.642 220.658 542.649 220.649C541.657 220.631 540.673 220.596 539.735 220.676C538.778 220.694 537.877 220.873 536.966 220.989C536.082 221.204 535.208 221.374 534.388 221.696C532.74 222.286 531.237 223.091 529.88 224.101C529.206 224.62 528.541 225.121 527.931 225.693C527.831 225.782 527.74 225.863 527.649 225.943C527.284 226.256 526.984 226.56 526.729 226.802C526.228 227.294 525.936 227.571 525.936 227.571C525.936 227.571 525.135 228.269 524.051 229.208C522.958 230.155 521.564 231.354 520.353 232.275C516.282 235.45 517.329 233.563 519.297 231.13C519.16 231.229 520.38 229.807 521.619 228.322C522.248 227.58 522.876 226.838 523.368 226.283C523.851 225.72 524.197 225.353 524.197 225.353C524.197 225.353 524.497 225.067 525.016 224.557C525.144 224.432 525.29 224.289 525.454 224.146C525.536 224.074 525.627 223.994 525.709 223.913L525.845 223.788C526.082 223.574 526.328 223.359 526.574 223.144C526.911 222.876 527.248 222.608 527.585 222.331C528.978 221.275 530.518 220.22 532.312 219.505C534.079 218.78 536.01 218.235 537.995 218.029C538.487 217.94 538.988 217.94 539.489 217.904C539.99 217.886 540.5 217.832 540.992 217.832C541.975 217.85 542.968 217.868 543.97 217.877C545.901 217.904 547.923 217.904 549.954 217.841C554.025 217.725 558.26 217.412 562.55 216.67C566.822 215.919 571.193 214.729 575.101 212.565C577.05 211.483 578.853 210.133 580.329 208.478C581.804 206.833 582.943 204.874 583.589 202.71C584.946 198.373 584.409 193.455 583.143 188.733C581.932 183.984 579.554 179.486 576.394 175.542C576.021 175.024 575.574 174.576 575.146 174.103C574.709 173.637 574.308 173.146 573.844 172.707C572.897 171.84 572.013 170.91 570.975 170.132C569.017 168.451 566.794 167.056 564.545 165.723C555.346 160.608 544.398 158.283 533.605 158.587C530.9 158.623 528.204 158.927 525.536 159.284C522.876 159.741 520.226 160.241 517.657 161.037C512.493 162.504 507.62 164.802 503.294 167.753C501.154 169.282 499.123 170.937 497.301 172.77C495.489 174.603 493.904 176.624 492.62 178.78C490.033 183.072 488.794 188.053 489.486 192.784C490.133 197.523 492.683 201.816 496.19 204.937C497.939 206.511 499.915 207.817 501.992 208.881C504.068 209.954 506.254 210.786 508.476 211.385C509.579 211.725 510.717 211.921 511.819 212.181C512.429 212.279 513.039 212.377 513.65 212.467C514.233 212.565 514.825 212.646 515.38 212.753L515.653 214.282L515.781 215.006L515.845 215.436L515.972 216.303C516.045 216.876 516.118 217.448 516.191 218.011C516.318 219.138 516.437 220.256 516.564 221.365C516.801 223.565 517.038 225.711 517.384 227.768C517.43 228.027 517.466 228.286 517.521 228.537L517.548 228.662L517.566 228.769L517.612 228.993C518.058 231.3 518.677 232.695 518.705 232.776Z" fill="#030510"/>
<path d="M569.549 157.113C569.522 157.166 569.512 157.184 569.412 157.229C569.112 157.39 568.62 157.56 568.146 157.479C567.682 157.399 567.208 157.077 567.017 156.102C567.008 156.066 566.999 155.905 567.026 155.834C567.044 155.736 567.955 154.09 569.531 152.069C569.904 151.586 570.287 151.094 570.678 150.593C571.252 149.869 571.853 149.082 572.336 148.385L572.345 148.376L572.044 148.233L571.871 148.152L571.234 147.821C570.778 147.58 570.314 147.338 569.859 147.097C568.966 146.56 568.046 146.051 567.172 145.442C565.414 144.262 563.711 142.939 562.144 141.409C559.02 138.387 556.306 134.675 554.739 130.329C553.146 126.019 552.781 121.065 554.147 116.432C555.477 111.773 558.465 107.668 562.135 104.476C563.975 102.866 566.015 101.498 568.137 100.264C569.221 99.6737 570.296 99.0745 571.434 98.5916C572.545 98.055 573.702 97.6258 574.859 97.1965C584.194 93.8967 594.459 93.2886 604.277 94.9251C609.196 95.721 614.014 97.1876 618.531 99.2534C623.067 101.301 627.238 104.136 630.745 107.615C634.242 111.102 636.874 115.395 638.432 119.965C639.916 124.579 640.253 129.372 639.789 134.014C639.497 136.348 638.951 138.673 637.922 140.837C636.884 142.983 635.399 144.924 633.614 146.462C631.829 148.009 629.788 149.154 627.703 150.003C625.617 150.871 623.477 151.425 621.364 151.828C617.129 152.632 612.984 152.838 609.022 152.892C605.051 152.945 601.253 152.802 597.619 152.713C593.994 152.632 590.533 152.543 587.337 152.784C585.761 152.936 584.276 153.16 582.828 153.562C582.1 153.714 581.407 153.992 580.706 154.206C580.588 154.242 580.478 154.278 580.369 154.314C579.905 154.457 579.504 154.636 579.176 154.752C578.511 155.002 578.138 155.145 578.138 155.145C578.138 155.145 577.108 155.467 575.724 155.905C575.014 156.111 574.212 156.344 573.401 156.576C572.582 156.791 571.744 156.97 570.988 157.122C568.401 157.596 567.591 157.479 567.782 157.148C567.973 156.8 569.157 156.254 570.587 155.628C570.423 155.637 572.145 154.958 573.884 154.117C574.759 153.706 575.642 153.285 576.307 152.963C576.972 152.641 577.445 152.436 577.445 152.436C577.445 152.436 577.837 152.284 578.511 152.024C578.684 151.962 578.866 151.89 579.076 151.81C579.813 151.568 580.606 151.309 581.462 151.032C582.209 150.853 582.956 150.665 583.721 150.477C584.504 150.334 585.306 150.236 586.116 150.111C587.728 149.932 589.359 149.869 591.016 149.851C594.341 149.807 597.783 149.941 601.354 150.021C604.924 150.111 608.64 150.173 612.438 150.003C614.341 149.923 616.254 149.753 618.185 149.52C620.107 149.252 622.038 148.885 623.923 148.358C627.675 147.285 631.3 145.398 633.705 142.321C634.925 140.801 635.763 138.986 636.319 137.045L636.537 136.321C636.601 136.071 636.638 135.82 636.683 135.57C636.765 135.069 636.893 134.568 636.947 134.058C637.038 133.021 637.175 131.993 637.148 130.928C637.257 126.69 636.528 122.388 634.816 118.4C633.04 114.447 630.335 110.834 626.938 107.883C623.513 104.959 619.533 102.58 615.234 100.854C610.935 99.1282 606.363 97.9656 601.718 97.3396C597.064 96.7494 592.346 96.6779 587.701 97.1518C583.056 97.6258 578.502 98.7257 574.258 100.407C573.711 100.595 573.21 100.863 572.691 101.087C572.181 101.328 571.644 101.543 571.152 101.811C570.159 102.356 569.148 102.848 568.21 103.483C567.235 104.056 566.352 104.735 565.441 105.379C564.585 106.086 563.711 106.765 562.937 107.543C559.767 110.566 557.426 114.322 556.552 118.382C555.65 122.433 556.215 126.663 557.8 130.392C559.384 134.13 561.88 137.403 564.813 140.059C566.288 141.382 567.846 142.572 569.485 143.609C570.314 144.101 571.125 144.629 571.99 145.058L572.627 145.389L572.946 145.55L573.101 145.63L573.374 145.755C574.157 146.113 574.932 146.471 575.706 146.829L576.289 147.097L576.434 147.159C576.516 147.168 576.471 147.222 576.434 147.276L576.234 147.58L575.451 148.787C575.187 149.181 574.923 149.619 574.677 149.959L574.239 150.558C573.657 151.363 573.055 152.114 572.482 152.847C572.236 153.16 571.999 153.464 571.771 153.768C570.296 155.7 569.567 157.032 569.549 157.113Z" fill="#030510"/>
<path d="M492.223 154.225C492.269 154.278 492.278 154.296 492.278 154.412C492.341 155.137 492.068 156.46 490.192 156.031C490.156 156.022 490.019 155.968 489.964 155.924L487.104 152.257L482.377 146.212C482.305 146.105 482.177 145.988 482.15 145.89L482.432 145.604L482.997 145.031L484.035 143.985L485.256 142.805L487.687 140.515C489.29 138.995 490.82 137.466 492.168 135.82C493.498 134.175 494.618 132.395 495.447 130.5C496.285 128.586 496.786 126.556 497.032 124.526C497.278 122.487 497.05 120.421 496.577 118.436C496.431 117.944 496.34 117.434 496.149 116.96L495.593 115.52C495.128 114.599 494.691 113.66 494.099 112.802C492.961 111.067 491.604 109.448 489.992 108.08C488.389 106.712 486.658 105.469 484.755 104.503C482.86 103.555 480.829 102.697 478.771 102.035C474.645 100.738 470.309 100.059 465.992 100.246C461.684 100.416 457.404 101.382 453.496 103.144C449.58 104.888 446.055 107.454 443.186 110.602C440.308 113.741 438.122 117.47 436.72 121.485C436.346 122.478 436.073 123.515 435.781 124.544L435.399 126.091C435.281 126.609 435.208 127.128 435.107 127.647C434.78 129.722 434.688 131.814 434.925 133.871C435.362 137.985 437.22 141.857 440.171 144.799C443.104 147.759 447.002 149.78 451.119 150.916C455.254 152.051 459.644 152.329 463.925 151.828C464.462 151.747 464.99 151.703 465.537 151.604C466.083 151.506 466.603 151.399 467.176 151.318C468.333 151.184 469.499 151.023 470.656 150.916C471.821 150.88 472.978 150.773 474.144 150.799L475.893 150.862L476.767 150.898L477.632 150.996L479.663 151.229C479.9 151.256 480.137 151.318 480.365 151.354L481.767 151.622C481.767 151.622 482.04 151.694 482.487 151.81C482.942 151.926 483.552 152.159 484.254 152.4C485.674 152.865 487.387 153.634 488.762 154.296C493.416 156.585 491.221 156.46 488.152 155.718C488.298 155.79 486.467 155.333 484.609 154.913C483.68 154.734 482.733 154.555 482.022 154.421C481.312 154.332 480.838 154.269 480.838 154.269L479.545 154.019C479.326 153.974 479.117 153.956 478.898 153.929L477.486 153.768C476.439 153.608 475.373 153.634 474.308 153.581C473.78 153.545 473.242 153.572 472.714 153.599L471.12 153.67C470.054 153.724 469.016 153.903 467.96 154.01C466.903 154.126 465.783 154.421 464.635 154.529C464.071 154.618 463.497 154.672 462.923 154.707C462.349 154.761 461.775 154.797 461.202 154.815C456.62 154.985 451.975 154.332 447.64 152.713C443.323 151.104 439.288 148.457 436.401 144.763C434.962 142.93 433.823 140.846 433.076 138.637C432.33 136.429 431.965 134.112 431.947 131.823C431.92 129.525 432.22 127.244 432.73 125.053C433.24 122.862 433.896 120.725 434.78 118.633C435.654 116.549 436.72 114.537 437.986 112.65C439.261 110.763 440.727 109.01 442.357 107.409C445.609 104.208 449.534 101.65 453.815 99.987C458.087 98.3058 462.686 97.4473 467.277 97.4473C471.867 97.4652 476.448 98.2432 480.738 99.7813C484.982 101.266 489.227 103.448 492.56 106.649C494.218 108.25 495.757 110.003 496.914 112.015C498.089 114.009 498.981 116.182 499.5 118.454C499.965 120.734 500.047 123.086 499.783 125.393C499.573 126.529 499.409 127.692 499.036 128.774C498.726 129.882 498.334 130.965 497.843 132.011C496.877 134.112 495.611 136.071 494.145 137.815C492.688 139.567 491.085 141.15 489.482 142.662L487.095 144.915L485.866 146.114L489.345 150.558L492.223 154.225Z" fill="#030510"/>
<path d="M511.532 176.99C511.478 177.008 511.46 177.008 511.378 176.963C511.214 176.901 511.077 176.82 510.977 176.668C510.977 176.65 510.904 176.534 510.868 176.48L510.795 176.382L510.786 176.373C510.849 176.463 510.631 176.167 510.931 176.579H510.922L510.895 176.588L510.849 176.597L510.622 176.632C510.503 176.65 510.367 176.632 510.294 176.606C510.221 176.498 510.175 176.382 510.157 176.266C510.121 176.033 510.185 175.792 510.303 175.532L510.348 175.434L510.358 175.407L510.367 175.398C510.348 175.783 510.358 175.506 510.358 175.586V175.595L510.348 175.613C510.33 175.667 510.321 175.72 510.33 175.783C510.339 175.81 510.348 175.845 510.358 175.872L510.367 175.881V175.89C509.838 174.835 510.221 175.595 510.103 175.363H510.093L510.075 175.354C510.057 175.345 510.03 175.336 510.011 175.327C509.993 175.3 510.048 175.219 510.075 175.157C510.175 175.014 510.194 174.942 510.285 174.826C510.367 174.719 510.44 174.62 510.521 174.504C510.549 174.477 510.676 174.352 510.749 174.316C511.177 174.2 511.587 174.102 511.988 174.03L512.607 173.905C513.035 173.833 513.126 173.878 513.354 173.86L515.759 173.798C517.462 173.753 519.165 173.681 520.841 173.807C522.526 173.905 524.22 173.941 525.896 174.084L530.905 174.576C532.572 174.746 534.22 174.987 535.887 175.193C539.211 175.604 542.49 176.105 545.787 176.543L550.724 177.196L551.525 177.294L552.208 177.366L553.575 177.518C553.575 177.518 557.719 178.296 560.77 178.868C565.834 179.789 563.803 180.272 560.569 180.397C560.733 180.424 558.802 180.478 556.844 180.415C554.886 180.326 552.882 180.227 552.882 180.227L551.516 180.084C551.033 180.04 550.751 179.995 549.786 179.87L544.904 179.226C541.661 178.788 538.419 178.305 535.186 177.902C533.574 177.706 531.952 177.455 530.34 177.312L525.495 176.838C523.883 176.713 522.271 176.668 520.659 176.579C519.046 176.445 517.443 176.534 515.841 176.57L513.536 176.623C513.372 176.632 513.063 176.632 513.108 176.632L512.58 176.74C512.206 176.82 511.86 176.91 511.532 176.99Z" fill="#030510"/>
<path d="M508.942 184.976C508.869 184.967 508.851 184.967 508.769 184.887C508.195 184.422 507.439 183.313 509.079 182.294C509.106 182.276 509.252 182.213 509.316 182.204L513.979 182.759C521.293 183.653 528.643 184.476 535.993 185.298L547.013 186.667C548.853 186.917 550.693 187.096 552.524 187.391L555.411 187.856C555.411 187.856 559.646 188.822 562.56 189.725C567.533 191.12 565.375 191.397 562.187 191.227C562.497 191.335 554.609 190.548 554.609 190.548L551.467 190.047L546.075 189.358C542.478 188.911 538.889 188.437 535.282 188.026C528.069 187.221 520.846 186.416 513.615 185.531L508.942 184.976Z" fill="#030510"/>
<path d="M508.713 194.323C508.686 194.323 508.667 194.314 508.64 194.251C508.412 193.831 508.157 192.794 508.968 191.667C508.986 191.649 509.05 191.568 509.077 191.568C509.241 191.586 520.799 192.731 520.799 192.731C520.799 192.731 522.675 193.205 523.95 193.75C526.127 194.564 525.134 195.083 523.714 195.271C523.85 195.342 520.344 195.467 520.344 195.467C520.344 195.467 508.877 194.341 508.713 194.323Z" fill="#030510"/>
<path d="M573.075 109.965C573.002 109.957 572.984 109.957 572.902 109.876C572.328 109.411 571.572 108.293 573.212 107.283C573.239 107.265 573.385 107.202 573.448 107.202L578.112 107.783L597.457 110.189L607.13 111.521L611.966 112.201L614.817 112.684C614.817 112.684 619.043 113.686 621.957 114.607C626.921 116.046 624.762 116.306 621.575 116.109C621.884 116.225 614.006 115.367 614.006 115.367L612.667 115.143C612.193 115.072 611.911 115.009 610.973 114.866L606.237 114.213L596.765 112.917L577.757 110.556L573.075 109.965Z" fill="#00E2C5"/>
<path d="M571.317 119.096C571.244 119.087 571.226 119.087 571.144 119.007C570.57 118.551 569.814 117.451 571.454 116.422C571.481 116.405 571.627 116.342 571.691 116.333L576.363 116.843L611.037 120.617C611.037 120.617 615.299 121.368 618.259 122.119C623.287 123.264 621.165 123.648 617.959 123.639C618.278 123.738 610.335 123.335 610.335 123.335L576.017 119.606L571.317 119.096Z" fill="#00E2C5"/>
<path d="M570.003 127.95C569.93 127.932 569.902 127.932 569.82 127.843C569.675 127.709 569.52 127.53 569.392 127.324C569.32 127.217 569.274 127.11 569.21 126.975C569.201 126.94 569.183 126.913 569.183 126.877C569.156 126.832 569.128 126.788 569.119 126.752C569.083 126.662 569.11 126.609 569.137 126.555C569.192 126.448 569.265 126.349 569.356 126.26C569.429 126.153 569.593 126.135 569.629 125.992C569.702 125.732 569.975 125.518 570.367 125.294C570.394 125.276 570.531 125.223 570.595 125.223C572.061 125.518 573.628 125.75 575.158 125.992C579.539 126.653 583.947 127.262 588.355 127.861L590.951 128.21C590.951 128.21 595.186 129.059 598.128 129.873C603.137 131.125 601.024 131.465 597.818 131.384C598.137 131.491 590.195 130.91 590.195 130.91L587.963 130.615C583.546 130.016 579.138 129.417 574.72 128.746C573.154 128.505 571.615 128.272 570.003 127.95Z" fill="#00E2C5"/>
<path d="M442.074 131.492C442.02 131.528 442.001 131.545 441.883 131.545C441.145 131.599 439.77 131.367 440.198 129.524C440.207 129.489 440.262 129.354 440.307 129.301C441.573 128.353 442.83 127.396 444.105 126.466C451.036 121.601 458.441 117.523 465.955 113.749L468.305 112.578C468.305 112.578 469.307 112.184 470.673 111.648C472.039 111.12 473.77 110.485 475.227 110.038C480.118 108.384 478.533 109.815 475.819 111.469C475.983 111.433 474.316 112.345 472.64 113.302C470.955 114.25 469.234 115.225 469.234 115.225L467.239 116.227C459.798 119.965 452.512 123.989 445.763 128.728C444.524 129.641 443.304 130.58 442.074 131.492Z" fill="#030510"/>
<path d="M447.23 136.391C447.175 136.427 447.157 136.445 447.039 136.436C446.319 136.454 444.926 136.186 445.427 134.361C445.436 134.325 445.499 134.191 445.545 134.138C446.201 133.682 446.857 133.208 447.521 132.778L449.516 131.508C453.961 128.736 458.478 126.134 462.987 123.541L465.254 122.244C465.254 122.244 469.134 120.357 471.967 119.23C476.694 117.191 475.255 118.738 472.677 120.607C472.996 120.5 466.366 124.828 466.366 124.828L464.426 125.937C459.926 128.531 455.427 131.124 451.055 133.851L449.097 135.095C448.46 135.515 447.858 135.962 447.23 136.391Z" fill="#030510"/>
<path d="M449.79 142.268C449.763 142.286 449.754 142.295 449.681 142.259C449.217 142.098 448.206 141.562 448.078 140.176C448.078 140.149 448.078 140.05 448.105 140.023C448.151 140.006 448.852 139.478 449.936 138.798C450.492 138.485 451.12 138.092 451.812 137.725C452.514 137.376 453.242 136.983 453.989 136.634C455.483 135.937 456.958 135.284 458.069 134.801C459.172 134.327 459.9 134.005 459.9 134.005C459.9 134.005 460.392 133.871 461.093 133.683C461.785 133.513 462.66 133.316 463.398 133.182C465.875 132.637 465.31 133.603 464.044 134.586C464.135 134.577 463.352 135.114 462.541 135.606C461.722 136.107 460.893 136.607 460.893 136.607C460.893 136.607 460.164 136.92 459.08 137.394C457.997 137.868 456.558 138.503 455.155 139.165C454.463 139.514 453.78 139.863 453.124 140.193C452.505 140.551 451.922 140.891 451.421 141.177C450.446 141.794 449.836 142.25 449.79 142.268Z" fill="#030510"/>
<path fill-rule="evenodd" clip-rule="evenodd" d="M211.124 206.708C208.838 206.708 207.636 205.867 206.707 203.604C206.643 203.444 206.571 203.291 206.534 203.131L204.512 193.83C202.472 184.458 200.359 174.755 198.355 165.213C198.073 163.854 198.046 162.405 198.027 160.867C198.018 160.223 198.009 159.633 197.982 159.034C197.845 155.85 199.047 153.713 202.017 151.898C210.232 146.854 215.706 139.601 221.398 130.256C225.36 123.764 224.495 118.792 218.411 113.086C217.855 112.559 217.254 112.085 216.68 111.62C215.961 111.047 215.314 110.52 214.759 109.947C211.607 106.657 206.088 104.689 200.004 104.689C193.674 104.689 187.817 106.809 184.338 110.35C183.828 110.869 183.318 111.378 182.808 111.897C179.019 115.698 175.094 119.623 173.299 125.177C172.616 127.287 172.124 129.621 171.751 132.537C171.332 135.783 172.461 138.546 175.012 140.532C176.223 141.479 177.48 142.463 178.555 143.572C179.866 144.922 180.567 146.443 180.513 147.856C180.467 149.063 179.884 150.199 178.819 151.164C174.656 154.902 169.556 157.433 163.654 158.694C163.372 158.757 163.035 158.784 162.689 158.784C161.751 158.784 160.794 158.551 160.257 158.202C157.26 156.244 154.009 155.144 150.867 154.08L150.129 153.829C148.171 153.159 146.404 152.103 145.274 150.923C139.883 145.298 135.092 139.485 135.738 130.346C136.522 119.257 140.948 110.815 149.255 104.528C152.907 101.774 157.324 99.3146 163.162 96.8195C175.33 91.597 194.621 87.7516 209.03 87.6801C210.032 87.6264 210.906 87.5996 211.771 87.5996C225.451 87.5996 236.426 93.9042 246.308 107.452C249.359 111.629 251.063 116.404 251.39 121.645C251.636 125.535 251.664 129.514 251.691 133.351V133.672C251.727 139.682 249.441 144.833 244.897 148.982C240.652 152.855 237.1 155.788 233.712 158.211C229.395 161.305 227.355 165.222 227.318 170.543C227.273 176.893 227.218 184.083 229.122 191.067C230.051 194.483 230.761 198.14 231.226 201.941C231.38 203.247 231.207 204.23 230.688 204.839C230.16 205.474 229.167 205.84 227.755 205.939C222.837 206.287 217.637 206.529 211.389 206.708H211.124Z" fill="white"/>
<path fill-rule="evenodd" clip-rule="evenodd" d="M230.056 258.038C224.728 258.038 220.092 257.073 215.902 255.087C208.907 251.778 206.566 247.522 207.55 239.929C208.616 231.774 215.556 224.405 224.072 222.411C227.269 221.659 230.766 221.552 234.145 221.454L235.438 221.418C238.672 221.418 241.003 223.054 242.351 226.274C243.353 228.688 244.082 231.398 244.501 234.349C244.738 236.03 244.683 237.774 244.619 239.616C244.592 240.466 244.565 241.307 244.565 242.147V243.846H244.683C244.692 244.088 244.701 244.687 244.701 244.687C244.738 246.458 244.783 248.282 244.628 250.044C244.246 254.372 242.078 256.849 238.162 257.403C235.193 257.833 232.542 258.038 230.056 258.038Z" fill="white"/>
<path fill-rule="evenodd" clip-rule="evenodd" d="M211.124 206.708C208.838 206.708 207.636 205.867 206.707 203.604C206.643 203.444 206.571 203.291 206.534 203.131L204.512 193.83C202.472 184.458 200.359 174.755 198.355 165.213C198.073 163.854 198.046 162.405 198.027 160.867C198.018 160.223 198.009 159.633 197.982 159.034C197.845 155.85 199.047 153.713 202.017 151.898C210.232 146.854 215.706 139.601 221.398 130.256C225.36 123.764 224.495 118.792 218.411 113.086C217.855 112.559 217.254 112.085 216.68 111.62C215.961 111.047 215.314 110.52 214.759 109.947C211.607 106.657 206.088 104.689 200.004 104.689C193.674 104.689 187.817 106.809 184.338 110.35C183.828 110.869 183.318 111.378 182.808 111.897C179.019 115.698 175.094 119.623 173.299 125.177C172.616 127.287 172.124 129.621 171.751 132.537C171.332 135.783 172.461 138.546 175.012 140.532C176.223 141.479 177.48 142.463 178.555 143.572C179.866 144.922 180.567 146.443 180.513 147.856C180.467 149.063 179.884 150.199 178.819 151.164C174.656 154.902 169.556 157.433 163.654 158.694C163.372 158.757 163.035 158.784 162.689 158.784C161.751 158.784 160.794 158.551 160.257 158.202C157.26 156.244 154.009 155.144 150.867 154.08L150.129 153.829C148.171 153.159 146.404 152.103 145.274 150.923C139.883 145.298 135.092 139.485 135.738 130.346C136.522 119.257 140.948 110.815 149.255 104.528C152.907 101.774 157.324 99.3146 163.162 96.8195C175.33 91.597 194.621 87.7516 209.03 87.6801C210.032 87.6264 210.906 87.5996 211.771 87.5996C225.451 87.5996 236.426 93.9042 246.308 107.452C249.359 111.629 251.063 116.404 251.39 121.645C251.636 125.535 251.664 129.514 251.691 133.351V133.672C251.727 139.682 249.441 144.833 244.897 148.982C240.652 152.855 237.1 155.788 233.712 158.211C229.395 161.305 227.355 165.222 227.318 170.543C227.273 176.893 227.218 184.083 229.122 191.067C230.051 194.483 230.761 198.14 231.226 201.941C231.38 203.247 231.207 204.23 230.688 204.839C230.16 205.474 229.167 205.84 227.755 205.939C222.837 206.287 217.637 206.529 211.389 206.708H211.124ZM199.475 100.862C203.456 100.862 207.545 101.836 211.653 103.75C217.017 106.254 221.307 110.717 224.795 114.759C226.262 116.458 227 118.55 227.054 121.162C227.136 125.606 226.353 129.031 224.586 131.92C222.855 134.737 221.234 137.089 219.64 139.128C214.95 145.11 209.631 151.88 202.599 156.181L201.871 156.628L201.798 157.469C201.215 164.212 202.344 169.908 203.538 174.585C204.658 179.012 205.687 183.501 206.689 187.838C207.354 190.754 208.028 193.678 208.729 196.584C209.002 197.72 209.394 198.766 209.804 199.866C209.986 200.349 210.168 200.841 210.341 201.351L210.724 202.442L211.899 202.496C212.554 202.522 213.201 202.567 213.848 202.603C215.241 202.683 216.635 202.773 218.028 202.773C221.18 202.773 223.693 202.335 226.18 201.369L227.5 200.85L227.236 199.473C227.045 198.516 226.881 197.577 226.717 196.647C226.335 194.51 225.989 192.551 225.46 190.575C223.493 183.153 223.73 175.399 223.939 168.558C224.103 163.425 226.107 159.562 230.069 156.745C231.672 155.609 233.202 154.375 234.696 153.185L234.778 153.114C235.98 152.148 237.228 151.147 238.494 150.208C246.044 144.618 249.287 137.732 248.403 129.156C248.33 128.45 248.339 127.717 248.348 126.93C248.358 126.339 248.358 125.776 248.33 125.222C247.529 106.943 231.025 91.1499 212.299 90.7296C211.534 90.7117 210.76 90.7027 209.995 90.7027C198.373 90.7027 185.968 92.688 172.079 96.7838C164.11 99.1357 158.035 101.881 152.952 105.431C142.897 112.442 138.307 121.206 138.89 132.233C139.345 140.907 145.11 148.911 152.907 151.692C154.901 152.407 156.887 153.194 158.991 154.035C160.093 154.473 161.14 154.894 162.242 155.323L162.834 155.555L163.754 155.242C167.516 153.963 171.778 152.524 175.759 148.687L176.97 147.534L175.813 146.326C175.376 145.861 175.012 145.45 174.693 145.092C174.046 144.35 173.491 143.724 172.753 143.223C168.955 140.63 167.498 136.829 168.163 131.249C168.427 129.004 168.964 126.76 169.747 124.56C172.762 116.091 178.637 109.259 187.207 104.251C191.06 102.006 195.186 100.862 199.475 100.862Z" fill="#00E2C5"/>
<path fill-rule="evenodd" clip-rule="evenodd" d="M230.056 258.038C224.728 258.038 220.092 257.073 215.902 255.087C208.907 251.778 206.566 247.522 207.55 239.929C208.616 231.774 215.556 224.405 224.072 222.411C227.269 221.659 230.766 221.552 234.145 221.454L235.438 221.418C238.672 221.418 241.003 223.054 242.351 226.274C243.353 228.688 244.082 231.398 244.501 234.349C244.738 236.03 244.683 237.774 244.619 239.616C244.592 240.466 244.565 241.307 244.565 242.147V243.846H244.683C244.692 244.088 244.701 244.687 244.701 244.687C244.738 246.458 244.783 248.282 244.628 250.044C244.246 254.372 242.078 256.849 238.162 257.403C235.193 257.833 232.542 258.038 230.056 258.038ZM231.212 223.6C221.002 223.6 211.011 232.561 210.647 242.031C210.483 246.323 212.277 249.525 215.975 251.537C220.046 253.746 224.609 254.828 229.919 254.828C232.059 254.828 234.382 254.658 237.005 254.3C239.519 253.96 241.286 251.939 241.413 249.266C241.513 247.289 241.486 245.232 241.468 243.426C241.459 242.657 241.45 241.897 241.45 241.128C241.45 240.421 241.468 239.706 241.486 238.99C241.523 237.273 241.568 235.494 241.386 233.723C241.131 231.228 240.566 229.252 239.655 227.696C238.818 226.256 236.987 224.494 234.938 224.02C233.735 223.743 232.478 223.6 231.212 223.6Z" fill="#00E2C5"/>
<path fill-rule="evenodd" clip-rule="evenodd" d="M412.34 303.629C420.983 304.738 419.517 308.101 420.163 322.964C420.355 327.426 421.22 326.022 446.886 326.675C455.101 326.88 456.968 327.641 456.422 330.905C452.533 354.031 460.593 359.029 453.48 358.86C452.023 358.824 427.258 358.171 427.103 360.317C426.694 366.023 425.337 378.274 431.193 378.355C458.781 378.73 459.191 378.104 459.692 382.504C461.404 397.51 460.375 397.877 464.054 398.172C472.57 398.86 473.8 399.907 473.882 402.428C474.628 426.332 475.585 425.68 472.989 425.769C456.067 426.323 447.259 427.048 442.614 426.914C437.295 426.762 437.432 425.465 437.058 421.485C436.066 410.718 435.027 404.834 435.565 401.615C436.375 396.759 440.756 397.93 454.19 397.546C458.753 397.421 458.143 397.796 456.449 383.872C456.24 382.146 455.256 381.172 453.471 381.127C445.565 380.885 437.632 380.233 429.763 380.698C387.712 383.211 389.369 375.591 390.481 394.353C390.663 397.519 392.466 396.768 404.234 397.555C406.729 397.725 407.604 397.608 408.305 400.023C409.052 402.616 409.589 408.116 411.702 420.001C412.349 423.623 408.314 423.444 404.334 424.025C389.133 426.225 383.604 427.978 380.662 424.91C378.076 422.219 377.475 415.798 374.05 402.697C373.485 400.533 373.567 399.558 384.46 397.251C388.058 396.491 386.929 396.204 387.038 383.908C387.093 378.516 391.483 379.508 396.756 379.338C425.838 378.408 423.743 379.151 423.643 376.754C423.041 362.642 425.182 359.11 420.008 359.414C379.897 361.766 392.876 365.987 385.253 331.701C384.36 327.712 384.151 327.632 412.139 326.666C418.606 326.442 416.201 327.542 415.564 309.889C415.4 305.454 414.38 305.874 389.488 304.64C349.905 302.664 330.287 302.914 320.669 303.442C310.049 304.023 311.615 305.123 311.825 307.779C313.464 328.052 313.92 327.381 316.024 327.39C349.185 327.56 349.113 326.898 349.094 330.252C349.022 345.973 350.779 354.093 350.67 357.715C350.552 361.766 345.57 360.791 318.583 361.372C314.512 361.462 316.953 364.645 317.044 374.491C317.071 377.434 317.29 376.897 335.943 377.362C349.796 377.711 350.069 376.504 350.133 381.342C350.297 394.228 350.333 394.031 353.093 394.478C363.585 396.178 365.47 396.169 365.561 399.88C365.962 415.288 367.747 420.654 365.671 422.576C363.33 424.741 356.098 422.55 336.498 425.42C333.037 425.93 332.309 425.51 331.899 422.085C328.766 395.981 328.155 395.918 332.008 395.489C346.918 393.826 347.746 394.693 347.072 390.678C345.907 383.711 348.648 379.651 343.42 379.455C284.447 377.237 281.924 376.495 282.115 382.325C282.306 388.004 279.938 394.201 286.022 393.897C297.362 393.325 297.808 394.371 297.853 397.09C298.045 409.109 299.393 415.378 299.502 418.534C299.575 420.609 298.782 419.956 287.37 419.84C277.543 419.742 272.297 420.546 269.382 420.672C266.267 420.806 265.812 420.171 265.265 416.844C263.444 405.728 262.396 400.13 262.196 397.286C262.005 394.425 262.67 394.326 264.282 394.174C273.954 393.244 276.951 393.826 277.916 392.931C278.426 392.457 278.372 391.572 278.435 389.828C278.772 380.286 278.344 377.425 280.603 376.995C284.355 376.289 286.915 375.618 310.486 376.298C314.976 376.432 313.483 374.617 312.827 364.395C312.708 362.499 312.617 361.891 308.373 361.498C304.475 361.131 297.079 360.952 282.944 360.112C280.139 359.942 279.301 360.156 278.745 355.819C278.244 351.983 277.971 344.56 276.732 330.127C276.559 328.097 276.65 327.256 282.042 326.997C286.323 326.791 293.937 326.952 307.417 327.167C311.37 327.229 310.431 326.907 308.309 307.904C307.581 301.492 307.244 301.027 313.519 300.938C336.635 300.634 348.147 301.161 353.849 301.081C360.47 300.991 359.259 300.088 359.313 296.1C359.559 278.178 361.162 277.23 356.253 277.248C334.221 277.356 306.415 264.639 310.85 247.916C316.798 225.488 357.683 208.202 391.228 225.434C409.835 234.994 420.682 262.734 397.357 272.491C375.708 281.55 362.784 272.938 362.82 281.442C362.847 287.13 362.692 291.244 362.62 294.213C362.456 300.821 362.702 301.76 366.272 301.841C401.893 302.61 410.891 303.442 412.34 303.629ZM406.939 258.585C408.46 249.589 404.206 229.619 377.037 223.333C370.962 221.929 364.714 220.087 358.594 220.274C320.778 221.464 294.065 256.412 333.001 270.926C351.39 277.785 403.359 279.725 406.939 258.585ZM344.568 358.216C347.018 358.055 347.774 357.277 347.464 354.603C344.54 329.563 347.109 329.975 343.183 329.885C282.069 328.553 280.302 327.363 280.767 333.194C282.78 358.967 280.111 357.742 287.234 358.01C288.691 358.073 316.607 360.04 344.568 358.216ZM452.66 334.142C452.897 329.671 452.442 329.107 447.788 328.687C444.254 328.374 387.812 326.272 388.823 332.836C393.65 364.297 389.042 358.18 410.427 357.59C455.374 356.356 453.088 357.599 452.779 353.959C452.66 352.519 451.977 346.59 452.66 334.142ZM440.301 420.868C440.419 423.301 440.72 424.168 444.946 424.293C448.78 424.41 455.857 423.9 468.982 423.408C471.805 423.301 471.158 422.317 470.758 405.979C470.667 402.08 469.965 401.168 466.049 400.586C453.243 398.699 446.931 399.522 442.66 399.907C440.355 400.112 439.317 401.346 438.962 403.376C438.306 407.07 439.937 413.383 440.301 420.868ZM332.955 400.989C334.212 410.441 334.385 415.95 334.813 419.035C335.269 422.254 335.997 422.845 338.547 422.55C358.995 420.216 362.829 422.711 362.702 419.259C362.337 409.386 362.456 404.137 362.082 401.275C361.736 398.619 360.971 398.029 358.995 397.689C355.798 397.152 343.839 396.043 337.209 397.304C334.048 397.912 332.618 398.458 332.955 400.989ZM405.563 421.915C408.715 421.476 408.706 421.539 405.099 402.58C404.926 401.668 404.006 400.318 403.25 400.193C397.986 399.307 382.384 400.068 381.218 400.309C376.382 401.329 377.329 404.244 381.992 420.224C384.169 427.674 391.337 423.882 405.563 421.915ZM293.764 417.881C297.708 418.15 295.54 416.934 294.201 398.351C294.01 395.659 294.584 396.222 272.124 395.695C266.741 395.569 265.803 396.008 266.103 398.011C268.981 416.889 267.479 418.293 271.832 418.069C273.289 417.998 283.345 417.193 293.764 417.881Z" fill="#00E2C5"/>
<defs>
<clipPath id="clip0_9201_16840">
<rect width="85.4" height="14.4333" fill="white" transform="translate(330 493.091)"/>
</clipPath>
</defs>
</svg>
