<?xml version="1.0" encoding="UTF-8"?>
<svg xmlns="http://www.w3.org/2000/svg" width="710" height="140" viewBox="0 0 710 140" fill="none">
  <path d="M141 1L104.75 0.999999C86.6626 0.999999 71.9999 15.6627 71.9999 33.7501L71.9999 70.0001L141 70.0001L141 1Z" stroke="url(#paint0_linear_8938_31107)" stroke-width="2"></path>
  <path d="M70 72L33.7499 72C15.6626 72 0.999885 86.6627 0.999885 104.75L0.999884 141L70 141L70 72Z" stroke="url(#paint1_linear_8938_31107)" stroke-width="2"></path>
  <path d="M70 1L33.7499 0.999999C15.6626 0.999999 0.999885 15.6627 0.999885 33.7501L0.999884 70.0001L70 70.0001L70 1Z" stroke="url(#paint2_linear_8938_31107)" stroke-width="2"></path>
  <path d="M141 72L104.75 72C86.6626 72 71.9999 86.6627 71.9999 104.75L71.9999 141L141 141L141 72Z" stroke="url(#paint3_linear_8938_31107)" stroke-width="2"></path>
  <path d="M105.5 36.5L69.2499 36.5C51.1626 36.5 36.4999 51.1627 36.4999 69.2501L36.4999 105.5L105.5 105.5L105.5 36.5Z" stroke="url(#paint4_linear_8938_31107)" stroke-width="2"></path>
  <path d="M143 141L179.25 141C197.337 141 212 126.337 212 108.25L212 71.9999L143 71.9999L143 141Z" stroke="url(#paint5_linear_8938_31107)" stroke-width="2"></path>
  <path d="M214 70L250.25 70C268.337 70 283 55.3373 283 37.2499L283 0.999887L214 0.999886L214 70Z" stroke="url(#paint6_linear_8938_31107)" stroke-width="2"></path>
  <path d="M214 141L250.25 141C268.337 141 283 126.337 283 108.25L283 71.9999L214 71.9999L214 141Z" stroke="url(#paint7_linear_8938_31107)" stroke-width="2"></path>
  <path d="M143 70L179.25 70C197.337 70 212 55.3373 212 37.2499L212 0.999887L143 0.999886L143 70Z" stroke="url(#paint8_linear_8938_31107)" stroke-width="2"></path>
  <path d="M178.498 105.5L214.748 105.5C232.835 105.5 247.498 90.8373 247.498 72.7499L247.498 36.4999L178.498 36.4999L178.498 105.5Z" stroke="url(#paint9_linear_8938_31107)" stroke-width="2"></path>
  <path d="M425 1L388.75 0.999999C370.663 0.999999 356 15.6627 356 33.7501L356 70.0001L425 70.0001L425 1Z" stroke="url(#paint10_linear_8938_31107)" stroke-width="2"></path>
  <path d="M354 72L317.75 72C299.663 72 285 86.6627 285 104.75L285 141L354 141L354 72Z" stroke="url(#paint11_linear_8938_31107)" stroke-width="2"></path>
  <path d="M354 1L317.75 0.999999C299.663 0.999999 285 15.6627 285 33.7501L285 70.0001L354 70.0001L354 1Z" stroke="url(#paint12_linear_8938_31107)" stroke-width="2"></path>
  <path d="M425 72L388.75 72C370.663 72 356 86.6627 356 104.75L356 141L425 141L425 72Z" stroke="url(#paint13_linear_8938_31107)" stroke-width="2"></path>
  <path d="M389.502 36.5L353.252 36.5C335.165 36.5 320.502 51.1627 320.502 69.2501L320.502 105.5L389.502 105.5L389.502 36.5Z" stroke="url(#paint14_linear_8938_31107)" stroke-width="2"></path>
  <path d="M427 1L463.25 0.999999C481.337 0.999999 496 15.6627 496 33.7501L496 70.0001L427 70.0001L427 1Z" stroke="url(#paint15_linear_8938_31107)" stroke-width="2"></path>
  <path d="M498 72L534.25 72C552.337 72 567 86.6627 567 104.75L567 141L498 141L498 72Z" stroke="url(#paint16_linear_8938_31107)" stroke-width="2"></path>
  <path d="M498 1L534.25 0.999999C552.337 0.999999 567 15.6627 567 33.7501L567 70.0001L498 70.0001L498 1Z" stroke="url(#paint17_linear_8938_31107)" stroke-width="2"></path>
  <path d="M427 72L463.25 72C481.337 72 496 86.6627 496 104.75L496 141L427 141L427 72Z" stroke="url(#paint18_linear_8938_31107)" stroke-width="2"></path>
  <path d="M462.498 36.5L498.748 36.5C516.835 36.5 531.498 51.1627 531.498 69.2501L531.498 105.5L462.498 105.5L462.498 36.5Z" stroke="url(#paint19_linear_8938_31107)" stroke-width="2"></path>
  <path d="M709.002 141L672.752 141C654.665 141 640.002 126.337 640.002 108.25L640.002 71.9999L709.002 71.9999L709.002 141Z" stroke="url(#paint20_linear_8938_31107)" stroke-width="2"></path>
  <path d="M638.002 70L601.752 70C583.665 70 569.002 55.3373 569.002 37.25L569.002 0.99991L638.002 0.999908L638.002 70Z" stroke="url(#paint21_linear_8938_31107)" stroke-width="2"></path>
  <path d="M638.002 141L601.752 141C583.665 141 569.002 126.337 569.002 108.25L569.002 71.9999L638.002 71.9999L638.002 141Z" stroke="url(#paint22_linear_8938_31107)" stroke-width="2"></path>
  <path d="M709.002 70L672.752 70C654.665 70 640.002 55.3373 640.002 37.25L640.002 0.99991L709.002 0.999908L709.002 70Z" stroke="url(#paint23_linear_8938_31107)" stroke-width="2"></path>
  <path d="M673.504 105.5L637.254 105.5C619.167 105.5 604.504 90.8373 604.504 72.75L604.504 36.4999L673.504 36.4999L673.504 105.5Z" stroke="url(#paint24_linear_8938_31107)" stroke-width="2"></path>
  <defs>
    <linearGradient id="paint0_linear_8938_31107" x1="70.929" y1="-0.0710346" x2="142.071" y2="71.0713" gradientUnits="userSpaceOnUse">
      <stop stop-color="#00E2C5"></stop>
      <stop offset="1" stop-color="#00E2C5" stop-opacity="0"></stop>
    </linearGradient>
    <linearGradient id="paint1_linear_8938_31107" x1="-0.0709736" y1="70.929" x2="71.071" y2="142.071" gradientUnits="userSpaceOnUse">
      <stop stop-color="#00E2C5"></stop>
      <stop offset="1" stop-color="#00E2C5" stop-opacity="0"></stop>
    </linearGradient>
    <linearGradient id="paint2_linear_8938_31107" x1="-0.0709801" y1="-1.15785e-06" x2="71.071" y2="70.9293" gradientUnits="userSpaceOnUse">
      <stop stop-color="white"></stop>
      <stop offset="1" stop-color="white" stop-opacity="0"></stop>
    </linearGradient>
    <linearGradient id="paint3_linear_8938_31107" x1="70.929" y1="70.929" x2="142.071" y2="142.071" gradientUnits="userSpaceOnUse">
      <stop stop-color="#00E2C5"></stop>
      <stop offset="1" stop-color="#00E2C5" stop-opacity="0"></stop>
    </linearGradient>
    <linearGradient id="paint4_linear_8938_31107" x1="35.429" y1="35.5" x2="106.571" y2="106.429" gradientUnits="userSpaceOnUse">
      <stop stop-color="white"></stop>
      <stop offset="1" stop-color="white" stop-opacity="0"></stop>
    </linearGradient>
    <linearGradient id="paint5_linear_8938_31107" x1="213.071" y1="142.071" x2="141.929" y2="70.9288" gradientUnits="userSpaceOnUse">
      <stop stop-color="#00E2C5"></stop>
      <stop offset="1" stop-color="#00E2C5" stop-opacity="0"></stop>
    </linearGradient>
    <linearGradient id="paint6_linear_8938_31107" x1="284.071" y1="71.071" x2="212.929" y2="-0.0712318" gradientUnits="userSpaceOnUse">
      <stop stop-color="#00E2C5"></stop>
      <stop offset="1" stop-color="#00E2C5" stop-opacity="0"></stop>
    </linearGradient>
    <linearGradient id="paint7_linear_8938_31107" x1="284.071" y1="142" x2="212.929" y2="71.0707" gradientUnits="userSpaceOnUse">
      <stop stop-color="white"></stop>
      <stop offset="1" stop-color="white" stop-opacity="0"></stop>
    </linearGradient>
    <linearGradient id="paint8_linear_8938_31107" x1="213.071" y1="71.071" x2="141.929" y2="-0.0712318" gradientUnits="userSpaceOnUse">
      <stop stop-color="#00E2C5"></stop>
      <stop offset="1" stop-color="#00E2C5" stop-opacity="0"></stop>
    </linearGradient>
    <linearGradient id="paint9_linear_8938_31107" x1="248.569" y1="106.5" x2="177.427" y2="35.5707" gradientUnits="userSpaceOnUse">
      <stop stop-color="white"></stop>
      <stop offset="1" stop-color="white" stop-opacity="0"></stop>
    </linearGradient>
    <linearGradient id="paint10_linear_8938_31107" x1="354.929" y1="-0.0710346" x2="426.071" y2="71.0713" gradientUnits="userSpaceOnUse">
      <stop stop-color="#00E2C5"></stop>
      <stop offset="1" stop-color="#00E2C5" stop-opacity="0"></stop>
    </linearGradient>
    <linearGradient id="paint11_linear_8938_31107" x1="283.929" y1="70.929" x2="355.071" y2="142.071" gradientUnits="userSpaceOnUse">
      <stop stop-color="#00E2C5"></stop>
      <stop offset="1" stop-color="#00E2C5" stop-opacity="0"></stop>
    </linearGradient>
    <linearGradient id="paint12_linear_8938_31107" x1="283.929" y1="-1.15785e-06" x2="355.071" y2="70.9293" gradientUnits="userSpaceOnUse">
      <stop stop-color="white"></stop>
      <stop offset="1" stop-color="white" stop-opacity="0"></stop>
    </linearGradient>
    <linearGradient id="paint13_linear_8938_31107" x1="354.929" y1="70.929" x2="426.071" y2="142.071" gradientUnits="userSpaceOnUse">
      <stop stop-color="#00E2C5"></stop>
      <stop offset="1" stop-color="#00E2C5" stop-opacity="0"></stop>
    </linearGradient>
    <linearGradient id="paint14_linear_8938_31107" x1="319.431" y1="35.5" x2="390.573" y2="106.429" gradientUnits="userSpaceOnUse">
      <stop stop-color="white"></stop>
      <stop offset="1" stop-color="white" stop-opacity="0"></stop>
    </linearGradient>
    <linearGradient id="paint15_linear_8938_31107" x1="497.071" y1="-0.0710346" x2="425.929" y2="71.0712" gradientUnits="userSpaceOnUse">
      <stop stop-color="#00E2C5"></stop>
      <stop offset="1" stop-color="#00E2C5" stop-opacity="0"></stop>
    </linearGradient>
    <linearGradient id="paint16_linear_8938_31107" x1="568.071" y1="70.929" x2="496.929" y2="142.071" gradientUnits="userSpaceOnUse">
      <stop stop-color="#00E2C5"></stop>
      <stop offset="1" stop-color="#00E2C5" stop-opacity="0"></stop>
    </linearGradient>
    <linearGradient id="paint17_linear_8938_31107" x1="568.071" y1="-1.15785e-06" x2="496.929" y2="70.9293" gradientUnits="userSpaceOnUse">
      <stop stop-color="white"></stop>
      <stop offset="1" stop-color="white" stop-opacity="0"></stop>
    </linearGradient>
    <linearGradient id="paint18_linear_8938_31107" x1="497.071" y1="70.929" x2="425.929" y2="142.071" gradientUnits="userSpaceOnUse">
      <stop stop-color="#00E2C5"></stop>
      <stop offset="1" stop-color="#00E2C5" stop-opacity="0"></stop>
    </linearGradient>
    <linearGradient id="paint19_linear_8938_31107" x1="532.569" y1="35.5" x2="461.427" y2="106.429" gradientUnits="userSpaceOnUse">
      <stop stop-color="white"></stop>
      <stop offset="1" stop-color="white" stop-opacity="0"></stop>
    </linearGradient>
    <linearGradient id="paint20_linear_8938_31107" x1="638.931" y1="142.071" x2="710.073" y2="70.9288" gradientUnits="userSpaceOnUse">
      <stop stop-color="#00E2C5"></stop>
      <stop offset="1" stop-color="#00E2C5" stop-opacity="0"></stop>
    </linearGradient>
    <linearGradient id="paint21_linear_8938_31107" x1="567.931" y1="71.071" x2="639.073" y2="-0.0712165" gradientUnits="userSpaceOnUse">
      <stop stop-color="#00E2C5"></stop>
      <stop offset="1" stop-color="#00E2C5" stop-opacity="0"></stop>
    </linearGradient>
    <linearGradient id="paint22_linear_8938_31107" x1="567.931" y1="142" x2="639.073" y2="71.0707" gradientUnits="userSpaceOnUse">
      <stop stop-color="white"></stop>
      <stop offset="1" stop-color="white" stop-opacity="0"></stop>
    </linearGradient>
    <linearGradient id="paint23_linear_8938_31107" x1="638.931" y1="71.071" x2="710.073" y2="-0.0712165" gradientUnits="userSpaceOnUse">
      <stop stop-color="#00E2C5"></stop>
      <stop offset="1" stop-color="#00E2C5" stop-opacity="0"></stop>
    </linearGradient>
    <linearGradient id="paint24_linear_8938_31107" x1="603.433" y1="106.5" x2="674.575" y2="35.5707" gradientUnits="userSpaceOnUse">
      <stop stop-color="white"></stop>
      <stop offset="1" stop-color="white" stop-opacity="0"></stop>
    </linearGradient>
  </defs>
</svg>
