<?xml version="1.0" encoding="UTF-8"?>
<svg xmlns="http://www.w3.org/2000/svg" width="710" height="143" viewBox="0 0 710 143" fill="none">
  <path d="M142 1L104.75 0.999999C86.1103 0.999999 70.9999 16.1104 70.9999 34.7501L70.9999 72.0001L142 72.0001L142 1Z" stroke="url(#paint0_linear_8938_31074)" stroke-width="2"></path>
  <path d="M71 72L33.7499 72C15.1103 72 -0.000114771 87.1104 -0.000115179 105.75L-0.000115993 143L71 143L71 72Z" stroke="url(#paint1_linear_8938_31074)" stroke-width="2"></path>
  <path d="M71 1L33.7499 0.999999C15.1103 0.999999 -0.000114771 16.1104 -0.000115179 34.7501L-0.000115993 72.0001L71 72.0001L71 1Z" stroke="url(#paint2_linear_8938_31074)" stroke-width="2"></path>
  <path d="M142 72L104.75 72C86.1103 72 70.9999 87.1104 70.9999 105.75L70.9999 143L142 143L142 72Z" stroke="url(#paint3_linear_8938_31074)" stroke-width="2"></path>
  <path d="M106.5 36.5L69.2499 36.5C50.6103 36.5 35.4999 51.6104 35.4999 70.2501L35.4999 107.5L106.5 107.5L106.5 36.5Z" stroke="url(#paint4_linear_8938_31074)" stroke-width="2"></path>
  <path d="M142 143L179.25 143C197.89 143 213 127.89 213 109.25L213 71.9999L142 71.9999L142 143Z" stroke="url(#paint5_linear_8938_31074)" stroke-width="2"></path>
  <path d="M213 72L250.25 72C268.89 72 284 56.8896 284 38.2499L284 0.999887L213 0.999886L213 72Z" stroke="url(#paint6_linear_8938_31074)" stroke-width="2"></path>
  <path d="M213 143L250.25 143C268.89 143 284 127.89 284 109.25L284 71.9999L213 71.9999L213 143Z" stroke="url(#paint7_linear_8938_31074)" stroke-width="2"></path>
  <path d="M142 72L179.25 72C197.89 72 213 56.8896 213 38.2499L213 0.999887L142 0.999886L142 72Z" stroke="url(#paint8_linear_8938_31074)" stroke-width="2"></path>
  <path d="M177.498 107.5L214.748 107.5C233.388 107.5 248.498 92.3896 248.498 73.7499L248.498 36.4999L177.498 36.4999L177.498 107.5Z" stroke="url(#paint9_linear_8938_31074)" stroke-width="2"></path>
  <path d="M426 1L388.75 0.999999C370.11 0.999999 355 16.1104 355 34.7501L355 72.0001L426 72.0001L426 1Z" stroke="url(#paint10_linear_8938_31074)" stroke-width="2"></path>
  <path d="M355 72L317.75 72C299.11 72 284 87.1104 284 105.75L284 143L355 143L355 72Z" stroke="url(#paint11_linear_8938_31074)" stroke-width="2"></path>
  <path d="M355 1L317.75 0.999999C299.11 0.999999 284 16.1104 284 34.7501L284 72.0001L355 72.0001L355 1Z" stroke="url(#paint12_linear_8938_31074)" stroke-width="2"></path>
  <path d="M426 72L388.75 72C370.11 72 355 87.1104 355 105.75L355 143L426 143L426 72Z" stroke="url(#paint13_linear_8938_31074)" stroke-width="2"></path>
  <path d="M390.502 36.5L353.252 36.5C334.612 36.5 319.502 51.6104 319.502 70.2501L319.502 107.5L390.502 107.5L390.502 36.5Z" stroke="url(#paint14_linear_8938_31074)" stroke-width="2"></path>
  <path d="M426 1L463.25 0.999999C481.89 0.999999 497 16.1104 497 34.7501L497 72.0001L426 72.0001L426 1Z" stroke="url(#paint15_linear_8938_31074)" stroke-width="2"></path>
  <path d="M497 72L534.25 72C552.89 72 568 87.1104 568 105.75L568 143L497 143L497 72Z" stroke="url(#paint16_linear_8938_31074)" stroke-width="2"></path>
  <path d="M497 1L534.25 0.999999C552.89 0.999999 568 16.1104 568 34.7501L568 72.0001L497 72.0001L497 1Z" stroke="url(#paint17_linear_8938_31074)" stroke-width="2"></path>
  <path d="M426 72L463.25 72C481.89 72 497 87.1104 497 105.75L497 143L426 143L426 72Z" stroke="url(#paint18_linear_8938_31074)" stroke-width="2"></path>
  <path d="M461.498 36.5L498.748 36.5C517.388 36.5 532.498 51.6104 532.498 70.2501L532.498 107.5L461.498 107.5L461.498 36.5Z" stroke="url(#paint19_linear_8938_31074)" stroke-width="2"></path>
  <path d="M710.002 143L672.752 143C654.112 143 639.002 127.89 639.002 109.25L639.002 71.9999L710.002 71.9999L710.002 143Z" stroke="url(#paint20_linear_8938_31074)" stroke-width="2"></path>
  <path d="M639.002 72L601.752 72C583.112 72 568.002 56.8896 568.002 38.25L568.002 0.99991L639.002 0.999908L639.002 72Z" stroke="url(#paint21_linear_8938_31074)" stroke-width="2"></path>
  <path d="M639.002 143L601.752 143C583.112 143 568.002 127.89 568.002 109.25L568.002 71.9999L639.002 71.9999L639.002 143Z" stroke="url(#paint22_linear_8938_31074)" stroke-width="2"></path>
  <path d="M710.002 72L672.752 72C654.112 72 639.002 56.8896 639.002 38.25L639.002 0.99991L710.002 0.999908L710.002 72Z" stroke="url(#paint23_linear_8938_31074)" stroke-width="2"></path>
  <path d="M674.504 107.5L637.254 107.5C618.614 107.5 603.504 92.3896 603.504 73.75L603.504 36.4999L674.504 36.4999L674.504 107.5Z" stroke="url(#paint24_linear_8938_31074)" stroke-width="2"></path>
  <defs>
    <linearGradient id="paint0_linear_8938_31074" x1="70.929" y1="0.928965" x2="142.071" y2="72.0713" gradientUnits="userSpaceOnUse">
      <stop stop-color="white"></stop>
      <stop offset="1" stop-color="white" stop-opacity="0"></stop>
    </linearGradient>
    <linearGradient id="paint1_linear_8938_31074" x1="-0.0709736" y1="71.929" x2="71.071" y2="143.071" gradientUnits="userSpaceOnUse">
      <stop stop-color="white"></stop>
      <stop offset="1" stop-color="white" stop-opacity="0"></stop>
    </linearGradient>
    <linearGradient id="paint2_linear_8938_31074" x1="-0.0709801" y1="0.999999" x2="71.071" y2="71.9293" gradientUnits="userSpaceOnUse">
      <stop stop-color="#005BFF"></stop>
      <stop offset="1" stop-color="#005BFF" stop-opacity="0"></stop>
    </linearGradient>
    <linearGradient id="paint3_linear_8938_31074" x1="70.929" y1="71.929" x2="142.071" y2="143.071" gradientUnits="userSpaceOnUse">
      <stop stop-color="white"></stop>
      <stop offset="1" stop-color="white" stop-opacity="0"></stop>
    </linearGradient>
    <linearGradient id="paint4_linear_8938_31074" x1="35.429" y1="36.5" x2="106.571" y2="107.429" gradientUnits="userSpaceOnUse">
      <stop stop-color="#005BFF"></stop>
      <stop offset="1" stop-color="#005BFF" stop-opacity="0"></stop>
    </linearGradient>
    <linearGradient id="paint5_linear_8938_31074" x1="213.071" y1="143.071" x2="141.929" y2="71.9288" gradientUnits="userSpaceOnUse">
      <stop stop-color="white"></stop>
      <stop offset="1" stop-color="white" stop-opacity="0"></stop>
    </linearGradient>
    <linearGradient id="paint6_linear_8938_31074" x1="284.071" y1="72.071" x2="212.929" y2="0.928768" gradientUnits="userSpaceOnUse">
      <stop stop-color="white"></stop>
      <stop offset="1" stop-color="white" stop-opacity="0"></stop>
    </linearGradient>
    <linearGradient id="paint7_linear_8938_31074" x1="284.071" y1="143" x2="212.929" y2="72.0707" gradientUnits="userSpaceOnUse">
      <stop stop-color="#005BFF"></stop>
      <stop offset="1" stop-color="#005BFF" stop-opacity="0"></stop>
    </linearGradient>
    <linearGradient id="paint8_linear_8938_31074" x1="213.071" y1="72.071" x2="141.929" y2="0.928768" gradientUnits="userSpaceOnUse">
      <stop stop-color="white"></stop>
      <stop offset="1" stop-color="white" stop-opacity="0"></stop>
    </linearGradient>
    <linearGradient id="paint9_linear_8938_31074" x1="248.569" y1="107.5" x2="177.427" y2="36.5707" gradientUnits="userSpaceOnUse">
      <stop stop-color="#005BFF"></stop>
      <stop offset="1" stop-color="#005BFF" stop-opacity="0"></stop>
    </linearGradient>
    <linearGradient id="paint10_linear_8938_31074" x1="354.929" y1="0.928965" x2="426.071" y2="72.0713" gradientUnits="userSpaceOnUse">
      <stop stop-color="white"></stop>
      <stop offset="1" stop-color="white" stop-opacity="0"></stop>
    </linearGradient>
    <linearGradient id="paint11_linear_8938_31074" x1="283.929" y1="71.929" x2="355.071" y2="143.071" gradientUnits="userSpaceOnUse">
      <stop stop-color="white"></stop>
      <stop offset="1" stop-color="white" stop-opacity="0"></stop>
    </linearGradient>
    <linearGradient id="paint12_linear_8938_31074" x1="283.929" y1="0.999999" x2="355.071" y2="71.9293" gradientUnits="userSpaceOnUse">
      <stop stop-color="#005BFF"></stop>
      <stop offset="1" stop-color="#005BFF" stop-opacity="0"></stop>
    </linearGradient>
    <linearGradient id="paint13_linear_8938_31074" x1="354.929" y1="71.929" x2="426.071" y2="143.071" gradientUnits="userSpaceOnUse">
      <stop stop-color="white"></stop>
      <stop offset="1" stop-color="white" stop-opacity="0"></stop>
    </linearGradient>
    <linearGradient id="paint14_linear_8938_31074" x1="319.431" y1="36.5" x2="390.573" y2="107.429" gradientUnits="userSpaceOnUse">
      <stop stop-color="#005BFF"></stop>
      <stop offset="1" stop-color="#005BFF" stop-opacity="0"></stop>
    </linearGradient>
    <linearGradient id="paint15_linear_8938_31074" x1="497.071" y1="0.928965" x2="425.929" y2="72.0712" gradientUnits="userSpaceOnUse">
      <stop stop-color="white"></stop>
      <stop offset="1" stop-color="white" stop-opacity="0"></stop>
    </linearGradient>
    <linearGradient id="paint16_linear_8938_31074" x1="568.071" y1="71.929" x2="496.929" y2="143.071" gradientUnits="userSpaceOnUse">
      <stop stop-color="white"></stop>
      <stop offset="1" stop-color="white" stop-opacity="0"></stop>
    </linearGradient>
    <linearGradient id="paint17_linear_8938_31074" x1="568.071" y1="0.999999" x2="496.929" y2="71.9293" gradientUnits="userSpaceOnUse">
      <stop stop-color="#005BFF"></stop>
      <stop offset="1" stop-color="#005BFF" stop-opacity="0"></stop>
    </linearGradient>
    <linearGradient id="paint18_linear_8938_31074" x1="497.071" y1="71.929" x2="425.929" y2="143.071" gradientUnits="userSpaceOnUse">
      <stop stop-color="white"></stop>
      <stop offset="1" stop-color="white" stop-opacity="0"></stop>
    </linearGradient>
    <linearGradient id="paint19_linear_8938_31074" x1="532.569" y1="36.5" x2="461.427" y2="107.429" gradientUnits="userSpaceOnUse">
      <stop stop-color="#005BFF"></stop>
      <stop offset="1" stop-color="#005BFF" stop-opacity="0"></stop>
    </linearGradient>
    <linearGradient id="paint20_linear_8938_31074" x1="638.931" y1="143.071" x2="710.073" y2="71.9288" gradientUnits="userSpaceOnUse">
      <stop stop-color="white"></stop>
      <stop offset="1" stop-color="white" stop-opacity="0"></stop>
    </linearGradient>
    <linearGradient id="paint21_linear_8938_31074" x1="567.931" y1="72.071" x2="639.073" y2="0.928783" gradientUnits="userSpaceOnUse">
      <stop stop-color="white"></stop>
      <stop offset="1" stop-color="white" stop-opacity="0"></stop>
    </linearGradient>
    <linearGradient id="paint22_linear_8938_31074" x1="567.931" y1="143" x2="639.073" y2="72.0707" gradientUnits="userSpaceOnUse">
      <stop stop-color="#005BFF"></stop>
      <stop offset="1" stop-color="#005BFF" stop-opacity="0"></stop>
    </linearGradient>
    <linearGradient id="paint23_linear_8938_31074" x1="638.931" y1="72.071" x2="710.073" y2="0.928783" gradientUnits="userSpaceOnUse">
      <stop stop-color="white"></stop>
      <stop offset="1" stop-color="white" stop-opacity="0"></stop>
    </linearGradient>
    <linearGradient id="paint24_linear_8938_31074" x1="603.433" y1="107.5" x2="674.575" y2="36.5707" gradientUnits="userSpaceOnUse">
      <stop stop-color="#005BFF"></stop>
      <stop offset="1" stop-color="#005BFF" stop-opacity="0"></stop>
    </linearGradient>
  </defs>
</svg>
