<svg width="258" height="50" viewBox="0 0 258 50" fill="none" xmlns="http://www.w3.org/2000/svg">
<path d="M18.6651 36.8892V32.8498C18.5239 33.275 18.1179 33.8596 17.4472 34.6037C16.7942 35.3479 15.894 36.0211 14.7467 36.6235C13.6171 37.2259 12.2757 37.527 10.7225 37.527C8.69272 37.527 6.86592 37.0398 5.24211 36.0654C3.61829 35.091 2.33865 33.7356 1.40319 31.9993C0.46773 30.2631 0 28.2611 0 25.9933C0 23.7255 0.46773 21.7235 1.40319 19.9872C2.33865 18.251 3.61829 16.8956 5.24211 15.9212C6.86592 14.929 8.69272 14.433 10.7225 14.433C12.2404 14.433 13.5553 14.6987 14.6673 15.2302C15.7793 15.7617 16.6706 16.373 17.3413 17.0639C18.0297 17.7549 18.4533 18.3573 18.6121 18.8711V15.0708H24.2249V36.8892H18.6651ZM5.58628 25.9933C5.58628 27.3929 5.89516 28.6154 6.51292 29.6607C7.13068 30.706 7.93376 31.5121 8.92217 32.0791C9.92823 32.646 11.0049 32.9295 12.1522 32.9295C13.3877 32.9295 14.482 32.6372 15.4351 32.0525C16.4058 31.4678 17.1648 30.6617 17.712 29.6341C18.2768 28.5888 18.5592 27.3752 18.5592 25.9933C18.5592 24.6114 18.2768 23.4066 17.712 22.379C17.1648 21.3337 16.4058 20.5188 15.4351 19.9341C14.482 19.3317 13.3877 19.0305 12.1522 19.0305C11.0049 19.0305 9.92823 19.3229 8.92217 19.9075C7.93376 20.4745 7.13068 21.2806 6.51292 22.3259C5.89516 23.3712 5.58628 24.5937 5.58628 25.9933Z" fill="#030510"/>
<path d="M41.4611 14.433C42.9261 14.433 44.3469 14.7342 45.7236 15.3365C47.1004 15.9389 48.23 16.9045 49.1125 18.2333C50.0126 19.5443 50.4627 21.254 50.4627 23.3623V36.8892H44.7705V24.3988C44.7705 22.4322 44.3028 20.9883 43.3673 20.067C42.4495 19.128 41.2581 18.6585 39.7932 18.6585C38.8224 18.6585 37.8958 18.9331 37.0133 19.4823C36.1308 20.0315 35.4071 20.7757 34.8423 21.7146C34.2951 22.6536 34.0216 23.7344 34.0216 24.9569V36.8892H28.3559V15.0708H34.0216V18.7382C34.1804 18.1358 34.604 17.5069 35.2924 16.8513C35.9984 16.1781 36.8897 15.6112 37.9664 15.1505C39.043 14.6722 40.208 14.433 41.4611 14.433Z" fill="#030510"/>
<path d="M52.6846 15.0708H56.7618V11.7276C56.7618 8.62777 59.2747 6.11485 62.3745 6.11485V6.11485V15.0708H67.749V19.8544H62.3745V29.1824C62.3745 30.3517 62.5687 31.2287 62.957 31.8133C63.3629 32.398 63.9366 32.6903 64.6779 32.6903C65.2956 32.6903 65.781 32.5752 66.134 32.3448C66.5047 32.1145 66.7253 31.9551 66.7959 31.8665L68.8874 35.9857C68.7815 36.092 68.4727 36.2691 67.9608 36.5172C67.449 36.7652 66.7871 36.9955 65.9752 37.2081C65.1633 37.4207 64.2366 37.527 63.1953 37.527C61.3596 37.527 59.8241 36.9778 58.5886 35.8794C57.3707 34.7809 56.7618 33.0624 56.7618 30.7237V19.8544H52.6846V15.0708Z" fill="#030510"/>
<path d="M71.4196 36.8892V15.0708H77.0588V36.8892H71.4196ZM74.3054 8.53322C73.3522 8.53322 72.5315 8.18774 71.8432 7.49678C71.1724 6.80582 70.8371 5.98198 70.8371 5.02526C70.8371 4.06855 71.1724 3.24471 71.8432 2.55375C72.5315 1.84507 73.3522 1.49073 74.3054 1.49073C74.9408 1.49073 75.5232 1.65904 76.0527 1.99566C76.5999 2.31457 77.0323 2.73977 77.35 3.27128C77.6854 3.78507 77.853 4.36973 77.853 5.02526C77.853 5.98198 77.5089 6.80582 76.8205 7.49678C76.1322 8.18774 75.2938 8.53322 74.3054 8.53322Z" fill="#030510"/>
<path d="M105.692 47.9446C102.578 47.9446 100.053 45.4199 100.053 42.3054V32.8498C99.9471 33.2927 99.55 33.8862 98.8616 34.6303C98.1909 35.3744 97.2731 36.0477 96.1082 36.6501C94.9433 37.2347 93.5489 37.527 91.9251 37.527C89.8776 37.527 88.0597 37.0398 86.4712 36.0654C84.9003 35.091 83.6648 33.7356 82.7646 31.9993C81.8645 30.2631 81.4144 28.2611 81.4144 25.9933C81.4144 23.7255 81.8468 21.7235 82.7117 19.9872C83.5765 18.251 84.7856 16.8956 86.3388 15.9212C87.892 14.929 89.6835 14.433 91.7133 14.433C93.2488 14.433 94.5991 14.6987 95.764 15.2302C96.9466 15.744 97.8997 16.3464 98.6233 17.0374C99.3646 17.7283 99.8147 18.3396 99.9736 18.8711V15.0708H105.692V47.9446V47.9446ZM93.3547 32.9295C94.5902 32.9295 95.711 32.6372 96.7171 32.0525C97.7232 31.4678 98.5174 30.6617 99.0999 29.6341C99.6823 28.5888 99.9736 27.3752 99.9736 25.9933C99.9736 24.6114 99.6823 23.4066 99.0999 22.379C98.5174 21.3337 97.7232 20.5188 96.7171 19.9341C95.711 19.3317 94.5902 19.0305 93.3547 19.0305C92.2075 19.0305 91.1485 19.3229 90.1777 19.9075C89.2069 20.4745 88.4303 21.2806 87.8479 22.3259C87.2654 23.3712 86.9742 24.5937 86.9742 25.9933C86.9742 27.3929 87.2654 28.6154 87.8479 29.6607C88.4303 30.706 89.2069 31.5121 90.1777 32.0791C91.1485 32.646 92.2075 32.9295 93.3547 32.9295Z" fill="#030510"/>
<path d="M114.715 25.7807C114.715 27.9067 115.147 29.5987 116.012 30.8566C116.895 32.1145 118.28 32.7435 120.169 32.7435C122.075 32.7435 123.461 32.1145 124.325 30.8566C125.19 29.5987 125.623 27.9067 125.623 25.7807V15.0708H131.236V26.4982C131.236 28.6951 130.803 30.6263 129.938 32.2917C129.073 33.9394 127.82 35.2238 126.179 36.1451C124.537 37.0664 122.534 37.527 120.169 37.527C117.821 37.527 115.827 37.0664 114.185 36.1451C112.544 35.2238 111.291 33.9394 110.426 32.2917C109.561 30.6263 109.129 28.6951 109.129 26.4982V15.0708H114.715V25.7807Z" fill="#030510"/>
<path d="M139.413 27.3221C139.448 28.4737 139.722 29.5101 140.234 30.4314C140.746 31.3527 141.496 32.0791 142.484 32.6106C143.49 33.1244 144.717 33.3813 146.164 33.3813C147.417 33.3813 148.494 33.213 149.394 32.8763C150.312 32.522 151.071 32.1057 151.671 31.6273C152.271 31.1312 152.712 30.6706 152.995 30.2454L155.51 33.6736C154.963 34.4177 154.274 35.0821 153.445 35.6668C152.615 36.2514 151.583 36.7032 150.347 37.0221C149.129 37.3587 147.62 37.527 145.82 37.527C143.455 37.527 141.399 37.0398 139.651 36.0654C137.904 35.091 136.545 33.7179 135.574 31.9462C134.621 30.1745 134.144 28.1016 134.144 25.7275C134.144 23.6015 134.586 21.6881 135.468 19.9872C136.351 18.2687 137.63 16.9133 139.307 15.9212C141.002 14.929 143.031 14.433 145.396 14.433C147.603 14.433 149.518 14.8759 151.142 15.7617C152.765 16.6476 154.019 17.9232 154.901 19.5886C155.801 21.2363 156.251 23.2294 156.251 25.5681C156.251 25.7098 156.243 26.0022 156.225 26.4451C156.225 26.888 156.207 27.1803 156.172 27.3221H139.413ZM150.956 23.1763C150.939 22.6094 150.744 21.9627 150.374 21.2363C150.021 20.5099 149.447 19.8809 148.653 19.3494C147.859 18.8002 146.8 18.5256 145.476 18.5256C144.117 18.5256 143.014 18.7913 142.166 19.3229C141.319 19.8367 140.693 20.4567 140.287 21.1831C139.881 21.8918 139.642 22.5562 139.572 23.1763H150.956Z" fill="#030510"/>
<path d="M178.445 37.527C176.274 37.527 174.341 37.0221 172.647 36.0122C170.97 34.9847 169.646 33.6027 168.676 31.8665C167.723 30.1302 167.246 28.1902 167.246 26.0464C167.246 23.9027 167.723 21.9538 168.676 20.1998C169.646 18.4281 170.97 17.0285 172.647 16.0009C174.341 14.9556 176.274 14.433 178.445 14.433C180.616 14.433 182.531 14.9556 184.19 16.0009C185.867 17.0285 187.182 18.4281 188.135 20.1998C189.088 21.9538 189.565 23.9027 189.565 26.0464C189.565 28.1902 189.088 30.1302 188.135 31.8665C187.182 33.6027 185.867 34.9847 184.19 36.0122C182.531 37.0221 180.616 37.527 178.445 37.527ZM178.445 34.7898C180.087 34.7898 181.516 34.4089 182.734 33.647C183.97 32.8852 184.923 31.8399 185.593 30.5111C186.282 29.1824 186.626 27.6941 186.626 26.0464C186.626 24.3811 186.282 22.884 185.593 21.5552C184.923 20.2087 183.97 19.1457 182.734 18.3661C181.516 17.5689 180.087 17.1702 178.445 17.1702C176.786 17.1702 175.339 17.5689 174.103 18.3661C172.868 19.1457 171.906 20.2087 171.217 21.5552C170.529 22.884 170.185 24.3811 170.185 26.0464C170.185 27.6941 170.529 29.1824 171.217 30.5111C171.906 31.8399 172.868 32.8852 174.103 33.647C175.339 34.4089 176.786 34.7898 178.445 34.7898Z" fill="#030510"/>
<path d="M203.339 48.5293C201.539 48.5293 199.968 48.3344 198.627 47.9446C197.285 47.5548 196.156 47.0322 195.238 46.3767C194.338 45.7389 193.64 45.0479 193.146 44.3038L195.37 42.3372C195.688 42.7801 196.129 43.2762 196.694 43.8254C197.259 44.3747 198.062 44.8441 199.103 45.2339C200.145 45.6414 201.53 45.8452 203.26 45.8452C204.99 45.8452 206.437 45.4554 207.602 44.6758C208.784 43.8963 209.676 42.8599 210.276 41.5665C210.876 40.2732 211.176 38.847 211.176 37.2879V36.5172H214.115V37.527C214.115 39.9011 213.629 41.9031 212.659 43.5331C211.705 45.1808 210.408 46.421 208.767 47.2537C207.143 48.1041 205.334 48.5293 203.339 48.5293ZM211.176 36.8892V32.3183C211.052 32.7966 210.638 33.4521 209.932 34.2848C209.243 35.1175 208.281 35.8705 207.046 36.5438C205.828 37.1993 204.381 37.527 202.704 37.527C200.745 37.527 198.936 37.0753 197.276 36.1717C195.635 35.2504 194.311 33.9305 193.305 32.212C192.317 30.4757 191.823 28.4028 191.823 25.9933C191.823 23.5838 192.317 21.5198 193.305 19.8012C194.311 18.065 195.635 16.7362 197.276 15.8149C198.936 14.8936 200.745 14.433 202.704 14.433C204.381 14.433 205.828 14.7519 207.046 15.3897C208.264 16.0098 209.226 16.7273 209.932 17.5423C210.655 18.3573 211.061 19.0394 211.149 19.5886V15.0708H214.115V36.8892H211.176ZM194.814 25.9933C194.814 27.8359 195.211 29.4215 196.006 30.7503C196.8 32.0791 197.824 33.0978 199.077 33.8065C200.348 34.5152 201.68 34.8695 203.075 34.8695C204.61 34.8695 205.978 34.5063 207.178 33.7799C208.378 33.0535 209.323 32.0259 210.011 30.6972C210.717 29.3684 211.07 27.8004 211.07 25.9933C211.07 24.1862 210.717 22.6182 210.011 21.2894C209.323 19.9607 208.378 18.9331 207.178 18.2067C205.978 17.4626 204.61 17.0905 203.075 17.0905C201.68 17.0905 200.348 17.4537 199.077 18.1801C197.824 18.8888 196.8 19.9075 196.006 21.2363C195.211 22.5651 194.814 24.1507 194.814 25.9933Z" fill="#030510"/>
<path d="M220.019 36.8892V15.0708H223.011V36.8892H220.019ZM221.555 6.22116C220.919 6.22116 220.372 5.9997 219.913 5.55677C219.472 5.09613 219.251 4.5469 219.251 3.90909C219.251 3.25356 219.481 2.70434 219.94 2.26141C220.399 1.80077 220.937 1.57045 221.555 1.57045C221.978 1.57045 222.367 1.67675 222.72 1.88936C223.09 2.10196 223.381 2.38543 223.593 2.73977C223.823 3.0764 223.937 3.46617 223.937 3.90909C223.937 4.5469 223.699 5.09613 223.223 5.55677C222.764 5.9997 222.208 6.22116 221.555 6.22116Z" fill="#030510"/>
<path d="M238.729 34.8695C240.282 34.8695 241.526 34.6303 242.462 34.152C243.397 33.6559 243.971 33.3104 244.183 33.1155L245.771 35.4542C245.63 35.5605 245.233 35.7908 244.58 36.1451C243.927 36.4817 243.08 36.7918 242.038 37.0753C241.015 37.3764 239.85 37.527 238.544 37.527C236.796 37.527 235.111 37.093 233.487 36.2248C231.863 35.3567 230.522 34.0634 229.463 32.3448C228.421 30.6263 227.9 28.5002 227.9 25.9667C227.9 23.4155 228.421 21.2894 229.463 19.5886C230.522 17.8701 231.863 16.5856 233.487 15.7352C235.111 14.867 236.796 14.433 238.544 14.433C239.85 14.433 240.997 14.5924 241.985 14.9113C242.974 15.2302 243.786 15.5846 244.421 15.9744C245.056 16.3641 245.454 16.6476 245.612 16.8248L244.05 19.1368C243.892 18.9951 243.591 18.7648 243.15 18.4459C242.727 18.1092 242.144 17.7992 241.403 17.5157C240.662 17.2323 239.77 17.0905 238.729 17.0905C237.476 17.0905 236.24 17.436 235.022 18.127C233.804 18.8179 232.798 19.8278 232.004 21.1566C231.228 22.4676 230.839 24.071 230.839 25.9667C230.839 27.8624 231.228 29.4747 232.004 30.8035C232.798 32.1322 233.804 33.1421 235.022 33.8331C236.24 34.524 237.476 34.8695 238.729 34.8695Z" fill="#030510"/>
<path d="M162.943 36.7494C161.255 36.7494 159.886 35.3805 159.886 33.6919V1.47046C161.575 1.47046 162.943 2.83935 162.943 4.52797V36.7494Z" fill="#030510"/>
<path d="M162.943 33.6919V36.7494H166.001C164.663 36.7494 162.943 35.348 162.943 33.6919Z" fill="#030510"/>
<ellipse cx="251.726" cy="34.466" rx="3.17698" ry="3.17038" fill="#030510"/>
</svg>
