<svg width="1520" height="304" viewBox="0 0 1520 304" fill="none" xmlns="http://www.w3.org/2000/svg">
<path d="M0.76 303.24L79.7465 303.24C119.231 303.24 151.24 271.231 151.24 231.746L151.24 152.76L0.760003 152.76L0.76 303.24Z" stroke="url(#paint0_linear_12814_8033)" stroke-width="1.52"/>
<path d="M152.76 151.24L231.746 151.24C271.231 151.24 303.24 119.231 303.24 79.7464L303.24 0.759845L152.76 0.759842L152.76 151.24Z" stroke="url(#paint1_linear_12814_8033)" stroke-width="1.52"/>
<path d="M152.76 303.24L231.746 303.24C271.231 303.24 303.24 271.231 303.24 231.746L303.24 152.76L152.76 152.76L152.76 303.24Z" stroke="url(#paint2_linear_12814_8033)" stroke-width="1.52"/>
<path d="M0.76 151.24L79.7465 151.24C119.231 151.24 151.24 119.231 151.24 79.7464L151.24 0.759845L0.760003 0.759842L0.76 151.24Z" stroke="url(#paint3_linear_12814_8033)" stroke-width="1.52"/>
<path d="M76.7917 76.7917L201.281 76.7917C215.6 76.7917 227.208 88.3996 227.208 102.719L227.208 227.208L76.7917 227.208L76.7917 76.7917Z" stroke="url(#paint4_linear_12814_8033)" stroke-width="1.58333"/>
<path d="M76.7917 76.7917L201.281 76.7917C215.6 76.7917 227.208 88.3996 227.208 102.719L227.208 227.208L76.7917 227.208L76.7917 76.7917Z" stroke="url(#paint5_linear_12814_8033)" stroke-width="1.58333"/>
<path d="M607.24 303.24L607.24 224.254C607.24 184.769 575.231 152.76 535.746 152.76L456.76 152.76L456.76 303.24L607.24 303.24Z" stroke="url(#paint6_linear_12814_8033)" stroke-width="1.52"/>
<path d="M455.24 151.24L455.24 72.2535C455.24 32.7687 423.231 0.759948 383.746 0.759947L304.76 0.759945L304.76 151.24L455.24 151.24Z" stroke="url(#paint7_linear_12814_8033)" stroke-width="1.52"/>
<path d="M607.24 151.24L607.24 72.2535C607.24 32.7687 575.231 0.759948 535.746 0.759947L456.76 0.759945L456.76 151.24L607.24 151.24Z" stroke="url(#paint8_linear_12814_8033)" stroke-width="1.52"/>
<path d="M455.24 303.24L455.24 224.254C455.24 184.769 423.231 152.76 383.746 152.76L304.76 152.76L304.76 303.24L455.24 303.24Z" stroke="url(#paint9_linear_12814_8033)" stroke-width="1.52"/>
<path d="M380.792 227.208V102.719C380.792 88.3997 392.4 76.7917 406.719 76.7917H531.208V227.208H380.792Z" stroke="url(#paint10_linear_12814_8033)" stroke-width="1.58333"/>
<path d="M380.792 227.208V102.719C380.792 88.3997 392.4 76.7917 406.719 76.7917H531.208V227.208H380.792Z" stroke="url(#paint11_linear_12814_8033)" stroke-width="1.58333"/>
<path d="M911.24 0.76L832.254 0.759998C792.769 0.759997 760.76 32.7688 760.76 72.2536L760.76 151.24L911.24 151.24L911.24 0.76Z" stroke="url(#paint12_linear_12814_8033)" stroke-width="1.52"/>
<path d="M759.24 152.76L680.254 152.76C640.769 152.76 608.76 184.769 608.76 224.254L608.76 303.24L759.24 303.24L759.24 152.76Z" stroke="url(#paint13_linear_12814_8033)" stroke-width="1.52"/>
<path d="M759.24 0.76L680.254 0.759998C640.769 0.759997 608.76 32.7688 608.76 72.2536L608.76 151.24L759.24 151.24L759.24 0.76Z" stroke="url(#paint14_linear_12814_8033)" stroke-width="1.52"/>
<path d="M911.24 152.76L832.254 152.76C792.769 152.76 760.76 184.769 760.76 224.254L760.76 303.24L911.24 303.24L911.24 152.76Z" stroke="url(#paint15_linear_12814_8033)" stroke-width="1.52"/>
<path d="M835.208 227.208L710.719 227.208C696.4 227.208 684.792 215.6 684.792 201.281L684.792 76.7917L835.208 76.7917L835.208 227.208Z" stroke="url(#paint16_linear_12814_8033)" stroke-width="1.58333"/>
<path d="M835.208 227.208L710.719 227.208C696.4 227.208 684.792 215.6 684.792 201.281L684.792 76.7917L835.208 76.7917L835.208 227.208Z" stroke="url(#paint17_linear_12814_8033)" stroke-width="1.58333"/>
<path d="M1215.24 0.76L1215.24 79.7465C1215.24 119.231 1183.23 151.24 1143.75 151.24L1064.76 151.24L1064.76 0.760003L1215.24 0.76Z" stroke="url(#paint18_linear_12814_8033)" stroke-width="1.52"/>
<path d="M1063.24 152.76L1063.24 231.746C1063.24 271.231 1031.23 303.24 991.746 303.24L912.76 303.24L912.76 152.76L1063.24 152.76Z" stroke="url(#paint19_linear_12814_8033)" stroke-width="1.52"/>
<path d="M1215.24 152.76L1215.24 231.746C1215.24 271.231 1183.23 303.24 1143.75 303.24L1064.76 303.24L1064.76 152.76L1215.24 152.76Z" stroke="url(#paint20_linear_12814_8033)" stroke-width="1.52"/>
<path d="M1063.24 0.76L1063.24 79.7465C1063.24 119.231 1031.23 151.24 991.746 151.24L912.76 151.24L912.76 0.760003L1063.24 0.76Z" stroke="url(#paint21_linear_12814_8033)" stroke-width="1.52"/>
<path d="M1139.21 76.7917V201.281C1139.21 215.6 1127.6 227.208 1113.28 227.208H988.792V76.7917L1139.21 76.7917Z" stroke="url(#paint22_linear_12814_8033)" stroke-width="1.58333"/>
<path d="M1139.21 76.7917V201.281C1139.21 215.6 1127.6 227.208 1113.28 227.208H988.792V76.7917L1139.21 76.7917Z" stroke="url(#paint23_linear_12814_8033)" stroke-width="1.58333"/>
<path d="M1216.76 0.76L1295.75 0.759998C1335.23 0.759997 1367.24 32.7688 1367.24 72.2536L1367.24 151.24L1216.76 151.24L1216.76 0.76Z" stroke="url(#paint24_linear_12814_8033)" stroke-width="1.52"/>
<path d="M1368.76 152.76L1447.75 152.76C1487.23 152.76 1519.24 184.769 1519.24 224.254L1519.24 303.24L1368.76 303.24L1368.76 152.76Z" stroke="url(#paint25_linear_12814_8033)" stroke-width="1.52"/>
<path d="M1368.76 0.76L1447.75 0.759998C1487.23 0.759997 1519.24 32.7688 1519.24 72.2536L1519.24 151.24L1368.76 151.24L1368.76 0.76Z" stroke="url(#paint26_linear_12814_8033)" stroke-width="1.52"/>
<path d="M1216.76 152.76L1295.75 152.76C1335.23 152.76 1367.24 184.769 1367.24 224.254L1367.24 303.24L1216.76 303.24L1216.76 152.76Z" stroke="url(#paint27_linear_12814_8033)" stroke-width="1.52"/>
<path d="M1292.79 76.7917L1417.28 76.7917C1431.6 76.7917 1443.21 88.3996 1443.21 102.719V227.208L1292.79 227.208V76.7917Z" stroke="url(#paint28_linear_12814_8033)" stroke-width="1.58333"/>
<path d="M1292.79 76.7917L1417.28 76.7917C1431.6 76.7917 1443.21 88.3996 1443.21 102.719V227.208L1292.79 227.208V76.7917Z" stroke="url(#paint29_linear_12814_8033)" stroke-width="1.58333"/>
<defs>
<linearGradient id="paint0_linear_12814_8033" x1="152.152" y1="304.152" x2="-0.151925" y2="151.848" gradientUnits="userSpaceOnUse">
<stop stop-color="#005BFF"/>
<stop offset="1" stop-color="#005BFF" stop-opacity="0"/>
</linearGradient>
<linearGradient id="paint1_linear_12814_8033" x1="304.152" y1="152.152" x2="151.848" y2="-0.152439" gradientUnits="userSpaceOnUse">
<stop stop-color="#005BFF"/>
<stop offset="1" stop-color="#005BFF" stop-opacity="0"/>
</linearGradient>
<linearGradient id="paint2_linear_12814_8033" x1="304.152" y1="304" x2="151.848" y2="152.151" gradientUnits="userSpaceOnUse">
<stop stop-color="#005BFF"/>
<stop offset="1" stop-color="#005BFF" stop-opacity="0"/>
</linearGradient>
<linearGradient id="paint3_linear_12814_8033" x1="152.152" y1="152.152" x2="-0.151925" y2="-0.152439" gradientUnits="userSpaceOnUse">
<stop stop-color="#005BFF"/>
<stop offset="1" stop-color="#005BFF" stop-opacity="0"/>
</linearGradient>
<linearGradient id="paint4_linear_12814_8033" x1="228.152" y1="76" x2="75.8481" y2="227.848" gradientUnits="userSpaceOnUse">
<stop stop-color="#005BFF"/>
<stop offset="1" stop-color="#005BFF" stop-opacity="0"/>
</linearGradient>
<linearGradient id="paint5_linear_12814_8033" x1="228.152" y1="75.8479" x2="75.8481" y2="228.152" gradientUnits="userSpaceOnUse">
<stop stop-color="#00E2C5"/>
<stop offset="1" stop-color="#00E2C5" stop-opacity="0"/>
</linearGradient>
<linearGradient id="paint6_linear_12814_8033" x1="608.152" y1="151.848" x2="455.848" y2="304.152" gradientUnits="userSpaceOnUse">
<stop stop-color="#005BFF"/>
<stop offset="1" stop-color="#005BFF" stop-opacity="0"/>
</linearGradient>
<linearGradient id="paint7_linear_12814_8033" x1="456.152" y1="-0.151744" x2="303.848" y2="152.152" gradientUnits="userSpaceOnUse">
<stop stop-color="#005BFF"/>
<stop offset="1" stop-color="#005BFF" stop-opacity="0"/>
</linearGradient>
<linearGradient id="paint8_linear_12814_8033" x1="608" y1="-0.151758" x2="456.152" y2="152.152" gradientUnits="userSpaceOnUse">
<stop stop-color="#005BFF"/>
<stop offset="1" stop-color="#005BFF" stop-opacity="0"/>
</linearGradient>
<linearGradient id="paint9_linear_12814_8033" x1="456.152" y1="151.848" x2="303.848" y2="304.152" gradientUnits="userSpaceOnUse">
<stop stop-color="#005BFF"/>
<stop offset="1" stop-color="#005BFF" stop-opacity="0"/>
</linearGradient>
<linearGradient id="paint10_linear_12814_8033" x1="380" y1="75.8483" x2="531.848" y2="228.152" gradientUnits="userSpaceOnUse">
<stop stop-color="#005BFF"/>
<stop offset="1" stop-color="#005BFF" stop-opacity="0"/>
</linearGradient>
<linearGradient id="paint11_linear_12814_8033" x1="379.848" y1="75.8483" x2="532.152" y2="228.152" gradientUnits="userSpaceOnUse">
<stop stop-color="#00E2C5"/>
<stop offset="1" stop-color="#00E2C5" stop-opacity="0"/>
</linearGradient>
<linearGradient id="paint12_linear_12814_8033" x1="759.848" y1="-0.152074" x2="912.152" y2="152.152" gradientUnits="userSpaceOnUse">
<stop stop-color="#005BFF"/>
<stop offset="1" stop-color="#005BFF" stop-opacity="0"/>
</linearGradient>
<linearGradient id="paint13_linear_12814_8033" x1="607.848" y1="151.848" x2="760.152" y2="304.152" gradientUnits="userSpaceOnUse">
<stop stop-color="#005BFF"/>
<stop offset="1" stop-color="#005BFF" stop-opacity="0"/>
</linearGradient>
<linearGradient id="paint14_linear_12814_8033" x1="607.848" y1="-2.47877e-06" x2="760.152" y2="151.848" gradientUnits="userSpaceOnUse">
<stop stop-color="#005BFF"/>
<stop offset="1" stop-color="#005BFF" stop-opacity="0"/>
</linearGradient>
<linearGradient id="paint15_linear_12814_8033" x1="759.848" y1="151.848" x2="912.152" y2="304.152" gradientUnits="userSpaceOnUse">
<stop stop-color="#005BFF"/>
<stop offset="1" stop-color="#005BFF" stop-opacity="0"/>
</linearGradient>
<linearGradient id="paint16_linear_12814_8033" x1="683.848" y1="228" x2="836.152" y2="76.1516" gradientUnits="userSpaceOnUse">
<stop stop-color="#005BFF"/>
<stop offset="1" stop-color="#005BFF" stop-opacity="0"/>
</linearGradient>
<linearGradient id="paint17_linear_12814_8033" x1="683.848" y1="228.152" x2="836.152" y2="75.8477" gradientUnits="userSpaceOnUse">
<stop stop-color="#00E2C5"/>
<stop offset="1" stop-color="#00E2C5" stop-opacity="0"/>
</linearGradient>
<linearGradient id="paint18_linear_12814_8033" x1="1216.15" y1="152.152" x2="1063.85" y2="-0.15194" gradientUnits="userSpaceOnUse">
<stop stop-color="#005BFF"/>
<stop offset="1" stop-color="#005BFF" stop-opacity="0"/>
</linearGradient>
<linearGradient id="paint19_linear_12814_8033" x1="1064.15" y1="304.152" x2="911.848" y2="151.848" gradientUnits="userSpaceOnUse">
<stop stop-color="#005BFF"/>
<stop offset="1" stop-color="#005BFF" stop-opacity="0"/>
</linearGradient>
<linearGradient id="paint20_linear_12814_8033" x1="1216" y1="304.152" x2="1064.15" y2="151.848" gradientUnits="userSpaceOnUse">
<stop stop-color="#005BFF"/>
<stop offset="1" stop-color="#005BFF" stop-opacity="0"/>
</linearGradient>
<linearGradient id="paint21_linear_12814_8033" x1="1064.15" y1="152.152" x2="911.848" y2="-0.15194" gradientUnits="userSpaceOnUse">
<stop stop-color="#005BFF"/>
<stop offset="1" stop-color="#005BFF" stop-opacity="0"/>
</linearGradient>
<linearGradient id="paint22_linear_12814_8033" x1="1140" y1="228.152" x2="988.152" y2="75.8481" gradientUnits="userSpaceOnUse">
<stop stop-color="#005BFF"/>
<stop offset="1" stop-color="#005BFF" stop-opacity="0"/>
</linearGradient>
<linearGradient id="paint23_linear_12814_8033" x1="1140.15" y1="228.152" x2="987.848" y2="75.8481" gradientUnits="userSpaceOnUse">
<stop stop-color="#00E2C5"/>
<stop offset="1" stop-color="#00E2C5" stop-opacity="0"/>
</linearGradient>
<linearGradient id="paint24_linear_12814_8033" x1="1368.15" y1="-0.152074" x2="1215.85" y2="152.152" gradientUnits="userSpaceOnUse">
<stop stop-color="#005BFF"/>
<stop offset="1" stop-color="#005BFF" stop-opacity="0"/>
</linearGradient>
<linearGradient id="paint25_linear_12814_8033" x1="1520.15" y1="151.848" x2="1367.85" y2="304.152" gradientUnits="userSpaceOnUse">
<stop stop-color="#005BFF"/>
<stop offset="1" stop-color="#005BFF" stop-opacity="0"/>
</linearGradient>
<linearGradient id="paint26_linear_12814_8033" x1="1520.15" y1="-2.47877e-06" x2="1367.85" y2="151.848" gradientUnits="userSpaceOnUse">
<stop stop-color="#005BFF"/>
<stop offset="1" stop-color="#005BFF" stop-opacity="0"/>
</linearGradient>
<linearGradient id="paint27_linear_12814_8033" x1="1368.15" y1="151.848" x2="1215.85" y2="304.152" gradientUnits="userSpaceOnUse">
<stop stop-color="#005BFF"/>
<stop offset="1" stop-color="#005BFF" stop-opacity="0"/>
</linearGradient>
<linearGradient id="paint28_linear_12814_8033" x1="1444.15" y1="76" x2="1291.85" y2="227.848" gradientUnits="userSpaceOnUse">
<stop stop-color="#005BFF"/>
<stop offset="1" stop-color="#005BFF" stop-opacity="0"/>
</linearGradient>
<linearGradient id="paint29_linear_12814_8033" x1="1444.15" y1="75.8479" x2="1291.85" y2="228.152" gradientUnits="userSpaceOnUse">
<stop stop-color="#00E2C5"/>
<stop offset="1" stop-color="#00E2C5" stop-opacity="0"/>
</linearGradient>
</defs>
</svg>
