<svg width="80" height="80" viewBox="0 0 80 80" fill="none" xmlns="http://www.w3.org/2000/svg">
<path d="M46.5992 71.5397C56.2335 68.6991 63.2658 59.7884 63.2658 49.2341C63.2658 36.3914 52.8549 25.9805 40.0122 25.9805C27.1696 25.9805 16.7586 36.3914 16.7586 49.2341C16.7586 59.6477 23.6042 68.4619 33.0405 71.4237M5.06065 64.2614C0.27862 54.9944 0.399401 43.3533 5.42315 34.2066M10.7014 39.6208C7.98159 45.5727 7.86346 52.6655 10.3486 58.7159M74.9394 34.2066C79.7214 43.4736 79.6006 55.1147 74.5769 64.2614M69.2986 58.8472C72.0185 52.8953 72.1366 45.8025 69.6514 39.752" stroke="black" stroke-width="2" stroke-miterlimit="10" stroke-linecap="round" stroke-linejoin="round"/>
<path d="M40.0097 36.9702L44.5892 43.6516L52.4119 45.9809L47.4197 52.3625L47.6747 60.5606L40.0097 57.7462L32.3447 60.5606L32.5997 52.3625L27.6075 45.9809L35.43 43.6516L40.0097 36.9702ZM60.8944 14.0483L55.4192 31.818C51.3164 28.1856 45.9194 25.9802 40.0097 25.9802C34.1 25.9802 28.703 28.1855 24.6002 31.818L19.125 14.0483L25.6067 17.0937C29.7255 19.0289 34.6386 17.4155 36.8081 13.4152L40.0098 7.51172L43.2116 13.4152C45.3811 17.4153 50.2942 19.0289 54.413 17.0936L60.8944 14.0483Z" stroke="black" stroke-width="2" stroke-miterlimit="10" stroke-linecap="round" stroke-linejoin="round"/>
</svg>
