<svg width="227" height="41" viewBox="0 0 227 41" fill="none" xmlns="http://www.w3.org/2000/svg">
<path d="M120.678 35.5429C118.003 35.5429 115.759 35.0056 113.947 33.9312C112.091 32.8979 110.667 31.2448 109.934 29.2612L113.904 27.9387C114.292 29.0133 115.069 29.9223 116.104 30.4596C117.269 31.1621 118.823 31.4929 120.678 31.4929C122.534 31.4929 123.958 31.1208 125.08 30.2944C126.029 29.5918 126.461 28.7652 126.461 27.6081V27.5668C126.461 27.1535 126.374 26.7402 126.202 26.4096C126.072 26.1617 125.727 25.9137 125.296 25.6658C124.605 25.2939 123.829 24.9633 123.052 24.7566C122.189 24.4673 120.981 24.1781 119.47 23.8473C118.262 23.5994 117.313 23.3929 116.622 23.1862C115.845 22.9796 115.069 22.7316 114.292 22.4423C113.472 22.1531 112.739 21.7398 112.091 21.2025L112.005 21.1198C111.444 20.5825 110.969 20.0041 110.667 19.3016C110.279 18.475 110.106 17.6071 110.149 16.7393C110.149 14.425 111.142 12.4826 113.041 11.1602C114.767 9.9617 117.01 9.3418 119.686 9.3418C122.491 9.3418 124.864 9.9617 126.72 11.2428C128.618 12.5239 129.87 14.3836 130.517 16.7393L126.418 17.6898C126.072 16.2847 125.382 15.2515 124.303 14.5076C123.181 13.7637 121.671 13.3918 119.729 13.3918C117.96 13.3918 116.536 13.7224 115.587 14.425C114.767 15.0035 114.421 15.7474 114.421 16.8219C114.421 17.1525 114.465 17.4004 114.594 17.6485C114.68 17.8137 114.81 18.0204 114.939 18.1444C115.198 18.351 115.543 18.5164 115.845 18.6402L115.932 18.6816C116.536 18.9296 117.14 19.1362 117.744 19.2602C118.348 19.4254 119.254 19.6321 120.376 19.88C122.059 20.252 123.354 20.5414 124.346 20.8719C125.382 21.2025 126.374 21.6158 127.324 22.1117C128.489 22.7316 129.352 23.5168 129.913 24.4673V24.5087C130.431 25.4591 130.69 26.5337 130.647 27.6494C130.647 30.0464 129.611 32.1127 127.626 33.5179C125.813 34.8816 123.483 35.5429 120.678 35.5429Z" fill="#0B0028"/>
<path d="M77.5705 28.4763L80.6343 31.4106L80.2891 31.7411C78.3473 33.6008 75.9307 34.8406 73.2553 35.3365C72.3492 35.5017 71.4862 35.5844 70.5799 35.5844C68.7675 35.5844 66.9984 35.2538 65.3153 34.5927C62.7695 33.6008 60.655 31.9063 59.1447 29.7575C57.6344 27.6084 56.8145 25.0461 56.8145 22.4427C56.8145 19.839 57.6344 17.3181 59.1447 15.1278C60.655 12.9788 62.8125 11.2845 65.3153 10.2926C67.8182 9.30078 70.5799 9.05282 73.2553 9.54874C75.9307 10.0447 78.3473 11.2845 80.2891 13.1441L80.6343 13.4748L77.5705 16.4089L77.2254 16.0783C75.8877 14.7972 74.2479 13.9707 72.3923 13.5987C70.5799 13.2681 68.6812 13.4334 66.9551 14.0947C65.2291 14.7972 63.7618 15.913 62.7262 17.4008C61.6906 18.8885 61.1297 20.6242 61.1297 22.4013C61.1297 24.1783 61.6906 25.914 62.7262 27.4017C63.7618 28.8896 65.2291 30.0467 66.9551 30.7079C68.6812 31.4106 70.5799 31.5758 72.3923 31.2038C74.2046 30.8319 75.8877 30.0054 77.2254 28.7242L77.5705 28.4763Z" fill="#0B0028"/>
<path d="M226.269 9.75937V25.8767C226.269 26.9925 226.055 28.1083 225.709 29.1415C225.278 30.34 224.588 31.4557 223.681 32.4063C223.422 32.6542 223.162 32.9436 222.904 33.1502C221.911 34.018 220.746 34.6792 219.495 35.0925C218.416 35.4644 217.295 35.6298 216.086 35.6298C214.92 35.6298 213.755 35.4231 212.678 35.0925C211.425 34.6792 210.26 34.018 209.269 33.1502C209.009 32.9436 208.75 32.6956 208.492 32.4063C208.318 32.1996 208.146 32.0344 208.017 31.8277C207.843 32.0344 207.715 32.1996 207.541 32.4063C207.283 32.6542 207.024 32.9436 206.766 33.1502C205.729 34.018 204.608 34.6792 203.357 35.0925C202.278 35.4644 201.155 35.6298 199.948 35.6298C198.782 35.6298 197.617 35.4231 196.538 35.0925C195.287 34.6792 194.122 34.018 193.129 33.1502C192.871 32.9436 192.612 32.6956 192.352 32.4063C191.447 31.4557 190.757 30.34 190.324 29.1415C189.936 28.1083 189.764 27.0338 189.764 25.8767V9.55273H193.992V25.8767C193.992 26.8686 194.252 27.8604 194.769 28.7282C195.287 29.5961 196.064 30.2986 196.927 30.8359C198.739 31.8277 201.069 31.8277 202.882 30.8359C203.787 30.34 204.522 29.5961 205.083 28.7282C205.601 27.8604 205.859 26.8686 205.859 25.8767V9.55273H209.053H210.132V25.8767C210.132 26.8686 210.39 27.8604 210.908 28.7282C211.425 29.5961 212.202 30.2986 213.066 30.8359C214.878 31.8277 217.208 31.8277 219.02 30.8359C219.927 30.34 220.66 29.5961 221.178 28.7282C221.695 27.8604 221.955 26.8686 221.955 25.8767V9.75937H226.269Z" fill="#0B0028"/>
<path d="M155.327 19.058V35.3821H151.098V19.058C151.098 18.0663 150.839 17.0744 150.321 16.2066C149.804 15.3387 149.027 14.6362 148.121 14.1402C146.308 13.1484 143.978 13.1484 142.166 14.1402C141.26 14.6362 140.526 15.38 139.965 16.2066C139.534 16.9092 139.275 17.653 139.188 18.4796V35.3821H134.873V1.99023H139.188V11.1234C139.965 10.5861 140.828 10.1729 141.691 9.84227C143.849 9.09839 146.308 9.09839 148.466 9.84227C149.717 10.2555 150.882 10.9168 151.875 11.7846C152.134 11.9913 152.393 12.2392 152.652 12.5285C153.558 13.5203 154.248 14.5948 154.68 15.7933C155.111 16.8264 155.327 17.9423 155.327 19.058Z" fill="#0B0028"/>
<path d="M181.349 25.0476L181.262 25.2543C181.176 25.5435 181.047 25.8327 180.873 26.1635C180.357 27.2379 179.622 28.2297 178.717 29.0149C177.94 29.7175 177.033 30.2547 176.041 30.6679C175.049 31.0812 173.97 31.3293 172.933 31.3706C171.682 31.4531 170.475 31.2879 169.31 30.916C169.008 30.8333 168.705 30.7093 168.36 30.5441C167.238 30.0481 166.202 29.3456 165.383 28.4777C165.167 28.2297 164.908 27.9818 164.692 27.6925L185.708 19.0966L185.578 18.6833C185.405 18.146 185.233 17.6502 185.017 17.1543C184.801 16.6583 184.543 16.1624 184.24 15.6665C183.894 15.1292 183.592 14.6746 183.291 14.2614C182.515 13.3109 181.65 12.4843 180.615 11.7405C179.882 11.2032 179.061 10.7486 178.285 10.3767C177.768 10.1287 177.25 9.92209 176.689 9.75678C175.826 9.46751 174.919 9.3022 174.013 9.17822C172.761 9.05424 171.51 9.05424 170.303 9.21955C169.138 9.38485 168.015 9.71545 166.979 10.1287C165.9 10.542 164.908 11.1206 163.959 11.8231C162.966 12.567 162.103 13.3935 161.326 14.344C160.765 15.0466 160.291 15.8318 159.902 16.5757C159.643 17.1129 159.428 17.6089 159.255 18.1047C158.953 18.9312 158.78 19.7991 158.651 20.667C158.478 21.8654 158.521 23.0639 158.694 24.221C158.867 25.337 159.212 26.4114 159.643 27.4031C160.075 28.4364 160.679 29.387 161.369 30.296C162.146 31.2466 163.009 32.0731 164.045 32.817C164.778 33.3543 165.598 33.8089 166.375 34.1808C166.893 34.4287 167.454 34.6354 167.972 34.8006C168.835 35.0899 169.74 35.2552 170.647 35.3793C171.208 35.462 171.768 35.462 172.331 35.462C173.02 35.462 173.71 35.4206 174.359 35.2966C175.524 35.1312 176.645 34.842 177.68 34.3874C178.759 33.9327 179.752 33.3956 180.701 32.6929C181.694 31.9491 182.557 31.1226 183.334 30.1722C183.894 29.4695 184.369 28.6843 184.757 27.9404C185.017 27.4031 185.233 26.9073 185.405 26.4114C185.708 25.5849 185.88 24.717 186.01 23.8491L186.096 23.0226L181.349 25.0476ZM163.009 23.8904C162.966 23.5185 162.923 23.2293 162.88 22.8987C162.793 21.7002 162.966 20.5429 163.354 19.4272C163.441 19.1379 163.57 18.8487 163.743 18.5179C164.261 17.4435 164.994 16.493 165.9 15.6665C166.677 14.9639 167.583 14.4267 168.576 14.0134C169.568 13.6002 170.647 13.3522 171.682 13.3109C171.898 13.3109 172.115 13.2695 172.287 13.2695C173.322 13.2695 174.315 13.4349 175.308 13.7655C175.61 13.8481 175.912 13.9721 176.257 14.1374C177.38 14.6333 178.371 15.3359 179.234 16.2037C179.45 16.4517 179.666 16.741 179.882 17.0302L163.009 23.8904Z" fill="#0B0028"/>
<path d="M107.734 22.4842C107.734 15.1695 101.563 9.25977 94.0113 9.25977C86.4597 9.25977 80.2891 15.2108 80.2891 22.4842C80.2891 29.799 86.4597 35.7088 94.0113 35.7088C97.636 35.7088 100.916 34.345 103.375 32.1134V35.3781H107.69V23.5175C107.734 23.1869 107.734 22.8561 107.734 22.4842ZM94.0545 31.5348C91.1633 31.5348 88.5742 30.2536 86.8481 28.2286C86.7186 28.1046 86.6323 27.9394 86.5029 27.8154C86.4165 27.6913 86.3302 27.5675 86.2439 27.4434C86.2008 27.4021 86.2008 27.3607 86.1576 27.3607C85.1652 25.9557 84.6041 24.2613 84.6041 22.4017C84.6041 17.4425 88.833 13.3924 93.968 13.3924C99.0169 13.3924 103.116 17.2357 103.332 22.0296V22.5255C103.332 22.8148 103.332 23.1042 103.289 23.3934C103.289 23.4761 103.289 23.5175 103.246 23.6001C103.203 23.8067 103.203 24.0546 103.116 24.2613C103.116 24.344 103.073 24.4679 103.073 24.5505C103.03 24.6746 103.03 24.7573 102.987 24.8811C102.944 25.0465 102.901 25.2119 102.814 25.3771C102.771 25.5425 102.685 25.7077 102.598 25.9144C102.512 26.0796 102.469 26.245 102.383 26.4103C102.383 26.4103 102.383 26.4103 102.383 26.4517C102.296 26.6169 102.21 26.7823 102.124 26.9475C102.081 27.0302 102.038 27.1128 101.951 27.1955C101.908 27.2781 101.822 27.3607 101.779 27.4434C101.779 27.4848 101.735 27.5261 101.692 27.5675C100.096 29.9644 97.2476 31.5348 94.0545 31.5348Z" fill="#0B0028"/>
<path d="M1.53239 17.448C0.551215 18.3878 0 19.6622 0 20.9911C-9.66885e-08 22.9226 1.63522 24.4884 3.65208 24.4884C5.66085 24.4884 7.29078 22.9352 7.30385 21.0143C7.31678 21.8394 8.01917 22.5044 8.88373 22.5044C9.75638 22.5044 10.4638 21.8269 10.4638 20.9912C10.4638 19.6623 9.91259 18.3878 8.93142 17.448C7.95026 16.5084 6.6195 15.9805 5.23191 15.9805C3.84432 15.9805 2.51356 16.5084 1.53239 17.448Z" fill="#0B0028"/>
<path d="M40.7557 23.0208C41.7368 22.0812 42.2881 20.8068 42.2881 19.4779C42.2881 17.5464 40.6529 15.9805 38.636 15.9805C36.6273 15.9805 34.9973 17.5337 34.9843 19.4546C34.9713 18.6296 34.269 17.9645 33.4042 17.9645C32.5317 17.9645 31.8242 18.6421 31.8242 19.4777C31.8242 20.8066 32.3754 22.0812 33.3566 23.0208C34.3379 23.9606 35.6686 24.4884 37.0562 24.4884C38.4437 24.4884 39.7745 23.9606 40.7557 23.0208Z" fill="#0B0028"/>
<path d="M18.1496 39.0341C19.1307 39.9738 20.4615 40.5017 21.8492 40.5017C23.8659 40.5017 25.5009 38.9357 25.5009 37.004C25.5009 35.0803 23.879 33.5193 21.8733 33.5068C22.7348 33.4943 23.4292 32.8217 23.4292 31.9937C23.4292 31.158 22.7218 30.4805 21.8492 30.4805C20.4616 30.4805 19.1307 31.0083 18.1496 31.9481C17.1684 32.8877 16.6172 34.1623 16.6172 35.4912C16.6172 36.8199 17.1684 38.0945 18.1496 39.0341Z" fill="#0B0028"/>
<path d="M23.9686 1.46757C22.9874 0.527899 21.6566 5.80877e-08 20.2691 0C18.2522 -1.77029e-07 16.6172 1.56605 16.6172 3.4976C16.6172 5.42138 18.239 6.98239 20.2448 6.99489C19.3832 7.00728 18.6889 7.67997 18.6889 8.50795C18.6889 9.34371 19.3962 10.0212 20.2689 10.0212C21.6566 10.0212 22.9874 9.4933 23.9686 8.55363C24.9497 7.61397 25.501 6.3395 25.501 5.01061C25.501 3.6817 24.9497 2.40724 23.9686 1.46757Z" fill="#0B0028"/>
<path d="M9.32734 4.99219C7.93975 4.99219 6.60899 5.52009 5.62781 6.45976L5.62818 6.46009C4.20206 7.82591 4.20206 10.0403 5.62818 11.4061C7.05013 12.7679 9.35294 12.7719 10.7801 11.4181C10.1755 12.01 10.1796 12.9592 10.7925 13.5461C11.4095 14.1371 12.41 14.1371 13.0271 13.5461C13.0371 13.5365 13.0471 13.5267 13.0568 13.5169C14.0192 12.5801 14.5593 11.3181 14.5593 10.0028C14.5593 8.67389 14.008 7.39942 13.0269 6.45976C12.0457 5.52009 10.7149 4.99219 9.32734 4.99219Z" fill="#0B0028"/>
<path d="M31.4523 26.9139C32.0653 27.5008 32.0693 28.4501 31.4648 29.042C32.8918 27.6882 35.1947 27.6922 36.6167 29.054C38.0427 30.4197 38.0427 32.6342 36.6167 33.9999L36.617 34.0002C35.6358 34.94 34.305 35.4679 32.9175 35.4679C31.53 35.4679 30.1992 34.94 29.2179 34.0002C28.2369 33.0606 27.6855 31.7862 27.6855 30.4573C27.6855 29.1419 28.2256 27.88 29.1881 26.9433C29.1977 26.9333 29.2076 26.9235 29.2178 26.9139C29.8348 26.323 30.8353 26.323 31.4523 26.9139Z" fill="#0B0028"/>
<path d="M35.4999 5.39741C34.0737 4.03159 31.7615 4.03159 30.3355 5.39741C28.9166 6.75621 28.9093 8.95496 30.3137 10.3224C29.695 9.75251 28.7111 9.75951 28.1015 10.3434C27.4845 10.9343 27.4843 11.8923 28.1013 12.4833L28.1012 12.4835C29.0823 13.4232 30.413 13.9511 31.8007 13.9511C33.1882 13.9511 34.519 13.4232 35.5001 12.4835C36.4813 11.5438 37.0325 10.2694 37.0325 8.94046C37.0325 7.61157 36.4812 6.33707 35.4999 5.39741C35.4999 5.39744 35.4999 5.39736 35.4999 5.39741Z" fill="#0B0028"/>
<path d="M14.142 27.9894C14.7591 28.5804 14.7591 29.5386 14.142 30.1295C13.5315 30.7142 12.5456 30.7203 11.9272 30.1479C13.334 31.5153 13.3276 33.7158 11.9079 35.0754C10.4818 36.4413 8.16954 36.4413 6.74342 35.0754C6.72779 35.0604 6.71233 35.0454 6.69704 35.0302C5.74484 34.0952 5.21094 32.84 5.21094 31.5322C5.21094 30.2033 5.76216 28.9287 6.74334 27.9891C7.72451 27.0493 9.05526 26.5215 10.4429 26.5215C11.8305 26.5215 13.1612 27.0493 14.1424 27.9891L14.142 27.9894Z" fill="#0B0028"/>
</svg>
