<svg width="172" height="45" viewBox="0 0 172 45" fill="none" xmlns="http://www.w3.org/2000/svg">
<path fill-rule="evenodd" clip-rule="evenodd" d="M150.17 4.91595L145.276 9.83193L140.383 4.91595L145.276 0L150.17 4.91595ZM29.617 32.4261C19.5476 43.3925 1.10283 37.153 0.0676638 22.7833C-1.24982 4.9156 16.9127 -3.49828 27.829 6.23913L23.8765 11.4387C17.195 6.14459 8.2549 10.2097 8.53722 20.7034C8.81954 31.3862 19.9241 33.7496 25.6645 27.6992L29.617 32.4261ZM35.7322 22.6882C36.1087 19.8521 40.2493 17.0159 43.4489 17.0159C46.9309 17.0159 48.4366 20.7029 46.6486 22.2155C45.3226 23.4073 41.409 23.0914 38.4002 22.8486C37.3518 22.764 36.4132 22.6882 35.7322 22.6882ZM35.9205 27.7932H43.7313C57.8472 27.6042 53.9888 9.26381 39.4024 12.289C35.2617 13.1399 31.5916 15.976 30.0859 20.4193C28.7684 24.3899 28.8625 28.0768 30.4623 31.4802C32.0621 34.8836 34.8853 36.9634 39.1201 37.7197C43.3549 38.476 47.3073 37.4361 51.1656 34.6L48.1543 30.1567C45.7075 31.8584 43.2607 32.4256 40.6258 31.6693C37.9908 30.913 36.391 29.684 35.9205 27.7932ZM53.8027 12.6689V14.3706V37.5324L60.4843 37.6269V31.1038C62.5546 30.8202 64.3426 31.1038 66.0365 31.8601C67.7304 32.7109 69.142 34.7908 70.2713 38.2887C70.8359 40.0849 71.777 41.5975 73.0945 42.7319C75.8416 45.2041 81.0598 44.9491 85.9551 44.7099C89.1094 44.5558 92.1296 44.4082 94.2684 45.0009C94.6402 37.9584 91.3554 38.5937 87.205 39.3964C84.001 40.0161 80.2811 40.7355 77.3293 38.0996C76.3882 37.2487 75.7295 36.2088 75.2589 34.9799C74.412 32.5219 73.6591 30.8202 72.9063 29.9693C72.1534 29.1185 71.2124 28.5513 70.0831 28.2677C71.8711 27.8895 73.0945 27.0387 73.9415 25.6206C75.9177 21.5555 75.8236 18.0576 73.565 15.0323C71.3065 12.0071 66.7894 11.2508 60.202 12.6689H53.8027ZM60.2961 18.3412C65.7542 16.6395 68.6715 17.5849 69.0479 21.1773C69.3302 24.7697 66.5071 25.9987 60.3902 24.9588L60.2961 18.3412ZM80.4338 21.5527L78.3634 15.8804C82.5982 13.7061 86.3625 12.5716 89.5621 12.288C92.7617 12.0989 95.3025 12.6662 97.2788 14.1788C99.1609 15.6914 100.29 17.5821 100.478 19.9456L100.384 34.6935C100.384 35.7334 100.572 36.6788 101.043 37.7187H94.1733L93.8909 35.9225C93.044 37.246 90.8795 37.8132 87.3035 37.7187C83.7275 37.6242 81.1866 36.7733 79.775 35.0717C78.3634 33.37 77.7988 31.101 78.1752 28.1704C78.5516 25.2397 80.3396 23.1599 83.6334 22.0254C86.833 20.891 90.3149 21.1746 93.985 22.8762C94.5497 20.2292 93.4204 18.8111 90.5031 18.7166C87.6799 18.622 84.2921 19.5674 80.4338 21.5527ZM93.8909 27.6977C89.8444 26.0905 87.0212 25.996 85.4214 27.3195C83.8216 28.7376 83.9157 30.0611 85.6096 31.4792C87.2094 32.8027 90.0326 32.7082 93.8909 31.0065V27.6977ZM104.058 12.7636V14.938L104.152 37.6271L110.927 37.7216V21.272C111.116 19.4758 112.339 18.625 114.504 18.625C116.668 18.625 117.985 19.4758 118.362 21.272V37.8162H124.949V21.272C125.326 19.3813 126.549 18.4359 128.714 18.4359C130.784 18.4359 132.007 19.2867 132.384 20.9884V37.8162H138.783V21.083C138.501 16.4506 136.336 13.709 132.478 13.0472C128.619 12.3855 125.326 13.2363 122.691 15.7888C121.561 13.8981 119.679 12.9527 117.044 12.8582C114.409 12.7636 112.339 13.4254 110.833 14.938C110.804 14.1633 110.849 13.5295 110.886 13.0039C110.968 11.8621 111.012 11.2315 110.175 10.7783C108.112 11.5319 105.395 10.5961 102.118 9.46723L102.082 9.45482C95.4941 7.18591 87.2127 4.44431 76.6729 11.3456L78.1786 13.709C87.5892 7.56406 95.2118 10.1166 101.235 12.1964C102.27 12.1964 103.211 12.48 104.058 12.7636ZM141.886 37.627L141.792 12.1963H148.756V37.627H141.886ZM172 33.5607C162.496 43.2036 150.45 35.6406 150.92 24.9578C151.391 13.9914 162.966 8.03549 171.53 15.7876L167.201 20.7036C162.684 16.9221 157.508 18.9074 157.226 24.8632C156.943 30.7246 162.966 33.088 167.671 29.0229L172 33.5607Z" fill="#030510"/>
</svg>
