<svg width="187" height="45" viewBox="0 0 187 45" fill="none" xmlns="http://www.w3.org/2000/svg">
<g clip-path="url(#clip0_5729_36853)">
<path fill-rule="evenodd" clip-rule="evenodd" d="M76.6273 40.8592V15.2092C76.6273 11.9692 79.2373 9.44922 82.3873 9.44922V27.3592L89.4073 20.2492C90.4873 19.0792 92.0173 18.4492 93.6373 18.4492H98.8573L88.4173 28.1692L98.8573 40.8592H94.7173C92.9173 40.8592 91.2073 40.0492 90.0373 38.6092L84.5473 31.7692L82.3873 33.7492V40.7692H76.6273V40.8592ZM7.23727 39.1492C9.48727 40.4992 12.0973 41.1292 14.9773 41.1292C16.4173 41.1292 17.7673 40.9492 19.2073 40.5892C20.6473 40.2292 21.9073 39.6892 23.0773 39.0592C24.2473 38.4292 25.1473 37.7092 25.8673 36.9892L22.8973 32.2192C21.9973 33.1192 21.0073 33.8392 19.7473 34.4692C18.4873 35.0092 17.2273 35.2792 15.7873 35.2792C13.8973 35.2792 12.2773 34.9192 10.8373 34.1092C9.39727 33.2992 8.31727 32.2192 7.50727 30.7792C6.69727 29.3392 6.33727 27.6292 6.33727 25.7392C6.33727 23.8492 6.69727 22.2292 7.50727 20.7892C8.31727 19.3492 9.39727 18.1792 10.6573 17.4592C12.0073 16.6492 13.5373 16.2892 15.2473 16.2892C16.5973 16.2892 17.8573 16.5592 19.0273 17.1892C20.1973 17.8192 21.2773 18.6292 22.2673 19.7092L26.1373 15.3892C24.9673 13.8592 23.3473 12.6892 21.3673 11.7892C19.3873 10.8892 17.4073 10.4392 15.2473 10.4392C13.0873 10.4392 11.1073 10.7992 9.21727 11.6092C7.41727 12.4192 5.79727 13.4092 4.35727 14.8492C3.00727 16.1992 1.92727 17.9092 1.11727 19.7092C0.307266 21.5092 -0.0527344 23.5792 -0.0527344 25.7392C-0.0527344 28.7992 0.577266 31.4992 1.83727 33.7492C3.18727 35.9992 4.98727 37.7992 7.23727 39.1492ZM28.7473 26.4592V40.7692H34.5973V31.5892C34.5973 30.1492 35.0473 28.9792 36.0373 27.9892C37.0273 26.9992 38.1973 26.5492 39.5473 26.5492C39.9973 26.5492 40.5373 26.6392 40.9873 26.7292C41.4373 26.8192 41.8873 26.9992 42.1573 27.1792L43.6873 20.7892C43.4173 20.6992 42.9673 20.6092 42.5173 20.5192C42.0673 20.4292 41.6173 20.4292 41.0773 20.4292C39.7273 20.4292 38.4673 20.7892 37.2073 21.5992C36.0373 22.4092 35.0473 23.3992 34.3273 24.5692L34.2373 20.8792C31.2673 20.8792 28.7473 23.3992 28.7473 26.4592ZM46.1173 40.8592V26.7292C46.1173 23.4892 48.7273 20.8792 51.9673 20.8792V40.8592H46.1173ZM60.0673 39.5092C61.5973 40.4092 63.3073 40.8592 65.1973 40.8592C66.9073 40.8592 68.5273 40.4992 70.0573 39.8692C71.5873 39.1492 72.7573 38.2492 73.6573 37.1692L70.7773 33.7492C70.0573 34.5592 69.3373 35.1892 68.4373 35.6392C67.6273 36.0892 66.6373 36.2692 65.6473 36.2692C64.5673 36.2692 63.6673 35.9992 62.8573 35.4592C62.0473 34.9192 61.3273 34.1992 60.8773 33.2992C60.4273 32.3992 60.1573 31.4092 60.1573 30.2392C60.1573 29.0692 60.4273 28.0792 60.8773 27.1792C61.3273 26.2792 62.0473 25.5592 62.8573 25.1092C63.6673 24.5692 64.6573 24.2992 65.7373 24.2992C66.7273 24.2992 67.6273 24.5692 68.6173 25.1092C69.5173 25.6492 70.3273 26.2792 70.8673 26.9992L73.7473 23.5792C72.8473 22.4992 71.6773 21.5992 70.2373 20.8792C68.7973 20.2492 67.0873 19.8892 65.2873 19.8892C63.3973 19.8892 61.6873 20.3392 60.1573 21.2392C58.6273 22.1392 57.4573 23.3992 56.5573 25.0192C55.6573 26.6392 55.2973 28.3492 55.2973 30.4192C55.2973 32.3992 55.7473 34.1992 56.5573 35.8192C57.3673 37.3492 58.6273 38.6092 60.0673 39.5092ZM102.367 40.4992C103.897 41.1292 105.607 41.3992 107.497 41.3992C109.027 41.3992 110.467 41.1292 111.727 40.5892C112.987 40.0492 113.977 39.2392 114.697 38.2492C115.417 37.2592 115.777 36.0892 115.777 34.9192C115.777 33.3892 115.327 32.2192 114.427 31.2292C113.437 30.1492 111.637 29.3392 109.117 28.6192C107.227 28.0792 106.057 27.7192 105.517 27.3592C104.977 26.9992 104.707 26.4592 104.617 25.8292C104.617 24.4792 105.607 23.8492 107.497 23.8492C108.307 23.8492 109.207 24.1192 110.107 24.5692C111.097 25.0192 111.907 25.5592 112.717 26.2792L115.687 23.1292C114.697 22.1392 113.527 21.3292 112.087 20.7892C110.647 20.2492 109.117 19.8892 107.497 19.8892C106.057 19.8892 104.797 20.1592 103.537 20.6992C102.367 21.2392 101.377 21.9592 100.567 22.8592C99.8473 23.7592 99.4873 24.8392 99.4873 26.0992C99.4873 27.6292 99.9373 28.9792 100.927 29.9692C102.007 31.1392 103.897 32.0392 106.597 32.7592C108.397 33.2092 109.567 33.6592 110.017 33.9292C110.467 34.2892 110.737 34.7392 110.737 35.2792C110.737 35.9092 110.467 36.4492 110.017 36.8092C109.477 37.1692 108.847 37.3492 108.037 37.3492C107.047 37.3492 105.967 37.1692 104.977 36.8092C103.987 36.4492 103.087 35.8192 102.277 34.9192L98.8573 37.7992C99.6673 38.9692 100.927 39.8692 102.367 40.4992Z" fill="#0B0028"/>
<path fill-rule="evenodd" clip-rule="evenodd" d="M172.567 39.9642C173.917 40.5042 175.267 40.7742 176.617 40.7742C178.597 40.7742 180.307 40.2342 181.837 39.2442C183.367 38.2542 184.537 36.8142 185.437 35.1042C186.337 33.3042 186.787 31.3242 186.787 29.0742C186.787 26.8242 186.337 24.7542 185.437 23.0442C184.537 21.2442 183.367 19.8942 181.747 18.9042C180.217 17.9142 178.507 17.3742 176.527 17.3742C175.177 17.3742 173.827 17.6442 172.567 18.2742C171.307 18.9042 170.407 19.6242 169.597 20.5242V8.82422C166.357 8.82422 163.747 11.4342 163.747 14.6742V40.3242H169.237L169.327 37.8042C170.317 38.7042 171.307 39.4242 172.567 39.9642ZM179.497 34.0242C178.417 35.2842 177.067 35.9142 175.357 35.9142C173.557 35.9142 172.207 35.2842 171.127 34.0242C170.047 32.7642 169.507 31.1442 169.507 29.1642C169.507 27.1842 170.047 25.6542 171.127 24.3942C172.207 23.1342 173.647 22.5042 175.357 22.5042C177.067 22.5042 178.507 23.1342 179.497 24.3942C180.577 25.6542 181.117 27.1842 181.117 29.1642C181.117 31.1442 180.577 32.7642 179.497 34.0242ZM120.727 40.9542V15.3042C120.727 12.0642 123.427 9.36422 126.667 9.36422H126.847V35.3742H133.327C136.387 35.3742 138.907 37.8942 138.907 40.9542H120.727ZM147.907 40.9542C146.197 40.9542 144.667 40.5042 143.317 39.6042C141.967 38.7042 140.887 37.4442 139.987 35.8242C139.177 34.2042 138.817 32.4042 138.817 30.4242C138.817 28.3542 139.177 26.5542 139.987 25.0242C140.797 23.4042 141.967 22.2342 143.317 21.3342C144.757 20.4342 146.377 19.9842 148.087 19.9842C149.527 19.9842 150.787 20.2542 151.867 20.8842C152.947 21.4242 153.847 22.1442 154.477 23.1342C154.477 21.6942 155.647 20.4342 157.177 20.4342H159.787V40.5042H154.477V37.8042C153.757 38.7042 152.767 39.4242 151.687 40.0542C150.517 40.5942 149.347 40.9542 147.907 40.9542ZM149.347 36.3642C150.967 36.3642 152.227 35.8242 153.217 34.7442C154.207 33.6642 154.657 32.2242 154.657 30.4242C154.657 28.6242 154.207 27.1842 153.217 26.1042C152.227 25.0242 150.967 24.4842 149.347 24.4842C147.817 24.4842 146.557 25.0242 145.567 26.1042C144.577 27.1842 144.127 28.6242 144.127 30.4242C144.127 32.2242 144.577 33.6642 145.567 34.7442C146.557 35.8242 147.817 36.3642 149.347 36.3642Z" fill="#0B0028"/>
<path d="M54.1277 5.2225C57.2777 7.9225 57.5477 12.6925 54.8477 15.8425C52.1477 18.9925 47.3777 19.2625 44.2277 16.5625C41.0777 13.8625 40.8077 9.0925 43.5077 5.9425C46.2977 2.7925 50.9777 2.5225 54.1277 5.2225Z" fill="#0B0028"/>
</g>
<defs>
<clipPath id="clip0_5729_36853">
<rect width="186.75" height="45" fill="white" transform="translate(0.0371094)"/>
</clipPath>
</defs>
</svg>
