<svg width="80" height="80" viewBox="0 0 80 80" fill="none" xmlns="http://www.w3.org/2000/svg">
<path d="M7.49844 76.5884H7.20885C6.22271 76.5201 5.31012 76.103 4.60199 75.3949C3.82502 74.6179 3.39844 73.5948 3.39844 72.4984V7.49844C3.39844 6.59963 3.70146 5.71581 4.24604 5.00161C4.78675 4.29248 5.57038 3.77454 6.43528 3.54209C6.79199 3.45082 7.14887 3.39844 7.49844 3.39844C8.04095 3.39844 8.56596 3.5048 9.06679 3.71025C9.89695 4.05883 10.601 4.67508 11.0449 5.44758L11.0449 5.44762L11.0497 5.45569L11.1697 5.65569L11.3153 5.89844H11.5984H76.2484C76.2944 5.89844 76.3442 5.90623 76.3998 5.92557C76.4465 5.9452 76.4829 5.96997 76.5049 5.992C76.535 6.02208 76.5611 6.05755 76.5878 6.11361C76.6005 6.14895 76.6084 6.19192 76.6084 6.23844V68.7384C76.6084 68.7865 76.5999 68.8388 76.5785 68.8976C76.5714 68.9172 76.5527 68.9499 76.4921 69.0192L76.4923 69.019C76.4923 69.019 76.4868 69.0247 76.4726 69.034C76.4573 69.0439 76.4369 69.0545 76.4127 69.0642C76.3782 69.078 76.3321 69.0884 76.2684 69.0884H67.1184H66.6184V69.5884V76.2384C66.6184 76.2865 66.6099 76.3388 66.5885 76.3976C66.5814 76.4172 66.5627 76.4499 66.5022 76.5192C66.5027 76.5186 66.502 76.5194 66.4998 76.5213C66.4969 76.5238 66.4914 76.5282 66.4826 76.534C66.4673 76.5439 66.4469 76.5545 66.4227 76.5642C66.3882 76.578 66.3421 76.5884 66.2784 76.5884H7.49844ZM65.3984 75.8984H65.8984V75.3984V69.5984V69.0984H65.3984H7.49844C6.59616 69.0984 5.73889 69.4509 5.09488 70.0949C4.45088 70.7389 4.09844 71.5962 4.09844 72.4984C4.09844 73.4007 4.45088 74.258 5.09488 74.902C5.73889 75.546 6.59617 75.8984 7.49844 75.8984H65.3984ZM4.09844 68.8684V69.739L4.85037 69.3003L5.44651 68.9526C5.44723 68.9521 5.44795 68.9517 5.44867 68.9513C6.07612 68.5933 6.78027 68.3984 7.49844 68.3984H10.3984H10.8984V67.8984V7.49844C10.8984 6.59616 10.546 5.73889 9.90199 5.09488C9.25799 4.45088 8.40071 4.09844 7.49844 4.09844C6.59616 4.09844 5.73889 4.45088 5.09488 5.09488C4.45153 5.73824 4.09844 6.58525 4.09844 7.49844V68.8684ZM11.5984 67.8984V68.3984H12.0984H75.3984H75.8984V67.8984V7.09844V6.59844H75.3984H12.0984H11.5984V7.09844V67.8984Z" fill="#00E2C5" stroke="#00E2C5"/>
<path d="M16.7172 20.3602H15.9968C16.1638 19.609 16.5433 18.9202 17.0998 18.3637C17.8768 17.5867 18.8999 17.1602 19.9963 17.1602C21.0926 17.1602 22.1157 17.5867 22.8927 18.3637C23.6697 19.1407 24.0963 20.1638 24.0963 21.2602V27.5102C24.0963 28.084 24.3196 28.6177 24.7171 29.0281L24.7171 29.0281L24.7227 29.0337C24.9046 29.2157 25.1176 29.3606 25.3463 29.4672V30.2259C25.2777 30.2032 25.2097 30.1779 25.1424 30.1502C24.7912 29.9953 24.4759 29.782 24.2029 29.5097L23.9362 29.2331L23.6015 28.886L23.2425 29.2079L22.9525 29.4679L22.9525 29.4678L22.9482 29.4718C22.3128 30.0549 21.4844 30.3702 20.6162 30.3702H20.1753L20.1853 30.3502H19.3762C18.4475 30.3502 17.5751 29.9919 16.9198 29.3366C16.2645 28.6813 15.9062 27.8089 15.9062 26.8802C15.9062 25.9514 16.2645 25.079 16.9198 24.4237C17.5751 23.7684 18.4475 23.4102 19.3762 23.4102H22.8962H23.3962V22.9102V21.2602C23.3962 20.3579 23.0438 19.5006 22.3998 18.8566C21.7558 18.2126 20.8985 17.8602 19.9963 17.8602C19.094 17.8602 18.2367 18.2126 17.5927 18.8566C17.173 19.2763 16.8703 19.795 16.7172 20.3602ZM16.5962 26.8802C16.5962 27.6203 16.8873 28.3295 17.4148 28.8458C17.9266 29.3566 18.6422 29.6602 19.3762 29.6602H20.6262C21.3708 29.6602 22.0674 29.3661 22.5898 28.8437C23.1122 28.3213 23.4062 27.6247 23.4062 26.8802V24.6002V24.1002H22.9062H19.3862H19.3762C18.6317 24.1002 17.9351 24.3942 17.4127 24.9166C16.8903 25.439 16.5962 26.1356 16.5962 26.8802Z" fill="#00E2C5" stroke="#00E2C5"/>
<path d="M40.1389 25.6817L40.0203 25.3502H39.6681H32.8281H32.476L32.3574 25.6817L30.6256 30.5216L29.9674 30.2871L35.9189 13.6385L35.9189 13.6385L35.9196 13.6366C35.9438 13.5681 35.9881 13.5103 36.0487 13.467C36.0951 13.4339 36.1609 13.4102 36.2481 13.4102C36.3353 13.4102 36.4011 13.4339 36.4475 13.467C36.5081 13.5103 36.5525 13.5681 36.5766 13.6366L36.5766 13.6366L36.5773 13.6385L42.5288 30.2871L41.8707 30.5216L40.1389 25.6817ZM32.9672 23.982L32.7287 24.6502H33.4381H39.0581H39.7676L39.529 23.982L36.719 16.112L36.2481 14.7932L35.7772 16.112L32.9672 23.982Z" fill="#00E2C5" stroke="#00E2C5"/>
<path d="M47.1484 16.5984V15.8984H71.5984V16.5984H47.1484Z" fill="#00E2C5" stroke="#00E2C5"/>
<path d="M47.1484 21.5984V20.8984H51.5984V21.5984H47.1484Z" fill="#00E2C5" stroke="#00E2C5"/>
<path d="M55.8984 21.5984V20.8984H71.5984V21.5984H55.8984Z" fill="#00E2C5" stroke="#00E2C5"/>
<path d="M47.1484 26.5984V25.8984H59.0984V26.5984H47.1484Z" fill="#00E2C5" stroke="#00E2C5"/>
<path d="M20.9283 50.1593L20.9256 50.1518L20.9227 50.1445C20.9089 50.1099 20.8984 50.0638 20.8984 50.0002C20.8984 49.9424 20.9068 49.9055 20.9227 49.8659C20.9336 49.8386 20.962 49.7917 21.0052 49.7405L25.832 44.9137L25.9235 44.8222L25.9591 44.6978L27.6486 38.7996C27.6487 38.7993 27.6488 38.799 27.6488 38.7987C27.8891 37.9718 28.3966 37.2337 29.0793 36.7195C29.7648 36.2032 30.6197 35.9102 31.4784 35.9102C32.0811 35.9102 32.6962 36.0522 33.2492 36.3195C33.7893 36.5854 34.2783 36.9855 34.6511 37.4736L34.651 37.4736L34.6538 37.4771C35.0241 37.9533 35.2821 38.5303 35.3976 39.1254C35.5136 39.7233 35.4951 40.3555 35.3361 40.9386L34.3061 44.7084L34.2296 44.9884L34.4349 45.1937L41.4949 52.2537C41.5275 52.2863 41.5481 52.318 41.5618 52.35C41.5934 52.4381 41.5984 52.4704 41.5984 52.5002C41.5984 52.5531 41.5915 52.5941 41.5714 52.6513C41.5518 52.6981 41.5269 52.7345 41.5049 52.7566L32.7549 61.5066C32.7224 61.539 32.6937 61.5571 32.6576 61.5703L32.6501 61.573L32.6427 61.5759C32.6082 61.5897 32.5621 61.6002 32.4984 61.6002C32.4528 61.6002 32.4034 61.5925 32.3483 61.5734C32.3205 61.5611 32.2765 61.5336 32.2288 61.4934L20.992 50.2566C20.9595 50.2242 20.9415 50.1954 20.9283 50.1593ZM22.0949 49.6466L21.7413 50.0002L22.0949 50.3537L32.1449 60.4037L32.4984 60.7573L32.852 60.4037L40.402 52.8537L40.7555 52.5002L40.402 52.1466L34.632 46.3766L34.0231 45.7678L33.7961 46.5983L33.0781 49.2255L32.4017 49.0399L33.371 45.4712L33.4469 45.1915L33.242 44.9866L30.352 42.0966L29.9984 41.7431L29.6449 42.0966L22.0949 49.6466ZM29.8712 40.9002H29.9984C30.0924 40.9002 30.1762 40.9351 30.2449 41.0037L33.0449 43.8037L33.6545 44.4134L33.8809 43.5814L34.6509 40.7514L34.6514 40.7497C34.7802 40.2696 34.8042 39.7533 34.7096 39.2566C34.6149 38.7593 34.4023 38.2875 34.0956 37.8864C33.7892 37.4857 33.3897 37.1568 32.942 36.9329C32.492 36.7079 31.9853 36.5902 31.4884 36.5902C30.7803 36.5902 30.075 36.8252 29.5084 37.2502C28.9384 37.6777 28.5283 38.2899 28.3293 38.9573L28.3293 38.9572L28.3279 38.9622L27.4779 41.9222L26.9438 43.7819L28.312 42.4137L29.742 40.9837C29.7806 40.9451 29.8239 40.9172 29.8712 40.9002Z" fill="#00E2C5" stroke="#00E2C5"/>
<path d="M16.3733 56.6775L16.3733 56.6775L16.3745 56.6758L18.4545 53.5558C18.4875 53.5063 18.525 53.4712 18.5855 53.4387L18.593 53.4346L18.6004 53.4303C18.6282 53.4141 18.6768 53.3984 18.7484 53.3984C18.8201 53.3984 18.8687 53.4141 18.8965 53.4303C18.9718 53.4743 19.0163 53.5167 19.0424 53.5558L21.1224 56.6758L21.1224 56.6758L21.1236 56.6775C21.4363 57.1424 21.5984 57.6846 21.5984 58.2584V58.7484C21.5984 59.4962 21.2908 60.2389 20.7649 60.7649C20.2286 61.3012 19.5158 61.5984 18.7484 61.5984C17.9932 61.5984 17.279 61.3026 16.7306 60.7635C16.2055 60.2376 15.8984 59.4956 15.8984 58.7484V58.2584C15.8984 57.6938 16.061 57.1417 16.3733 56.6775ZM17.2191 60.2561L17.2191 60.2562L17.2249 60.262C17.631 60.6681 18.1792 60.8884 18.7484 60.8884C19.3177 60.8884 19.8659 60.6681 20.272 60.262C20.6781 59.8559 20.8984 59.3077 20.8984 58.7384V58.2484C20.8984 57.8131 20.7655 57.4103 20.539 57.0581L20.5391 57.058L20.5348 57.0516L19.1648 54.9916L18.7484 54.3655L18.3321 54.9916L16.9621 57.0516L16.8784 57.1774V57.1977C16.6985 57.5161 16.5984 57.8797 16.5984 58.2484V58.7384C16.5984 59.303 16.8323 59.8564 17.2191 60.2561Z" fill="#00E2C5" stroke="#00E2C5"/>
<path d="M60.8984 51.5984V50.8984H61.5984V51.5984H60.8984Z" fill="#00E2C5" stroke="#00E2C5"/>
<path d="M65.8984 51.5984V50.8984H71.5984V51.5984H65.8984Z" fill="#00E2C5" stroke="#00E2C5"/>
<path d="M60.8984 56.5984V55.8984H61.5984V56.5984H60.8984Z" fill="#00E2C5" stroke="#00E2C5"/>
<path d="M65.8984 56.5984V55.8984H71.5984V56.5984H65.8984Z" fill="#00E2C5" stroke="#00E2C5"/>
<path d="M60.8984 61.5984V60.8984H61.5984V61.5984H60.8984Z" fill="#00E2C5" stroke="#00E2C5"/>
<path d="M65.8984 61.5984V60.8984H71.5984V61.5984H65.8984Z" fill="#00E2C5" stroke="#00E2C5"/>
<path d="M60.9283 46.4076L60.9256 46.4001L60.9227 46.3927C60.9079 46.3557 60.8984 46.3092 60.8984 46.2584V36.2584C60.8984 36.2104 60.907 36.1581 60.9283 36.0993C60.9355 36.0797 60.9541 36.0469 61.0147 35.9777C61.0146 35.9778 61.0146 35.9779 61.0146 35.9779C61.0146 35.9779 61.0201 35.9721 61.0343 35.9629C61.0496 35.953 61.07 35.9423 61.0941 35.9327C61.1578 35.9072 61.2027 35.8984 61.2384 35.8984H71.2384C71.2892 35.8984 71.3357 35.9079 71.3727 35.9227L71.3801 35.9256L71.3876 35.9283C71.4071 35.9355 71.4399 35.9541 71.5089 36.0145C71.5092 36.0147 71.5156 36.021 71.527 36.0382C71.5385 36.0558 71.5521 36.0801 71.5677 36.1132C71.5805 36.1487 71.5884 36.1918 71.5884 36.2384V46.2384C71.5884 46.2865 71.5799 46.3388 71.5585 46.3976C71.5514 46.4172 71.5327 46.4499 71.4721 46.5192C71.4723 46.5191 71.4723 46.519 71.4723 46.519C71.4723 46.519 71.4668 46.5247 71.4526 46.534C71.4373 46.5439 71.4169 46.5546 71.3927 46.5642C71.3582 46.578 71.3121 46.5884 71.2484 46.5884H61.2484H61.1575C61.1385 46.5843 61.1188 46.5788 61.0983 46.5717C61.071 46.5596 61.0281 46.5329 60.9814 46.4939C60.9555 46.4658 60.94 46.4395 60.9283 46.4076ZM61.5984 45.3984V45.8984H62.0984H70.3984H70.8984V45.3984V37.0984V36.5984H70.3984H62.0984H61.5984V37.0984V45.3984Z" fill="#00E2C5" stroke="#00E2C5"/>
<path d="M45.8984 51.5984V50.8984H46.5984V51.5984H45.8984Z" fill="#00E2C5" stroke="#00E2C5"/>
<path d="M50.8984 51.5984V50.8984H56.5984V51.5984H50.8984Z" fill="#00E2C5" stroke="#00E2C5"/>
<path d="M45.8984 56.5984V55.8984H46.5984V56.5984H45.8984Z" fill="#00E2C5" stroke="#00E2C5"/>
<path d="M50.8984 56.5984V55.8984H56.5984V56.5984H50.8984Z" fill="#00E2C5" stroke="#00E2C5"/>
<path d="M45.8984 61.5984V60.8984H46.5984V61.5984H45.8984Z" fill="#00E2C5" stroke="#00E2C5"/>
<path d="M50.8984 61.5984V60.8984H56.5984V61.5984H50.8984Z" fill="#00E2C5" stroke="#00E2C5"/>
<path d="M56.5884 46.2384C56.5884 46.2841 56.5808 46.3335 56.5617 46.3886C56.5496 46.4159 56.5229 46.4588 56.4839 46.5055C56.4558 46.5314 56.4295 46.5469 56.3976 46.5585L56.3901 46.5613L56.3827 46.5642C56.3482 46.578 56.3021 46.5884 56.2384 46.5884H46.2384H46.1575C46.1385 46.5843 46.1188 46.5788 46.0983 46.5717C46.071 46.5596 46.0281 46.5329 45.9814 46.4939C45.9555 46.4658 45.94 46.4395 45.9283 46.4076L45.9256 46.4001L45.9227 46.3927C45.9089 46.3582 45.8984 46.3121 45.8984 46.2484V36.2484C45.8984 36.1977 45.9079 36.1512 45.9227 36.1141C45.9344 36.0849 45.9662 36.0331 46.0147 35.9777C46.0145 35.978 46.0144 35.9781 46.0144 35.9781C46.0144 35.9781 46.0188 35.9735 46.0304 35.9662C46.0439 35.9577 46.0634 35.9477 46.0893 35.9383L46.0968 35.9356L46.1041 35.9327C46.1678 35.9072 46.2127 35.8984 46.2484 35.8984H56.2484C56.2992 35.8984 56.3457 35.9079 56.3827 35.9227C56.4119 35.9344 56.4638 35.9662 56.5192 36.0147C56.5189 36.0145 56.5188 36.0144 56.5188 36.0144C56.5188 36.0144 56.5234 36.0188 56.5307 36.0304C56.5392 36.0439 56.5491 36.0634 56.5585 36.0893L56.5613 36.0968L56.5642 36.1041C56.579 36.1412 56.5884 36.1877 56.5884 36.2384V46.2384ZM46.5984 45.3984V45.8984H47.0984H55.3984H55.8984V45.3984V37.0984V36.5984H55.3984H47.0984H46.5984V37.0984V45.3984Z" fill="#00E2C5" stroke="#00E2C5"/>
</svg>
