<svg width="110" height="110" viewBox="0 0 110 110" fill="none" xmlns="http://www.w3.org/2000/svg">
<path d="M40.3839 5.47807C44.6926 3.01617 49.6817 1.60938 54.9993 1.60938C63.1462 1.60938 70.5218 4.91152 75.8606 10.2504C81.2017 15.5893 84.5038 22.9648 84.5038 31.1139V61.9912C84.5038 62.2211 84.4952 62.4488 84.478 62.6744M25.5206 62.6744C25.5034 62.4488 25.4948 62.2211 25.4948 61.9912V31.1139C25.4948 22.8465 28.8949 15.3738 34.3728 10.0173M87.011 74.3018L96.9196 89.9854C98.2602 92.108 97.5298 94.9203 95.3276 96.1234L84.6864 101.941M22.9876 74.3018L13.079 89.9854C11.7384 92.108 12.4688 94.9203 14.671 96.1234L25.3122 101.941" stroke="black" stroke-width="2" stroke-miterlimit="10" stroke-linecap="round" stroke-linejoin="round"/>
<path d="M76.5262 42.0127H79.3922C80.8037 42.0127 82.0799 41.4412 83.0037 40.5174C83.9297 39.5936 84.5012 38.3152 84.5012 36.9037C84.5012 34.0828 82.2131 31.7969 79.3922 31.7969H76.4596M33.5338 31.7969H30.6012C27.7803 31.7969 25.4922 34.0828 25.4922 36.9037C25.4922 38.3152 26.0637 39.5936 26.9896 40.5174C27.9135 41.4412 29.1896 42.0127 30.6012 42.0127H33.4672" stroke="black" stroke-width="2" stroke-miterlimit="10" stroke-linecap="round" stroke-linejoin="round"/>
<path d="M67.6397 61.3474C73.0258 57.448 76.5277 51.1144 76.5277 43.9665V32.2146C76.5277 31.5206 76.0164 30.9363 75.3289 30.8353C72.2846 30.3906 67.6719 29.2712 62.9131 26.2441C60.3522 24.6125 58.0414 22.618 56.0531 20.323C55.4988 19.6827 54.5041 19.6763 53.9498 20.3187C51.6533 22.9727 48.9278 25.2226 45.8867 26.9745C41.5404 29.4775 37.4412 30.4443 34.6611 30.8396C33.9758 30.9384 33.4688 31.5271 33.4688 32.2189V43.9665C33.4688 51.1144 36.9707 57.448 42.3568 61.3474" stroke="black" stroke-width="2" stroke-miterlimit="10" stroke-linecap="round" stroke-linejoin="round"/>
<path d="M51.6207 55.1752C52.1346 55.4625 53.4037 56.0307 54.9978 56.0034C56.7368 55.9736 57.8858 55.2525 58.375 54.9305M60.708 34.0872C61.4195 33.8266 62.1599 33.653 62.9131 33.5703C65.1084 33.331 66.8824 33.9302 67.8425 34.3457M49.2877 34.0872C48.5762 33.8266 47.8358 33.653 47.0826 33.5703C44.8875 33.331 43.1133 33.9302 42.1532 34.3457M64.2752 39.6042V43.1725M45.7205 39.6042V43.1725M93.2422 84.1666L87.0096 87.7588M22.9861 87.7481L16.7578 84.1581M42.6963 101.941H84.8611C86.0477 101.941 87.0096 102.903 87.0096 104.089V106.238C87.0096 107.424 86.0477 108.386 84.8611 108.386H25.1346C23.948 108.386 22.9861 107.424 22.9861 106.238V104.089C22.9861 102.903 23.948 101.941 25.1346 101.941H35.1768M29.4314 101.941C25.8717 101.941 22.9861 99.0551 22.9861 95.4954V67.7934C22.9861 64.2337 25.8717 61.3481 29.4314 61.3481H80.5643C84.124 61.3481 87.0096 64.2337 87.0096 67.7934V95.4954C87.0096 99.0551 84.124 101.941 80.5643 101.941" stroke="black" stroke-width="2" stroke-miterlimit="10" stroke-linecap="round" stroke-linejoin="round"/>
<path d="M62.7859 78.0479C61.1316 80.7184 58.3278 84.115 54.8345 87.5225C48.1786 94.0172 41.5507 98.0949 40.0253 96.6297C38.5021 95.1666 42.6614 88.717 49.3152 82.2223C52.7462 78.8729 56.173 76.168 58.8929 74.5352" stroke="black" stroke-width="2" stroke-miterlimit="10" stroke-linecap="round" stroke-linejoin="round"/>
<path d="M47.4688 84.0996C48.6338 86.3788 50.5298 88.231 52.8695 89.3806M56.6941 85.6546C54.3455 84.5178 52.4383 82.6758 51.2595 80.4038M62.4928 77.851C62.6824 78.0222 62.921 78.1293 63.1749 78.1572C65.7593 78.43 68.8809 77.0228 69.9326 74.1022C70.948 71.2841 69.7057 67.9764 66.9319 66.3926C66.899 66.3735 66.8621 66.3623 66.8242 66.3599C66.7863 66.3574 66.7483 66.3638 66.7133 66.3784C66.6782 66.3931 66.647 66.4156 66.6221 66.4443C66.5972 66.473 66.5792 66.507 66.5696 66.5438C66.3649 67.3273 65.9595 68.2855 65.0978 68.9148C63.4875 70.0909 61.8964 68.9412 60.3379 70.044C59.1953 70.8519 58.5714 72.5163 58.7534 74.0853C58.7881 74.3846 58.9312 74.661 59.1556 74.8621L62.4928 77.851Z" stroke="black" stroke-width="2" stroke-miterlimit="10" stroke-linecap="round" stroke-linejoin="round"/>
</svg>
