<svg width="80" height="80" viewBox="0 0 80 80" fill="none" xmlns="http://www.w3.org/2000/svg">
<mask id="path-1-inside-1_11556_20387" fill="white">
<path d="M62.4156 8.61094H61.0844L61.1578 13.3734C61.1656 13.8906 60.7531 14.3172 60.2344 14.325C60.2297 14.325 60.225 14.325 60.2203 14.325C59.7094 14.325 59.2906 13.9141 59.2828 13.4016L59.2094 8.61094H57.85C57.3328 8.61094 56.9125 8.19063 56.9125 7.67344C56.9125 7.15625 57.3328 6.73594 57.85 6.73594H62.4156C62.9328 6.73594 63.3531 7.15625 63.3531 7.67344C63.3531 8.19063 62.9328 8.61094 62.4156 8.61094ZM33.2985 14.3891C32.8266 14.175 32.6188 13.6187 32.8344 13.1469L35.5438 7.19688C35.6938 6.86719 36.0188 6.65469 36.3813 6.64844C36.7391 6.64062 37.075 6.84375 37.236 7.16875L40.1219 12.9719C40.3531 13.4359 40.1641 13.9984 39.7 14.2281C39.236 14.4594 38.6735 14.2703 38.4438 13.8062L37.9594 12.8313L35.0672 12.7656L34.5391 13.9234C34.3813 14.2688 34.0406 14.4719 33.686 14.4719C33.5563 14.4734 33.425 14.4453 33.2985 14.3891ZM35.9141 10.9094L37.0172 10.9344L36.436 9.76562L35.9141 10.9094ZM41.525 6.71406C41.0078 6.71406 40.5875 7.13438 40.5875 7.65156V11.1656C40.5875 12.9078 42.0047 14.3266 43.7485 14.3266C45.4922 14.3266 46.9094 12.9094 46.9094 11.1656V7.65156C46.9094 7.13438 46.4891 6.71406 45.9719 6.71406C45.4547 6.71406 45.0344 7.13438 45.0344 7.65156V11.1656C45.0344 11.875 44.4578 12.4516 43.7485 12.4516C43.0391 12.4516 42.4625 11.875 42.4625 11.1656V7.65156C42.4625 7.13438 42.0422 6.71406 41.525 6.71406ZM48.5344 14.325C48.0172 14.325 47.5969 13.9047 47.5969 13.3875V7.52344C47.5969 7.00625 48.0172 6.58594 48.5344 6.58594H50.6188C52.2844 6.58594 53.6406 7.94219 53.6406 9.60781V11.3047C53.6406 12.9703 52.2844 14.3266 50.6188 14.3266H48.5344V14.325ZM49.4719 12.45H50.6188C51.2516 12.45 51.7656 11.9359 51.7656 11.3031V9.60781C51.7656 8.975 51.2516 8.46094 50.6188 8.46094H49.4719V12.45ZM56.2078 13.3875V7.4375C56.2078 6.92031 55.7875 6.5 55.2703 6.5C54.7532 6.5 54.3328 6.92031 54.3328 7.4375V13.3891C54.3328 13.9062 54.7532 14.3266 55.2703 14.3266C55.7875 14.3266 56.2078 13.9062 56.2078 13.3875ZM66.4656 2.34375H29.6375C27.4735 2.34375 25.7141 4.10313 25.7141 6.26719V37.3609C25.7141 37.8781 26.1344 38.2984 26.6516 38.2984C27.1688 38.2984 27.5891 37.8781 27.5891 37.3609V6.26719C27.5891 5.1375 28.5078 4.21875 29.6375 4.21875H66.4656C67.5953 4.21875 68.5141 5.1375 68.5141 6.26719V56.3672C68.5141 57.4969 67.5953 58.4156 66.4656 58.4156H49.4875C48.9703 58.4156 48.55 58.8359 48.55 59.3531C48.55 59.8703 48.9703 60.2906 49.4875 60.2906H66.4656C68.6297 60.2906 70.3891 58.5312 70.3891 56.3672V6.26719C70.3891 4.10313 68.6282 2.34375 66.4656 2.34375ZM45.4141 22.3172C45.4141 22.8344 45.8344 23.2547 46.3516 23.2547H64.1016C64.6188 23.2547 65.0391 22.8344 65.0391 22.3172C65.0391 21.8 64.6188 21.3797 64.1016 21.3797H46.3516C45.8344 21.3797 45.4141 21.8 45.4141 22.3172ZM64.1016 31.4156H46.3516C45.8344 31.4156 45.4141 31.8359 45.4141 32.3531C45.4141 32.8703 45.8344 33.2906 46.3516 33.2906H64.1016C64.6188 33.2906 65.0391 32.8703 65.0391 32.3531C65.0391 31.8359 64.6203 31.4156 64.1016 31.4156ZM64.1016 41.4531H51.3531C50.836 41.4531 50.4156 41.8734 50.4156 42.3906C50.4156 42.9078 50.836 43.3281 51.3531 43.3281H64.1016C64.6188 43.3281 65.0391 42.9078 65.0391 42.3906C65.0391 41.8734 64.6203 41.4531 64.1016 41.4531ZM64.1016 51.4891H51.725C51.2078 51.4891 50.7875 51.9094 50.7875 52.4266C50.7875 52.9437 51.2078 53.3641 51.725 53.3641H64.1016C64.6188 53.3641 65.0391 52.9437 65.0391 52.4266C65.0391 51.9094 64.6203 51.4891 64.1016 51.4891ZM46.4516 58.8C43.961 61.4172 40.6 62.9094 36.9875 63C36.8719 63.0031 36.7563 63.0047 36.6406 63.0047C34.1531 63.0047 31.7656 62.3312 29.6797 61.0719L25.4016 65.5688C25.4391 65.75 25.4625 65.9344 25.4672 66.1234C25.4875 66.9594 25.1844 67.75 24.611 68.3531L16.6813 76.6875C16.1078 77.2906 15.3328 77.6328 14.4969 77.6547C14.4703 77.6547 14.4438 77.6562 14.4156 77.6562C13.6094 77.6562 12.85 77.3531 12.2672 76.7984L10.5781 75.1922C9.33127 74.0062 9.28127 72.0266 10.4672 70.7797L18.3969 62.4438C18.9703 61.8422 19.7453 61.4984 20.5813 61.4766C20.7703 61.4719 20.9563 61.4859 21.1391 61.5141L25.4172 57.0172C23.9922 54.9031 23.1906 52.425 23.1266 49.8156C23.036 46.2031 24.3578 42.7719 26.8485 40.1547C31.9891 34.75 40.5688 34.5359 45.9735 39.6766C51.3781 44.8172 51.5922 53.3969 46.4516 58.8ZM23.5922 66.1719C23.5844 65.8375 23.4469 65.5281 23.2078 65.3L21.5188 63.6938C21.2875 63.4734 20.9828 63.3531 20.661 63.3531C20.65 63.3531 20.6391 63.3531 20.6281 63.3531C20.2938 63.3609 19.9844 63.4984 19.7563 63.7375L11.8266 72.0734C11.3531 72.5719 11.3735 73.3625 11.8703 73.8359L13.5594 75.4422C13.7985 75.6703 14.1156 75.7938 14.45 75.7828C14.7844 75.775 15.0938 75.6375 15.3219 75.3984L23.2516 67.0625C23.4797 66.8219 23.6 66.5062 23.5922 66.1719ZM28.1297 59.9813C27.8547 59.7578 27.586 59.525 27.3266 59.2781C27.0672 59.0312 26.8219 58.7734 26.5844 58.5109L22.8828 62.4031L24.4281 63.8734L28.1297 59.9813ZM44.6813 41.0344C42.4297 38.8922 39.5391 37.8297 36.6531 37.8297C33.5703 37.8297 30.4953 39.0406 28.2078 41.4453C26.0625 43.7 24.9235 46.6562 25.0016 49.7672C25.0797 52.8781 26.3641 55.7734 28.6188 57.9187C30.8735 60.0641 33.8266 61.2031 36.9406 61.125C40.0516 61.0469 42.9469 59.7625 45.0922 57.5078C49.5219 52.8531 49.3375 45.4625 44.6813 41.0344ZM43.6172 56.1031C41.8469 57.9641 39.4578 59.0234 36.8906 59.0875C36.8078 59.0891 36.7266 59.0906 36.6438 59.0906C34.1672 59.0906 31.825 58.1562 30.0235 56.4422C28.1625 54.6719 27.1031 52.2828 27.0391 49.7156C26.975 47.1484 27.9141 44.7094 29.6844 42.8484C31.4547 40.9875 33.8438 39.9281 36.411 39.8641C38.9813 39.8 41.4172 40.7391 43.2781 42.5094C45.1391 44.2797 46.1985 46.6687 46.2625 49.2359C46.3266 51.8047 45.386 54.2438 43.6172 56.1031ZM44.3875 49.2844C44.336 47.2172 43.4828 45.2953 41.9844 43.8703C40.5344 42.4906 38.6485 41.7375 36.6547 41.7375C36.5891 41.7375 36.5235 41.7391 36.4563 41.7406C34.3891 41.7922 32.4672 42.6453 31.0422 44.1437C29.6172 45.6422 28.861 47.6047 28.9125 49.6719C28.9641 51.7391 29.8172 53.6609 31.3156 55.0859C32.8141 56.5109 34.7766 57.2672 36.8438 57.2156C38.911 57.1641 40.8328 56.3109 42.2578 54.8125C43.6828 53.3141 44.4391 51.35 44.3875 49.2844ZM32.6281 21.5594L35.5485 24.4797C35.7235 24.6547 35.9625 24.7547 36.211 24.7547C36.4594 24.7547 36.6985 24.6562 36.8735 24.4797L41.9953 19.3578C42.361 18.9922 42.361 18.3984 41.9953 18.0312C41.6297 17.6656 41.036 17.6656 40.6688 18.0312L36.211 22.4891L33.9531 20.2312C33.5875 19.8656 32.9938 19.8656 32.6266 20.2312C32.2594 20.5969 32.2625 21.1922 32.6281 21.5594ZM39.8328 46.2703L35.3203 50.7828L33.0313 48.4937C32.6656 48.1281 32.0719 48.1281 31.7047 48.4937C31.3391 48.8594 31.3391 49.4531 31.7047 49.8203L34.6563 52.7719C34.8328 52.9469 35.0703 53.0469 35.3188 53.0469C35.5672 53.0469 35.8063 52.9484 35.9813 52.7719L41.1563 47.5969C41.5219 47.2313 41.5219 46.6375 41.1563 46.2703C40.7922 45.9047 40.1985 45.9047 39.8328 46.2703ZM32.6281 30.9547L35.5485 33.875C35.7235 34.05 35.9625 34.15 36.211 34.15C36.4594 34.15 36.6985 34.0516 36.8735 33.875L41.9953 28.7531C42.361 28.3875 42.361 27.7937 41.9953 27.4266C41.6297 27.0609 41.036 27.0609 40.6688 27.4266L36.211 31.8844L33.9531 29.6266C33.5875 29.2609 32.9938 29.2609 32.6266 29.6266C32.2594 29.9922 32.2625 30.5891 32.6281 30.9547Z"/>
</mask>
<path d="M62.4156 8.61094H61.0844L61.1578 13.3734C61.1656 13.8906 60.7531 14.3172 60.2344 14.325C60.2297 14.325 60.225 14.325 60.2203 14.325C59.7094 14.325 59.2906 13.9141 59.2828 13.4016L59.2094 8.61094H57.85C57.3328 8.61094 56.9125 8.19063 56.9125 7.67344C56.9125 7.15625 57.3328 6.73594 57.85 6.73594H62.4156C62.9328 6.73594 63.3531 7.15625 63.3531 7.67344C63.3531 8.19063 62.9328 8.61094 62.4156 8.61094ZM33.2985 14.3891C32.8266 14.175 32.6188 13.6187 32.8344 13.1469L35.5438 7.19688C35.6938 6.86719 36.0188 6.65469 36.3813 6.64844C36.7391 6.64062 37.075 6.84375 37.236 7.16875L40.1219 12.9719C40.3531 13.4359 40.1641 13.9984 39.7 14.2281C39.236 14.4594 38.6735 14.2703 38.4438 13.8062L37.9594 12.8313L35.0672 12.7656L34.5391 13.9234C34.3813 14.2688 34.0406 14.4719 33.686 14.4719C33.5563 14.4734 33.425 14.4453 33.2985 14.3891ZM35.9141 10.9094L37.0172 10.9344L36.436 9.76562L35.9141 10.9094ZM41.525 6.71406C41.0078 6.71406 40.5875 7.13438 40.5875 7.65156V11.1656C40.5875 12.9078 42.0047 14.3266 43.7485 14.3266C45.4922 14.3266 46.9094 12.9094 46.9094 11.1656V7.65156C46.9094 7.13438 46.4891 6.71406 45.9719 6.71406C45.4547 6.71406 45.0344 7.13438 45.0344 7.65156V11.1656C45.0344 11.875 44.4578 12.4516 43.7485 12.4516C43.0391 12.4516 42.4625 11.875 42.4625 11.1656V7.65156C42.4625 7.13438 42.0422 6.71406 41.525 6.71406ZM48.5344 14.325C48.0172 14.325 47.5969 13.9047 47.5969 13.3875V7.52344C47.5969 7.00625 48.0172 6.58594 48.5344 6.58594H50.6188C52.2844 6.58594 53.6406 7.94219 53.6406 9.60781V11.3047C53.6406 12.9703 52.2844 14.3266 50.6188 14.3266H48.5344V14.325ZM49.4719 12.45H50.6188C51.2516 12.45 51.7656 11.9359 51.7656 11.3031V9.60781C51.7656 8.975 51.2516 8.46094 50.6188 8.46094H49.4719V12.45ZM56.2078 13.3875V7.4375C56.2078 6.92031 55.7875 6.5 55.2703 6.5C54.7532 6.5 54.3328 6.92031 54.3328 7.4375V13.3891C54.3328 13.9062 54.7532 14.3266 55.2703 14.3266C55.7875 14.3266 56.2078 13.9062 56.2078 13.3875ZM66.4656 2.34375H29.6375C27.4735 2.34375 25.7141 4.10313 25.7141 6.26719V37.3609C25.7141 37.8781 26.1344 38.2984 26.6516 38.2984C27.1688 38.2984 27.5891 37.8781 27.5891 37.3609V6.26719C27.5891 5.1375 28.5078 4.21875 29.6375 4.21875H66.4656C67.5953 4.21875 68.5141 5.1375 68.5141 6.26719V56.3672C68.5141 57.4969 67.5953 58.4156 66.4656 58.4156H49.4875C48.9703 58.4156 48.55 58.8359 48.55 59.3531C48.55 59.8703 48.9703 60.2906 49.4875 60.2906H66.4656C68.6297 60.2906 70.3891 58.5312 70.3891 56.3672V6.26719C70.3891 4.10313 68.6282 2.34375 66.4656 2.34375ZM45.4141 22.3172C45.4141 22.8344 45.8344 23.2547 46.3516 23.2547H64.1016C64.6188 23.2547 65.0391 22.8344 65.0391 22.3172C65.0391 21.8 64.6188 21.3797 64.1016 21.3797H46.3516C45.8344 21.3797 45.4141 21.8 45.4141 22.3172ZM64.1016 31.4156H46.3516C45.8344 31.4156 45.4141 31.8359 45.4141 32.3531C45.4141 32.8703 45.8344 33.2906 46.3516 33.2906H64.1016C64.6188 33.2906 65.0391 32.8703 65.0391 32.3531C65.0391 31.8359 64.6203 31.4156 64.1016 31.4156ZM64.1016 41.4531H51.3531C50.836 41.4531 50.4156 41.8734 50.4156 42.3906C50.4156 42.9078 50.836 43.3281 51.3531 43.3281H64.1016C64.6188 43.3281 65.0391 42.9078 65.0391 42.3906C65.0391 41.8734 64.6203 41.4531 64.1016 41.4531ZM64.1016 51.4891H51.725C51.2078 51.4891 50.7875 51.9094 50.7875 52.4266C50.7875 52.9437 51.2078 53.3641 51.725 53.3641H64.1016C64.6188 53.3641 65.0391 52.9437 65.0391 52.4266C65.0391 51.9094 64.6203 51.4891 64.1016 51.4891ZM46.4516 58.8C43.961 61.4172 40.6 62.9094 36.9875 63C36.8719 63.0031 36.7563 63.0047 36.6406 63.0047C34.1531 63.0047 31.7656 62.3312 29.6797 61.0719L25.4016 65.5688C25.4391 65.75 25.4625 65.9344 25.4672 66.1234C25.4875 66.9594 25.1844 67.75 24.611 68.3531L16.6813 76.6875C16.1078 77.2906 15.3328 77.6328 14.4969 77.6547C14.4703 77.6547 14.4438 77.6562 14.4156 77.6562C13.6094 77.6562 12.85 77.3531 12.2672 76.7984L10.5781 75.1922C9.33127 74.0062 9.28127 72.0266 10.4672 70.7797L18.3969 62.4438C18.9703 61.8422 19.7453 61.4984 20.5813 61.4766C20.7703 61.4719 20.9563 61.4859 21.1391 61.5141L25.4172 57.0172C23.9922 54.9031 23.1906 52.425 23.1266 49.8156C23.036 46.2031 24.3578 42.7719 26.8485 40.1547C31.9891 34.75 40.5688 34.5359 45.9735 39.6766C51.3781 44.8172 51.5922 53.3969 46.4516 58.8ZM23.5922 66.1719C23.5844 65.8375 23.4469 65.5281 23.2078 65.3L21.5188 63.6938C21.2875 63.4734 20.9828 63.3531 20.661 63.3531C20.65 63.3531 20.6391 63.3531 20.6281 63.3531C20.2938 63.3609 19.9844 63.4984 19.7563 63.7375L11.8266 72.0734C11.3531 72.5719 11.3735 73.3625 11.8703 73.8359L13.5594 75.4422C13.7985 75.6703 14.1156 75.7938 14.45 75.7828C14.7844 75.775 15.0938 75.6375 15.3219 75.3984L23.2516 67.0625C23.4797 66.8219 23.6 66.5062 23.5922 66.1719ZM28.1297 59.9813C27.8547 59.7578 27.586 59.525 27.3266 59.2781C27.0672 59.0312 26.8219 58.7734 26.5844 58.5109L22.8828 62.4031L24.4281 63.8734L28.1297 59.9813ZM44.6813 41.0344C42.4297 38.8922 39.5391 37.8297 36.6531 37.8297C33.5703 37.8297 30.4953 39.0406 28.2078 41.4453C26.0625 43.7 24.9235 46.6562 25.0016 49.7672C25.0797 52.8781 26.3641 55.7734 28.6188 57.9187C30.8735 60.0641 33.8266 61.2031 36.9406 61.125C40.0516 61.0469 42.9469 59.7625 45.0922 57.5078C49.5219 52.8531 49.3375 45.4625 44.6813 41.0344ZM43.6172 56.1031C41.8469 57.9641 39.4578 59.0234 36.8906 59.0875C36.8078 59.0891 36.7266 59.0906 36.6438 59.0906C34.1672 59.0906 31.825 58.1562 30.0235 56.4422C28.1625 54.6719 27.1031 52.2828 27.0391 49.7156C26.975 47.1484 27.9141 44.7094 29.6844 42.8484C31.4547 40.9875 33.8438 39.9281 36.411 39.8641C38.9813 39.8 41.4172 40.7391 43.2781 42.5094C45.1391 44.2797 46.1985 46.6687 46.2625 49.2359C46.3266 51.8047 45.386 54.2438 43.6172 56.1031ZM44.3875 49.2844C44.336 47.2172 43.4828 45.2953 41.9844 43.8703C40.5344 42.4906 38.6485 41.7375 36.6547 41.7375C36.5891 41.7375 36.5235 41.7391 36.4563 41.7406C34.3891 41.7922 32.4672 42.6453 31.0422 44.1437C29.6172 45.6422 28.861 47.6047 28.9125 49.6719C28.9641 51.7391 29.8172 53.6609 31.3156 55.0859C32.8141 56.5109 34.7766 57.2672 36.8438 57.2156C38.911 57.1641 40.8328 56.3109 42.2578 54.8125C43.6828 53.3141 44.4391 51.35 44.3875 49.2844ZM32.6281 21.5594L35.5485 24.4797C35.7235 24.6547 35.9625 24.7547 36.211 24.7547C36.4594 24.7547 36.6985 24.6562 36.8735 24.4797L41.9953 19.3578C42.361 18.9922 42.361 18.3984 41.9953 18.0312C41.6297 17.6656 41.036 17.6656 40.6688 18.0312L36.211 22.4891L33.9531 20.2312C33.5875 19.8656 32.9938 19.8656 32.6266 20.2312C32.2594 20.5969 32.2625 21.1922 32.6281 21.5594ZM39.8328 46.2703L35.3203 50.7828L33.0313 48.4937C32.6656 48.1281 32.0719 48.1281 31.7047 48.4937C31.3391 48.8594 31.3391 49.4531 31.7047 49.8203L34.6563 52.7719C34.8328 52.9469 35.0703 53.0469 35.3188 53.0469C35.5672 53.0469 35.8063 52.9484 35.9813 52.7719L41.1563 47.5969C41.5219 47.2313 41.5219 46.6375 41.1563 46.2703C40.7922 45.9047 40.1985 45.9047 39.8328 46.2703ZM32.6281 30.9547L35.5485 33.875C35.7235 34.05 35.9625 34.15 36.211 34.15C36.4594 34.15 36.6985 34.0516 36.8735 33.875L41.9953 28.7531C42.361 28.3875 42.361 27.7937 41.9953 27.4266C41.6297 27.0609 41.036 27.0609 40.6688 27.4266L36.211 31.8844L33.9531 29.6266C33.5875 29.2609 32.9938 29.2609 32.6266 29.6266C32.2594 29.9922 32.2625 30.5891 32.6281 30.9547Z" fill="#00E2C5" stroke="#00E2C5" stroke-width="0.3125" mask="url(#path-1-inside-1_11556_20387)"/>
</svg>
