<svg width="80" height="80" viewBox="0 0 80 80" fill="none" xmlns="http://www.w3.org/2000/svg">
<g clip-path="url(#clip0_11556_20423)">
<path d="M0.898438 79.0984V0.898438H79.0984V79.0984H0.898438Z" stroke="#00E2C5"/>
<path d="M51.3484 78.2284H53.7584V79.0984H26.2284V78.2284H28.6384H29.0105L29.1174 77.8721L32.5574 66.4021L32.7504 65.7584H32.0784H5.32844C2.88458 65.7584 0.898438 63.7723 0.898438 61.3284V15.9984C0.898438 13.5546 2.88458 11.5684 5.32844 11.5684H8.39844H8.89844V11.0684V5.32844C8.89844 2.88458 10.8846 0.898438 13.3284 0.898438H66.6584C69.1023 0.898438 71.0884 2.88458 71.0884 5.32844V11.0584V11.5584H71.5884H74.6584C77.1023 11.5584 79.0884 13.5446 79.0884 15.9884V61.3284C79.0884 63.7723 77.1023 65.7584 74.6584 65.7584H47.9084H47.2365L47.4295 66.4021L50.8695 77.8721L50.9764 78.2284H51.3484ZM30.0995 77.5848L29.9065 78.2284H30.5784H49.3984H50.0704L49.8774 77.5848L46.4374 66.1148L46.3305 65.7584H45.9584H34.0184H33.6464L33.5395 66.1148L30.0995 77.5848ZM78.2384 58.2584V57.7584H77.7384H2.26844H1.76844V58.2584V61.3284C1.76844 63.2946 3.3723 64.8984 5.33844 64.8984H74.6684C76.6346 64.8984 78.2384 63.2946 78.2384 61.3284V58.2584ZM1.75844 56.3984V56.8984H2.25844H77.7284H78.2284V56.3984V15.9984C78.2284 14.0323 76.6246 12.4284 74.6584 12.4284H71.5884H71.0884V12.9284V52.4284H70.2184V5.32844C70.2184 3.3623 68.6146 1.75844 66.6484 1.75844H13.3284C11.3623 1.75844 9.75844 3.36229 9.75844 5.32844V52.4284H8.88844V12.9284V12.4284H8.38844H5.32844H5.31844V12.4285C3.35686 12.4339 1.75844 14.0356 1.75844 15.9984V56.3984Z" fill="#00E2C5" stroke="#00E2C5"/>
<path d="M14.2422 7.09656V6.22656H15.1122V7.09656H14.2422Z" fill="#00E2C5" stroke="#00E2C5"/>
<path d="M19.5547 7.09656V6.22656H20.4247V7.09656H19.5547Z" fill="#00E2C5" stroke="#00E2C5"/>
<path d="M24.8984 7.09656V6.22656H25.7684V7.09656H24.8984Z" fill="#00E2C5" stroke="#00E2C5"/>
<path d="M58.5911 24.6891L58.4016 23.84L63.5353 22.6944L63.7248 23.5435L58.5911 24.6891Z" fill="#00E2C5" stroke="#00E2C5"/>
<path d="M55.6035 11.666L54.9884 11.0508L57.7178 8.32135L58.333 8.93653L55.6035 11.666Z" fill="#00E2C5" stroke="#00E2C5"/>
<path d="M64.3368 38.6489L60.6162 36.7882L61.0053 36.0101L64.726 37.8708L64.3368 38.6489Z" fill="#00E2C5" stroke="#00E2C5"/>
<path d="M21.5693 39.9685L21.6475 40.3184L23.9859 50.7817C23.9861 50.7826 23.9864 50.7836 23.9866 50.7845C24.0283 50.9546 24.1661 51.082 24.3219 51.1175H24.4195C24.4435 51.1175 24.4611 51.1151 24.5296 51.1053L30.0308 49.8795L30.0375 49.878L30.0375 49.878C30.1393 49.8568 30.2343 49.7913 30.2944 49.6943C30.3536 49.5987 30.3747 49.4813 30.3506 49.3624C30.3504 49.3614 30.3502 49.3604 30.35 49.3595L28.0915 39.2465L27.9827 38.7592L28.4698 38.6497L30.1598 38.2697L30.2446 38.2506L30.3309 38.2613L50.3609 40.7413L50.7107 40.7846L50.7875 41.1285L51.2473 43.1875L21.5693 39.9685ZM21.5693 39.9685L21.2128 39.9303M21.5693 39.9685L21.2128 39.9303M21.2128 39.9303L20.9342 39.9005C20.9338 39.9005 20.9334 39.9004 20.933 39.9004C17.2668 39.4966 14.4657 36.5358 14.2688 32.8508C14.0719 29.1657 16.5455 25.9236 20.1464 25.136L20.1481 25.1356M21.2128 39.9303L20.1481 25.1356M20.1481 25.1356L26.8881 23.6356L26.9729 23.6167M20.1481 25.1356L26.9729 23.6167M26.9729 23.6167L27.0463 23.5704M26.9729 23.6167L27.0463 23.5704M27.0463 23.5704L44.1163 12.8004L44.4141 12.6125M27.0463 23.5704L44.4141 12.6125M44.4141 12.6125L44.3375 12.2688M44.4141 12.6125L44.3375 12.2688M44.3375 12.2688L43.8675 10.1588M44.3375 12.2688L43.8675 10.1588M47.5495 7.0675V7.13079C48.446 7.32402 49.1835 8.02541 49.3877 8.94964L56.7575 41.9786L56.7581 41.9811C57.035 43.2527 56.2653 44.5064 55.0008 44.8226L54.9892 44.8255L54.9776 44.8278C54.8078 44.8617 54.6231 44.8875 54.4295 44.8875C53.9855 44.8875 53.5426 44.761 53.162 44.5199M47.5495 7.0675L44.7116 9.97702L52.0915 43.0065L52.0916 43.007C52.2307 43.6265 52.62 44.179 53.162 44.5199M47.5495 7.0675H47.0495C46.8639 7.0675 46.6859 7.09374 46.5285 7.12998M47.5495 7.0675L46.5285 7.12998M53.162 44.5199L53.4295 44.0975M53.162 44.5199C53.1625 44.5203 53.1631 44.5206 53.1636 44.5209L53.4295 44.0975M53.4295 44.0975C52.9995 43.8275 52.6895 43.3875 52.5795 42.8975L56.2695 42.0875C56.4895 43.0975 55.8795 44.0875 54.8795 44.3375C54.7295 44.3675 54.5795 44.3875 54.4295 44.3875C54.0795 44.3875 53.7295 44.2875 53.4295 44.0975ZM46.5285 7.12998C45.9115 7.2689 45.3812 7.63616 45.0305 8.17466L45.0289 8.17712C44.6863 8.71005 44.5725 9.35676 44.7115 9.97653L46.5285 7.12998ZM43.8675 10.1588C43.4774 8.4076 44.5884 6.65549 46.338 6.26559L43.8675 10.1588ZM23.0203 39.8696L22.6096 39.9615L22.6301 40.3819L22.6501 40.7919L22.6522 40.8347L22.6615 40.8765L24.6315 49.6965L24.7407 50.1852L25.2292 50.0753L28.9192 49.2453L29.4065 49.1357L29.2974 48.6484L27.2374 39.4384L27.1283 38.9504L26.6403 39.0596L23.0203 39.8696ZM27.9227 24.0446L27.6248 24.2326L27.7015 24.5764L30.4915 37.0764L30.5683 37.4204L30.918 37.4637L49.798 39.8037L50.5021 39.891L50.3475 39.1985L44.7675 14.2085L44.6129 13.516L44.0127 13.8946L27.9227 24.0446ZM15.4698 34.5975H15.5081C16.4119 37.2442 18.9498 39.0875 21.7795 39.0875C22.2664 39.0875 22.7536 39.0334 23.2302 38.9251C23.2303 38.9251 23.2303 38.9251 23.2303 38.9251L29.2088 37.5854L29.6963 37.4762L29.5875 36.9886L26.9175 25.0286L26.8086 24.541L26.321 24.6494L20.3409 25.9794L20.3401 25.9796C16.7707 26.78 14.5219 30.3269 15.3113 33.8955L15.3118 33.8976L15.3818 34.2076L15.4698 34.5975ZM46.3382 6.26554C46.5721 6.21359 46.8156 6.1875 47.0495 6.1875C48.5529 6.1875 49.8927 7.26279 50.2318 8.73773C50.2319 8.73825 50.232 8.73878 50.2322 8.7393L57.6115 41.7664C57.6115 41.7665 57.6115 41.7665 57.6115 41.7665C57.8284 42.7384 57.5943 43.7423 56.9708 44.513C56.3442 45.2876 55.4162 45.7375 54.4195 45.7375C52.886 45.7375 51.5869 44.6923 51.2475 43.1885L46.3382 6.26554Z" fill="#00E2C5" stroke="#00E2C5"/>
</g>
<defs>
<clipPath id="clip0_11556_20423">
<rect width="80" height="80" fill="white"/>
</clipPath>
</defs>
</svg>
