<svg width="80" height="80" viewBox="0 0 80 80" fill="none" xmlns="http://www.w3.org/2000/svg">
<g clip-path="url(#clip0_11556_20541)">
<path d="M11.27 35.3291C11.1204 35.3291 11 35.2072 11 35.0591C11 34.9152 11.1261 34.7891 11.27 34.7891H19.23C19.3796 34.7891 19.5 34.911 19.5 35.0591C19.5 35.2029 19.3739 35.3291 19.23 35.3291H11.27Z" fill="#00E2C5" stroke="#00E2C5"/>
<mask id="path-2-inside-1_11556_20541" fill="white">
<path d="M12.1962 79.5984C11.7662 79.5984 11.4263 79.2484 11.4263 78.8284C11.4263 78.4084 11.7762 78.0584 12.1962 78.0584H24.7663C26.9263 78.0584 28.6863 76.2984 28.6863 74.1384V71.8084H1.94625V74.1384C1.94625 76.2984 3.70625 78.0584 5.86625 78.0584H6.72625C7.15625 78.0584 7.49625 78.4084 7.49625 78.8284C7.49625 79.2484 7.14625 79.5984 6.72625 79.5984H5.86625C2.85625 79.5984 0.40625 77.1484 0.40625 74.1384V35.5484C0.40625 32.5384 2.85625 30.0884 5.86625 30.0884H24.7663C27.7763 30.0884 30.2262 32.5384 30.2262 35.5484V53.9984H32.1162C35.9963 53.9984 39.1562 50.8384 39.1562 46.9584V32.5884C39.1562 27.8584 43.0063 24.0084 47.7363 24.0084H50.0863V5.85844C50.0863 2.84844 52.5363 0.398438 55.5462 0.398438H58.1263C58.5563 0.398438 58.8963 0.748437 58.8963 1.16844C58.8963 1.58844 58.5462 1.93844 58.1263 1.93844H55.5462C53.3862 1.93844 51.6263 3.69844 51.6263 5.85844V9.33844H78.0462V5.85844C78.0462 3.69844 76.2863 1.93844 74.1263 1.93844H63.5863C63.1562 1.93844 62.8162 1.58844 62.8162 1.16844C62.8162 0.748437 63.1663 0.398438 63.5863 0.398438H74.1263C77.1363 0.398438 79.5863 2.84844 79.5863 5.85844V32.0284C79.5863 32.4584 79.2363 32.7984 78.8163 32.7984C78.3963 32.7984 78.0462 32.4484 78.0462 32.0284V10.8784H51.6263V23.9884H62.8963L60.0762 21.1684C59.7762 20.8684 59.7762 20.3784 60.0762 20.0784C60.2262 19.9284 60.4163 19.8484 60.6263 19.8484C60.8363 19.8484 61.0262 19.9284 61.1763 20.0784L65.3163 24.2184C65.4563 24.3584 65.5362 24.5584 65.5362 24.7684C65.5362 24.9784 65.4563 25.1784 65.3163 25.3084L61.1662 29.4584C61.0162 29.6084 60.8263 29.6884 60.6263 29.6884C60.4263 29.6884 60.2262 29.6084 60.0762 29.4584C59.7762 29.1584 59.7762 28.6684 60.0762 28.3684L62.8963 25.5484H51.6263V40.8584H78.0462V37.5184C78.0462 37.0884 78.3963 36.7484 78.8163 36.7484C79.2363 36.7484 79.5863 37.0984 79.5863 37.5184V44.7884C79.5863 47.7984 77.1363 50.2484 74.1263 50.2484H55.5462C52.5363 50.2484 50.0863 47.7984 50.0863 44.7884V25.5384H47.7363C43.8563 25.5384 40.6963 28.6984 40.6963 32.5784V46.9484C40.6963 51.6784 36.8462 55.5284 32.1162 55.5284H30.2262V74.1284C30.2262 77.1384 27.7763 79.5884 24.7663 79.5884H12.1962V79.5984ZM1.94625 70.2684H28.6763V55.5384H21.7962L21.7362 55.8684C21.4462 57.4084 20.0863 58.5284 18.5263 58.5284H11.9663C10.1663 58.5284 8.69625 57.0584 8.69625 55.2584V54.2884C8.69625 52.4884 10.1663 51.0184 11.9663 51.0184H12.7163C13.1463 51.0184 13.4862 51.3684 13.4862 51.7884C13.4862 52.2084 13.1363 52.5584 12.7163 52.5584H11.9663C11.0163 52.5584 10.2362 53.3384 10.2362 54.2884V55.2584C10.2362 56.2084 11.0063 56.9884 11.9663 56.9884H18.5263C19.4763 56.9884 20.2563 56.2084 20.2563 55.2584V54.2884C20.2563 53.3384 19.4862 52.5584 18.5263 52.5584H18.1362C17.7062 52.5584 17.3662 52.2084 17.3662 51.7884C17.3662 51.3684 17.7162 51.0184 18.1362 51.0184H18.5263C20.0963 51.0184 21.4462 52.1384 21.7362 53.6784L21.7962 54.0084H28.6763V40.5284H1.94625V70.2884V70.2684ZM51.6362 44.7684C51.6362 46.9284 53.3963 48.6884 55.5563 48.6884H74.1363C76.2963 48.6884 78.0563 46.9284 78.0563 44.7684V42.3884H51.6362V44.7684ZM5.86625 31.6284C3.70625 31.6284 1.94625 33.3884 1.94625 35.5484V38.9684H28.6763V35.5484C28.6763 33.3884 26.9163 31.6284 24.7563 31.6284H5.86625Z"/>
</mask>
<path d="M12.1962 79.5984C11.7662 79.5984 11.4263 79.2484 11.4263 78.8284C11.4263 78.4084 11.7762 78.0584 12.1962 78.0584H24.7663C26.9263 78.0584 28.6863 76.2984 28.6863 74.1384V71.8084H1.94625V74.1384C1.94625 76.2984 3.70625 78.0584 5.86625 78.0584H6.72625C7.15625 78.0584 7.49625 78.4084 7.49625 78.8284C7.49625 79.2484 7.14625 79.5984 6.72625 79.5984H5.86625C2.85625 79.5984 0.40625 77.1484 0.40625 74.1384V35.5484C0.40625 32.5384 2.85625 30.0884 5.86625 30.0884H24.7663C27.7763 30.0884 30.2262 32.5384 30.2262 35.5484V53.9984H32.1162C35.9963 53.9984 39.1562 50.8384 39.1562 46.9584V32.5884C39.1562 27.8584 43.0063 24.0084 47.7363 24.0084H50.0863V5.85844C50.0863 2.84844 52.5363 0.398438 55.5462 0.398438H58.1263C58.5563 0.398438 58.8963 0.748437 58.8963 1.16844C58.8963 1.58844 58.5462 1.93844 58.1263 1.93844H55.5462C53.3862 1.93844 51.6263 3.69844 51.6263 5.85844V9.33844H78.0462V5.85844C78.0462 3.69844 76.2863 1.93844 74.1263 1.93844H63.5863C63.1562 1.93844 62.8162 1.58844 62.8162 1.16844C62.8162 0.748437 63.1663 0.398438 63.5863 0.398438H74.1263C77.1363 0.398438 79.5863 2.84844 79.5863 5.85844V32.0284C79.5863 32.4584 79.2363 32.7984 78.8163 32.7984C78.3963 32.7984 78.0462 32.4484 78.0462 32.0284V10.8784H51.6263V23.9884H62.8963L60.0762 21.1684C59.7762 20.8684 59.7762 20.3784 60.0762 20.0784C60.2262 19.9284 60.4163 19.8484 60.6263 19.8484C60.8363 19.8484 61.0262 19.9284 61.1763 20.0784L65.3163 24.2184C65.4563 24.3584 65.5362 24.5584 65.5362 24.7684C65.5362 24.9784 65.4563 25.1784 65.3163 25.3084L61.1662 29.4584C61.0162 29.6084 60.8263 29.6884 60.6263 29.6884C60.4263 29.6884 60.2262 29.6084 60.0762 29.4584C59.7762 29.1584 59.7762 28.6684 60.0762 28.3684L62.8963 25.5484H51.6263V40.8584H78.0462V37.5184C78.0462 37.0884 78.3963 36.7484 78.8163 36.7484C79.2363 36.7484 79.5863 37.0984 79.5863 37.5184V44.7884C79.5863 47.7984 77.1363 50.2484 74.1263 50.2484H55.5462C52.5363 50.2484 50.0863 47.7984 50.0863 44.7884V25.5384H47.7363C43.8563 25.5384 40.6963 28.6984 40.6963 32.5784V46.9484C40.6963 51.6784 36.8462 55.5284 32.1162 55.5284H30.2262V74.1284C30.2262 77.1384 27.7763 79.5884 24.7663 79.5884H12.1962V79.5984ZM1.94625 70.2684H28.6763V55.5384H21.7962L21.7362 55.8684C21.4462 57.4084 20.0863 58.5284 18.5263 58.5284H11.9663C10.1663 58.5284 8.69625 57.0584 8.69625 55.2584V54.2884C8.69625 52.4884 10.1663 51.0184 11.9663 51.0184H12.7163C13.1463 51.0184 13.4862 51.3684 13.4862 51.7884C13.4862 52.2084 13.1363 52.5584 12.7163 52.5584H11.9663C11.0163 52.5584 10.2362 53.3384 10.2362 54.2884V55.2584C10.2362 56.2084 11.0063 56.9884 11.9663 56.9884H18.5263C19.4763 56.9884 20.2563 56.2084 20.2563 55.2584V54.2884C20.2563 53.3384 19.4862 52.5584 18.5263 52.5584H18.1362C17.7062 52.5584 17.3662 52.2084 17.3662 51.7884C17.3662 51.3684 17.7162 51.0184 18.1362 51.0184H18.5263C20.0963 51.0184 21.4462 52.1384 21.7362 53.6784L21.7962 54.0084H28.6763V40.5284H1.94625V70.2884V70.2684ZM51.6362 44.7684C51.6362 46.9284 53.3963 48.6884 55.5563 48.6884H74.1363C76.2963 48.6884 78.0563 46.9284 78.0563 44.7684V42.3884H51.6362V44.7684ZM5.86625 31.6284C3.70625 31.6284 1.94625 33.3884 1.94625 35.5484V38.9684H28.6763V35.5484C28.6763 33.3884 26.9163 31.6284 24.7563 31.6284H5.86625Z" fill="#00E2C5" stroke="#00E2C5" stroke-width="2" mask="url(#path-2-inside-1_11556_20541)"/>
<path d="M60.8481 5.67672C60.6985 5.67672 60.5781 5.55481 60.5781 5.40672C60.5781 5.26286 60.7043 5.13672 60.8481 5.13672H68.7181C68.8678 5.13672 68.9881 5.25863 68.9881 5.40672C68.9881 5.55057 68.862 5.67672 68.7181 5.67672H60.8481Z" fill="#00E2C5" stroke="#00E2C5"/>
</g>
<defs>
<clipPath id="clip0_11556_20541">
<rect width="80" height="80" fill="white"/>
</clipPath>
</defs>
</svg>
