<svg width="220" height="50" viewBox="0 0 220 50" fill="none" xmlns="http://www.w3.org/2000/svg">
<g clip-path="url(#clip0_5527_17085)">
<mask id="mask0_5527_17085" style="mask-type:luminance" maskUnits="userSpaceOnUse" x="0" y="0" width="35" height="25">
<path d="M34.0989 0H33.8806L2.67075 10.2749C2.00344 10.4451 1.40749 10.823 0.968882 11.3539C0.530275 11.8849 0.271699 12.5414 0.230469 13.2289L0.230469 24.5055C0.36322 23.893 0.662519 23.329 1.09537 22.8758C1.52823 22.4225 2.07783 22.0976 2.68359 21.9368L29.5652 13.0491C29.7587 12.9763 29.9344 12.863 30.0806 12.7168C30.2268 12.5706 30.3401 12.3949 30.4128 12.2014L34.2659 0.410994C34.2659 0.410994 34.4714 0 34.1246 0H34.0989Z" fill="white"/>
</mask>
<g mask="url(#mask0_5527_17085)">
<path d="M34.4586 0H0.230469V24.5055H34.4586V0Z" fill="#0B0028"/>
</g>
<path d="M21.1275 40.3157C21.1575 40.2324 21.1702 40.1438 21.165 40.0553C21.1597 39.9669 21.1366 39.8805 21.0969 39.8012C21.0573 39.722 21.002 39.6516 20.9344 39.5943C20.8668 39.5371 20.7883 39.4941 20.7036 39.4681L2.72265 33.5087C2.11689 33.3479 1.56729 33.0229 1.13444 32.5697C0.701582 32.1164 0.402282 31.5525 0.269531 30.9399V42.2166C0.324617 42.8944 0.590966 43.5378 1.03105 44.0563C1.47114 44.5747 2.06279 44.942 2.72265 45.1064L17.2359 49.9613C17.3194 49.9894 17.4076 50.0008 17.4954 49.9947C17.5833 49.9886 17.6691 49.9651 17.7479 49.9258C17.8267 49.8864 17.8969 49.8318 17.9545 49.7651C18.0121 49.6985 18.056 49.6211 18.0836 49.5374L21.1275 40.3157Z" fill="#0B0028"/>
<mask id="mask1_5527_17085" style="mask-type:luminance" maskUnits="userSpaceOnUse" x="0" y="19" width="28" height="24">
<path d="M27.279 19.9975L2.68359 28.1275C2.02567 28.2912 1.43542 28.6566 0.995528 29.1725C0.555634 29.6884 0.288125 30.3289 0.230469 31.0045L0.230469 42.2811C0.36322 41.6686 0.662519 41.1046 1.09537 40.6514C1.52823 40.1981 2.07783 39.8732 2.68359 39.7124L22.9636 33.0081C23.1571 32.9353 23.3328 32.822 23.479 32.6758C23.6252 32.5296 23.7385 32.3539 23.8113 32.1604L27.6643 20.37C27.6643 20.37 27.8184 19.8948 27.4588 19.8948H27.2276" fill="white"/>
</mask>
<g mask="url(#mask1_5527_17085)">
<path d="M27.857 19.959H0.230469V42.2939H27.857V19.959Z" fill="#0B0028"/>
</g>
<path d="M44.0391 44.9655V29.4248H54.7121V32.2375H47.1857V35.7824H53.4149V38.608H47.1857V42.1399H55.2515V44.9655H44.0391Z" fill="#0B0028"/>
<path d="M56.832 44.9525V33.7273H59.6319L59.7475 34.5621C60.1304 34.2299 60.564 33.961 61.0319 33.7658C61.5614 33.5281 62.134 33.4013 62.7144 33.3933C63.2755 33.3952 63.8334 33.4774 64.3712 33.6374C64.9404 33.8046 65.4664 34.0939 65.9124 34.485C66.4754 34.1649 67.0692 33.9024 67.6848 33.7016C68.3534 33.4899 69.0514 33.3858 69.7527 33.3933C70.5021 33.3706 71.2498 33.4793 71.9617 33.7144C72.5072 33.8957 72.9968 34.2142 73.3837 34.6393C73.7706 35.0644 74.0416 35.5818 74.1708 36.1419C74.3343 36.8056 74.412 37.4876 74.402 38.1711V44.9525H71.3838V38.3766C71.412 37.7423 71.2558 37.1133 70.9343 36.5657C70.7463 36.3181 70.4969 36.1238 70.2108 36.0022C69.9248 35.8806 69.6119 35.8357 69.3031 35.8721C69.0639 35.871 68.8258 35.9057 68.5967 35.9749C68.3693 36.0423 68.1462 36.1238 67.9289 36.2189C67.735 36.3066 67.5463 36.4052 67.3638 36.5143C67.2244 36.594 67.0913 36.6842 66.9656 36.784C66.9656 36.9724 66.9956 37.1822 67.0555 37.4134C67.0724 37.67 67.0724 37.9274 67.0555 38.184V44.9525H64.0886V38.3766C64.0909 38.0534 64.0608 37.7307 63.9987 37.4134C63.9439 37.1318 63.8395 36.8622 63.6905 36.6171C63.5632 36.3958 63.3821 36.2102 63.1639 36.0776C62.885 35.9393 62.5759 35.8731 62.2649 35.885C61.8143 35.8899 61.3723 36.0092 60.9805 36.2318C60.6055 36.4318 60.2597 36.6825 59.953 36.9767V44.9525H56.832Z" fill="#0B0028"/>
<path d="M78.3082 32.4557C78.0576 32.4739 77.806 32.4373 77.571 32.3486C77.3359 32.2599 77.1229 32.1211 76.9467 31.942C76.6595 31.6397 76.4947 31.2415 76.4844 30.8246C76.4887 30.4089 76.6492 30.0101 76.9339 29.7072C77.3108 29.3775 77.7946 29.1958 78.2953 29.1958C78.7961 29.1958 79.2798 29.3775 79.6567 29.7072C79.9414 30.0101 80.1019 30.4089 80.1063 30.8246C80.1058 31.2487 79.9453 31.6569 79.6567 31.9677C79.4806 32.1468 79.2676 32.2856 79.0325 32.3743C78.7975 32.463 78.5459 32.4995 78.2953 32.4814M76.7798 33.7658H79.8622V44.9525H76.7926V33.7272L76.7798 33.7658Z" fill="#0B0028"/>
<path d="M82.2617 44.9524V33.7271H84.9974L85.1772 34.6775C85.5337 34.2771 85.9715 33.9574 86.4616 33.7399C86.8684 33.5685 87.3045 33.4769 87.7459 33.4702C88.0265 33.4716 88.3063 33.5017 88.5808 33.5601C88.8898 33.6266 89.1943 33.7124 89.4926 33.817L88.9532 36.4499C88.6688 36.3326 88.3771 36.234 88.0799 36.1545C87.8156 36.0859 87.5437 36.0513 87.2707 36.0518C86.8563 36.0461 86.448 36.1526 86.0891 36.36C85.7721 36.5348 85.4928 36.7705 85.2671 37.0536V44.9524H82.2617Z" fill="#0B0028"/>
<path d="M96.3275 44.9527L96.1862 44.1178C95.8256 44.4822 95.3862 44.759 94.9019 44.927C94.3684 45.1281 93.8023 45.2283 93.2322 45.2224C92.7454 45.2117 92.2637 45.1205 91.8066 44.9527C91.3382 44.8054 90.9022 44.57 90.5222 44.2591C90.1611 43.9503 89.868 43.5698 89.6617 43.1417C89.4398 42.6724 89.3298 42.158 89.3406 41.639C89.3291 41.1253 89.4485 40.617 89.6874 40.162C89.9194 39.7396 90.2391 39.3718 90.625 39.0832C91.0163 38.783 91.4489 38.5408 91.9093 38.3639C92.4254 38.172 92.9587 38.0301 93.5019 37.9401C93.9264 37.8564 94.3552 37.7964 94.7863 37.7603L95.955 37.6575V37.2465C95.9625 37.0418 95.925 36.838 95.8451 36.6493C95.7652 36.4607 95.6449 36.2919 95.4927 36.1548C95.1958 35.88 94.8055 35.7285 94.401 35.731C94.0582 35.7453 93.7199 35.8147 93.3992 35.9365C92.9518 36.1052 92.5511 36.3782 92.2304 36.7328L90.1498 35.2815C90.4348 34.9159 90.7775 34.5992 91.1644 34.3439C91.5291 34.1046 91.9216 33.9105 92.3332 33.7659C92.716 33.6278 93.1119 33.5288 93.5148 33.4705C93.8976 33.4163 94.284 33.3905 94.6707 33.3935C95.2787 33.3866 95.8845 33.4688 96.4688 33.6375C96.9907 33.7872 97.4731 34.0503 97.8816 34.4081C98.284 34.7598 98.6004 35.1992 98.8063 35.6925C99.0523 36.3484 99.1616 37.0477 99.1274 37.7474V44.9527H96.3275ZM96.0706 39.7125L95.0817 39.8152C94.7349 39.8152 94.401 39.9052 94.0927 39.9694C93.58 40.0256 93.1008 40.2516 92.7313 40.6115C92.4868 40.8834 92.3499 41.235 92.346 41.6005C92.3405 41.7732 92.376 41.9448 92.4497 42.1011C92.5233 42.2574 92.6331 42.3939 92.7698 42.4995C93.1454 42.7584 93.6001 42.8767 94.0542 42.8335C94.4427 42.8339 94.8273 42.7552 95.1844 42.6023C95.5256 42.4606 95.8421 42.2655 96.122 42.0243V39.7253L96.0706 39.7125Z" fill="#0B0028"/>
<path d="M105.02 41.7931C105.004 41.9256 105.017 42.06 105.059 42.1867C105.102 42.3133 105.171 42.4289 105.264 42.5252C105.396 42.6418 105.563 42.7098 105.739 42.7178C106.058 42.7179 106.371 42.6384 106.651 42.4867C106.922 42.3482 107.18 42.1848 107.422 41.9986L108.513 44.0793C107.99 44.438 107.425 44.7313 106.831 44.9526C106.251 45.1633 105.637 45.2678 105.02 45.2609C104.633 45.2604 104.248 45.2041 103.877 45.0939C103.516 44.991 103.18 44.8162 102.888 44.5802C102.61 44.3269 102.39 44.0156 102.246 43.6683C102.055 43.2313 101.963 42.7577 101.976 42.2812V36.0649H100.332V33.7274H101.989V30.8247H105.02V33.7402H107.743V36.0649H105.02V41.7931Z" fill="#0B0028"/>
<path d="M111.84 40.0722C111.84 40.4559 111.917 40.8359 112.067 41.1891C112.217 41.5423 112.437 41.8614 112.714 42.1271C113.184 42.5355 113.786 42.7591 114.409 42.7565C114.895 42.7552 115.376 42.6547 115.822 42.4611C116.374 42.1559 116.839 41.7136 117.171 41.1767L119.431 42.551C118.903 43.4333 118.137 44.1497 117.222 44.6188C116.289 45.0333 115.276 45.2351 114.255 45.2096C113.534 45.2138 112.818 45.0965 112.136 44.8628C111.477 44.6368 110.876 44.2685 110.376 43.784C109.855 43.2665 109.448 42.6451 109.182 41.9602C108.871 41.14 108.719 40.2684 108.732 39.3915C108.712 38.5151 108.86 37.643 109.169 36.8227C109.431 36.1352 109.834 35.5097 110.351 34.9861C110.845 34.491 111.435 34.1021 112.085 33.843C112.767 33.5524 113.5 33.3996 114.242 33.3935C114.957 33.3667 115.668 33.5004 116.323 33.7849C116.979 34.0695 117.563 34.4975 118.031 35.0375C119.093 36.4691 119.616 38.229 119.508 40.0079H111.802L111.84 40.0722ZM116.413 37.9915C116.407 37.6743 116.337 37.3616 116.207 37.0723C116.077 36.7831 115.889 36.5233 115.655 36.309C115.268 35.9553 114.766 35.7544 114.242 35.7439C113.974 35.7448 113.708 35.7971 113.459 35.898C113.199 36.0005 112.96 36.1484 112.752 36.3347C112.528 36.536 112.341 36.7751 112.2 37.0411C112.047 37.3338 111.947 37.6512 111.905 37.9787H116.4L116.413 37.9915Z" fill="#0B0028"/>
<path d="M122.566 41.1894C122.824 41.7008 123.203 42.1416 123.67 42.4738C124.155 42.7611 124.701 42.9295 125.264 42.9652C125.826 43.0009 126.389 42.9029 126.907 42.6793C127.058 42.6005 127.183 42.4799 127.267 42.3318C127.352 42.1838 127.391 42.0145 127.382 41.8444C127.369 41.6646 127.311 41.4911 127.212 41.3404C127.113 41.1898 126.977 41.067 126.817 40.9839C126.192 40.651 125.514 40.4293 124.813 40.3289C124.263 40.2285 123.721 40.0824 123.195 39.8922C122.73 39.737 122.295 39.5024 121.911 39.1987C121.574 38.9278 121.302 38.5856 121.114 38.1969C120.916 37.7573 120.82 37.2789 120.832 36.7969C120.828 36.3175 120.943 35.8446 121.167 35.4209C121.391 34.9971 121.718 34.6358 122.116 34.3695C123.101 33.6858 124.283 33.343 125.481 33.3934C126.527 33.3435 127.569 33.5554 128.512 34.0099C129.196 34.3683 129.786 34.8832 130.233 35.5126L128.088 36.9767C127.798 36.5924 127.431 36.2731 127.01 36.0391C126.538 35.7816 126.006 35.6531 125.468 35.6667C124.999 35.6238 124.528 35.727 124.12 35.9621C124.001 36.049 123.905 36.1633 123.841 36.2953C123.776 36.4272 123.744 36.5729 123.747 36.7199C123.738 36.8799 123.777 37.0391 123.859 37.1766C123.942 37.3141 124.064 37.4235 124.21 37.4905C124.763 37.7176 125.34 37.8813 125.931 37.9785C126.549 38.1011 127.158 38.2641 127.754 38.4666C128.243 38.6272 128.703 38.8657 129.116 39.173C129.477 39.4481 129.767 39.8046 129.964 40.2133C130.168 40.6602 130.269 41.1475 130.259 41.6389C130.279 42.1677 130.16 42.6925 129.915 43.1612C129.669 43.6298 129.305 44.026 128.859 44.3104C128.407 44.6069 127.907 44.8241 127.382 44.9526C126.763 45.0938 126.129 45.1628 125.494 45.1581C124.368 45.2267 123.245 44.9869 122.245 44.4645C121.458 44.0051 120.803 43.3504 120.344 42.5637L122.566 41.1894Z" fill="#0B0028"/>
<path d="M136.23 44.9655V29.4248H146.814V32.2375H139.377V35.9236H145.285V38.6979H139.377V44.9655H136.23Z" fill="#0B0028"/>
<path d="M153.068 44.9527L152.927 44.1179C152.566 44.4819 152.127 44.7586 151.642 44.927C151.109 45.1281 150.543 45.2283 149.973 45.2224C149.479 45.2228 148.988 45.1403 148.521 44.9784C148.053 44.8311 147.617 44.5957 147.237 44.2848C146.876 43.976 146.583 43.5955 146.377 43.1674C146.155 42.6982 146.045 42.1837 146.055 41.6647C146.044 41.151 146.163 40.6427 146.402 40.1877C146.635 39.7656 146.954 39.3978 147.34 39.1089C147.731 38.8087 148.164 38.5665 148.624 38.3896C149.14 38.1977 149.674 38.0558 150.217 37.9658C150.641 37.8821 151.07 37.8221 151.501 37.786L152.67 37.6832V37.2466C152.677 37.0418 152.64 36.838 152.56 36.6493C152.48 36.4607 152.36 36.2919 152.208 36.1548C151.911 35.88 151.52 35.7285 151.116 35.731C150.773 35.7453 150.435 35.8147 150.114 35.9365C149.667 36.1052 149.266 36.3782 148.945 36.7328L146.865 35.2815C147.15 34.9159 147.492 34.5992 147.879 34.3439C148.244 34.1046 148.636 33.9105 149.048 33.7659C149.431 33.6278 149.827 33.5288 150.23 33.4705C150.587 33.42 150.947 33.3942 151.308 33.3935C151.917 33.3864 152.522 33.4687 153.107 33.6375C153.628 33.7872 154.111 34.0503 154.519 34.4081C154.922 34.7599 155.238 35.1993 155.444 35.6925C155.677 36.3163 155.786 36.9793 155.765 37.6447V44.9527H153.068ZM152.811 39.7125L151.822 39.7896C151.475 39.7896 151.141 39.8795 150.833 39.9437C150.321 39.9999 149.841 40.2259 149.472 40.5859C149.227 40.8577 149.09 41.2093 149.087 41.5748C149.081 41.7475 149.117 41.9191 149.19 42.0754C149.264 42.2317 149.374 42.3683 149.51 42.4739C149.886 42.7328 150.341 42.851 150.795 42.8078C151.183 42.8082 151.568 42.7296 151.925 42.5766C152.266 42.4352 152.583 42.24 152.863 41.9987V39.7254L152.811 39.7125Z" fill="#0B0028"/>
<path d="M167.851 42.2682C167.445 43.1918 166.769 43.9709 165.911 44.5029C165.044 44.9966 164.058 45.2452 163.06 45.2222C162.354 45.2245 161.653 45.0983 160.992 44.8497C160.34 44.6063 159.745 44.2302 159.245 43.7452C158.723 43.2256 158.312 42.605 158.038 41.9214C157.716 41.1043 157.563 40.2305 157.589 39.3527C157.574 38.4768 157.722 37.6059 158.025 36.784C158.29 36.0899 158.692 35.4564 159.207 34.9216C159.684 34.4338 160.263 34.0567 160.902 33.8171C161.534 33.5775 162.204 33.4556 162.88 33.4575C163.501 33.4495 164.118 33.5495 164.704 33.7529C165.207 33.9312 165.679 34.1868 166.104 34.5106C166.484 34.8068 166.814 35.1624 167.08 35.5638C167.323 35.9283 167.521 36.3207 167.671 36.7326L165.269 37.927C165.096 37.3173 164.753 36.7693 164.28 36.3473C163.912 36.062 163.461 35.9042 162.996 35.8977C162.688 35.8955 162.385 35.9659 162.11 36.1032C161.814 36.2555 161.556 36.4702 161.352 36.7326C161.104 37.0542 160.921 37.4205 160.812 37.8114C160.672 38.3215 160.607 38.8494 160.62 39.3784C160.561 40.2655 160.81 41.1458 161.326 41.87C161.721 42.3446 162.279 42.6532 162.891 42.7341C163.503 42.815 164.123 42.6624 164.627 42.3067C165.045 41.9512 165.386 41.5141 165.629 41.0223L167.851 42.2682Z" fill="#0B0028"/>
<path d="M170.562 32.4557C170.311 32.4747 170.06 32.4386 169.824 32.3498C169.589 32.2611 169.376 32.1219 169.201 31.942C168.913 31.6397 168.749 31.2415 168.738 30.8246C168.743 30.4089 168.903 30.0101 169.188 29.7072C169.565 29.3775 170.048 29.1958 170.549 29.1958C171.05 29.1958 171.534 29.3775 171.911 29.7072C172.186 30.014 172.337 30.4124 172.334 30.8246C172.334 31.2487 172.173 31.6569 171.885 31.9677C171.709 32.1468 171.496 32.2856 171.261 32.3743C171.026 32.463 170.774 32.4995 170.524 32.4814M169.008 33.7658H172.039V44.9525H169.008V33.7272V33.7658Z" fill="#0B0028"/>
<path d="M177.576 29.4248H174.52V44.9784H177.576V29.4248Z" fill="#0B0028"/>
<path d="M181.541 32.4555C181.291 32.4737 181.039 32.4371 180.804 32.3484C180.569 32.2597 180.356 32.121 180.18 31.9418C179.891 31.631 179.731 31.2228 179.73 30.7987C179.735 30.3831 179.895 29.9842 180.18 29.6813C180.557 29.3516 181.041 29.1699 181.541 29.1699C182.042 29.1699 182.526 29.3516 182.903 29.6813C183.188 29.9842 183.348 30.3831 183.352 30.7987C183.352 31.2228 183.191 31.631 182.903 31.9418C182.727 32.121 182.514 32.2597 182.279 32.3484C182.044 32.4371 181.792 32.4737 181.541 32.4555ZM180.026 33.7399H183.057V44.9523H180.039V33.7271L180.026 33.7399Z" fill="#0B0028"/>
<path d="M189.033 41.7931C189.017 41.9256 189.03 42.06 189.072 42.1867C189.114 42.3133 189.184 42.4289 189.277 42.5252C189.409 42.6418 189.576 42.7098 189.752 42.7178C190.07 42.7179 190.384 42.6384 190.664 42.4867C190.935 42.3483 191.193 42.1849 191.435 41.9986L192.526 44.0793C192.021 44.4155 191.478 44.6914 190.908 44.9013C190.328 45.112 189.714 45.2164 189.097 45.2095C188.71 45.209 188.325 45.1528 187.954 45.0425C187.593 44.9396 187.257 44.7649 186.965 44.5288C186.662 44.2786 186.42 43.9623 186.259 43.6041C186.068 43.1671 185.976 42.6935 185.989 42.2169V36.0649H184.332V33.7274H185.989V30.8247H189.033V33.7402H191.756V36.0649H189.033V41.7931Z" fill="#0B0028"/>
<path d="M195.014 32.4555C194.763 32.4737 194.512 32.4371 194.277 32.3484C194.042 32.2597 193.829 32.121 193.653 31.9418C193.363 31.6317 193.202 31.223 193.203 30.7987C193.206 30.3828 193.367 29.9835 193.653 29.6813C194.03 29.3516 194.513 29.1699 195.014 29.1699C195.515 29.1699 195.999 29.3516 196.375 29.6813C196.66 29.9842 196.821 30.3831 196.825 30.7987C196.825 31.2228 196.664 31.631 196.375 31.9418C196.199 32.121 195.986 32.2597 195.751 32.3484C195.516 32.4371 195.265 32.4737 195.014 32.4555ZM193.499 33.7399H196.53V44.9523H193.499V33.7271V33.7399Z" fill="#0B0028"/>
<path d="M201.323 40.0721C201.322 40.4558 201.399 40.8358 201.549 41.189C201.7 41.5422 201.92 41.8613 202.197 42.127C202.667 42.5354 203.269 42.759 203.892 42.7564C204.395 42.7622 204.894 42.6616 205.356 42.461C205.909 42.1563 206.373 41.7138 206.705 41.1766L208.965 42.5509C208.436 43.4328 207.671 44.1491 206.756 44.6187C205.827 45.0313 204.818 45.2331 203.802 45.2095C203.081 45.2137 202.365 45.0964 201.683 44.8627C201.024 44.6363 200.424 44.268 199.923 43.7838C199.402 43.2664 198.995 42.645 198.729 41.9601C198.418 41.1399 198.266 40.2683 198.279 39.3913C198.258 38.515 198.406 37.6428 198.716 36.8226C198.978 36.1348 199.38 35.5092 199.898 34.986C200.392 34.4909 200.982 34.1019 201.632 33.8429C202.302 33.5767 203.017 33.4416 203.738 33.4448C204.452 33.4179 205.163 33.5517 205.819 33.8362C206.475 34.1207 207.058 34.5488 207.527 35.0888C208.588 36.5203 209.111 38.2803 209.004 40.0592H201.298L201.323 40.0721ZM205.896 37.9914C205.89 37.6742 205.82 37.3615 205.69 37.0722C205.559 36.783 205.372 36.5232 205.138 36.3089C204.751 35.9552 204.249 35.7543 203.725 35.7438C203.456 35.7447 203.19 35.797 202.942 35.8979C202.682 36.0009 202.443 36.1487 202.235 36.3346C202.011 36.5358 201.824 36.775 201.683 37.041C201.53 37.3337 201.43 37.6511 201.387 37.9786H205.883L205.896 37.9914Z" fill="#0B0028"/>
<path d="M212.047 41.1893C212.306 41.7007 212.685 42.1415 213.152 42.4737C213.637 42.761 214.183 42.9294 214.745 42.9651C215.308 43.0008 215.871 42.9029 216.388 42.6792C216.545 42.6097 216.678 42.4962 216.772 42.3526C216.865 42.209 216.915 42.0414 216.915 41.87C216.902 41.6902 216.844 41.5167 216.745 41.366C216.646 41.2154 216.51 41.0926 216.35 41.0095C215.705 40.6692 215.005 40.4473 214.282 40.3545C213.731 40.2542 213.19 40.1081 212.664 39.9178C212.199 39.7627 211.764 39.528 211.379 39.2243C211.043 38.9537 210.771 38.6115 210.583 38.2225C210.384 37.7832 210.288 37.3046 210.301 36.8225C210.296 36.3431 210.412 35.8703 210.636 35.4465C210.86 35.0227 211.186 34.6614 211.585 34.3951C212.575 33.725 213.756 33.3959 214.95 33.4575C215.996 33.4077 217.038 33.6196 217.981 34.074C218.665 34.4329 219.254 34.9477 219.702 35.5767L217.557 37.0409C217.267 36.6566 216.899 36.3372 216.478 36.1033C216.006 35.8457 215.475 35.7173 214.937 35.7308C214.468 35.688 213.997 35.7911 213.589 36.0262C213.47 36.1132 213.374 36.2275 213.309 36.3594C213.244 36.4914 213.212 36.637 213.216 36.784C213.207 36.9441 213.246 37.1033 213.328 37.2408C213.411 37.3783 213.533 37.4877 213.678 37.5546C214.232 37.7816 214.809 37.9454 215.399 38.0427C216.039 38.1627 216.67 38.3257 217.287 38.5307C217.776 38.6918 218.236 38.9303 218.649 39.2371C219.009 39.5122 219.3 39.8687 219.497 40.2775C219.701 40.7243 219.802 41.2117 219.792 41.7031C219.811 42.2316 219.692 42.7559 219.446 43.2244C219.201 43.6928 218.837 44.0892 218.392 44.3745C217.92 44.6779 217.398 44.8953 216.851 45.0167C216.232 45.1579 215.598 45.2269 214.963 45.2222C213.831 45.2711 212.707 45.0091 211.713 44.4645C210.927 44.0046 210.272 43.3499 209.812 42.5636L212.047 41.1893Z" fill="#0B0028"/>
<path d="M160.545 20.5497H146.648C145.868 20.5608 145.09 20.492 144.324 20.3442C143.78 20.2487 143.266 20.0289 142.821 19.702C142.445 19.4032 142.164 19.0016 142.012 18.5461C141.833 17.9904 141.751 17.4084 141.768 16.825V12.972H144.825V16.4012C144.816 16.6504 144.855 16.899 144.94 17.1333C145.024 17.3285 145.174 17.4877 145.364 17.5828C145.622 17.7064 145.901 17.7804 146.186 17.8012C146.614 17.8241 147.043 17.8241 147.47 17.8012H157.475V11.1867H160.532V20.5497H160.545ZM147.702 8.48957C147.701 8.09988 147.835 7.72201 148.082 7.42047C148.329 7.11893 148.673 6.91242 149.055 6.83621C149.437 6.75999 149.834 6.8188 150.178 7.00258C150.521 7.18637 150.79 7.48373 150.939 7.84391C151.088 8.20408 151.107 8.60473 150.993 8.97744C150.879 9.35015 150.64 9.67181 150.315 9.8875C149.991 10.1032 149.601 10.1995 149.214 10.1601C148.826 10.1206 148.464 9.94783 148.19 9.67118C148.032 9.51815 147.907 9.33431 147.823 9.13105C147.739 8.92779 147.698 8.70945 147.702 8.48957ZM151.555 8.48957C151.557 8.16299 151.656 7.84444 151.839 7.57396C152.022 7.30347 152.281 7.09311 152.583 6.96931C152.886 6.8455 153.218 6.81377 153.538 6.87811C153.858 6.94245 154.152 7.09998 154.383 7.33092C154.614 7.56185 154.771 7.85588 154.836 8.17607C154.9 8.49626 154.868 8.82833 154.745 9.13054C154.621 9.43275 154.41 9.69164 154.14 9.87466C153.869 10.0577 153.551 10.1567 153.224 10.1592C152.782 10.1559 152.36 9.97888 152.047 9.66649C151.735 9.35409 151.558 8.93135 151.555 8.48957Z" fill="#0B0028"/>
<path d="M166.389 4.99609H163.332V20.5497H166.389V4.99609Z" fill="#0B0028"/>
<path d="M170.111 12.2271H173.168V19.2653C173.184 20.2264 173.098 21.1865 172.911 22.1294C172.777 22.8329 172.468 23.4911 172.012 24.0431C171.534 24.5647 170.913 24.9352 170.227 25.1091C169.279 25.3509 168.303 25.4675 167.324 25.4559V22.5661C167.837 22.5719 168.347 22.5027 168.84 22.3606C169.177 22.2575 169.471 22.0451 169.675 21.757C169.875 21.4436 169.998 21.087 170.034 20.7166C170.092 20.2222 170.118 19.7246 170.111 19.2268V12.2271Z" fill="#0B0028"/>
<path d="M199.795 14.2949C199.596 13.7323 199.291 13.2134 198.896 12.7665C198.513 12.343 198.045 12.0059 197.522 11.7775C196.571 11.3621 195.501 11.3118 194.516 11.6363C194.047 11.8051 193.612 12.0574 193.232 12.3812C192.735 12.7845 192.302 13.2608 191.948 13.794C191.493 14.4902 191.118 15.2356 190.83 16.0159C190.665 16.5103 190.412 16.9713 190.085 17.3773C190.007 17.4985 189.905 17.6028 189.786 17.6844C189.667 17.766 189.533 17.8231 189.392 17.8525H180.132C179.837 17.8732 179.544 17.7965 179.297 17.6342C179.175 17.4927 179.085 17.3263 179.034 17.1466C178.983 16.967 178.972 16.7783 179.001 16.5939V5.03467H175.932V17.0306C175.915 17.6076 176.006 18.1827 176.201 18.7259C176.36 19.1468 176.62 19.5219 176.959 19.8176C177.294 20.1 177.69 20.3021 178.115 20.4084C178.593 20.5305 179.086 20.5909 179.579 20.5882H189.405C189.871 20.5916 190.336 20.5442 190.792 20.4469C191.297 20.3172 191.747 20.0291 192.076 19.625C192.692 20.0441 193.367 20.3688 194.08 20.5882C194.697 20.7723 195.337 20.8675 195.98 20.8708C196.568 20.9115 197.158 20.817 197.703 20.5943C198.249 20.3716 198.736 20.0268 199.127 19.5864C199.863 18.6289 200.232 17.44 200.167 16.2343C200.173 15.5688 200.06 14.9078 199.834 14.282M196.738 17.5058C196.596 17.6748 196.416 17.8082 196.213 17.8951C196.01 17.9821 195.79 18.0203 195.569 18.0067C195.178 18.0118 194.789 17.9375 194.426 17.7883C194.041 17.6225 193.667 17.4294 193.309 17.2104C193.441 16.3562 193.8 15.5532 194.349 14.8857C194.509 14.6966 194.705 14.5413 194.926 14.4288C195.146 14.3164 195.387 14.249 195.634 14.2307C195.885 14.2229 196.134 14.2852 196.353 14.4105C196.544 14.5215 196.707 14.6753 196.828 14.86C196.949 15.049 197.036 15.2576 197.085 15.4765C197.138 15.7082 197.164 15.9452 197.162 16.1829C197.176 16.6453 197.03 17.0985 196.751 17.4672" fill="#0B0028"/>
<path d="M213.922 4.99609V20.5368H201.926V17.8397H205.162V9.54272H208.219V17.8397H210.865V4.99609H213.922Z" fill="#0B0028"/>
<path d="M219.764 4.99609H216.707V20.5497H219.764V4.99609Z" fill="#0B0028"/>
<path d="M53.4937 8.79784C53.9355 8.79448 54.3582 8.61749 54.6706 8.30509C54.983 7.99269 55.16 7.56996 55.1634 7.12817C55.1673 6.85194 55.1025 6.57905 54.975 6.33398C54.8475 6.08891 54.6611 5.87931 54.4327 5.72398C54.2042 5.56864 53.9408 5.47243 53.666 5.44395C53.3912 5.41548 53.1136 5.45563 52.8582 5.56082C52.6027 5.66601 52.3773 5.83294 52.2023 6.04666C52.0272 6.26037 51.9079 6.51419 51.855 6.78535C51.8022 7.05652 51.8175 7.33656 51.8995 7.60037C51.9815 7.86418 52.1277 8.10353 52.325 8.29694C52.478 8.45488 52.6618 8.5797 52.8651 8.66366C53.0683 8.74761 53.2867 8.78891 53.5066 8.785" fill="#0B0028"/>
<path d="M57.3218 8.79784C57.7636 8.79448 58.1864 8.61749 58.4988 8.30509C58.8112 7.99269 58.9881 7.56996 58.9915 7.12817C58.9954 6.85194 58.9307 6.57905 58.8031 6.33398C58.6756 6.08891 58.4893 5.87931 58.2608 5.72398C58.0323 5.56864 57.7689 5.47243 57.4941 5.44395C57.2193 5.41548 56.9417 5.45563 56.6863 5.56082C56.4308 5.66601 56.2055 5.83294 56.0304 6.04666C55.8553 6.26037 55.736 6.51419 55.6832 6.78535C55.6303 7.05652 55.6456 7.33656 55.7276 7.60037C55.8096 7.86418 55.9558 8.10353 56.1531 8.29694C56.3061 8.45488 56.4899 8.5797 56.6932 8.66366C56.8965 8.74761 57.1148 8.78891 57.3347 8.785" fill="#0B0028"/>
<path d="M81.5041 12.5866C81.1627 12.0531 80.6951 11.6119 80.1426 11.3022C79.4592 10.956 78.6993 10.7881 77.9336 10.8142C77.2255 10.8001 76.5233 10.9449 75.8786 11.238C75.309 11.5017 74.8014 11.8824 74.3887 12.3554C73.9664 12.8401 73.6435 13.403 73.4383 14.0122C73.2279 14.5929 73.1193 15.2055 73.1172 15.8231C73.1177 16.1799 73.1434 16.5361 73.1943 16.8892C73.2332 17.2183 73.3242 17.5391 73.464 17.8396H59.6443V17.1589C59.652 16.3354 59.5746 15.5133 59.4131 14.7058C59.2816 14.0223 59.0247 13.3691 58.6554 12.7792C58.3093 12.2312 57.821 11.7873 57.2426 11.4949C56.5646 11.176 55.8208 11.022 55.072 11.0453C54.3566 11.0562 53.6534 11.232 53.017 11.5591C52.4384 11.8369 51.9261 12.2354 51.5143 12.7278C51.1073 13.2141 50.7937 13.7715 50.5896 14.3718C50.403 14.9526 50.3119 15.5599 50.3199 16.1699C50.3008 16.8542 50.4187 17.5354 50.6667 18.1735C50.8649 18.7 51.1864 19.1712 51.6042 19.5478C52.0469 19.9097 52.5646 20.1685 53.1198 20.3055C53.7449 20.4655 54.3882 20.5432 55.0335 20.5367H56.4463C56.3724 20.9224 56.2203 21.2889 55.9994 21.6136C55.7785 21.9383 55.4935 22.2144 55.1619 22.4247C54.7302 22.6902 54.257 22.8813 53.762 22.9899C53.1085 23.135 52.4405 23.2039 51.7712 23.1953C50.521 23.3017 49.2697 23.0046 48.2007 22.3477C47.819 22.0054 47.5227 21.5786 47.3354 21.1013C47.1481 20.6241 47.0749 20.1097 47.1218 19.5992V16.4782H44.0394V20.267C43.973 21.0976 44.1144 21.9316 44.4507 22.6939C44.787 23.4562 45.3077 24.1229 45.9659 24.6338C47.6553 25.6714 49.6263 26.1563 51.6042 26.0209C53.5491 26.1369 55.4812 25.6381 57.127 24.5953C57.7735 24.1142 58.317 23.5082 58.7251 22.8133C59.1332 22.1184 59.3978 21.3486 59.503 20.5496H82.4288V15.9901C82.424 15.4021 82.3551 14.8164 82.2233 14.2434C82.0962 13.6571 81.861 13.0996 81.5297 12.5994M56.5876 17.8396H55.072C54.6077 17.8666 54.15 17.7201 53.7877 17.4286C53.6082 17.2176 53.4745 16.9717 53.3949 16.7064C53.3154 16.4412 53.2916 16.1623 53.3253 15.8874C53.3064 15.3696 53.4356 14.8572 53.6977 14.4104C53.8382 14.2048 54.0319 14.0412 54.2581 13.9371C54.4843 13.8331 54.7346 13.7924 54.9821 13.8195C55.247 13.7955 55.5128 13.8542 55.7428 13.9876C55.9729 14.121 56.1559 14.3226 56.2665 14.5645C56.5169 15.1524 56.6353 15.7881 56.6132 16.4268V17.8396H56.5876ZM79.3335 17.8396H78.0491C77.5528 17.8508 77.0692 17.682 76.6877 17.3644C76.4757 17.14 76.3153 16.872 76.2177 16.5792C76.1201 16.2863 76.0877 15.9757 76.1226 15.669C76.1208 15.4186 76.1467 15.1688 76.1997 14.9241C76.2508 14.6936 76.3468 14.4753 76.4822 14.2819C76.6163 14.0909 76.7919 13.9328 76.996 13.8195C77.2461 13.692 77.5245 13.6301 77.8051 13.6397C78.0765 13.6321 78.3442 13.7035 78.5757 13.8452C78.7807 13.9763 78.9487 14.1575 79.0638 14.3718C79.1851 14.6087 79.2634 14.8653 79.295 15.1296C79.3146 15.4289 79.3146 15.7293 79.295 16.0286V17.8139L79.3335 17.8396Z" fill="#0B0028"/>
<path d="M77.8179 8.79784C78.2597 8.79448 78.6825 8.61749 78.9949 8.30509C79.3073 7.99269 79.4842 7.56996 79.4876 7.12817C79.4915 6.85194 79.4268 6.57905 79.2992 6.33398C79.1717 6.08891 78.9853 5.87931 78.7569 5.72398C78.5284 5.56864 78.265 5.47243 77.9902 5.44395C77.7154 5.41548 77.4378 5.45563 77.1824 5.56082C76.9269 5.66601 76.7016 5.83294 76.5265 6.04666C76.3514 6.26037 76.2321 6.51419 76.1793 6.78535C76.1264 7.05652 76.1417 7.33656 76.2237 7.60037C76.3057 7.86418 76.4519 8.10353 76.6492 8.29694C76.8022 8.45488 76.986 8.5797 77.1893 8.66366C77.3926 8.74761 77.6109 8.78891 77.8308 8.785" fill="#0B0028"/>
<path d="M88.4161 4.99609H85.3594V20.5497H88.4161V4.99609Z" fill="#0B0028"/>
<path d="M130.786 4.99609V17.8397H128.551C128.249 17.8484 127.947 17.8182 127.652 17.7498C127.458 17.7048 127.281 17.607 127.139 17.4672C127.016 17.3265 126.94 17.1517 126.92 16.9663C126.902 16.7183 126.902 16.4694 126.92 16.2214V4.99609H123.799V16.4782C123.828 16.6766 123.814 16.8788 123.759 17.0715C123.704 17.2641 123.608 17.4428 123.478 17.5956C123.14 17.7913 122.75 17.8767 122.361 17.8397H119.51C119.102 17.8351 118.698 17.7613 118.315 17.6213C117.914 17.4903 117.578 17.2098 117.378 16.8379C117.378 16.748 117.378 16.6452 117.378 16.5553C117.378 16.4654 117.378 16.3626 117.378 16.2471C117.404 15.5855 117.312 14.9245 117.108 14.2948C116.909 13.7323 116.604 13.2133 116.209 12.7664C115.826 12.343 115.358 12.0058 114.835 11.7775C113.884 11.3621 112.814 11.3118 111.829 11.6362C111.359 11.8045 110.924 12.0569 110.545 12.3811C110.049 12.7854 109.616 13.2616 109.26 13.7939C108.798 14.4851 108.414 15.2261 108.117 16.003C107.952 16.4973 107.699 16.9583 107.372 17.3644C107.213 17.6081 106.964 17.7789 106.679 17.8397H96.6865C96.4786 17.8402 96.2715 17.8143 96.0701 17.7626C95.8653 17.712 95.6731 17.6202 95.5049 17.4929C95.3369 17.3626 95.2007 17.1956 95.1068 17.0048C94.9971 16.7631 94.9444 16.4995 94.9527 16.2342V12.227H91.8831V19.2653C91.8895 19.7631 91.8637 20.2607 91.806 20.7551C91.7702 21.1255 91.6469 21.4821 91.4464 21.7955C91.2387 22.0852 90.9404 22.2976 90.5987 22.3991C90.1017 22.5405 89.587 22.6097 89.0703 22.6046V25.4302C89.9356 25.4278 90.7977 25.3244 91.639 25.122C92.3071 24.964 92.9252 24.6417 93.4371 24.1844C93.9353 23.7074 94.3024 23.1103 94.5031 22.4505C94.7653 21.5845 94.8952 20.6838 94.8884 19.779C95.1278 20.0786 95.4561 20.2945 95.826 20.3955L96.2884 20.5497H96.6352H106.653C107.145 20.5588 107.636 20.5114 108.117 20.4084C108.623 20.2794 109.073 19.9912 109.402 19.5864C110.018 20.0054 110.693 20.33 111.405 20.5497C112.022 20.7343 112.662 20.8294 113.306 20.8322C114.038 20.8538 114.765 20.6996 115.425 20.3827C115.993 20.0937 116.465 19.6479 116.787 19.0983C117.107 19.5727 117.551 19.9503 118.071 20.19C118.514 20.398 118.995 20.5117 119.484 20.524H123.016H123.966C124.279 20.5009 124.588 20.4493 124.891 20.3698C125.19 20.2927 125.476 20.1715 125.739 20.0102C126.007 19.8445 126.238 19.626 126.419 19.368C126.631 19.8034 126.991 20.1493 127.434 20.3442C127.845 20.4957 128.28 20.5697 128.718 20.5625H133.804V4.99609H130.748H130.786ZM114 17.5057C113.858 17.6748 113.678 17.8081 113.475 17.8951C113.272 17.9821 113.051 18.0203 112.831 18.0066C112.439 18.0121 112.05 17.9378 111.688 17.7883C111.302 17.6225 110.929 17.4293 110.57 17.2103C110.702 16.3561 111.062 15.5531 111.611 14.8856C111.771 14.6966 111.966 14.5413 112.187 14.4288C112.408 14.3163 112.648 14.249 112.895 14.2306C113.147 14.2229 113.396 14.2851 113.614 14.4104C113.806 14.521 113.969 14.675 114.09 14.86C114.21 15.0489 114.297 15.2576 114.346 15.4764C114.399 15.7081 114.425 15.9452 114.424 16.1828C114.437 16.6453 114.292 17.0984 114.013 17.4672" fill="#0B0028"/>
<path d="M208.297 25.9438H204.906V24.7237H205.625C205.557 24.6238 205.514 24.5095 205.497 24.3898C205.488 24.2701 205.488 24.1498 205.497 24.0301C205.491 23.7884 205.535 23.548 205.625 23.3237C205.707 23.1285 205.83 22.9533 205.985 22.81C206.134 22.6741 206.309 22.5693 206.499 22.5018C206.684 22.4339 206.88 22.3991 207.077 22.399C207.243 22.3807 207.411 22.3807 207.578 22.399L207.976 22.5274V23.6962C207.766 23.6406 207.551 23.6062 207.334 23.5935C207.248 23.5854 207.162 23.5948 207.08 23.6214C206.998 23.6479 206.923 23.6908 206.858 23.7476C206.809 23.7985 206.769 23.8587 206.743 23.9248C206.716 23.991 206.703 24.0617 206.704 24.1329C206.701 24.2745 206.752 24.412 206.846 24.5182C206.923 24.5837 207.013 24.6323 207.111 24.6611C207.208 24.6898 207.31 24.698 207.411 24.6852H208.297V25.9438Z" fill="#0B0028"/>
</g>
<defs>
<clipPath id="clip0_5527_17085">
<rect width="219.535" height="50" fill="white" transform="translate(0.230469)"/>
</clipPath>
</defs>
</svg>
