<?xml version="1.0" encoding="UTF-8"?>
<svg xmlns="http://www.w3.org/2000/svg" width="24" height="24" viewBox="0 0 24 24" fill="none">
  <path d="M15.6265 1.625L15.339 2.43963L14.3423 5.25729L11.6396 3.97305L10.8633 3.60886L11.2275 4.38516L12.5117 7.08781L9.69408 8.08453L8.87945 8.37205L9.69408 8.65956L12.1763 9.54128L2.21866 19.4989L2.00781 19.7194L2.21866 19.9398L4.06834 21.7799L4.27919 22.0003L4.49962 21.7799L14.4573 11.8222L15.339 14.3045L15.6265 15.1191L15.914 14.3045L16.9107 11.4868L19.6134 12.771L20.3897 13.1352L20.0255 12.3589L18.7413 9.65629L21.5589 8.65956L22.3735 8.37205L21.5589 8.08453L18.7413 7.08781L20.0255 4.38516L20.3897 3.60886L19.6134 3.97305L16.9107 5.25729L15.914 2.43963L15.6265 1.625ZM15.6265 3.4651L16.4507 5.7844L16.5657 6.10067L16.8724 5.95691L19.0959 4.90268L18.0416 7.12614L17.8979 7.43283L18.2141 7.54783L20.5334 8.37205L18.2141 9.19626L17.8979 9.31127L18.0416 9.61795L19.0959 11.8414L16.8724 10.7872L16.5657 10.6434L16.4507 10.9597L15.6265 13.279L14.9365 11.343L16.767 9.51253L16.9874 9.2921L16.767 9.08125L14.9269 7.23157L14.7064 7.02072L14.486 7.23157L12.6555 9.06209L10.7196 8.37205L13.0388 7.54783L13.3551 7.43283L13.2114 7.12614L12.1571 4.90268L14.3806 5.95691L14.6873 6.10067L14.8023 5.7844L15.6265 3.4651ZM14.7064 7.88327L16.1153 9.2921L13.173 12.2248L11.7738 10.8255L14.7064 7.88327ZM11.3329 11.2664L12.7322 12.6656L4.27919 21.1282L2.87036 19.7194L11.3329 11.2664Z" fill="black"></path>
</svg>
