<svg width="25" height="24" viewBox="0 0 25 24" fill="none" xmlns="http://www.w3.org/2000/svg">
<path d="M19.25 3.00195L15.8106 6.44129C15.2248 7.02708 15.2248 7.97683 15.8106 8.56261L16.5 9.25195M16.5 9.25195L17.1893 9.94129C17.7751 10.5271 18.7248 10.5271 19.3106 9.94129L22.75 6.50195M16.5 9.25195L4.75 21.002" stroke="#030510" stroke-linecap="round" stroke-linejoin="round"/>
<path d="M20.75 4.99805L18.25 7.49805" stroke="#030510" stroke-linecap="round" stroke-linejoin="round"/>
<path d="M8.73914 8.99108C7.54472 10.1855 5.90674 10.4841 4.41377 8.99108C2.92075 7.49806 2.13801 4.7788 3.33243 3.58438C4.52685 2.38996 7.24611 3.17269 8.73914 4.66572C10.2321 6.15869 9.93356 7.79666 8.73914 8.99108ZM8.73914 8.99108L20.75 21.002" stroke="#030510" stroke-linecap="round"/>
<path d="M9.95542 2.39766C10.8423 2.14005 11.78 2.00195 12.75 2.00195C13.9017 2.00195 15.0079 2.19664 16.0376 2.55491M2.79937 11.002C2.76672 11.3309 2.75 11.6645 2.75 12.002C2.75 14.0338 3.35598 15.9241 4.39707 17.502M8.52267 21.0671C9.80671 21.6669 11.2392 22.002 12.75 22.002C14.2744 22.002 15.7191 21.6609 17.012 21.0509M21.1029 17.502C22.144 15.9241 22.75 14.0338 22.75 12.002C22.75 11.4238 22.7009 10.8571 22.6067 10.3058" stroke="#030510" stroke-linecap="round"/>
</svg>
