<svg width="135" height="45" viewBox="0 0 135 45" fill="none" xmlns="http://www.w3.org/2000/svg">
<path d="M25.7824 9.65471H22.5V14.6577C21.1412 11.6841 17.4441 8.98412 12.6706 8.98412C5.27647 8.98412 0 14.5694 0 21.8312C0 28.8106 5.1 34.5812 12.6706 34.5812C17.3559 34.5812 20.7353 32.19 22.4471 28.7665V31.8812C22.4471 37.9165 17.7176 41.5253 13.0765 41.5253C11.5412 41.5253 9.46765 41.0312 7.71176 39.7694C6.26471 38.7724 5.40882 37.5988 4.82647 36.5665H0.997059C2.53235 40.9341 6.94412 44.4106 12.9882 44.4106C16.2794 44.4106 19.7912 43.0077 22.1824 40.6694C24.3 38.64 25.7824 35.7106 25.7824 31.1135V9.65471ZM3.33529 21.7341C3.33529 16.0606 7.66765 12.09 12.9882 12.09C16.4559 12.09 18.8912 13.5371 20.3735 15.4694C21.9088 17.4106 22.5882 19.8018 22.5882 21.8312C22.5441 24.4871 21.5471 26.9224 19.8794 28.6782C18.1676 30.4341 15.8206 31.4753 13.0765 31.4753C6.81176 31.4753 3.33529 26.6929 3.33529 21.7782V21.7341ZM32.2324 33.9106H35.5676V0.548828H32.2324V33.9106ZM80.3735 43.1047H83.7088V33.9106V28.9518C84.8294 31.4753 88.3059 34.5812 93.6706 34.5812C100.447 34.5812 105.106 29.7547 105.962 23.8518H102.574C101.674 28.3253 97.8794 31.4753 93.1235 31.4753C90.4235 31.4753 87.9882 30.4341 86.2765 28.7224C84.9706 27.4165 84.0618 25.74 83.6824 23.8518H80.3735V43.1047ZM106.085 21.1606C105.776 15.1165 101.515 8.98412 93.6706 8.98412C89.0294 8.98412 85.5088 11.19 83.5235 14.7018V0.548828H80.3735V21.1606H83.5059C83.6559 18.6812 84.6529 16.5018 86.1882 14.8871C87.9441 13.1312 90.3353 12.0459 93.0353 12.0459C99.3 12.0459 102.494 16.7577 102.759 21.1606H106.085ZM134.771 22.7312C135.132 18.8488 133.782 15.1077 130.985 12.4077C128.691 10.2018 125.532 8.98412 122.109 8.98412C114.856 8.98412 109.35 14.7018 109.35 21.8312C109.35 27.8665 113.726 34.5812 122.153 34.5812C124.632 34.5812 127.024 33.9106 129.053 32.5959C131.126 31.29 132.838 29.3047 133.968 26.6929H130.491C128.912 29.8518 125.894 31.6959 122.153 31.6959C118.05 31.74 112.871 28.8106 112.685 22.7312H134.771ZM112.729 20.0665C113.047 15.6547 116.929 11.8165 122.153 11.8165C127.156 11.6841 131.259 15.8312 131.488 20.0665H112.729Z" fill="#0B0028"/>
<path d="M43.0235 8.50501C45.3706 4.43737 49.1382 1.7109 53.3471 0.581485C57.5382 -0.539103 62.1529 -0.0714561 66.2029 2.25796L66.2471 2.28443C70.3147 4.63148 73.0412 8.40795 74.1706 12.608C75.3 16.808 74.8235 21.4403 72.4765 25.508H72.4677C70.1206 29.5756 66.3529 32.3109 62.1441 33.4315C57.9441 34.5609 53.3118 34.0844 49.2441 31.7374C45.1765 29.3903 42.45 25.6138 41.3206 21.4138C40.1912 17.205 40.6765 12.5727 43.0235 8.50501ZM53.4353 0.925603C49.3235 2.02854 45.6265 4.70207 43.3324 8.68148C41.0294 12.6697 40.5618 17.205 41.6647 21.3168C42.7677 25.4285 45.4412 29.1256 49.4206 31.4285C53.4 33.7227 57.9353 34.1903 62.0559 33.0874C66.1588 31.9932 69.8382 29.3285 72.1412 25.3756L72.1588 25.3315C74.4618 21.3521 74.9294 16.8168 73.8265 12.6962C72.7235 8.58443 70.05 4.89619 66.0706 2.59325C62.0912 0.290309 57.5559 -0.168515 53.4353 0.925603Z" fill="#0B0028"/>
<path d="M42.3439 20.0277L57.4498 21.3512C56.8674 20.1777 54.2468 15.113 52.2086 10.86L52.3762 10.7542C54.9439 15.7042 57.8909 21.4483 57.9086 21.4748L58.0498 21.7571L57.7321 21.7306L42.3086 20.3806L42.3439 20.0277ZM52.3498 10.7453C50.8233 7.56887 49.438 4.71005 49.0762 3.75711L48.8998 3.87181C48.2733 2.91005 50.0204 6.62475 52.1909 10.8159L52.3498 10.7453ZM49.0762 3.75711C48.9262 3.36005 48.9439 3.29828 49.1909 3.6777L49.0762 3.75711Z" fill="#0B0028"/>
<path d="M57.9172 21.6136L53.9642 32.2636L72.0966 23.846L73.2613 14.5901L66.1319 4.09012L63.776 2.89012L49.1642 3.94894L42.5378 20.1666L53.576 32.2725L57.5819 21.4901L57.9172 21.6136ZM53.7878 32.7401L53.7083 32.9431L53.5142 32.7313L42.1936 20.3254L42.123 20.2372L42.1583 20.1401L48.8819 3.71071L48.926 3.60483L49.0319 3.596L63.8025 2.52835L63.8554 2.51953L63.8995 2.546L66.3348 3.79012L66.3789 3.80777L66.4054 3.85188L73.5966 14.4489L73.6319 14.5019L73.6231 14.5636L72.4319 23.9872L72.4231 24.0842L72.3348 24.1284L53.7878 32.7401Z" fill="#0B0028"/>
<path d="M72.2299 24.1446L57.7152 21.727L57.1328 21.6299L57.671 21.3917L73.3769 14.377L73.5181 14.7034L58.3593 21.4711L72.2916 23.7917L72.2299 24.1446Z" fill="#0B0028"/>
<path d="M52.5962 10.7778L67.9844 16.6101L66.0785 3.97482L66.4315 3.92188L68.3815 16.8572L68.4344 17.1572L68.1432 17.0513L52.4727 11.1131L52.5962 10.7778Z" fill="#0B0028"/>
<path d="M52.4297 10.8095L63.7062 2.56836L63.9179 2.85071L52.6415 11.1007L52.4297 10.8095Z" fill="#0B0028"/>
<path d="M67.2124 4.65088C67.467 4.20986 67.3159 3.64594 66.8749 3.39132C66.4339 3.1367 65.8699 3.2878 65.6153 3.72882C65.3607 4.16983 65.5118 4.73375 65.9528 4.98837C66.3938 5.24299 66.9578 5.09189 67.2124 4.65088Z" fill="#0B0028"/>
<path d="M64.5788 3.14946C64.8225 2.72744 64.6779 2.1878 64.2559 1.94415C63.8338 1.70049 63.2942 1.84509 63.0506 2.26711C62.8069 2.68913 62.9515 3.22877 63.3735 3.47243C63.7955 3.71608 64.3352 3.57149 64.5788 3.14946Z" fill="#0B0028"/>
<path d="M68.9734 17.3252C69.217 16.9032 69.0724 16.3636 68.6504 16.1199C68.2284 15.8763 67.6887 16.0209 67.4451 16.4429C67.2014 16.8649 67.346 17.4046 67.768 17.6482C68.1901 17.8919 68.7297 17.7473 68.9734 17.3252Z" fill="#0B0028"/>
<path d="M53.2976 11.3956C53.5412 10.9735 53.3966 10.4339 52.9746 10.1902C52.5526 9.94658 52.013 10.0912 51.7693 10.5132C51.5256 10.9352 51.6702 11.4749 52.0923 11.7185C52.5143 11.9622 53.0539 11.8176 53.2976 11.3956Z" fill="#0B0028"/>
<path d="M58.5105 21.9954C58.7541 21.5734 58.6095 21.0337 58.1875 20.7901C57.7655 20.5464 57.2258 20.691 56.9822 21.1131C56.7385 21.5351 56.8831 22.0747 57.3052 22.3184C57.7272 22.562 58.2668 22.4174 58.5105 21.9954Z" fill="#0B0028"/>
<path d="M74.0465 15.1068C74.3028 14.6628 74.1507 14.0951 73.7067 13.8388C73.2628 13.5825 72.6951 13.7346 72.4387 14.1785C72.1824 14.6225 72.3345 15.1902 72.7785 15.4465C73.2225 15.7029 73.7902 15.5507 74.0465 15.1068Z" fill="#0B0028"/>
<path d="M73.0222 24.4151C73.2658 23.9931 73.1213 23.4534 72.6992 23.2098C72.2772 22.9661 71.7376 23.1107 71.4939 23.5327C71.2503 23.9548 71.3949 24.4944 71.8169 24.7381C72.2389 24.9817 72.7785 24.8371 73.0222 24.4151Z" fill="#0B0028"/>
<path d="M54.4089 33.0479C54.6526 32.6259 54.508 32.0862 54.0859 31.8426C53.6639 31.5989 53.1243 31.7435 52.8806 32.1655C52.637 32.5876 52.7816 33.1272 53.2036 33.3709C53.6256 33.6145 54.1653 33.4699 54.4089 33.0479Z" fill="#0B0028"/>
<path d="M43.0906 20.6417C43.3342 20.2196 43.1896 19.68 42.7676 19.4363C42.3456 19.1927 41.8059 19.3373 41.5623 19.7593C41.3186 20.1813 41.4632 20.721 41.8852 20.9646C42.3073 21.2083 42.8469 21.0637 43.0906 20.6417Z" fill="#0B0028"/>
<path d="M49.8093 4.21587C50.053 3.79385 49.9084 3.25421 49.4863 3.01055C49.0643 2.7669 48.5247 2.91149 48.281 3.33352C48.0374 3.75554 48.182 4.29518 48.604 4.53883C49.026 4.78249 49.5656 4.63789 49.8093 4.21587Z" fill="#0B0028"/>
</svg>
