<svg width="24" height="24" viewBox="0 0 24 24" fill="none" xmlns="http://www.w3.org/2000/svg">
<path d="M8.39559 2.55231C9.8705 1.63846 11.1578 2.00673 11.9311 2.59334C12.2482 2.83386 12.4067 2.95413 12.5 2.95413C12.5933 2.95413 12.7518 2.83386 13.0689 2.59334C13.8422 2.00673 15.1295 1.63846 16.6044 2.55231C18.5401 3.75163 18.9781 7.70825 14.5133 11.0463C13.6629 11.6821 13.2377 12 12.5 12C11.7623 12 11.3371 11.6821 10.4867 11.0463C6.02195 7.70825 6.45994 3.75163 8.39559 2.55231Z" stroke="#030510" stroke-linecap="round"/>
<path d="M4 14H6.39482C6.68897 14 6.97908 14.0663 7.24217 14.1936L9.28415 15.1816C9.54724 15.3089 9.83735 15.3751 10.1315 15.3751H11.1741C12.1825 15.3751 13 16.1662 13 17.142C13 17.1814 12.973 17.2161 12.9338 17.2269L10.3929 17.9295C9.93707 18.0555 9.449 18.0116 9.025 17.8064L6.84211 16.7503" stroke="#030510" stroke-linecap="round" stroke-linejoin="round"/>
<path d="M13 16.5L17.5928 15.0889C18.407 14.8352 19.2871 15.136 19.7971 15.8423C20.1659 16.3529 20.0157 17.0842 19.4785 17.3942L11.9629 21.7305C11.4849 22.0063 10.9209 22.0736 10.3952 21.9176L4 20.0199" stroke="#030510" stroke-linecap="round" stroke-linejoin="round"/>
</svg>
