<svg width="80" height="80" viewBox="0 0 80 80" fill="none" xmlns="http://www.w3.org/2000/svg">
<path d="M39.8262 39.8551L39.827 39.8534C39.9014 39.7085 40.0787 39.6474 40.2353 39.7278C40.38 39.8021 40.4411 39.979 40.3612 40.1354C38.0832 44.5389 38.9029 49.8547 42.4109 53.3627C44.5492 55.501 47.4065 56.6796 50.4273 56.6796C53.448 56.6796 56.3054 55.501 58.4437 53.3627C60.582 51.2243 61.7606 48.367 61.7606 45.3462C61.7606 42.3255 60.582 39.4681 58.4437 37.3298C56.3057 35.1917 53.4605 34.0129 50.4273 34.0129C47.4065 34.0129 44.5492 35.1915 42.4109 37.3298C42.296 37.4446 42.0979 37.4446 41.9831 37.3298C41.8683 37.215 41.8683 37.0169 41.9831 36.9021C44.2331 34.652 47.2305 33.4068 50.4273 33.4068C53.6124 33.4068 56.6093 34.6402 58.8708 36.9014C61.1217 39.1641 62.367 42.1623 62.3788 45.3474C62.3785 48.5323 61.1449 51.5291 58.8836 53.7904C56.6335 56.0404 53.6362 57.2856 50.4394 57.2856C47.254 57.2856 44.2568 56.052 41.9952 53.7904L41.9946 53.7897C38.2913 50.0981 37.4261 44.4937 39.8262 39.8551Z" fill="#00E2C5" stroke="#00E2C5" stroke-width="1.21212"/>
<path d="M76.142 66.1149L76.1423 66.1152C76.8075 66.7804 77.175 67.6557 77.1648 68.5769L77.1648 68.5769V68.5836C77.1648 69.5273 76.8034 70.4031 76.1423 71.0641L76.139 71.0675C75.4789 71.7379 74.6049 72.0988 73.6617 72.0988C72.7226 72.0988 71.8455 71.7285 71.1812 71.0642L62.4782 62.3611L62.1932 62.0761L61.8201 62.2287C61.3564 62.4185 60.8523 62.523 60.3405 62.523C59.2898 62.523 58.3043 62.1146 57.557 61.3672L56.563 60.3732L56.2888 60.0991L55.925 60.2331C54.1477 60.8879 52.2912 61.226 50.4254 61.226C46.361 61.226 42.287 59.673 39.1933 56.5793L39.1929 56.5789C32.994 50.3917 32.9934 40.3151 39.1933 34.1152L39.1937 34.1148C45.381 27.9159 55.4575 27.9153 61.6574 34.1152C66.1737 38.6314 67.379 45.2043 65.3109 50.8478L65.1777 51.2112L65.4514 51.4849L66.4434 52.4769C66.4438 52.4773 66.4442 52.4777 66.4445 52.4781C67.5902 53.6352 67.8833 55.327 67.3065 56.7428L67.1548 57.1152L67.439 57.3997L76.142 66.1149ZM57.6539 59.4978L56.9093 59.8761L57.4999 60.4667L57.9847 60.9516C59.0703 62.0372 60.8316 62.1661 62.1016 61.4216L62.1312 61.4042L62.1587 61.3836C62.1766 61.3702 62.1925 61.3588 62.214 61.3435L62.2154 61.3425C62.2341 61.3291 62.2571 61.3127 62.2834 61.2931L62.2909 61.2879C62.4019 61.2102 62.5611 61.0989 62.6964 60.9637L66.0176 57.6425L66.0176 57.6424L66.0298 57.6303L66.044 57.616L66.0572 57.6009C66.1567 57.4872 66.2521 57.3642 66.3284 57.2624L66.3612 57.2187L66.3856 57.1698C66.3861 57.1688 66.39 57.1612 66.4064 57.1372C66.4151 57.1245 66.4238 57.1122 66.4372 57.0929C66.4413 57.0871 66.4457 57.0807 66.4504 57.074C66.4511 57.073 66.4519 57.0719 66.4526 57.0709C66.4592 57.0629 66.4678 57.0521 66.4723 57.0462C66.4828 57.0264 66.4925 57.0063 66.5005 56.9863L66.5092 56.9915C67.2764 55.7081 67.1186 54.0197 66.0176 52.9187L65.5327 52.4339L64.9421 51.8433L64.5638 52.5879C63.8285 54.0351 62.8599 55.389 61.6574 56.5914C60.455 57.7939 59.1011 58.7625 57.6539 59.4978ZM63.1483 61.3308L62.7198 61.7594L63.1483 62.1879L71.6089 70.6485C72.7184 71.7579 74.6051 71.7579 75.7145 70.6485C76.8482 69.5149 76.8482 67.6766 75.7145 66.5429L67.2539 58.0823L66.8254 57.6538L66.3968 58.0823L63.1483 61.3308ZM39.6089 34.5551C33.6511 40.513 33.6511 50.2058 39.6089 56.1637C45.5666 62.1213 55.2719 62.122 61.218 56.1632C67.1755 50.2053 67.1753 40.5128 61.2176 34.5551C58.2384 31.5759 54.3245 30.0866 50.4133 30.0866C46.5021 30.0866 42.5881 31.5759 39.6089 34.5551Z" fill="#00E2C5" stroke="#00E2C5" stroke-width="1.21212"/>
<path d="M32.8935 65.9693H42.5904C42.7596 65.9693 42.8935 66.1048 42.8935 66.2724C42.8935 66.4346 42.7527 66.5754 42.5904 66.5754H32.8935C32.7312 66.5754 32.5904 66.4346 32.5904 66.2724C32.5904 66.1101 32.7312 65.9693 32.8935 65.9693Z" fill="#00E2C5" stroke="#00E2C5" stroke-width="1.21212"/>
<path d="M32.8935 18.2662H42.5904C42.7596 18.2662 42.8935 18.4017 42.8935 18.5692C42.8935 18.7315 42.7527 18.8723 42.5904 18.8723H32.8935C32.7312 18.8723 32.5904 18.7315 32.5904 18.5692C32.5904 18.407 32.7312 18.2662 32.8935 18.2662Z" fill="#00E2C5" stroke="#00E2C5" stroke-width="1.21212"/>
<path d="M49.3449 66.5754H47.0419C46.8797 66.5754 46.7389 66.4346 46.7389 66.2724C46.7389 66.1101 46.8797 65.9693 47.0419 65.9693H49.3449C49.5072 65.9693 49.648 66.1101 49.648 66.2724C49.648 66.4346 49.5072 66.5754 49.3449 66.5754Z" fill="#00E2C5" stroke="#00E2C5" stroke-width="1.21212"/>
<path d="M49.3449 18.8723H47.0419C46.8797 18.8723 46.7389 18.7315 46.7389 18.5692C46.7389 18.407 46.8797 18.2662 47.0419 18.2662H49.3449C49.5072 18.2662 49.648 18.407 49.648 18.5692C49.648 18.7315 49.5072 18.8723 49.3449 18.8723Z" fill="#00E2C5" stroke="#00E2C5" stroke-width="1.21212"/>
<path d="M32.8935 70.36H42.5904C42.7596 70.36 42.8935 70.4955 42.8935 70.663C42.8935 70.8252 42.7527 70.966 42.5904 70.966H32.8935C32.7312 70.966 32.5904 70.8252 32.5904 70.663C32.5904 70.5007 32.7312 70.36 32.8935 70.36Z" fill="#00E2C5" stroke="#00E2C5" stroke-width="1.21212"/>
<path d="M32.8935 22.6568H42.5904C42.7596 22.6568 42.8935 22.7923 42.8935 22.9599C42.8935 23.1221 42.7527 23.2629 42.5904 23.2629H32.8935C32.7312 23.2629 32.5904 23.1221 32.5904 22.9599C32.5904 22.7976 32.7312 22.6568 32.8935 22.6568Z" fill="#00E2C5" stroke="#00E2C5" stroke-width="1.21212"/>
<path d="M49.3449 70.966H47.0419C46.8797 70.966 46.7389 70.8252 46.7389 70.663C46.7389 70.5007 46.8797 70.36 47.0419 70.36H49.3449C49.5072 70.36 49.648 70.5007 49.648 70.663C49.648 70.8252 49.5072 70.966 49.3449 70.966Z" fill="#00E2C5" stroke="#00E2C5" stroke-width="1.21212"/>
<path d="M49.3449 23.2629H47.0419C46.8797 23.2629 46.7389 23.1221 46.7389 22.9599C46.7389 22.7976 46.8797 22.6568 47.0419 22.6568H49.3449C49.5072 22.6568 49.648 22.7976 49.648 22.9599C49.648 23.1221 49.5072 23.2629 49.3449 23.2629Z" fill="#00E2C5" stroke="#00E2C5" stroke-width="1.21212"/>
<path d="M8.22225 71.2865H8.82831V70.6804V19.2138C8.82831 19.0515 8.96909 18.9107 9.13134 18.9107C9.2936 18.9107 9.43437 19.0515 9.43437 19.2138V72.7895C9.43437 75.2564 11.4378 77.2744 13.9192 77.2744H54.8526C57.3194 77.2744 59.3374 75.2709 59.3374 72.7895V64.6077C59.3374 64.4455 59.4782 64.3047 59.6404 64.3047C59.808 64.3047 59.9435 64.4386 59.9435 64.6077V72.7895C59.9435 75.5942 57.6572 77.8805 54.8526 77.8805H13.9192C11.1145 77.8805 8.82831 75.5942 8.82831 72.7895V72.4986V71.8926H8.22225H7.93134C5.12667 71.8926 2.84044 69.6063 2.84044 66.8017V63.5653C2.84044 63.403 2.98121 63.2623 3.14347 63.2623C3.30572 63.2623 3.4465 63.403 3.4465 63.5653V66.8017C3.4465 69.2685 5.44994 71.2865 7.93134 71.2865H8.22225Z" fill="#00E2C5" stroke="#00E2C5" stroke-width="1.21212"/>
<path d="M52.7316 8.10956H53.3377V7.5035V7.21259C53.3377 4.74578 51.3342 2.72775 48.8528 2.72775H7.91948C5.45267 2.72775 3.43464 4.73119 3.43464 7.21259V60.4611C3.43464 60.6233 3.29386 60.7641 3.13161 60.7641C2.96633 60.7641 2.83691 60.6237 2.84052 60.4759L2.8407 60.4685V60.4611V7.21259C2.8407 4.40792 5.12693 2.12169 7.93161 2.12169H48.8649C51.6696 2.12169 53.9558 4.40792 53.9558 7.21259V7.51562V8.12169H54.5619H54.8528C57.6575 8.12169 59.9437 10.4079 59.9437 13.2126V29.8793C59.9437 30.0415 59.8029 30.1823 59.6407 30.1823C59.4784 30.1823 59.3377 30.0415 59.3377 29.8793V13.2126C59.3377 10.7458 57.3342 8.72775 54.8528 8.72775H13.9195C11.4527 8.72775 9.43464 10.7312 9.43464 13.2126V14.9459C9.43464 15.1082 9.29386 15.249 9.13161 15.249C8.96935 15.249 8.82858 15.1082 8.82858 14.9459V13.2005C8.82858 10.3958 11.1148 8.10956 13.9195 8.10956H52.7316Z" fill="#00E2C5" stroke="#00E2C5" stroke-width="1.21212"/>
<path d="M17.4856 40.9391V41.5452H18.0916H27.231C27.3933 41.5452 27.534 41.6859 27.534 41.8482C27.534 42.0105 27.3933 42.1512 27.231 42.1512H17.1825C17.0203 42.1512 16.8795 42.0105 16.8795 41.8482V31.7997C16.8795 31.6375 17.0203 31.4967 17.1825 31.4967H27.231C27.3933 31.4967 27.534 31.6375 27.534 31.7997V38.9997C27.534 39.162 27.3933 39.3027 27.231 39.3027C27.0688 39.3027 26.928 39.162 26.928 38.9997V32.7088V32.1027H26.3219H18.0916H17.4856V32.7088V40.9391Z" fill="#00E2C5" stroke="#00E2C5" stroke-width="1.21212"/>
<path d="M21.0016 37.4639L21.4301 37.8925L21.8587 37.4639L24.2223 35.1003C24.3268 34.9957 24.5369 34.9871 24.6622 35.1124C24.777 35.2272 24.777 35.4253 24.6622 35.5401L21.6561 38.5462C21.5939 38.6084 21.5205 38.6354 21.4422 38.6354C21.364 38.6354 21.2905 38.6084 21.2284 38.5462L19.7859 37.1038C19.6711 36.9889 19.6711 36.7909 19.7859 36.676C19.9008 36.5612 20.0989 36.5612 20.2137 36.676L21.0016 37.4639Z" fill="#00E2C5" stroke="#00E2C5" stroke-width="1.21212"/>
<path d="M26.3219 55.9475H26.928V55.3415V47.1112V46.5051H26.3219H18.0916H17.4856V47.1112V55.3415V55.9475H18.0916H26.3219ZM27.231 45.899C27.3933 45.899 27.534 46.0398 27.534 46.2021V56.2505C27.534 56.4128 27.3933 56.5536 27.231 56.5536H17.1825C17.0203 56.5536 16.8795 56.4128 16.8795 56.2505V46.2021C16.8795 46.0398 17.0203 45.899 17.1825 45.899H27.231Z" fill="#00E2C5" stroke="#00E2C5" stroke-width="1.21212"/>
<path d="M24.65 49.9402L25.0786 50.3688L24.65 49.9402L21.644 52.9463C21.5867 53.0036 21.51 53.0355 21.4301 53.0355C21.3503 53.0355 21.2736 53.0036 21.2162 52.9463L19.7859 51.516C19.6711 51.4012 19.6711 51.2031 19.7859 51.0883C19.9008 50.9734 20.0989 50.9734 20.2137 51.0883L21.0016 51.8761L21.4301 52.3047L21.8587 51.8761L24.2223 49.5125C24.3371 49.3977 24.5352 49.3977 24.65 49.5125C24.7649 49.6273 24.7649 49.8254 24.65 49.9402Z" fill="#00E2C5" stroke="#00E2C5" stroke-width="1.21212"/>
<path d="M18.0916 60.9152H17.4856V61.5213V70.6607C17.4856 70.8229 17.3448 70.9637 17.1825 70.9637C17.0203 70.9637 16.8795 70.8229 16.8795 70.6607V60.6122C16.8795 60.45 17.0203 60.3092 17.1825 60.3092H27.2431C27.4054 60.3092 27.5462 60.45 27.5462 60.6122V70.6607C27.5462 70.823 27.4054 70.9637 27.2431 70.9637H19.9947C19.815 70.9637 19.6795 70.8177 19.6795 70.6607C19.6795 70.4984 19.8203 70.3577 19.9825 70.3577H26.3219H26.928V69.7516V61.5213V60.9152H26.3219H18.0916Z" fill="#00E2C5" stroke="#00E2C5" stroke-width="1.21212"/>
<path d="M18.0916 17.2121H17.4856V17.8182V26.9576C17.4856 27.1198 17.3448 27.2606 17.1825 27.2606C17.0203 27.2606 16.8795 27.1198 16.8795 26.9576V16.9091C16.8795 16.7468 17.0203 16.6061 17.1825 16.6061H27.2431C27.4054 16.6061 27.5462 16.7468 27.5462 16.9091V26.9576C27.5462 27.1198 27.4054 27.2606 27.2431 27.2606H19.9947C19.815 27.2606 19.6795 27.1146 19.6795 26.9576C19.6795 26.7953 19.8203 26.6545 19.9825 26.6545H26.3219H26.928V26.0485V17.8182V17.2121H26.3219H18.0916Z" fill="#00E2C5" stroke="#00E2C5" stroke-width="1.21212"/>
<path d="M24.65 64.3543L25.0786 64.7829L24.65 64.3543L21.644 67.3604C21.5867 67.4177 21.51 67.4495 21.4301 67.4495C21.3503 67.4495 21.2736 67.4177 21.2162 67.3604L19.7859 65.9301C19.6711 65.8152 19.6711 65.6172 19.7859 65.5023C19.9008 65.3875 20.0989 65.3875 20.2137 65.5023L21.0016 66.2902L21.4301 66.7187L21.8587 66.2902L24.2223 63.9266C24.3371 63.8117 24.5352 63.8117 24.65 63.9266C24.7649 64.0414 24.7649 64.2395 24.65 64.3543Z" fill="#00E2C5" stroke="#00E2C5" stroke-width="1.21212"/>
<path d="M24.65 20.6512L25.0786 21.0797L24.65 20.6512L21.644 23.6572C21.5867 23.7146 21.51 23.7464 21.4301 23.7464C21.3503 23.7464 21.2736 23.7146 21.2162 23.6572L19.7859 22.2269C19.6711 22.1121 19.6711 21.914 19.7859 21.7992C19.9008 21.6844 20.0989 21.6844 20.2137 21.7992L21.0016 22.5871L21.4301 23.0156L21.8587 22.5871L24.2223 20.2234C24.3371 20.1086 24.5352 20.1086 24.65 20.2234C24.7649 20.3383 24.7649 20.5364 24.65 20.6512Z" fill="#00E2C5" stroke="#00E2C5" stroke-width="1.21212"/>
<path d="M48.1158 49.963C48.3461 49.963 48.5764 49.8781 48.7582 49.6963L56.1522 42.3024C56.5037 41.9509 56.5037 41.3691 56.1522 41.0175C55.8007 40.666 55.2188 40.666 54.8673 41.0175L48.1158 47.7691L45.9704 45.6236C45.6188 45.2721 45.037 45.2721 44.6855 45.6236C44.334 45.9751 44.334 46.5569 44.6855 46.9085L47.4734 49.6963C47.6552 49.866 47.8855 49.963 48.1158 49.963Z" fill="#00E2C5"/>
</svg>
