<svg width="80" height="80" viewBox="0 0 80 80" fill="none" xmlns="http://www.w3.org/2000/svg">
<path d="M43.1253 30.5384C43.2156 30.5384 43.2861 30.5726 43.3411 30.643C43.3975 30.7254 43.4081 30.7956 43.4008 30.8443C43.3914 30.9071 43.3552 30.977 43.286 31.0354L40.1753 33.3684L40.1753 33.3684L40.1705 33.3721C40.1365 33.3983 40.0864 33.4184 40.0153 33.4184H39.9251C39.8942 33.41 39.8696 33.3971 39.8502 33.3821L39.8502 33.3821L39.8453 33.3784L36.7253 31.0384L36.7195 31.0341L36.7137 31.03C36.6697 30.9989 36.6333 30.949 36.6203 30.8577L36.6198 30.8543C36.6089 30.7818 36.6291 30.7159 36.6634 30.6737L36.6695 30.6662L36.6753 30.6584C36.7309 30.5843 36.8027 30.5484 36.8953 30.5484C36.9664 30.5484 37.0165 30.5686 37.0505 30.5947L37.0504 30.5948L37.055 30.5982L38.945 32.0182L39.7453 32.6195V31.6184V22.2584V21.7584H39.2453H22.9653C22.1315 21.7584 21.4453 21.0723 21.4453 20.2384V2.41844C21.4453 1.58458 22.1315 0.898438 22.9653 0.898438H46.6353C46.785 0.898438 46.9053 1.02034 46.9053 1.16844C46.9053 1.31229 46.7792 1.43844 46.6353 1.43844H22.9653C22.436 1.43844 21.9853 1.86554 21.9853 2.41844V20.2284C21.9853 20.7578 22.4124 21.2084 22.9653 21.2084H57.0353C57.5646 21.2084 58.0153 20.7813 58.0153 20.2284V2.41844C58.0153 1.8891 57.5882 1.43844 57.0353 1.43844H52.0653C51.9157 1.43844 51.7953 1.31653 51.7953 1.16844C51.7953 1.02458 51.9215 0.898438 52.0653 0.898438H57.0353C57.8776 0.898438 58.5553 1.58297 58.5553 2.41844V20.2284C58.5553 21.0623 57.8692 21.7484 57.0353 21.7484H40.7753H40.2753V22.2484V31.6084V32.6095L41.0756 32.0082L42.9657 30.5882L42.9657 30.5882L42.9702 30.5847C43.0042 30.5586 43.0542 30.5384 43.1253 30.5384Z" fill="#00E2C5" stroke="#00E2C5"/>
<path d="M27.1841 6.59859C27.0344 6.59859 26.9141 6.47669 26.9141 6.32859C26.9141 6.18474 27.0402 6.05859 27.1841 6.05859H32.2741C32.4237 6.05859 32.5441 6.1805 32.5441 6.32859C32.5441 6.47245 32.4179 6.59859 32.2741 6.59859H27.1841Z" fill="#00E2C5" stroke="#00E2C5"/>
<path d="M27.1841 11.5986C27.0344 11.5986 26.9141 11.4767 26.9141 11.3286C26.9141 11.1847 27.0402 11.0586 27.1841 11.0586H52.8041C52.9537 11.0586 53.0741 11.1805 53.0741 11.3286C53.0741 11.4725 52.9479 11.5986 52.8041 11.5986H27.1841Z" fill="#00E2C5" stroke="#00E2C5"/>
<path d="M27.1841 16.5986C27.0344 16.5986 26.9141 16.4767 26.9141 16.3286C26.9141 16.1847 27.0402 16.0586 27.1841 16.0586H47.6141C47.7637 16.0586 47.8841 16.1805 47.8841 16.3286C47.8841 16.4725 47.7579 16.5986 47.6141 16.5986H27.1841Z" fill="#00E2C5" stroke="#00E2C5"/>
<path d="M67.0628 54.4869V53.9869H66.5628H13.4228H12.9228V54.4869V67.1169C12.9228 67.2665 12.8009 67.3869 12.6528 67.3869C12.509 67.3869 12.3828 67.2607 12.3828 67.1169V41.9469C12.3828 40.763 13.349 39.7969 14.5328 39.7969H65.4628C66.6467 39.7969 67.6128 40.763 67.6128 41.9469V76.9469C67.6128 78.1307 66.6467 79.0969 65.4628 79.0969H14.5328C13.349 79.0969 12.3828 78.1307 12.3828 76.9469V72.6969C12.3828 72.5472 12.5047 72.4269 12.6528 72.4269C12.7967 72.4269 12.9228 72.553 12.9228 72.6969V76.9469C12.9228 77.833 13.6367 78.5469 14.5228 78.5469H65.4628C66.3519 78.5469 67.0628 77.8201 67.0628 76.9469V54.4869ZM12.9328 52.9469V53.4469H13.4328H66.5728H67.0728V52.9469V41.9469C67.0728 41.0578 66.346 40.3469 65.4728 40.3469H14.5328C13.6467 40.3469 12.9328 41.0607 12.9328 41.9469V52.9469Z" fill="#00E2C5" stroke="#00E2C5"/>
<path d="M30.3303 73.9098H30.8303V73.4098V59.6398V59.1398H30.3303H18.1103H17.6103V59.6398V73.4098V73.9098H18.1103H18.1203H30.3303ZM18.1703 74.4498C17.5665 74.4498 17.0703 73.9537 17.0703 73.3498V59.6898C17.0703 59.086 17.5665 58.5898 18.1703 58.5898H30.2703C30.8742 58.5898 31.3703 59.086 31.3703 59.6898V73.3498C31.3703 73.9537 30.8742 74.4498 30.2703 74.4498H18.1703Z" fill="#00E2C5" stroke="#00E2C5"/>
<path d="M37.0166 48.4673V48.9673H37.5166H40.6566H41.1566V48.4673V45.3273V44.8273H40.6566H37.5166H37.0166V45.3273V48.4673ZM37.6866 49.5073C37.0227 49.5073 36.4766 48.9612 36.4766 48.2973V45.4873C36.4766 44.8235 37.0227 44.2773 37.6866 44.2773H40.4966C41.1604 44.2773 41.7066 44.8235 41.7066 45.4873V48.2973C41.7066 48.9612 41.1604 49.5073 40.4966 49.5073H37.6866Z" fill="#00E2C5" stroke="#00E2C5"/>
<path d="M46.3838 48.4673V48.9673H46.8838H50.0238H50.5238V48.4673V45.3273V44.8273H50.0238H46.8838H46.3838V45.3273V48.4673ZM47.0537 49.5073C46.3899 49.5073 45.8438 48.9612 45.8438 48.2973V45.4873C45.8438 44.8235 46.3899 44.2773 47.0537 44.2773H49.8638C50.5276 44.2773 51.0737 44.8235 51.0737 45.4873V48.2973C51.0737 48.9612 50.5276 49.5073 49.8638 49.5073H47.0537Z" fill="#00E2C5" stroke="#00E2C5"/>
<path d="M55.7666 48.4673V48.9673H56.2666H59.4066H59.9066V48.4673V45.3273V44.8273H59.4066H56.2666H55.7666V45.3273V48.4673ZM56.4366 49.5073C55.7727 49.5073 55.2266 48.9612 55.2266 48.2973V45.4873C55.2266 44.8235 55.7727 44.2773 56.4366 44.2773H59.2466C59.9104 44.2773 60.4566 44.8235 60.4566 45.4873V48.2973C60.4566 48.9612 59.9104 49.5073 59.2466 49.5073H56.4366Z" fill="#00E2C5" stroke="#00E2C5"/>
<path d="M42.0903 61.4697C41.9407 61.4697 41.8203 61.3478 41.8203 61.1997C41.8203 61.0558 41.9465 60.9297 42.0903 60.9297H50.8403C50.99 60.9297 51.1103 61.0516 51.1103 61.1997C51.1103 61.3435 50.9842 61.4697 50.8403 61.4697H42.0903Z" fill="#00E2C5" stroke="#00E2C5"/>
<path d="M42.0903 66.4697C41.9407 66.4697 41.8203 66.3478 41.8203 66.1997C41.8203 66.0558 41.9465 65.9297 42.0903 65.9297H57.4003C57.5499 65.9297 57.6703 66.0516 57.6703 66.1997C57.6703 66.3435 57.5442 66.4697 57.4003 66.4697H42.0903Z" fill="#00E2C5" stroke="#00E2C5"/>
<path d="M42.0903 71.4697C41.9407 71.4697 41.8203 71.3478 41.8203 71.1997C41.8203 71.0558 41.9465 70.9297 42.0903 70.9297H57.4003C57.5499 70.9297 57.6703 71.0516 57.6703 71.1997C57.6703 71.3435 57.5442 71.4697 57.4003 71.4697H42.0903Z" fill="#00E2C5" stroke="#00E2C5"/>
</svg>
