<svg width="105" height="50" viewBox="0 0 105 50" fill="none" xmlns="http://www.w3.org/2000/svg">
<g clip-path="url(#clip0_12908_9739)">
<path d="M41.7038 26.1849V12.6817C45.7003 12.6817 48.9456 15.9437 48.9456 19.9622V38.0392H46.921C44.3095 38.0392 42.185 35.9059 42.185 33.2821C40.7355 36.7805 37.7426 37.5547 34.2684 37.5547C28.8634 37.5547 24.7085 33.7194 24.7085 27.739V12.6817C28.705 12.6817 31.9503 15.9437 31.9503 19.9622V26.4744C31.9503 29.4882 33.6874 31.6216 36.5395 31.6216C39.3857 31.6275 41.7038 29.3405 41.7038 26.1849ZM94.7965 38.2756V8.551C94.7965 4.35528 91.3928 0.957334 87.1909 0.957334V30.682C87.1909 34.8777 90.5947 38.2815 94.7965 38.2756ZM56.0465 40.3794L60.5008 39.8712C61.5102 39.7589 62.4139 40.4503 62.9245 41.3308C63.9867 43.1687 66.0113 44.386 68.2296 44.386C71.7625 44.386 74.2742 41.9336 74.2742 37.7379V33.5894C72.5078 36.6564 69.6733 38.5415 65.9996 38.5415C59.6792 38.5415 55.1193 33.4476 55.1193 26.1376C55.1193 18.5439 59.6733 13.1663 65.9996 13.1663C69.7203 13.1663 72.6017 15.1519 74.2742 18.3548V14.0645C78.1299 14.0645 81.2519 17.1966 81.2519 21.0613V37.9329C81.2519 45.432 76.0465 50.0059 68.5113 50.0059C62.0031 50 56.7449 45.9461 56.0465 40.3794ZM68.3235 19.3417C64.6968 19.3417 62.0911 22.2196 62.0911 26.1317C62.0911 29.9492 64.6968 32.7384 68.3235 32.7384C71.9503 32.7384 74.5559 29.9551 74.5559 26.1317C74.5559 22.2137 71.9562 19.3358 68.3235 19.3417ZM10.4069 25.6353C10.4069 29.3169 8.03598 31.7397 4.64983 31.7397C3.34115 31.7397 1.45734 31.4502 0.0078125 31.0602V37.3124C1.89748 37.8915 4.64983 38.2815 6.92683 38.2815C13.6052 38.2815 18.5407 33.483 18.5407 26.4567V0C14.0512 0 10.4127 3.69342 10.4127 8.24962L10.4069 25.6353ZM97.4022 38.2756H101.205C103.3 38.2756 105.008 36.5619 105.008 34.4463C105.008 32.3366 103.306 30.617 101.205 30.617C99.1041 30.617 97.4022 32.3307 97.4022 34.4463V38.2756Z" fill="#030510"/>
</g>
<defs>
<clipPath id="clip0_12908_9739">
<rect width="105" height="50" fill="white"/>
</clipPath>
</defs>
</svg>
