<svg width="141" height="45" viewBox="0 0 141 45" fill="none" xmlns="http://www.w3.org/2000/svg">
<path d="M91.9984 16.7715C93.1203 16.7715 94.0299 17.6871 94.0299 18.8163C94.0299 19.9455 93.1203 20.8612 91.9984 20.8612C90.8765 20.8612 89.9668 19.9455 89.9668 18.8163C89.9668 17.6885 90.8765 16.7715 91.9984 16.7715Z" fill="#0B0028"/>
<path d="M14.9781 36.9873C23.3909 36.9873 29.7316 30.6869 29.7316 22.3823C29.7316 14.0778 23.3909 7.77734 14.9781 7.77734C6.56531 7.77734 0.224609 14.0778 0.224609 22.3823C0.224609 30.6869 6.56531 36.9873 14.9781 36.9873ZM14.9781 32.2827C9.41058 32.2827 5.18255 28.0284 5.18255 22.3823C5.18255 16.7363 9.40923 12.482 14.9781 12.482C20.5457 12.482 24.7737 16.7363 24.7737 22.3823C24.7737 28.0284 20.547 32.2827 14.9781 32.2827Z" fill="#0B0028"/>
<path d="M47.2617 36.8216C48.3593 36.8216 49.4163 36.6991 50.4314 36.4937V31.8707C49.6596 32.034 48.8053 32.117 47.9119 32.117C41.8564 32.117 37.6702 27.9443 37.6702 22.3798C37.6702 16.8167 41.8564 12.6441 47.9119 12.6441C48.8067 12.6441 49.6596 12.7257 50.4314 12.889V8.26733C49.4149 8.06326 48.3593 7.93945 47.2617 7.93945C38.9705 7.93945 32.7109 14.1583 32.7109 22.3798C32.7109 30.6041 38.9705 36.8216 47.2617 36.8216Z" fill="#0B0028"/>
<path d="M68.9328 8.26367H53.8535V12.8458H58.975V31.6235C58.975 34.3119 61.1404 36.4914 63.8113 36.4914V12.8458H68.9328V8.26367Z" fill="#0B0028"/>
<path d="M113.135 8.26367H105.859V36.4914C108.53 36.4914 110.696 34.3119 110.696 31.6235V26.6318H113.134C118.458 26.6318 122.482 22.6632 122.482 17.4675C122.484 12.1914 118.46 8.26367 113.135 8.26367ZM113.053 22.0496H110.696V12.8458H113.053C115.613 12.8458 117.565 14.8091 117.565 17.4688C117.565 20.0864 115.614 22.0496 113.053 22.0496Z" fill="#0B0028"/>
<path d="M131.611 36.9873C136.406 36.9873 140.064 34.2051 140.064 29.0923C140.064 20.5008 129.781 19.8464 129.781 15.2656C129.781 13.4656 131.284 12.2384 133.56 12.2384C135.226 12.2384 137.381 12.8928 138.681 13.8343V9.00452C137.3 8.26849 135.308 7.77734 133.357 7.77734C128.764 7.77734 125.025 10.6004 125.025 15.5499C125.025 23.7728 135.309 24.1415 135.309 29.2134C135.309 31.2174 133.806 32.5276 131.449 32.5276C129.498 32.5276 126.896 31.5453 125.148 30.2365V35.2269C127.099 36.3738 129.375 36.9873 131.611 36.9873Z" fill="#0B0028"/>
<path d="M100.514 33.902C96.9968 32.9537 94.2543 30.5429 92.7539 27.4886L95.8344 24.5254C96.6548 27.1335 97.5551 28.9565 100.367 29.7143C102.409 30.2654 103.72 32.5279 103.173 34.5836C102.875 34.5264 100.811 33.9822 100.514 33.902Z" fill="#0B0028"/>
<path d="M73.18 33.902C76.6971 32.9537 79.4396 30.5429 80.94 27.4886L77.8595 24.5254C77.039 27.1335 76.1388 28.9565 73.3274 29.7143C71.285 30.2654 69.9739 32.5279 70.5213 34.5836C70.8187 34.5264 72.8827 33.9822 73.18 33.902Z" fill="#0B0028"/>
<path fill-rule="evenodd" clip-rule="evenodd" d="M72.082 14.6445C72.082 20.0171 74.957 24.7135 79.2418 27.2618C76.2533 29.5229 74.3204 33.1214 74.3204 37.1744V38.041C74.3204 40.2899 76.1316 42.113 78.366 42.113H78.7971V37.1744C78.7971 33.5201 81.2667 30.4467 84.6174 29.5528V35.5812C84.6174 37.8301 86.4287 39.6532 88.663 39.6532H89.0942V30.2072C89.0942 30.0263 89.082 29.8494 89.0604 29.6753C92.199 30.7038 94.4657 33.6724 94.4657 37.1744V45H94.8969C97.1312 45 98.9425 43.1769 98.9425 40.928V37.1744C98.9425 33.1214 97.0096 29.5229 94.021 27.2631C98.3072 24.7149 101.181 20.0184 101.181 14.6458C101.181 6.55626 94.6671 0 86.6314 0C78.5957 0 72.082 6.55626 72.082 14.6445ZM86.6314 24.7829C81.068 24.7829 76.5588 20.2443 76.5588 14.6445C76.5588 9.04462 81.068 4.50599 86.6314 4.50599C92.1936 4.50599 96.7041 9.04462 96.7041 14.6445C96.7041 20.2429 92.1949 24.7829 86.6314 24.7829Z" fill="#0B0028"/>
</svg>
