<svg width="195" height="50" viewBox="0 0 195 50" fill="none" xmlns="http://www.w3.org/2000/svg">
<g clip-path="url(#clip0_10341_6285)">
<path fill-rule="evenodd" clip-rule="evenodd" d="M157.036 22.2114V35.7904H159.56H162.084V31.4257V27.061H162.861C164.075 27.061 164.075 27.061 164.56 27.8855C165.191 28.8554 165.483 29.3889 165.871 30.0678C166.065 30.4073 166.308 30.7953 166.453 30.9893C166.55 31.1832 166.939 31.7167 167.279 32.2502C167.618 32.7836 167.958 33.2686 168.007 33.3656C168.104 33.4626 168.492 34.0445 168.881 34.675L169.609 35.7904H172.23C174.56 35.7904 174.851 35.7904 174.803 35.6449C174.754 35.4994 174.269 34.7235 173.638 33.6566C173.347 33.2201 173.007 32.6381 172.813 32.3472C172.618 32.0562 172.376 31.6197 172.23 31.4257C172.084 31.1832 171.793 30.7468 171.599 30.4073C170.871 29.1949 168.347 25.5091 168.007 25.1212L167.667 24.7332L167.861 24.5877C167.958 24.4907 168.055 24.4422 168.104 24.3937C168.152 24.3452 168.881 23.4723 169.366 22.8418C169.754 22.3569 170.774 21.096 171.502 20.223C171.89 19.7865 172.327 19.2046 172.57 18.9621C172.764 18.7196 173.104 18.3316 173.298 18.0892C174.317 16.8282 174.512 16.6343 174.56 16.5373C174.56 16.4888 173.735 16.4403 171.939 16.4888H169.269L168.978 16.7313C168.832 16.8767 168.541 17.1677 168.347 17.4102C168.152 17.6527 167.861 18.0892 167.618 18.3316C167.424 18.5741 167.084 19.0106 166.89 19.2531C166.696 19.4956 166.502 19.7865 166.453 19.835C166.065 20.32 164.317 22.5024 164.123 22.7448C163.444 23.6178 163.298 23.7148 162.667 23.7148H162.133V16.2463V8.63232H159.609H157.084L157.036 22.2114ZM68.4437 8.82631C59.7058 9.55376 53.8806 18.5256 56.8418 26.7701C57.8612 29.5829 60.0942 32.3957 62.4243 33.7536C62.667 33.8991 62.8612 33.996 62.8612 34.0445C62.9097 34.093 63.2495 34.2385 63.6379 34.4325C64.0262 34.6265 64.4631 34.8205 64.6088 34.869C65.9194 35.4509 67.8612 35.8389 69.7544 35.8389C79.9486 35.8389 86.502 25.3152 81.9389 16.1978C80.968 14.2579 79.2204 12.2696 77.5214 11.1541C77.2301 10.9602 76.9388 10.7662 76.8903 10.7177C75.9194 9.94173 72.8126 8.9233 70.8223 8.77781C69.7544 8.72932 69.6573 8.72932 68.4437 8.82631ZM71.2592 13.7245C73.9291 14.2579 76.0165 16.0523 77.0359 18.7196C77.6185 20.2715 77.7155 24.0057 77.133 25.6546C75.0942 31.7167 67.4243 33.0261 63.4922 27.9825C62.2301 26.3336 61.6961 23.7148 62.0359 20.6595C62.5214 16.0038 66.7932 12.803 71.2592 13.7245ZM105.774 16.3918C104.22 16.6343 102.813 17.4102 101.308 18.8166C100.822 19.3016 100.531 19.4956 100.483 19.4471C100.434 19.3986 100.337 19.1561 100.191 18.8651C99.6573 17.7497 98.4437 16.8283 97.1816 16.4888C95.3369 16.0038 93.4922 16.6343 91.6961 18.2831C91.0651 18.8651 91.1136 18.8651 91.0651 18.1862C91.0165 17.5072 90.8223 17.1192 90.434 16.8283L90.0942 16.6343H88.2981H86.502V25.9941V35.354H89.0262H91.5505V28.6129C91.5505 22.7933 91.599 21.8719 91.6961 21.6779C92.6185 20.0775 95.1913 19.738 96.4534 21.0475C97.2301 21.8234 97.1816 21.3384 97.1816 28.8069V35.354H99.7544H102.327L102.424 29.0979L102.473 22.7448L102.667 22.2114C103.444 20.0775 107.036 19.738 107.91 21.7264C108.055 22.1144 108.152 25.2667 108.152 31.3772V35.4994H110.725H113.298L113.25 29.0494C113.201 21.9689 113.201 22.0659 112.716 20.514C111.696 17.4587 109.075 15.9068 105.774 16.3918ZM126.211 16.4888C124.9 16.6828 123.104 17.5557 122.036 18.4771L121.793 18.6711L121.745 18.1377C121.599 16.8767 121.308 16.6828 118.929 16.6828H117.133V26.0426V35.4025H119.657H122.182V28.8069V22.1144L122.57 21.7264C124.22 20.1745 126.793 19.8835 127.861 21.1929C128.492 21.9204 128.444 21.4839 128.444 28.8554V35.4509H131.017H133.589V29.1464C133.589 21.5809 133.541 21.2414 132.667 19.4956C131.696 17.2647 129.026 16.0523 126.211 16.4888ZM143.638 16.6828C139.317 17.6042 136.453 21.1444 136.599 25.4606C136.696 29.4374 137.716 32.1532 139.706 33.6566C139.9 33.8021 140.191 34.0445 140.288 34.1415C140.677 34.481 142.279 35.2085 143.055 35.4025C146.89 36.4209 150.628 35.5964 153.541 33.1231C153.978 32.7351 154.026 32.8806 153.007 31.6197C151.793 30.0678 151.453 29.9708 150.046 30.7953C148.832 31.5227 148.735 31.5712 148.055 31.7652C144.997 32.7351 141.793 30.6498 141.745 27.5945C141.745 26.7701 141.211 26.867 147.813 26.867H153.589L153.735 26.6731C153.929 26.3821 154.075 24.6362 153.929 23.5693C153.686 20.999 152.521 19.1561 150.337 17.7497C149.851 17.4587 149.026 17.1192 147.618 16.7313C147.084 16.5858 144.22 16.5373 143.638 16.6828ZM174.851 16.6343C174.851 16.6828 174.9 16.8767 174.997 17.0707C175.094 17.2647 175.288 17.7982 175.483 18.2831C175.677 18.7681 175.871 19.1561 175.871 19.2046C175.919 19.2531 176.065 19.5926 176.211 19.9805C176.356 20.3685 176.599 20.902 176.696 21.1929C176.842 21.4839 176.987 21.8719 177.036 22.0174C177.084 22.1629 177.279 22.6478 177.473 23.0358C177.667 23.4238 178.055 24.2967 178.347 25.0242C179.415 27.449 179.706 28.128 180.046 28.9039C180.24 29.3404 180.531 29.9708 180.628 30.3103C180.774 30.6498 180.919 30.9893 180.968 31.0378C181.017 31.0863 181.162 31.4257 181.356 31.8622C181.551 32.2987 181.745 32.7836 181.89 33.0746C182.327 34.0445 182.327 34.0445 182.182 34.481C182.084 34.8205 180.919 37.1483 180.191 38.4577C179.657 39.4277 178.881 40.9796 178.832 41.1735L178.784 41.3675L180.143 41.416C180.871 41.4645 181.89 41.4645 182.327 41.4645H183.152L183.395 40.9796C183.832 40.2036 186.017 35.8874 186.356 35.0145C186.551 34.578 186.793 34.0445 186.842 33.8991C187.133 33.3171 188.347 30.5043 188.978 28.9524C189.123 28.5644 189.366 28.0795 189.463 27.8855C189.56 27.643 189.803 27.1095 189.949 26.6731C190.094 26.2366 190.288 25.8486 190.337 25.8001C190.385 25.7516 190.58 25.2667 190.822 24.7332C191.648 22.5993 191.987 21.8719 192.084 21.6294C192.133 21.4839 192.376 21.0475 192.521 20.5625C193.152 18.9621 193.638 17.8952 193.881 17.3617C194.269 16.5858 194.415 16.6343 192.133 16.6343C189.9 16.6343 189.851 16.6343 189.366 17.1192C189.026 17.4587 188.881 17.7497 188.25 19.3986C188.055 19.835 187.861 20.3685 187.764 20.514C187.424 21.2414 186.599 23.4238 185.58 26.2366C184.949 27.934 184.803 28.3219 184.754 28.3704C184.706 28.4189 184.415 27.7885 183.881 26.4306C183.686 25.8486 183.347 24.9757 183.152 24.4907C182.958 24.0057 182.764 23.4238 182.667 23.2298C182.57 23.0358 182.424 22.5993 182.279 22.2114C181.551 20.2715 180.58 17.7982 180.434 17.4587C180.385 17.3132 180.191 17.0707 179.997 16.9252L179.706 16.6343H177.279C175.628 16.5858 174.851 16.5858 174.851 16.6343ZM146.939 20.2715C148.444 20.805 149.512 22.2114 149.512 23.6663V23.9088H145.677H141.842L141.89 23.6178C142.23 21.096 144.657 19.4956 146.939 20.2715Z" fill="#030510"/>
<path fill-rule="evenodd" clip-rule="evenodd" d="M17.7184 0.194046C17.7184 0.339536 17.8155 0.533522 18.1068 0.727508C18.5437 1.16398 18.5437 1.21247 18.0583 1.60045C16.9417 2.42489 15.0485 2.86136 13.932 2.52188C13.5437 2.37639 13.835 2.71587 14.4175 3.00685L15 3.29783L14.8058 3.44332C14.2718 3.87979 12.9126 4.21926 11.6505 4.21926C11.2136 4.21926 10.8252 4.26776 10.8252 4.31626C10.7767 4.41325 11.4078 4.70423 12.0874 4.80122C13.0583 4.99521 12.6214 5.23769 11.3107 5.23769C10.9223 5.23769 10.5825 5.28619 10.5825 5.33469C10.5825 5.48018 11.165 6.01364 11.6505 6.20762C12.1359 6.45011 12.4272 6.78958 12.233 6.83808C12.1845 6.83808 11.9903 6.98357 11.7961 7.17756C10.6796 8.19599 8.05825 8.77795 7.28155 8.14749C6.8932 7.85651 6.79612 8.0505 7.18447 8.38997C7.52427 8.72945 7.86408 8.77795 8.8835 8.77795C9.85437 8.77795 10 8.82644 10 9.02043C10 9.35991 8.68932 10.1843 8.15534 10.1843C7.52427 10.1843 7.91262 10.3783 8.54369 10.3298C9.02913 10.3298 9.2233 10.2813 9.41748 10.1843L9.66019 10.0389L9.46602 10.2813C9.2233 10.6208 8.64078 11.1058 8.49515 11.1058C8.25243 11.1058 7.37864 10.9118 6.74757 10.7178C4.80583 10.1359 3.78641 10.2813 2.28155 11.2998C0.533981 12.5122 0 13.6761 0 16.1009C0 19.9322 1.79612 23.2299 4.95146 25.2183C5.7767 25.7518 5.82524 25.9457 5.24272 26.1397C5.04854 26.1882 4.85437 26.2852 4.80583 26.3337C4.75728 26.3822 4.61165 26.4307 4.46602 26.4792C4.07767 26.5762 4.07767 26.7217 4.46602 26.7702C5.04854 26.8672 5.92233 26.7702 6.40777 26.4792C6.84466 26.2367 7.18447 26.1397 7.18447 26.3337C7.18447 26.5762 6.79612 27.0612 6.45631 27.3036C6.06796 27.5461 6.01942 27.6916 6.31068 27.6916C6.5534 27.6916 6.5534 27.7886 6.16505 28.2736C5.92233 28.5646 5.53398 29.195 5.29126 29.7285C5.04854 30.2619 4.61165 30.9409 4.41748 31.2319C4.2233 31.5229 4.02913 31.7653 4.07767 31.7653C4.17476 31.7653 5.09709 31.1349 5.48544 30.7469C7.13592 29.195 6.31068 31.1349 4.46602 33.1717C4.12621 33.5597 3.83495 33.8992 3.8835 33.9477C3.98058 34.0447 5.24272 33.3172 6.5534 32.3958C7.03884 32.0563 7.23301 31.9593 7.23301 32.1533C7.23301 32.2988 6.99029 32.6383 6.06796 33.5597C5.58252 34.0447 5.29126 34.4326 5.33981 34.4326C5.38835 34.4326 5.48544 34.4326 5.53398 34.3842C6.16505 33.8992 6.79612 33.8507 6.79612 34.2872C6.79612 34.5781 5.58252 35.5966 4.66019 36.033C4.32039 36.1785 4.27184 36.324 4.56311 36.2755C4.66019 36.2755 5.14563 36.1785 5.63107 36.13C6.8932 35.9845 8.15534 35.5966 8.39806 35.2571C8.49515 35.1116 8.68932 35.1601 8.73786 35.3541C8.83495 35.6451 7.91262 37.2939 7.28155 38.0214C6.69903 38.7004 7.13592 38.6519 8.4466 37.9244C9.46602 37.3909 9.56311 37.3424 9.12621 37.8274C8.8835 38.0699 8.83495 38.2154 8.83495 38.3124C8.8835 38.5064 8.98058 38.5064 9.12621 38.3124C9.27184 38.0699 9.75728 37.7304 9.95146 37.7304C10.1456 37.7304 10.0971 37.9729 9.56311 39.4763C9.02913 41.0767 9.07767 41.1252 10.1456 39.6218C10.7767 38.7488 11.068 38.6519 10.7767 39.3793C10.6796 39.6218 10.9709 39.5248 11.2136 39.2338C11.5049 38.8458 11.6019 38.8943 11.4078 39.3308C11.2621 39.7188 11.2136 41.0767 11.3592 41.1252C11.4078 41.1252 11.4563 41.0282 11.5049 40.9312C11.6505 40.3007 11.7476 40.6887 11.7961 41.9011C11.8447 42.8226 11.9417 43.1135 12.1845 43.1135C12.3301 43.1135 12.3301 43.065 12.3301 42.5801C12.3301 41.9011 12.4272 41.4162 12.8641 40.3007C13.2039 39.3308 13.3495 39.7188 13.1068 40.9312C12.9126 41.7556 13.2524 42.3861 13.5437 41.8526C13.6408 41.6586 13.6893 41.8526 13.7864 42.9681C13.835 43.7925 13.8835 43.938 13.9806 43.8895C14.0291 43.8895 14.1262 43.7925 14.1262 43.647C14.1748 43.356 14.5146 42.1921 14.7087 41.9011C14.9515 41.4647 15.2427 42.0951 15.3884 43.3075C15.534 44.423 16.165 46.2173 16.4078 46.2173C16.4563 46.2173 16.5049 45.9263 16.5049 45.5869C16.5049 44.229 16.8447 42.8226 17.1359 42.8226C17.4757 42.8226 18.4466 44.8594 18.6893 45.9263C18.9806 47.4297 19.0291 47.6237 19.1262 47.5752C19.2718 47.5267 19.4175 46.7508 19.466 45.8778C19.5631 44.5684 19.6117 44.5199 20 45.1019C20.4369 45.7809 20.7282 46.7023 21.0194 48.1572C21.1165 48.7392 21.4563 48.0602 21.4563 47.2358C21.4563 46.8963 21.5049 46.5568 21.5534 46.5083C21.7961 46.1203 22.7184 47.9632 22.8641 49.2241C22.9126 49.5636 22.9612 49.8546 22.9612 49.9031C23.0583 50.0001 23.1553 49.8061 23.1553 49.5636C23.1553 49.4181 23.2039 49.0786 23.2524 48.8361C23.301 48.5452 23.3495 48.1572 23.3495 47.8662C23.3495 47.1873 23.4466 46.5083 23.5437 46.5083C23.6408 46.5083 24.5146 48.3027 24.5146 48.4967C24.5146 49.2241 24.8058 49.7091 25.0971 49.5151C25.2427 49.4181 25.2913 49.4181 25.534 49.5636C25.9223 49.7576 26.0194 49.6121 26.0194 48.9816C26.0194 48.3512 26.5534 46.8963 26.8932 46.6053C27.1359 46.4113 27.1845 46.6538 27.1845 47.5752C27.1845 48.4482 27.4272 49.8061 27.6214 49.8061C27.6699 49.8061 27.6699 49.6121 27.6699 49.4181C27.6699 48.9331 27.8155 48.3997 28.301 47.4782C28.8835 46.3143 29.0291 46.3143 29.2233 47.4782C29.3689 48.5452 29.6602 48.7391 29.7087 47.8177C29.8544 46.5083 30.9709 43.9865 30.9709 45.0534C30.9709 45.3444 31.1165 46.0233 31.3592 47.3327C31.4563 47.7692 31.6019 47.7207 31.6505 47.1873C31.7476 46.0233 32.0874 45.1989 33.0583 43.3075L33.3495 42.7256L33.6893 43.3075L34.0291 43.8895L34.0777 45.0534C34.1262 46.3143 34.1262 46.3628 34.5146 45.7809C34.8058 45.2959 34.9515 44.9079 35.1456 43.744C35.3398 42.7256 35.4854 42.1436 35.6796 41.8526C35.7767 41.6586 35.9223 41.8526 36.4078 43.2105C36.699 44.035 36.8447 43.841 36.9903 42.4831C37.0388 41.9011 37.1359 41.8041 37.3301 42.0466C37.5243 42.2891 37.5243 42.0951 37.4757 41.5132C37.3786 40.8827 37.3786 40.1068 37.4757 39.8643C37.5728 39.5733 38.301 41.5132 38.301 42.1436C38.301 42.6771 38.3981 42.9196 38.5437 42.9681C38.6893 43.0165 38.7864 42.6286 38.7864 41.6586C38.7864 40.7857 38.8835 40.5917 39.0777 40.9312C39.466 41.5132 39.5631 40.2522 39.2233 39.2823C39.0777 38.8943 39.1748 38.8943 39.6117 39.2823L39.9029 39.5733L39.8544 39.2338C39.7573 38.7488 39.9029 38.7973 40.3398 39.3308C40.534 39.5733 40.7282 39.8158 40.7282 39.8643C40.7767 39.9128 40.9223 40.1068 41.0194 40.3492C41.6505 41.3192 41.4078 40.3977 40.6796 38.6519C40.3884 37.9729 40.4854 37.6334 40.9223 37.9729C41.068 38.0699 41.2621 38.1669 41.4078 38.2154L41.6505 38.2639L41.4078 37.9729C40.9709 37.4879 41.068 37.2455 41.5534 37.5364C43.0097 38.5064 43.9806 38.7973 43.3495 38.0699C42.767 37.3424 41.699 35.2571 41.8447 35.1116C41.9417 35.0146 42.7184 35.3541 43.4466 35.7421C43.7379 35.8875 45.3884 36.421 45.7767 36.4695C46.2136 36.518 46.2621 36.3725 45.8738 36.13C45.6311 35.9845 45.1456 35.4996 44.2718 34.5296C43.7864 33.9962 43.7864 33.9477 44.6602 34.3842C45.5825 34.8206 45.5825 34.7721 44.8058 33.9962C43.6408 32.8323 42.9126 31.5229 43.835 32.2988C44.6602 32.9777 46.7476 34.2387 46.8447 34.1417C46.8932 34.0932 46.5534 33.7537 46.1165 33.3657C44.5631 31.8623 43.5922 29.7285 45 30.9409C45.7767 31.5714 46.6019 32.1533 46.6019 32.0563C46.6019 32.0078 46.4563 31.7653 46.2621 31.4744C46.068 31.1834 45.7767 30.7954 45.6796 30.6499C45.5825 30.4559 45.2427 29.971 44.9515 29.5345C44.6602 29.098 44.3204 28.5646 44.1748 28.3706C43.835 27.9341 43.835 27.9341 44.2233 27.9341C44.6602 27.9341 44.7087 27.7886 44.3689 27.5946C43.8835 27.3521 43.4951 26.8672 43.4951 26.5277C43.4951 26.4307 43.5437 26.4307 43.7379 26.5277C44.3689 26.8672 46.3592 26.9157 45.9223 26.5762C45.8738 26.5277 45.0971 26.1882 45.0485 26.1882C45 26.1882 44.8544 26.0912 44.6602 25.9942L44.3204 25.8003L44.8058 25.5093C49.7573 22.5025 51.7961 15.2765 48.6893 12.0272C47.233 10.5238 45.7282 10.0874 43.6408 10.6693C41.9903 11.1058 41.8932 11.1058 41.4078 10.9118C40.7282 10.6208 40.9709 10.4753 41.699 10.7178C42.233 10.8633 42.7184 10.8633 42.7184 10.7178C42.7184 10.6693 42.6214 10.5723 42.4272 10.5238C41.8932 10.4268 41.4563 10.1843 41.0194 9.79637C40.4854 9.31141 40.4854 9.26291 41.1651 9.16592C42.3301 9.06892 43.5437 8.72945 43.5437 8.53546C43.5437 8.43847 43.4951 8.43847 42.9612 8.58396C41.2621 8.72945 39.7087 8.29298 38.3495 7.17756C37.9126 6.78958 37.8641 6.69259 38.2039 6.5956C38.6408 6.4986 39.5146 5.72266 39.5146 5.43168C39.5146 5.33469 39.4175 5.33469 39.0777 5.33469C38.835 5.33469 38.3981 5.23769 38.1068 5.1407L37.5728 4.94671L38.0583 4.84972C39.8058 4.51024 40 4.26776 38.5922 4.21926C37.0388 4.17077 35.1456 3.44332 35.7767 3.15234C36.7961 2.71587 36.8447 2.52188 35.8252 2.57038C34.9515 2.61888 34.1262 2.47339 33.0583 1.93992C32.6699 1.74594 32.1845 1.55195 31.9903 1.45496C31.5534 1.26097 31.5534 1.16398 31.9418 0.969992C32.233 0.824502 32.6214 0.291039 32.6214 0.0970526C32.6214 -0.0484372 32.3301 5.93704e-05 31.699 0.291039L31.068 0.582019H29.466C27.9612 0.582019 27.8155 0.582019 27.0388 0.339536C25.8738 5.93704e-05 23.4466 0.048556 22.0388 0.436529C20.9709 0.727508 19.1262 0.582019 18.3495 0.145549C17.7184 -0.0484372 17.7184 -0.0484372 17.7184 0.194046ZM21.068 3.34633C22.1845 3.34633 22.4272 3.39482 22.6699 3.54031C23.3495 3.87979 23.3495 4.17077 22.6699 3.83129C22.1359 3.54031 21.6019 3.58881 21.0194 3.92828C20.4854 4.21926 20.534 4.31626 21.4563 4.55874C22.233 4.75273 23.2524 5.33469 23.1553 5.48018C23.1068 5.57717 22.5243 5.38318 22.3301 5.23769C22.0388 4.99521 19.9515 4.60724 18.932 4.60724C18.3495 4.60724 16.3107 4.41325 16.2621 4.36475C16.1165 4.21926 16.4078 4.17077 17.5728 4.12227C19.3204 4.12227 20.2913 3.83129 19.4175 3.63731C18.3495 3.34633 18.0097 3.24933 18.1068 3.15234C18.1553 3.05535 18.3495 3.05535 18.9806 3.20084C19.5146 3.29783 20.1942 3.34633 21.068 3.34633ZM32.233 3.15234C32.3301 3.29783 31.9903 3.39482 31.2136 3.54031C30.1456 3.7343 30.1456 3.78279 31.068 3.92828C31.4078 3.97678 32.1845 4.07377 32.8155 4.12227C33.8835 4.17077 34.1262 4.21926 34.0291 4.36475C33.9806 4.41325 31.8447 4.65573 31.2136 4.65573C30.1456 4.65573 28.301 5.04371 27.5728 5.43168C27.1845 5.62567 26.9417 5.67416 26.9417 5.52867C26.9417 5.43168 27.9126 4.89822 28.4466 4.70423C28.6893 4.60724 29.0291 4.51024 29.2233 4.41325C29.6117 4.26776 29.6602 4.07377 29.3689 3.87979C29.0777 3.6858 27.9126 3.7343 27.4272 3.92828C27.0874 4.07377 27.0388 4.07377 26.9417 3.97678C26.7476 3.78279 27.2816 3.58881 28.3981 3.54031C30 3.39482 31.9903 3.20084 31.9903 3.20084C32.0874 3.05535 32.1845 3.05535 32.233 3.15234ZM17.1845 6.11063C17.6214 6.15913 17.5728 6.25612 17.0874 6.35312C16.8447 6.40161 16.5049 6.4986 16.3592 6.5471C16.1651 6.64409 15.9223 6.69259 15.8252 6.69259C15.6796 6.69259 15.534 6.78958 15.4369 6.88658C15.3398 6.98357 15.0485 7.12906 14.8058 7.22605C13.932 7.46854 12.9612 8.14749 11.1165 9.89337C10.6796 10.2813 10.2913 10.5723 10.2427 10.5723C10.1942 10.5723 10.3398 10.4268 10.534 10.2328C10.7282 10.0389 11.068 9.69938 11.3107 9.4084C11.5049 9.11742 11.7961 8.77795 11.9417 8.63246C12.233 8.34148 12.3301 8.0505 12.0874 8.19599C11.9903 8.24448 11.8447 8.29298 11.6505 8.29298C11.165 8.34148 11.4078 8.14749 12.1359 7.85651C12.5243 7.71102 13.0097 7.46854 13.2039 7.37154C13.3981 7.27455 13.6893 7.17756 13.7864 7.12906C14.5146 6.98357 14.5631 6.74109 13.8835 6.69259C13.3495 6.64409 12.9126 6.45011 12.9612 6.25612C12.9612 6.20762 13.4466 6.20762 14.2233 6.20762C14.9029 6.20762 15.7282 6.20762 16.068 6.15913C16.8447 6.06214 16.8447 6.06214 17.1845 6.11063ZM36.5049 6.15913C37.767 6.15913 37.767 6.35311 36.5534 6.64409C35.7767 6.83808 35.7767 7.17756 36.6019 7.17756C36.9417 7.17756 38.2524 7.71102 38.5922 8.002L38.835 8.24448L38.5922 8.34148C38.2524 8.43847 38.2524 8.53546 38.7379 9.02043C39.9029 10.2813 40.2427 10.6208 40.1456 10.6208C40 10.6208 39.6117 10.3298 38.5922 9.4569C36.7476 7.80801 34.8544 6.69259 33.301 6.45011C32.1845 6.25612 32.6699 6.11063 34.2718 6.20762C35.0485 6.15913 36.0194 6.15913 36.5049 6.15913ZM20.3398 6.93507C20.7767 7.08056 20.4369 7.17756 19.2718 7.17756C18.5922 7.17756 18.0583 7.22605 17.767 7.32305C16.9417 7.56553 16.6019 7.42004 17.1845 7.08056C17.7184 6.78958 19.7573 6.69259 20.3398 6.93507ZM32.6214 6.93507C33.2039 7.08056 33.5922 7.32305 33.5437 7.46854C33.4951 7.61403 33.2039 7.61403 32.767 7.42004C32.4272 7.27455 32.233 7.22605 30.9223 7.22605C29.4175 7.22605 29.2718 7.17756 29.5631 7.03207C30.0971 6.74109 31.7961 6.69259 32.6214 6.93507ZM19.3204 8.002C19.466 8.0505 19.6117 8.19599 19.6602 8.34148C19.7087 8.48697 19.8544 8.63246 20.0485 8.72945C20.3883 8.87494 20.3884 8.97193 20.0971 8.97193C19.8058 8.97193 19.2233 9.21441 18.932 9.4084C18.7864 9.50539 18.6408 9.60239 18.5922 9.60239C18.5437 9.60239 18.2524 9.84487 17.9126 10.0874C17.6214 10.3783 17.233 10.6693 17.0874 10.8148C16.068 11.7362 15.9223 11.4938 16.8447 10.4753C17.233 10.0389 17.5243 9.69938 17.5243 9.65088C17.5243 9.4569 17.2816 9.60239 16.9903 9.94186C16.3592 10.6693 14.9515 11.3968 13.3981 11.8332C12.5728 12.0272 11.068 12.1727 11.068 11.9787C11.068 11.8817 11.165 11.8817 11.5049 11.9302C12.2816 12.0272 15.8738 10.4753 16.3592 9.89337C16.3592 9.84487 16.5534 9.74788 16.699 9.60239C16.8932 9.4569 17.0388 9.26291 17.1359 9.11742C17.1845 8.97193 17.3786 8.77795 17.4757 8.72945C17.8155 8.53546 17.7184 8.43847 17.1845 8.48697C16.699 8.53546 16.1651 8.72945 15.3884 9.06893C14.7573 9.35991 14.5146 9.35991 14.9029 9.06893C16.0194 8.19599 18.301 7.66252 19.3204 8.002ZM32.6699 8.002C33.1553 8.0505 33.3981 8.14749 33.6408 8.29298C33.7864 8.38997 33.9806 8.48697 34.0291 8.48697C34.0777 8.48697 34.1262 8.53546 34.1262 8.58396C34.1262 8.68095 33.4951 8.68095 33.0583 8.58396C32.6699 8.48697 32.2816 8.63246 32.6214 8.72945C32.6699 8.72945 32.8641 8.92344 33.0583 9.06893C33.4951 9.50539 34.2718 9.94186 35.8738 10.7178C36.6019 11.1058 37.233 11.4453 37.2816 11.4938C37.3301 11.5423 37.3786 11.5907 37.4757 11.5907C37.5728 11.5907 37.767 11.6877 37.9126 11.8332C38.2039 12.0272 38.2524 12.0757 38.6893 12.0272C39.0777 11.9787 39.1748 12.0272 39.1262 12.0757C39.0777 12.2212 38.1068 12.1727 37.7184 12.0272C37.5728 11.9787 37.2816 11.8817 37.0874 11.8817C36.5534 11.7847 35.4369 11.2513 33.8835 10.2813C33.0097 9.74788 32.7184 9.84487 33.3495 10.5238C34.2233 11.4453 34.0777 11.6392 33.1553 10.8148C32.8155 10.5238 32.3301 10.1359 32.0388 9.94186C31.4563 9.55389 31.1165 9.4569 31.5049 9.79637C32.2816 10.4753 32.3301 10.8633 31.5534 10.3298C30.9223 9.89337 30.6796 9.84487 30.1942 9.99036C30 10.0389 29.7087 10.0874 29.3689 10.0389C28.9806 9.99036 28.7864 10.0389 28.5922 10.1358C28.0583 10.3783 27.8641 10.2813 28.2039 9.89337C28.4951 9.60239 29.2233 9.4084 30.2427 9.4569C31.3107 9.50539 31.3107 9.11742 30.2427 9.02043C29.6117 8.97193 29.7573 8.63246 30.3883 8.63246C30.8252 8.63246 30.8738 8.58396 30.6311 8.43847C30.1942 8.09899 31.3107 7.85651 32.6699 8.002ZM23.4951 9.06893C23.6893 9.4569 23.6408 9.69938 23.4466 9.50539C23.2524 9.4084 23.0583 8.87494 23.1068 8.77795C23.1553 8.68095 23.3981 8.82644 23.4951 9.06893ZM27.0388 9.06893C26.9903 9.4084 26.7961 9.60239 26.699 9.50539C26.6505 9.4569 26.6505 9.31141 26.7476 9.11742C26.9417 8.72945 27.1359 8.68095 27.0388 9.06893ZM35.0485 8.92344C35.0485 9.02043 35 9.02043 34.9029 8.97193C34.6602 8.92344 34.6117 8.77795 34.8544 8.77795C34.9515 8.82644 35.0485 8.87494 35.0485 8.92344ZM21.4078 9.60239C21.6019 9.69938 21.8932 9.84487 21.9417 9.94186C22.0388 10.0389 22.1359 10.1843 22.1845 10.2328C22.4272 10.4753 22.233 10.4753 21.6019 10.1843C21.068 9.94186 20.8252 9.94186 20.4854 10.1358C20.3884 10.1843 20.2913 10.1843 20.0485 10.0389C19.6602 9.79637 19.6117 9.79637 18.8835 10.1843C18.1553 10.5723 18.0097 10.5723 18.301 10.3298C18.3981 10.2328 18.4951 10.0874 18.4951 10.0874C18.5437 9.50539 20.2913 9.21441 21.4078 9.60239ZM21.7961 10.9118C22.2816 11.2028 22.7184 11.5907 22.7184 11.7362C22.7184 11.8817 22.3301 11.8332 22.1845 11.6877C21.7961 11.2998 20.2427 10.8633 19.8544 11.0088C19.6602 11.1058 19.7087 11.3483 19.9029 11.3483C20.1942 11.3483 20.5825 11.4938 20.5825 11.5907C20.5825 11.6392 20.4369 11.6392 20.1456 11.6392C19.8544 11.5907 19.7087 11.5907 19.6117 11.6877C19.4175 11.8332 18.4466 11.9302 18.4466 11.7847C18.5437 10.8633 20.7282 10.2813 21.7961 10.9118ZM30.2427 10.7178C30.4854 10.7663 30.7767 10.9118 30.8738 11.0088C30.9709 11.1058 31.1165 11.1543 31.2136 11.1543C31.3592 11.1543 32.2816 12.0272 32.2816 12.1242C32.2816 12.2212 31.9903 12.1727 31.7476 12.0272C31.6019 11.9302 31.3592 11.8332 31.0194 11.7847C30.3884 11.7362 30 11.2998 30.5825 11.2998C30.8252 11.2998 30.7767 11.1543 30.534 11.0573C29.9029 10.8633 28.932 11.0573 28.3981 11.3968C27.6214 11.8817 27.1845 11.8817 27.767 11.3483C27.9612 11.1543 28.1553 11.0088 28.2039 11.0088C28.2524 11.0088 28.3981 10.9118 28.4951 10.8148C28.6893 10.6693 29.0291 10.5723 29.7087 10.5238C29.7573 10.5723 30 10.6208 30.2427 10.7178ZM45.9709 10.8148C47.233 11.2028 48.835 12.6577 49.1748 13.7246C49.6602 15.131 49.466 17.7498 48.835 19.3502C48.4951 20.2231 48.3981 20.4171 47.9612 21.0961C46.5534 23.3754 43.5922 26.0427 43.5922 25.0243C43.5922 24.9758 43.8835 24.6848 44.2233 24.4424C44.9029 23.9089 45.0971 23.6664 45.2913 23.0359C45.3884 22.6965 45.4854 22.5995 46.1651 22.1145C47.0388 21.4841 47.4757 21.0961 47.5728 20.8051C47.6699 20.4656 47.5728 20.4656 47.1845 20.7566C47.0388 20.8536 46.9903 20.8536 46.7961 20.7081C46.5534 20.5141 46.5534 20.5141 46.4563 20.7081C45.8738 21.5326 45.5825 21.872 45.2427 22.1145C44.9515 22.357 44.8058 22.5025 44.5631 22.9875C44.0777 24.0059 43.2039 24.6363 43.4951 23.7149C43.6408 23.3269 43.5437 23.2299 43.301 23.4724C43.1068 23.6664 43.0097 23.5694 43.2039 23.3269C43.301 23.2299 43.301 23.0844 43.2039 22.842C43.0583 22.3085 43.0583 22.26 43.7379 21.6295C44.6117 20.7566 44.5146 20.4656 43.5437 21.1446C42.5728 21.8235 42.3301 21.3871 43.301 20.7081C45.6311 19.0592 45.9223 16.3434 43.932 15.1795C43.0097 14.646 42.9612 14.5975 43.1553 14.4036C43.4951 14.0641 44.6602 14.743 45.4369 15.81C46.068 16.6344 46.0194 15.8585 45.3884 14.8885C44.9515 14.2581 45 14.1611 45.9709 13.6761C47.2816 12.9972 48.1068 13.3851 48.6893 15.034C49.0291 15.9069 49.1262 15.8584 49.0777 14.937C49.0291 13.9671 48.7379 13.3366 48.1553 12.7062C46.7961 11.2998 45.1456 11.6877 42.4757 14.1126C41.5534 14.937 41.3592 14.9855 41.068 14.3551C40.5825 13.0941 41.2136 11.6392 42.4272 11.1543C43.8835 10.6208 45 10.5238 45.9709 10.8148ZM6.16505 11.0573C8.34951 11.3483 9.41748 12.7062 9.02913 14.549L8.98058 14.84L7.86408 13.9671C4.85437 11.5423 3.68932 11.2513 2.3301 12.6577C1.40777 13.6276 1.01942 14.5005 1.16505 15.3735C1.26214 15.7615 1.31068 15.713 1.5534 15.1795C2.28155 13.2396 3.68932 12.7547 4.95146 13.9186C5.24272 14.1611 5.24272 14.3066 4.90291 14.646C4.46602 15.1795 4.36893 15.4705 4.41748 16.0039C4.41748 16.2464 4.66019 16.1494 4.90291 15.8585C5.87379 14.549 6.74757 14.0641 7.28155 14.549C7.52427 14.743 7.47573 14.84 6.69903 15.228C4.56311 16.3434 4.41748 18.5258 6.35922 20.6111C7.13592 21.4356 7.3301 21.969 6.65049 21.3386C6.45631 21.1446 6.21359 20.9991 6.11651 20.9991C6.01942 20.9991 5.87379 20.9021 5.72816 20.8051C5.29126 20.4656 4.90291 20.2716 4.90291 20.4656C4.90291 20.6111 5.24272 20.9506 5.92233 21.4356C6.45631 21.8235 6.65049 22.066 6.60194 22.3085C6.60194 22.357 6.65049 22.551 6.74757 22.6965C6.8932 22.9875 6.8932 22.9875 6.74757 23.0844C6.60194 23.1814 6.60194 23.2299 6.69903 23.3754C6.94175 23.8604 6.35922 24.3454 6.01942 23.9574C5.92233 23.8604 5.72816 23.6664 5.58252 23.5209C5.43689 23.3754 5.29126 23.0844 5.19417 22.8905C5.09709 22.648 3.49515 20.8536 3.34951 20.8536C3.34951 20.8536 3.25243 20.9021 3.15534 20.9506C2.96117 21.0961 2.81553 21.0476 2.6699 20.7081C2.52427 20.4171 2.28155 20.3201 2.28155 20.5626C2.28155 20.8051 2.62136 21.2416 3.20388 21.7265C3.49515 21.969 3.8835 22.26 3.98058 22.357C4.07767 22.454 4.36893 22.842 4.61165 23.2299C4.90291 23.7149 5.09709 24.0059 5.29126 24.1029C6.21359 24.6363 6.69903 25.7518 5.82524 25.2668C2.86408 23.7634 0.339806 19.7382 0.339806 16.6829C0.339806 15.519 0.92233 13.3366 1.40777 12.8032C2.6699 11.2513 3.98058 10.7663 6.16505 11.0573ZM29.9515 11.5423C29.9515 11.5907 29.9029 11.6392 29.8544 11.6877C29.7087 11.8332 30.5825 12.2212 30.9709 12.2212C31.3107 12.2212 31.6019 12.3667 31.6019 12.5607C31.6019 12.6092 31.3107 12.6092 30.9709 12.6092C30.3884 12.6092 30.3398 12.6092 30.1942 12.8032C30 13.0941 29.5631 13.2881 29.2718 13.2396L29.0291 13.1911L29.2718 12.9972L29.5146 12.8032H29.2718C29.0291 12.8032 28.835 12.9487 28.6893 13.3366C28.5922 13.5306 28.5437 13.5791 28.301 13.5791C27.9612 13.5791 27.8155 13.4336 27.9612 13.2396C28.2039 12.8517 28.0583 12.7547 27.6214 12.9487C27.233 13.1426 26.9903 13.0456 27.233 12.8032C27.3301 12.7062 27.4757 12.6577 27.5243 12.6577C27.5728 12.6577 27.6699 12.6092 27.8155 12.5122C27.9126 12.4152 28.1553 12.3182 28.3495 12.3182C28.4951 12.2697 28.6893 12.2212 28.7379 12.1242C28.7864 12.0757 28.932 11.9787 29.1262 11.9787C29.2718 11.9302 29.466 11.8332 29.5631 11.7362C29.7087 11.4938 29.9515 11.3968 29.9515 11.5423ZM18.2524 12.0757C18.1068 12.1727 17.8155 12.2212 17.8155 12.1242C17.8155 12.1242 17.9126 12.0272 18.0583 11.9787C18.301 11.8817 18.4466 11.9302 18.2524 12.0757ZM21.4563 12.0757C21.5534 12.1242 21.7476 12.1727 21.8447 12.1727C22.0388 12.1727 23.0097 12.6577 23.0583 12.8032C23.1068 12.9002 22.6214 12.9487 22.5728 12.8032C22.5243 12.7547 22.4272 12.7062 22.3301 12.7062C22.0874 12.7062 22.0874 12.8032 22.233 12.9972C22.767 13.5791 22.8641 13.8216 22.6214 13.8216C22.4272 13.8216 21.8447 13.4821 21.8447 13.3851C21.8447 13.2396 21.699 13.1426 21.6019 13.2396C21.4078 13.4336 20 12.9487 19.9029 12.6577C19.8544 12.5607 19.7087 12.5122 19.3689 12.5122C18.6893 12.5122 18.6893 12.2212 19.3689 12.0757C19.5146 12.0272 19.8544 11.9787 20.1456 11.9302C20.6311 11.8817 21.1165 11.9302 21.4563 12.0757ZM27.3301 12.0272C27.2816 12.0757 27.1359 12.1242 27.0874 12.1242C26.9417 12.0272 27.0874 11.9302 27.2816 11.9302C27.4272 11.8817 27.4272 11.8817 27.3301 12.0272ZM15.1456 12.6577C15.0485 12.7547 14.9029 12.8517 14.9029 12.8517C14.8058 12.8517 14.2233 13.2396 13.932 13.5306C13.2524 14.1611 12.4272 14.84 12.1845 14.8885C12.0388 14.937 11.8932 15.0825 11.8447 15.1795C11.7476 15.422 11.068 15.7615 10.9223 15.713C10.8252 15.6645 10.8738 15.616 11.0194 15.4705L11.2136 15.2765L10.8252 15.325C10.6311 15.3735 10.2913 15.3735 10.0971 15.3735C9.90291 15.3735 9.70874 15.3735 9.61165 15.422C9.51456 15.4705 9.46602 15.4705 9.36893 15.325C9.27184 15.1795 9.32039 15.1795 9.51456 15.131C9.66019 15.0825 9.95146 15.034 10.1942 14.9855C10.4369 14.937 10.7282 14.8885 10.8738 14.8885C11.0194 14.8885 11.165 14.84 11.2136 14.7915C11.2621 14.743 11.5049 14.5975 11.699 14.549C11.9417 14.5005 12.1359 14.4036 12.1359 14.3551C12.1845 14.2581 13.7864 13.1911 14.4175 12.8517C14.6602 12.7062 14.8544 12.5607 14.8058 12.5607C14.7573 12.5607 14.8544 12.5122 14.9515 12.5122C15.3398 12.3667 15.3398 12.4152 15.1456 12.6577ZM35.3398 12.5607C35.4854 12.6092 35.8738 12.8517 36.2136 13.0941C36.5534 13.3366 37.0874 13.6276 37.3301 13.7731C37.5728 13.9186 37.9126 14.1611 38.0583 14.2581C38.2039 14.4036 38.3981 14.5005 38.5437 14.549C39.0777 14.743 40.3884 15.131 40.534 15.131C40.6311 15.131 40.7282 15.1795 40.8252 15.228C40.9223 15.325 40.8252 15.325 40.2427 15.325C39.6602 15.325 39.5631 15.325 39.3689 15.519C39.1748 15.713 39.1262 15.713 38.9806 15.616C38.8835 15.5675 38.7379 15.422 38.5922 15.325C38.4951 15.228 37.8155 14.6945 37.0874 14.0641C36.3592 13.4336 35.5825 12.8517 35.3884 12.7547C34.8544 12.5607 34.8544 12.3182 35.3398 12.5607ZM27.8155 13.9671C27.767 14.0641 27.6699 14.1126 27.5728 14.1126C27.3301 14.0641 27.3301 13.9186 27.5728 13.7731C27.8155 13.6276 27.9612 13.7246 27.8155 13.9671ZM22.9126 14.4036C24.5146 14.646 27.6214 14.549 28.2524 14.2096C28.3495 14.1611 28.4466 14.2096 28.5437 14.3551C28.6893 14.549 28.7864 14.5975 29.1262 14.646C29.3689 14.646 29.6602 14.743 29.8058 14.84C30.2427 15.131 30.534 15.228 31.8447 15.422C32.1845 15.4705 32.5728 15.8585 32.5728 16.1009C32.5728 16.3434 32.4272 16.2949 31.5534 16.0039C30.6796 15.713 30.5825 15.713 30.4369 15.9554C30.2913 16.1494 30.2913 16.1494 28.9806 16.0039C27.6214 15.9069 27.1359 15.9069 27.1359 16.1009C27.1359 16.2464 26.9417 16.3919 26.5049 16.4889C26.3107 16.5374 26.1165 16.6344 26.1165 16.6344C26.068 16.7799 26.4563 16.7799 26.8932 16.5859C27.1359 16.4889 27.5728 16.4404 27.767 16.4404C27.9612 16.4404 28.4466 16.3919 28.7864 16.3434C29.5146 16.2464 30.9709 16.4404 31.699 16.7799C31.7961 16.8284 32.0874 16.9739 32.3786 17.0709C33.9806 17.7498 34.7087 18.2348 35.0485 18.7197C35.2913 19.1077 35.4369 19.2047 35.5825 19.2047C35.7767 19.2047 36.0194 19.5442 36.0194 19.8837C36.0194 20.3201 36.2621 20.3686 36.4078 19.9807C36.4563 19.8837 36.5534 19.7867 36.6019 19.7867C37.3786 19.7867 35.2427 17.4103 34.3689 17.2649C34.0777 17.2164 33.932 17.0224 34.0777 16.9254C34.8058 16.4889 37.0874 18.4773 37.1845 19.6897C37.1845 19.9322 37.233 20.2231 37.2816 20.3686C37.3786 20.7566 37.3786 20.8051 37.233 20.7566C37.0874 20.7081 37.0874 20.7566 37.0388 20.9991C36.9903 21.1446 36.8932 21.4356 36.7476 21.6295C36.4078 22.1145 36.3107 22.4055 36.068 23.6664C35.9709 24.2969 35.7767 25.0243 35.6796 25.2668C35.5825 25.5093 35.534 25.8003 35.534 25.9457C35.534 26.2852 35.3884 26.5762 35.1942 26.6247C35.0485 26.6732 34.8544 27.0127 34.466 27.7886C33.5437 29.5345 33.0583 30.1165 32.5728 29.8255C32.4272 29.777 32.233 29.68 32.0874 29.68C31.8447 29.68 31.3107 29.389 31.3107 29.2435C31.3107 29.1465 30.8252 28.8555 30.6796 28.8555C30.534 28.8555 30.5825 29.001 30.8738 29.389C31.2136 29.8255 31.2136 30.068 30.9223 30.0195C30.6311 29.971 30.6796 30.068 31.165 30.6984C31.8447 31.5229 32.1845 32.1533 32.6214 33.6567C32.8155 34.2387 32.8641 35.1601 32.767 35.7906C32.6699 36.324 32.7184 36.5665 32.9126 36.5665C33.3981 36.5665 33.2039 37.6819 32.6214 38.0699C32.5728 38.1184 32.3786 38.2639 32.233 38.3609C31.7961 38.7488 30.7282 39.2823 30.1456 39.3793C29.8544 39.4278 29.466 39.5248 29.2718 39.6218C28.932 39.7188 28.4951 39.7673 25.2427 39.7188C20.9709 39.6703 20.6796 39.6218 19.3689 38.9428C17.767 38.1184 16.3107 36.5665 17.1359 36.5665C17.3786 36.5665 17.4272 36.1785 17.2816 35.6451C16.9903 34.4326 17.9126 31.8138 18.9806 30.6499C19.2233 30.4074 19.2233 30.3589 19.0291 30.1649C18.7864 29.971 18.835 29.874 19.1748 29.4375C19.466 29.0495 19.5631 28.904 19.4175 28.904C19.3204 28.904 18.4466 29.5345 18.4466 29.6315C18.4466 29.777 18.2039 29.8255 18.0583 29.68C17.9126 29.5345 17.9126 29.583 17.7184 29.7285C17.0388 30.3104 15.3884 29.001 15.3884 27.8371C15.3884 27.2552 15.2427 26.9157 14.9515 26.6247C14.7573 26.4307 14.6602 26.2367 14.6117 26.0427C14.5631 25.8488 14.4175 25.2183 14.2718 24.5393C14.1262 23.9089 13.932 23.0359 13.835 22.6965C13.7379 22.3085 13.5922 21.9205 13.5437 21.8235C13.301 21.5326 13.2039 21.2416 13.2039 20.9506C13.2039 20.6111 13.0583 20.5141 12.9612 20.8536C12.9126 20.9991 12.8641 21.0961 12.8155 21.0961C12.6214 21.0961 12.8155 19.8837 13.0097 19.6897C13.0583 19.6412 13.0583 19.5927 13.0583 19.4957C13.0583 18.5743 15.6311 16.4889 16.0194 17.0709C16.1165 17.2164 15.8738 17.4103 15.6796 17.4103C15.3883 17.4103 14.9515 17.7013 14.9515 17.8468C14.9515 17.9923 14.7087 18.1378 14.466 18.1378C14.3689 18.1378 14.2718 18.2348 14.2233 18.3318C14.1748 18.4288 14.0291 18.6713 13.8835 18.8652C13.5437 19.3017 13.4951 19.6897 13.7864 20.0292L13.9806 20.2716L14.1262 19.9807C14.2233 19.7867 14.5146 19.4957 14.7573 19.3017C15 19.1077 15.2913 18.7682 15.3884 18.6228C15.9223 17.7983 19.7573 16.3919 21.068 16.5374C21.3107 16.5859 21.7961 16.6344 22.233 16.6344C22.6699 16.6829 23.2039 16.7799 23.4951 16.8284C23.9806 16.9739 24.3204 16.9739 24.2233 16.7799C24.2233 16.7314 24.0291 16.6829 23.7864 16.6344C23.3981 16.5859 23.1068 16.3919 23.1068 16.1979C23.1068 16.1494 23.0097 16.1009 22.8155 16.1009C22.6699 16.1009 22.2816 16.0524 21.9903 16.0039C21.5534 15.9554 21.4078 15.9554 21.1165 16.0524C20.7282 16.1979 19.7573 16.2464 19.6117 16.0524C19.5146 15.9069 19.0291 15.9069 18.932 16.0039C18.8835 16.0524 18.6408 16.1009 18.3981 16.1494C18.1553 16.1979 17.8641 16.2464 17.7184 16.2949C17.3786 16.3434 17.3786 16.2464 17.767 15.8585C18.0583 15.5675 18.1068 15.519 18.7864 15.422C19.3689 15.325 19.6602 15.2765 20.0971 15.034C20.4369 14.84 20.8252 14.6945 21.068 14.6945C21.3592 14.646 21.5049 14.5975 21.6505 14.452C21.7961 14.3066 21.8932 14.2581 21.9903 14.3066C22.0874 14.2581 22.4757 14.3551 22.9126 14.4036ZM34.466 14.743C35.0485 14.9855 35.1456 15.034 35.0971 15.325C35.0485 15.4705 35.1456 15.5675 35.6796 15.9069C36.1165 16.1979 36.3592 16.4889 36.5534 16.7799C37.0874 17.7013 36.7476 17.6528 35.7767 16.6829C35.4369 16.3434 33.9806 15.519 33.301 15.325C33.1068 15.2765 33.1068 15.034 33.301 15.034C33.3981 15.034 33.3981 14.9855 33.3981 14.8885C33.2524 14.5005 33.6408 14.452 34.466 14.743ZM16.9903 14.84C16.9903 14.937 17.0388 15.0825 17.0874 15.0825C17.233 15.1795 17.0874 15.325 16.165 15.7615C14.8544 16.3919 13.6893 17.2649 13.6893 17.6528C13.6893 17.7013 13.6408 17.7498 13.5437 17.7498C13.301 17.7498 13.7379 16.7799 14.1748 16.3919C14.3204 16.2464 14.6117 16.0039 14.8058 15.8585C15.0971 15.616 15.1942 15.4705 15.1942 15.2765C15.2913 14.6945 16.9903 14.3066 16.9903 14.84ZM22.4272 14.9855C21.4078 15.0825 20.1456 15.422 20.1456 15.5675C20.1456 15.81 21.1165 15.713 21.5049 15.4705C21.699 15.325 21.9417 15.325 24.5631 15.325C27.2816 15.325 27.9612 15.2765 27.3786 15.0825C27.1359 15.034 23.0583 14.937 22.4272 14.9855ZM28.3495 15.034C28.301 15.0825 28.2039 15.131 28.0583 15.131H27.8641L28.0583 15.228C28.1553 15.2765 28.3981 15.3735 28.5922 15.4705C28.9806 15.616 30.3398 15.7615 30.3398 15.6645C30.3398 15.616 30.1456 15.519 29.8544 15.4705C29.6117 15.422 29.2233 15.2765 29.0291 15.228C28.835 15.1795 28.5922 15.0825 28.5437 15.0825C28.4951 14.937 28.3981 14.9855 28.3495 15.034ZM12.9126 15.1795C12.9126 15.228 12.8155 15.3735 12.7184 15.519C12.6214 15.6645 12.3786 15.9554 12.1845 16.1494C11.7961 16.6829 10.7767 17.6043 10 18.1863C9.66019 18.4288 9.2233 18.8167 9.07767 19.0592C8.73786 19.5442 8.73786 19.3987 9.2233 18.2833C9.80583 16.9739 10.4369 16.2949 11.8447 15.616C12.0874 15.519 12.3786 15.325 12.5243 15.228C12.7184 15.034 12.8641 15.034 12.9126 15.1795ZM38.0583 15.4705C38.3495 15.616 38.6408 15.7615 38.6893 15.7615C38.7379 15.7615 38.7864 15.81 38.835 15.8585C38.835 15.9069 39.0291 16.0524 39.2233 16.1494C40.1456 16.5859 41.3592 18.1378 41.5049 19.0592C41.5534 19.3987 41.3107 19.3987 41.1651 19.1077C40.9709 18.7682 40.6311 18.4288 39.7087 17.7983C38.932 17.2649 38.6408 16.9739 38.2524 16.4889C37.9612 16.1494 37.6214 15.713 37.4757 15.616C37.233 15.3735 37.0874 14.9855 37.3301 15.1795C37.4757 15.1795 37.767 15.325 38.0583 15.4705ZM43.3495 16.9254C43.3981 17.0224 43.4951 17.2164 43.5922 17.4103C43.7864 17.7013 43.7864 17.7498 43.6408 17.8468C43.4951 17.9438 43.4951 17.9438 43.4466 17.7498C43.3981 17.6528 43.2524 17.4103 43.1553 17.2164C42.9612 16.8769 42.9126 16.6344 43.1553 16.6829C43.2039 16.7314 43.301 16.8284 43.3495 16.9254ZM7.18447 16.8769C7.18447 16.9254 7.13592 17.1194 7.08738 17.2164C7.03884 17.3133 6.8932 17.6043 6.84466 17.7983C6.69903 18.2348 6.60194 18.2833 6.5534 17.9923C6.50485 17.7498 6.65049 17.4103 6.99029 16.8284C7.08738 16.6829 7.18447 16.6829 7.18447 16.8769ZM20.9223 16.9739C20.534 17.2164 20.8252 17.4103 21.6019 17.4588C22.233 17.5073 22.3786 17.3618 22.0388 17.0709C21.7961 16.8769 21.2136 16.8284 20.9223 16.9739ZM28.3981 16.9739C28.1553 17.1194 28.0097 17.3133 28.1068 17.4103C28.2524 17.5558 29.3689 17.4103 29.466 17.2649C29.7087 16.9739 28.8835 16.7314 28.3981 16.9739ZM8.73786 17.1194C8.78641 17.2649 8.54369 17.7983 8.05825 18.5743C7.76699 19.1077 7.76699 19.1077 7.57282 19.0107C7.18447 18.7682 7.3301 17.8468 7.81553 17.0709C7.86408 16.9254 8.68932 16.9739 8.73786 17.1194ZM41.8447 17.1194C41.9417 17.2164 41.9903 17.3133 41.9903 17.3618C41.9903 17.4103 42.0388 17.4588 42.1359 17.4588C42.233 17.4588 42.233 17.4103 42.233 17.2649C42.1845 16.9739 42.3786 17.0224 42.6699 17.4103C42.9612 17.8468 43.0097 18.6228 42.7184 18.9137C42.5243 19.2047 42.4757 19.1562 42.0874 18.4773C41.4563 17.2649 41.3592 16.6829 41.8447 17.1194ZM22.6699 17.5558C22.4757 17.6528 22.9126 17.7983 23.4951 17.7983C23.835 17.7983 23.9806 17.7498 23.9806 17.7013C23.932 17.4588 22.9126 17.3618 22.6699 17.5558ZM26.6019 17.5073C26.4563 17.5073 26.4078 17.6043 26.4078 17.6528C26.4563 17.7498 27.6214 17.7983 27.7184 17.7013C27.9126 17.5073 27.2816 17.4103 26.6019 17.5073ZM38.0097 19.3502C38.1068 19.5442 38.6893 20.1262 39.2233 20.6596C39.7573 21.1931 40.2427 21.678 40.2427 21.7265C40.2427 21.872 40.0485 21.8235 39.7573 21.581C39.0291 20.9506 38.9806 21.678 39.7087 22.648C39.9515 22.9875 40.2427 23.3754 40.3398 23.5694C40.4369 23.7634 40.5825 23.9089 40.6311 23.9574C40.7282 24.0059 40.7282 24.1514 40.6311 24.1514C40.5825 24.1514 40.2913 23.8604 39.9029 23.5209C39.1262 22.7935 38.7379 22.1145 38.4466 20.9506C38.2039 20.0292 38.1553 19.9322 37.8641 19.5442C37.6214 19.3017 37.5728 18.9622 37.7184 18.9622C37.767 19.0107 37.8641 19.1562 38.0097 19.3502ZM12.4757 19.3987C12.4272 19.4957 12.3301 19.5927 12.2816 19.5927C12.1845 19.5927 12.1845 19.5442 12.2816 19.3502C12.3786 19.2047 12.4272 19.1077 12.4757 19.1562C12.5243 19.2047 12.5243 19.2532 12.4757 19.3987ZM12.0874 19.8837C12.1359 19.9807 11.699 20.9991 11.5049 21.1931C11.4078 21.2901 11.4078 21.3871 11.5049 21.5326C11.6019 21.7265 11.4563 22.2115 11.2621 22.357C11.2136 22.4055 11.165 22.454 11.165 22.551C11.165 22.842 9.80583 24.2484 9.61165 24.1514C9.51456 24.0544 9.56311 23.9574 9.85437 23.6179C11.2136 22.1145 11.7476 20.6111 10.534 21.581C10.2427 21.8235 10.0971 21.872 10.0971 21.678C10.0971 21.5811 11.8932 19.8352 11.9903 19.8352C12.0388 19.7867 12.0874 19.8352 12.0874 19.8837ZM18.835 20.3201C17.5728 20.6111 17.2816 20.8536 16.9903 21.5326C16.8932 21.775 16.7961 22.0175 16.7476 22.066C16.699 22.1145 16.699 22.3085 16.7476 22.5025C16.7961 22.7935 16.7476 22.8905 16.6505 23.0359C16.3592 23.3754 16.5049 23.6664 16.8447 23.4239C16.9417 23.3754 17.1359 23.2784 17.2816 23.2784C17.5243 23.2784 17.6214 23.3269 18.301 23.8119L18.6408 24.0544L20.2427 24.1029C21.1165 24.1514 21.8932 24.1999 21.9903 24.1999C22.233 24.2969 22.233 23.9574 22.0388 23.7149C21.9903 23.6179 21.9417 23.4724 21.9417 23.3754C21.9417 23.2299 21.699 22.939 21.165 22.4055L20.3884 21.6295H19.6602C18.9806 21.6295 18.8835 21.6295 18.5922 21.8235C18.2039 22.066 18.1553 22.066 18.3981 21.678C18.5437 21.4841 18.7379 21.3386 18.9806 21.2416C19.5631 20.9991 19.7087 20.9991 19.9515 21.1446C20.0971 21.1931 20.2913 21.2901 20.3884 21.2901C20.6311 21.2901 21.2136 21.5811 21.3592 21.775C21.4078 21.872 21.5534 21.969 21.699 22.0175C21.9417 22.1145 22.233 22.5995 22.2816 23.0844C22.3786 23.6664 22.5243 23.9574 22.8155 23.9574C22.9612 23.9574 23.0583 24.0059 23.1068 24.1029C23.1553 24.1999 23.2524 24.3454 23.3495 24.4908C23.4466 24.6363 23.5437 24.8788 23.5922 25.1213C23.6893 25.7033 23.7379 25.8003 23.8835 25.8003C24.0777 25.8003 24.2233 25.5578 24.2233 25.1698C24.2233 24.9758 24.2718 24.8303 24.3204 24.7818C24.5146 24.7333 24.466 24.3454 24.2718 24.0059C23.7864 23.1814 23.5437 22.648 23.835 22.8905C24.0291 23.0359 24.0777 22.8905 24.0777 22.3085C24.0777 21.678 23.9806 21.4841 23.6893 21.6295C23.4951 21.7265 23.3495 21.678 23.3495 21.5326C23.3495 21.2901 22.6699 20.6596 22.3786 20.6596C22.1845 20.6596 22.2816 21.0476 22.5243 21.2416C22.6699 21.3871 22.767 21.5326 22.767 21.581C22.767 21.6295 22.4757 21.3871 22.0874 21.0476C20.8252 20.1262 20.2913 19.9807 18.835 20.3201ZM29.4175 20.2716C29.2718 20.3686 28.932 20.6111 28.6408 20.9021C28.3495 21.1446 28.1068 21.3871 28.0583 21.3871C27.9126 21.3871 27.8641 21.1446 28.0097 21.0476C28.0583 20.9991 28.0583 20.9021 28.0583 20.9021C27.9126 20.8051 27.4757 21.0961 27.1845 21.4356C26.9417 21.7265 26.8447 21.8235 26.6505 21.8235C26.2621 21.8235 26.068 22.8905 26.3592 23.3269C26.5534 23.5694 26.5049 23.7634 26.2136 24.2484C25.9223 24.7333 25.8738 24.8303 26.068 24.8788C26.1651 24.9273 26.1651 25.0243 26.1651 25.3153C26.1651 25.7518 26.2621 26.0427 26.4563 26.0427C26.6019 26.0427 26.7476 25.7033 26.7476 25.3638C26.7476 25.2183 26.7961 25.0243 26.8932 24.9758C26.9903 24.8788 27.0388 24.7333 27.0388 24.6363C27.0388 24.4423 27.1845 24.2484 27.3786 24.2484C27.767 24.2484 27.9612 23.9089 27.9126 23.3754L27.8641 22.842L28.3495 22.454C28.5922 22.2115 28.8835 22.066 28.932 22.066C29.0291 22.066 29.1262 22.0175 29.2233 21.9205C29.8058 21.2901 31.6019 21.3871 32.0388 22.066C32.1359 22.26 31.9903 22.26 31.7476 22.066C31.0194 21.5326 29.6602 21.969 28.9806 22.8905C28.835 23.0844 28.5922 23.3754 28.4466 23.5694C28.2039 23.6179 28.1553 23.7634 28.1553 23.9089L28.2039 24.1029H29.8058H31.4078L31.8932 23.8119C32.4757 23.4724 33.0583 23.3269 33.301 23.4724C33.7864 23.7634 33.932 23.4239 33.5437 22.9875C33.3981 22.842 33.301 22.6965 33.301 22.648C33.301 22.5995 33.3981 22.551 33.5437 22.551C33.835 22.551 33.8835 22.357 33.5922 22.2115C33.4466 22.1145 33.3495 21.872 33.2039 21.5326C33.0097 20.9506 32.6214 20.6111 31.7961 20.3201C31.2136 20.1262 29.7573 20.0777 29.4175 20.2716ZM11.7961 22.745C11.7961 23.1329 10.7767 24.6363 10.534 24.6363C10.3884 24.6363 10.3883 24.4908 10.6311 24.2484C10.8738 23.9574 11.4078 22.9875 11.4078 22.7935C11.4078 22.648 11.6505 22.454 11.7476 22.5025C11.7961 22.551 11.7961 22.648 11.7961 22.745ZM19.6602 22.648C19.8058 22.7935 19.7573 22.939 19.5631 23.0844C19.4175 23.1814 19.3689 23.2784 19.4175 23.4239C19.466 23.6664 19.4175 23.6664 19.1262 23.4724C19.0291 23.3754 18.7379 23.3269 18.5437 23.2784C18.1068 23.2299 18.0583 23.0844 18.301 22.7935C18.6408 22.5025 19.3689 22.4055 19.6602 22.648ZM31.8932 22.6965C32.1845 22.939 31.9903 23.4724 31.6505 23.2784C31.5534 23.2299 31.4563 23.2299 31.2136 23.4239C30.7767 23.7634 30.6796 23.6179 30.9223 23.1814C31.0194 22.9875 31.1165 22.745 31.1165 22.6965C31.165 22.5025 31.699 22.5025 31.8932 22.6965ZM30.3398 22.6965C30.4854 22.7935 30.3883 23.0359 30.1456 23.0359C29.9029 23.0359 29.8058 22.939 29.9029 22.745C29.9515 22.5995 30.1456 22.5995 30.3398 22.6965ZM38.835 22.9875C38.932 23.1814 39.1262 23.4724 39.1748 23.6664C39.2718 23.8604 39.4175 24.1029 39.5631 24.2484C39.8058 24.4908 39.8544 24.5878 39.7087 24.5878C39.3689 24.5878 38.301 22.9875 38.4951 22.745C38.5437 22.551 38.6408 22.5995 38.835 22.9875ZM13.0097 24.4424C13.0583 24.5393 13.0097 24.9273 12.9126 25.2668C12.767 25.9942 12.767 26.0912 13.0583 25.8003L13.2524 25.6063V25.8488C13.2524 26.2852 12.3301 27.4006 11.9903 27.3036C11.4563 27.1097 11.4563 25.9457 11.9417 25.4608C12.1359 25.2668 12.4272 24.9273 12.5243 24.6848C12.8155 24.1999 12.9126 24.1514 13.0097 24.4424ZM37.6699 24.6848C37.767 25.0728 38.1068 25.4123 38.7379 25.8972C39.6117 26.5762 39.9515 26.7702 40.4369 27.0127C40.8738 27.2067 41.0194 27.4006 40.7282 27.4006C40.534 27.4006 40.0485 27.2067 39.9029 27.1097C39.8544 27.0612 39.5146 26.8672 39.2233 26.6732C38.4466 26.2367 37.767 25.6063 37.767 25.2668C37.767 25.2183 37.7184 25.1698 37.6699 25.1698C37.6214 25.1698 37.5728 25.1213 37.5728 25.0728C37.5728 25.0243 37.4757 24.8788 37.4272 24.8303C37.3301 24.7333 37.2816 24.5878 37.2816 24.4908C37.2816 24.1999 37.5728 24.2969 37.6699 24.6848ZM27.4757 25.2668C27.3786 25.3638 27.4272 26.0427 27.5728 26.2852C27.767 26.5277 27.767 26.6732 27.5728 26.7702C27.4272 26.8672 27.4272 26.8672 27.5728 26.9642C27.7184 27.0612 27.767 27.0612 27.8641 26.9642C27.9612 26.8672 28.1068 26.8672 28.3495 26.9157C28.7379 26.9642 28.7864 26.9157 28.5437 26.6732C28.3981 26.5277 28.3981 26.5277 28.5437 26.4307C28.6893 26.3337 28.6893 26.2852 28.1553 25.8003C27.7184 25.2183 27.6214 25.1698 27.4757 25.2668ZM22.0874 25.6063C21.4563 26.0427 21.0194 26.6732 21.3592 26.6732C21.4078 26.6732 21.5049 26.6247 21.5534 26.5277C21.6505 26.3337 21.8932 26.4307 21.8932 26.7217C21.8932 26.9157 21.8932 26.9157 22.1359 26.8672C22.2816 26.8187 22.3786 26.8672 22.3786 26.9157C22.3786 27.0612 22.6214 27.0127 22.7184 26.8672C22.8155 26.7217 22.8155 25.7518 22.767 25.5578C22.6214 25.3153 22.4757 25.3638 22.0874 25.6063ZM40.3398 25.8003C40.5825 26.0427 40.5825 26.0912 40.3884 26.0912C40.2427 26.0912 40 25.8003 40 25.6548C39.9515 25.5578 40.1456 25.6063 40.3398 25.8003ZM37.5243 26.0912C37.8155 26.4792 38.835 27.3521 39.0777 27.4491C39.1748 27.4976 39.2233 27.5461 39.2233 27.5946C39.2233 27.6916 38.9806 27.6916 38.7864 27.5461C38.6893 27.4976 38.5922 27.4491 38.5437 27.4491C38.1553 27.4491 37.233 26.6732 37.233 26.3337C37.233 26.2367 37.1845 26.1397 37.1359 26.0427C37.0874 25.9942 37.0388 25.8972 37.0388 25.8488C36.9903 25.6063 37.2816 25.7518 37.5243 26.0912ZM10.0971 25.8488C10.0971 25.9457 9.90291 26.0912 9.80583 26.0912C9.6602 26.0912 9.6602 25.8972 9.80583 25.8003C9.95146 25.7518 10.0971 25.8003 10.0971 25.8488ZM8.15534 26.3337C8.15534 26.3822 8.1068 26.4792 8.05825 26.6247C7.86408 26.9157 7.81553 27.4976 7.96117 27.7401C8.05825 27.8856 8.05825 27.9341 8.00971 27.9341C7.96117 27.9341 7.91262 27.9826 7.91262 28.0311C7.91262 28.1766 6.60194 29.389 6.5534 29.2435C6.5534 29.195 6.69903 28.8555 6.8932 28.5161C7.47573 27.4976 7.62136 27.0127 7.37864 26.9157C7.3301 26.9157 7.42718 26.7702 7.62136 26.5277C8.05825 26.2852 8.15534 26.1882 8.15534 26.3337ZM42.5243 26.5762C42.8641 26.9157 42.9612 27.1097 42.767 27.4006C42.7184 27.4976 42.7184 27.5461 42.767 27.5946C42.8155 27.6431 42.8641 27.6916 42.8641 27.7886C42.8641 27.8856 42.9126 27.9341 42.9126 27.9341C42.9612 27.9341 43.0097 28.0311 43.0583 28.1766C43.1068 28.3221 43.2039 28.5161 43.301 28.6131C43.4466 28.807 43.4466 28.8555 43.301 28.9525C43.2039 29.0495 43.1068 29.001 42.6214 28.4676L42.0388 27.8371L42.233 27.6916C42.4757 27.4976 42.4757 27.4006 42.1845 26.8187C41.9417 26.1397 41.9903 26.0912 42.5243 26.5762ZM25 27.1582C24.8544 27.3036 24.8058 27.3521 24.9029 27.4491C25.0485 27.6431 25.6796 27.5946 25.7282 27.4006C25.7767 27.0127 25.2913 26.9157 25 27.1582ZM37.9612 27.9341C38.0583 28.0311 38.3981 28.1281 38.6408 28.2251C38.932 28.2736 39.2233 28.4191 39.3689 28.4676C39.5146 28.5161 39.7087 28.5646 39.8058 28.6131C40.3398 28.7101 42.233 30.2619 42.233 30.6014C42.233 30.7954 42.0874 30.8439 41.9903 30.6499C41.9417 30.5529 41.7476 30.4074 41.6019 30.3104C41.4563 30.2134 41.1165 29.971 40.8738 29.7285C40.4854 29.3405 40.0485 29.098 39.6602 28.9525C39.5631 28.904 39.3204 28.807 39.1748 28.7101C39.0291 28.6131 38.7864 28.5161 38.6408 28.4676C38.3495 28.4191 37.6214 27.9341 37.6214 27.8371C37.6214 27.7886 37.7184 27.7886 37.9612 27.9341ZM11.2621 28.5646C10.4854 29.6315 9.27184 31.0864 9.2233 30.9894C9.17476 30.8924 9.46602 30.3104 10.0485 29.292C10.3884 28.7101 10.4369 28.6131 10.9223 28.3706C11.6019 28.0311 11.6505 28.0796 11.2621 28.5646ZM12.5728 29.001C12.5243 29.195 12.5243 29.195 12.767 29.1465C12.9126 29.098 12.9612 29.098 12.9612 29.195C12.9612 29.3405 12.4757 29.68 12.233 29.7285C11.9903 29.777 11.3107 30.2134 10.534 30.8924C10.1942 31.1834 9.85437 31.4259 9.75728 31.4744C9.66019 31.5229 9.46602 31.6683 9.36893 31.7653C9.2233 31.9108 8.83495 32.1048 8.83495 32.0078C8.83495 31.9593 9.12621 31.6198 9.56311 31.1834C9.80583 30.9409 10.1942 30.5529 10.7282 30.1649C10.9709 29.971 11.4563 29.583 11.7961 29.292C12.3786 28.7101 12.6214 28.6616 12.5728 29.001ZM38.3981 29.2435C39.1748 29.777 41.5049 31.8623 41.5049 32.0563C41.5049 32.2988 41.2136 32.1048 40.0485 31.1349C39.6602 30.8439 39.1748 30.5044 38.9806 30.3589C38.7379 30.2619 38.4951 30.1165 38.3981 30.0195C38.301 29.9225 38.0097 29.7285 37.7184 29.583C37.1845 29.2435 37.0874 29.098 37.4272 29.001C37.5243 28.9525 37.6214 28.904 37.6214 28.8555C37.6214 28.7101 37.767 28.807 38.3981 29.2435ZM22.9126 30.8439C22.9126 31.5714 23.6893 32.3958 24.3689 32.3958C25.0971 32.3958 24.8544 31.7168 24.0291 31.3289C23.4951 31.0864 23.3981 30.9894 23.2039 30.6984C23.0097 30.3589 22.9126 30.4074 22.9126 30.8439ZM26.9903 30.7469C26.8447 30.9894 26.699 31.0864 26.2136 31.3289C25.534 31.6198 25.4369 31.7653 25.534 32.2018C25.6796 32.6868 26.8447 32.1533 27.1845 31.4744C27.5243 30.7954 27.3301 30.1165 26.9903 30.7469ZM12.6699 30.9409C12.767 30.9409 12.8641 30.9894 12.8641 31.0379C12.8641 31.1349 12.3786 31.6198 12.233 31.6198C12.1845 31.6198 11.9903 31.7168 11.8447 31.8138C11.6019 32.0078 11.2621 32.1048 11.2621 31.9593C11.2621 31.9108 11.9417 31.0379 12.1845 30.7469L12.4272 30.5044L12.4757 30.6984C12.4757 30.8439 12.5728 30.9409 12.6699 30.9409ZM38.3495 31.1349C38.4466 31.2804 38.6408 31.5229 38.7864 31.6683C39.0777 32.0078 38.9806 32.2503 38.6408 31.9593C38.4951 31.8623 38.301 31.7168 38.1068 31.6683C37.6699 31.4744 37.3786 31.1349 37.4757 30.9894C37.6699 30.7954 38.1068 30.8439 38.3495 31.1349ZM13.3495 31.8623C13.3495 31.9108 13.301 31.9593 13.2524 32.0078C13.2039 32.0563 13.1068 32.2018 13.0583 32.3473C12.9612 32.7353 12.4757 33.0747 11.5049 33.5112C9.80583 34.2387 9.27184 34.4327 9.41748 34.0932C9.51456 33.8992 9.90291 33.6567 10.1942 33.6567C10.3398 33.6567 10.534 33.5597 10.6796 33.4627C10.8252 33.3657 11.0194 33.2687 11.068 33.2687C11.5049 33.2687 11.699 32.9778 11.4563 32.6868C11.3107 32.4928 11.3592 32.3958 11.6505 32.3958C11.7476 32.3958 11.8447 32.3473 11.8932 32.2988C11.9417 32.2503 12.1359 32.1533 12.3786 32.1048C12.6214 32.0563 12.8641 31.9108 12.9612 31.8623C13.1068 31.7653 13.3495 31.7168 13.3495 31.8623ZM37.8155 32.0563C38.2039 32.2018 38.5922 32.3958 38.7379 32.4443C39.0777 32.5413 39.0777 32.6868 38.7864 32.7838C38.6408 32.8323 38.5437 32.9293 38.5922 32.9777C38.6408 33.0747 39.9029 33.6567 40.4369 33.8022C40.9223 33.9477 41.3107 34.1417 41.3107 34.2872C41.3107 34.4811 40.4854 34.2387 39.8058 33.9477C39.466 33.7537 39.0291 33.6082 38.835 33.5597C38.2039 33.4627 37.233 32.6383 37.233 32.2018C37.233 32.1048 37.1845 32.0078 37.0874 32.0078C36.8932 31.9593 36.8447 31.7653 37.0388 31.7653C37.0874 31.7653 37.4272 31.9108 37.8155 32.0563ZM16.165 32.3958C16.2136 32.4928 15.2427 33.5112 14.9515 33.6567C14.7573 33.7537 14.466 33.9962 13.7864 34.5781C13.301 35.0146 12.9612 35.5481 13.1553 35.5481C13.2524 35.5481 14.4175 34.9176 14.8058 34.6751C15.3884 34.2872 15.6311 34.3357 15.2913 34.7721C15 35.1116 14.4175 35.4996 14.1748 35.4996C14.0777 35.4996 13.8835 35.5481 13.7379 35.6451C13.5922 35.6936 13.4466 35.7421 13.3981 35.7421C13.3495 35.7421 13.2039 35.7421 13.1553 35.7906C12.9612 35.8876 12.8641 35.8875 12.767 35.6451C12.6699 35.3056 13.4951 34.3357 14.5146 33.5597C14.9029 33.2687 15.3398 32.8808 15.4369 32.7838C15.534 32.6383 15.6796 32.5413 15.7282 32.5413C15.7767 32.5413 15.8738 32.4928 15.8738 32.3958C15.9709 32.2503 16.1165 32.2503 16.165 32.3958ZM35.8252 33.6082C36.4078 33.9962 36.8447 34.4326 37.0388 34.7721C37.0874 34.9176 37.233 35.1116 37.3301 35.2571C37.4272 35.4026 37.5243 35.5481 37.5243 35.5966C37.5243 35.6451 37.5728 35.7906 37.6214 35.936C37.767 36.1785 37.6699 36.324 37.4272 36.13C37.1845 35.936 36.5049 35.5966 36.1651 35.5481C35.6311 35.4511 34.5146 34.6266 34.5146 34.3357C34.5146 34.2872 34.4175 34.1902 34.3689 34.0932C34.2718 33.9962 34.2233 33.8992 34.2233 33.8507C34.2233 33.7052 34.4175 33.8022 34.7087 34.0932C34.9515 34.3842 36.1165 35.1601 36.3107 35.1601C36.3592 35.1601 36.4563 35.2571 36.5534 35.3541C36.7476 35.5481 36.8447 35.5966 37.0874 35.4996C37.2816 35.4511 37.233 35.1601 37.0388 35.1116C36.9417 35.0631 36.7961 34.9661 36.7476 34.8691C36.5049 34.5781 35.7282 33.8992 35.2427 33.5597C34.5146 33.0747 34.1262 32.6383 34.1748 32.3958C34.2233 32.2018 34.2233 32.2018 34.7573 32.6868C35.0485 33.0262 35.534 33.4142 35.8252 33.6082ZM16.0194 33.8022C16.0194 34.0447 15.6311 34.3842 15.5825 34.2387C15.534 34.1417 15.5825 34.0447 15.7282 33.8992C15.9709 33.6567 16.0194 33.6567 16.0194 33.8022ZM16.1165 35.0631C16.1165 35.2086 15.7767 35.7906 15.5825 35.9845C15.4854 36.0815 15.3884 36.227 15.3884 36.2755C15.3884 36.615 14.6117 37.3909 13.7379 37.9244C13.4466 38.1184 13.2039 38.3124 13.2039 38.3609C13.2039 38.5549 12.8641 38.6034 12.6214 38.4579C12.3301 38.2639 12.233 38.1184 12.4272 37.9244C12.4757 37.8759 12.6214 37.7304 12.6699 37.6819C12.8641 37.4394 13.5922 36.8575 13.8835 36.7605C14.2718 36.615 14.9029 36.13 15.4369 35.5481C15.7767 35.0631 16.1165 34.8691 16.1165 35.0631ZM35.0485 35.6451C35.4369 35.9845 35.8738 36.324 36.2136 36.518C36.8932 36.8575 37.9612 37.8759 37.9612 38.1669C37.9612 38.5549 37.1845 38.4094 36.699 37.8759C36.5534 37.7304 36.2621 37.5849 36.068 37.4879C35.7767 37.3909 35.6311 37.2939 35.3398 36.906C35.1456 36.6635 35 36.4695 34.9515 36.421C34.9029 36.3725 34.8544 36.324 34.8544 36.227C34.8544 36.13 34.7087 35.8875 34.5146 35.6451C33.8835 34.9176 34.1748 34.8691 35.0485 35.6451ZM12.6699 36.227C12.6214 36.324 12.2816 36.324 12.2816 36.2755C12.2816 36.227 12.3301 36.13 12.4272 36.0815C12.5728 35.8875 12.767 36.033 12.6699 36.227ZM19.7087 37.9729C19.6117 38.0699 19.6602 38.4579 19.7573 38.5549C19.9029 38.6519 20.0971 38.3609 20.0485 38.1669C20 37.9244 19.8058 37.8759 19.7087 37.9729ZM30.2913 38.0214C30.1942 38.2154 30.2913 38.5064 30.4369 38.5549C30.6311 38.6034 30.6796 38.3124 30.5825 38.0699C30.4854 37.8759 30.3398 37.8759 30.2913 38.0214ZM24.9515 38.1184C24.7087 38.3609 24.8058 38.7004 25.0971 38.7004C25.3884 38.7004 25.4854 38.4579 25.2427 38.1669C25.0971 37.9729 25.0971 37.9729 24.9515 38.1184ZM20.4854 38.2639C20.4369 38.5064 20.4854 38.6519 20.6796 38.6519C20.8252 38.6519 20.9223 38.4579 20.7767 38.2639C20.6796 38.0214 20.5825 38.0214 20.4854 38.2639ZM23.2039 38.1184C23.1068 38.2154 23.1553 38.8943 23.2039 38.8943C23.3495 38.8943 23.4466 38.7004 23.4466 38.5064C23.4466 38.2639 23.301 38.0214 23.2039 38.1184ZM29.466 38.3124C29.3689 38.5549 29.4175 38.6519 29.6117 38.6519C29.8058 38.6519 29.8544 38.5549 29.7573 38.3124C29.6602 38.0214 29.5631 38.0214 29.466 38.3124ZM26.8447 38.2639C26.7476 38.4094 26.8447 38.7973 26.9903 38.8458C27.0388 38.8458 27.0874 38.7488 27.0874 38.5064C27.0874 38.1184 27.0388 38.0699 26.8447 38.2639ZM16.0194 38.5549C16.0194 38.9428 15.8252 39.4278 15.5825 39.6218C15.3883 39.7673 15.1942 39.8158 15.3398 39.6703C15.3884 39.6218 15.4369 39.4763 15.4369 39.3308C15.4369 39.0398 15.7767 38.2639 15.9223 38.2639C15.9709 38.2154 16.0194 38.3609 16.0194 38.5549ZM34.6117 38.7973C34.7573 39.1368 34.9029 39.4763 34.9029 39.5733C34.9515 39.6703 35 39.7673 35.0485 39.8158C35.1942 39.8643 35.1942 40.2037 35.0971 40.2037C35.0485 40.2037 35 40.1068 34.9029 40.0098C34.8544 39.9128 34.7087 39.7673 34.6117 39.6703C34.4175 39.5248 34.2233 39.0883 34.1262 38.5064C34.0777 38.0214 34.3204 38.2154 34.6117 38.7973ZM12.1845 38.7488C12.1359 38.8458 11.9903 38.9428 11.9903 38.8458C11.9903 38.7488 12.0874 38.5549 12.1359 38.6034C12.1845 38.6034 12.1845 38.7004 12.1845 38.7488ZM18.7379 39.1368C19.0291 39.3308 19.3689 39.5248 19.5631 39.5248C19.6602 39.5248 19.8058 39.5733 19.9029 39.6703C20 39.7673 20.2913 39.8643 20.4854 39.8643C20.7282 39.9128 21.0194 39.9613 21.2136 40.0583C21.7961 40.2522 29.0777 40.1553 29.7573 39.9613C30.0485 39.8643 30.3884 39.7673 30.4854 39.7673C30.8252 39.7673 31.2621 39.5733 31.8932 39.0883C32.1845 38.8943 32.4757 38.7004 32.4757 38.7004C32.6214 38.7004 31.7476 39.6703 31.5049 39.7673C31.3592 39.8158 31.3107 40.1553 31.4563 40.1553C31.5049 40.1553 31.6019 40.1068 31.6505 40.0098C31.8447 39.8158 32.0388 40.0583 31.9903 40.3492C31.9417 40.4462 31.9417 40.6887 31.8932 40.8827C31.8447 41.3677 31.7961 41.3677 31.4563 40.8827C31.1165 40.3977 30.8738 40.5432 30.8738 41.2707C30.8738 41.6101 30.8252 41.9011 30.7282 42.0951C30.6311 42.2891 30.5825 42.5801 30.5825 42.8711C30.5825 43.259 30.4854 43.5985 30.3883 43.5015C30.2913 43.356 30.1456 42.9681 30.1456 42.7741C30.1456 42.0951 29.8544 41.9496 29.7087 42.5316C29.6117 42.9681 29.466 42.9681 29.2718 42.5316C29.0777 42.0466 28.932 41.9981 28.932 42.4346C28.932 42.7256 28.8835 42.7741 28.7864 42.7741C28.3981 42.7741 28.4466 42.0951 28.8835 41.9981C28.9806 41.9981 29.0777 41.8526 29.1262 41.7071C29.1748 41.5616 29.3204 41.4162 29.4175 41.3677C29.7087 41.2707 29.9515 41.0767 29.9515 40.9797C29.9515 40.8342 29.4175 40.9312 29.0291 41.1252C27.2816 42.0951 22.0388 41.8526 20.3398 40.7372C20.1456 40.7372 19.9029 40.6887 19.9029 40.8342C19.9029 40.8827 20.0971 41.0282 20.3884 41.1737C20.7767 41.3677 20.8738 41.5132 21.0194 41.7556C21.1165 41.9981 21.2136 42.0466 21.3107 42.0466C21.5049 41.9981 21.6505 42.3376 21.6019 42.6286C21.5534 42.9196 21.3107 42.9196 21.3107 42.6286C21.3107 42.5316 21.2621 42.3861 21.2136 42.3861C21.1165 42.3376 20.9223 42.5801 20.8738 42.8226C20.8738 43.3075 20.5825 43.1135 20.4854 42.5801C20.3884 42.0466 20.1942 42.0951 20.0971 42.7741C19.9515 43.6955 19.7087 43.647 19.6117 42.7741C19.4175 41.0767 18.9806 40.4462 18.5922 41.2222C18.3981 41.6586 18.3495 41.5616 18.3495 40.8342C18.3495 40.1068 18.3981 39.9613 18.5922 40.0583C18.7379 40.1552 18.835 40.1068 18.835 39.9128C18.835 39.8643 18.7864 39.8158 18.6893 39.8158C18.5922 39.8158 18.4951 39.7188 18.3981 39.6218C18.3495 39.5248 18.1553 39.2823 17.9612 39.1368C17.3786 38.5064 17.8641 38.5549 18.7379 39.1368ZM16.5534 39.6218C16.5534 39.6703 16.4563 39.7673 16.3592 39.7673C16.1651 39.8158 16.1165 39.7188 16.2621 39.5733C16.4078 39.4278 16.5534 39.4763 16.5534 39.6218ZM16.165 40.0583C16.165 40.1068 16.068 40.3977 15.9223 40.6402C15.7282 41.0282 15.6796 41.2222 15.6796 41.6586C15.6796 42.2406 15.6311 42.4831 15.4854 42.3861C15.2913 42.2891 15.3884 40.7857 15.6311 40.3492C15.8738 39.9613 16.165 39.7673 16.165 40.0583ZM30.9709 40.4462C30.9709 40.4947 31.0194 40.5432 31.068 40.5432C31.2136 40.4947 31.2621 40.3007 31.1165 40.3007C31.068 40.3492 30.9709 40.3977 30.9709 40.4462ZM30.2913 40.7372C30.2427 40.7857 30.3398 40.8342 30.3883 40.8342C30.4854 40.8342 30.534 40.7857 30.534 40.7372C30.534 40.6887 30.4854 40.6402 30.4369 40.6402C30.3884 40.6402 30.3398 40.6887 30.2913 40.7372ZM18.3981 41.8041C18.3495 42.0466 18.5922 43.55 18.6893 43.6955C18.7379 43.744 18.7379 43.841 18.7379 43.841C18.6893 43.8895 18.4951 43.6955 18.2524 43.2105C18.0097 42.7741 18.0097 42.1436 18.2039 41.8041C18.3981 41.5616 18.4466 41.5616 18.3981 41.8041ZM32.1845 42.0951C32.233 42.2406 32.0874 43.356 31.9903 43.4045C31.9417 43.453 31.8447 43.5985 31.7961 43.744C31.6019 44.132 31.5049 43.938 31.6505 43.4045C31.699 43.162 31.7476 42.8226 31.7476 42.6771C31.699 42.0951 32.0388 41.7071 32.1845 42.0951ZM22.6699 42.9681C23.1068 43.1135 23.301 44.7139 22.9126 45.1989C22.767 45.3444 22.7184 45.5869 22.6699 45.8293C22.6214 46.2658 22.5243 46.2658 22.3786 45.8293C22.3301 45.6354 22.1359 45.1989 21.9903 44.9079C21.6505 44.132 21.8447 43.7925 22.2816 44.5199C22.6214 45.0534 22.7184 44.5199 22.4757 43.5985C22.4272 43.356 22.3786 43.1135 22.4272 43.065C22.5243 42.9196 22.5243 42.9196 22.6699 42.9681ZM27.8641 43.0165C27.8641 43.065 27.8155 43.453 27.7184 43.841C27.5243 44.7139 27.5728 45.1019 27.8641 44.5199C28.1068 44.035 28.5922 43.9865 28.3495 44.423C28.1553 44.8109 27.9612 45.3929 27.8641 45.5869C27.7184 46.1203 27.3786 46.0233 27.4757 45.4414C27.5243 45.2474 27.5243 45.1989 27.3786 45.1989C27.0388 45.1989 26.9903 43.938 27.3301 43.162C27.4272 42.9196 27.767 42.8226 27.8641 43.0165ZM26.5534 43.3075C26.6019 43.4045 26.5049 43.6955 26.4563 43.938C26.3592 44.229 26.2621 44.6169 26.2621 44.8594C26.165 45.7324 26.0194 46.3628 25.8738 46.6538L25.7282 46.9933L25.5825 46.7993C25.3884 46.5568 25.0485 46.5568 24.7573 46.8478L24.5631 46.9933L24.466 46.7508C24.3689 46.5568 24.2233 45.8778 23.9806 44.7624C23.932 44.5199 23.8835 44.1805 23.835 43.9865C23.7379 43.453 23.7379 43.259 23.8835 43.3075C24.0291 43.356 24.466 44.035 24.5146 44.326C24.5631 44.5199 24.6117 44.5684 24.7573 44.5199C24.9029 44.5199 24.9515 44.5684 25.0485 44.8594C25.1942 45.3444 25.2913 45.2959 25.4369 44.7624C25.4369 44.7139 25.534 44.6654 25.6311 44.6654C25.7282 44.6654 25.7767 44.6169 25.7767 44.423C25.7767 44.2775 25.8738 44.0835 25.9709 43.9865C26.068 43.841 26.2136 43.647 26.3107 43.453C26.3107 43.162 26.5049 43.065 26.5534 43.3075Z" fill="#030510"/>
</g>
<defs>
<clipPath id="clip0_10341_6285">
<rect width="194.175" height="50" fill="white"/>
</clipPath>
</defs>
</svg>
