<svg width="100" height="100" viewBox="0 0 100 100" fill="none" xmlns="http://www.w3.org/2000/svg">
<path d="M81.4324 43.5547H66.0287C65.7144 43.5547 65.413 43.4298 65.1908 43.2076C64.9686 42.9854 64.8438 42.684 64.8438 42.3697V26.9663C64.8438 26.652 64.9686 26.3506 65.1908 26.1284C65.413 25.9061 65.7144 25.7813 66.0287 25.7813H81.4324C81.588 25.7813 81.7421 25.812 81.8858 25.8715C82.0296 25.9311 82.1602 26.0183 82.2702 26.1284C82.3802 26.2384 82.4675 26.369 82.527 26.5128C82.5865 26.6566 82.6172 26.8107 82.6171 26.9663V42.3697C82.6172 42.5253 82.5865 42.6794 82.527 42.8232C82.4675 42.9669 82.3802 43.0976 82.2702 43.2076C82.1602 43.3176 82.0296 43.4049 81.8858 43.4645C81.7421 43.524 81.588 43.5547 81.4324 43.5547Z" fill="white"/>
<path d="M82.6171 30.8594V26.9661C82.6171 26.6518 82.4923 26.3505 82.2701 26.1283C82.0479 25.9061 81.7466 25.7813 81.4324 25.7813H66.0285C65.7143 25.7813 65.4129 25.9061 65.1908 26.1283C64.9686 26.3505 64.8438 26.6518 64.8438 26.9661V42.3699C64.8438 42.6841 64.9686 42.9855 65.1908 43.2077C65.4129 43.4299 65.7143 43.5547 66.0285 43.5547H81.4324C81.588 43.5547 81.742 43.524 81.8858 43.4645C82.0295 43.405 82.1601 43.3177 82.2701 43.2077C82.3801 43.0977 82.4674 42.9671 82.527 42.8233C82.5865 42.6796 82.6171 42.5255 82.6171 42.3699V37.6953" stroke="black" stroke-width="2" stroke-miterlimit="10" stroke-linecap="round" stroke-linejoin="round"/>
<path d="M23.7701 62.541H35.8866L44.8332 38.2001H14.8236L23.7701 62.541Z" fill="white" stroke="black" stroke-width="2"/>
<path d="M20.9201 38.2003H14.8236L23.7701 62.541H29.8666L20.9201 38.2003Z" fill="white" stroke="black" stroke-width="2"/>
<path d="M32.1152 82.8516H27.5391C25.9211 82.8516 24.6094 81.5398 24.6094 79.9219V76.1438C24.6094 74.5258 25.9211 73.2141 27.5391 73.2141H32.1152C33.7334 73.2141 35.0449 74.5258 35.0449 76.1438V79.9219C35.0449 81.5398 33.7334 82.8516 32.1152 82.8516Z" fill="white"/>
<path d="M32.1152 82.8516H27.5391C25.9211 82.8516 24.6094 81.5398 24.6094 79.9219V76.1438C24.6094 74.5258 25.9211 73.2141 27.5391 73.2141H32.1152C33.7334 73.2141 35.0449 74.5258 35.0449 76.1438V79.9219C35.0449 81.5398 33.7334 82.8516 32.1152 82.8516Z" stroke="black" stroke-width="2" stroke-miterlimit="10" stroke-linecap="round" stroke-linejoin="round"/>
<path d="M23.1562 68.4309V76.0684H36.5017V68.4309H23.1562Z" fill="white" stroke="black" stroke-width="2"/>
<path d="M52.6659 32.2549C52.6659 44.8696 42.4397 55.0957 29.8251 55.0957C17.2105 55.0957 6.98438 44.8696 6.98438 32.2549C6.98438 19.6403 17.2105 9.4142 29.8251 9.4142C42.4397 9.4142 52.6659 19.6403 52.6659 32.2549Z" fill="white"/>
<path d="M51.0942 40.5967C52.1085 38.0126 52.6659 35.1989 52.6659 32.2551C52.6659 19.6405 42.4397 9.4144 29.8251 9.4144C17.2105 9.4144 6.98438 19.6405 6.98438 32.2551C6.98438 44.8696 17.2105 55.0957 29.8251 55.0957C37.0394 55.0957 43.4712 51.7502 47.6569 46.5272" stroke="black" stroke-width="2" stroke-miterlimit="10" stroke-linecap="round" stroke-linejoin="round"/>
<path d="M22.0166 39.4824C19.6213 39.4824 17.6797 37.5408 17.6797 35.1455C17.6797 32.7504 19.6213 30.8086 22.0166 30.8086C24.4117 30.8086 26.3533 32.7504 26.3533 35.1455" stroke="black" stroke-width="2" stroke-miterlimit="10" stroke-linecap="round" stroke-linejoin="round"/>
<path d="M33.2969 35.1455C33.2969 32.7502 35.2385 30.8086 37.6336 30.8086C40.0289 30.8086 41.9705 32.7502 41.9705 35.1455C41.9705 37.5406 40.0289 39.4824 37.6336 39.4824" stroke="black" stroke-width="2" stroke-miterlimit="10" stroke-linecap="round" stroke-linejoin="round"/>
<path d="M22.0156 39.4824H37.6283Z" fill="black"/>
<path d="M22.0156 39.4824H37.6283" stroke="black" stroke-width="2" stroke-miterlimit="10" stroke-linecap="round" stroke-linejoin="round"/>
<path d="M26.3594 35.1454V65.3105Z" fill="black"/>
<path d="M26.3594 35.1454V65.3105" stroke="black" stroke-width="2" stroke-miterlimit="10" stroke-linecap="round" stroke-linejoin="round"/>
<path d="M33.2969 35.1454V65.3105Z" fill="black"/>
<path d="M33.2969 35.1454V65.3105" stroke="black" stroke-width="2" stroke-miterlimit="10" stroke-linecap="round" stroke-linejoin="round"/>
<path d="M38.4783 71.0938H21.1797C20.1008 71.0938 19.2266 70.2193 19.2266 69.1406V63.4094C19.2266 62.3307 20.1008 61.4563 21.1797 61.4563H38.4783C39.5568 61.4563 40.4314 62.3307 40.4314 63.4094V69.1406C40.4314 70.2193 39.5568 71.0938 38.4783 71.0938Z" fill="white"/>
<path d="M33.9861 71.0938H38.4783C39.5568 71.0938 40.4314 70.2193 40.4314 69.1406V63.4094C40.4314 62.3307 39.5568 61.4563 38.4783 61.4563H21.1797C20.1008 61.4563 19.2266 62.3307 19.2266 63.4094V69.1406C19.2266 70.2193 20.1008 71.0938 21.1797 71.0938H27.1502" stroke="black" stroke-width="2" stroke-miterlimit="10" stroke-linecap="round" stroke-linejoin="round"/>
<path d="M86.5402 76.1797L86.5401 76.1797C85.1462 76.2741 83.8529 75.8842 82.8039 75.1634L82.8037 75.1632C81.7778 74.4588 80.3103 75.1441 80.3103 76.4636V85.8317H70.9419C69.622 85.8317 68.9377 87.3 69.6418 88.3253L69.642 88.3256C70.3627 89.3744 70.7527 90.6677 70.6583 92.0618L70.6583 92.0619C70.4621 94.9624 68.1065 97.321 65.2062 97.5207L86.5402 76.1797ZM86.5402 76.1797C89.441 75.9834 91.7998 73.6278 91.9991 70.7278L91.9991 70.7278C92.2358 67.2871 89.5171 64.4249 86.1294 64.4249H86.1279C84.9351 64.4232 83.7703 64.7861 82.7896 65.4651L82.7891 65.4655C81.7148 66.2082 80.3103 65.3975 80.3103 64.1554V54.7871H72.6695C72.6712 54.8537 72.6722 54.9221 72.6722 54.9918C72.6722 59.346 69.1423 62.8761 64.7878 62.8761C60.4334 62.8761 56.9035 59.346 56.9035 54.9918V54.9913C56.9035 54.9232 56.9045 54.8551 56.9063 54.7871H49.2656V62.8018M86.5402 76.1797L49.2656 62.8018M58.9035 91.6508V91.6493C58.9017 90.4566 59.2646 89.2919 59.9436 88.3113L59.944 88.3107C60.6869 87.2362 59.8755 85.8317 58.6338 85.8317H49.2656V78.5053C49.6672 78.5417 50.071 78.5477 50.4735 78.5233C54.394 78.2868 57.5798 75.1326 57.8515 71.2134L56.9302 71.1495L57.8515 71.2134C58.1707 66.6074 54.5266 62.7694 49.9867 62.7693L58.9035 91.6508ZM58.9035 91.6508C58.9035 95.0387 61.7657 97.7573 65.2061 97.5208L58.9035 91.6508ZM49.2656 62.8018C49.5053 62.7801 49.7458 62.7692 49.9865 62.7693L49.2656 62.8018Z" fill="white" stroke="black" stroke-width="2"/>
<path d="M86.6077 77.1774C84.9813 77.2876 83.4659 76.8315 82.2376 75.9876C81.8442 75.7175 81.3103 75.9864 81.3103 76.4636V85.8551C81.3103 86.1141 81.2074 86.3625 81.0242 86.5457C80.8411 86.7288 80.5927 86.8317 80.3337 86.8317H70.9419C70.465 86.8317 70.196 87.3659 70.4661 87.7592C71.3101 88.9874 71.7661 90.5028 71.656 92.1293C71.4261 95.5286 68.6738 98.2844 65.2748 98.5184C61.2525 98.795 57.9035 95.6141 57.9035 91.6508C57.9014 90.2542 58.3264 88.8903 59.1215 87.7421C59.3875 87.3573 59.1015 86.8317 58.6338 86.8317H49.2422C49.1139 86.8317 48.987 86.8064 48.8685 86.7574C48.75 86.7083 48.6423 86.6364 48.5517 86.5457C48.461 86.455 48.389 86.3473 48.34 86.2289C48.2909 86.1104 48.2656 85.9834 48.2656 85.8551V78.4794C48.2656 77.9104 48.7508 77.4511 49.317 77.5058C49.6814 77.5408 50.0479 77.5473 50.4133 77.5251C53.8328 77.3188 56.617 74.5618 56.8539 71.1443C57.1328 67.1202 53.951 63.7693 49.9865 63.7693C49.7722 63.7692 49.558 63.7791 49.3445 63.7988C48.767 63.8523 48.2656 63.4085 48.2656 62.8287V54.7636C48.2656 54.6354 48.2909 54.5084 48.34 54.3899C48.389 54.2714 48.461 54.1638 48.5517 54.0731C48.6423 53.9824 48.75 53.9105 48.8685 53.8614C48.987 53.8123 49.1139 53.7871 49.2422 53.7871H56.932C57.48 53.7871 57.9236 54.2377 57.9068 54.7855C57.9046 54.8542 57.9035 54.923 57.9035 54.9918C57.9035 58.7937 60.9857 61.8761 64.7878 61.8761C68.59 61.8761 71.6722 58.7937 71.6722 54.9918C71.6722 54.9228 71.671 54.8541 71.6691 54.7855C71.6521 54.2377 72.0956 53.7871 72.6439 53.7871H80.3337C80.5927 53.7871 80.8411 53.89 81.0242 54.0731C81.2074 54.2562 81.3103 54.5046 81.3103 54.7636V64.1554C81.3103 64.6232 81.8356 64.9089 82.2204 64.6429C83.3687 63.8478 84.7327 63.4229 86.1294 63.4249C90.0925 63.4249 93.2735 66.774 92.9967 70.7964C92.7631 74.1952 90.0069 76.9474 86.6077 77.1774Z" fill="white"/>
<path d="M86.6077 77.1774C84.9813 77.2876 83.4659 76.8315 82.2376 75.9876C81.8442 75.7175 81.3103 75.9864 81.3103 76.4636V85.8551C81.3103 86.1141 81.2074 86.3625 81.0242 86.5457C80.8411 86.7288 80.5927 86.8317 80.3337 86.8317H70.9419C70.465 86.8317 70.196 87.3659 70.4661 87.7592C71.3101 88.9874 71.7661 90.5028 71.656 92.1293C71.4261 95.5286 68.6738 98.2844 65.2748 98.5184C61.2525 98.795 57.9035 95.6141 57.9035 91.6508C57.9014 90.2542 58.3264 88.8903 59.1215 87.7421C59.3875 87.3573 59.1015 86.8317 58.6338 86.8317H49.2422C49.1139 86.8317 48.987 86.8064 48.8685 86.7574C48.75 86.7083 48.6423 86.6364 48.5517 86.5457C48.461 86.455 48.389 86.3473 48.34 86.2289C48.2909 86.1104 48.2656 85.9834 48.2656 85.8551V78.4794C48.2656 77.9104 48.7508 77.4511 49.317 77.5058C49.6814 77.5408 50.0479 77.5473 50.4133 77.5251C53.8328 77.3188 56.617 74.5618 56.8539 71.1443C57.1328 67.1202 53.951 63.7693 49.9865 63.7693C49.7722 63.7692 49.558 63.7791 49.3445 63.7988C48.767 63.8523 48.2656 63.4085 48.2656 62.8287V54.7636C48.2656 54.6354 48.2909 54.5084 48.34 54.3899C48.389 54.2714 48.461 54.1638 48.5517 54.0731C48.6423 53.9824 48.75 53.9105 48.8685 53.8614C48.987 53.8123 49.1139 53.7871 49.2422 53.7871H56.932C57.48 53.7871 57.9236 54.2377 57.9068 54.7855C57.9046 54.8542 57.9035 54.923 57.9035 54.9918C57.9035 58.7937 60.9857 61.8761 64.7878 61.8761C68.59 61.8761 71.6722 58.7937 71.6722 54.9918C71.6722 54.9228 71.671 54.8541 71.6691 54.7855C71.6521 54.2377 72.0956 53.7871 72.6439 53.7871H80.3337C80.5927 53.7871 80.8411 53.89 81.0242 54.0731C81.2074 54.2562 81.3103 54.5046 81.3103 54.7636V64.1554C81.3103 64.6232 81.8356 64.9089 82.2204 64.6429C83.3687 63.8478 84.7327 63.4229 86.1294 63.4249C90.0925 63.4249 93.2735 66.774 92.9967 70.7964C92.7631 74.1952 90.0069 76.9474 86.6077 77.1774Z" stroke="black" stroke-width="2" stroke-miterlimit="10" stroke-linecap="round" stroke-linejoin="round"/>
<path d="M74.3774 17.411C74.3774 26.218 67.238 33.3574 58.431 33.3574C49.624 33.3574 42.4844 26.218 42.4844 17.411C42.4844 8.60398 49.624 1.46455 58.431 1.46455C67.238 1.46455 74.3774 8.60398 74.3774 17.411Z" fill="white"/>
<path d="M74.3774 17.411C74.3774 26.218 67.238 33.3574 58.431 33.3574C49.624 33.3574 42.4844 26.218 42.4844 17.411C42.4844 8.60398 49.624 1.46455 58.431 1.46455C67.238 1.46455 74.3774 8.60398 74.3774 17.411Z" stroke="black" stroke-width="2" stroke-miterlimit="10" stroke-linecap="round" stroke-linejoin="round"/>
<path d="M50.3594 16.008L56.9133 23.791L66.5095 12.9653" stroke="black" stroke-width="2" stroke-miterlimit="10" stroke-linecap="round" stroke-linejoin="round"/>
</svg>
