<svg width="100" height="100" viewBox="0 0 100 100" fill="none" xmlns="http://www.w3.org/2000/svg">
<path d="M14.3594 56.7213V74.2186M79.1086 9.76758H17.2891C15.6711 9.76758 14.3594 11.0793 14.3594 12.6973V20.0359M14.3594 81.0545V87.3023C14.3594 88.9203 15.6711 90.232 17.2891 90.232H95.6125C97.2305 90.232 98.5422 88.9203 98.5422 87.3023V12.6973C98.5422 11.0793 97.2305 9.76758 95.6125 9.76758H85.9445" stroke="black" stroke-width="2" stroke-miterlimit="10" stroke-linecap="round" stroke-linejoin="round"/>
<path d="M21.5156 56.7211V81.2496C21.5156 81.5086 21.6185 81.757 21.8017 81.9401C21.9848 82.1233 22.2332 82.2262 22.4922 82.2262H90.4029C90.6619 82.2262 90.9103 82.1233 91.0935 81.9401C91.2766 81.757 91.3795 81.5086 91.3795 81.2496V31.2246C91.3795 30.9656 91.2766 30.7172 91.0935 30.5341C90.9103 30.3509 90.6619 30.248 90.4029 30.248H55.9912" stroke="black" stroke-width="2" stroke-miterlimit="10" stroke-linejoin="round"/>
<path d="M79.3555 16.5391H79.5812M85.4492 16.5391H85.6748M91.5428 16.5391H91.7686M55.9916 43.6023L42.4283 30.0391C41.3268 28.9375 39.5406 28.9375 38.4391 30.0391L32.2633 36.2148M27.4295 41.0486L22.6809 45.7973C22.5045 45.9736 22.2654 46.0727 22.016 46.0727C21.7666 46.0727 21.5275 45.9736 21.3512 45.7973L15.3166 39.7627C14.215 38.6611 12.4289 38.6611 11.3273 39.7627L4.74219 46.3477" stroke="black" stroke-width="2" stroke-miterlimit="10" stroke-linecap="round" stroke-linejoin="round"/>
<path d="M84.2174 37.3945L65.4297 51.7135M65.4297 37.3945L84.2174 51.7135M84.2174 58.9627L65.4297 73.2816M65.4297 58.9627L84.2174 73.2816" stroke="black" stroke-width="2" stroke-miterlimit="10" stroke-linejoin="round"/>
<path d="M50.5846 67.1461H59.2645M27.8631 73.2828H59.2645M7.03828 23.3098H2.44531C2.18631 23.3098 1.93792 23.2069 1.75478 23.0237C1.57164 22.8406 1.46875 22.5922 1.46875 22.3332V17.7402C1.46875 17.4812 1.57164 17.2328 1.75478 17.0497C1.93792 16.8666 2.18631 16.7637 2.44531 16.7637H7.03828C7.16652 16.7637 7.29351 16.7889 7.41199 16.838C7.53048 16.8871 7.63813 16.959 7.72881 17.0497C7.8195 17.1404 7.89143 17.248 7.94051 17.3665C7.98958 17.485 8.01484 17.612 8.01484 17.7402V22.3332C8.01484 22.4614 7.98958 22.5884 7.94051 22.7069C7.89143 22.8254 7.8195 22.9331 7.72881 23.0237C7.63813 23.1144 7.53048 23.1864 7.41199 23.2354C7.29351 23.2845 7.16652 23.3098 7.03828 23.3098ZM58.2879 59.9951H53.6949C53.4359 59.9951 53.1875 59.8922 53.0044 59.7091C52.8212 59.526 52.7184 59.2776 52.7184 59.0186V54.4256C52.7184 54.1666 52.8212 53.9182 53.0044 53.7351C53.1875 53.5519 53.4359 53.449 53.6949 53.449H58.2879C58.5469 53.449 58.7953 53.5519 58.9784 53.7351C59.1616 53.9182 59.2645 54.1666 59.2645 54.4256V59.0186C59.2645 59.2776 59.1616 59.526 58.9784 59.7091C58.7953 59.8922 58.5469 59.9951 58.2879 59.9951ZM7.03828 59.9951H2.44531C2.18631 59.9951 1.93792 59.8922 1.75478 59.7091C1.57164 59.526 1.46875 59.2776 1.46875 59.0186V54.4256C1.46875 54.1666 1.57164 53.9182 1.75478 53.7351C1.93792 53.5519 2.18631 53.449 2.44531 53.449H7.03828C7.16652 53.449 7.29351 53.4743 7.41199 53.5234C7.53048 53.5724 7.63813 53.6444 7.72881 53.7351C7.8195 53.8257 7.89143 53.9334 7.94051 54.0519C7.98958 54.1704 8.01484 54.2973 8.01484 54.4256V59.0186C8.01484 59.1468 7.98958 59.2738 7.94051 59.3923C7.89143 59.5108 7.8195 59.6184 7.72881 59.7091C7.63813 59.7998 7.53048 59.8717 7.41199 59.9208C7.29351 59.9699 7.16652 59.9951 7.03828 59.9951Z" stroke="black" stroke-width="2" stroke-miterlimit="10" stroke-linecap="round" stroke-linejoin="round"/>
<path d="M22.0412 32.9906C23.9366 32.9906 25.473 31.4541 25.473 29.5588C25.473 27.6634 23.9366 26.127 22.0412 26.127C20.1459 26.127 18.6094 27.6634 18.6094 29.5588C18.6094 31.4541 20.1459 32.9906 22.0412 32.9906Z" stroke="black" stroke-width="2" stroke-miterlimit="10" stroke-linecap="round" stroke-linejoin="round"/>
<path d="M65.4297 37.3945H84.2174V51.7135H65.4297V37.3945ZM65.4297 58.9627H84.2174V73.2816H65.4297V58.9627Z" stroke="black" stroke-width="2" stroke-miterlimit="10" stroke-linecap="round" stroke-linejoin="round"/>
<path d="M58.2074 23.3082H98.5395M52.7188 20.0352H8.01523M4.74219 23.3082V53.4475M55.9918 53.4475V23.3082M8.01523 56.7205H52.7188" stroke="black" stroke-width="2" stroke-miterlimit="10" stroke-linejoin="round"/>
<path d="M58.2883 23.3098H53.6953C53.4363 23.3098 53.1879 23.2069 53.0048 23.0237C52.8216 22.8406 52.7188 22.5922 52.7188 22.3332V17.7402C52.7188 17.4812 52.8216 17.2328 53.0048 17.0497C53.1879 16.8666 53.4363 16.7637 53.6953 16.7637H58.2883C58.5473 16.7637 58.7957 16.8666 58.9788 17.0497C59.162 17.2328 59.2648 17.4812 59.2648 17.7402V22.3332C59.2648 22.5922 59.162 22.8406 58.9788 23.0237C58.7957 23.2069 58.5473 23.3098 58.2883 23.3098Z" stroke="black" stroke-width="2" stroke-miterlimit="10" stroke-linecap="round" stroke-linejoin="round"/>
<path d="M75.4114 78.3004C75.3549 77.6048 76.1331 77.1555 76.7072 77.5523L92.4649 88.4414C93.11 88.8871 92.8288 89.8967 92.0456 89.9468L83.7305 90.4779C83.4725 90.4944 83.2369 90.6304 83.0937 90.8456L78.4761 97.7811C78.0412 98.4343 77.0263 98.1731 76.9628 97.3915L75.4114 78.3004Z" fill="white" stroke="#030510" stroke-width="2"/>
<path d="M43.7136 49.3004C43.7701 48.6048 42.9919 48.1555 42.4178 48.5523L26.6601 59.4414C26.015 59.8871 26.2962 60.8967 27.0794 60.9468L35.3945 61.4779C35.6525 61.4944 35.8881 61.6304 36.0313 61.8456L40.6489 68.7811C41.0838 69.4343 42.0987 69.1731 42.1622 68.3915L43.7136 49.3004Z" fill="white" stroke="#030510" stroke-width="2"/>
</svg>
