<?xml version="1.0" encoding="UTF-8"?>
<svg xmlns="http://www.w3.org/2000/svg" width="24" height="24" viewBox="0 0 24 24" fill="none">
  <path d="M21 22V7.4849C21 6.38738 21 5.83862 20.6845 5.37551C20.3689 4.9124 19.7876 4.608 18.6251 3.99921L17.1459 3.22461C15.3209 2.26893 14.4084 1.7911 13.7042 2.08712C13 2.38315 13 3.24459 13 4.96746V9" stroke="#030510" stroke-linejoin="round"></path>
  <path d="M3 22V7.4849C3 6.38738 3 5.83862 3.3155 5.37551C3.6311 4.9124 4.2124 4.608 5.3749 3.99921L6.8541 3.22461C8.6791 2.26893 9.5916 1.7911 10.2958 2.08712C11 2.38315 11 3.24459 11 4.96746V9" stroke="#030510" stroke-linejoin="round"></path>
  <path d="M22 22H2" stroke="#030510" stroke-linecap="round" stroke-linejoin="round"></path>
  <path d="M21 8H19M21 11H19M21 14H19" stroke="#030510" stroke-linecap="round" stroke-linejoin="round"></path>
  <path d="M3 8H5M3 11H5M3 14H5" stroke="#030510" stroke-linecap="round" stroke-linejoin="round"></path>
  <path d="M8 13C8 11.1144 8 10.1716 8.58579 9.58579C9.17157 9 10.1144 9 12 9C13.8856 9 14.8284 9 15.4142 9.58579C16 10.1716 16 11.1144 16 13V22H8V13Z" stroke="#030510" stroke-linejoin="round"></path>
  <path d="M11.5 13H12.5M11.5 16H12.5" stroke="#030510" stroke-linecap="round"></path>
</svg>
