<svg width="24" height="24" viewBox="0 0 24 24" fill="none" xmlns="http://www.w3.org/2000/svg">
<path d="M4.5 21.5L8.5 17.5M10.5 17.5L14.5 21.5M9.5 17.5V22.5" stroke="#030510" stroke-linecap="round" stroke-linejoin="round"/>
<path d="M2 11.875C2 9.81261 2 8.78141 3.02513 8.1407C4.05025 7.5 5.70017 7.5 9 7.5H10C13.2998 7.5 14.9497 7.5 15.9749 8.1407C17 8.78141 17 9.81261 17 11.875V13.125C17 15.1874 17 16.2186 15.9749 16.8593C14.9497 17.5 13.2998 17.5 10 17.5H9C5.70017 17.5 4.05025 17.5 3.02513 16.8593C2 16.2186 2 15.1874 2 13.125V11.875Z" stroke="#030510"/>
<path d="M17 10.2497L17.1259 10.1742C19.2417 8.90453 20.2996 8.26972 21.1498 8.57623C22 8.88275 22 9.89894 22 11.9314V13.0687C22 15.1011 22 16.1173 21.1498 16.4238C20.2996 16.7303 19.2417 16.0955 17.1259 14.8259L17 14.7503" stroke="#030510" stroke-linecap="round"/>
<path d="M12.5 7.5C13.8807 7.5 15 6.38071 15 5C15 3.61929 13.8807 2.5 12.5 2.5C11.1193 2.5 10 3.61929 10 5C10 6.38071 11.1193 7.5 12.5 7.5Z" stroke="#030510"/>
<path d="M7 7.5C8.65685 7.5 10 6.15685 10 4.5C10 2.84315 8.65685 1.5 7 1.5C5.34315 1.5 4 2.84315 4 4.5C4 6.15685 5.34315 7.5 7 7.5Z" stroke="#030510"/>
</svg>
