<svg width="25" height="24" viewBox="0 0 25 24" fill="none" xmlns="http://www.w3.org/2000/svg">
<path d="M17.25 4.5C17.25 5.32843 16.5784 6 15.75 6C14.9216 6 14.25 5.32843 14.25 4.5C14.25 3.67157 14.9216 3 15.75 3C16.5784 3 17.25 3.67157 17.25 4.5Z" stroke="#030510"/>
<path d="M15.25 21.0008L14.5859 18.3849C14.3661 17.5191 13.9115 16.7285 13.2707 16.0974L11.75 14.5999M11.75 14.5999C10.7422 13.806 10.2383 13.4089 10.0431 12.8783C9.95617 12.642 9.91463 12.3914 9.92069 12.1396C9.93429 11.5744 10.2832 11.0361 10.9809 9.95956L12.25 8.00135M11.75 14.5999L15.25 9.27742M6.25 11.1535C7.25 9.18366 8.78767 8.04229 12.25 8.00135M12.25 8.00135C12.4686 7.99877 12.7944 7.99799 13.1198 7.99805C13.6247 7.99813 13.8771 7.99817 14.0782 8.09213C14.2793 8.18609 14.4856 8.43255 14.8982 8.92548C15.0164 9.06671 15.1378 9.19325 15.25 9.27742M15.25 9.27742C16.4047 10.1434 18.2127 10.492 20.25 8.19912" stroke="#030510" stroke-linecap="round" stroke-linejoin="round"/>
<path d="M4.25 17.7303L4.92822 17.8916C6.65663 18.3028 8.45324 17.5164 9.25 16" stroke="#030510" stroke-linecap="round" stroke-linejoin="round"/>
</svg>
