<svg width="80" height="80" viewBox="0 0 80 80" fill="none" xmlns="http://www.w3.org/2000/svg">
<g clip-path="url(#clip0_11443_3059)">
<path d="M59.3232 52.3604L50.7253 50.4676H43.0381L34.4401 52.3604C31.2284 53.306 29.0234 56.2538 29.0234 59.6018V76.245C29.0234 77.6716 30.1798 78.8281 31.6066 78.8281H62.1568C63.5833 78.8281 64.7397 77.6716 64.7397 76.245V59.6018C64.7397 56.2538 62.5347 53.306 59.3232 52.3604Z" stroke="black" stroke-width="2" stroke-miterlimit="10" stroke-linecap="round" stroke-linejoin="round"/>
<path d="M55.5498 31.5957C55.5498 29.6273 53.9779 28.019 52.0101 27.9739C49.9668 27.927 49.8106 26.5047 47.7308 26.5047H44.1809C40.8839 26.5047 38.2109 29.1776 38.2109 32.4748L38.2167 37.8641C38.2283 42.6505 42.1176 46.9315 46.904 46.9199C51.6904 46.9083 55.5612 42.6088 55.5498 37.8224V31.5957Z" stroke="black" stroke-width="2" stroke-miterlimit="10" stroke-linecap="round" stroke-linejoin="round"/>
<path d="M64.7397 71.6074C64.7397 66.7776 60.8243 62.8623 55.9945 62.8623H37.7687C32.9389 62.8623 29.0234 66.7776 29.0234 71.6074" stroke="black" stroke-width="2" stroke-miterlimit="10" stroke-linecap="round" stroke-linejoin="round"/>
<path d="M50.7266 50.4668V45.9388" stroke="black" stroke-width="2" stroke-miterlimit="10" stroke-linecap="round" stroke-linejoin="round"/>
<path d="M43.0391 45.9348V50.4668" stroke="black" stroke-width="2" stroke-miterlimit="10" stroke-linecap="round" stroke-linejoin="round"/>
<path d="M69.3001 49.0488V41.4978C69.3001 38.8454 67.1498 36.6953 64.4976 36.6953H55.5469" stroke="black" stroke-width="2" stroke-miterlimit="10" stroke-linecap="round" stroke-linejoin="round"/>
<path d="M64.7344 66.8516C67.2756 66.7269 69.2976 64.6272 69.2976 62.0552V53.7364" stroke="black" stroke-width="2" stroke-miterlimit="10" stroke-linecap="round" stroke-linejoin="round"/>
<path d="M12.6089 36.6953H5.97436C3.32187 36.6953 1.17188 38.8455 1.17188 41.4978V62.0549C1.17188 64.7073 3.32187 66.8574 5.97436 66.8574H29.0218" stroke="black" stroke-width="2" stroke-miterlimit="10" stroke-linecap="round" stroke-linejoin="round"/>
<path d="M38.2146 36.6953H17.2969" stroke="black" stroke-width="2" stroke-miterlimit="10" stroke-linecap="round" stroke-linejoin="round"/>
<path d="M7.0625 66.8572V77.2948C7.0625 78.1417 7.74906 78.8281 8.59578 78.8281H11.2801C12.1269 78.8281 12.8134 78.1417 12.8134 77.2948V66.8572" stroke="black" stroke-width="2" stroke-miterlimit="10" stroke-linecap="round" stroke-linejoin="round"/>
<path d="M21.96 25.5482L13.3619 27.4411C10.1503 28.3867 7.94531 31.3345 7.94531 34.6823V36.6953" stroke="black" stroke-width="2" stroke-miterlimit="10" stroke-linecap="round" stroke-linejoin="round"/>
<path d="M40.002 28.2129C39.452 27.8821 38.8621 27.6229 38.2465 27.4415L29.6484 25.5487" stroke="black" stroke-width="2" stroke-miterlimit="10" stroke-linecap="round" stroke-linejoin="round"/>
<path d="M21.9609 22.156V25.547C21.9609 27.6698 23.6817 29.3906 25.8045 29.3906C27.9272 29.3906 29.6479 27.6698 29.6479 25.547V22.156" stroke="black" stroke-width="2" stroke-miterlimit="10" stroke-linecap="round" stroke-linejoin="round"/>
<path d="M35.4801 11.6914C35.4801 11.6914 33.5918 11.1283 32.1631 9.54407C31.3115 8.59985 29.9346 8.35204 28.8276 8.97751C25.9651 10.5944 20.7253 12.8022 16.1328 10.6566V7.83329C16.1328 4.15408 19.1153 1.17159 22.7945 1.17159H26.7554C27.6345 1.17161 28.4893 1.45969 29.189 1.99175C29.8637 2.50472 30.6831 2.79143 31.5304 2.81096C33.7262 2.86128 35.4801 4.6558 35.4801 6.8522V11.6914Z" stroke="black" stroke-width="2" stroke-miterlimit="10" stroke-linecap="round" stroke-linejoin="round"/>
<path d="M16.1328 10.6578V13.7774C16.1328 14.8441 16.9977 15.7091 18.0645 15.7091C18.1081 17.7431 18.963 19.7009 20.5072 21.0306C21.7505 22.1011 23.4979 23.4353 25.8065 23.4609C28.115 23.4353 29.8626 22.1011 31.1057 21.0306C32.65 19.7009 33.5048 17.7431 33.5484 15.7091C34.6153 15.7091 35.4801 14.8441 35.4801 13.7774V11.6927" stroke="black" stroke-width="2" stroke-miterlimit="10" stroke-linecap="round" stroke-linejoin="round"/>
<path d="M76.2312 1.19881H56.3076C54.878 1.19881 53.7188 2.35787 53.7188 3.78771V14.0181C53.7188 15.448 54.878 16.607 56.3076 16.607H63.3822C64.7895 16.607 65.9306 17.7481 65.9306 19.1555V22.7114C65.9306 23.3976 66.8018 23.6917 67.2176 23.1458L71.4332 17.6114C71.671 17.2992 71.9777 17.0461 72.3293 16.8719C72.681 16.6977 73.0681 16.607 73.4606 16.607H76.2312C77.6609 16.607 78.8201 15.448 78.8201 14.0181V3.78771C78.8201 2.35787 77.6609 1.19881 76.2312 1.19881Z" stroke="black" stroke-width="2" stroke-miterlimit="10" stroke-linecap="round" stroke-linejoin="round"/>
<path d="M63.3594 6.99219H73.5845" stroke="black" stroke-width="2" stroke-miterlimit="10" stroke-linecap="round" stroke-linejoin="round"/>
<path d="M58.5469 6.99219H59.7933" stroke="black" stroke-width="2" stroke-miterlimit="10" stroke-linecap="round" stroke-linejoin="round"/>
<path d="M58.5469 11.5H73.5769" stroke="black" stroke-width="2" stroke-miterlimit="10" stroke-linecap="round" stroke-linejoin="round"/>
</g>
<defs>
<clipPath id="clip0_11443_3059">
<rect width="80" height="80" fill="white"/>
</clipPath>
</defs>
</svg>
