<svg width="80" height="80" viewBox="0 0 80 80" fill="none" xmlns="http://www.w3.org/2000/svg">
<g clip-path="url(#clip0_13069_9541)">
<path d="M49.3233 28.2286V33.0234C49.3233 35.0039 47.7178 36.6094 45.7372 36.6094H42.7812" stroke="black" stroke-width="2" stroke-miterlimit="10" stroke-linecap="round" stroke-linejoin="round"/>
<path d="M59.0337 73.7398H3.69171C2.29999 73.7398 1.17188 74.8679 1.17188 76.2596C1.17188 77.6512 2.29999 78.7793 3.69171 78.7793H59.0337C60.4254 78.7793 61.5536 77.6512 61.5536 76.2596C61.5536 74.8679 60.4254 73.7398 59.0337 73.7398Z" stroke="black" stroke-width="2" stroke-miterlimit="10" stroke-linecap="round" stroke-linejoin="round"/>
<path d="M34.5103 73.7402C34.5103 71.6752 35.284 69.6899 36.6656 68.1553L36.6965 68.1207C37.8264 66.8567 38.5134 65.1885 38.5134 63.3596C38.5134 60.6945 37.0545 58.3701 34.8917 57.1414C34.4814 56.9081 33.9718 57.2014 33.9718 57.6733V62.9906C33.9718 63.8818 33.2493 64.6043 32.3579 64.6043H30.3742C29.483 64.6043 28.7603 63.8818 28.7603 62.9906V57.6733C28.7603 57.2014 28.2506 56.9081 27.8403 57.1414C25.6777 58.3701 24.2188 60.6945 24.2188 63.3596C24.2188 65.1885 24.9058 66.8567 26.0356 68.1207L26.0666 68.1553C27.4481 69.6899 28.2219 71.6752 28.2219 73.7402" stroke="black" stroke-width="2" stroke-miterlimit="10" stroke-linecap="round" stroke-linejoin="round"/>
<path d="M7.21094 69.1673L7.45906 73.7402" stroke="black" stroke-width="2" stroke-miterlimit="10" stroke-linecap="round" stroke-linejoin="round"/>
<path d="M55.2663 73.7402L56.4277 52.3431C56.5395 50.2828 54.8992 48.5509 52.8357 48.5509H9.89414C7.83087 48.5509 6.1904 50.2828 6.30228 52.3431L6.92009 63.7284" stroke="black" stroke-width="2" stroke-miterlimit="10" stroke-linecap="round" stroke-linejoin="round"/>
<path d="M60.619 74.2988V69.3899C60.619 64.6618 58.9762 60.2598 56.1875 56.7825" stroke="black" stroke-width="2" stroke-miterlimit="10" stroke-linecap="round" stroke-linejoin="round"/>
<path d="M6.54092 56.7825C3.75218 60.2598 2.10938 64.6618 2.10938 69.3899V74.2988" stroke="black" stroke-width="2" stroke-miterlimit="10" stroke-linecap="round" stroke-linejoin="round"/>
<path d="M43.2902 10.8323H43.1588C42.9859 10.8324 42.8146 10.7983 42.6548 10.7321C42.495 10.666 42.3499 10.569 42.2276 10.4467C42.1053 10.3244 42.0082 10.1792 41.9421 10.0195C41.8759 9.85967 41.8418 9.68842 41.8418 9.51547C41.8418 7.36188 40.0962 5.61611 37.9426 5.61611H25.5318C20.0086 5.61611 15.5313 10.0934 15.5313 15.6167V22.2256C15.5312 22.6992 15.6786 23.1611 15.953 23.5472C16.2273 23.9333 16.6151 24.2244 17.0623 24.3801L19.5256 25.2378C20.3867 25.5376 21.2859 24.8975 21.2845 23.9857L21.279 19.3254C21.2697 17.059 23.077 15.2139 25.3161 15.2042L25.3648 15.204C26.0473 15.2013 26.7259 15.3065 27.3756 15.5156C28.5228 15.8842 29.7115 16.1076 30.9165 16.1025H31.8042C33.0092 16.1076 34.1979 15.8842 35.3451 15.5156C35.9948 15.3065 36.6734 15.2013 37.3559 15.204L37.4046 15.2042C39.6437 15.2139 41.451 17.059 41.4416 19.3254L41.4371 23.9861C41.4359 24.8978 42.3351 25.5376 43.1959 25.2378L45.6585 24.3801C46.1057 24.2244 46.4934 23.9333 46.7677 23.5472C47.0421 23.1612 47.1895 22.6993 47.1894 22.2257V14.7317C47.1894 12.5781 45.4437 10.8323 43.2902 10.8323Z" stroke="black" stroke-width="2" stroke-miterlimit="10" stroke-linecap="round" stroke-linejoin="round"/>
<path d="M18.5703 31.1754H18.5922C18.6784 34.5745 20.1034 37.8406 22.6623 40.0518C24.7226 41.8321 27.6145 43.3813 31.4262 43.4082C35.2375 43.3488 38.1165 41.7749 40.1617 39.9771C42.6518 37.7884 44.0406 34.5954 44.1495 31.2681" stroke="black" stroke-width="2" stroke-miterlimit="10" stroke-linecap="round" stroke-linejoin="round"/>
<path d="M15.5372 21.7125C14.3252 21.9357 13.4062 22.9956 13.4062 24.2722V28.7231C13.4062 30.1619 14.5725 31.3281 16.0112 31.3281H18.5769V24.9056" stroke="black" stroke-width="2" stroke-miterlimit="10" stroke-linecap="round" stroke-linejoin="round"/>
<path d="M44.1562 24.906V31.3281H46.7217C48.1605 31.3281 49.3267 30.1619 49.3267 28.7233V24.2724C49.3267 22.9958 48.4078 21.9357 47.1958 21.7127" stroke="black" stroke-width="2" stroke-miterlimit="10" stroke-linecap="round" stroke-linejoin="round"/>
<path d="M40.207 38.4492H37.2661C36.1441 38.4492 35.2344 37.5397 35.2344 36.4177C35.2344 35.2955 36.1441 34.3859 37.2661 34.3859H40.207C41.329 34.3859 42.2386 35.2955 42.2386 36.4177C42.2386 37.5397 41.329 38.4492 40.207 38.4492Z" stroke="black" stroke-width="2" stroke-miterlimit="10" stroke-linecap="round" stroke-linejoin="round"/>
<path d="M39.6705 48.5508C38.5937 47.967 37.8828 46.8317 37.8828 45.5531V41.6249" stroke="black" stroke-width="2" stroke-miterlimit="10" stroke-linecap="round" stroke-linejoin="round"/>
<path d="M24.8381 41.6127V45.5531C24.8381 46.8536 24.1064 47.9747 23.0469 48.5508" stroke="black" stroke-width="2" stroke-miterlimit="10" stroke-linecap="round" stroke-linejoin="round"/>
<path d="M78.8304 6.89814V4.63002C78.8304 2.74784 77.3046 1.22206 75.4223 1.22206H55.7128C53.8305 1.22206 52.3047 2.74784 52.3047 4.63002V14.4875C52.3047 16.3697 53.8305 17.8954 55.7128 17.8954C56.812 17.8954 57.7031 18.7865 57.7031 19.8858V25.9818C57.7031 26.7557 58.7223 27.0379 59.1203 26.3742L63.6251 18.8622C63.8019 18.5673 64.0521 18.3233 64.3512 18.1539C64.6503 17.9845 64.9882 17.8955 65.332 17.8954H75.4223C77.3046 17.8954 78.8304 16.3697 78.8304 14.4875V12.3769" stroke="black" stroke-width="2" stroke-miterlimit="10" stroke-linecap="round" stroke-linejoin="round"/>
<path d="M63.3594 6.99219H73.5845" stroke="black" stroke-width="2" stroke-miterlimit="10" stroke-linecap="round" stroke-linejoin="round"/>
<path d="M57.5469 6.99219H58.7933" stroke="black" stroke-width="2" stroke-miterlimit="10" stroke-linecap="round" stroke-linejoin="round"/>
<path d="M57.5469 12.498H73.5787" stroke="black" stroke-width="2" stroke-miterlimit="10" stroke-linecap="round" stroke-linejoin="round"/>
</g>
<defs>
<clipPath id="clip0_13069_9541">
<rect width="80" height="80" fill="white"/>
</clipPath>
</defs>
</svg>
