<svg width="80" height="80" viewBox="0 0 80 80" fill="none" xmlns="http://www.w3.org/2000/svg">
<g clip-path="url(#clip0_13069_16928)">
<path d="M65.7686 71.0156H78.8279V77.5781C78.8279 78.2688 78.2685 78.8281 77.5779 78.8281H2.42187C1.73125 78.8281 1.17188 78.2688 1.17188 77.5781V72.2656C1.17188 71.575 1.73125 71.0156 2.42187 71.0156H60.2998" stroke="#00E2C5" stroke-width="1.5" stroke-miterlimit="10" stroke-linecap="round" stroke-linejoin="round"/>
<path d="M18.0078 71.0156V61.5203" stroke="#00E2C5" stroke-width="1.5" stroke-miterlimit="10" stroke-linecap="round" stroke-linejoin="round"/>
<path d="M23.1641 71.0156V61.5203" stroke="#00E2C5" stroke-width="1.5" stroke-miterlimit="10" stroke-linecap="round" stroke-linejoin="round"/>
<path d="M48.5359 37.3088V43.0086C48.5359 43.3244 48.2797 43.582 47.9625 43.582H40" stroke="#00E2C5" stroke-width="1.5" stroke-miterlimit="10" stroke-linecap="round" stroke-linejoin="round"/>
<path d="M28.7812 71.0156V61.5203" stroke="#00E2C5" stroke-width="1.5" stroke-miterlimit="10" stroke-linecap="round" stroke-linejoin="round"/>
<path d="M78.8265 71.0156V52.9938C78.8265 47.7907 74.6078 43.5829 69.4187 43.5829H59.6437C59.3266 43.5829 59.0703 43.3251 59.0703 43.0095V37.3095" stroke="#00E2C5" stroke-width="1.5" stroke-miterlimit="10" stroke-linecap="round" stroke-linejoin="round"/>
<path d="M40.9265 23.5312H40.0312C38.1078 23.5312 36.5469 21.972 36.5469 20.0469C36.5469 19.0844 36.9375 18.2142 37.5672 17.5844C38.1984 16.9531 39.0703 16.5641 40.0312 16.5641H40.9765" stroke="#00E2C5" stroke-width="1.5" stroke-miterlimit="10" stroke-linecap="round" stroke-linejoin="round"/>
<path d="M66.6328 16.5641H67.5781C69.5016 16.5641 71.0625 18.1235 71.0625 20.0469C71.0625 21.0094 70.6719 21.8813 70.0422 22.5111C69.4109 23.1406 68.5391 23.5312 67.5781 23.5312H66.6828" stroke="#00E2C5" stroke-width="1.5" stroke-miterlimit="10" stroke-linecap="round" stroke-linejoin="round"/>
<path d="M66.6312 16.5604C66.664 16.9338 66.6812 17.3119 66.6812 17.6947V25.5541C66.6812 32.6664 60.914 38.4336 53.8015 38.4336C46.6875 38.4336 40.9219 32.6664 40.9219 25.5541V17.6947C40.9219 17.3119 40.9391 16.9338 40.9719 16.5604" stroke="#00E2C5" stroke-width="1.5" stroke-miterlimit="10" stroke-linecap="round" stroke-linejoin="round"/>
<path d="M59.5078 21.2011L59.5083 23.3438" stroke="#00E2C5" stroke-width="1.5" stroke-miterlimit="10" stroke-linecap="round" stroke-linejoin="round"/>
<path d="M48.0781 21.2049L48.0786 23.3477" stroke="#00E2C5" stroke-width="1.5" stroke-miterlimit="10" stroke-linecap="round" stroke-linejoin="round"/>
<path d="M55.7867 30.1083C54.6873 31.2083 52.9047 31.2087 51.8047 30.1094" stroke="#00E2C5" stroke-width="1.5" stroke-miterlimit="10" stroke-linecap="round" stroke-linejoin="round"/>
<path d="M29.3624 35.1648H38.1249C39.1608 35.1648 39.9999 36.0038 39.9999 37.0398V59.6445C39.9999 60.6805 39.1608 61.5195 38.1249 61.5195H3.04687C2.01094 61.5195 1.17188 60.6805 1.17188 59.6445V37.0398C1.17188 36.0038 2.01094 35.1648 3.04687 35.1648H23.8937" stroke="#00E2C5" stroke-width="1.5" stroke-miterlimit="10" stroke-linecap="round" stroke-linejoin="round"/>
<path d="M27.8782 48.3422C27.8782 52.3688 24.614 55.6328 20.5875 55.6328C16.5609 55.6328 13.2969 52.3688 13.2969 48.3422C13.2969 44.3155 16.5609 41.0514 20.5875 41.0514C24.614 41.0514 27.8782 44.3155 27.8782 48.3422Z" stroke="#00E2C5" stroke-width="1.5" stroke-miterlimit="10" stroke-linecap="round" stroke-linejoin="round"/>
<path d="M65.0937 4.20535H65.8297C67.8687 4.20535 69.5234 5.86003 69.5234 7.89909V16.2461C69.5234 16.329 69.4905 16.4085 69.4319 16.4671C69.3733 16.5257 69.2938 16.5586 69.2109 16.5586H63.95C62.0578 16.5586 60.3484 15.7803 59.125 14.5256" stroke="#00E2C5" stroke-width="1.5" stroke-miterlimit="10" stroke-linecap="round" stroke-linejoin="round"/>
<path d="M62.6762 1.17067H49.7734C43.3012 1.17067 38.0547 6.41737 38.0547 12.8894V16.2461C38.0547 16.329 38.0876 16.4085 38.1462 16.4671C38.2048 16.5257 38.2843 16.5586 38.3672 16.5586H52.1545C59.3092 16.5586 65.1093 10.7585 65.1093 3.60379C65.1093 2.26004 64.0199 1.17067 62.6762 1.17067Z" stroke="#00E2C5" stroke-width="1.5" stroke-miterlimit="10" stroke-linecap="round" stroke-linejoin="round"/>
<path d="M23.3959 46.5518L19.9642 49.9835C19.9157 50.0321 19.8581 50.0706 19.7947 50.0969C19.7312 50.1232 19.6633 50.1367 19.5946 50.1367C19.526 50.1367 19.458 50.1232 19.3946 50.0969C19.3311 50.0706 19.2735 50.0321 19.225 49.9835L17.7734 48.532" stroke="#00E2C5" stroke-width="1.5" stroke-miterlimit="10" stroke-linecap="round" stroke-linejoin="round"/>
<path d="M45.125 43.5811L52.1781 55.7969C52.9 57.0469 54.7031 57.0469 55.425 55.7969L62.4781 43.5811" stroke="#00E2C5" stroke-width="1.5" stroke-miterlimit="10" stroke-linecap="round" stroke-linejoin="round"/>
</g>
<defs>
<clipPath id="clip0_13069_16928">
<rect width="80" height="80" fill="white"/>
</clipPath>
</defs>
</svg>
