<svg width="80" height="80" viewBox="0 0 80 80" fill="none" xmlns="http://www.w3.org/2000/svg">
<path d="M20.9688 48.9024V71.643C20.9688 73.8227 22.7359 75.5898 24.9156 75.5898H40.1765" stroke="#00E2C5" stroke-width="1.5" stroke-miterlimit="10" stroke-linecap="round" stroke-linejoin="round"/>
<path d="M20.9688 29.6229V8.35895C20.9688 6.17927 22.7359 4.41209 24.9156 4.41209H60.1233C62.303 4.41209 64.0702 6.17927 64.0702 8.35895V71.6431C64.0702 73.8228 62.303 75.5898 60.1233 75.5898H44.864" stroke="#00E2C5" stroke-width="1.5" stroke-miterlimit="10" stroke-linecap="round" stroke-linejoin="round"/>
<path d="M42.5178 68.0267C41.343 68.0267 40.3906 68.9791 40.3906 70.1539C40.3906 71.3288 41.343 72.2812 42.5178 72.2812C43.6926 72.2812 44.645 71.3288 44.645 70.1539C44.645 68.9791 43.6926 68.0267 42.5178 68.0267Z" stroke="#00E2C5" stroke-width="1.5" stroke-miterlimit="10" stroke-linecap="round" stroke-linejoin="round"/>
<path d="M64.0708 64.7148H20.9688" stroke="#00E2C5" stroke-width="1.5" stroke-miterlimit="10" stroke-linecap="round" stroke-linejoin="round"/>
<path d="M42.5242 19.6275C38.2911 19.6275 34.8594 23.0593 34.8594 27.2924C34.8594 31.5253 38.2911 34.957 42.5242 34.957C46.7573 34.957 50.189 31.5253 50.189 27.2924C50.189 23.0593 46.7573 19.6275 42.5242 19.6275Z" stroke="#00E2C5" stroke-width="1.5" stroke-miterlimit="10" stroke-linecap="round" stroke-linejoin="round"/>
<path d="M42.5241 23.5141C41.1342 23.5141 40.0078 24.6406 40.0078 26.0303C40.0078 27.4202 41.1342 28.5469 42.5241 28.5469C43.9139 28.5469 45.0405 27.4202 45.0405 26.0303C45.0405 24.6406 43.9139 23.5141 42.5241 23.5141Z" stroke="#00E2C5" stroke-width="1.5" stroke-miterlimit="10" stroke-linecap="round" stroke-linejoin="round"/>
<path d="M42.5223 34.957C44.0676 34.957 45.505 34.4981 46.7087 33.7114C45.8529 32.2945 44.2984 31.347 42.5223 31.347C40.7462 31.347 39.1917 32.2945 38.3359 33.7114C39.5801 34.5259 41.0353 34.9589 42.5223 34.957Z" stroke="#00E2C5" stroke-width="1.5" stroke-miterlimit="10" stroke-linecap="round" stroke-linejoin="round"/>
<path d="M40.6172 9.57422H44.4303" stroke="#00E2C5" stroke-width="1.5" stroke-miterlimit="10" stroke-linecap="round" stroke-linejoin="round"/>
<path d="M48.6581 45.8242H36.3848C36.1999 45.8242 36.0225 45.7507 35.8917 45.62C35.761 45.4892 35.6875 45.3118 35.6875 45.1269V41.3838C35.6875 41.1988 35.761 41.0214 35.8917 40.8907C36.0225 40.7599 36.1999 40.6864 36.3848 40.6864H48.6581C48.843 40.6864 49.0204 40.7599 49.1512 40.8907C49.282 41.0214 49.3554 41.1988 49.3554 41.3838V45.1269C49.3554 45.3118 49.282 45.4892 49.1512 45.62C49.0204 45.7507 48.843 45.8242 48.6581 45.8242Z" stroke="#00E2C5" stroke-width="1.5" stroke-miterlimit="10" stroke-linecap="round" stroke-linejoin="round"/>
<path d="M35.6908 52.251C35.6908 52.066 35.7642 51.8886 35.895 51.7579C36.0258 51.6271 36.2032 51.5536 36.3881 51.5536H48.6613C48.8463 51.5536 49.0237 51.6271 49.1544 51.7579C49.2852 51.8886 49.3587 52.066 49.3587 52.251V55.9941C49.3587 56.179 49.2852 56.3564 49.1544 56.4872C49.0237 56.6179 48.8463 56.6914 48.6613 56.6914H27.8906" stroke="#00E2C5" stroke-width="1.5" stroke-miterlimit="10" stroke-linecap="round" stroke-linejoin="round"/>
<path d="M54.4531 28.5469H78.8306" stroke="#00E2C5" stroke-width="1.5" stroke-miterlimit="10" stroke-linecap="round" stroke-linejoin="round"/>
<path d="M78.8259 24.4414H71.2188" stroke="#00E2C5" stroke-width="1.5" stroke-miterlimit="10" stroke-linecap="round" stroke-linejoin="round"/>
<path d="M78.8259 20.3359H71.2188" stroke="#00E2C5" stroke-width="1.5" stroke-miterlimit="10" stroke-linecap="round" stroke-linejoin="round"/>
<path d="M54.4531 53.9805H78.8306" stroke="#00E2C5" stroke-width="1.5" stroke-miterlimit="10" stroke-linecap="round" stroke-linejoin="round"/>
<path d="M78.8259 49.875H71.2188" stroke="#00E2C5" stroke-width="1.5" stroke-miterlimit="10" stroke-linecap="round" stroke-linejoin="round"/>
<path d="M78.8259 45.7734H71.2188" stroke="#00E2C5" stroke-width="1.5" stroke-miterlimit="10" stroke-linecap="round" stroke-linejoin="round"/>
<path d="M12.2178 14.4641L11.8958 13.9064C10.3536 11.236 6.93968 10.3203 4.26937 11.8627C1.59907 13.4031 0.683448 16.8188 2.22563 19.4891L2.54735 20.0469" stroke="#00E2C5" stroke-width="1.5" stroke-miterlimit="10" stroke-linecap="round" stroke-linejoin="round"/>
<path d="M23.4297 50.5977L28.2397 47.8206" stroke="#00E2C5" stroke-width="1.5" stroke-miterlimit="10" stroke-linecap="round" stroke-linejoin="round"/>
<path d="M15.0938 30.608L22.8773 44.0898" stroke="#00E2C5" stroke-width="1.5" stroke-miterlimit="10" stroke-linecap="round" stroke-linejoin="round"/>
<path d="M10.0547 21.8799L12.7017 26.4648" stroke="#00E2C5" stroke-width="1.5" stroke-miterlimit="10" stroke-linecap="round" stroke-linejoin="round"/>
<path d="M27.7092 41.2999C24.7623 39.9177 23.1506 40.8481 22.8742 44.0914C19.9272 42.7094 18.3156 43.6399 18.0391 46.8828" stroke="#00E2C5" stroke-width="1.5" stroke-miterlimit="10" stroke-linecap="round" stroke-linejoin="round"/>
<path d="M2.50803 20.0688L12.2563 14.4407C13.5341 13.703 15.168 14.1408 15.9058 15.4186C16.6436 16.6965 16.2058 18.3304 14.9278 19.0682L5.17975 24.6963C3.90194 25.4341 2.26804 24.9963 1.53023 23.7183C0.792571 22.4407 1.23023 20.8066 2.50803 20.0688Z" stroke="#00E2C5" stroke-width="1.5" stroke-miterlimit="10" stroke-linecap="round" stroke-linejoin="round"/>
<path d="M14.8889 19.0886L27.7112 41.2973L28.5184 51.3032C28.6143 52.493 27.2852 53.2602 26.3029 52.5822L18.0411 46.8802L5.21875 24.6715L14.8889 19.0886Z" stroke="#00E2C5" stroke-width="1.5" stroke-miterlimit="10" stroke-linecap="round" stroke-linejoin="round"/>
</svg>
