<svg width="80" height="80" viewBox="0 0 80 80" fill="none" xmlns="http://www.w3.org/2000/svg">
<path d="M47.0937 1.17346L46.3826 4.88595C45.992 6.925 44.2093 8.39844 42.1343 8.39844H26.5842C24.5094 8.39844 22.7266 6.925 22.3359 4.88595L21.625 1.17346H47.0937Z" stroke="#00E2C5" stroke-width="1.5" stroke-miterlimit="10" stroke-linecap="round" stroke-linejoin="round"/>
<path d="M57.8421 61.3251V73.6139C57.8421 76.4936 55.5078 78.8281 52.628 78.8281H16.0969C13.2172 78.8281 10.8828 76.4936 10.8828 73.6139V6.38616C10.8828 3.50648 13.2172 1.1721 16.0969 1.1721H52.628C55.5078 1.1721 57.8421 3.50648 57.8421 6.38616V40.6935" stroke="#00E2C5" stroke-width="1.5" stroke-miterlimit="10" stroke-linecap="round" stroke-linejoin="round"/>
<path d="M57.8438 55.918V51.9289" stroke="#00E2C5" stroke-width="1.5" stroke-miterlimit="10" stroke-linecap="round" stroke-linejoin="round"/>
<path d="M32.0234 4.96875H36.6947" stroke="#00E2C5" stroke-width="1.5" stroke-miterlimit="10" stroke-linecap="round" stroke-linejoin="round"/>
<path d="M52.7686 6.12352C52.7686 6.42953 52.647 6.72301 52.4306 6.9394C52.2143 7.15578 51.9208 7.27734 51.6148 7.27734C51.3087 7.27734 51.0153 7.15578 50.7989 6.9394C50.5825 6.72301 50.4609 6.42953 50.4609 6.12352C50.4609 5.81751 50.5825 5.52403 50.7989 5.30764C51.0153 5.09126 51.3087 4.96969 51.6148 4.96969C51.9208 4.96969 52.2143 5.09126 52.4306 5.30764C52.647 5.52403 52.7686 5.81751 52.7686 6.12352Z" fill="#00E2C5"/>
<path d="M46.586 49.6422H35.8065C34.4561 49.6422 33.3612 50.7369 33.3612 52.0872V58.9336H25.2109" stroke="#00E2C5" stroke-width="1.5" stroke-miterlimit="10" stroke-linecap="round" stroke-linejoin="round"/>
<path d="M46.586 58.9336H25.2109" stroke="#00E2C5" stroke-width="1.5" stroke-miterlimit="10" stroke-linecap="round" stroke-linejoin="round"/>
<path d="M66.4168 51.9297H49.2898C47.7964 51.9297 46.5859 50.7192 46.5859 49.2258C46.5859 47.7325 47.7964 46.522 49.2898 46.522H66.4168C67.9103 46.522 69.1209 47.7325 69.1209 49.2258C69.1209 50.7192 67.9103 51.9297 66.4168 51.9297Z" stroke="#00E2C5" stroke-width="1.5" stroke-miterlimit="10" stroke-linecap="round" stroke-linejoin="round"/>
<path d="M66.4168 61.3242H49.2898C47.7964 61.3242 46.5859 60.1138 46.5859 58.6203C46.5859 57.127 47.7964 55.9166 49.2898 55.9166H66.4168C67.9103 55.9166 69.1209 57.127 69.1209 58.6203C69.1209 60.1138 67.9103 61.3242 66.4168 61.3242Z" stroke="#00E2C5" stroke-width="1.5" stroke-miterlimit="10" stroke-linecap="round" stroke-linejoin="round"/>
<path d="M45.7209 71.3477H35.8055C34.312 71.3477 33.1016 70.137 33.1016 68.6436C33.1016 67.1503 34.312 65.9399 35.8055 65.9399H45.7209C47.2143 65.9399 48.4248 67.1503 48.4248 68.6436C48.4248 70.137 47.2143 71.3477 45.7209 71.3477Z" stroke="#00E2C5" stroke-width="1.5" stroke-miterlimit="10" stroke-linecap="round" stroke-linejoin="round"/>
<path d="M22.5094 61.6367H18.9459C17.4528 61.6367 16.2422 60.4263 16.2422 58.9328C16.2422 57.4395 17.4528 56.2291 18.9459 56.2291H22.5094C24.0028 56.2291 25.2134 57.4395 25.2134 58.9328C25.2134 60.4263 24.0028 61.6367 22.5094 61.6367Z" stroke="#00E2C5" stroke-width="1.5" stroke-miterlimit="10" stroke-linecap="round" stroke-linejoin="round"/>
<path d="M17.0938 17.87V30.7728C17.0938 32.9702 18.1839 34.4495 20.0355 35.6327C20.9373 36.2087 22.0762 36.6192 23.4917 36.6211C24.7176 36.6228 25.7422 36.3389 26.5892 35.9123C28.7472 34.8256 30.1231 33.1753 30.1231 30.7592V17.87" stroke="#00E2C5" stroke-width="1.5" stroke-miterlimit="10" stroke-linecap="round" stroke-linejoin="round"/>
<path d="M50.5251 17.7035L36.4375 36.3867" stroke="#00E2C5" stroke-width="1.5" stroke-miterlimit="10" stroke-linecap="round" stroke-linejoin="round"/>
<path d="M37.1484 17.7038L51.5792 36.7188" stroke="#00E2C5" stroke-width="1.5" stroke-miterlimit="10" stroke-linecap="round" stroke-linejoin="round"/>
<path d="M20.7266 61.6394V66.1994C20.7266 67.5498 21.8212 68.6445 23.1717 68.6445H27.5367" stroke="#00E2C5" stroke-width="1.5" stroke-miterlimit="10" stroke-linecap="round" stroke-linejoin="round"/>
</svg>
