<svg width="80" height="80" viewBox="0 0 80 80" fill="none" xmlns="http://www.w3.org/2000/svg">
<g clip-path="url(#clip0_13069_3245)">
<path d="M19.2428 69.7767H8.83625M14.0205 32.7837H20.3991M14.0205 39.0278H20.3991M14.0205 45.2717H20.3991M7.67984 32.7837H8.34938M7.67984 39.0278H8.34938M7.67984 45.2717H8.34938M13.1763 1.17188V10.353M1.89844 1.17188V7.48953C1.89844 8.56547 2.43219 9.28984 3.33875 9.86906C3.78031 10.1512 4.33797 10.3522 5.03109 10.3531C5.63125 10.3539 6.13297 10.215 6.54766 10.0061C7.60422 9.47406 8.27797 8.66594 8.27797 7.48297V1.17188M37.9625 1.17188L44.4213 10.353M43.9667 1.17188L37.4989 10.353M27.4067 1.17188V7.48953C27.4067 8.56547 27.9405 9.28984 28.847 9.86906C29.2886 10.1512 29.8463 10.3522 30.5394 10.3531C31.1395 10.3539 31.6413 10.215 32.0559 10.0061C33.1125 9.47406 33.7863 8.66594 33.7863 7.48297V1.17188M22.4148 1.17188L18.5323 10.353M1.89844 17.8658H78.0981M69.9286 1.20312H78.0981M78.0981 5.76234H69.9286M78.0981 10.3217H69.9286M8.27953 60.7255H5.02344C3.2975 60.7255 1.89844 62.1245 1.89844 63.8505V75.7031C1.89844 77.4291 3.2975 78.8281 5.02344 78.8281H23.0556C24.7816 78.8281 26.1806 77.4291 26.1806 75.7031V63.8505C26.1806 62.1245 24.7816 60.7255 23.0556 60.7255H13.7483M1.89844 39.0955V49.5231C1.89844 51.2491 3.2975 52.6481 5.02344 52.6481H23.0556C24.7816 52.6481 26.1806 51.2491 26.1806 49.5231V28.5323C26.1806 26.8064 24.7816 25.4073 23.0556 25.4073H5.02344C3.2975 25.4073 1.89844 26.8064 1.89844 28.5323V33.6267M74.9731 78.8281H36.5902C34.8642 78.8281 33.4652 77.4291 33.4652 75.7031V28.5323C33.4652 26.8064 34.8642 25.4073 36.5902 25.4073H74.9731C76.6991 25.4073 78.0981 26.8064 78.0981 28.5323V75.7031C78.0981 77.4291 76.6991 78.8281 74.9731 78.8281Z" stroke="black" stroke-width="2" stroke-miterlimit="10" stroke-linecap="round" stroke-linejoin="round"/>
<path d="M44.9878 47.7858C46.2067 52.6123 50.5766 56.1848 55.7819 56.1848C61.9308 56.1848 66.9153 51.2003 66.9153 45.0514C66.9153 38.9025 61.9308 33.918 55.7819 33.918C50.5767 33.918 46.2069 37.4905 44.9878 42.317M65.9572 70.7338H45.6064C43.5628 70.7338 41.9062 69.0772 41.9062 67.0336C41.9062 64.99 43.5628 63.3334 45.6064 63.3334H65.9572C68.0008 63.3334 69.6573 64.99 69.6573 67.0336C69.6573 69.0772 68.0008 70.7338 65.9572 70.7338Z" stroke="black" stroke-width="2" stroke-miterlimit="10" stroke-linecap="round" stroke-linejoin="round"/>
</g>
<defs>
<clipPath id="clip0_13069_3245">
<rect width="80" height="80" fill="white"/>
</clipPath>
</defs>
</svg>
