<svg width="80" height="80" viewBox="0 0 80 80" fill="none" xmlns="http://www.w3.org/2000/svg">
<g clip-path="url(#clip0_13069_16873)">
<path d="M66.5558 48.025H76.2815C77.6822 48.025 78.8178 46.8895 78.8178 45.4887V15.2921M78.8176 10.762V3.70815C78.8176 2.30739 77.6821 1.17188 76.2813 1.17188H47.9875C46.5868 1.17188 45.4513 2.30739 45.4513 3.70815V20.4837M55.2488 9.98104H69.8486M55.2488 16.5087H69.8486M58.857 23.0364H69.8486M58.857 29.5641H69.8486M58.857 36.0917H69.8486M58.7008 40.0002V22.3189C58.7008 21.926 58.5447 21.5492 58.2669 21.2714C57.9891 20.9936 57.6123 20.8375 57.2194 20.8375H2.66106C2.26817 20.8375 1.89138 20.9936 1.61357 21.2714C1.33576 21.5492 1.17969 21.926 1.17969 22.3189V71.5781C1.17969 71.9709 1.33576 72.3477 1.61357 72.6255C1.89138 72.9033 2.26817 73.0594 2.66106 73.0594H57.2194C57.6123 73.0594 57.9891 72.9033 58.2669 72.6255C58.5447 72.3477 58.7008 71.9709 58.7008 71.5781V64.4213L63.8528 70.9752M66.6725 74.5622L68.2495 76.5683C70.3915 79.2931 74.4061 79.6016 76.9393 77.2359C79.4724 74.8704 79.4389 70.8439 76.8667 68.5208L65.3994 58.1639" stroke="#00E2C5" stroke-width="1.5" stroke-miterlimit="10" stroke-linecap="round" stroke-linejoin="round"/>
<path d="M53.4783 65.191C60.7021 65.191 66.5582 59.3349 66.5582 52.1111C66.5582 44.8873 60.7021 39.0312 53.4783 39.0312C46.2545 39.0312 40.3984 44.8873 40.3984 52.1111C40.3984 59.3349 46.2545 65.191 53.4783 65.191Z" stroke="#00E2C5" stroke-width="1.5" stroke-miterlimit="10" stroke-linecap="round" stroke-linejoin="round"/>
<path d="M53.4776 60.135C57.9094 60.135 61.5021 56.5423 61.5021 52.1104C61.5021 47.6786 57.9094 44.0859 53.4776 44.0859C49.0458 44.0859 45.4531 47.6786 45.4531 52.1104C45.4531 56.5423 49.0458 60.135 53.4776 60.135Z" stroke="#00E2C5" stroke-width="1.5" stroke-miterlimit="10" stroke-linecap="round" stroke-linejoin="round"/>
<path d="M72.4672 72.4483L73.389 73.4354M7.008 26.7695H10.8919M10.8919 61.3067V59.3229M10.8919 49.9464V45.3981M21.1468 51.9825V49.9987M21.1468 40.6222V36.0739M31.2121 60.6468V58.6631M31.2121 49.2864V44.7383M13.3024 66.6312H29.812M31.0112 34.3318H47.5208M1.17969 34.3318H5.11532M9.6455 34.3318H13.7172L21.2604 29.0462H58.7008M13.1211 59.3229H8.66276C8.32266 59.3229 7.99649 59.1878 7.756 58.9473C7.51551 58.7069 7.38041 58.3807 7.38041 58.0406V51.2286C7.38041 51.0602 7.41358 50.8934 7.47802 50.7379C7.54247 50.5823 7.63692 50.4409 7.756 50.3218C7.87508 50.2028 8.01644 50.1083 8.17203 50.0439C8.32761 49.9794 8.49436 49.9462 8.66276 49.9462H13.1211C13.2895 49.9462 13.4562 49.9794 13.6118 50.0439C13.7674 50.1083 13.9088 50.2028 14.0278 50.3218C14.1469 50.4409 14.2414 50.5823 14.3058 50.7379C14.3703 50.8934 14.4034 51.0602 14.4034 51.2286V58.0406C14.4034 58.3807 14.2683 58.7068 14.0278 58.9473C13.7873 59.1878 13.4612 59.3229 13.1211 59.3229ZM23.376 49.9987H18.9177C18.5776 49.9987 18.2514 49.8636 18.0109 49.6231C17.7704 49.3826 17.6353 49.0565 17.6353 48.7164V41.9044C17.6353 41.5643 17.7704 41.2381 18.0109 40.9976C18.2514 40.7571 18.5776 40.622 18.9177 40.622H23.376C23.7161 40.622 24.0423 40.7571 24.2828 40.9976C24.5233 41.2381 24.6584 41.5643 24.6584 41.9044V48.7164C24.6583 49.0565 24.5232 49.3826 24.2827 49.6231C24.0422 49.8636 23.7161 49.9987 23.376 49.9987ZM33.4411 58.6631H28.9828C28.6427 58.6631 28.3165 58.528 28.076 58.2875C27.8356 58.047 27.7004 57.7208 27.7004 57.3807V50.5688C27.7004 50.2287 27.8356 49.9025 28.076 49.662C28.3165 49.4215 28.6427 49.2864 28.9828 49.2864H33.4411C33.7812 49.2864 34.1074 49.4215 34.3479 49.662C34.5884 49.9025 34.7235 50.2287 34.7235 50.5688V57.3807C34.7234 57.7208 34.5883 58.047 34.3478 58.2875C34.1074 58.5279 33.7812 58.663 33.4411 58.6631Z" stroke="#00E2C5" stroke-width="1.5" stroke-miterlimit="10" stroke-linecap="round" stroke-linejoin="round"/>
</g>
<defs>
<clipPath id="clip0_13069_16873">
<rect width="80" height="80" fill="white"/>
</clipPath>
</defs>
</svg>
