<svg width="19" height="14" viewBox="0 0 19 14" fill="none" xmlns="http://www.w3.org/2000/svg">
<path fill-rule="evenodd" clip-rule="evenodd" d="M0.5 9C0.5 8.44771 0.947715 8 1.5 8L13.5 8C15.1569 8 16.5 6.65685 16.5 5L16.5 1C16.5 0.447715 16.9477 -7.24234e-08 17.5 0C18.0523 7.24233e-08 18.5 0.447715 18.5 1L18.5 5C18.5 7.76142 16.2614 10 13.5 10L1.5 10C0.947715 10 0.5 9.55228 0.5 9Z" fill="white"/>
<path fill-rule="evenodd" clip-rule="evenodd" d="M0.792893 9.70711C0.402369 9.31658 0.402369 8.68342 0.792893 8.29289L4.79289 4.29289C5.18342 3.90237 5.81658 3.90237 6.20711 4.29289C6.59763 4.68342 6.59763 5.31658 6.20711 5.70711L2.91421 9L6.20711 12.2929C6.59763 12.6834 6.59763 13.3166 6.20711 13.7071C5.81658 14.0976 5.18342 14.0976 4.79289 13.7071L0.792893 9.70711Z" fill="white"/>
</svg>
