<svg xmlns="http://www.w3.org/2000/svg" width="1920" height="142" viewBox="0 0 1920 142" fill="none">
<g opacity="0.5">
<path d="M107 1L70.7499 0.999999C52.6626 0.999999 37.9999 15.6627 37.9999 33.7501L37.9999 70.0001L107 70.0001L107 1Z" stroke="url(#paint0_linear_9201_12883)" stroke-width="2"/>
<path d="M36 72L-0.250053 72C-18.3374 72 -33.0001 86.6627 -33.0001 104.75L-33.0001 141L36 141L36 72Z" stroke="url(#paint1_linear_9201_12883)" stroke-width="2"/>
<path d="M36 1L-0.250053 0.999999C-18.3374 0.999999 -33.0001 15.6627 -33.0001 33.7501L-33.0001 70.0001L36 70.0001L36 1Z" stroke="url(#paint2_linear_9201_12883)" stroke-width="2"/>
<path d="M107 72L70.7499 72C52.6626 72 37.9999 86.6627 37.9999 104.75L37.9999 141L107 141L107 72Z" stroke="url(#paint3_linear_9201_12883)" stroke-width="2"/>
<path d="M71.5 36.5L35.2499 36.5C17.1626 36.5 2.49989 51.1627 2.49988 69.2501L2.49988 105.5L71.5 105.5L71.5 36.5Z" stroke="url(#paint4_linear_9201_12883)" stroke-width="2"/>
<path d="M109 141L145.25 141C163.337 141 178 126.337 178 108.25L178 72L109 72L109 141Z" stroke="url(#paint5_linear_9201_12883)" stroke-width="2"/>
<path d="M180 70.0001L216.25 70.0001C234.337 70.0001 249 55.3374 249 37.2501L249 1.00001L180 1.00001L180 70.0001Z" stroke="url(#paint6_linear_9201_12883)" stroke-width="2"/>
<path d="M180 141L216.25 141C234.337 141 249 126.337 249 108.25L249 72L180 72L180 141Z" stroke="url(#paint7_linear_9201_12883)" stroke-width="2"/>
<path d="M109 70.0001L145.25 70.0001C163.337 70.0001 178 55.3374 178 37.2501L178 1.00001L109 1.00001L109 70.0001Z" stroke="url(#paint8_linear_9201_12883)" stroke-width="2"/>
<path d="M144.5 105.5L180.75 105.5C198.837 105.5 213.5 90.8374 213.5 72.7501L213.5 36.5L144.5 36.5L144.5 105.5Z" stroke="url(#paint9_linear_9201_12883)" stroke-width="2"/>
<path d="M391 1L354.75 0.999999C336.663 0.999999 322 15.6627 322 33.7501L322 70.0001L391 70.0001L391 1Z" stroke="url(#paint10_linear_9201_12883)" stroke-width="2"/>
<path d="M320 72L283.75 72C265.663 72 251 86.6627 251 104.75L251 141L320 141L320 72Z" stroke="url(#paint11_linear_9201_12883)" stroke-width="2"/>
<path d="M320 1L283.75 0.999999C265.663 0.999999 251 15.6627 251 33.7501L251 70.0001L320 70.0001L320 1Z" stroke="url(#paint12_linear_9201_12883)" stroke-width="2"/>
<path d="M391 72L354.75 72C336.663 72 322 86.6627 322 104.75L322 141L391 141L391 72Z" stroke="url(#paint13_linear_9201_12883)" stroke-width="2"/>
<path d="M355.5 36.5L319.25 36.5C301.163 36.5 286.5 51.1627 286.5 69.2501L286.5 105.5L355.5 105.5L355.5 36.5Z" stroke="url(#paint14_linear_9201_12883)" stroke-width="2"/>
<path d="M393 1L429.25 0.999999C447.337 0.999999 462 15.6627 462 33.7501L462 70.0001L393 70.0001L393 1Z" stroke="url(#paint15_linear_9201_12883)" stroke-width="2"/>
<path d="M464 72L500.25 72C518.337 72 533 86.6627 533 104.75L533 141L464 141L464 72Z" stroke="url(#paint16_linear_9201_12883)" stroke-width="2"/>
<path d="M464 1L500.25 0.999999C518.337 0.999999 533 15.6627 533 33.7501L533 70.0001L464 70.0001L464 1Z" stroke="url(#paint17_linear_9201_12883)" stroke-width="2"/>
<path d="M393 72L429.25 72C447.337 72 462 86.6627 462 104.75L462 141L393 141L393 72Z" stroke="url(#paint18_linear_9201_12883)" stroke-width="2"/>
<path d="M428.5 36.5L464.75 36.5C482.837 36.5 497.5 51.1627 497.5 69.2501L497.5 105.5L428.5 105.5L428.5 36.5Z" stroke="url(#paint19_linear_9201_12883)" stroke-width="2"/>
<path d="M675 141L638.75 141C620.663 141 606 126.337 606 108.25L606 71.9999L675 71.9999L675 141Z" stroke="url(#paint20_linear_9201_12883)" stroke-width="2"/>
<path d="M604 70L567.75 70C549.663 70 535 55.3373 535 37.25L535 0.99991L604 0.999908L604 70Z" stroke="url(#paint21_linear_9201_12883)" stroke-width="2"/>
<path d="M604 141L567.75 141C549.663 141 535 126.337 535 108.25L535 71.9999L604 71.9999L604 141Z" stroke="url(#paint22_linear_9201_12883)" stroke-width="2"/>
<path d="M675 70L638.75 70C620.663 70 606 55.3373 606 37.25L606 0.99991L675 0.999908L675 70Z" stroke="url(#paint23_linear_9201_12883)" stroke-width="2"/>
<path d="M639.5 105.5L603.25 105.5C585.163 105.5 570.5 90.8373 570.5 72.75L570.5 36.4999L639.5 36.4999L639.5 105.5Z" stroke="url(#paint24_linear_9201_12883)" stroke-width="2"/>
<path d="M677 1L713.25 0.999999C731.337 0.999999 746 15.6627 746 33.7501L746 70.0001L677 70.0001L677 1Z" stroke="url(#paint25_linear_9201_12883)" stroke-width="2"/>
<path d="M748 72L784.25 72C802.337 72 817 86.6627 817 104.75L817 141L748 141L748 72Z" stroke="url(#paint26_linear_9201_12883)" stroke-width="2"/>
<path d="M748 1L784.25 0.999999C802.337 0.999999 817 15.6627 817 33.7501L817 70.0001L748 70.0001L748 1Z" stroke="url(#paint27_linear_9201_12883)" stroke-width="2"/>
<path d="M677 72L713.25 72C731.337 72 746 86.6627 746 104.75L746 141L677 141L677 72Z" stroke="url(#paint28_linear_9201_12883)" stroke-width="2"/>
<path d="M712.5 36.5L748.75 36.5C766.837 36.5 781.5 51.1627 781.5 69.2501L781.5 105.5L712.5 105.5L712.5 36.5Z" stroke="url(#paint29_linear_9201_12883)" stroke-width="2"/>
<path d="M959.004 141L922.754 141C904.667 141 890.004 126.337 890.004 108.25L890.004 71.9999L959.004 71.9999L959.004 141Z" stroke="url(#paint30_linear_9201_12883)" stroke-width="2"/>
<path d="M888.004 70L851.754 70C833.667 70 819.004 55.3373 819.004 37.25L819.004 0.99991L888.004 0.999908L888.004 70Z" stroke="url(#paint31_linear_9201_12883)" stroke-width="2"/>
<path d="M888.004 141L851.754 141C833.667 141 819.004 126.337 819.004 108.25L819.004 71.9999L888.004 71.9999L888.004 141Z" stroke="url(#paint32_linear_9201_12883)" stroke-width="2"/>
<path d="M959.004 70L922.754 70C904.667 70 890.004 55.3373 890.004 37.25L890.004 0.99991L959.004 0.999908L959.004 70Z" stroke="url(#paint33_linear_9201_12883)" stroke-width="2"/>
<path d="M923.504 105.5L887.254 105.5C869.167 105.5 854.504 90.8373 854.504 72.75L854.504 36.4999L923.504 36.4999L923.504 105.5Z" stroke="url(#paint34_linear_9201_12883)" stroke-width="2"/>
<path d="M961.004 1L997.254 0.999999C1015.34 0.999999 1030 15.6627 1030 33.7501L1030 70.0001L961.004 70.0001L961.004 1Z" stroke="url(#paint35_linear_9201_12883)" stroke-width="2"/>
<path d="M1032 72L1068.25 72C1086.34 72 1101 86.6627 1101 104.75L1101 141L1032 141L1032 72Z" stroke="url(#paint36_linear_9201_12883)" stroke-width="2"/>
<path d="M1032 1L1068.25 0.999999C1086.34 0.999999 1101 15.6627 1101 33.7501L1101 70.0001L1032 70.0001L1032 1Z" stroke="url(#paint37_linear_9201_12883)" stroke-width="2"/>
<path d="M961.004 72L997.254 72C1015.34 72 1030 86.6627 1030 104.75L1030 141L961.004 141L961.004 72Z" stroke="url(#paint38_linear_9201_12883)" stroke-width="2"/>
<path d="M996.504 36.5L1032.75 36.5C1050.84 36.5 1065.5 51.1627 1065.5 69.2501L1065.5 105.5L996.504 105.5L996.504 36.5Z" stroke="url(#paint39_linear_9201_12883)" stroke-width="2"/>
<path d="M1243 141L1206.75 141C1188.67 141 1174 126.337 1174 108.25L1174 71.9999L1243 71.9999L1243 141Z" stroke="url(#paint40_linear_9201_12883)" stroke-width="2"/>
<path d="M1172 70L1135.75 70C1117.67 70 1103 55.3373 1103 37.25L1103 0.99991L1172 0.999908L1172 70Z" stroke="url(#paint41_linear_9201_12883)" stroke-width="2"/>
<path d="M1172 141L1135.75 141C1117.67 141 1103 126.337 1103 108.25L1103 71.9999L1172 71.9999L1172 141Z" stroke="url(#paint42_linear_9201_12883)" stroke-width="2"/>
<path d="M1243 70L1206.75 70C1188.67 70 1174 55.3373 1174 37.25L1174 0.99991L1243 0.999908L1243 70Z" stroke="url(#paint43_linear_9201_12883)" stroke-width="2"/>
<path d="M1207.5 105.5L1171.25 105.5C1153.17 105.5 1138.5 90.8373 1138.5 72.75L1138.5 36.4999L1207.5 36.4999L1207.5 105.5Z" stroke="url(#paint44_linear_9201_12883)" stroke-width="2"/>
<path d="M1245 1L1281.25 0.999999C1299.34 0.999999 1314 15.6627 1314 33.7501L1314 70.0001L1245 70.0001L1245 1Z" stroke="url(#paint45_linear_9201_12883)" stroke-width="2"/>
<path d="M1316 72L1352.25 72C1370.34 72 1385 86.6627 1385 104.75L1385 141L1316 141L1316 72Z" stroke="url(#paint46_linear_9201_12883)" stroke-width="2"/>
<path d="M1316 1L1352.25 0.999999C1370.34 0.999999 1385 15.6627 1385 33.7501L1385 70.0001L1316 70.0001L1316 1Z" stroke="url(#paint47_linear_9201_12883)" stroke-width="2"/>
<path d="M1245 72L1281.25 72C1299.34 72 1314 86.6627 1314 104.75L1314 141L1245 141L1245 72Z" stroke="url(#paint48_linear_9201_12883)" stroke-width="2"/>
<path d="M1280.5 36.5L1316.75 36.5C1334.84 36.5 1349.5 51.1627 1349.5 69.2501L1349.5 105.5L1280.5 105.5L1280.5 36.5Z" stroke="url(#paint49_linear_9201_12883)" stroke-width="2"/>
<path d="M1527 141L1490.75 141C1472.67 141 1458 126.337 1458 108.25L1458 71.9999L1527 71.9999L1527 141Z" stroke="url(#paint50_linear_9201_12883)" stroke-width="2"/>
<path d="M1456 70L1419.75 70C1401.67 70 1387 55.3373 1387 37.25L1387 0.99991L1456 0.999908L1456 70Z" stroke="url(#paint51_linear_9201_12883)" stroke-width="2"/>
<path d="M1456 141L1419.75 141C1401.67 141 1387 126.337 1387 108.25L1387 71.9999L1456 71.9999L1456 141Z" stroke="url(#paint52_linear_9201_12883)" stroke-width="2"/>
<path d="M1527 70L1490.75 70C1472.67 70 1458 55.3373 1458 37.25L1458 0.99991L1527 0.999908L1527 70Z" stroke="url(#paint53_linear_9201_12883)" stroke-width="2"/>
<path d="M1491.5 105.5L1455.25 105.5C1437.17 105.5 1422.5 90.8373 1422.5 72.75L1422.5 36.4999L1491.5 36.4999L1491.5 105.5Z" stroke="url(#paint54_linear_9201_12883)" stroke-width="2"/>
<path d="M1529 1L1565.25 0.999999C1583.34 0.999999 1598 15.6627 1598 33.7501L1598 70.0001L1529 70.0001L1529 1Z" stroke="url(#paint55_linear_9201_12883)" stroke-width="2"/>
<path d="M1600 72L1636.25 72C1654.34 72 1669 86.6627 1669 104.75L1669 141L1600 141L1600 72Z" stroke="url(#paint56_linear_9201_12883)" stroke-width="2"/>
<path d="M1600 1L1636.25 0.999999C1654.34 0.999999 1669 15.6627 1669 33.7501L1669 70.0001L1600 70.0001L1600 1Z" stroke="url(#paint57_linear_9201_12883)" stroke-width="2"/>
<path d="M1529 72L1565.25 72C1583.34 72 1598 86.6627 1598 104.75L1598 141L1529 141L1529 72Z" stroke="url(#paint58_linear_9201_12883)" stroke-width="2"/>
<path d="M1564.5 36.5L1600.75 36.5C1618.84 36.5 1633.5 51.1627 1633.5 69.2501L1633.5 105.5L1564.5 105.5L1564.5 36.5Z" stroke="url(#paint59_linear_9201_12883)" stroke-width="2"/>
<path d="M1811 141L1774.75 141C1756.67 141 1742 126.337 1742 108.25L1742 71.9999L1811 71.9999L1811 141Z" stroke="url(#paint60_linear_9201_12883)" stroke-width="2"/>
<path d="M1740 70L1703.75 70C1685.67 70 1671 55.3373 1671 37.25L1671 0.99991L1740 0.999908L1740 70Z" stroke="url(#paint61_linear_9201_12883)" stroke-width="2"/>
<path d="M1740 141L1703.75 141C1685.67 141 1671 126.337 1671 108.25L1671 71.9999L1740 71.9999L1740 141Z" stroke="url(#paint62_linear_9201_12883)" stroke-width="2"/>
<path d="M1811 70L1774.75 70C1756.67 70 1742 55.3373 1742 37.25L1742 0.99991L1811 0.999908L1811 70Z" stroke="url(#paint63_linear_9201_12883)" stroke-width="2"/>
<path d="M1775.5 105.5L1739.25 105.5C1721.17 105.5 1706.5 90.8373 1706.5 72.75L1706.5 36.4999L1775.5 36.4999L1775.5 105.5Z" stroke="url(#paint64_linear_9201_12883)" stroke-width="2"/>
<path d="M1813 1L1849.25 0.999999C1867.34 0.999999 1882 15.6627 1882 33.7501L1882 70.0001L1813 70.0001L1813 1Z" stroke="url(#paint65_linear_9201_12883)" stroke-width="2"/>
<path d="M1884 72L1920.25 72C1938.34 72 1953 86.6627 1953 104.75L1953 141L1884 141L1884 72Z" stroke="url(#paint66_linear_9201_12883)" stroke-width="2"/>
<path d="M1884 1L1920.25 0.999999C1938.34 0.999999 1953 15.6627 1953 33.7501L1953 70.0001L1884 70.0001L1884 1Z" stroke="url(#paint67_linear_9201_12883)" stroke-width="2"/>
<path d="M1813 72L1849.25 72C1867.34 72 1882 86.6627 1882 104.75L1882 141L1813 141L1813 72Z" stroke="url(#paint68_linear_9201_12883)" stroke-width="2"/>
<path d="M1848.5 36.5L1884.75 36.5C1902.84 36.5 1917.5 51.1627 1917.5 69.2501L1917.5 105.5L1848.5 105.5L1848.5 36.5Z" stroke="url(#paint69_linear_9201_12883)" stroke-width="2"/>
</g>
<defs>
<linearGradient id="paint0_linear_9201_12883" x1="36.929" y1="-0.0710346" x2="108.071" y2="71.0713" gradientUnits="userSpaceOnUse">
<stop stop-color="#00E2C5"/>
<stop offset="1" stop-color="#00E2C5" stop-opacity="0"/>
</linearGradient>
<linearGradient id="paint1_linear_9201_12883" x1="-34.071" y1="70.929" x2="37.071" y2="142.071" gradientUnits="userSpaceOnUse">
<stop stop-color="#00E2C5"/>
<stop offset="1" stop-color="#00E2C5" stop-opacity="0"/>
</linearGradient>
<linearGradient id="paint2_linear_9201_12883" x1="-34.071" y1="-1.15785e-06" x2="37.071" y2="70.9293" gradientUnits="userSpaceOnUse">
<stop stop-color="white"/>
<stop offset="1" stop-color="white" stop-opacity="0"/>
</linearGradient>
<linearGradient id="paint3_linear_9201_12883" x1="36.929" y1="70.929" x2="108.071" y2="142.071" gradientUnits="userSpaceOnUse">
<stop stop-color="#00E2C5"/>
<stop offset="1" stop-color="#00E2C5" stop-opacity="0"/>
</linearGradient>
<linearGradient id="paint4_linear_9201_12883" x1="1.42902" y1="35.5" x2="72.571" y2="106.429" gradientUnits="userSpaceOnUse">
<stop stop-color="white"/>
<stop offset="1" stop-color="white" stop-opacity="0"/>
</linearGradient>
<linearGradient id="paint5_linear_9201_12883" x1="179.071" y1="142.071" x2="107.929" y2="70.9289" gradientUnits="userSpaceOnUse">
<stop stop-color="#00E2C5"/>
<stop offset="1" stop-color="#00E2C5" stop-opacity="0"/>
</linearGradient>
<linearGradient id="paint6_linear_9201_12883" x1="250.071" y1="71.0712" x2="178.929" y2="-0.0711097" gradientUnits="userSpaceOnUse">
<stop stop-color="#00E2C5"/>
<stop offset="1" stop-color="#00E2C5" stop-opacity="0"/>
</linearGradient>
<linearGradient id="paint7_linear_9201_12883" x1="250.071" y1="142" x2="178.929" y2="71.0708" gradientUnits="userSpaceOnUse">
<stop stop-color="white"/>
<stop offset="1" stop-color="white" stop-opacity="0"/>
</linearGradient>
<linearGradient id="paint8_linear_9201_12883" x1="179.071" y1="71.0712" x2="107.929" y2="-0.0711097" gradientUnits="userSpaceOnUse">
<stop stop-color="#00E2C5"/>
<stop offset="1" stop-color="#00E2C5" stop-opacity="0"/>
</linearGradient>
<linearGradient id="paint9_linear_9201_12883" x1="214.571" y1="106.5" x2="143.429" y2="35.5708" gradientUnits="userSpaceOnUse">
<stop stop-color="white"/>
<stop offset="1" stop-color="white" stop-opacity="0"/>
</linearGradient>
<linearGradient id="paint10_linear_9201_12883" x1="320.929" y1="-0.0710346" x2="392.071" y2="71.0713" gradientUnits="userSpaceOnUse">
<stop stop-color="#00E2C5"/>
<stop offset="1" stop-color="#00E2C5" stop-opacity="0"/>
</linearGradient>
<linearGradient id="paint11_linear_9201_12883" x1="249.929" y1="70.929" x2="321.071" y2="142.071" gradientUnits="userSpaceOnUse">
<stop stop-color="#00E2C5"/>
<stop offset="1" stop-color="#00E2C5" stop-opacity="0"/>
</linearGradient>
<linearGradient id="paint12_linear_9201_12883" x1="249.929" y1="-1.15785e-06" x2="321.071" y2="70.9293" gradientUnits="userSpaceOnUse">
<stop stop-color="white"/>
<stop offset="1" stop-color="white" stop-opacity="0"/>
</linearGradient>
<linearGradient id="paint13_linear_9201_12883" x1="320.929" y1="70.929" x2="392.071" y2="142.071" gradientUnits="userSpaceOnUse">
<stop stop-color="#00E2C5"/>
<stop offset="1" stop-color="#00E2C5" stop-opacity="0"/>
</linearGradient>
<linearGradient id="paint14_linear_9201_12883" x1="285.429" y1="35.5" x2="356.571" y2="106.429" gradientUnits="userSpaceOnUse">
<stop stop-color="white"/>
<stop offset="1" stop-color="white" stop-opacity="0"/>
</linearGradient>
<linearGradient id="paint15_linear_9201_12883" x1="463.071" y1="-0.0710346" x2="391.929" y2="71.0712" gradientUnits="userSpaceOnUse">
<stop stop-color="#00E2C5"/>
<stop offset="1" stop-color="#00E2C5" stop-opacity="0"/>
</linearGradient>
<linearGradient id="paint16_linear_9201_12883" x1="534.071" y1="70.929" x2="462.929" y2="142.071" gradientUnits="userSpaceOnUse">
<stop stop-color="#00E2C5"/>
<stop offset="1" stop-color="#00E2C5" stop-opacity="0"/>
</linearGradient>
<linearGradient id="paint17_linear_9201_12883" x1="534.071" y1="-1.15785e-06" x2="462.929" y2="70.9293" gradientUnits="userSpaceOnUse">
<stop stop-color="white"/>
<stop offset="1" stop-color="white" stop-opacity="0"/>
</linearGradient>
<linearGradient id="paint18_linear_9201_12883" x1="463.071" y1="70.929" x2="391.929" y2="142.071" gradientUnits="userSpaceOnUse">
<stop stop-color="#00E2C5"/>
<stop offset="1" stop-color="#00E2C5" stop-opacity="0"/>
</linearGradient>
<linearGradient id="paint19_linear_9201_12883" x1="498.571" y1="35.5" x2="427.429" y2="106.429" gradientUnits="userSpaceOnUse">
<stop stop-color="white"/>
<stop offset="1" stop-color="white" stop-opacity="0"/>
</linearGradient>
<linearGradient id="paint20_linear_9201_12883" x1="604.929" y1="142.071" x2="676.071" y2="70.9288" gradientUnits="userSpaceOnUse">
<stop stop-color="#00E2C5"/>
<stop offset="1" stop-color="#00E2C5" stop-opacity="0"/>
</linearGradient>
<linearGradient id="paint21_linear_9201_12883" x1="533.929" y1="71.071" x2="605.071" y2="-0.0712165" gradientUnits="userSpaceOnUse">
<stop stop-color="#00E2C5"/>
<stop offset="1" stop-color="#00E2C5" stop-opacity="0"/>
</linearGradient>
<linearGradient id="paint22_linear_9201_12883" x1="533.929" y1="142" x2="605.071" y2="71.0707" gradientUnits="userSpaceOnUse">
<stop stop-color="white"/>
<stop offset="1" stop-color="white" stop-opacity="0"/>
</linearGradient>
<linearGradient id="paint23_linear_9201_12883" x1="604.929" y1="71.071" x2="676.071" y2="-0.0712165" gradientUnits="userSpaceOnUse">
<stop stop-color="#00E2C5"/>
<stop offset="1" stop-color="#00E2C5" stop-opacity="0"/>
</linearGradient>
<linearGradient id="paint24_linear_9201_12883" x1="569.429" y1="106.5" x2="640.571" y2="35.5707" gradientUnits="userSpaceOnUse">
<stop stop-color="white"/>
<stop offset="1" stop-color="white" stop-opacity="0"/>
</linearGradient>
<linearGradient id="paint25_linear_9201_12883" x1="747.071" y1="-0.0710346" x2="675.929" y2="71.0712" gradientUnits="userSpaceOnUse">
<stop stop-color="#00E2C5"/>
<stop offset="1" stop-color="#00E2C5" stop-opacity="0"/>
</linearGradient>
<linearGradient id="paint26_linear_9201_12883" x1="818.071" y1="70.929" x2="746.929" y2="142.071" gradientUnits="userSpaceOnUse">
<stop stop-color="#00E2C5"/>
<stop offset="1" stop-color="#00E2C5" stop-opacity="0"/>
</linearGradient>
<linearGradient id="paint27_linear_9201_12883" x1="818.071" y1="-1.15785e-06" x2="746.929" y2="70.9293" gradientUnits="userSpaceOnUse">
<stop stop-color="white"/>
<stop offset="1" stop-color="white" stop-opacity="0"/>
</linearGradient>
<linearGradient id="paint28_linear_9201_12883" x1="747.071" y1="70.929" x2="675.929" y2="142.071" gradientUnits="userSpaceOnUse">
<stop stop-color="#00E2C5"/>
<stop offset="1" stop-color="#00E2C5" stop-opacity="0"/>
</linearGradient>
<linearGradient id="paint29_linear_9201_12883" x1="782.571" y1="35.5" x2="711.429" y2="106.429" gradientUnits="userSpaceOnUse">
<stop stop-color="white"/>
<stop offset="1" stop-color="white" stop-opacity="0"/>
</linearGradient>
<linearGradient id="paint30_linear_9201_12883" x1="888.933" y1="142.071" x2="960.075" y2="70.9288" gradientUnits="userSpaceOnUse">
<stop stop-color="#00E2C5"/>
<stop offset="1" stop-color="#00E2C5" stop-opacity="0"/>
</linearGradient>
<linearGradient id="paint31_linear_9201_12883" x1="817.933" y1="71.071" x2="889.075" y2="-0.0712165" gradientUnits="userSpaceOnUse">
<stop stop-color="#00E2C5"/>
<stop offset="1" stop-color="#00E2C5" stop-opacity="0"/>
</linearGradient>
<linearGradient id="paint32_linear_9201_12883" x1="817.933" y1="142" x2="889.075" y2="71.0707" gradientUnits="userSpaceOnUse">
<stop stop-color="white"/>
<stop offset="1" stop-color="white" stop-opacity="0"/>
</linearGradient>
<linearGradient id="paint33_linear_9201_12883" x1="888.933" y1="71.071" x2="960.075" y2="-0.0712165" gradientUnits="userSpaceOnUse">
<stop stop-color="#00E2C5"/>
<stop offset="1" stop-color="#00E2C5" stop-opacity="0"/>
</linearGradient>
<linearGradient id="paint34_linear_9201_12883" x1="853.433" y1="106.5" x2="924.575" y2="35.5707" gradientUnits="userSpaceOnUse">
<stop stop-color="white"/>
<stop offset="1" stop-color="white" stop-opacity="0"/>
</linearGradient>
<linearGradient id="paint35_linear_9201_12883" x1="1031.07" y1="-0.0710346" x2="959.933" y2="71.0712" gradientUnits="userSpaceOnUse">
<stop stop-color="#00E2C5"/>
<stop offset="1" stop-color="#00E2C5" stop-opacity="0"/>
</linearGradient>
<linearGradient id="paint36_linear_9201_12883" x1="1102.07" y1="70.929" x2="1030.93" y2="142.071" gradientUnits="userSpaceOnUse">
<stop stop-color="#00E2C5"/>
<stop offset="1" stop-color="#00E2C5" stop-opacity="0"/>
</linearGradient>
<linearGradient id="paint37_linear_9201_12883" x1="1102.07" y1="-1.15785e-06" x2="1030.93" y2="70.9293" gradientUnits="userSpaceOnUse">
<stop stop-color="white"/>
<stop offset="1" stop-color="white" stop-opacity="0"/>
</linearGradient>
<linearGradient id="paint38_linear_9201_12883" x1="1031.07" y1="70.929" x2="959.933" y2="142.071" gradientUnits="userSpaceOnUse">
<stop stop-color="#00E2C5"/>
<stop offset="1" stop-color="#00E2C5" stop-opacity="0"/>
</linearGradient>
<linearGradient id="paint39_linear_9201_12883" x1="1066.57" y1="35.5" x2="995.433" y2="106.429" gradientUnits="userSpaceOnUse">
<stop stop-color="white"/>
<stop offset="1" stop-color="white" stop-opacity="0"/>
</linearGradient>
<linearGradient id="paint40_linear_9201_12883" x1="1172.93" y1="142.071" x2="1244.07" y2="70.9288" gradientUnits="userSpaceOnUse">
<stop stop-color="#00E2C5"/>
<stop offset="1" stop-color="#00E2C5" stop-opacity="0"/>
</linearGradient>
<linearGradient id="paint41_linear_9201_12883" x1="1101.93" y1="71.071" x2="1173.07" y2="-0.0712165" gradientUnits="userSpaceOnUse">
<stop stop-color="#00E2C5"/>
<stop offset="1" stop-color="#00E2C5" stop-opacity="0"/>
</linearGradient>
<linearGradient id="paint42_linear_9201_12883" x1="1101.93" y1="142" x2="1173.07" y2="71.0707" gradientUnits="userSpaceOnUse">
<stop stop-color="white"/>
<stop offset="1" stop-color="white" stop-opacity="0"/>
</linearGradient>
<linearGradient id="paint43_linear_9201_12883" x1="1172.93" y1="71.071" x2="1244.07" y2="-0.0712165" gradientUnits="userSpaceOnUse">
<stop stop-color="#00E2C5"/>
<stop offset="1" stop-color="#00E2C5" stop-opacity="0"/>
</linearGradient>
<linearGradient id="paint44_linear_9201_12883" x1="1137.43" y1="106.5" x2="1208.57" y2="35.5707" gradientUnits="userSpaceOnUse">
<stop stop-color="white"/>
<stop offset="1" stop-color="white" stop-opacity="0"/>
</linearGradient>
<linearGradient id="paint45_linear_9201_12883" x1="1315.07" y1="-0.0710346" x2="1243.93" y2="71.0712" gradientUnits="userSpaceOnUse">
<stop stop-color="#00E2C5"/>
<stop offset="1" stop-color="#00E2C5" stop-opacity="0"/>
</linearGradient>
<linearGradient id="paint46_linear_9201_12883" x1="1386.07" y1="70.929" x2="1314.93" y2="142.071" gradientUnits="userSpaceOnUse">
<stop stop-color="#00E2C5"/>
<stop offset="1" stop-color="#00E2C5" stop-opacity="0"/>
</linearGradient>
<linearGradient id="paint47_linear_9201_12883" x1="1386.07" y1="-1.15785e-06" x2="1314.93" y2="70.9293" gradientUnits="userSpaceOnUse">
<stop stop-color="white"/>
<stop offset="1" stop-color="white" stop-opacity="0"/>
</linearGradient>
<linearGradient id="paint48_linear_9201_12883" x1="1315.07" y1="70.929" x2="1243.93" y2="142.071" gradientUnits="userSpaceOnUse">
<stop stop-color="#00E2C5"/>
<stop offset="1" stop-color="#00E2C5" stop-opacity="0"/>
</linearGradient>
<linearGradient id="paint49_linear_9201_12883" x1="1350.57" y1="35.5" x2="1279.43" y2="106.429" gradientUnits="userSpaceOnUse">
<stop stop-color="white"/>
<stop offset="1" stop-color="white" stop-opacity="0"/>
</linearGradient>
<linearGradient id="paint50_linear_9201_12883" x1="1456.93" y1="142.071" x2="1528.07" y2="70.9288" gradientUnits="userSpaceOnUse">
<stop stop-color="#00E2C5"/>
<stop offset="1" stop-color="#00E2C5" stop-opacity="0"/>
</linearGradient>
<linearGradient id="paint51_linear_9201_12883" x1="1385.93" y1="71.071" x2="1457.07" y2="-0.0712165" gradientUnits="userSpaceOnUse">
<stop stop-color="#00E2C5"/>
<stop offset="1" stop-color="#00E2C5" stop-opacity="0"/>
</linearGradient>
<linearGradient id="paint52_linear_9201_12883" x1="1385.93" y1="142" x2="1457.07" y2="71.0707" gradientUnits="userSpaceOnUse">
<stop stop-color="white"/>
<stop offset="1" stop-color="white" stop-opacity="0"/>
</linearGradient>
<linearGradient id="paint53_linear_9201_12883" x1="1456.93" y1="71.071" x2="1528.07" y2="-0.0712165" gradientUnits="userSpaceOnUse">
<stop stop-color="#00E2C5"/>
<stop offset="1" stop-color="#00E2C5" stop-opacity="0"/>
</linearGradient>
<linearGradient id="paint54_linear_9201_12883" x1="1421.43" y1="106.5" x2="1492.57" y2="35.5707" gradientUnits="userSpaceOnUse">
<stop stop-color="white"/>
<stop offset="1" stop-color="white" stop-opacity="0"/>
</linearGradient>
<linearGradient id="paint55_linear_9201_12883" x1="1599.07" y1="-0.0710346" x2="1527.93" y2="71.0712" gradientUnits="userSpaceOnUse">
<stop stop-color="#00E2C5"/>
<stop offset="1" stop-color="#00E2C5" stop-opacity="0"/>
</linearGradient>
<linearGradient id="paint56_linear_9201_12883" x1="1670.07" y1="70.929" x2="1598.93" y2="142.071" gradientUnits="userSpaceOnUse">
<stop stop-color="#00E2C5"/>
<stop offset="1" stop-color="#00E2C5" stop-opacity="0"/>
</linearGradient>
<linearGradient id="paint57_linear_9201_12883" x1="1670.07" y1="-1.15785e-06" x2="1598.93" y2="70.9293" gradientUnits="userSpaceOnUse">
<stop stop-color="white"/>
<stop offset="1" stop-color="white" stop-opacity="0"/>
</linearGradient>
<linearGradient id="paint58_linear_9201_12883" x1="1599.07" y1="70.929" x2="1527.93" y2="142.071" gradientUnits="userSpaceOnUse">
<stop stop-color="#00E2C5"/>
<stop offset="1" stop-color="#00E2C5" stop-opacity="0"/>
</linearGradient>
<linearGradient id="paint59_linear_9201_12883" x1="1634.57" y1="35.5" x2="1563.43" y2="106.429" gradientUnits="userSpaceOnUse">
<stop stop-color="white"/>
<stop offset="1" stop-color="white" stop-opacity="0"/>
</linearGradient>
<linearGradient id="paint60_linear_9201_12883" x1="1740.93" y1="142.071" x2="1812.07" y2="70.9288" gradientUnits="userSpaceOnUse">
<stop stop-color="#00E2C5"/>
<stop offset="1" stop-color="#00E2C5" stop-opacity="0"/>
</linearGradient>
<linearGradient id="paint61_linear_9201_12883" x1="1669.93" y1="71.071" x2="1741.07" y2="-0.0712165" gradientUnits="userSpaceOnUse">
<stop stop-color="#00E2C5"/>
<stop offset="1" stop-color="#00E2C5" stop-opacity="0"/>
</linearGradient>
<linearGradient id="paint62_linear_9201_12883" x1="1669.93" y1="142" x2="1741.07" y2="71.0707" gradientUnits="userSpaceOnUse">
<stop stop-color="white"/>
<stop offset="1" stop-color="white" stop-opacity="0"/>
</linearGradient>
<linearGradient id="paint63_linear_9201_12883" x1="1740.93" y1="71.071" x2="1812.07" y2="-0.0712165" gradientUnits="userSpaceOnUse">
<stop stop-color="#00E2C5"/>
<stop offset="1" stop-color="#00E2C5" stop-opacity="0"/>
</linearGradient>
<linearGradient id="paint64_linear_9201_12883" x1="1705.43" y1="106.5" x2="1776.57" y2="35.5707" gradientUnits="userSpaceOnUse">
<stop stop-color="white"/>
<stop offset="1" stop-color="white" stop-opacity="0"/>
</linearGradient>
<linearGradient id="paint65_linear_9201_12883" x1="1883.07" y1="-0.0710346" x2="1811.93" y2="71.0712" gradientUnits="userSpaceOnUse">
<stop stop-color="#00E2C5"/>
<stop offset="1" stop-color="#00E2C5" stop-opacity="0"/>
</linearGradient>
<linearGradient id="paint66_linear_9201_12883" x1="1954.07" y1="70.929" x2="1882.93" y2="142.071" gradientUnits="userSpaceOnUse">
<stop stop-color="#00E2C5"/>
<stop offset="1" stop-color="#00E2C5" stop-opacity="0"/>
</linearGradient>
<linearGradient id="paint67_linear_9201_12883" x1="1954.07" y1="-1.15785e-06" x2="1882.93" y2="70.9293" gradientUnits="userSpaceOnUse">
<stop stop-color="white"/>
<stop offset="1" stop-color="white" stop-opacity="0"/>
</linearGradient>
<linearGradient id="paint68_linear_9201_12883" x1="1883.07" y1="70.929" x2="1811.93" y2="142.071" gradientUnits="userSpaceOnUse">
<stop stop-color="#00E2C5"/>
<stop offset="1" stop-color="#00E2C5" stop-opacity="0"/>
</linearGradient>
<linearGradient id="paint69_linear_9201_12883" x1="1918.57" y1="35.5" x2="1847.43" y2="106.429" gradientUnits="userSpaceOnUse">
<stop stop-color="white"/>
<stop offset="1" stop-color="white" stop-opacity="0"/>
</linearGradient>
</defs>
</svg>