<svg width="25" height="24" viewBox="0 0 25 24" fill="none" xmlns="http://www.w3.org/2000/svg">
<g id="eva:attach-2-outline">
<path id="Vector" d="M8.26226 18.7836C7.15027 18.1242 6.33379 17.068 5.99184 15.8465C5.64988 14.625 5.81037 13.3379 6.4381 12.2675L10.7489 5.36877C11.2445 4.62102 12.0289 4.10761 12.9305 3.94092C13.8321 3.77423 14.7774 3.96783 15.5595 4.47936C16.3645 4.95701 16.9552 5.72211 17.202 6.60668C17.4489 7.49126 17.3316 8.42303 16.876 9.19744L12.561 16.1029C12.244 16.5449 11.7627 16.8451 11.2153 16.9424C10.6679 17.0397 10.0956 16.9267 9.61512 16.6264C9.13466 16.3262 8.78223 15.8614 8.6297 15.3267C8.47716 14.7921 8.53602 14.2279 8.79426 13.7492L12.7744 7.3796C12.8868 7.19969 13.0691 7.07368 13.2811 7.02928C13.4932 6.98488 13.7176 7.02574 13.905 7.14286C14.0924 7.25998 14.2275 7.44377 14.2806 7.6538C14.3336 7.86383 14.3003 8.08289 14.1878 8.2628L10.2077 14.6324C10.153 14.7513 10.1452 14.8874 10.1858 15.015C10.2265 15.1426 10.3127 15.2529 10.4283 15.3251C10.5438 15.3974 10.6808 15.4265 10.8133 15.4071C10.9458 15.3877 11.0647 15.321 11.1476 15.2197L15.4626 8.31424C15.6914 7.89921 15.7409 7.40621 15.6003 6.94225C15.4597 6.47828 15.1405 6.08079 14.7118 5.83603C14.3039 5.5606 13.808 5.44984 13.331 5.52765C12.854 5.60547 12.4343 5.86562 12.1623 6.25197L7.85151 13.1507C7.4484 13.8613 7.3545 14.7103 7.59038 15.5118C7.82626 16.3133 8.3727 17.0019 9.11001 17.4269C9.8152 17.9033 10.6737 18.0926 11.4975 17.9532C12.3213 17.8139 13.0432 17.3573 13.5052 16.6835L17.816 9.78476C17.9284 9.60486 18.1106 9.47884 18.3227 9.43445C18.5347 9.39005 18.7591 9.4309 18.9465 9.54802C19.134 9.66514 19.2691 9.84893 19.3221 10.059C19.3751 10.269 19.3418 10.4881 19.2294 10.668L14.9186 17.5667C14.2316 18.6001 13.1451 19.3086 11.8974 19.5367C10.6496 19.7648 9.34236 19.494 8.26226 18.7836Z" fill="#00E2C5"/>
</g>
</svg>
