<svg width="24" height="24" viewBox="0 0 24 24" fill="none" xmlns="http://www.w3.org/2000/svg">
<g clip-path="url(#clip0_5976_27112)">
<path d="M12 23L5.636 16.5563C4.37734 15.2819 3.52019 13.6581 3.17293 11.8905C2.82567 10.1228 3.00391 8.29051 3.6851 6.62539C4.36629 4.96027 5.51984 3.53707 6.99988 2.53576C8.47992 1.53445 10.22 1 12 1C13.78 1 15.5201 1.53445 17.0001 2.53576C18.4802 3.53707 19.6337 4.96027 20.3149 6.62539C20.9961 8.29051 21.1743 10.1228 20.8271 11.8905C20.4798 13.6581 19.6227 15.2819 18.364 16.5563L12 23ZM16.95 15.1246C17.9289 14.1333 18.5955 12.8704 18.8656 11.4956C19.1356 10.1207 18.9969 8.69569 18.4671 7.40064C17.9373 6.10558 17.04 4.99868 15.8889 4.21991C14.7378 3.44114 13.3844 3.02548 12 3.02548C10.6156 3.02548 9.26222 3.44114 8.11109 4.21991C6.95996 4.99868 6.06275 6.10558 5.53292 7.40064C5.00308 8.69569 4.86442 10.1207 5.13445 11.4956C5.40449 12.8704 6.07111 14.1333 7.05 15.1246L12 20.1366L16.95 15.1246ZM12 12.1377C11.4696 12.1377 10.9609 11.9243 10.5858 11.5445C10.2107 11.1648 10 10.6497 10 10.1126C10 9.57554 10.2107 9.06047 10.5858 8.6807C10.9609 8.30093 11.4696 8.08757 12 8.08757C12.5304 8.08757 13.0391 8.30093 13.4142 8.6807C13.7893 9.06047 14 9.57554 14 10.1126C14 10.6497 13.7893 11.1648 13.4142 11.5445C13.0391 11.9243 12.5304 12.1377 12 12.1377Z" fill="#00E2C5"/>
</g>
<defs>
<clipPath id="clip0_5976_27112">
<rect width="24" height="24" fill="white"/>
</clipPath>
</defs>
</svg>
