<svg width="26" height="17" viewBox="0 0 26 17" fill="none" xmlns="http://www.w3.org/2000/svg">
<path d="M14.8311 6.23669C14.7076 8.01112 15.1124 9.78242 15.9945 11.3271C16.8405 12.7593 18.0436 13.9474 19.4864 14.7751C20.2353 15.2141 21.0331 15.564 21.8636 15.8174C22.0791 15.8828 22.2967 15.9425 22.5162 15.9965V15.9966C22.7229 16.055 22.9336 16.0985 23.1466 16.1265C23.5409 16.1628 23.9292 16.0115 24.1952 15.7183C24.4611 15.4251 24.5739 15.0239 24.4995 14.6351C24.4252 14.2462 24.1724 13.9149 23.8169 13.7406C23.6442 13.6683 23.4635 13.6167 23.2785 13.587C22.8408 13.4889 22.4107 13.3587 21.992 13.1977C20.3833 12.6103 19.0261 11.4867 18.1488 10.0159C18.3294 10.121 18.5167 10.2144 18.7093 10.2955C19.5201 10.6296 20.4051 10.7424 21.2739 10.6222C22.1425 10.502 22.9636 10.1532 23.6532 9.61135C24.5656 8.88482 25.1964 7.86307 25.437 6.72175C25.6776 5.58051 25.5131 4.39105 24.9717 3.35801C24.4303 2.32488 23.5459 1.51277 22.4706 1.06113C21.6287 0.725242 20.7172 0.601203 19.8162 0.699926C18.9152 0.798638 18.0522 1.11701 17.303 1.62705C16.6543 2.08926 16.1088 2.68116 15.701 3.36539C15.2956 4.06529 15.0208 4.8331 14.89 5.63126C14.8648 5.8326 14.8447 6.0343 14.8314 6.23665L14.8311 6.23669ZM0.748447 6.35728C0.649008 8.1164 1.06865 9.86591 1.95522 11.3886C2.80972 12.8092 4.0164 13.9852 5.45849 14.8028C6.21046 15.2387 7.01088 15.585 7.84339 15.8344C8.05996 15.8994 8.27816 15.9579 8.49801 16.0101C8.69999 16.0681 8.90662 16.1083 9.11562 16.1301C9.44966 16.1489 9.77752 16.0342 10.0268 15.811C10.2762 15.5879 10.4265 15.2748 10.4447 14.9408C10.4629 14.6066 10.3476 14.2791 10.1241 14.0301C10.0131 13.9062 9.8786 13.8056 9.7284 13.7343C9.54693 13.6616 9.35789 13.6093 9.16486 13.5783C8.72836 13.4785 8.2997 13.3469 7.88234 13.1846C6.28802 12.5945 4.94397 11.4763 4.07364 10.0161C4.2542 10.1213 4.44151 10.2147 4.63417 10.2957C5.44783 10.6309 6.33613 10.7432 7.20761 10.621C8.07906 10.4987 8.90219 10.1464 9.59228 9.60022C10.5068 8.8665 11.1355 7.83563 11.3691 6.68681C11.6027 5.53784 11.4265 4.34345 10.8711 3.31072C10.3158 2.27812 9.41634 1.47268 8.32896 1.03427C7.48068 0.709049 6.56538 0.597492 5.66383 0.709422C4.7622 0.82135 3.90197 1.15329 3.15899 1.67603C2.51287 2.15182 1.97319 2.75711 1.57424 3.45319C1.3677 3.81467 1.19981 4.19694 1.0732 4.59351C0.948242 4.94197 0.860195 5.30254 0.810329 5.66939C0.781801 5.89826 0.761292 6.12759 0.748806 6.35744L0.748447 6.35728Z" fill="#00e2c5"/>
</svg>
