<svg width="24" height="24" viewBox="0 0 24 24" fill="none" xmlns="http://www.w3.org/2000/svg">
<path d="M4.15252 4H8.64247L10.0897 7.61803L7.7648 9.16795C7.4866 9.35342 7.3195 9.66565 7.3195 10C7.32204 10.0936 7.3195 10.001 7.3195 10.001L7.3195 10.002L7.31951 10.0043L7.31954 10.0093L7.31969 10.0217C7.31983 10.0309 7.32009 10.0421 7.32051 10.0552C7.32135 10.0814 7.32288 10.1153 7.32562 10.1564C7.3311 10.2385 7.34141 10.3494 7.3608 10.4852C7.39956 10.7565 7.47478 11.1281 7.62082 11.5662C7.91405 12.4459 8.49023 13.5849 9.61239 14.7071C10.7346 15.8293 11.8736 16.4054 12.7533 16.6987C13.1914 16.8447 13.563 16.9199 13.8343 16.9587C13.9701 16.9781 14.081 16.9884 14.1631 16.9939C14.2042 16.9966 14.2381 16.9981 14.2643 16.999C14.2774 16.9994 14.2886 16.9997 14.2978 16.9998L14.3102 17L14.3152 17L14.3175 17L14.3185 17C14.3185 17 14.4301 16.9939 14.3195 17C14.6983 17 15.0445 16.786 15.2139 16.4472L15.8836 15.1078L20.3195 15.8471V20.167C18.2084 20.4723 12.5069 20.7732 8.02661 16.2929C3.54631 11.8126 3.84722 6.1111 4.15252 4ZM9.39315 10.4861L11.1991 9.28213C11.986 8.75751 12.2979 7.75338 11.9466 6.87525L10.4994 3.25722C10.1957 2.4979 9.46028 2 8.64247 2H4.10028C3.19177 2 2.33659 2.63116 2.18744 3.6169C1.84813 5.8595 1.38629 12.481 6.61239 17.7071C11.8385 22.9332 18.46 22.4714 20.7026 22.1321C21.6883 21.9829 22.3195 21.1277 22.3195 20.2192V15.8471C22.3195 14.8694 21.6127 14.0351 20.6483 13.8743L16.2124 13.135C15.3464 12.9907 14.4874 13.4281 14.0948 14.2134L13.7483 14.9064C13.6394 14.8796 13.5178 14.8453 13.3857 14.8013C12.7654 14.5946 11.9044 14.1707 11.0266 13.2929C10.1488 12.4151 9.72495 11.5541 9.51818 10.9338C9.46231 10.7662 9.42209 10.6154 9.39315 10.4861Z" fill="#00E2C5"/>
</svg>
