<svg width="112" height="71" viewBox="0 0 112 71" fill="none" xmlns="http://www.w3.org/2000/svg">
<path opacity="0.3" d="M111.341 10.8825C111.86 10.6941 112.128 10.1205 111.94 9.60133L108.869 1.1414C108.681 0.622257 108.107 0.354166 107.588 0.542603C107.069 0.73104 106.801 1.30465 106.989 1.82379L109.719 9.34373L102.199 12.0733C101.68 12.2617 101.412 12.8353 101.6 13.3545C101.789 13.8736 102.362 14.1417 102.881 13.9533L111.341 10.8825ZM2.17382 66.372C2.21509 65.8213 1.80208 65.3414 1.25133 65.3001C0.700594 65.2588 0.220676 65.6718 0.179409 66.2226L2.17382 66.372ZM1.58322 56.7769C1.46315 57.316 1.80282 57.8504 2.3419 57.9704C2.88097 58.0905 3.41531 57.7508 3.53538 57.2117L1.58322 56.7769ZM6.17315 48.3268C6.36617 47.8093 6.10316 47.2334 5.58571 47.0403C5.06825 46.8473 4.49229 47.1103 4.29927 47.6278L6.17315 48.3268ZM8.22235 38.9317C7.9625 39.419 8.1469 40.0247 8.63423 40.2846C9.12156 40.5445 9.72728 40.3601 9.98714 39.8727L8.22235 38.9317ZM14.8757 31.9864C15.1965 31.5367 15.0919 30.9123 14.6423 30.5915C14.1927 30.2708 13.5682 30.3754 13.2475 30.825L14.8757 31.9864ZM19.272 23.433C18.8963 23.8379 18.92 24.4706 19.3249 24.8463C19.7297 25.2219 20.3624 25.1982 20.7381 24.7934L19.272 23.433ZM27.4724 18.412C27.8969 18.0587 27.9547 17.4282 27.6014 17.0037C27.2481 16.5791 26.6176 16.5214 26.1931 16.8747L27.4724 18.412ZM33.9031 11.2631C33.4363 11.5583 33.2973 12.176 33.5926 12.6428C33.8878 13.1095 34.5055 13.2485 34.9723 12.9533L33.9031 11.2631ZM43.1183 8.52008C43.6198 8.28857 43.8386 7.69441 43.607 7.19299C43.3755 6.69157 42.7814 6.47277 42.28 6.70428L43.1183 8.52008ZM51.1838 3.28669C50.6563 3.45013 50.3611 4.01029 50.5246 4.53784C50.688 5.06538 51.2482 5.36054 51.7757 5.1971L51.1838 3.28669ZM60.7954 3.03993C61.3398 2.94681 61.7056 2.43001 61.6125 1.88563C61.5194 1.34125 61.0026 0.975444 60.4582 1.06857L60.7954 3.03993ZM69.9386 0.0670872C69.3868 0.0901846 68.9582 0.556232 68.9813 1.10803C69.0043 1.65984 69.4704 2.08843 70.0222 2.06534L69.9386 0.0670872ZM79.3083 2.24777C79.8588 2.29187 80.3408 1.88134 80.3849 1.33082C80.429 0.780295 80.0185 0.298258 79.468 0.254157L79.3083 2.24777ZM88.91 1.56195C88.3681 1.45554 87.8425 1.8086 87.7361 2.35054C87.6297 2.89248 87.9828 3.41807 88.5247 3.52448L88.91 1.56195ZM97.5287 5.79381C98.0566 5.95612 98.6161 5.65975 98.7784 5.13185C98.9407 4.60396 98.6443 4.04444 98.1164 3.88213L97.5287 5.79381ZM107.058 7.11115C106.548 6.89954 105.963 7.14155 105.751 7.65169C105.54 8.16183 105.782 8.74692 106.292 8.95852L107.058 7.11115ZM2 71C2 69.4554 2.05845 67.9117 2.17382 66.372L0.179409 66.2226C0.0603551 67.8114 0 69.4049 0 71H2ZM3.53538 57.2117C4.20544 54.2033 5.08872 51.2339 6.17315 48.3268L4.29927 47.6278C3.1833 50.6195 2.27363 53.6771 1.58322 56.7769L3.53538 57.2117ZM9.98714 39.8727C11.4373 37.1532 13.0707 34.517 14.8757 31.9864L13.2475 30.825C11.3925 33.4257 9.71335 36.1355 8.22235 38.9317L9.98714 39.8727ZM20.7381 24.7934C22.8327 22.5359 25.0812 20.4018 27.4724 18.412L26.1931 16.8747C23.7354 18.9199 21.4245 21.1132 19.272 23.433L20.7381 24.7934ZM34.9723 12.9533C37.5662 11.3124 40.285 9.82826 43.1183 8.52008L42.28 6.70428C39.366 8.04969 36.5702 9.57595 33.9031 11.2631L34.9723 12.9533ZM51.7757 5.1971C54.6894 4.29437 57.699 3.56964 60.7954 3.03993L60.4582 1.06857C57.2751 1.61311 54.1805 2.35826 51.1838 3.28669L51.7757 5.1971ZM70.0222 2.06534C73.0515 1.93854 76.1492 1.99471 79.3083 2.24777L79.468 0.254157C76.2285 -0.00534713 73.0495 -0.0631332 69.9386 0.0670872L70.0222 2.06534ZM88.5247 3.52448C91.4827 4.1053 94.4858 4.85825 97.5287 5.79381L98.1164 3.88213C95.0083 2.9265 91.9377 2.15644 88.91 1.56195L88.5247 3.52448ZM106.292 8.95852C107.713 9.54803 109.141 10.1777 110.577 10.8485L111.423 9.03659C109.962 8.35354 108.507 7.71204 107.058 7.11115L106.292 8.95852Z" fill="white"/>
</svg>
