<svg width="60" height="60" viewBox="0 0 60 60" fill="none" xmlns="http://www.w3.org/2000/svg">
<path d="M20.0572 29.9712L19.636 31.9368H26.656L23.2864 47.9424H7L10.6504 30.8136C12.0544 24.3552 14.254 19.722 17.2492 16.914C20.2444 14.106 24.7372 12.468 30.7276 12L29.1832 20.424C26.3752 20.7048 24.316 21.5472 23.0056 22.9512C21.7888 24.2616 20.806 26.6016 20.0572 29.9712ZM52.9108 12L51.226 20.424C48.418 20.7048 46.3588 21.5472 45.0484 22.9512C43.738 24.2616 42.7552 26.6016 42.1 29.9712L41.6788 31.9368H48.8392L45.3292 47.9424H29.0428L32.6932 30.8136C34.1908 24.3552 36.4372 19.722 39.4324 16.914C42.4276 14.106 46.9204 12.468 52.9108 12Z" fill="#00E2C5"/>
</svg>
