<svg width="20" height="20" viewBox="0 0 20 20" fill="none" xmlns="http://www.w3.org/2000/svg">
<path d="M19.747 14.7748L13.6857 8.98923L17.1032 5.07395C17.1044 5.07268 17.106 5.07236 17.1072 5.0711C17.1084 5.06967 17.1087 5.06793 17.1099 5.0665L18.702 3.24241C19.1157 2.76372 19.09 2.08319 18.6423 1.72352L16.7482 0.221261C16.5441 0.0575797 16.281 -0.0202166 16.0035 0.00449863C15.6912 0.0312769 15.3911 0.186875 15.1823 0.428344L13.598 2.23913C13.591 2.2461 13.5815 2.24927 13.575 2.25672C13.5686 2.264 13.5671 2.27335 13.5613 2.28112L10.4193 5.87178L4.99797 0.697122C4.66032 0.374835 4.1117 0.374835 3.77419 0.697122L0.253238 4.05787C-0.0844127 4.38016 -0.0844127 4.90382 0.253238 5.22597L6.10548 10.8119L1.94147 15.5834C1.89582 15.6357 1.86926 15.6956 1.85316 15.7575C1.85183 15.7626 1.84735 15.7662 1.84618 15.7713L1.01333 19.4738C0.97764 19.6319 1.0369 19.7961 1.16738 19.8989C1.25071 19.9653 1.35447 20 1.45905 20C1.51831 20 1.57758 19.9889 1.63369 19.9669L5.28511 18.5207C5.28743 18.5198 5.28876 18.5176 5.29108 18.5164C5.35433 18.4905 5.41276 18.4521 5.46007 18.3982C5.46041 18.3979 5.46041 18.3976 5.46057 18.3973L9.37029 13.9284L15.0028 19.3047C15.1717 19.4646 15.3929 19.5452 15.6142 19.5452C15.8355 19.5452 16.0573 19.4644 16.2256 19.3037L19.7479 15.9422C20.0844 15.6201 20.0839 15.0964 19.7472 14.7751L19.747 14.7748ZM15.8828 0.984888C15.9394 0.919922 16.0133 0.875716 16.163 0.888866L18.0571 2.39113C18.0971 2.42345 18.1056 2.56415 17.9997 2.68664L16.6979 4.17782L14.5719 2.48366L15.8828 0.984888ZM13.9872 3.1517L16.1141 4.84647L13.0377 8.37056L11.067 6.4896L13.9872 3.1517ZM2.57893 16.6597L4.24196 17.9909L2.08758 18.8445L2.57893 16.6597ZM5.05306 17.5047L2.93319 15.8077L4.12527 14.4417L6.75344 11.4305L8.72292 13.3104L5.05306 17.5047ZM15.6471 18.688L13.7059 16.8433L14.4715 16.1128C14.6496 15.9428 14.6496 15.6674 14.4715 15.4972C14.2934 15.3272 14.0049 15.3272 13.8265 15.4972L13.0594 16.2291L12.4243 15.6256L13.1927 14.892C13.3709 14.7219 13.3709 14.4466 13.1927 14.2764C13.0146 14.1064 12.7261 14.1064 12.5478 14.2764L11.7781 15.0114L11.1426 14.4076L11.9137 13.6719C12.0918 13.5018 12.0918 13.2265 11.9137 13.0563C11.7356 12.8863 11.4471 12.8863 11.2688 13.0563L10.4962 13.7934L9.86073 13.1895L10.6345 12.451C10.8126 12.281 10.8126 12.0056 10.6345 11.8354C10.4564 11.6654 10.1679 11.6654 9.98954 11.8354L9.21431 12.5754L8.57869 11.9715L9.35574 11.2301C9.53386 11.0601 9.53386 10.7847 9.35574 10.6145C9.17762 10.4445 8.88913 10.4445 8.71081 10.6145L7.93227 11.3573L7.32006 10.7755C7.34363 10.7462 7.35874 10.7135 7.37334 10.681L8.07654 10.0092C8.25466 9.83922 8.25466 9.56385 8.07654 9.39365C7.89842 9.22363 7.60992 9.22363 7.43161 9.39365L6.65073 10.1396L6.0151 9.53562L6.79781 8.7882C6.97593 8.61818 6.97593 8.34281 6.79781 8.17261C6.61969 8.00259 6.33119 8.00259 6.15287 8.17261L5.36868 8.92129L4.73322 8.31742L5.51857 7.5681C5.69669 7.39808 5.69669 7.12271 5.51857 6.95251C5.34044 6.78249 5.05195 6.78249 4.87363 6.95251L4.08676 7.70325L3.45148 7.09955L4.24001 6.34722C4.41813 6.17721 4.41813 5.90184 4.24001 5.73164C4.06188 5.56162 3.77339 5.56162 3.59507 5.73164L2.8059 6.48587L2.17028 5.88184L2.96161 5.12684C3.13973 4.95682 3.13973 4.68145 2.96161 4.51125C2.78349 4.34123 2.495 4.34123 2.31668 4.51125L1.52386 5.26767L0.897879 4.67269L4.35292 1.31195L12.7278 9.30615L19.1019 15.327L15.6471 18.688Z" fill="#00E2C5"/>
</svg>
