<svg width="18" height="17" viewBox="0 0 18 17" fill="none" xmlns="http://www.w3.org/2000/svg">
<path d="M0 1.78947C0 0.801175 0.805887 0 1.8 0H16.2C17.1941 0 18 0.801175 18 1.78947V11.6316C18 12.6199 17.1941 13.4211 16.2 13.4211H9.9V15.2105H12.6C13.0971 15.2105 13.5 15.6111 13.5 16.1053C13.5 16.5994 13.0971 17 12.6 17H5.4C4.90294 17 4.5 16.5994 4.5 16.1053C4.5 15.6111 4.90294 15.2105 5.4 15.2105H8.1V13.4211H1.8C0.805888 13.4211 0 12.6199 0 11.6316V1.78947ZM16.2 11.6316V1.78947H1.8V11.6316H16.2Z" fill="#00E2C5"/>
</svg>
