<svg width="24" height="19" viewBox="0 0 24 19" fill="none" xmlns="http://www.w3.org/2000/svg">
<path d="M7.3334 17C7.2597 17 7.17985 16.9681 7.09386 16.9044C7.00788 16.8407 6.92803 16.7771 6.85433 16.7134L0.386938 10.3442C0.239533 10.1956 0.135121 10.0364 0.0737026 9.86652C0.0245676 9.67545 0 9.46314 0 9.22961C0 8.97484 0.0368512 8.76254 0.110554 8.59269C0.19654 8.40162 0.307094 8.24239 0.442215 8.115L6.79905 1.87323C6.87276 1.80954 6.94646 1.75647 7.02016 1.71401C7.09386 1.65031 7.16142 1.61847 7.22284 1.61847C7.38253 1.59724 7.51765 1.68216 7.62821 1.87323C7.73876 2.06431 7.79404 2.28723 7.79404 2.542C7.79404 2.7543 7.76333 2.92414 7.70191 3.05153C7.65277 3.17891 7.57293 3.29568 7.46238 3.40183L0.976558 9.70729L0.939707 8.81561L7.38867 15.1211C7.56065 15.2697 7.67734 15.4183 7.73876 15.5669C7.80018 15.6943 7.83089 15.8641 7.83089 16.0764C7.83089 16.31 7.77561 16.5223 7.66506 16.7134C7.56679 16.9044 7.45624 17 7.3334 17Z" fill="#00E2C5"/>
<path d="M15.6989 16.8407C15.5638 16.8407 15.441 16.7452 15.3304 16.5541C15.2321 16.3418 15.183 16.1295 15.183 15.9172C15.183 15.7049 15.2137 15.5351 15.2751 15.4077C15.3488 15.2803 15.4655 15.1423 15.6252 14.9937L22.1663 8.81561L22.2032 9.67545L15.5515 3.2426C15.4532 3.15768 15.3734 3.05153 15.312 2.92415C15.2628 2.77553 15.2383 2.59507 15.2383 2.38277C15.2383 2.128 15.2874 1.90508 15.3857 1.71401C15.4962 1.52293 15.6252 1.43801 15.7726 1.45924C15.834 1.45924 15.9016 1.49109 15.9753 1.55478C16.0613 1.59724 16.1411 1.66093 16.2148 1.74585L22.6822 8.05131C22.8296 8.19993 22.9402 8.35916 23.0139 8.529C23.0999 8.69884 23.1429 8.91115 23.1429 9.16592C23.1429 9.42068 23.1122 9.6436 23.0507 9.83468C22.9893 10.0045 22.8849 10.1531 22.7375 10.2805L16.1596 16.5541C16.0858 16.6391 16.006 16.7134 15.92 16.7771C15.8463 16.8195 15.7726 16.8407 15.6989 16.8407Z" fill="#00E2C5"/>
<path d="M9.75454 18.5683C9.62891 18.6204 9.51442 18.6196 9.41106 18.5658C9.3077 18.512 9.2413 18.4187 9.21188 18.286C9.19472 18.2085 9.19727 18.1168 9.21952 18.0109L12.8836 0.887199C12.9225 0.701894 12.9725 0.566381 13.0335 0.480659C13.105 0.390596 13.1983 0.321681 13.3135 0.273916C13.4077 0.234834 13.5053 0.236651 13.6062 0.279367C13.7176 0.31774 13.7892 0.408849 13.8211 0.552693C13.8431 0.652278 13.8443 0.760547 13.8245 0.877501L10.1641 18.0178C10.1178 18.17 10.0641 18.2889 10.0031 18.3746C9.94207 18.4603 9.85922 18.5249 9.75454 18.5683Z" fill="#00E2C5"/>
</svg>
