<svg width="188" height="49" viewBox="0 0 188 49" fill="none" xmlns="http://www.w3.org/2000/svg">
<g clip-path="url(#clip0_17428_53237)">
<g clip-path="url(#clip1_17428_53237)">
<path d="M5.28539 20.3525C6.22164 19.5081 8.40914 18.9175 10.9598 18.9175C13.5104 18.9175 15.6935 19.5081 16.6341 20.3525C16.9491 20.0681 17.1241 19.7575 17.1241 19.4338C17.1241 18.1344 14.3679 17.08 10.9641 17.08C7.56039 17.08 4.80414 18.1344 4.80414 19.4338C4.80414 19.7619 4.97914 20.0725 5.29414 20.3525H5.28539Z" fill="#BC9339"/>
<path d="M20.3835 19.4338C20.3835 19.7619 20.5585 20.0725 20.8735 20.3525C21.8098 19.5081 23.9973 18.9175 26.5479 18.9175C29.0985 18.9175 31.2817 19.5081 32.2223 20.3525C32.5373 20.0681 32.7123 19.7575 32.7123 19.4338C32.7123 18.1344 29.956 17.08 26.5523 17.08C23.1485 17.08 20.3923 18.1344 20.3923 19.4338H20.3835Z" fill="#BC9339"/>
<path d="M18.7516 18.4275C19.8498 17.185 22.921 16.2881 26.5435 16.2881C30.166 16.2881 33.2373 17.185 34.3354 18.4275C35.4335 17.185 38.5048 16.2881 42.1273 16.2881C44.4898 16.2881 46.616 16.6688 48.1166 17.2769L35.9191 5.07937L33.771 7.2275L26.5435 0L19.316 7.2275L17.1679 5.07937L4.9704 17.2769C6.47102 16.6688 8.59727 16.2881 10.9598 16.2881C14.5823 16.2881 17.6535 17.185 18.7516 18.4275Z" fill="#BC9339"/>
<path d="M42.1273 17.0756C38.7235 17.0756 35.9673 18.13 35.9673 19.4294C35.9673 19.7575 36.1423 20.0681 36.4573 20.3481C37.3935 19.5037 39.581 18.9131 42.1317 18.9131C44.6823 18.9131 46.8654 19.5037 47.806 20.3481C48.121 20.0637 48.296 19.7531 48.296 19.4294C48.296 18.13 45.5398 17.0756 42.136 17.0756H42.1273Z" fill="#BC9339"/>
<path d="M50.3304 19.6306C50.0635 21.2756 46.4935 22.575 42.1229 22.575C38.5004 22.575 35.4292 21.6781 34.331 20.4356C33.2329 21.6781 30.1617 22.575 26.5392 22.575C22.9167 22.575 19.8454 21.6781 18.7473 20.4356C17.6492 21.6781 14.5779 22.575 10.9554 22.575C6.58917 22.575 3.01479 21.2712 2.74792 19.6306H2.73042V22.0762C2.73042 23.3537 4.72542 24.4562 7.59104 24.9462L1.32167 26.9456C0.446666 27.3437 -0.323334 27.8162 2.05667 29.6669C2.43292 29.96 11.2048 37.1175 11.2048 37.1175C11.7473 37.5156 12.0273 38.1019 10.286 38.6487C10.3254 38.71 20.7948 35.5031 20.7948 35.5031C21.6435 35.1137 22.6498 34.1512 20.0773 32.7425C19.8323 32.6069 11.3623 27.7069 11.3623 27.7069C9.60792 26.3506 10.9423 25.5456 11.8129 25.2C15.0635 25.0731 17.7454 24.22 18.7517 23.0694C19.4823 23.905 21.1098 24.5831 23.1967 24.9419L17.1242 26.9237C16.1354 27.3744 14.591 28.0175 18.1129 29.7937C19.1717 30.3275 23.8485 33.005 23.9448 33.0575C26.5173 34.4662 25.511 35.315 24.6623 35.7044L14.7442 38.6444C13.7554 39.095 12.701 39.8037 15.5754 41.72C16.1485 42.1006 23.936 47.4512 23.936 47.4512C24.3167 47.8362 24.3254 48.3394 22.816 48.8075C22.8554 48.8687 34.9348 45.0144 34.9348 45.0144C35.7835 44.625 36.7898 43.7762 34.2173 42.3675C33.666 42.0656 27.6504 38.7362 27.6504 38.7362C25.2267 36.8594 28.7004 36.0369 28.7004 36.0369L34.6942 34.0375C35.5429 33.6481 36.2342 32.8737 33.6748 31.4475C32.5373 30.8131 26.9417 27.6937 26.9417 27.6937C24.7367 26.3987 26.5217 25.5325 27.3923 25.1912C30.6473 25.0644 33.3423 24.2112 34.3485 23.0606C34.8254 23.6075 35.6873 24.0887 36.8073 24.4519L31.601 26.1275C30.7873 26.4994 29.8248 27.3131 32.2879 28.6606C32.3229 28.6825 37.0129 31.395 37.2623 31.5262C39.8348 32.935 38.8285 33.7837 37.9798 34.1731L31.1723 36.3431C30.1835 36.7937 29.0154 37.6687 32.0035 39.305C32.0298 39.3181 38.2117 42.8006 38.2117 42.8006C38.5442 43.1769 38.496 43.6581 37.0479 44.1131C37.0873 44.1744 47.2242 40.9719 47.2242 40.9719C48.0379 40.6 49.0004 39.7862 46.5373 38.4387C46.1173 38.2069 40.1498 36.4525 40.1498 36.4525C38.4348 35.3806 41.7204 34.9037 42.1229 34.6587L51.1048 32.5631C51.9535 32.1737 52.9642 30.695 50.2035 29.7237C48.8298 29.2381 40.1498 26.4512 40.1498 26.4512C39.2748 25.9044 39.651 25.4625 40.2854 25.1256C40.8848 25.1781 41.506 25.2087 42.1492 25.2087C46.6904 25.2087 50.3742 23.8 50.3742 22.0631V19.6175H50.3304V19.6306Z" fill="#BC9339"/>
<path d="M61.1616 32.0681V7.72736H65.8211L80.1821 25.2527H77.9219V7.72736H83.4855V32.0681H78.8608L64.465 14.5428H66.7252V32.0681H61.1616ZM89.2444 32.0681V7.72736H93.904L104.266 24.905H101.797L111.986 7.72736H116.61L116.68 32.0681H111.395L111.36 15.8294H112.333L104.197 29.4949H101.658L93.3476 15.8294H94.5299V32.0681H89.2444ZM122.455 32.0681V7.72736H127.114L137.477 24.905H135.008L145.196 7.72736H149.821L149.89 32.0681H144.605L144.57 15.8294H145.544L137.407 29.4949H134.869L126.558 15.8294H127.74V32.0681H122.455ZM167.314 32.4854C165.436 32.4854 163.686 32.184 162.063 31.5813C160.464 30.9554 159.073 30.0745 157.891 28.9386C156.709 27.8027 155.781 26.4697 155.109 24.9398C154.46 23.4098 154.135 21.7291 154.135 19.8977C154.135 18.0664 154.46 16.3857 155.109 14.8557C155.781 13.3257 156.709 11.9928 157.891 10.8569C159.096 9.72099 160.499 8.85167 162.098 8.24895C163.698 7.62304 165.448 7.31009 167.349 7.31009C169.458 7.31009 171.359 7.681 173.052 8.42281C174.767 9.14144 176.204 10.2078 177.363 11.6219L173.747 14.96C172.913 14.0096 171.985 13.3026 170.965 12.8389C169.945 12.3521 168.833 12.1087 167.627 12.1087C166.491 12.1087 165.448 12.2942 164.498 12.6651C163.547 13.036 162.724 13.5691 162.029 14.2646C161.333 14.96 160.789 15.783 160.394 16.7334C160.024 17.6839 159.838 18.7387 159.838 19.8977C159.838 21.0568 160.024 22.1116 160.394 23.062C160.789 24.0125 161.333 24.8354 162.029 25.5309C162.724 26.2263 163.547 26.7595 164.498 27.1304C165.448 27.5013 166.491 27.6868 167.627 27.6868C168.833 27.6868 169.945 27.455 170.965 26.9913C171.985 26.5045 172.913 25.7743 173.747 24.8007L177.363 28.1388C176.204 29.5529 174.767 30.6309 173.052 31.3727C171.359 32.1145 169.447 32.4854 167.314 32.4854Z" fill="#37333F"/>
<path d="M60.826 43.2119V39.2H61.3554L63.5122 42.3237V39.2H64.0416V43.2119H63.5122L61.3554 40.0881V43.2119H60.826Z" fill="#37333F"/>
<path d="M66.0498 43.2687C65.8267 43.2687 65.6385 43.2294 65.4854 43.1462C65.3323 43.0631 65.2142 42.9494 65.131 42.8094C65.0523 42.665 65.0085 42.5031 65.0085 42.3237C65.0085 42.0219 65.096 41.8031 65.2754 41.6719C65.4548 41.5406 65.7085 41.4706 66.041 41.4706H67.0254V41.265C67.0254 41.0069 66.9685 40.8275 66.8504 40.7269C66.7323 40.6262 66.5573 40.5781 66.3254 40.5781C66.1067 40.5781 65.9492 40.6175 65.8485 40.7006C65.7479 40.7837 65.6954 40.8756 65.6823 40.9762H65.1792C65.1923 40.81 65.2448 40.6656 65.3454 40.5387C65.446 40.4119 65.5817 40.3069 65.7523 40.2325C65.9229 40.1537 66.1242 40.1187 66.356 40.1187C66.5967 40.1187 66.8067 40.1581 66.9817 40.2325C67.1567 40.3069 67.2923 40.425 67.3885 40.5825C67.4848 40.74 67.5329 40.95 67.5329 41.2125V42.4375C67.5329 42.5994 67.5329 42.7394 67.5373 42.8575C67.5373 42.98 67.546 43.0937 67.5635 43.2075H67.1217C67.1085 43.12 67.1042 43.0369 67.0998 42.9581C67.0954 42.8794 67.0954 42.7919 67.0954 42.6912C67.0167 42.8531 66.8854 42.9887 66.706 43.0981C66.5223 43.2119 66.3035 43.2687 66.0498 43.2687ZM66.1548 42.8094C66.3167 42.8094 66.461 42.7787 66.5923 42.7219C66.7235 42.665 66.8285 42.5819 66.9073 42.4681C66.986 42.3544 67.0254 42.2231 67.0254 42.0612V41.8556H66.1242C65.936 41.8556 65.7917 41.895 65.6823 41.9694C65.5729 42.0437 65.5204 42.1619 65.5204 42.3237C65.5204 42.4637 65.5729 42.5819 65.6735 42.6737C65.7785 42.7656 65.9404 42.8094 66.1548 42.8094Z" fill="#37333F"/>
<path d="M69.4535 43.2119L68.1935 40.1756H68.7535L69.7379 42.7L70.6304 40.1756H71.1685L70.0223 43.2119H69.4535Z" fill="#37333F"/>
<path d="M73.1242 43.2688C72.866 43.2688 72.6298 43.2119 72.4067 43.0981C72.1835 42.9844 72.0042 42.8138 71.8685 42.5863C71.7329 42.3588 71.6629 42.07 71.6629 41.72V41.6063C71.6629 41.2781 71.7329 41.0025 71.8685 40.7794C72.0042 40.5563 72.1835 40.3944 72.4067 40.2806C72.6298 40.1713 72.8704 40.1144 73.1242 40.1144C73.3823 40.1144 73.6229 40.1713 73.846 40.2806C74.0692 40.39 74.2442 40.5563 74.3842 40.7794C74.5198 41.0025 74.5854 41.2781 74.5854 41.6063V41.72C74.5854 42.0656 74.5154 42.3588 74.3842 42.5863C74.2485 42.8138 74.0692 42.9888 73.846 43.0981C73.6229 43.2119 73.3823 43.2688 73.1242 43.2688ZM73.1242 42.8094C73.2817 42.8094 73.4304 42.7744 73.5748 42.7044C73.7192 42.6344 73.8373 42.5163 73.9292 42.3588C74.021 42.2013 74.0692 41.9869 74.0692 41.72V41.6063C74.0692 41.3613 74.021 41.1644 73.9292 41.0113C73.8373 40.8581 73.7192 40.7488 73.5748 40.6788C73.4304 40.6088 73.2817 40.5738 73.1242 40.5738C72.971 40.5738 72.8223 40.6088 72.6779 40.6788C72.5335 40.7488 72.4154 40.8581 72.3192 41.0113C72.2229 41.1644 72.1792 41.3613 72.1792 41.6063V41.72C72.1792 41.9825 72.2273 42.1969 72.3192 42.3588C72.411 42.5206 72.5335 42.6344 72.6779 42.7044C72.8223 42.7744 72.971 42.8094 73.1242 42.8094Z" fill="#37333F"/>
<path d="M75.7272 39.7731C75.6266 39.7731 75.5435 39.7425 75.4822 39.6769C75.421 39.6112 75.386 39.5281 75.386 39.4319C75.386 39.3312 75.4166 39.2525 75.4822 39.1869C75.5479 39.1212 75.631 39.0906 75.7272 39.0906C75.8235 39.0906 75.9066 39.1212 75.9722 39.1869C76.0379 39.2525 76.0685 39.3356 76.0685 39.4319C76.0685 39.5325 76.0379 39.6156 75.9722 39.6769C75.9066 39.7425 75.8235 39.7731 75.7272 39.7731ZM75.4735 43.2119V40.1756H75.9766V43.2119H75.4735Z" fill="#37333F"/>
<path d="M78.7285 43.2119V39.2H79.2885L80.6316 41.7506L81.9748 39.2H82.5129V43.2119H81.9748V40.1756L80.8241 42.3544H80.4216L79.271 40.1756V43.2119H78.7285Z" fill="#37333F"/>
<path d="M83.9654 39.7731C83.8648 39.7731 83.7816 39.7425 83.7204 39.6769C83.6591 39.6112 83.6241 39.5281 83.6241 39.4319C83.6241 39.3312 83.6548 39.2525 83.7204 39.1869C83.786 39.1212 83.8691 39.0906 83.9654 39.0906C84.0616 39.0906 84.1448 39.1212 84.2104 39.1869C84.276 39.2525 84.3066 39.3356 84.3066 39.4319C84.3066 39.5325 84.276 39.6156 84.2104 39.6769C84.1491 39.7425 84.066 39.7731 83.9654 39.7731ZM83.716 43.2119V40.1756H84.2191V43.2119H83.716Z" fill="#37333F"/>
<path d="M85.3085 43.2119V40.1756H85.7767V40.7487C85.8467 40.5825 85.9648 40.4337 86.1398 40.3069C86.3148 40.18 86.5379 40.1187 86.8135 40.1187C87.1942 40.1187 87.4785 40.2194 87.6667 40.425C87.8504 40.6306 87.9467 40.9281 87.9467 41.3219V43.2119H87.4435V41.4356C87.4435 41.1512 87.3823 40.9412 87.2642 40.7925C87.146 40.6481 86.9448 40.5737 86.6692 40.5737C86.4723 40.5737 86.306 40.6175 86.1835 40.7006C86.0567 40.7837 85.9648 40.8931 85.9035 41.02C85.8423 41.1469 85.816 41.2869 85.816 41.4312V43.2075H85.3085V43.2119Z" fill="#37333F"/>
<path d="M89.2592 39.7731C89.1585 39.7731 89.0754 39.7425 89.0142 39.6769C88.9529 39.6112 88.9179 39.5281 88.9179 39.4319C88.9179 39.3312 88.9485 39.2525 89.0142 39.1869C89.0798 39.1212 89.1629 39.0906 89.2592 39.0906C89.3554 39.0906 89.4385 39.1212 89.5042 39.1869C89.5698 39.2525 89.6004 39.3356 89.6004 39.4319C89.6004 39.5325 89.5698 39.6156 89.5042 39.6769C89.4385 39.7425 89.3554 39.7731 89.2592 39.7731ZM89.0054 43.2119V40.1756H89.5085V43.2119H89.0054Z" fill="#37333F"/>
<path d="M90.5979 43.2119V40.1756H91.066V40.7487C91.136 40.5825 91.2542 40.4337 91.4292 40.3069C91.6042 40.18 91.8273 40.1187 92.1029 40.1187C92.4835 40.1187 92.7679 40.2194 92.956 40.425C93.1398 40.6306 93.236 40.9281 93.236 41.3219V43.2119H92.7329V41.4356C92.7329 41.1512 92.6717 40.9412 92.5535 40.7925C92.4354 40.6481 92.2342 40.5737 91.9585 40.5737C91.7617 40.5737 91.5954 40.6175 91.4729 40.7006C91.346 40.7837 91.2542 40.8931 91.1973 41.02C91.136 41.1512 91.1098 41.2869 91.1098 41.4312V43.2075H90.5979V43.2119Z" fill="#37333F"/>
<path d="M95.441 44.415C95.1479 44.415 94.9073 44.3756 94.7235 44.3013C94.5398 44.2225 94.4041 44.1219 94.3166 43.9906C94.2291 43.8594 94.1723 43.715 94.1504 43.5575H94.6798C94.7191 43.68 94.7891 43.7763 94.8985 43.8506C95.0079 43.925 95.1873 43.96 95.441 43.96C95.7516 43.96 95.9791 43.8856 96.1235 43.7369C96.2679 43.5881 96.3423 43.3738 96.3423 43.0981V42.6125C96.2548 42.8138 96.1191 42.9669 95.9398 43.0675C95.756 43.1681 95.546 43.2163 95.301 43.2163C95.0516 43.2163 94.8329 43.1594 94.6404 43.0456C94.4479 42.9319 94.3035 42.7613 94.1985 42.5338C94.0935 42.3063 94.041 42.0306 94.041 41.6981V41.5844C94.041 41.2694 94.0935 41.0069 94.2029 40.7925C94.3123 40.5781 94.461 40.4119 94.6491 40.2981C94.8373 40.1844 95.056 40.1275 95.301 40.1275C95.5591 40.1275 95.7866 40.1844 95.9791 40.3025C96.1716 40.4206 96.3029 40.5694 96.3816 40.7575V40.1844H96.8498V43.1069C96.8498 43.5181 96.7273 43.8419 96.4866 44.0738C96.2416 44.2969 95.896 44.415 95.441 44.415ZM95.4104 42.7656C95.5941 42.7656 95.756 42.7263 95.896 42.6519C96.036 42.5775 96.1454 42.4681 96.2241 42.3325C96.3029 42.1969 96.3423 42.0394 96.3423 41.8644V41.405C96.3423 41.2475 96.3029 41.1075 96.2241 40.9806C96.1454 40.8538 96.036 40.7531 95.896 40.6788C95.756 40.6 95.5941 40.565 95.4104 40.565C95.1654 40.565 94.9598 40.6569 94.7935 40.8363C94.6273 41.0156 94.5398 41.265 94.5398 41.58V41.6938C94.5398 42.0394 94.6229 42.3063 94.7935 42.49C94.9598 42.6738 95.1698 42.7656 95.4104 42.7656Z" fill="#37333F"/>
<path d="M100.289 43.2687C100.065 43.2687 99.8773 43.2294 99.7241 43.1462C99.571 43.0631 99.4529 42.9494 99.3698 42.8094C99.291 42.665 99.2473 42.5031 99.2473 42.3237C99.2473 42.0219 99.3348 41.8031 99.5141 41.6719C99.6935 41.5406 99.9473 41.4706 100.28 41.4706H101.264V41.265C101.264 41.0069 101.207 40.8275 101.089 40.7269C100.971 40.6262 100.796 40.5781 100.564 40.5781C100.345 40.5781 100.188 40.6175 100.087 40.7006C99.9866 40.7837 99.9341 40.8756 99.921 40.9762H99.4179C99.431 40.81 99.4835 40.6656 99.5841 40.5387C99.6848 40.4119 99.8204 40.3069 99.991 40.2325C100.162 40.1537 100.363 40.1187 100.595 40.1187C100.835 40.1187 101.045 40.1581 101.22 40.2325C101.395 40.3069 101.531 40.425 101.627 40.5825C101.724 40.74 101.772 40.95 101.772 41.2125V42.4375C101.772 42.5994 101.772 42.7394 101.776 42.8575C101.776 42.98 101.785 43.0937 101.802 43.2075H101.36C101.347 43.12 101.343 43.0369 101.339 42.9581C101.334 42.8794 101.334 42.7919 101.334 42.6912C101.255 42.8531 101.124 42.9887 100.945 43.0981C100.765 43.2119 100.547 43.2687 100.289 43.2687ZM100.398 42.8094C100.56 42.8094 100.704 42.7787 100.835 42.7219C100.967 42.665 101.072 42.5819 101.15 42.4681C101.229 42.3587 101.269 42.2231 101.269 42.0612V41.8556H100.367C100.179 41.8556 100.035 41.895 99.9254 41.9694C99.8204 42.0437 99.7635 42.1619 99.7635 42.3237C99.7635 42.4637 99.816 42.5819 99.9166 42.6737C100.022 42.7656 100.179 42.8094 100.398 42.8094Z" fill="#37333F"/>
<path d="M102.778 43.2119V40.1756H103.246V40.7487C103.316 40.5825 103.434 40.4337 103.609 40.3069C103.784 40.18 104.007 40.1187 104.283 40.1187C104.664 40.1187 104.948 40.2194 105.136 40.425C105.32 40.6306 105.416 40.9281 105.416 41.3219V43.2119H104.913V41.4356C104.913 41.1512 104.852 40.9412 104.734 40.7925C104.615 40.6481 104.414 40.5737 104.139 40.5737C103.942 40.5737 103.775 40.6175 103.653 40.7006C103.526 40.7837 103.434 40.8931 103.377 41.02C103.316 41.1512 103.29 41.2869 103.29 41.4312V43.2075H102.778V43.2119Z" fill="#37333F"/>
<path d="M107.477 43.2687C107.227 43.2687 107.009 43.2119 106.816 43.0981C106.624 42.9844 106.479 42.8137 106.374 42.5819C106.269 42.3544 106.217 42.0656 106.217 41.7244V41.6062C106.217 41.2869 106.269 41.0156 106.379 40.7925C106.488 40.5694 106.637 40.4031 106.825 40.2894C107.013 40.1756 107.232 40.1187 107.477 40.1187C107.722 40.1187 107.936 40.1712 108.115 40.2806C108.295 40.3856 108.43 40.5344 108.518 40.7225V39.2H109.021V43.2119H108.553V42.6387C108.479 42.8269 108.343 42.9756 108.15 43.0937C107.962 43.2119 107.735 43.2687 107.477 43.2687ZM107.59 42.8225C107.774 42.8225 107.936 42.7831 108.076 42.7044C108.216 42.6256 108.325 42.5162 108.404 42.3762C108.483 42.2362 108.522 42.0744 108.522 41.8906V41.4312C108.522 41.265 108.483 41.1206 108.404 40.985C108.325 40.8537 108.216 40.7487 108.076 40.6744C107.936 40.5956 107.774 40.5606 107.59 40.5606C107.345 40.5606 107.14 40.6525 106.974 40.8319C106.807 41.0156 106.72 41.2694 106.72 41.6019V41.7156C106.72 42.0744 106.803 42.35 106.974 42.5381C107.14 42.7306 107.345 42.8225 107.59 42.8225Z" fill="#37333F"/>
<path d="M111.716 43.2119V39.2H112.276L113.619 41.7506L114.962 39.2H115.5V43.2119H114.962V40.1756L113.812 42.3544H113.409L112.259 40.1756V43.2119H111.716Z" fill="#37333F"/>
<path d="M117.907 43.2688C117.653 43.2688 117.412 43.2119 117.189 43.1025C116.966 42.9931 116.787 42.8225 116.651 42.5906C116.515 42.3631 116.445 42.07 116.445 41.72V41.6063C116.445 41.2694 116.511 40.9938 116.642 40.7706C116.774 40.5519 116.944 40.3856 117.159 40.2806C117.373 40.1713 117.605 40.1144 117.85 40.1144C118.296 40.1144 118.642 40.2369 118.887 40.4819C119.132 40.7269 119.254 41.0725 119.254 41.5188V41.8381H116.949C116.949 42.0744 116.997 42.2625 117.093 42.4069C117.189 42.5469 117.312 42.6519 117.46 42.7131C117.609 42.7744 117.754 42.8094 117.907 42.8094C118.134 42.8094 118.314 42.77 118.436 42.6956C118.559 42.6169 118.65 42.5119 118.703 42.3806H119.197C119.136 42.6694 118.987 42.8925 118.747 43.0413C118.506 43.1944 118.23 43.2688 117.907 43.2688ZM117.88 40.5738C117.723 40.5738 117.574 40.6044 117.434 40.6613C117.294 40.7181 117.176 40.8144 117.089 40.9369C116.997 41.0638 116.953 41.2256 116.953 41.4225H118.782C118.777 41.2125 118.734 41.0463 118.655 40.9194C118.572 40.7969 118.467 40.705 118.331 40.6481C118.195 40.5913 118.042 40.5738 117.88 40.5738Z" fill="#37333F"/>
<path d="M121.201 43.2425C120.987 43.2425 120.812 43.2119 120.676 43.1463C120.54 43.0806 120.44 42.9844 120.378 42.8488C120.317 42.7175 120.282 42.5513 120.282 42.3544V40.6219H119.823V40.1756H120.282V39.4888H120.785V40.1756H121.599V40.6219H120.785V42.2931C120.785 42.4638 120.82 42.5906 120.895 42.665C120.969 42.7438 121.109 42.7788 121.315 42.7788C121.429 42.7788 121.542 42.7744 121.66 42.7613V43.2075C121.586 43.2163 121.516 43.2206 121.442 43.2294C121.372 43.2381 121.293 43.2425 121.201 43.2425Z" fill="#37333F"/>
<path d="M123.358 43.2687C123.135 43.2687 122.947 43.2294 122.794 43.1462C122.64 43.0631 122.522 42.9494 122.439 42.8094C122.36 42.665 122.317 42.5031 122.317 42.3237C122.317 42.0219 122.404 41.8031 122.584 41.6719C122.763 41.5406 123.017 41.4706 123.349 41.4706H124.334V41.265C124.334 41.0069 124.277 40.8275 124.159 40.7269C124.04 40.6262 123.865 40.5781 123.634 40.5781C123.415 40.5781 123.257 40.6175 123.157 40.7006C123.056 40.7837 123.004 40.8756 122.99 40.9762H122.487C122.5 40.81 122.553 40.6656 122.654 40.5387C122.754 40.4119 122.89 40.3069 123.06 40.2325C123.231 40.1537 123.432 40.1187 123.664 40.1187C123.905 40.1187 124.115 40.1581 124.29 40.2325C124.465 40.3069 124.6 40.425 124.697 40.5825C124.793 40.74 124.841 40.95 124.841 41.2125V42.4375C124.841 42.5994 124.841 42.7394 124.845 42.8575C124.845 42.98 124.854 43.0937 124.872 43.2075H124.43C124.417 43.12 124.412 43.0369 124.408 42.9581C124.404 42.8794 124.404 42.7919 124.404 42.6912C124.325 42.8531 124.194 42.9887 124.014 43.0981C123.83 43.2119 123.612 43.2687 123.358 43.2687ZM123.467 42.8094C123.629 42.8094 123.774 42.7787 123.905 42.7219C124.036 42.665 124.141 42.5819 124.22 42.4681C124.299 42.3587 124.338 42.2231 124.338 42.0612V41.8556H123.437C123.249 41.8556 123.104 41.895 122.995 41.9694C122.89 42.0437 122.833 42.1619 122.833 42.3237C122.833 42.4637 122.885 42.5819 122.986 42.6737C123.091 42.7656 123.249 42.8094 123.467 42.8094Z" fill="#37333F"/>
<path d="M126.762 43.2425C126.552 43.2425 126.381 43.2075 126.25 43.1419C126.119 43.0762 126.022 42.9712 125.961 42.8269C125.904 42.6825 125.874 42.4987 125.874 42.2669V39.2H126.377V42.2669C126.377 42.4637 126.407 42.5994 126.473 42.6737C126.539 42.7481 126.652 42.7831 126.819 42.7831C126.862 42.7831 126.897 42.7831 126.928 42.7787C126.959 42.7787 126.989 42.7744 127.02 42.77V43.2162C127.002 43.2206 126.976 43.225 126.941 43.2294C126.91 43.2337 126.875 43.2381 126.845 43.2381C126.814 43.2381 126.784 43.2425 126.762 43.2425Z" fill="#37333F"/>
<path d="M128.713 43.2425C128.503 43.2425 128.332 43.2075 128.201 43.1419C128.07 43.0762 127.974 42.9712 127.912 42.8269C127.855 42.6825 127.825 42.4987 127.825 42.2669V39.2H128.328V42.2669C128.328 42.4637 128.359 42.5994 128.424 42.6737C128.49 42.7481 128.604 42.7831 128.77 42.7831C128.814 42.7831 128.849 42.7831 128.879 42.7787C128.91 42.7787 128.94 42.7744 128.971 42.77V43.2162C128.954 43.2206 128.927 43.225 128.892 43.2294C128.862 43.2337 128.827 43.2381 128.796 43.2381C128.761 43.2381 128.735 43.2425 128.713 43.2425Z" fill="#37333F"/>
<path d="M130.813 43.2688C130.445 43.2688 130.17 43.1637 129.986 42.9537C129.802 42.7437 129.71 42.42 129.71 41.9781V40.1712H130.214V41.9475C130.214 42.2319 130.27 42.4419 130.389 42.5906C130.507 42.735 130.695 42.8094 130.957 42.8094C131.15 42.8094 131.303 42.7656 131.425 42.6825C131.548 42.5994 131.635 42.49 131.697 42.3587C131.754 42.2275 131.784 42.0919 131.784 41.9475V40.1712H132.287V43.2075H131.819V42.6344C131.749 42.8006 131.631 42.9494 131.456 43.0762C131.29 43.2075 131.075 43.2688 130.813 43.2688Z" fill="#37333F"/>
<path d="M133.609 43.2119V40.1756H134.077V40.7487C134.125 40.6262 134.186 40.5169 134.265 40.425C134.344 40.3331 134.444 40.2587 134.558 40.2019C134.676 40.145 134.807 40.1187 134.952 40.1187C135.026 40.1187 135.092 40.1231 135.14 40.1319C135.188 40.1406 135.232 40.1494 135.267 40.1581V40.6262C135.219 40.6087 135.166 40.5956 135.122 40.5869C135.074 40.5781 135.009 40.5737 134.925 40.5737C134.772 40.5737 134.637 40.6087 134.514 40.6831C134.392 40.7575 134.295 40.8581 134.221 40.985C134.147 41.1119 134.112 41.2606 134.112 41.4356V43.2119H133.609Z" fill="#37333F"/>
<path d="M137.109 44.415C136.815 44.415 136.575 44.3756 136.391 44.3013C136.207 44.2225 136.072 44.1219 135.984 43.9906C135.897 43.8594 135.84 43.715 135.818 43.5575H136.347C136.387 43.68 136.457 43.7763 136.566 43.8506C136.675 43.925 136.855 43.96 137.109 43.96C137.419 43.96 137.647 43.8856 137.791 43.7369C137.935 43.5881 138.01 43.3738 138.01 43.0981V42.6125C137.922 42.8138 137.787 42.9669 137.607 43.0675C137.423 43.1681 137.213 43.2163 136.968 43.2163C136.719 43.2163 136.5 43.1594 136.308 43.0456C136.115 42.9319 135.971 42.7613 135.866 42.5338C135.761 42.3063 135.708 42.0306 135.708 41.6981V41.5844C135.708 41.2694 135.761 41.0069 135.87 40.7925C135.98 40.5781 136.129 40.4119 136.317 40.2981C136.505 40.1844 136.723 40.1275 136.968 40.1275C137.227 40.1275 137.454 40.1844 137.647 40.3025C137.839 40.4206 137.97 40.5694 138.049 40.7575V40.1844H138.517V43.1069C138.517 43.5181 138.395 43.8419 138.154 44.0738C137.909 44.2969 137.564 44.415 137.109 44.415ZM137.078 42.7656C137.262 42.7656 137.423 42.7263 137.563 42.6519C137.703 42.5775 137.813 42.4681 137.892 42.3325C137.97 42.1969 138.01 42.0394 138.01 41.8644V41.405C138.01 41.2475 137.97 41.1075 137.892 40.9806C137.813 40.8538 137.703 40.7531 137.563 40.6788C137.423 40.6 137.262 40.565 137.078 40.565C136.833 40.565 136.627 40.6569 136.461 40.8363C136.295 41.0156 136.207 41.265 136.207 41.58V41.6938C136.207 42.0394 136.29 42.3063 136.461 42.49C136.627 42.6738 136.833 42.7656 137.078 42.7656Z" fill="#37333F"/>
<path d="M139.852 39.7731C139.751 39.7731 139.668 39.7425 139.607 39.6769C139.545 39.6112 139.51 39.5281 139.51 39.4319C139.51 39.3312 139.541 39.2525 139.607 39.1869C139.672 39.1212 139.755 39.0906 139.852 39.0906C139.952 39.0906 140.031 39.1212 140.097 39.1869C140.162 39.2525 140.193 39.3356 140.193 39.4319C140.193 39.5325 140.162 39.6156 140.097 39.6769C140.035 39.7425 139.952 39.7731 139.852 39.7731ZM139.602 43.2119V40.1756H140.105V43.2119H139.602Z" fill="#37333F"/>
<path d="M142.367 43.2688C142.109 43.2688 141.873 43.2119 141.667 43.0981C141.457 42.9844 141.295 42.8138 141.173 42.5863C141.055 42.3588 140.993 42.07 140.993 41.72V41.6063C140.993 41.2781 141.059 41.0025 141.19 40.7794C141.322 40.5563 141.492 40.3944 141.702 40.2806C141.912 40.1669 142.135 40.1144 142.372 40.1144C142.612 40.1144 142.818 40.1581 142.993 40.2413C143.168 40.3288 143.308 40.4425 143.413 40.5913C143.518 40.74 143.592 40.9019 143.632 41.0856H143.115C143.054 40.9413 142.971 40.8188 142.862 40.7181C142.752 40.6175 142.59 40.5694 142.372 40.5694C142.223 40.5694 142.083 40.6044 141.952 40.6744C141.82 40.7444 141.715 40.8538 141.632 41.0069C141.549 41.16 141.51 41.3569 141.51 41.6019V41.7156C141.51 41.9781 141.549 42.1838 141.632 42.3456C141.715 42.5075 141.82 42.6213 141.952 42.6956C142.083 42.77 142.223 42.805 142.372 42.805C142.56 42.805 142.717 42.7569 142.844 42.6694C142.971 42.5775 143.063 42.4506 143.115 42.2888H143.632C143.583 42.49 143.505 42.6606 143.387 42.8094C143.268 42.9581 143.124 43.0675 142.949 43.1463C142.774 43.2294 142.582 43.2688 142.367 43.2688Z" fill="#37333F"/>
<path d="M145.299 43.2687C145.075 43.2687 144.887 43.2294 144.734 43.1462C144.581 43.0631 144.463 42.9494 144.38 42.8094C144.301 42.665 144.257 42.5031 144.257 42.3237C144.257 42.0219 144.345 41.8031 144.524 41.6719C144.704 41.5406 144.957 41.4706 145.29 41.4706H146.274V41.265C146.274 41.0069 146.217 40.8275 146.099 40.7269C145.981 40.6262 145.806 40.5781 145.574 40.5781C145.355 40.5781 145.198 40.6175 145.097 40.7006C144.997 40.7837 144.944 40.8756 144.931 40.9762H144.428C144.441 40.81 144.494 40.6656 144.594 40.5387C144.695 40.4119 144.83 40.3069 145.001 40.2325C145.172 40.1537 145.373 40.1187 145.605 40.1187C145.845 40.1187 146.055 40.1581 146.23 40.2325C146.405 40.3069 146.541 40.425 146.637 40.5825C146.734 40.74 146.782 40.95 146.782 41.2125V42.4375C146.782 42.5994 146.782 42.7394 146.786 42.8575C146.786 42.98 146.795 43.0937 146.812 43.2075H146.37C146.357 43.12 146.353 43.0369 146.349 42.9581C146.344 42.8794 146.344 42.7919 146.344 42.6912C146.265 42.8531 146.134 42.9887 145.955 43.0981C145.771 43.2119 145.552 43.2687 145.299 43.2687ZM145.408 42.8094C145.57 42.8094 145.714 42.7787 145.845 42.7219C145.977 42.665 146.082 42.5819 146.16 42.4681C146.239 42.3587 146.279 42.2231 146.279 42.0612V41.8556H145.377C145.189 41.8556 145.045 41.895 144.935 41.9694C144.83 42.0437 144.774 42.1619 144.774 42.3237C144.774 42.4637 144.826 42.5819 144.927 42.6737C145.032 42.7656 145.189 42.8094 145.408 42.8094Z" fill="#37333F"/>
<path d="M148.702 43.2425C148.492 43.2425 148.322 43.2075 148.19 43.1419C148.059 43.0762 147.963 42.9712 147.902 42.8269C147.84 42.6825 147.814 42.4987 147.814 42.2669V39.2H148.317V42.2669C148.317 42.4637 148.348 42.5994 148.414 42.6737C148.479 42.7481 148.593 42.7831 148.759 42.7831C148.803 42.7831 148.838 42.7831 148.869 42.7787C148.899 42.7787 148.93 42.7744 148.96 42.77V43.2162C148.943 43.2206 148.917 43.225 148.882 43.2294C148.851 43.2337 148.816 43.2381 148.785 43.2381C148.755 43.2381 148.724 43.2425 148.702 43.2425Z" fill="#37333F"/>
<path d="M152.858 43.2687C152.561 43.2687 152.285 43.1987 152.027 43.0587C151.773 42.9187 151.563 42.6956 151.406 42.3981C151.248 42.0962 151.17 41.7112 151.17 41.2387V41.125C151.17 40.7794 151.213 40.4862 151.305 40.2369C151.397 39.9875 151.52 39.7819 151.677 39.6244C151.835 39.4669 152.014 39.3444 152.22 39.2656C152.425 39.1869 152.635 39.1475 152.858 39.1475C153.077 39.1475 153.274 39.1781 153.458 39.235C153.642 39.2919 153.799 39.375 153.935 39.48C154.07 39.585 154.184 39.7206 154.272 39.8737C154.359 40.0269 154.412 40.2062 154.433 40.4075H153.86C153.808 40.1494 153.694 39.9525 153.523 39.8212C153.353 39.69 153.13 39.6244 152.858 39.6244C152.67 39.6244 152.491 39.6725 152.32 39.7687C152.15 39.865 152.01 40.0225 151.9 40.2412C151.795 40.46 151.738 40.7531 151.738 41.1206V41.2344C151.738 41.5231 151.773 41.7681 151.839 41.9694C151.905 42.1662 151.997 42.3281 152.106 42.4462C152.215 42.5644 152.338 42.6519 152.469 42.7087C152.6 42.7612 152.732 42.7875 152.854 42.7875C153.152 42.7875 153.383 42.7131 153.554 42.5687C153.72 42.4244 153.825 42.2362 153.856 42.0087H154.429C154.398 42.2319 154.337 42.42 154.245 42.5819C154.153 42.7437 154.04 42.875 153.9 42.9756C153.76 43.0762 153.602 43.1506 153.423 43.1987C153.248 43.2469 153.06 43.2687 152.858 43.2687Z" fill="#37333F"/>
<path d="M156.555 43.2688C156.297 43.2688 156.061 43.2119 155.838 43.0981C155.615 42.9844 155.435 42.8138 155.3 42.5863C155.164 42.3588 155.099 42.07 155.099 41.72V41.6063C155.099 41.2781 155.169 41.0025 155.3 40.7794C155.435 40.5563 155.615 40.3944 155.838 40.2806C156.061 40.1669 156.302 40.1144 156.555 40.1144C156.814 40.1144 157.054 40.1713 157.277 40.2806C157.5 40.39 157.675 40.5563 157.811 40.7794C157.947 41.0025 158.012 41.2781 158.012 41.6063V41.72C158.012 42.0656 157.942 42.3588 157.811 42.5863C157.675 42.8138 157.496 42.9888 157.277 43.0981C157.054 43.2119 156.814 43.2688 156.555 43.2688ZM156.555 42.8094C156.713 42.8094 156.862 42.7744 157.006 42.7044C157.15 42.6344 157.269 42.5163 157.36 42.3588C157.452 42.2013 157.5 41.9869 157.5 41.72V41.6063C157.5 41.3613 157.452 41.1644 157.36 41.0113C157.269 40.8581 157.15 40.7488 157.006 40.6788C156.862 40.6088 156.713 40.5738 156.555 40.5738C156.402 40.5738 156.254 40.6088 156.109 40.6788C155.965 40.7488 155.847 40.8581 155.75 41.0113C155.654 41.1644 155.61 41.3613 155.61 41.6063V41.72C155.61 41.9825 155.659 42.1969 155.75 42.3588C155.842 42.5206 155.965 42.6344 156.109 42.7044C156.254 42.7744 156.402 42.8094 156.555 42.8094Z" fill="#37333F"/>
<path d="M158.848 43.2119V40.1756H159.316V40.7487C159.382 40.5606 159.491 40.4075 159.653 40.2937C159.815 40.18 159.994 40.1187 160.195 40.1187C160.458 40.1187 160.664 40.1756 160.804 40.2894C160.944 40.4031 161.044 40.5475 161.097 40.7225C161.197 40.5344 161.324 40.3856 161.477 40.2806C161.63 40.1756 161.819 40.1187 162.037 40.1187C162.352 40.1187 162.593 40.215 162.772 40.4031C162.947 40.5912 163.035 40.8887 163.035 41.2956V43.2162H162.532V41.4094C162.532 41.1075 162.479 40.8931 162.374 40.7662C162.269 40.6394 162.107 40.5781 161.897 40.5781C161.775 40.5781 161.661 40.6131 161.552 40.6787C161.442 40.7444 161.359 40.8406 161.294 40.9675C161.228 41.09 161.197 41.2387 161.197 41.4094V43.2162H160.694V41.4094C160.694 41.1075 160.642 40.8931 160.532 40.7662C160.423 40.6394 160.265 40.5781 160.055 40.5781C159.933 40.5781 159.819 40.6131 159.71 40.6787C159.6 40.7444 159.517 40.8406 159.452 40.9675C159.386 41.09 159.355 41.2387 159.355 41.4094V43.2162H158.848V43.2119Z" fill="#37333F"/>
<path d="M164.032 44.3581V40.1756H164.5V40.7488C164.605 40.5475 164.75 40.39 164.933 40.2806C165.117 40.1713 165.336 40.1144 165.577 40.1144C165.957 40.1144 166.263 40.2413 166.495 40.4906C166.723 40.74 166.841 41.1119 166.841 41.6063V41.72C166.841 42.0656 166.788 42.35 166.683 42.5775C166.578 42.8094 166.43 42.98 166.242 43.0938C166.053 43.2075 165.83 43.2644 165.581 43.2644C165.323 43.2644 165.104 43.2075 164.929 43.0938C164.754 42.98 164.623 42.8356 164.535 42.665V44.3581H164.032ZM165.467 42.8225C165.717 42.8225 165.922 42.7306 166.088 42.5425C166.255 42.3544 166.338 42.0831 166.338 41.72V41.6063C166.338 41.2738 166.255 41.0156 166.088 40.8363C165.922 40.6569 165.717 40.565 165.467 40.565C165.283 40.565 165.122 40.6044 164.982 40.6788C164.842 40.7531 164.732 40.8581 164.653 40.9894C164.575 41.1206 164.535 41.2694 164.535 41.4356V41.895C164.535 42.0788 164.575 42.2406 164.653 42.3806C164.732 42.5206 164.842 42.63 164.982 42.7088C165.122 42.7831 165.283 42.8225 165.467 42.8225Z" fill="#37333F"/>
<path d="M168.539 43.2687C168.315 43.2687 168.127 43.2294 167.974 43.1462C167.821 43.0631 167.703 42.9494 167.62 42.8094C167.541 42.665 167.497 42.5031 167.497 42.3237C167.497 42.0219 167.585 41.8031 167.764 41.6719C167.944 41.5406 168.197 41.4706 168.53 41.4706H169.514V41.265C169.514 41.0069 169.457 40.8275 169.339 40.7269C169.221 40.6262 169.046 40.5781 168.814 40.5781C168.595 40.5781 168.438 40.6175 168.337 40.7006C168.237 40.7837 168.184 40.8756 168.171 40.9762H167.668C167.681 40.81 167.734 40.6656 167.834 40.5387C167.935 40.4119 168.07 40.3069 168.241 40.2325C168.412 40.1537 168.613 40.1187 168.845 40.1187C169.085 40.1187 169.295 40.1581 169.47 40.2325C169.645 40.3069 169.781 40.425 169.877 40.5825C169.974 40.74 170.022 40.95 170.022 41.2125V42.4375C170.022 42.5994 170.022 42.7394 170.026 42.8575C170.026 42.98 170.035 43.0937 170.052 43.2075H169.61C169.597 43.12 169.593 43.0369 169.589 42.9581C169.584 42.8794 169.584 42.7919 169.584 42.6912C169.505 42.8531 169.374 42.9887 169.195 43.0981C169.011 43.2119 168.792 43.2687 168.539 43.2687ZM168.648 42.8094C168.81 42.8094 168.954 42.7787 169.085 42.7219C169.217 42.665 169.322 42.5819 169.4 42.4681C169.479 42.3587 169.519 42.2231 169.519 42.0612V41.8556H168.617C168.429 41.8556 168.285 41.895 168.175 41.9694C168.066 42.0437 168.014 42.1619 168.014 42.3237C168.014 42.4637 168.066 42.5819 168.167 42.6737C168.272 42.7656 168.429 42.8094 168.648 42.8094Z" fill="#37333F"/>
<path d="M171.382 43.2119V40.1756H171.85V40.7487C171.92 40.5825 172.039 40.4337 172.214 40.3069C172.389 40.18 172.612 40.1187 172.887 40.1187C173.268 40.1187 173.552 40.2194 173.74 40.425C173.924 40.6306 174.02 40.9281 174.02 41.3219V43.2119H173.517V41.4356C173.517 41.1512 173.456 40.9412 173.338 40.7925C173.22 40.6481 173.019 40.5737 172.743 40.5737C172.546 40.5737 172.38 40.6175 172.257 40.7006C172.13 40.7837 172.039 40.8931 171.982 41.02C171.92 41.1512 171.894 41.2869 171.894 41.4312V43.2075H171.382V43.2119Z" fill="#37333F"/>
<path d="M175.311 44.415C175.254 44.415 175.197 44.4106 175.14 44.3975V43.9381C175.197 43.9513 175.254 43.9556 175.311 43.9556C175.385 43.9556 175.451 43.9381 175.504 43.9031C175.556 43.8681 175.609 43.7938 175.661 43.6888C175.714 43.5838 175.779 43.4219 175.858 43.2119L174.567 40.1756H175.127L176.112 42.6388L177.004 40.1756H177.542L176.396 43.2119C176.287 43.5006 176.186 43.7281 176.09 43.9075C175.994 44.0825 175.884 44.2138 175.762 44.2925C175.644 44.3756 175.49 44.415 175.311 44.415Z" fill="#37333F"/>
</g>
</g>
<defs>
<clipPath id="clip0_17428_53237">
<rect width="187.25" height="49" fill="white" transform="translate(0.468506)"/>
</clipPath>
<clipPath id="clip1_17428_53237">
<rect width="177.804" height="48.8075" fill="white" transform="translate(0.468506)"/>
</clipPath>
</defs>
</svg>
