<svg width="189" height="49" viewBox="0 0 189 49" fill="none" xmlns="http://www.w3.org/2000/svg">
<g clip-path="url(#clip0_17428_25280)">
<g clip-path="url(#clip1_17428_25280)">
<path d="M78.0447 8.50852H83.7286V33.0686H78.0447V8.50852ZM66.8874 33.0686H61.2035V8.50852H66.8874V33.0686ZM78.4657 22.9989H66.4664V18.1922H78.4657V22.9989ZM89.882 33.0686V8.50852H107.214L107.179 13.1398H94.1976L95.4957 11.8417L95.5308 33.0686H89.882ZM110.68 33.0686V8.50852H115.381L125.837 25.8409H123.346L133.626 8.50852H138.328L138.363 33.0686H133.03L132.994 16.6835H134.012L125.767 30.4722H123.241L114.82 16.6835H116.013V33.0686H110.68ZM160.358 33.0686L152.709 21.2447L157.305 18.4729L166.813 33.0686H160.358ZM144.394 33.0686V8.50852H150.042V33.0686H144.394ZM148.393 23.1744V18.4378H156.954V23.1744H148.393ZM157.831 21.4201L152.604 20.7885L160.568 8.50852H166.568L157.831 21.4201Z" fill="#37333F"/>
<path d="M60.8704 43.4202V40.4051H61.2765V41.6941H62.8789V40.4051H63.285V43.4202H62.8789V42.0473H61.2765V43.4202H60.8704Z" fill="#37333F"/>
<path d="M64.7904 43.4643C64.6226 43.4643 64.4814 43.4334 64.3666 43.3716C64.2518 43.3098 64.1635 43.2259 64.1017 43.1156C64.0399 43.0096 64.009 42.886 64.009 42.7536C64.009 42.5285 64.0752 42.3651 64.2077 42.2636C64.3401 42.1621 64.5343 42.1135 64.7816 42.1135H65.5232V41.959C65.5232 41.7648 65.479 41.6279 65.3907 41.5529C65.3025 41.4778 65.17 41.4425 64.9979 41.4425C64.8345 41.4425 64.7153 41.4734 64.6403 41.5352C64.5652 41.597 64.5255 41.6676 64.5167 41.7427H64.137C64.1459 41.6191 64.1856 41.5087 64.2607 41.4116C64.3357 41.3145 64.4372 41.2395 64.5652 41.1821C64.6933 41.1247 64.8434 41.0982 65.0155 41.0982C65.1965 41.0982 65.351 41.1247 65.4834 41.1821C65.6159 41.2395 65.7174 41.3277 65.788 41.4425C65.8587 41.5617 65.894 41.7206 65.894 41.9149V42.8419C65.894 42.9611 65.894 43.067 65.894 43.1597C65.894 43.2524 65.9028 43.3363 65.9116 43.4246H65.5806C65.5717 43.3584 65.5673 43.2966 65.5629 43.2392C65.5585 43.1818 65.5585 43.1156 65.5585 43.0405C65.4967 43.1597 65.3996 43.2613 65.2671 43.3451C65.1347 43.429 64.9802 43.4643 64.7904 43.4643ZM64.8698 43.12C64.989 43.12 65.0994 43.0979 65.2009 43.0538C65.298 43.0096 65.3775 42.9478 65.4393 42.864C65.4967 42.7801 65.5276 42.6785 65.5276 42.5594V42.4049H64.8522C64.7109 42.4049 64.6006 42.4313 64.5211 42.4887C64.4416 42.5461 64.4019 42.6344 64.4019 42.7536C64.4019 42.8595 64.4416 42.9478 64.5167 43.0185C64.5873 43.0847 64.7065 43.12 64.8698 43.12Z" fill="#37333F"/>
<path d="M66.6577 43.4202V41.1379H67.6465C67.8363 41.1379 67.9908 41.1644 68.11 41.2174C68.2292 41.2703 68.3175 41.3454 68.3749 41.4381C68.4322 41.5308 68.4587 41.6412 68.4587 41.7648C68.4587 41.8663 68.4278 41.959 68.3616 42.0517C68.2954 42.1444 68.2159 42.2062 68.1144 42.2371C68.2557 42.2724 68.3616 42.3386 68.4367 42.4313C68.5117 42.5285 68.547 42.6388 68.547 42.7668C68.547 42.9655 68.4808 43.1244 68.3484 43.2392C68.2159 43.3584 68.0085 43.4158 67.7304 43.4158H66.6577V43.4202ZM67.0373 42.1047H67.6465C67.8098 42.1047 67.9246 42.0738 67.9908 42.0164C68.057 41.959 68.0879 41.8795 68.0879 41.778C68.0879 41.6853 68.057 41.6103 67.9908 41.5529C67.9246 41.4999 67.8142 41.469 67.6465 41.469H67.0373V42.1047ZM67.0373 43.0847H67.7348C67.8937 43.0847 68.0085 43.0582 68.0747 43.0008C68.1409 42.9434 68.1718 42.8595 68.1718 42.7536C68.1718 42.6432 68.1409 42.5594 68.0747 42.502C68.0085 42.4446 67.8937 42.4137 67.7348 42.4137H67.0373V43.0847Z" fill="#37333F"/>
<path d="M70.123 43.4643C69.9288 43.4643 69.7522 43.4202 69.5844 43.3363C69.4167 43.2524 69.2798 43.1244 69.1783 42.9522C69.0768 42.7801 69.0238 42.5638 69.0238 42.3033V42.215C69.0238 41.9678 69.0768 41.7604 69.1783 41.597C69.2798 41.4293 69.4167 41.3057 69.5844 41.2218C69.7522 41.1379 69.9332 41.0982 70.123 41.0982C70.3172 41.0982 70.4982 41.1379 70.666 41.2218C70.8337 41.3057 70.9661 41.4293 71.0677 41.597C71.1692 41.7648 71.2222 41.9678 71.2222 42.215V42.3033C71.2222 42.5638 71.1692 42.7801 71.0677 42.9522C70.9661 43.1244 70.8337 43.2524 70.666 43.3363C70.4982 43.4202 70.3172 43.4643 70.123 43.4643ZM70.123 43.12C70.2422 43.12 70.3525 43.0935 70.4629 43.0405C70.5688 42.9876 70.6616 42.8993 70.7278 42.7801C70.7984 42.6609 70.8337 42.502 70.8337 42.3033V42.215C70.8337 42.0296 70.7984 41.884 70.7278 41.7692C70.6571 41.6544 70.5688 41.5705 70.4629 41.5176C70.357 41.4646 70.2422 41.4381 70.123 41.4381C70.0082 41.4381 69.8979 41.4646 69.7875 41.5176C69.6771 41.5705 69.5888 41.6544 69.5182 41.7692C69.4476 41.884 69.4123 42.0296 69.4123 42.215V42.3033C69.4123 42.502 69.4476 42.6609 69.5182 42.7801C69.5888 42.8993 69.6771 42.9876 69.7875 43.0405C69.8934 43.0935 70.0082 43.12 70.123 43.12Z" fill="#37333F"/>
<path d="M71.8446 43.4202V41.1379H72.2242V42.8595L73.4029 41.1379H73.7825V43.4202H73.4029V41.6985L72.2242 43.4202H71.8446Z" fill="#37333F"/>
<path d="M74.5551 43.4202V41.1379H74.9347V42.8595L76.1133 41.1379H76.493V43.4202H76.1133V41.6986L74.9347 43.4202H74.5551ZM75.5218 40.8598C75.2967 40.8598 75.1333 40.8113 75.0318 40.7141C74.9303 40.617 74.8773 40.4802 74.8773 40.2992H75.2481C75.2481 40.3963 75.2702 40.4713 75.3187 40.5199C75.3673 40.5685 75.4335 40.595 75.5262 40.595C75.6189 40.595 75.694 40.5685 75.7381 40.5199C75.7867 40.4713 75.8087 40.3963 75.8087 40.2992H76.1707C76.1707 40.4802 76.1178 40.617 76.0162 40.7141C75.9103 40.8113 75.7469 40.8598 75.5218 40.8598Z" fill="#37333F"/>
<path d="M78.1484 43.4643C77.9542 43.4643 77.7776 43.4202 77.6231 43.3363C77.4686 43.2524 77.345 43.1244 77.2523 42.9522C77.1596 42.7801 77.1154 42.5638 77.1154 42.3033V42.215C77.1154 41.9678 77.164 41.7604 77.2611 41.597C77.3582 41.4293 77.4862 41.3057 77.6451 41.2218C77.8041 41.1379 77.9718 41.0982 78.1484 41.0982C78.3294 41.0982 78.4839 41.1291 78.6163 41.1953C78.7487 41.2615 78.8503 41.3454 78.9342 41.4558C79.0136 41.5661 79.071 41.6897 79.0975 41.8266H78.709C78.6649 41.7162 78.5987 41.6235 78.5192 41.5529C78.4353 41.4778 78.3161 41.4425 78.1528 41.4425C78.0424 41.4425 77.9365 41.469 77.8394 41.522C77.7423 41.5749 77.6628 41.6588 77.601 41.7736C77.5392 41.8884 77.5083 42.034 77.5083 42.2195V42.3077C77.5083 42.502 77.5392 42.6609 77.601 42.7801C77.6628 42.8993 77.7423 42.9876 77.8394 43.0405C77.9365 43.0935 78.0424 43.1244 78.1528 43.1244C78.2941 43.1244 78.4133 43.0891 78.506 43.0229C78.6031 42.9522 78.6693 42.8595 78.709 42.7404H79.0975C79.0622 42.8904 79.0004 43.0185 78.9121 43.1288C78.8238 43.2392 78.7134 43.3231 78.5854 43.3849C78.453 43.4334 78.3073 43.4643 78.1484 43.4643Z" fill="#37333F"/>
<path d="M79.6979 43.4202V41.1379H80.0775V42.0958H80.3777L81.2297 41.1379H81.6755L80.6867 42.2327L81.7197 43.4202H81.2385L80.3777 42.4225H80.0775V43.4202H79.6979Z" fill="#37333F"/>
<path d="M82.2582 43.4202V41.1379H82.6378V42.8595L83.8165 41.1379H84.1961V43.4202H83.8165V41.6985L82.6378 43.4202H82.2582Z" fill="#37333F"/>
<path d="M84.9686 43.4202V41.1379H85.3483V42.8595L86.5269 41.1379H86.9066V43.4202H86.5269V41.6986L85.3483 43.4202H84.9686ZM85.9398 40.8598C85.7147 40.8598 85.5513 40.8113 85.4498 40.7141C85.3483 40.617 85.2953 40.4802 85.2953 40.2992H85.6661C85.6661 40.3963 85.6882 40.4713 85.7367 40.5199C85.7809 40.5685 85.8515 40.595 85.9442 40.595C86.0369 40.595 86.112 40.5685 86.1561 40.5199C86.2003 40.4713 86.2267 40.3963 86.2267 40.2992H86.5887C86.5887 40.4802 86.5357 40.617 86.4342 40.7141C86.3327 40.8113 86.1605 40.8598 85.9398 40.8598Z" fill="#37333F"/>
<path d="M89.1005 43.4202V40.4051H90.9943V40.7583H89.5067V43.4202H89.1005Z" fill="#37333F"/>
<path d="M92.067 43.4643C91.8728 43.4643 91.6962 43.4202 91.5285 43.3363C91.3607 43.2524 91.2239 43.1244 91.1223 42.9522C91.0208 42.7801 90.9678 42.5638 90.9678 42.3033V42.215C90.9678 41.9678 91.0208 41.7604 91.1223 41.597C91.2239 41.4337 91.3607 41.3057 91.5285 41.2218C91.6962 41.1379 91.8772 41.0982 92.067 41.0982C92.2613 41.0982 92.4422 41.1379 92.61 41.2218C92.7777 41.3057 92.9102 41.4293 93.0117 41.597C93.1132 41.7648 93.1662 41.9678 93.1662 42.215V42.3033C93.1662 42.5638 93.1132 42.7801 93.0117 42.9522C92.9102 43.1244 92.7733 43.2524 92.61 43.3363C92.4467 43.4202 92.2657 43.4643 92.067 43.4643ZM92.067 43.12C92.1862 43.12 92.2966 43.0935 92.4069 43.0405C92.5129 42.9876 92.6056 42.8993 92.6718 42.7801C92.7424 42.6609 92.7777 42.502 92.7777 42.3033V42.215C92.7777 42.0296 92.7424 41.884 92.6718 41.7692C92.6012 41.6544 92.5129 41.5705 92.4069 41.5176C92.301 41.4646 92.1862 41.4381 92.067 41.4381C91.9522 41.4381 91.8419 41.4646 91.7315 41.5176C91.6212 41.5705 91.5329 41.6544 91.4622 41.7692C91.3916 41.884 91.3563 42.0296 91.3563 42.215V42.3033C91.3563 42.502 91.3916 42.6609 91.4622 42.7801C91.5329 42.8993 91.6212 42.9876 91.7315 43.0405C91.8419 43.0935 91.9522 43.12 92.067 43.12Z" fill="#37333F"/>
<path d="M93.793 44.281V41.1379H94.1462V41.5705C94.2212 41.4204 94.3316 41.3013 94.4728 41.2218C94.6141 41.1379 94.773 41.0982 94.9584 41.0982C95.2454 41.0982 95.4749 41.1909 95.6471 41.3807C95.8192 41.5705 95.9031 41.8486 95.9031 42.2195V42.3077C95.9031 42.5638 95.8634 42.7801 95.7839 42.9522C95.7045 43.1244 95.5941 43.2524 95.4528 43.3407C95.3116 43.429 95.1438 43.4687 94.954 43.4687C94.7598 43.4687 94.5965 43.4246 94.464 43.3407C94.336 43.2568 94.2345 43.1465 94.1683 43.0185V44.2898H93.793V44.281ZM94.8657 43.1288C95.0511 43.1288 95.2101 43.0582 95.3337 42.9169C95.4573 42.7757 95.5191 42.5726 95.5191 42.3033V42.215C95.5191 41.9634 95.4573 41.7736 95.3337 41.6367C95.2101 41.4999 95.0555 41.4337 94.8657 41.4337C94.7289 41.4337 94.6053 41.4646 94.5038 41.522C94.4022 41.5794 94.3183 41.6588 94.2565 41.7559C94.1992 41.8531 94.1683 41.9678 94.1683 42.0914V42.4358C94.1683 42.5726 94.1992 42.6962 94.2565 42.7977C94.3139 42.9037 94.3978 42.9831 94.5038 43.0449C94.6097 43.0979 94.7289 43.1288 94.8657 43.1288Z" fill="#37333F"/>
<path d="M96.5256 43.4202V41.1379H96.9052V42.0914H98.0839V41.1379H98.4635V43.4202H98.0839V42.4269H96.9052V43.4202H96.5256Z" fill="#37333F"/>
<path d="M100.181 43.4643C99.9864 43.4643 99.8099 43.4202 99.6421 43.3363C99.4744 43.2524 99.3375 43.1244 99.236 42.9522C99.1345 42.7801 99.0815 42.5638 99.0815 42.3033V42.215C99.0815 41.9678 99.1345 41.7604 99.236 41.597C99.3375 41.4293 99.4744 41.3057 99.6421 41.2218C99.8099 41.1379 99.9909 41.0982 100.181 41.0982C100.375 41.0982 100.556 41.1379 100.724 41.2218C100.891 41.3057 101.024 41.4293 101.125 41.597C101.227 41.7648 101.28 41.9678 101.28 42.215V42.3033C101.28 42.5638 101.227 42.7801 101.125 42.9522C101.024 43.1244 100.891 43.2524 100.724 43.3363C100.56 43.4202 100.379 43.4643 100.181 43.4643ZM100.181 43.12C100.3 43.12 100.41 43.0935 100.521 43.0405C100.627 42.9876 100.719 42.8993 100.785 42.7801C100.856 42.6609 100.891 42.502 100.891 42.3033V42.215C100.891 42.0296 100.856 41.884 100.785 41.7692C100.715 41.6544 100.627 41.5705 100.521 41.5176C100.415 41.4646 100.3 41.4381 100.181 41.4381C100.066 41.4381 99.9555 41.4646 99.8452 41.5176C99.7348 41.5705 99.6465 41.6544 99.5759 41.7692C99.5053 41.884 99.47 42.0296 99.47 42.215V42.3033C99.47 42.502 99.5053 42.6609 99.5759 42.7801C99.6465 42.8993 99.7348 42.9876 99.8452 43.0405C99.9555 43.0935 100.066 43.12 100.181 43.12Z" fill="#37333F"/>
<path d="M101.73 42.3916V42.0385H103.019V42.3916H101.73Z" fill="#37333F"/>
<path d="M103.712 43.4202V40.4051H104.136L105.142 42.321L106.149 40.4051H106.555V43.4202H106.149V41.1379L105.284 42.7757H104.984L104.118 41.1379V43.4202H103.712Z" fill="#37333F"/>
<path d="M108.44 43.4643C108.246 43.4643 108.069 43.4246 107.902 43.3407C107.734 43.2568 107.597 43.1288 107.495 42.9567C107.394 42.7845 107.341 42.5682 107.341 42.3033V42.215C107.341 41.9634 107.39 41.7559 107.487 41.5882C107.584 41.4204 107.712 41.3013 107.875 41.2174C108.034 41.1335 108.211 41.0938 108.396 41.0938C108.731 41.0938 108.992 41.1865 109.173 41.3675C109.354 41.5485 109.447 41.8089 109.447 42.1444V42.3872H107.716C107.716 42.5638 107.751 42.705 107.827 42.811C107.902 42.9169 107.99 42.9964 108.1 43.0405C108.211 43.0891 108.321 43.1112 108.431 43.1112C108.603 43.1112 108.736 43.0847 108.829 43.0229C108.921 42.9655 108.988 42.886 109.027 42.7845H109.398C109.354 43.0008 109.239 43.1686 109.058 43.2833C108.895 43.4069 108.683 43.4643 108.44 43.4643ZM108.422 41.4425C108.303 41.4425 108.193 41.4646 108.087 41.5087C107.981 41.5529 107.893 41.6235 107.827 41.7162C107.76 41.8089 107.725 41.9325 107.725 42.0826H109.098C109.093 41.9237 109.063 41.8001 109.001 41.7074C108.939 41.6147 108.859 41.5485 108.758 41.5043C108.656 41.4602 108.546 41.4425 108.422 41.4425Z" fill="#37333F"/>
<path d="M110.559 43.4202V41.4734H109.782V41.1379H111.72V41.4734H110.943V43.4202H110.559Z" fill="#37333F"/>
<path d="M112.872 43.4643C112.704 43.4643 112.563 43.4334 112.448 43.3716C112.334 43.3098 112.245 43.2259 112.183 43.1156C112.122 43.0096 112.091 42.886 112.091 42.7536C112.091 42.5285 112.157 42.3651 112.289 42.2636C112.422 42.1621 112.616 42.1135 112.863 42.1135H113.605V41.959C113.605 41.7648 113.561 41.6279 113.472 41.5529C113.384 41.4778 113.252 41.4425 113.08 41.4425C112.916 41.4425 112.797 41.4734 112.722 41.5352C112.647 41.597 112.607 41.6676 112.598 41.7427H112.219C112.228 41.6191 112.267 41.5087 112.342 41.4116C112.417 41.3145 112.519 41.2395 112.647 41.1821C112.775 41.1247 112.925 41.0982 113.097 41.0982C113.278 41.0982 113.433 41.1247 113.565 41.1821C113.698 41.2395 113.799 41.3277 113.87 41.4425C113.94 41.5617 113.976 41.7206 113.976 41.9149V42.8419C113.976 42.9611 113.976 43.067 113.976 43.1597C113.976 43.2524 113.985 43.3363 113.993 43.4246H113.662C113.653 43.3584 113.649 43.2966 113.645 43.2392C113.64 43.1818 113.64 43.1156 113.64 43.0405C113.578 43.1597 113.481 43.2613 113.349 43.3451C113.216 43.429 113.066 43.4643 112.872 43.4643ZM112.956 43.12C113.075 43.12 113.186 43.0979 113.287 43.0538C113.384 43.0096 113.464 42.9478 113.525 42.864C113.587 42.7801 113.614 42.6785 113.614 42.5594V42.4049H112.938C112.797 42.4049 112.687 42.4313 112.607 42.4887C112.528 42.5461 112.488 42.6344 112.488 42.7536C112.488 42.8595 112.528 42.9478 112.603 43.0185C112.673 43.0847 112.793 43.12 112.956 43.12Z" fill="#37333F"/>
<path d="M114.633 43.4643C114.611 43.4643 114.594 43.4643 114.572 43.4599C114.55 43.4555 114.528 43.4555 114.505 43.4511V43.0714C114.514 43.0758 114.536 43.0758 114.572 43.0758C114.66 43.0758 114.726 43.0361 114.784 42.9611C114.837 42.886 114.876 42.7492 114.903 42.5549C114.925 42.3607 114.938 42.0914 114.938 41.7383V41.1335H116.576V43.4158H116.196V41.469H115.318V41.8222C115.318 42.14 115.304 42.4049 115.274 42.6168C115.243 42.8286 115.203 42.9964 115.146 43.12C115.088 43.2436 115.017 43.3319 114.934 43.3804C114.845 43.4378 114.744 43.4643 114.633 43.4643Z" fill="#37333F"/>
<path d="M117.238 43.4643C117.216 43.4643 117.198 43.4643 117.176 43.4599C117.154 43.4555 117.132 43.4555 117.11 43.4511V43.0714C117.119 43.0758 117.141 43.0758 117.176 43.0758C117.264 43.0758 117.331 43.0361 117.388 42.9611C117.441 42.886 117.481 42.7492 117.507 42.5549C117.529 42.3607 117.543 42.0914 117.543 41.7383V41.1335H119.18V43.4158H118.801V41.469H117.922V41.8222C117.922 42.14 117.909 42.4049 117.878 42.6168C117.847 42.8286 117.807 42.9964 117.75 43.12C117.693 43.2436 117.622 43.3319 117.538 43.3804C117.45 43.4378 117.348 43.4643 117.238 43.4643Z" fill="#37333F"/>
<path d="M120.249 44.3251C120.204 44.3251 120.16 44.3207 120.121 44.3119V43.9676C120.165 43.9764 120.209 43.9808 120.249 43.9808C120.306 43.9808 120.355 43.9676 120.394 43.9411C120.434 43.9146 120.474 43.8616 120.513 43.7777C120.553 43.6983 120.602 43.5791 120.659 43.4202L119.692 41.1379H120.116L120.858 42.9876L121.529 41.1379H121.935L121.074 43.4202C120.995 43.6365 120.915 43.8086 120.845 43.9411C120.769 44.0735 120.69 44.1706 120.597 44.2324C120.5 44.2942 120.39 44.3251 120.249 44.3251Z" fill="#37333F"/>
<path d="M122.447 44.281V41.1379H122.8V41.5705C122.88 41.4204 122.986 41.3013 123.127 41.2218C123.268 41.1423 123.427 41.0982 123.612 41.0982C123.899 41.0982 124.129 41.1909 124.301 41.3807C124.473 41.5705 124.557 41.8486 124.557 42.2195V42.3077C124.557 42.5638 124.517 42.7801 124.438 42.9522C124.358 43.1244 124.248 43.2524 124.107 43.3407C123.966 43.429 123.798 43.4687 123.608 43.4687C123.414 43.4687 123.25 43.4246 123.118 43.3407C122.986 43.2568 122.888 43.1465 122.822 43.0185V44.2898H122.447V44.281ZM123.52 43.1288C123.705 43.1288 123.864 43.0582 123.988 42.9169C124.111 42.7757 124.173 42.5726 124.173 42.3033V42.215C124.173 41.9634 124.111 41.7736 123.988 41.6367C123.864 41.4999 123.705 41.4337 123.52 41.4337C123.383 41.4337 123.259 41.4646 123.158 41.522C123.056 41.5794 122.972 41.6588 122.91 41.7559C122.853 41.8531 122.822 41.9678 122.822 42.0914V42.4358C122.822 42.5726 122.853 42.6962 122.91 42.7977C122.968 42.9037 123.052 42.9831 123.158 43.0449C123.264 43.0979 123.383 43.1288 123.52 43.1288Z" fill="#37333F"/>
<path d="M125.18 43.4202V41.1379H126.729V41.4734H125.559V43.4202H125.18Z" fill="#37333F"/>
<path d="M127.245 43.4202V41.1379H127.625V42.8595L128.804 41.1379H129.183V43.4202H128.804V41.6985L127.625 43.4202H127.245Z" fill="#37333F"/>
<path d="M131.276 43.4202V42.5108C131.21 42.5505 131.13 42.5858 131.037 42.6167C130.945 42.6476 130.826 42.6653 130.689 42.6653C130.424 42.6653 130.216 42.6035 130.071 42.4843C129.925 42.3651 129.85 42.1576 129.85 41.8707V41.1379H130.225V41.8045C130.225 41.9987 130.265 42.1356 130.344 42.2106C130.424 42.2857 130.561 42.321 130.751 42.321C130.879 42.321 130.989 42.3077 131.082 42.2813C131.174 42.2548 131.236 42.2283 131.276 42.2018V41.1379H131.655V43.4202H131.276Z" fill="#37333F"/>
<path d="M133.377 43.4643C133.183 43.4643 133.006 43.4246 132.839 43.3407C132.671 43.2568 132.534 43.1288 132.432 42.9567C132.331 42.7845 132.278 42.5682 132.278 42.3033V42.215C132.278 41.9634 132.326 41.7559 132.424 41.5882C132.521 41.4204 132.649 41.3012 132.812 41.2174C132.971 41.1335 133.148 41.0938 133.333 41.0938C133.668 41.0938 133.929 41.1865 134.11 41.3675C134.291 41.5485 134.384 41.8089 134.384 42.1444V42.3872H132.653C132.653 42.5638 132.688 42.705 132.763 42.811C132.839 42.9169 132.927 42.9964 133.037 43.0405C133.148 43.0891 133.258 43.1112 133.368 43.1112C133.54 43.1112 133.673 43.0847 133.766 43.0229C133.858 42.9655 133.924 42.886 133.964 42.7845H134.335C134.291 43.0008 134.176 43.1685 133.995 43.2833C133.827 43.4069 133.62 43.4643 133.377 43.4643ZM133.355 41.4425C133.236 41.4425 133.125 41.4646 133.02 41.5087C132.914 41.5529 132.825 41.6235 132.759 41.7162C132.693 41.8089 132.658 41.9325 132.658 42.0826H134.03C134.026 41.9237 133.995 41.8001 133.933 41.7074C133.871 41.6147 133.792 41.5485 133.691 41.5043C133.589 41.4602 133.479 41.4425 133.355 41.4425Z" fill="#37333F"/>
<path d="M135.893 43.4643C135.699 43.4643 135.522 43.4202 135.368 43.3363C135.213 43.2524 135.09 43.1244 134.997 42.9522C134.904 42.7801 134.86 42.5638 134.86 42.3033V42.215C134.86 41.9678 134.909 41.7604 135.006 41.597C135.103 41.4293 135.231 41.3057 135.39 41.2218C135.549 41.1379 135.717 41.0982 135.893 41.0982C136.074 41.0982 136.229 41.1291 136.361 41.1953C136.494 41.2615 136.6 41.3454 136.679 41.4558C136.758 41.5661 136.816 41.6897 136.842 41.8266H136.454C136.41 41.7162 136.344 41.6235 136.264 41.5529C136.185 41.4822 136.061 41.4425 135.898 41.4425C135.787 41.4425 135.681 41.469 135.584 41.522C135.487 41.5749 135.408 41.6588 135.346 41.7736C135.284 41.8884 135.253 42.034 135.253 42.2195V42.3077C135.253 42.502 135.284 42.6609 135.346 42.7801C135.408 42.8993 135.487 42.9876 135.584 43.0405C135.681 43.0935 135.787 43.1244 135.898 43.1244C136.039 43.1244 136.158 43.0891 136.251 43.0229C136.348 42.9522 136.414 42.8595 136.454 42.7404H136.842C136.807 42.8904 136.745 43.0185 136.657 43.1288C136.569 43.2392 136.458 43.3231 136.33 43.3849C136.202 43.4334 136.057 43.4643 135.893 43.4643Z" fill="#37333F"/>
<path d="M137.443 43.4202V41.1379H137.822V42.0958H138.123L138.975 41.1379H139.42L138.432 42.2327L139.465 43.4202H138.983L138.123 42.4225H137.822V43.4202H137.443Z" fill="#37333F"/>
<path d="M140.008 43.4202V41.1379H140.387V42.8595L141.566 41.1379H141.945V43.4202H141.566V41.6985L140.387 43.4202H140.008Z" fill="#37333F"/>
<path d="M142.718 43.4202V41.1379H143.098V42.8595L144.276 41.1379H144.656V43.4202H144.276V41.6986L143.098 43.4202H142.718ZM143.685 40.8598C143.46 40.8598 143.296 40.8113 143.195 40.7141C143.093 40.617 143.04 40.4802 143.04 40.2992H143.411C143.411 40.3963 143.433 40.4713 143.482 40.5199C143.526 40.5685 143.596 40.595 143.689 40.595C143.782 40.595 143.857 40.5685 143.901 40.5199C143.945 40.4713 143.972 40.3963 143.972 40.2992H144.334C144.334 40.4802 144.281 40.617 144.179 40.7141C144.078 40.8113 143.91 40.8598 143.685 40.8598Z" fill="#37333F"/>
<path d="M147.062 43.4202V40.4051H147.468V41.6986H147.812L148.991 40.4051H149.472L148.157 41.8442L149.516 43.4202H149L147.812 42.0385H147.468V43.4202H147.062Z" fill="#37333F"/>
<path d="M150.977 43.4643C150.783 43.4643 150.607 43.4202 150.439 43.3363C150.271 43.2524 150.134 43.1244 150.033 42.9522C149.931 42.7801 149.878 42.5638 149.878 42.3033V42.215C149.878 41.9678 149.931 41.7604 150.033 41.597C150.134 41.4293 150.271 41.3057 150.439 41.2218C150.607 41.1379 150.788 41.0982 150.977 41.0982C151.172 41.0982 151.353 41.1379 151.52 41.2218C151.688 41.3057 151.821 41.4293 151.922 41.597C152.024 41.7648 152.077 41.9678 152.077 42.215V42.3033C152.077 42.5638 152.024 42.7801 151.922 42.9522C151.821 43.1244 151.688 43.2524 151.52 43.3363C151.357 43.4202 151.176 43.4643 150.977 43.4643ZM150.977 43.12C151.097 43.12 151.207 43.0935 151.317 43.0405C151.423 42.9876 151.516 42.8993 151.582 42.7801C151.653 42.6609 151.688 42.502 151.688 42.3033V42.215C151.688 42.0296 151.653 41.884 151.582 41.7692C151.512 41.6544 151.423 41.5705 151.317 41.5176C151.211 41.4646 151.097 41.4381 150.977 41.4381C150.863 41.4381 150.752 41.4646 150.642 41.5176C150.532 41.5705 150.443 41.6544 150.373 41.7692C150.302 41.884 150.267 42.0296 150.267 42.215V42.3033C150.267 42.502 150.302 42.6609 150.373 42.7801C150.443 42.8993 150.532 42.9876 150.642 43.0405C150.752 43.0935 150.867 43.12 150.977 43.12Z" fill="#37333F"/>
<path d="M152.699 43.4202V41.1379H153.105L153.917 42.5594L154.73 41.1379H155.109V43.4202H154.73V41.7648L154.054 42.9258H153.754L153.079 41.7648V43.4202H152.699Z" fill="#37333F"/>
<path d="M156.831 43.4643C156.628 43.4643 156.447 43.4113 156.288 43.3098C156.125 43.2083 155.997 43.0626 155.9 42.8684C155.802 42.6741 155.754 42.4446 155.754 42.1709V42.0826C155.754 41.7383 155.789 41.4425 155.86 41.1997C155.93 40.9569 156.05 40.7671 156.217 40.6303C156.385 40.4934 156.619 40.4184 156.915 40.4051C157.034 40.4007 157.144 40.3963 157.246 40.3919C157.347 40.3875 157.436 40.3786 157.515 40.3654C157.595 40.3522 157.665 40.3301 157.732 40.2992V40.6656C157.701 40.6832 157.656 40.6965 157.59 40.7097C157.524 40.723 157.445 40.7318 157.343 40.7362C157.242 40.7406 157.122 40.7495 156.977 40.7539C156.791 40.7583 156.641 40.7848 156.513 40.8466C156.39 40.904 156.292 40.9967 156.222 41.1203C156.151 41.2439 156.111 41.416 156.094 41.6323C156.138 41.5308 156.204 41.4425 156.284 41.3675C156.363 41.2924 156.456 41.2395 156.562 41.1953C156.668 41.1556 156.782 41.1335 156.91 41.1335C157.105 41.1335 157.277 41.1777 157.427 41.2615C157.573 41.3498 157.692 41.469 157.776 41.6323C157.86 41.7913 157.904 41.9855 157.904 42.2106V42.2989C157.904 42.5329 157.855 42.7404 157.762 42.9125C157.67 43.0847 157.542 43.2215 157.378 43.3186C157.215 43.4158 157.038 43.4643 156.831 43.4643ZM156.831 43.12C157.034 43.12 157.197 43.0494 157.325 42.9125C157.453 42.7713 157.52 42.5682 157.52 42.3033V42.215C157.52 41.9943 157.453 41.8177 157.325 41.6853C157.197 41.5529 157.03 41.4867 156.831 41.4867C156.632 41.4867 156.465 41.5529 156.337 41.6853C156.209 41.8177 156.142 41.9943 156.142 42.215V42.3033C156.142 42.4711 156.173 42.6168 156.235 42.7404C156.297 42.864 156.381 42.9567 156.487 43.0229C156.593 43.0847 156.707 43.12 156.831 43.12Z" fill="#37333F"/>
<path d="M158.535 43.4202V41.1379H158.914V42.8595L160.093 41.1379H160.473V43.4202H160.093V41.6985L158.914 43.4202H158.535Z" fill="#37333F"/>
<path d="M161.245 43.4202V41.1379H161.625V42.0914H162.804V41.1379H163.183V43.4202H162.804V42.4269H161.625V43.4202H161.245Z" fill="#37333F"/>
<path d="M164.605 43.4643C164.437 43.4643 164.296 43.4334 164.181 43.3716C164.066 43.3098 163.978 43.2259 163.916 43.1156C163.854 43.0096 163.823 42.886 163.823 42.7536C163.823 42.5285 163.89 42.3651 164.022 42.2636C164.154 42.1621 164.349 42.1135 164.596 42.1135H165.337V41.959C165.337 41.7648 165.293 41.6279 165.205 41.5529C165.117 41.4778 164.984 41.4425 164.812 41.4425C164.649 41.4425 164.53 41.4734 164.455 41.5352C164.38 41.597 164.34 41.6676 164.331 41.7427H163.951C163.96 41.6191 164 41.5087 164.075 41.4116C164.15 41.3145 164.252 41.2395 164.38 41.1821C164.508 41.1247 164.658 41.0982 164.83 41.0982C165.011 41.0982 165.165 41.1247 165.298 41.1821C165.43 41.2395 165.532 41.3277 165.602 41.4425C165.673 41.5617 165.708 41.7206 165.708 41.9149V42.8419C165.708 42.9611 165.708 43.067 165.708 43.1597C165.708 43.2524 165.717 43.3363 165.726 43.4246H165.395C165.386 43.3584 165.382 43.2966 165.377 43.2392C165.373 43.1818 165.373 43.1156 165.373 43.0405C165.311 43.1597 165.214 43.2613 165.081 43.3451C164.949 43.429 164.799 43.4643 164.605 43.4643ZM164.689 43.12C164.808 43.12 164.918 43.0979 165.02 43.0538C165.117 43.0096 165.196 42.9478 165.258 42.864C165.315 42.7801 165.346 42.6785 165.346 42.5594V42.4049H164.671C164.53 42.4049 164.419 42.4313 164.34 42.4887C164.26 42.5461 164.221 42.6344 164.221 42.7536C164.221 42.8595 164.26 42.9478 164.335 43.0185C164.406 43.0847 164.525 43.12 164.689 43.12Z" fill="#37333F"/>
<path d="M166.997 43.4202V41.4734H166.216V41.1379H168.154V41.4734H167.377V43.4202H166.997Z" fill="#37333F"/>
<path d="M4.86028 20.2798C5.80497 19.4278 8.01217 18.8319 10.5858 18.8319C13.1594 18.8319 15.3622 19.4278 16.3113 20.2798C16.6291 19.9929 16.8057 19.6794 16.8057 19.3528C16.8057 18.0417 14.0246 16.9778 10.5902 16.9778C7.15578 16.9778 4.37469 18.0417 4.37469 19.3528C4.37469 19.6839 4.55127 19.9973 4.86911 20.2798H4.86028Z" fill="#BC9339"/>
<path d="M20.0944 19.3528C20.0944 19.6839 20.271 19.9973 20.5888 20.2798C21.5335 19.4278 23.7407 18.8319 26.3143 18.8319C28.8879 18.8319 31.0907 19.4278 32.0398 20.2798C32.3577 19.9929 32.5342 19.6794 32.5342 19.3528C32.5342 18.0417 29.7532 16.9778 26.3187 16.9778C22.8843 16.9778 20.1033 18.0417 20.1033 19.3528H20.0944Z" fill="#BC9339"/>
<path d="M18.4478 18.3375C19.5558 17.0838 22.6548 16.1788 26.3099 16.1788C29.965 16.1788 33.064 17.0838 34.172 18.3375C35.28 17.0838 38.3789 16.1788 42.034 16.1788C44.4178 16.1788 46.5632 16.5629 48.0774 17.1765L35.77 4.86909L33.6025 7.03657L26.3099 -0.256042L19.0173 7.03657L16.8498 4.86909L4.54242 17.1765C6.05656 16.5629 8.20197 16.1788 10.5858 16.1788C14.2409 16.1788 17.3398 17.0838 18.4478 18.3375Z" fill="#BC9339"/>
<path d="M42.034 16.9734C38.5996 16.9734 35.8185 18.0373 35.8185 19.3484C35.8185 19.6795 35.9951 19.9929 36.313 20.2754C37.2576 19.4234 39.4649 18.8275 42.0385 18.8275C44.6121 18.8275 46.8148 19.4234 47.7639 20.2754C48.0818 19.9885 48.2584 19.675 48.2584 19.3484C48.2584 18.0373 45.4773 16.9734 42.0429 16.9734H42.034Z" fill="#BC9339"/>
<path d="M50.3111 19.5514C50.0418 21.2113 46.4397 22.5223 42.0297 22.5223C38.3745 22.5223 35.2756 21.6174 34.1676 20.3637C33.0596 21.6174 29.9607 22.5223 26.3055 22.5223C22.6504 22.5223 19.5515 21.6174 18.4435 20.3637C17.3354 21.6174 14.2365 22.5223 10.5814 22.5223C6.1758 22.5223 2.56922 21.2068 2.29995 19.5514H2.28229V22.0191C2.28229 23.3081 4.29526 24.4205 7.1867 24.9149L0.860846 26.9323C-0.0220365 27.334 -0.798974 27.8108 1.60247 29.6781C1.98211 29.9739 10.833 37.1958 10.833 37.1958C11.3804 37.5976 11.6629 38.1891 9.90598 38.7409C9.94571 38.8027 20.5094 35.5669 20.5094 35.5669C21.3658 35.174 22.3811 34.2029 19.7854 32.7814C19.5382 32.6446 10.9919 27.7004 10.9919 27.7004C9.22175 26.332 10.5681 25.5197 11.4466 25.171C14.7265 25.043 17.4326 24.1822 18.4479 23.0212C19.1851 23.8643 20.8272 24.5486 22.9329 24.9105L16.8057 26.9103C15.8081 27.3649 14.2498 28.0139 17.8034 29.8061C18.8717 30.3447 23.5907 33.0463 23.6878 33.0993C26.2835 34.5207 25.2681 35.3771 24.4117 35.77L14.4043 38.7365C13.4066 39.1912 12.3427 39.9063 15.243 41.8398C15.8213 42.2239 23.679 47.6227 23.679 47.6227C24.063 48.0112 24.0718 48.5188 22.5489 48.9912C22.5886 49.053 34.7768 45.1639 34.7768 45.1639C35.6332 44.771 36.6485 43.9146 34.0528 42.4931C33.4966 42.1886 27.4268 38.8292 27.4268 38.8292C24.9812 36.9354 28.4863 36.1055 28.4863 36.1055L34.534 34.0881C35.3904 33.6952 36.0879 32.9139 33.5054 31.4748C32.3577 30.8347 26.7117 27.6872 26.7117 27.6872C24.4868 26.3805 26.2879 25.5065 27.1663 25.1622C30.4507 25.0341 33.1699 24.1733 34.1853 23.0123C34.6664 23.5641 35.5361 24.0497 36.6662 24.4161L31.413 26.1068C30.5919 26.4821 29.6208 27.3031 32.1061 28.6628C32.1414 28.6849 36.8736 31.4218 37.1253 31.5542C39.7209 32.9757 38.7056 33.8321 37.8492 34.2249L30.9804 36.4145C29.9827 36.8692 28.8041 37.7521 31.8191 39.4031C31.8456 39.4163 38.0832 42.9302 38.0832 42.9302C38.4187 43.3098 38.3701 43.7954 36.909 44.2545C36.9487 44.3163 47.1769 41.085 47.1769 41.085C47.998 40.7097 48.9691 39.8886 46.4838 38.529C46.06 38.295 40.0388 36.5249 40.0388 36.5249C38.3083 35.4433 41.6236 34.9622 42.0297 34.715L51.0925 32.6004C51.9489 32.2076 52.9686 30.7155 50.1831 29.7355C48.797 29.2455 40.0388 26.4335 40.0388 26.4335C39.1559 25.8817 39.5355 25.4359 40.1756 25.0959C40.7804 25.1489 41.4072 25.1798 42.0562 25.1798C46.6383 25.1798 50.3553 23.7584 50.3553 22.0059V19.5382H50.3111V19.5514Z" fill="#BC9339"/>
</g>
</g>
<defs>
<clipPath id="clip0_17428_25280">
<rect width="188.937" height="49" fill="white"/>
</clipPath>
<clipPath id="clip1_17428_25280">
<rect width="168.326" height="49.2472" fill="white" transform="translate(0 -0.256042)"/>
</clipPath>
</defs>
</svg>
