<?xml version="1.0" encoding="UTF-8"?>
<svg xmlns="http://www.w3.org/2000/svg" xmlns:xlink="http://www.w3.org/1999/xlink" width="175px" height="49px" viewBox="0 0 174 49" version="1.1">
<g id="surface1">
<path style=" stroke:none;fill-rule:nonzero;fill:rgb(73.725492%,57.647061%,22.352941%);fill-opacity:1;" d="M 4.808594 20.445312 C 5.746094 19.597656 7.933594 19.007812 10.480469 19.007812 C 13.03125 19.007812 15.210938 19.597656 16.152344 20.445312 C 16.46875 20.160156 16.644531 19.847656 16.644531 19.523438 C 16.644531 18.226562 13.886719 17.171875 10.484375 17.171875 C 7.082031 17.171875 4.328125 18.226562 4.328125 19.523438 C 4.328125 19.851562 4.503906 20.164062 4.820312 20.445312 Z M 4.808594 20.445312 "/>
<path style=" stroke:none;fill-rule:nonzero;fill:rgb(73.725492%,57.647061%,22.352941%);fill-opacity:1;" d="M 19.898438 19.523438 C 19.898438 19.851562 20.074219 20.164062 20.390625 20.445312 C 21.324219 19.597656 23.511719 19.007812 26.0625 19.007812 C 28.609375 19.007812 30.792969 19.597656 31.734375 20.445312 C 32.046875 20.160156 32.222656 19.847656 32.222656 19.523438 C 32.222656 18.226562 29.46875 17.171875 26.066406 17.171875 C 22.664062 17.171875 19.910156 18.226562 19.910156 19.523438 Z M 19.898438 19.523438 "/>
<path style=" stroke:none;fill-rule:nonzero;fill:rgb(73.725492%,57.647061%,22.352941%);fill-opacity:1;" d="M 18.269531 18.519531 C 19.367188 17.277344 22.4375 16.378906 26.058594 16.378906 C 29.679688 16.378906 32.746094 17.277344 33.84375 18.519531 C 34.941406 17.277344 38.011719 16.378906 41.632812 16.378906 C 43.992188 16.378906 46.121094 16.757812 47.617188 17.367188 L 35.429688 5.167969 L 33.28125 7.316406 L 26.058594 0.0859375 L 18.832031 7.316406 L 16.6875 5.167969 L 4.496094 17.367188 C 5.996094 16.757812 8.121094 16.378906 10.480469 16.378906 C 14.101562 16.378906 17.171875 17.277344 18.269531 18.519531 Z M 18.269531 18.519531 "/>
<path style=" stroke:none;fill-rule:nonzero;fill:rgb(73.725492%,57.647061%,22.352941%);fill-opacity:1;" d="M 41.632812 17.167969 C 38.230469 17.167969 35.476562 18.21875 35.476562 19.519531 C 35.476562 19.847656 35.652344 20.160156 35.964844 20.4375 C 36.902344 19.59375 39.089844 19.003906 41.636719 19.003906 C 44.1875 19.003906 46.367188 19.59375 47.308594 20.4375 C 47.625 20.15625 47.796875 19.84375 47.796875 19.519531 C 47.796875 18.21875 45.042969 17.167969 41.640625 17.167969 Z M 41.632812 17.167969 "/>
<path style=" stroke:none;fill-rule:nonzero;fill:rgb(73.725492%,57.647061%,22.352941%);fill-opacity:1;" d="M 49.832031 19.722656 C 49.566406 21.367188 45.996094 22.667969 41.628906 22.667969 C 38.007812 22.667969 34.9375 21.769531 33.839844 20.527344 C 32.742188 21.769531 29.671875 22.667969 26.054688 22.667969 C 22.433594 22.667969 19.363281 21.769531 18.265625 20.527344 C 17.167969 21.769531 14.097656 22.667969 10.476562 22.667969 C 6.113281 22.667969 2.539062 21.363281 2.273438 19.722656 L 2.257812 19.722656 L 2.257812 22.167969 C 2.257812 23.445312 4.25 24.546875 7.113281 25.039062 L 0.847656 27.039062 C -0.0273438 27.4375 -0.796875 27.910156 1.582031 29.761719 C 1.960938 30.054688 10.726562 37.210938 10.726562 37.210938 C 11.269531 37.609375 11.546875 38.195312 9.808594 38.742188 C 9.847656 38.804688 20.3125 35.597656 20.3125 35.597656 C 21.160156 35.207031 22.164062 34.246094 19.59375 32.835938 C 19.347656 32.699219 10.882812 27.800781 10.882812 27.800781 C 9.128906 26.441406 10.464844 25.636719 11.335938 25.292969 C 14.582031 25.164062 17.261719 24.3125 18.269531 23.160156 C 19 23.996094 20.625 24.675781 22.710938 25.035156 L 16.644531 27.015625 C 15.65625 27.46875 14.109375 28.109375 17.632812 29.886719 C 18.6875 30.421875 23.363281 33.097656 23.460938 33.152344 C 26.03125 34.558594 25.023438 35.410156 24.175781 35.796875 L 14.265625 38.738281 C 13.277344 39.191406 12.222656 39.898438 15.09375 41.816406 C 15.667969 42.195312 23.449219 47.546875 23.449219 47.546875 C 23.832031 47.933594 23.839844 48.4375 22.332031 48.902344 C 22.371094 48.964844 34.445312 45.109375 34.445312 45.109375 C 35.292969 44.722656 36.296875 43.871094 33.726562 42.464844 C 33.175781 42.160156 27.164062 38.832031 27.164062 38.832031 C 24.742188 36.953125 28.214844 36.132812 28.214844 36.132812 L 34.203125 34.132812 C 35.050781 33.742188 35.742188 32.96875 33.183594 31.539062 C 32.046875 30.90625 26.453125 27.785156 26.453125 27.785156 C 24.25 26.492188 26.035156 25.625 26.90625 25.285156 C 30.160156 25.15625 32.851562 24.304688 33.859375 23.152344 C 34.335938 23.699219 35.195312 24.179688 36.316406 24.542969 L 31.113281 26.21875 C 30.296875 26.589844 29.335938 27.40625 31.796875 28.753906 C 31.832031 28.773438 36.519531 31.488281 36.769531 31.621094 C 39.339844 33.027344 38.335938 33.878906 37.488281 34.265625 L 30.683594 36.4375 C 29.695312 36.886719 28.527344 37.761719 31.515625 39.398438 C 31.539062 39.414062 37.71875 42.894531 37.71875 42.894531 C 38.050781 43.273438 38.003906 43.753906 36.554688 44.207031 C 36.59375 44.269531 46.726562 41.066406 46.726562 41.066406 C 47.539062 40.695312 48.503906 39.882812 46.039062 38.535156 C 45.621094 38.300781 39.65625 36.546875 39.65625 36.546875 C 37.941406 35.476562 41.226562 34.996094 41.628906 34.753906 L 50.605469 32.65625 C 51.453125 32.265625 52.464844 30.789062 49.703125 29.816406 C 48.332031 29.332031 39.65625 26.542969 39.65625 26.542969 C 38.78125 25.996094 39.15625 25.554688 39.792969 25.21875 C 40.390625 25.269531 41.011719 25.300781 41.65625 25.300781 C 46.195312 25.300781 49.875 23.890625 49.875 22.15625 L 49.875 19.707031 L 49.832031 19.707031 Z M 49.832031 19.722656 "/>
<path style=" stroke:none;fill-rule:nonzero;fill:rgb(21.568628%,20%,24.705882%);fill-opacity:1;" d="M 86.898438 9.441406 L 86.898438 33.789062 L 81.230469 33.789062 L 70.492188 20.816406 L 70.492188 33.789062 L 63.75 33.789062 L 63.75 9.441406 L 69.417969 9.441406 L 80.15625 22.417969 L 80.15625 9.441406 Z M 86.898438 9.441406 "/>
<path style=" stroke:none;fill-rule:nonzero;fill:rgb(21.568628%,20%,24.705882%);fill-opacity:1;" d="M 101.769531 24.46875 L 98.644531 24.46875 L 98.644531 33.789062 L 91.796875 33.789062 L 91.796875 9.441406 L 98.644531 9.441406 L 98.644531 18.902344 L 101.945312 18.902344 L 107.75 9.441406 L 114.976562 9.441406 L 107.363281 21.199219 L 115.046875 33.789062 L 107.296875 33.789062 Z M 101.769531 24.46875 "/>
<path style=" stroke:none;fill-rule:nonzero;fill:rgb(21.568628%,20%,24.705882%);fill-opacity:1;" d="M 139.203125 33.789062 L 139.167969 20.886719 L 132.910156 31.386719 L 129.851562 31.386719 L 123.59375 21.160156 L 123.59375 33.785156 L 117.269531 33.785156 L 117.269531 9.441406 L 122.933594 9.441406 L 131.484375 23.492188 L 139.828125 9.441406 L 145.492188 9.441406 L 145.5625 33.789062 Z M 139.203125 33.789062 "/>
<path style=" stroke:none;fill-rule:nonzero;fill:rgb(21.568628%,20%,24.705882%);fill-opacity:1;" d="M 160.570312 24.46875 L 157.445312 24.46875 L 157.445312 33.789062 L 150.597656 33.789062 L 150.597656 9.441406 L 157.445312 9.441406 L 157.445312 18.902344 L 160.746094 18.902344 L 166.550781 9.441406 L 173.777344 9.441406 L 166.164062 21.199219 L 173.847656 33.789062 L 166.097656 33.789062 Z M 160.570312 24.46875 "/>
<path style=" stroke:none;fill-rule:nonzero;fill:rgb(21.568628%,20%,24.705882%);fill-opacity:1;" d="M 63.386719 43.324219 L 63.386719 38.917969 L 64.289062 38.917969 L 66.222656 41.75 L 66.222656 38.917969 L 67.164062 38.917969 L 67.164062 43.324219 L 66.265625 43.324219 L 64.332031 40.492188 L 64.332031 43.324219 Z M 63.386719 43.324219 "/>
<path style=" stroke:none;fill-rule:nonzero;fill:rgb(21.568628%,20%,24.705882%);fill-opacity:1;" d="M 69.164062 43.398438 C 68.925781 43.398438 68.726562 43.355469 68.558594 43.265625 C 68.394531 43.171875 68.261719 43.050781 68.175781 42.886719 C 68.089844 42.730469 68.042969 42.546875 68.042969 42.34375 C 68.042969 42.007812 68.144531 41.757812 68.339844 41.585938 C 68.542969 41.421875 68.839844 41.335938 69.238281 41.335938 L 70.230469 41.335938 L 70.230469 41.175781 C 70.230469 40.957031 70.183594 40.804688 70.082031 40.71875 C 69.980469 40.628906 69.828125 40.585938 69.613281 40.585938 C 69.425781 40.585938 69.289062 40.621094 69.207031 40.683594 C 69.125 40.746094 69.074219 40.828125 69.066406 40.921875 L 68.230469 40.921875 C 68.246094 40.734375 68.304688 40.558594 68.414062 40.40625 C 68.523438 40.253906 68.6875 40.125 68.890625 40.039062 C 69.101562 39.945312 69.351562 39.902344 69.644531 39.902344 C 69.9375 39.902344 70.179688 39.945312 70.390625 40.03125 C 70.601562 40.113281 70.769531 40.25 70.886719 40.441406 C 71.003906 40.628906 71.0625 40.878906 71.0625 41.191406 L 71.0625 42.46875 C 71.0625 42.640625 71.0625 42.800781 71.070312 42.929688 C 71.074219 43.0625 71.085938 43.195312 71.105469 43.316406 L 70.332031 43.316406 C 70.3125 43.222656 70.304688 43.15625 70.300781 43.105469 C 70.300781 43.058594 70.300781 42.984375 70.300781 42.886719 C 70.207031 43.027344 70.070312 43.144531 69.878906 43.242188 C 69.691406 43.339844 69.453125 43.390625 69.160156 43.390625 Z M 69.425781 42.757812 C 69.5625 42.757812 69.6875 42.734375 69.8125 42.683594 C 69.933594 42.632812 70.035156 42.558594 70.113281 42.453125 C 70.191406 42.355469 70.230469 42.222656 70.230469 42.058594 L 70.230469 41.902344 L 69.394531 41.902344 C 69.234375 41.902344 69.109375 41.9375 69.019531 42.011719 C 68.925781 42.085938 68.882812 42.1875 68.882812 42.308594 C 68.882812 42.445312 68.933594 42.550781 69.023438 42.628906 C 69.117188 42.707031 69.25 42.746094 69.425781 42.746094 Z M 69.425781 42.757812 "/>
<path style=" stroke:none;fill-rule:nonzero;fill:rgb(21.568628%,20%,24.705882%);fill-opacity:1;" d="M 72.941406 43.324219 L 71.535156 39.992188 L 72.46875 39.992188 L 73.371094 42.289062 L 74.199219 39.992188 L 75.058594 39.992188 L 73.777344 43.324219 Z M 72.941406 43.324219 "/>
<path style=" stroke:none;fill-rule:nonzero;fill:rgb(21.568628%,20%,24.705882%);fill-opacity:1;" d="M 77.007812 43.398438 C 76.703125 43.398438 76.421875 43.339844 76.171875 43.214844 C 75.917969 43.09375 75.71875 42.902344 75.570312 42.648438 C 75.421875 42.394531 75.34375 42.074219 75.34375 41.6875 L 75.34375 41.5625 C 75.34375 41.203125 75.417969 40.894531 75.570312 40.652344 C 75.722656 40.40625 75.925781 40.222656 76.171875 40.09375 C 76.425781 39.972656 76.703125 39.910156 77.007812 39.910156 C 77.3125 39.910156 77.59375 39.972656 77.84375 40.09375 C 78.09375 40.21875 78.296875 40.40625 78.445312 40.652344 C 78.601562 40.894531 78.675781 41.199219 78.675781 41.5625 L 78.675781 41.6875 C 78.675781 42.058594 78.601562 42.375 78.445312 42.632812 C 78.296875 42.890625 78.09375 43.078125 77.84375 43.210938 C 77.589844 43.339844 77.3125 43.402344 77.007812 43.402344 Z M 77.007812 42.695312 C 77.164062 42.695312 77.308594 42.65625 77.429688 42.582031 C 77.550781 42.507812 77.648438 42.394531 77.722656 42.246094 C 77.796875 42.09375 77.832031 41.910156 77.832031 41.6875 L 77.832031 41.5625 C 77.832031 41.355469 77.796875 41.183594 77.722656 41.046875 C 77.648438 40.90625 77.550781 40.800781 77.429688 40.726562 C 77.304688 40.652344 77.164062 40.617188 77.007812 40.617188 C 76.851562 40.617188 76.714844 40.652344 76.589844 40.726562 C 76.464844 40.800781 76.367188 40.90625 76.292969 41.046875 C 76.21875 41.183594 76.183594 41.355469 76.183594 41.5625 L 76.183594 41.6875 C 76.183594 41.914062 76.21875 42.101562 76.292969 42.25 C 76.367188 42.398438 76.460938 42.507812 76.589844 42.582031 C 76.710938 42.65625 76.851562 42.695312 77.007812 42.695312 Z M 77.007812 42.695312 "/>
<path style=" stroke:none;fill-rule:nonzero;fill:rgb(21.568628%,20%,24.705882%);fill-opacity:1;" d="M 79.875 39.671875 C 79.726562 39.671875 79.609375 39.621094 79.515625 39.53125 C 79.417969 39.4375 79.375 39.316406 79.375 39.167969 C 79.375 39.019531 79.421875 38.902344 79.515625 38.804688 C 79.605469 38.707031 79.726562 38.664062 79.875 38.664062 C 80.027344 38.664062 80.144531 38.710938 80.238281 38.804688 C 80.335938 38.898438 80.378906 39.019531 80.378906 39.167969 C 80.378906 39.316406 80.332031 39.433594 80.238281 39.53125 C 80.148438 39.628906 80.027344 39.671875 79.875 39.671875 Z M 79.460938 43.324219 L 79.460938 39.992188 L 80.292969 39.992188 L 80.292969 43.324219 Z M 79.460938 43.324219 "/>
<path style=" stroke:none;fill-rule:nonzero;fill:rgb(21.568628%,20%,24.705882%);fill-opacity:1;" d="M 81.796875 44.660156 C 81.734375 44.660156 81.667969 44.65625 81.609375 44.640625 L 81.609375 43.9375 C 81.667969 43.949219 81.734375 43.957031 81.796875 43.957031 C 81.878906 43.957031 81.949219 43.933594 82.007812 43.894531 C 82.0625 43.851562 82.117188 43.785156 82.164062 43.691406 C 82.210938 43.601562 82.265625 43.476562 82.324219 43.328125 L 80.917969 39.996094 L 81.851562 39.996094 L 82.753906 42.300781 L 83.585938 39.996094 L 84.441406 39.996094 L 83.160156 43.328125 C 83.042969 43.644531 82.925781 43.898438 82.8125 44.09375 C 82.695312 44.292969 82.5625 44.433594 82.414062 44.527344 C 82.261719 44.621094 82.058594 44.667969 81.800781 44.667969 Z M 81.796875 44.660156 "/>
<path style=" stroke:none;fill-rule:nonzero;fill:rgb(21.568628%,20%,24.705882%);fill-opacity:1;" d="M 86.828125 43.324219 L 86.828125 38.917969 L 87.773438 38.917969 L 87.773438 40.773438 L 89.382812 38.917969 L 90.476562 38.917969 L 88.835938 40.71875 L 90.601562 43.324219 L 89.496094 43.324219 L 88.203125 41.347656 L 87.773438 41.8125 L 87.773438 43.320312 L 86.828125 43.320312 Z M 86.828125 43.324219 "/>
<path style=" stroke:none;fill-rule:nonzero;fill:rgb(21.568628%,20%,24.705882%);fill-opacity:1;" d="M 92.613281 43.398438 C 92.308594 43.398438 92.027344 43.339844 91.78125 43.214844 C 91.527344 43.09375 91.324219 42.902344 91.175781 42.648438 C 91.027344 42.394531 90.949219 42.074219 90.949219 41.6875 L 90.949219 41.5625 C 90.949219 41.203125 91.023438 40.894531 91.175781 40.652344 C 91.328125 40.40625 91.53125 40.222656 91.78125 40.09375 C 92.03125 39.972656 92.308594 39.910156 92.613281 39.910156 C 92.921875 39.910156 93.199219 39.972656 93.449219 40.09375 C 93.699219 40.21875 93.90625 40.40625 94.054688 40.652344 C 94.207031 40.894531 94.28125 41.199219 94.28125 41.5625 L 94.28125 41.6875 C 94.28125 42.058594 94.207031 42.375 94.054688 42.632812 C 93.90625 42.890625 93.699219 43.078125 93.449219 43.210938 C 93.195312 43.339844 92.921875 43.402344 92.613281 43.402344 Z M 92.613281 42.695312 C 92.773438 42.695312 92.917969 42.65625 93.035156 42.582031 C 93.15625 42.507812 93.253906 42.394531 93.328125 42.246094 C 93.402344 42.09375 93.4375 41.910156 93.4375 41.6875 L 93.4375 41.5625 C 93.4375 41.355469 93.402344 41.183594 93.328125 41.046875 C 93.253906 40.90625 93.15625 40.800781 93.035156 40.726562 C 92.910156 40.652344 92.773438 40.617188 92.613281 40.617188 C 92.457031 40.617188 92.320312 40.652344 92.195312 40.726562 C 92.074219 40.800781 91.972656 40.90625 91.898438 41.046875 C 91.824219 41.183594 91.789062 41.355469 91.789062 41.5625 L 91.789062 41.6875 C 91.789062 41.914062 91.824219 42.101562 91.898438 42.25 C 91.972656 42.398438 92.066406 42.507812 92.195312 42.582031 C 92.316406 42.65625 92.457031 42.695312 92.613281 42.695312 Z M 92.613281 42.695312 "/>
<path style=" stroke:none;fill-rule:nonzero;fill:rgb(21.568628%,20%,24.705882%);fill-opacity:1;" d="M 95.007812 43.324219 L 95.007812 39.992188 L 95.773438 39.992188 L 95.773438 40.480469 C 95.851562 40.332031 95.980469 40.195312 96.15625 40.082031 C 96.335938 39.96875 96.578125 39.910156 96.882812 39.910156 C 97.285156 39.910156 97.585938 40.019531 97.78125 40.234375 C 97.984375 40.449219 98.082031 40.769531 98.082031 41.183594 L 98.082031 43.324219 L 97.246094 43.324219 L 97.246094 41.375 C 97.246094 41.121094 97.191406 40.929688 97.097656 40.808594 C 96.996094 40.683594 96.820312 40.621094 96.566406 40.621094 C 96.398438 40.621094 96.257812 40.65625 96.148438 40.726562 C 96.039062 40.796875 95.960938 40.886719 95.90625 41 C 95.855469 41.113281 95.832031 41.242188 95.832031 41.378906 L 95.832031 43.328125 L 95.003906 43.328125 Z M 95.007812 43.324219 "/>
<path style=" stroke:none;fill-rule:nonzero;fill:rgb(21.568628%,20%,24.705882%);fill-opacity:1;" d="M 98.75 41.949219 L 98.75 41.171875 L 100.761719 41.171875 L 100.761719 41.949219 Z M 98.75 41.949219 "/>
<path style=" stroke:none;fill-rule:nonzero;fill:rgb(21.568628%,20%,24.705882%);fill-opacity:1;" d="M 101.578125 43.324219 L 101.578125 38.917969 L 102.523438 38.917969 L 103.859375 41.390625 L 105.191406 38.917969 L 106.109375 38.917969 L 106.109375 43.324219 L 105.160156 43.324219 L 105.160156 40.523438 L 104.128906 42.445312 L 103.5625 42.445312 L 102.527344 40.523438 L 102.527344 43.324219 Z M 101.578125 43.324219 "/>
<path style=" stroke:none;fill-rule:nonzero;fill:rgb(21.568628%,20%,24.705882%);fill-opacity:1;" d="M 108.617188 43.398438 C 108.316406 43.398438 108.039062 43.339844 107.785156 43.214844 C 107.53125 43.09375 107.328125 42.90625 107.175781 42.652344 C 107.023438 42.398438 106.949219 42.078125 106.949219 41.691406 L 106.949219 41.566406 C 106.949219 41.199219 107.023438 40.890625 107.167969 40.648438 C 107.3125 40.402344 107.503906 40.222656 107.746094 40.101562 C 107.984375 39.976562 108.257812 39.917969 108.554688 39.917969 C 109.078125 39.917969 109.476562 40.054688 109.746094 40.332031 C 110.019531 40.609375 110.15625 41.011719 110.15625 41.535156 L 110.15625 41.890625 L 107.796875 41.890625 C 107.804688 42.085938 107.847656 42.25 107.921875 42.371094 C 108.003906 42.492188 108.101562 42.585938 108.222656 42.640625 C 108.34375 42.699219 108.472656 42.726562 108.609375 42.726562 C 108.824219 42.726562 108.984375 42.695312 109.09375 42.628906 C 109.203125 42.566406 109.285156 42.476562 109.328125 42.355469 L 110.089844 42.355469 C 110.023438 42.699219 109.855469 42.957031 109.589844 43.136719 C 109.328125 43.316406 109 43.402344 108.609375 43.402344 Z M 108.589844 40.589844 C 108.457031 40.589844 108.335938 40.613281 108.210938 40.65625 C 108.089844 40.699219 107.996094 40.773438 107.921875 40.878906 C 107.847656 40.984375 107.808594 41.125 107.800781 41.300781 L 109.347656 41.300781 C 109.347656 41.109375 109.308594 40.964844 109.242188 40.863281 C 109.179688 40.761719 109.085938 40.6875 108.972656 40.648438 C 108.859375 40.609375 108.734375 40.585938 108.589844 40.585938 Z M 108.589844 40.589844 "/>
<path style=" stroke:none;fill-rule:nonzero;fill:rgb(21.568628%,20%,24.705882%);fill-opacity:1;" d="M 112.234375 43.359375 C 111.976562 43.359375 111.761719 43.324219 111.59375 43.25 C 111.425781 43.175781 111.300781 43.058594 111.21875 42.894531 C 111.140625 42.734375 111.101562 42.519531 111.101562 42.253906 L 111.101562 40.675781 L 110.660156 40.675781 L 110.660156 39.984375 L 111.101562 39.984375 L 111.101562 39.230469 L 111.933594 39.230469 L 111.933594 39.984375 L 112.738281 39.984375 L 112.738281 40.675781 L 111.933594 40.675781 L 111.933594 42.125 C 111.933594 42.3125 111.96875 42.449219 112.039062 42.53125 C 112.109375 42.617188 112.234375 42.65625 112.421875 42.65625 C 112.550781 42.65625 112.675781 42.652344 112.800781 42.636719 L 112.800781 43.328125 C 112.71875 43.339844 112.636719 43.347656 112.550781 43.351562 C 112.460938 43.355469 112.359375 43.359375 112.230469 43.359375 Z M 112.234375 43.359375 "/>
<path style=" stroke:none;fill-rule:nonzero;fill:rgb(21.568628%,20%,24.705882%);fill-opacity:1;" d="M 114.519531 43.398438 C 114.28125 43.398438 114.082031 43.355469 113.914062 43.265625 C 113.746094 43.171875 113.617188 43.050781 113.53125 42.886719 C 113.441406 42.730469 113.398438 42.546875 113.398438 42.34375 C 113.398438 42.007812 113.5 41.757812 113.695312 41.585938 C 113.898438 41.421875 114.195312 41.335938 114.59375 41.335938 L 115.585938 41.335938 L 115.585938 41.175781 C 115.585938 40.957031 115.535156 40.804688 115.4375 40.71875 C 115.335938 40.628906 115.183594 40.585938 114.96875 40.585938 C 114.78125 40.585938 114.644531 40.621094 114.5625 40.683594 C 114.476562 40.746094 114.429688 40.828125 114.421875 40.921875 L 113.585938 40.921875 C 113.597656 40.734375 113.660156 40.558594 113.769531 40.40625 C 113.878906 40.253906 114.039062 40.125 114.246094 40.039062 C 114.457031 39.945312 114.707031 39.902344 115 39.902344 C 115.292969 39.902344 115.53125 39.945312 115.746094 40.03125 C 115.957031 40.113281 116.121094 40.25 116.242188 40.441406 C 116.359375 40.628906 116.414062 40.878906 116.414062 41.191406 L 116.414062 42.46875 C 116.414062 42.640625 116.414062 42.800781 116.425781 42.929688 C 116.429688 43.0625 116.441406 43.195312 116.460938 43.316406 L 115.683594 43.316406 C 115.667969 43.222656 115.660156 43.15625 115.65625 43.105469 C 115.65625 43.058594 115.65625 42.984375 115.65625 42.886719 C 115.5625 43.027344 115.421875 43.144531 115.234375 43.242188 C 115.046875 43.339844 114.804688 43.390625 114.511719 43.390625 Z M 114.785156 42.757812 C 114.921875 42.757812 115.046875 42.734375 115.167969 42.683594 C 115.292969 42.632812 115.390625 42.558594 115.472656 42.453125 C 115.550781 42.355469 115.589844 42.222656 115.589844 42.058594 L 115.589844 41.902344 L 114.753906 41.902344 C 114.59375 41.902344 114.46875 41.9375 114.378906 42.011719 C 114.285156 42.085938 114.242188 42.1875 114.242188 42.308594 C 114.242188 42.445312 114.289062 42.550781 114.382812 42.628906 C 114.472656 42.707031 114.609375 42.746094 114.785156 42.746094 Z M 114.785156 42.757812 "/>
<path style=" stroke:none;fill-rule:nonzero;fill:rgb(21.568628%,20%,24.705882%);fill-opacity:1;" d="M 118.402344 43.359375 C 118.144531 43.359375 117.9375 43.324219 117.769531 43.257812 C 117.609375 43.195312 117.488281 43.074219 117.414062 42.90625 C 117.339844 42.734375 117.296875 42.503906 117.296875 42.203125 L 117.296875 38.914062 L 118.128906 38.914062 L 118.128906 42.105469 C 118.128906 42.320312 118.160156 42.464844 118.226562 42.539062 C 118.292969 42.613281 118.410156 42.652344 118.589844 42.652344 C 118.636719 42.652344 118.675781 42.652344 118.707031 42.652344 C 118.742188 42.652344 118.773438 42.648438 118.808594 42.640625 L 118.808594 43.34375 C 118.808594 43.34375 118.75 43.351562 118.703125 43.355469 C 118.648438 43.355469 118.597656 43.359375 118.539062 43.359375 Z M 118.402344 43.359375 "/>
<path style=" stroke:none;fill-rule:nonzero;fill:rgb(21.568628%,20%,24.705882%);fill-opacity:1;" d="M 120.605469 43.359375 C 120.347656 43.359375 120.140625 43.324219 119.976562 43.257812 C 119.8125 43.195312 119.691406 43.074219 119.617188 42.90625 C 119.542969 42.734375 119.503906 42.503906 119.503906 42.203125 L 119.503906 38.914062 L 120.332031 38.914062 L 120.332031 42.105469 C 120.332031 42.320312 120.363281 42.464844 120.429688 42.539062 C 120.496094 42.613281 120.613281 42.652344 120.792969 42.652344 C 120.839844 42.652344 120.878906 42.652344 120.910156 42.652344 C 120.945312 42.652344 120.976562 42.648438 121.011719 42.640625 L 121.011719 43.34375 C 121.011719 43.34375 120.953125 43.351562 120.90625 43.355469 C 120.855469 43.355469 120.800781 43.359375 120.746094 43.359375 Z M 120.605469 43.359375 "/>
<path style=" stroke:none;fill-rule:nonzero;fill:rgb(21.568628%,20%,24.705882%);fill-opacity:1;" d="M 122.816406 43.398438 C 122.429688 43.398438 122.136719 43.289062 121.9375 43.070312 C 121.742188 42.851562 121.640625 42.511719 121.640625 42.042969 L 121.640625 39.984375 L 122.472656 39.984375 L 122.472656 41.933594 C 122.472656 42.1875 122.523438 42.375 122.621094 42.503906 C 122.722656 42.628906 122.886719 42.695312 123.117188 42.695312 C 123.285156 42.695312 123.421875 42.660156 123.519531 42.585938 C 123.621094 42.511719 123.695312 42.417969 123.75 42.304688 C 123.800781 42.191406 123.824219 42.066406 123.824219 41.929688 L 123.824219 39.980469 L 124.65625 39.980469 L 124.65625 43.316406 L 123.886719 43.316406 L 123.886719 42.828125 C 123.808594 42.976562 123.683594 43.109375 123.507812 43.222656 C 123.332031 43.339844 123.101562 43.394531 122.8125 43.394531 Z M 122.816406 43.398438 "/>
<path style=" stroke:none;fill-rule:nonzero;fill:rgb(21.568628%,20%,24.705882%);fill-opacity:1;" d="M 125.542969 43.324219 L 125.542969 39.992188 L 126.304688 39.992188 L 126.304688 40.480469 C 126.351562 40.382812 126.410156 40.292969 126.488281 40.210938 C 126.574219 40.125 126.667969 40.054688 126.789062 40 C 126.90625 39.941406 127.03125 39.917969 127.171875 39.917969 C 127.25 39.917969 127.320312 39.917969 127.378906 39.929688 C 127.433594 39.941406 127.46875 39.941406 127.488281 39.945312 L 127.488281 40.691406 C 127.445312 40.671875 127.390625 40.660156 127.324219 40.644531 C 127.261719 40.625 127.171875 40.621094 127.0625 40.621094 C 126.898438 40.621094 126.761719 40.65625 126.65625 40.730469 C 126.550781 40.800781 126.476562 40.894531 126.433594 41.015625 C 126.386719 41.132812 126.363281 41.253906 126.363281 41.386719 L 126.363281 43.332031 L 125.53125 43.332031 Z M 125.542969 43.324219 "/>
<path style=" stroke:none;fill-rule:nonzero;fill:rgb(21.568628%,20%,24.705882%);fill-opacity:1;" d="M 129.503906 44.660156 C 129.148438 44.660156 128.867188 44.617188 128.660156 44.53125 C 128.449219 44.449219 128.292969 44.328125 128.195312 44.175781 C 128.097656 44.019531 128.042969 43.847656 128.023438 43.644531 L 128.867188 43.644531 C 128.894531 43.730469 128.953125 43.816406 129.042969 43.894531 C 129.136719 43.972656 129.289062 44.011719 129.507812 44.011719 C 129.78125 44.011719 129.992188 43.945312 130.132812 43.8125 C 130.273438 43.675781 130.34375 43.472656 130.34375 43.207031 L 130.34375 42.808594 C 130.234375 42.96875 130.09375 43.097656 129.917969 43.195312 C 129.742188 43.292969 129.542969 43.34375 129.320312 43.34375 C 129.03125 43.34375 128.78125 43.28125 128.566406 43.15625 C 128.355469 43.027344 128.191406 42.839844 128.078125 42.589844 C 127.964844 42.339844 127.902344 42.03125 127.902344 41.664062 L 127.902344 41.535156 C 127.902344 41.183594 127.960938 40.890625 128.074219 40.65625 C 128.1875 40.414062 128.351562 40.234375 128.566406 40.109375 C 128.78125 39.980469 129.03125 39.921875 129.316406 39.921875 C 129.597656 39.921875 129.828125 39.976562 130.007812 40.085938 C 130.183594 40.195312 130.316406 40.332031 130.394531 40.484375 L 130.394531 39.996094 L 131.171875 39.996094 L 131.171875 43.140625 C 131.171875 43.636719 131.039062 44.015625 130.761719 44.273438 C 130.488281 44.53125 130.070312 44.664062 129.507812 44.664062 Z M 129.511719 42.628906 C 129.679688 42.628906 129.828125 42.597656 129.949219 42.539062 C 130.070312 42.476562 130.167969 42.378906 130.238281 42.25 C 130.308594 42.121094 130.34375 41.964844 130.34375 41.773438 L 130.34375 41.398438 C 130.34375 41.230469 130.308594 41.085938 130.234375 40.964844 C 130.160156 40.847656 130.0625 40.761719 129.9375 40.703125 C 129.808594 40.644531 129.664062 40.613281 129.511719 40.613281 C 129.285156 40.613281 129.101562 40.691406 128.957031 40.84375 C 128.8125 41 128.742188 41.226562 128.742188 41.523438 L 128.742188 41.648438 C 128.742188 41.96875 128.816406 42.210938 128.960938 42.375 C 129.105469 42.542969 129.289062 42.625 129.507812 42.625 Z M 129.511719 42.628906 "/>
<path style=" stroke:none;fill-rule:nonzero;fill:rgb(21.568628%,20%,24.705882%);fill-opacity:1;" d="M 132.527344 39.671875 C 132.378906 39.671875 132.261719 39.621094 132.164062 39.53125 C 132.070312 39.4375 132.027344 39.316406 132.027344 39.167969 C 132.027344 39.019531 132.074219 38.902344 132.164062 38.804688 C 132.257812 38.707031 132.378906 38.664062 132.527344 38.664062 C 132.675781 38.664062 132.796875 38.710938 132.890625 38.804688 C 132.988281 38.898438 133.03125 39.019531 133.03125 39.167969 C 133.03125 39.316406 132.984375 39.433594 132.890625 39.53125 C 132.800781 39.628906 132.675781 39.671875 132.527344 39.671875 Z M 132.113281 43.324219 L 132.113281 39.992188 L 132.945312 39.992188 L 132.945312 43.324219 Z M 132.113281 43.324219 "/>
<path style=" stroke:none;fill-rule:nonzero;fill:rgb(21.568628%,20%,24.705882%);fill-opacity:1;" d="M 134.449219 44.660156 C 134.386719 44.660156 134.320312 44.65625 134.261719 44.640625 L 134.261719 43.9375 C 134.320312 43.949219 134.386719 43.957031 134.449219 43.957031 C 134.53125 43.957031 134.601562 43.933594 134.660156 43.894531 C 134.714844 43.851562 134.769531 43.785156 134.816406 43.691406 C 134.863281 43.601562 134.917969 43.476562 134.976562 43.328125 L 133.570312 39.996094 L 134.503906 39.996094 L 135.40625 42.300781 L 136.238281 39.996094 L 137.09375 39.996094 L 135.8125 43.328125 C 135.695312 43.644531 135.578125 43.898438 135.464844 44.09375 C 135.347656 44.292969 135.214844 44.433594 135.066406 44.527344 C 134.910156 44.621094 134.710938 44.667969 134.453125 44.667969 Z M 134.449219 44.660156 "/>
<path style=" stroke:none;fill-rule:nonzero;fill:rgb(21.568628%,20%,24.705882%);fill-opacity:1;" d="M 138.492188 43.398438 C 138.257812 43.398438 138.054688 43.355469 137.890625 43.265625 C 137.722656 43.171875 137.59375 43.050781 137.503906 42.886719 C 137.417969 42.730469 137.375 42.546875 137.375 42.34375 C 137.375 42.007812 137.472656 41.757812 137.671875 41.585938 C 137.871094 41.421875 138.167969 41.335938 138.566406 41.335938 L 139.558594 41.335938 L 139.558594 41.175781 C 139.558594 40.957031 139.511719 40.804688 139.410156 40.71875 C 139.3125 40.628906 139.15625 40.585938 138.945312 40.585938 C 138.753906 40.585938 138.621094 40.621094 138.535156 40.683594 C 138.453125 40.746094 138.40625 40.828125 138.398438 40.921875 L 137.5625 40.921875 C 137.574219 40.734375 137.636719 40.558594 137.746094 40.40625 C 137.855469 40.253906 138.015625 40.125 138.222656 40.039062 C 138.433594 39.945312 138.679688 39.902344 138.972656 39.902344 C 139.265625 39.902344 139.507812 39.945312 139.722656 40.03125 C 139.933594 40.113281 140.097656 40.25 140.214844 40.441406 C 140.335938 40.628906 140.390625 40.878906 140.390625 41.191406 L 140.390625 42.46875 C 140.390625 42.640625 140.390625 42.800781 140.398438 42.929688 C 140.402344 43.0625 140.417969 43.195312 140.433594 43.316406 L 139.660156 43.316406 C 139.644531 43.222656 139.632812 43.15625 139.628906 43.105469 C 139.628906 43.058594 139.628906 42.984375 139.628906 42.886719 C 139.539062 43.027344 139.398438 43.144531 139.210938 43.242188 C 139.023438 43.339844 138.78125 43.390625 138.488281 43.390625 Z M 138.753906 42.757812 C 138.890625 42.757812 139.019531 42.734375 139.140625 42.683594 C 139.261719 42.632812 139.363281 42.558594 139.441406 42.453125 C 139.519531 42.355469 139.558594 42.222656 139.558594 42.058594 L 139.558594 41.902344 L 138.726562 41.902344 C 138.5625 41.902344 138.441406 41.9375 138.347656 42.011719 C 138.257812 42.085938 138.214844 42.1875 138.214844 42.308594 C 138.214844 42.445312 138.261719 42.550781 138.351562 42.628906 C 138.445312 42.707031 138.582031 42.746094 138.753906 42.746094 Z M 138.753906 42.757812 "/>
<path style=" stroke:none;fill-rule:nonzero;fill:rgb(21.568628%,20%,24.705882%);fill-opacity:1;" d="M 143.066406 43.324219 L 143.066406 38.917969 L 144.011719 38.917969 L 144.011719 40.773438 L 145.621094 38.917969 L 146.714844 38.917969 L 145.074219 40.71875 L 146.839844 43.324219 L 145.734375 43.324219 L 144.441406 41.347656 L 144.011719 41.8125 L 144.011719 43.320312 L 143.066406 43.320312 Z M 143.066406 43.324219 "/>
<path style=" stroke:none;fill-rule:nonzero;fill:rgb(21.568628%,20%,24.705882%);fill-opacity:1;" d="M 148.855469 43.398438 C 148.550781 43.398438 148.269531 43.339844 148.023438 43.214844 C 147.769531 43.09375 147.566406 42.902344 147.417969 42.648438 C 147.269531 42.394531 147.191406 42.074219 147.191406 41.6875 L 147.191406 41.5625 C 147.191406 41.203125 147.265625 40.894531 147.417969 40.652344 C 147.570312 40.40625 147.773438 40.222656 148.023438 40.09375 C 148.273438 39.972656 148.550781 39.910156 148.855469 39.910156 C 149.164062 39.910156 149.441406 39.972656 149.691406 40.09375 C 149.941406 40.21875 150.148438 40.40625 150.296875 40.652344 C 150.449219 40.894531 150.523438 41.199219 150.523438 41.5625 L 150.523438 41.6875 C 150.523438 42.058594 150.449219 42.375 150.296875 42.632812 C 150.148438 42.890625 149.941406 43.078125 149.691406 43.210938 C 149.4375 43.339844 149.164062 43.402344 148.855469 43.402344 Z M 148.855469 42.695312 C 149.015625 42.695312 149.160156 42.65625 149.277344 42.582031 C 149.398438 42.507812 149.496094 42.394531 149.570312 42.246094 C 149.644531 42.09375 149.679688 41.910156 149.679688 41.6875 L 149.679688 41.5625 C 149.679688 41.355469 149.644531 41.183594 149.570312 41.046875 C 149.496094 40.90625 149.398438 40.800781 149.277344 40.726562 C 149.152344 40.652344 149.015625 40.617188 148.855469 40.617188 C 148.699219 40.617188 148.5625 40.652344 148.4375 40.726562 C 148.316406 40.800781 148.214844 40.90625 148.140625 41.046875 C 148.066406 41.183594 148.03125 41.355469 148.03125 41.5625 L 148.03125 41.6875 C 148.03125 41.914062 148.066406 42.101562 148.140625 42.25 C 148.214844 42.398438 148.308594 42.507812 148.4375 42.582031 C 148.558594 42.65625 148.699219 42.695312 148.855469 42.695312 Z M 148.855469 42.695312 "/>
<path style=" stroke:none;fill-rule:nonzero;fill:rgb(21.568628%,20%,24.705882%);fill-opacity:1;" d="M 151.246094 43.324219 L 151.246094 39.992188 L 152.007812 39.992188 L 152.007812 40.480469 C 152.078125 40.332031 152.203125 40.203125 152.371094 40.085938 C 152.542969 39.972656 152.738281 39.910156 152.960938 39.910156 C 153.230469 39.910156 153.445312 39.964844 153.597656 40.074219 C 153.75 40.183594 153.859375 40.328125 153.921875 40.507812 C 154.011719 40.332031 154.148438 40.1875 154.316406 40.074219 C 154.492188 39.964844 154.699219 39.90625 154.9375 39.90625 C 155.292969 39.90625 155.566406 40.007812 155.753906 40.214844 C 155.941406 40.417969 156.027344 40.730469 156.027344 41.148438 L 156.027344 43.320312 L 155.191406 43.320312 L 155.191406 41.339844 C 155.191406 41.074219 155.148438 40.886719 155.066406 40.777344 C 154.984375 40.667969 154.847656 40.617188 154.660156 40.617188 C 154.550781 40.617188 154.449219 40.648438 154.359375 40.699219 C 154.265625 40.757812 154.191406 40.839844 154.140625 40.949219 C 154.085938 41.058594 154.054688 41.191406 154.054688 41.339844 L 154.054688 43.320312 L 153.226562 43.320312 L 153.226562 41.339844 C 153.226562 41.074219 153.179688 40.886719 153.097656 40.777344 C 153.011719 40.667969 152.875 40.617188 152.6875 40.617188 C 152.578125 40.617188 152.476562 40.648438 152.386719 40.699219 C 152.292969 40.757812 152.21875 40.839844 152.167969 40.949219 C 152.113281 41.058594 152.082031 41.191406 152.082031 41.339844 L 152.082031 43.320312 L 151.253906 43.320312 Z M 151.246094 43.324219 "/>
<path style=" stroke:none;fill-rule:nonzero;fill:rgb(21.568628%,20%,24.705882%);fill-opacity:1;" d="M 158.738281 43.398438 C 158.460938 43.398438 158.226562 43.34375 158.046875 43.234375 C 157.867188 43.125 157.738281 42.988281 157.660156 42.835938 L 157.660156 43.324219 L 156.878906 43.324219 L 156.878906 38.917969 L 157.710938 38.917969 L 157.710938 40.449219 C 157.820312 40.289062 157.960938 40.160156 158.136719 40.0625 C 158.3125 39.964844 158.511719 39.910156 158.742188 39.910156 C 159.191406 39.910156 159.535156 40.046875 159.78125 40.324219 C 160.027344 40.59375 160.152344 41.011719 160.152344 41.5625 L 160.152344 41.6875 C 160.152344 42.070312 160.09375 42.386719 159.976562 42.640625 C 159.863281 42.894531 159.699219 43.085938 159.492188 43.210938 C 159.28125 43.339844 159.03125 43.398438 158.742188 43.398438 Z M 158.539062 42.695312 C 158.757812 42.695312 158.941406 42.613281 159.085938 42.445312 C 159.230469 42.277344 159.304688 42.027344 159.304688 41.6875 L 159.304688 41.5625 C 159.304688 41.246094 159.234375 41.011719 159.089844 40.851562 C 158.945312 40.695312 158.761719 40.617188 158.535156 40.617188 C 158.378906 40.617188 158.234375 40.648438 158.109375 40.707031 C 157.984375 40.769531 157.882812 40.863281 157.8125 40.984375 C 157.742188 41.105469 157.707031 41.253906 157.707031 41.4375 L 157.707031 41.816406 C 157.707031 42.011719 157.742188 42.179688 157.8125 42.308594 C 157.882812 42.441406 157.976562 42.542969 158.109375 42.601562 C 158.234375 42.664062 158.378906 42.699219 158.542969 42.699219 Z M 158.539062 42.695312 "/>
<path style=" stroke:none;fill-rule:nonzero;fill:rgb(21.568628%,20%,24.705882%);fill-opacity:1;" d="M 161.351562 39.671875 C 161.199219 39.671875 161.082031 39.621094 160.988281 39.53125 C 160.890625 39.4375 160.847656 39.316406 160.847656 39.167969 C 160.847656 39.019531 160.894531 38.902344 160.988281 38.804688 C 161.078125 38.707031 161.199219 38.664062 161.351562 38.664062 C 161.5 38.664062 161.617188 38.710938 161.710938 38.804688 C 161.808594 38.898438 161.851562 39.019531 161.851562 39.167969 C 161.851562 39.316406 161.804688 39.433594 161.710938 39.53125 C 161.621094 39.628906 161.5 39.671875 161.351562 39.671875 Z M 160.933594 43.324219 L 160.933594 39.992188 L 161.765625 39.992188 L 161.765625 43.324219 Z M 160.933594 43.324219 "/>
<path style=" stroke:none;fill-rule:nonzero;fill:rgb(21.568628%,20%,24.705882%);fill-opacity:1;" d="M 162.699219 43.324219 L 162.699219 39.992188 L 163.464844 39.992188 L 163.464844 40.480469 C 163.542969 40.332031 163.675781 40.195312 163.851562 40.082031 C 164.03125 39.96875 164.269531 39.910156 164.578125 39.910156 C 164.980469 39.910156 165.28125 40.019531 165.476562 40.234375 C 165.679688 40.449219 165.773438 40.769531 165.773438 41.183594 L 165.773438 43.324219 L 164.941406 43.324219 L 164.941406 41.375 C 164.941406 41.121094 164.886719 40.929688 164.789062 40.808594 C 164.691406 40.683594 164.515625 40.621094 164.261719 40.621094 C 164.089844 40.621094 163.953125 40.65625 163.84375 40.726562 C 163.734375 40.796875 163.652344 40.886719 163.601562 41 C 163.550781 41.113281 163.527344 41.242188 163.527344 41.378906 L 163.527344 43.328125 L 162.695312 43.328125 Z M 162.699219 43.324219 "/>
<path style=" stroke:none;fill-rule:nonzero;fill:rgb(21.568628%,20%,24.705882%);fill-opacity:1;" d="M 167.628906 43.398438 C 167.394531 43.398438 167.191406 43.355469 167.027344 43.265625 C 166.859375 43.171875 166.726562 43.050781 166.640625 42.886719 C 166.554688 42.730469 166.507812 42.546875 166.507812 42.34375 C 166.507812 42.007812 166.609375 41.757812 166.808594 41.585938 C 167.007812 41.421875 167.304688 41.335938 167.703125 41.335938 L 168.695312 41.335938 L 168.695312 41.175781 C 168.695312 40.957031 168.648438 40.804688 168.546875 40.71875 C 168.445312 40.628906 168.292969 40.585938 168.078125 40.585938 C 167.890625 40.585938 167.753906 40.621094 167.671875 40.683594 C 167.589844 40.746094 167.542969 40.828125 167.53125 40.921875 L 166.699219 40.921875 C 166.710938 40.734375 166.773438 40.558594 166.882812 40.40625 C 166.992188 40.253906 167.152344 40.125 167.359375 40.039062 C 167.566406 39.945312 167.816406 39.902344 168.109375 39.902344 C 168.402344 39.902344 168.644531 39.945312 168.859375 40.03125 C 169.066406 40.113281 169.234375 40.25 169.351562 40.441406 C 169.46875 40.628906 169.527344 40.878906 169.527344 41.191406 L 169.527344 42.46875 C 169.527344 42.640625 169.527344 42.800781 169.535156 42.929688 C 169.539062 43.0625 169.554688 43.195312 169.570312 43.316406 L 168.796875 43.316406 C 168.777344 43.222656 168.769531 43.15625 168.765625 43.105469 C 168.765625 43.058594 168.765625 42.984375 168.765625 42.886719 C 168.675781 43.027344 168.535156 43.144531 168.347656 43.242188 C 168.15625 43.339844 167.917969 43.390625 167.625 43.390625 Z M 167.890625 42.757812 C 168.027344 42.757812 168.152344 42.734375 168.277344 42.683594 C 168.398438 42.632812 168.5 42.558594 168.578125 42.453125 C 168.65625 42.355469 168.695312 42.222656 168.695312 42.058594 L 168.695312 41.902344 L 167.859375 41.902344 C 167.699219 41.902344 167.578125 41.9375 167.484375 42.011719 C 167.394531 42.085938 167.347656 42.1875 167.347656 42.308594 C 167.347656 42.445312 167.398438 42.550781 167.488281 42.628906 C 167.582031 42.707031 167.714844 42.746094 167.890625 42.746094 Z M 167.890625 42.757812 "/>
<path style=" stroke:none;fill-rule:nonzero;fill:rgb(21.568628%,20%,24.705882%);fill-opacity:1;" d="M 171.726562 43.359375 C 171.46875 43.359375 171.253906 43.324219 171.082031 43.25 C 170.917969 43.175781 170.789062 43.058594 170.710938 42.894531 C 170.632812 42.734375 170.59375 42.519531 170.59375 42.253906 L 170.59375 40.675781 L 170.152344 40.675781 L 170.152344 39.984375 L 170.59375 39.984375 L 170.59375 39.230469 L 171.425781 39.230469 L 171.425781 39.984375 L 172.230469 39.984375 L 172.230469 40.675781 L 171.425781 40.675781 L 171.425781 42.125 C 171.425781 42.3125 171.460938 42.449219 171.53125 42.53125 C 171.597656 42.617188 171.726562 42.65625 171.914062 42.65625 C 172.039062 42.65625 172.167969 42.652344 172.289062 42.636719 L 172.289062 43.328125 C 172.210938 43.339844 172.128906 43.347656 172.039062 43.351562 C 171.953125 43.355469 171.847656 43.359375 171.722656 43.359375 Z M 171.726562 43.359375 "/>
<path style=" stroke:none;fill-rule:nonzero;fill:rgb(21.568628%,20%,24.705882%);fill-opacity:1;" d="M 173.496094 39.671875 C 173.347656 39.671875 173.230469 39.621094 173.132812 39.53125 C 173.039062 39.4375 172.996094 39.316406 172.996094 39.167969 C 172.996094 39.019531 173.042969 38.902344 173.132812 38.804688 C 173.226562 38.707031 173.347656 38.664062 173.496094 38.664062 C 173.644531 38.664062 173.765625 38.710938 173.859375 38.804688 C 173.957031 38.898438 174 39.019531 174 39.167969 C 174 39.316406 173.953125 39.433594 173.859375 39.53125 C 173.769531 39.628906 173.644531 39.671875 173.496094 39.671875 Z M 173.082031 43.324219 L 173.082031 39.992188 L 173.914062 39.992188 L 173.914062 43.324219 Z M 173.082031 43.324219 "/>
</g>
</svg>
