<?xml version="1.0" encoding="utf-8"?>
<!-- Generator: Adobe Illustrator 27.4.0, SVG Export Plug-In . SVG Version: 6.00 Build 0)  -->
<!DOCTYPE svg PUBLIC "-//W3C//DTD SVG 1.1//EN" "http://www.w3.org/Graphics/SVG/1.1/DTD/svg11.dtd" [
	<!ENTITY ns_extend "http://ns.adobe.com/Extensibility/1.0/">
	<!ENTITY ns_ai "http://ns.adobe.com/AdobeIllustrator/10.0/">
	<!ENTITY ns_graphs "http://ns.adobe.com/Graphs/1.0/">
	<!ENTITY ns_vars "http://ns.adobe.com/Variables/1.0/">
	<!ENTITY ns_imrep "http://ns.adobe.com/ImageReplacement/1.0/">
	<!ENTITY ns_sfw "http://ns.adobe.com/SaveForWeb/1.0/">
	<!ENTITY ns_custom "http://ns.adobe.com/GenericCustomNamespace/1.0/">
	<!ENTITY ns_adobe_xpath "http://ns.adobe.com/XPath/1.0/">
]>
<svg version="1.1"
	 id="Слой_1" xmlns:x="&ns_extend;" xmlns:i="&ns_ai;" xmlns:graph="&ns_graphs;" xmlns:xodm="http://www.corel.com/coreldraw/odm/2003"
	 xmlns="http://www.w3.org/2000/svg" xmlns:xlink="http://www.w3.org/1999/xlink" x="0px" y="0px" viewBox="0 0 559.4 404.5"
	 style="enable-background:new 0 0 559.4 404.5;" xml:space="preserve">
<style type="text/css">
	.st0{fill:#294B8C;}
</style>
<metadata  id="CorelCorpID_0Corel-Layer">
	<sfw  xmlns="&ns_sfw;">
		<slices></slices>
		<sliceSourceBounds  bottomLeftOrigin="true" height="396.5" width="533.7" x="25.7" y="386.8"></sliceSourceBounds>
	</sfw>
</metadata>
<g id="Layer_x0020_1">
	<g id="_105553182927520">
		<g>
			<path class="st0" d="M377.2,319.4h5.5c4.5,0,7.2,1.2,9.4,4.2c1.8,2.5,2.7,5.6,2.7,9.8c0,4.8-1.2,8.2-3.8,10.9
				c-2.5,2.5-4.8,3.3-9,3.3h-4.8V319.4L377.2,319.4z M382.5,350.7L382.5,350.7c5.4,0,9.2-1,12.4-3.3c4.4-3.1,6.8-8.4,6.8-14.7
				c0-4.8-1.4-8.6-4.4-11.8c-3.4-3.6-6.5-4.6-14-4.6H366v1.5l5.1,2.1v27.2l-5.1,2v1.6L382.5,350.7L382.5,350.7z"/>
			<polygon class="st0" points="404.7,350.7 404.7,349.1 409.8,347.1 409.8,319.9 404.7,317.9 404.7,316.4 421,316.4 421,317.9 
				415.9,319.9 415.9,347.1 421,349.1 421,350.7 			"/>
			<path class="st0" d="M449.1,307.8h4.7c3.9,0,5.8,0.8,7.6,3c1.4,1.9,2.1,4.4,2.1,7.2c0,2.9-0.7,5.3-2.1,7.1
				c-1.9,2.5-4.5,3.5-9.2,3.5h-3.2L449.1,307.8L449.1,307.8z M456.2,350.7V349l-7.1-2.4v-15.3h4.8c10.1,0,16.5-5.2,16.5-13.5
				c0-3.9-1.3-7-4-9.3c-2.8-2.5-6.2-3.4-12.2-3.4h-17.3v1.7l5.7,2.4v37.4l-5.7,2.4v1.7H456.2z"/>
			<polygon class="st0" points="474.9,350.7 474.9,349.1 480,347.1 480,319.9 474.9,317.9 474.9,316.4 491.2,316.4 491.2,317.9 
				486.1,319.9 486.1,347.1 491.2,349.1 491.2,350.7 			"/>
			<path class="st0" d="M497.1,349.7v-8.1h2.1l2.7,6.2c2.1,0.5,3.1,0.6,4.6,0.6c4.5,0,7-1.9,7-5.5c0-2.5-0.9-3.6-4.4-5.8l-5.3-3.3
				c-4.8-3-6.2-5-6.2-8.7c0-5.7,4.3-9.4,11.1-9.4c2.4,0,5.8,0.4,9.1,1.1l0.8,0.2v7.9h-2.1l-2.6-5.9c-1.8-0.2-2.8-0.3-4-0.3
				c-4.6,0-7,1.6-7,4.7c0,2.1,0.7,2.9,4.2,5.1l5.7,3.6c5.8,3.6,7.1,5.4,7.1,9.6c0,5.9-4.8,9.7-12.2,9.7c-2.3,0-5.8-0.5-9.9-1.6
				L497.1,349.7L497.1,349.7z"/>
			<path class="st0" d="M539.6,322.5l0.6,1.8l0.9,2.4l2.9,8.1h-9.3L539.6,322.5L539.6,322.5z M544.6,337.1L544.6,337.1l3.6,10
				l-4.2,2v1.6h15.4v-1.6l-4.6-2L543.1,316h-4L526,347.1l-4.6,2v1.6h12.6v-1.6l-4.2-2l3.8-10H544.6z"/>
			<path class="st0" d="M25.7,306.8v-1.7h18v1.7l-5.7,2.4v27.3c0,8.2,3.6,11.8,11.5,11.8c8.3,0,12-3.6,12-11.5v-27.7l-5.7-2.4v-1.7
				h16v1.7l-5.8,2.4v26.2c0,7-1.8,10.9-6.3,13.7c-3.1,1.9-6.2,2.7-11.3,2.7c-11.6,0-16.8-4.6-16.8-14.6v-27.9L25.7,306.8L25.7,306.8
				z"/>
			<polygon class="st0" points="71.4,350.7 71.4,349.1 76.5,347.1 76.5,319.9 71.4,317.9 71.4,316.4 81.7,316.4 100.6,340.9 
				100.6,319.9 95.5,317.9 95.5,316.4 109.1,316.4 109.1,317.9 104,319.9 104,351 101.2,351 79.9,323 79.9,347.1 85,349.1 85,350.7 
							"/>
			<polygon class="st0" points="113.6,350.7 113.6,349.1 118.7,347.1 118.7,319.9 113.6,317.9 113.6,316.4 129.9,316.4 129.9,317.9 
				124.8,319.9 124.8,347.1 129.9,349.1 129.9,350.7 			"/>
			<path class="st0" d="M147.1,351l-12-31.1l-4.2-2.1v-1.5h15v1.5l-4.2,2.1l7.2,20.2c0.3,1,0.6,1.8,1.2,3.8l9.5-24l-4.2-2.1v-1.5
				h12.2v1.5l-4.4,2.1L150.4,351H147.1L147.1,351z"/>
			<polygon class="st0" points="179.9,334.4 179.9,348 191.3,348 194.6,342.9 196.6,342.9 195.8,350.7 168.7,350.7 168.7,349.1 
				173.8,347.1 173.8,319.9 168.7,317.9 168.7,316.4 195.6,316.4 195.6,324.2 193.5,324.2 191,318.7 179.9,318.7 179.9,332 
				188.9,332 190.8,327.6 192.8,327.6 192.8,338.8 190.8,338.8 188.9,334.4 			"/>
			<path class="st0" d="M212.5,318.7h3.9c4.1,0,6.2,2.1,6.2,6.4c0,4.3-2.3,6.8-6.3,6.8h-3.8L212.5,318.7L212.5,318.7z M214.5,334.4
				L214.5,334.4l12,16.3h8.6v-1.6l-4-2L221,333.6c5.5-1.8,8.1-4.8,8.1-9.1c0-2.7-1.2-4.9-3.2-6.4c-2-1.4-3.7-1.8-8.3-1.8h-16.3v1.5
				l5.1,2.1v27.2l-5.1,2v1.6h16.3v-1.6l-5.1-2v-12.8H214.5z"/>
			<path class="st0" d="M238.5,349.7v-8.1h2.1l2.7,6.2c2.1,0.5,3.1,0.6,4.6,0.6c4.5,0,7-1.9,7-5.5c0-2.5-0.9-3.6-4.4-5.8l-5.3-3.3
				c-4.8-3-6.2-5-6.2-8.7c0-5.7,4.3-9.4,11.1-9.4c2.4,0,5.8,0.4,9.1,1.1l0.8,0.2v7.9h-2.1l-2.6-5.9c-1.8-0.2-2.8-0.3-4-0.3
				c-4.6,0-7,1.6-7,4.7c0,2.1,0.7,2.9,4.2,5.1l5.7,3.6c5.8,3.6,7.1,5.4,7.1,9.6c0,5.9-4.8,9.7-12.2,9.7c-2.3,0-5.8-0.5-9.9-1.6
				L238.5,349.7L238.5,349.7z"/>
			<polygon class="st0" points="265.6,350.7 265.6,349.1 270.8,347.1 270.8,319.9 265.6,317.9 265.6,316.4 282,316.4 282,317.9 
				276.9,319.9 276.9,347.1 282,349.1 282,350.7 			"/>
			<polygon class="st0" points="297.5,347.1 297.5,319 290.1,319 287.4,324.9 285.3,324.9 285.3,316.4 315.8,316.4 315.8,324.9 
				313.8,324.9 311.4,319 303.6,319 303.6,347.1 309.1,349.1 309.1,350.7 292,350.7 292,349.1 			"/>
			<path class="st0" d="M331.7,322.5l0.6,1.8l0.9,2.4l2.9,8.1h-9.3L331.7,322.5z M336.6,337.1L336.6,337.1l3.6,10l-4.2,2v1.6h15.4
				v-1.6l-4.6-2L335.1,316h-4l-13.1,31.1l-4.6,2v1.6h12.6v-1.6l-4.2-2l3.8-10H336.6L336.6,337.1z M329.1,303.4h-9.4l13.1,9.9h3.4
				L329.1,303.4z"/>
			<path class="st0" d="M254.9,258.3l3.7-11.2l-6.6-0.8l0.4-1c2.5,0,4.4-0.1,6.9-0.6c1.7-0.3,2-0.4,3-0.8l1,0.3l-5.1,15.3l3.4,2.5
				l-0.3,0.9l-10.9-3.6l0.3-0.9L254.9,258.3L254.9,258.3z"/>
			<path class="st0" d="M270.2,270.3l0.6-5.3l1.3,0.2l0.9,3.9c0.8,0.2,1.3,0.3,2.5,0.5c2.3,0.3,3.5,0.1,4.7-0.7
				c1.2-0.8,2-2.1,2.2-3.6c0.3-2.9-1.5-5-4.7-5.4l-1.2-0.1l0.2-1.7l0.4,0c3.5,0.4,5.4-0.9,5.8-4c0.3-2.8-1.1-4.5-4.2-4.8
				c-0.9-0.1-2.1-0.2-2.9-0.2l-2.2,4.2l-1.3-0.2l0.6-5.1c2.8-0.4,5.5-0.5,7.1-0.3c4.6,0.5,7.2,2.9,6.8,6.3c-0.4,3-2.8,4.9-6.6,5.3
				c4,0.7,6.3,3.2,6,6.5c-0.5,4.1-4.5,6.4-10.2,5.7c-1.6-0.2-2.5-0.3-5.4-1L270.2,270.3L270.2,270.3z"/>
			<path class="st0" d="M298.5,264.4l0.6-1l1.8-3l2-3.4l2.3-4l0.3-0.6l1.2,11.1L298.5,264.4L298.5,264.4z M307.5,271.4L307.5,271.4
				l3.2-0.3l-0.6-5.5l3.5-0.4l-0.3-2.4l-3.5,0.4l-1.7-15.9l-1.5,0.2l-11.3,18.5l0.1,1.2l11.4-1.2L307.5,271.4L307.5,271.4z"/>
			<path class="st0" d="M324.9,268.1l-1.7-5l1.3-0.4l2.5,3.1c0.8-0.1,1.4-0.3,2.5-0.6c2.1-0.7,3.2-1.4,4-2.7
				c0.8-1.2,0.9-2.8,0.5-4.2c-1-2.8-3.5-3.9-6.5-2.8l-1.2,0.4l-0.5-1.6l0.4-0.1c3.3-1.1,4.5-3.2,3.5-6.2c-0.9-2.7-3-3.6-5.8-2.6
				c-0.9,0.3-2,0.8-2.7,1.1l-0.2,4.7l-1.2,0.4l-1.7-4.9c2.4-1.6,4.7-2.8,6.3-3.4c4.4-1.5,7.7-0.4,8.8,2.7c1,2.9-0.4,5.7-3.7,7.6
				c3.9-1.1,7.1,0.2,8.2,3.3c1.4,4-1.3,7.7-6.8,9.6c-1.5,0.5-2.4,0.8-5.3,1.4L324.9,268.1L324.9,268.1z"/>
			<path class="st0" d="M214.8,237.3c-2.2-1.9-2.4-5.3-0.5-7.5c1.9-2.2,5.3-2.5,7.5-0.7c2.2,1.9,2.4,5.3,0.5,7.5
				C220.4,238.9,217,239.2,214.8,237.3L214.8,237.3z"/>
			<polygon class="st0" points="208.7,203.5 207.9,204 205,202 187.3,213.2 187.8,216.6 187,217.1 181.6,208.5 182.4,208 
				185.3,210.1 203.1,198.9 202.5,195.4 203.3,194.9 			"/>
			<polygon class="st0" points="201.1,192.3 200.3,192.6 197.8,190.1 178.2,197.6 178.1,201.1 177.3,201.4 175,195.5 187.2,175.9 
				172.1,181.7 172,185.2 171.1,185.5 168.1,177.5 169,177.1 171.4,179.7 193.5,171.2 193.9,172.3 179.7,194.8 197.1,188.1 
				197.2,184.6 198.1,184.2 			"/>
			<path class="st0" d="M188.7,152.7l-5.6,0.2l-0.1-1.4l4.7-2c0.1-1,0.1-1.8,0.1-2.9c-0.1-3.6-1.6-5.4-4.3-5.3
				c-1.9,0.1-2.7,0.7-4.4,3.5l-2.3,3.8c-1.2,2.1-1.8,2.7-2.9,3.5c-1,0.6-2,0.9-3.2,1c-4,0.1-6.8-2.7-7-7.1c0-0.7,0-1.8,0.1-2.9
				c0.1-0.9,0.2-1.5,0.3-2l0.3-1.6l0.1-0.5l5.4-0.2l0.1,1.4l-4.5,2l0,0.3c0,1-0.1,1.3-0.1,2c0.1,3.8,1.4,5.6,3.9,5.5
				c1.8-0.1,2.5-0.7,4.1-3.4l2.4-4.2c1.5-2.5,1.7-2.8,2.7-3.6c1-0.8,2.4-1.2,3.8-1.2c4.3-0.1,7.1,3,7.3,7.9c0,1.2-0.1,3-0.5,4.6
				l-0.4,2.2L188.7,152.7L188.7,152.7z"/>
			<path class="st0" d="M164.7,129.2l-0.9-0.2l1.9-9.9l1,0.2l0.7,3.4l15.1,2.8c4.5,0.8,6.9-0.7,7.7-5.1c0.9-4.6-0.7-7-5.1-7.8
				l-15.3-2.9l-1.9,2.9l-0.9-0.2l1.7-8.8l0.9,0.2l0.7,3.4l14.4,2.7c3.8,0.7,5.8,2.1,6.9,4.9c0.7,1.9,0.8,3.7,0.3,6.5
				c-1.2,6.4-4.3,8.8-9.8,7.8l-15.4-2.9L164.7,129.2L164.7,129.2z"/>
			<path class="st0" d="M175.6,90.2l1.1-2.4c0.9-2,1.7-2.8,3.3-3.2c1.3-0.3,2.7-0.1,4.2,0.5c1.5,0.6,2.6,1.5,3.2,2.7
				c0.8,1.5,0.8,3.1-0.3,5.5l-0.7,1.6L175.6,90.2z M199.2,96.2L199.2,96.2l-0.9-0.4l-2.8,3.1l-7.9-3.5l1.1-2.5
				c2.3-5.2,1-9.6-3.2-11.5c-2-0.9-3.9-0.9-5.7-0.1c-1.9,0.9-3.2,2.4-4.5,5.5l-3.9,8.9l0.9,0.4l2.5-2.4l19.2,8.4l-0.1,3.5l0.9,0.4
				L199.2,96.2L199.2,96.2z"/>
			<path class="st0" d="M188.3,66.7l1.6-2.2c1.7-2.4,4.2-2.7,6.7-0.9c2.6,1.9,3.2,4.7,1.5,7l-1.5,2.1L188.3,66.7L188.3,66.7z
				 M198.7,72.5L198.7,72.5l14.8,0.4l3.6-5l-0.8-0.6l-2.9,1.6L200.4,69c1.7-3.4,1.1-6.8-1.7-8.8c-1.6-1.1-3.4-1.5-5.1-1
				c-1.7,0.5-2.7,1.3-4.5,3.7l-6.1,8.4l0.8,0.6l3-1.8l17,12.3l-0.8,3.4l0.8,0.6l5.9-8.2l-0.8-0.6l-3,1.9l-8-5.8L198.7,72.5
				L198.7,72.5z"/>
			<polygon class="st0" points="215.4,53.2 222.4,61.1 228.7,55.5 227.7,50.8 228.6,50 232.1,54.8 218.4,66.9 217.7,66.2 
				219.2,63.1 205.3,47.4 202,48.5 201.4,47.8 215,35.7 218.9,40 217.9,40.9 213.8,38.9 207.6,44.4 214.4,52.1 219.6,47.5 218.3,44 
				219.2,43.3 224.7,49.6 223.9,50.3 220.6,48.6 			"/>
			<polygon class="st0" points="245.7,39.5 244.2,18.8 250.7,15.6 251.1,16.5 248.8,19.1 258,38 261.6,37.7 262,38.6 252.9,43 
				252.5,42.2 254.8,39.5 246.5,22.6 248.1,45.6 247.4,45.9 230.3,30.5 238.6,47.5 242.1,47.2 242.6,48.1 234.9,51.9 234.4,51 
				236.7,48.4 227.5,29.6 224,29.8 223.6,28.9 230.4,25.6 			"/>
			<path class="st0" d="M271.6,23.8l3.7-11.5l1.5,10.8L271.6,23.8L271.6,23.8z M278.2,33.7L278.2,33.7l-2.7,1.8l0.1,1l17.1-2.3
				l-0.2-5.9l-1.4,0.2l-1.8,4.5l-7.6,1l-1.4-10l6.2-0.8l1.7,3.2l1.2-0.2l-1.1-8.3l-1.2,0.2l-0.8,3.6l-6.2,0.8l-1.4-10.6l7.5-1
				l2.4,3.9l1.3-0.2l-0.8-5.7l-15.1,2l-9,24.7l-2.7,1.8l0.1,1l8.3-1.1l-0.1-0.9l-3-1l3.1-9.4l6.1-0.8L278.2,33.7L278.2,33.7z"/>
			<path class="st0" d="M321.2,14.4l4,1.1c3.4,1,5.2,2.4,6.2,5.2c0.9,2.3,0.8,4.8,0,7.9c-1,3.6-2.7,5.9-5.3,7.5
				c-2.3,1.4-4.2,1.5-7.4,0.6l-3.5-1L321.2,14.4L321.2,14.4z M318.5,38.4L318.5,38.4c3.7,1.1,6.4,1.1,9,0c3.6-1.4,6.3-4.7,7.6-9.2
				c1-3.5,0.8-6.5-0.5-9.2c-1.5-3.1-3.7-4.7-8.5-6.1l-11-3.1l-0.3,0.9l2.7,2.2l-5.8,20.2l-3.5,0.4l-0.3,0.9L318.5,38.4L318.5,38.4z"
				/>
			<polygon class="st0" points="334.8,44.2 335.2,43.3 338.7,43.6 348.4,25.1 346.2,22.4 346.7,21.5 355.6,26.3 355.2,27.1 
				351.7,26.8 341.9,45.3 344.2,48.1 343.7,48.9 			"/>
			<path class="st0" d="M368.8,57.4l-4.5,5.6l-0.5-0.2c-3-1.3-5.1-2.5-7.1-4.1c-3.3-2.7-4.9-5.3-5-8.6c-0.1-3.2,1-6.2,3.3-9.1
				c2.7-3.4,6.1-5.3,9.8-5.5c3.4-0.2,6.3,0.9,9.7,3.7c2,1.6,3.2,2.8,4.9,5.1l0.3,0.4l-3.6,4.4l-1.1-0.9l1.6-4.8
				c-0.6-0.7-1.2-1.3-2.2-2.1c-3.1-2.5-5.5-3.4-8.3-3c-3,0.4-5.5,2-7.9,4.9c-4.4,5.4-4.1,10.7,0.9,14.7c1.1,0.9,2.2,1.7,3,2.1l4-4.9
				l-1.7-3l0.6-0.7l7.9,6.4l-0.6,0.7L368.8,57.4L368.8,57.4z"/>
			<polygon class="st0" points="367.7,67.5 368.5,67 371.5,68.8 388.5,56.5 387.6,53.1 388.4,52.5 392.1,57.6 385.4,79.8 
				398.5,70.3 397.7,66.9 398.4,66.3 403.5,73.3 402.7,73.8 399.7,72 380.6,85.9 379.9,85 387.8,59.5 372.7,70.5 373.5,73.9 
				372.8,74.5 			"/>
			<polygon class="st0" points="383.6,91.3 384.5,90.9 387,93.2 406.1,84.4 406,80.9 406.9,80.5 411.1,89.7 410.2,90.1 407.6,87.7 
				388.6,96.5 388.7,100.1 387.9,100.5 			"/>
			<polygon class="st0" points="393.7,110.6 414.5,104.9 412.9,99.3 408.1,98.8 407.7,97.5 413.8,95.8 419.4,116.3 413.3,118 
				412.9,116.7 416.9,113.8 415.4,108.4 394.6,114 394.4,118.3 393.4,118.5 390.4,107.3 391.3,107 			"/>
			<path class="st0" d="M417,134.6c-1.2,0.4-1.8,0.6-3.4,1.2l-6.1,2.4l-0.3-6.9L417,134.6L417,134.6z M406,138.9L406,138.9l-7.8,3.1
				l-1.6-2.8l-1,0l0.5,9.7l0.9-0.1l1.3-3l23-9.5l-0.1-2.1l-23.8-8.5l-1.6-2.9l-1,0l0.4,8.4l1,0l1.3-3l8.1,2.5L406,138.9L406,138.9z"
				/>
			<polygon class="st0" points="396.7,158.1 418,161.6 419,155.9 414.7,153.4 415,152 421.2,153 417.7,174 411.5,173 411.7,171.7 
				416.5,170.7 417.4,165.1 396.2,161.6 394.2,165.4 393.2,165.2 395.1,153.7 396.1,153.9 			"/>
			<polygon class="st0" points="391.5,171.9 392.4,172.2 392.6,175.7 412.5,182.5 414.8,179.9 415.7,180.2 412.4,189.8 411.5,189.5 
				411.3,186 391.4,179.2 389.1,181.8 388.2,181.5 			"/>
			<path class="st0" d="M387.4,186.5l5,2.7l-0.7,1.2l-5.1-0.6c-0.6,0.8-1,1.5-1.5,2.4c-1.7,3.2-1.3,5.5,1.1,6.7
				c1.7,0.9,2.7,0.7,5.5-0.8l3.9-2.2c2.1-1.2,2.9-1.5,4.3-1.6c1.2-0.1,2.2,0.2,3.3,0.8c3.5,1.9,4.6,5.8,2.5,9.7
				c-0.3,0.6-1,1.5-1.6,2.4c-0.5,0.7-0.9,1.3-1.2,1.6l-1.1,1.3l-0.3,0.4l-4.8-2.6l0.7-1.3l4.9,0.6l0.2-0.3c0.5-0.8,0.7-1.1,1-1.7
				c1.8-3.4,1.6-5.5-0.6-6.7c-1.6-0.8-2.5-0.7-5.2,0.9l-4.2,2.4c-2.5,1.4-2.9,1.6-4.2,1.7c-1.3,0.1-2.7-0.2-4-0.8
				c-3.7-2-4.7-6.1-2.3-10.5c0.6-1,1.6-2.5,2.7-3.8l1.5-1.7L387.4,186.5L387.4,186.5z"/>
			<path class="st0" d="M374,234c-2.1,2-5.5,1.8-7.5-0.4c-2-2.2-1.9-5.5,0.2-7.5c2.1-2,5.5-1.8,7.5,0.3
				C376.2,228.6,376.1,232,374,234z"/>
			<path class="st0" d="M285.8,149c0,0.1,0,0.2,0.1,0.3c0,0.1,0,0.2,0,0.3c0,0.6,0.4,1.1,0.7,1.5l0.4,0.5c0.5,0.7,1,1,1.8,1.4
				c0.6,0.2,1.1,0.1,1.5,0c0.4-0.1,0.6-0.2,1-0.1l0.5,0.3l0.8,0.5c0.7,0.2,1.1-0.1,1.6-0.3l0.8-0.3l0.9-0.1l1.2-0.1l0.3,0
				c1-0.1,1.9-0.3,2.2-0.7l0.1-0.5l-0.6-0.7l-0.2-0.1l-1-0.4l-0.3-0.1l-0.6-0.3l-1.2-0.3l-1.1,0.3l-0.7,0.2l-1.4-0.1l-0.2-0.1
				l-0.7-0.3l-1.2-0.4c-0.7,0-1.2,0.2-1.7,0.4l-0.5,0.2l-0.4,0.1c-0.6,0-0.7,0-1.1-0.8c0.1-0.2,0.5-1,0.5-1c0.1-0.1,1.3-1.6,1.5-1.9
				c0,0,0,0,0,0c0,0,0,0,0,0h0c0,0,0-0.1,0-0.1c0.1-0.1,0.2-0.2,0.2-0.4c0-0.1,0-0.2-0.1-0.3c-0.3-0.3-0.6,0-0.7,0
				C287.9,145.9,285.8,147.7,285.8,149L285.8,149z"/>
			<path class="st0" d="M283.4,139.7l0.8-0.1l-0.1,0.1c-0.3,0.3-0.6,0.6-0.5,0.9c0,0.1,0.1,0.3,0.5,0.3c0.5,0.1,0.8-0.3,1-0.5
				l0.2-0.3l0.6-0.4l0.9-0.6l0.9-1.2c0.3-0.7,0.3-1.2,0.3-1.9c0,0-0.3-1.6-0.3-1.6l-0.1-0.2l-0.1-0.4l-0.5-1.3
				c-0.4-0.6-1.3-2-1.9-1.7c-0.4,0.2-0.4,0.6-0.4,0.7v0.1c0,0-0.3,0.1-0.3,0.1c-0.5,0.1-1-0.2-1.7-0.5c-0.5-0.3-1.1-0.6-1.8-0.7
				c-1.4-0.2-2.3-0.2-3.7,0c-1.2,0.2-2,0.6-3,1.5c-0.6,0.5-1.1,0.9-1.4,1.8l-0.6,2l0,0c0,0.3,0.1,0.5,0.2,0.5
				c0.1,0.1,0.2,0.1,0.3,0.1c0.1,0.4,0.7,0.8,2,1.6c0.7,0.4,2.8,0.8,3.9,0.8c0,0,0,0,0,0h0.3c0,0,0,0,0-0.1c0,0,0.1,0,0.1,0
				c0,0,0,0,0,0c0.1,0,0.1,0,0.2,0c0.3,0,0.6,0,0.9-0.1c0.8-0.1,1.6-0.1,1.6-0.1l1.5-0.3c0.6-0.2,1.1-0.3,1.9-0.2
				c-0.1,0.3-0.2,0.7-0.4,1c0,0,0,0,0,0c0-0.3-0.3-0.5-0.7-0.5l-0.7,0.1l-1.5,0.2l-2.1,0.5c-0.3,0.1-0.5,0.4-0.4,0.7
				c0.1,0.3,0.4,0.5,0.7,0.4l2.1-0.5L283.4,139.7L283.4,139.7z M275.2,137L275.2,137c-0.4-0.2-1.2-0.7-1.4-1c0-0.2,0.1-0.4,0.1-0.6
				c0-0.1,0.1-0.1,0.1-0.2l0.7-1.1c0.4-0.4,0.6-0.7,0.9-0.9c0.1,0,0.1-0.1,0.2-0.1c-0.3,0.5-0.4,1.1-0.4,1.7c0,1,0.4,1.9,1,2.6
				C275.9,137.3,275.4,137.1,275.2,137z M280.2,134.7L280.2,134.7c-0.3,0-0.5-0.2-0.5-0.5c0-0.3,0.2-0.5,0.5-0.5
				c0.3,0,0.5,0.2,0.5,0.5C280.7,134.5,280.5,134.7,280.2,134.7z M282.9,137L282.9,137l-0.7,0.1c0.5-0.7,0.8-1.5,0.8-2.4
				c0-0.6-0.1-1.2-0.4-1.7c0.3,0.1,0.6,0.2,0.8,0.4c0.2,0.2,0.4,0.4,0.6,0.6c0.7,0.8,1.1,1.6,1.3,2.6c0,0.1,0,0.2,0,0.2
				C284.3,136.7,283.5,136.8,282.9,137L282.9,137z"/>
			<path class="st0" d="M273.9,126.6c1.8-0.4,2.9-0.5,4.8-0.3l0.9,0.1l1.6,0.2l1.9,0.6l1.1,0.4c0.3,0.1,0.6,0,0.7-0.3
				c0.1-0.3,0-0.6-0.3-0.8l-1.1-0.4l-2-0.7l-1.8-0.2l-0.9-0.1c-2-0.2-3.2-0.1-5.1,0.3c-0.3,0.1-0.5,0.4-0.4,0.7
				C273.3,126.4,273.6,126.6,273.9,126.6L273.9,126.6z"/>
			<path class="st0" d="M296.4,165.5C296.4,165.5,296.4,165.5,296.4,165.5c-0.5,0.4-0.8,0.6-1.4,0.8l-0.3,0.1
				c-0.7,0.2-0.9,0.3-2.2,0l-1-0.2L290,166l-0.4,0c-0.8,0-1,0-1.1,0.3l-0.1,0.2l0.2,0.2l0.5,0.5c0.8,0.8,1.6,1.5,3.6,1.5l0.7-0.1
				l0.9,0l1.1,0.5l1.1,0.6l-0.2-0.9l-0.3-1.5c0,0,0-0.1,0-0.1c0-0.4,0.3-0.7,0.8-1.1c0,0,0,0,0,0L296.4,165.5L296.4,165.5z"/>
			<path class="st0" d="M302.1,161l-0.2-0.3c-0.3-0.6-0.4-1-0.1-1.4l-0.5-0.5c0,0-0.1,0.1-0.1,0.1l0,0c0,0,0,0,0,0
				c-0.3,0.2-0.6,0.6-0.6,1.3c0,0.2,0,0.5,0.1,0.7c-0.3,0-0.5,0-0.9-0.1l-1.4-0.7l-1.2-1.2l-0.5-0.5c-0.4-0.4-0.8-0.4-1.2-0.4
				l-0.4,0c0,0-0.6,0-1.1,0.1c-0.1,0-0.3,0-0.3,0c0,0,0.1,0,0.1,0c0,0,0,0-0.1,0c0,0,0,0,0,0l-0.9,0.2l-0.3,0l-0.3-0.1l-0.4-0.1
				l-0.9-0.1l-1.4,0.5l-0.9,0.8l-0.4,0.4l-0.4,0.4l-1,0.7c-0.6,0.2-0.9,0.2-1.6,0.1l-0.9-0.2c0.3-0.6,0.1-1.1-0.1-1.7l-0.1-0.4
				l-0.7,0.2c0,0.3,0.1,0.6,0.1,0.8c0,0.3-0.1,0.5-0.2,0.8l-0.2,0.3c-0.4,0.4-0.9,0.6-1.2,0.6c-0.2,0-0.4,0-0.6-0.1l0,0L281,162
				c0.3,0.1,0.6,0.2,0.9,0.2c0.7,0.1,1.4-0.1,1.9-0.5c0.4,0.4,0.7,0.7,1.3,0.9c0.9,0.4,1.6,0.3,2.5,0.3l0.4,0l1.3-0.2l1.6-0.2
				l0.8,0.2l1.2,0.2l1.1-0.4c0.3-0.2,0.5-0.3,0.8-0.2c0,0,0.6,0.2,1,0.3c0.1,0,0.2,0.1,0.2,0.1c0.1,0,0.2,0,0.3,0
				c0.3,0,1.5,0.2,1.5,0.2c1.3,0.2,2.5-0.1,3.3-0.7l0.2-0.2c0.3,0.3,0.7,0.5,1.2,0.6c0.8,0.1,1.4-0.2,1.8-0.7l0.4-0.6l-1.2,0
				C302.7,161.4,302.3,161.4,302.1,161L302.1,161z"/>
			<path class="st0" d="M257.3,116.5C257.3,116.5,257.4,116.5,257.3,116.5z"/>
			<path class="st0" d="M311.1,131.5c-1.1-0.3-1.8-0.5-2.9-0.5c-1.7,0-2.7-0.1-4.3,0.5c-1,0.4-1.7,0.7-2.6,1.6l-0.5,0.4
				c-0.6,0.6-1.2,1.1-1.4,2.1c-0.1,0.8-0.1,1.3,0,2l0.2,0.9l1-1.5c0,0.3-0.1,0.5-0.1,0.8l0,0.8l0.8-0.2c1-0.3,1.4-0.2,2,0l1.1,0.3
				l1.4,0.3l2.5,0.4l0.6,0c1,0,1.9,0,3-0.5l2.4-1.4l0-0.3c0,0,0,0,0,0l0.3-0.3c0.6-0.4-0.1-2.5-0.6-3.3
				C313,132.1,312.4,131.9,311.1,131.5L311.1,131.5z M304.6,137.6L304.6,137.6l-0.9-0.2c-0.5-0.2-1.1-0.3-1.9-0.2
				c0.1-0.8,0.3-1.5,0.8-2.4c0.1-0.2,0.2-0.3,0.3-0.4l0.6-0.5c0.3-0.3,0.6-0.5,0.9-0.6c-0.3,0.6-0.6,1.3-0.6,2
				C303.9,136.1,304.2,136.9,304.6,137.6L304.6,137.6L304.6,137.6z M308.8,135.3L308.8,135.3c-0.3,0-0.5-0.2-0.5-0.5
				c0-0.3,0.2-0.5,0.5-0.5c0.3,0,0.5,0.2,0.5,0.5C309.3,135.1,309.1,135.3,308.8,135.3z M311.5,137.9L311.5,137.9
				c-0.5,0.2-0.9,0.3-1.4,0.3c0.8-0.7,1.4-1.8,1.4-3c0-0.5-0.1-1-0.3-1.4c0.3,0.2,0.6,0.5,1,0.8c0.5,0.5,0.7,1.2,0.9,1.8
				c0,0.2,0,0.3,0.1,0.5C312.7,137.2,311.5,137.9,311.5,137.9L311.5,137.9z"/>
			<path class="st0" d="M306.9,139.9l-0.9-0.4l-1.9-0.6l-2.4,0.1l-0.6,0.1c-0.3,0-0.6,0.3-0.5,0.6c0,0.3,0.3,0.5,0.6,0.5l0.6-0.1
				l2.1-0.1l1.6,0.5l1,0.4c0.3,0.1,0.6,0,0.7-0.3C307.4,140.4,307.2,140,306.9,139.9L306.9,139.9z"/>
			<path class="st0" d="M353.2,80.4c-0.1,0-0.1,0-0.2,0l-1-0.1c-1-0.2-2-0.3-3-0.2c-1.8,0.1-3.6,0.5-5.3,1.3
				c0.1-0.2,0.1-0.3,0.2-0.5c0.4-2.2-0.1-4.5-1.4-6.8c-2.5-4.2-7.9-8.6-15.6-12.5c1.4-1,2.2-2.7,2.2-4.5c0-0.1,0-0.3,0-0.4
				c-0.1-1.5-0.8-2.8-1.9-3.8c-0.2-0.2-0.3-0.4-0.6-0.5c0,0-0.1,0-0.1,0c0,0,0,0,0,0c0,0-0.2-0.1-0.2-0.1c-0.6-0.4-1.2-0.6-1.9-0.7
				c0,0-0.1-0.1-0.1-0.1c0,0,0,0,0,0c-0.1,0-0.2-0.1-0.2-0.1c-8.2-2.8-20.8-3.1-34.6-0.8c-12.5-1.7-23.2-1.2-30.6,1.4
				c0,0-0.1,0-0.1,0c0,0,0,0,0,0c0,0-0.1,0-0.1,0.1c-0.7,0.1-1.3,0.4-1.9,0.7c0,0-0.2,0.1-0.2,0.1c0,0,0,0,0,0c0,0-0.1,0-0.1,0
				c-0.2,0.1-0.4,0.3-0.6,0.5c-1,1-1.7,2.3-1.8,3.8c0,0.2,0,0.4,0,0.5c0,1.5,0.5,2.8,1.3,3.8c-9.1,4.8-15,10.4-16,15.7
				c-0.2,1.1-0.2,2.1,0,3.1c0,0.2,0.1,0.4,0.2,0.6c-1.1-0.3-2.3-0.5-3.5-0.5c-0.9,0-1.8,0.1-2.8,0.3c0.1,0-0.9,0.1-0.9,0.1
				c-0.1,0-0.2,0-0.2,0c-6.6,1.9-12.3,7.4-16.6,15.3c-0.2,0.2-0.3,0.4-0.3,0.6c-6.1,11.5-9.5,28-8.5,45.8
				c0.7,14.6,4.2,28.1,10.1,39.2c1.2,2.2,2.1,3.8,3.4,5.9c0,0,6.3,9.7,6.3,9.7c1.9,2.9,5.7,7.1,7.9,9c0,0-0.2-0.2-0.2-0.2l1.5,1.4
				l0.9,0.7c0.1,0.1,0.2,0.2,0.3,0.2l2.1,1.3c2.1,1.1,3.5,1.6,5.9,1.4c0.4,0,0.7,0,1.1-0.1c2.5-0.4,4.9-2.1,6.3-4.6
				c0,0,0.2-0.3,0.2-0.3c0.2-0.4,0.3-0.7,0.4-0.9c2.9,2.7,6.1,5.3,9.5,7.8c-0.5,0.9-0.9,1.9-0.9,3c0,0.8,0.2,1.6,0.5,2.3
				c-0.6,0-1.3,0-1.9,0l0,0c-0.6,0-1.2,0.1-1.8,0.2c-3.4,0.7-5.9,3.5-5.9,6.8c0,2,0.8,3.7,2.1,5c0.9,0.9,2.1,1.6,3.4,1.9
				c0.1,0.1,0.2,0.2,0.3,0.2c1.1,0.3,2.3,0.6,3.5,0.8c8.6,1.6,19.7,0.1,31.4-4c0.1,0,0.1,0.1,0.2,0.1c13.1,4.5,25,5.5,33.7,2.9
				c0.1,0,0.2,0,0.3-0.1c0.1,0,0.1-0.1,0.2-0.1c0.3-0.1,0.5-0.2,0.7-0.3c0.3-0.1,0.5-0.2,0.8-0.3c2.4-1.2,4.1-3.6,4.1-6.5
				c0-3.1-2.2-5.7-5.2-6.6c-0.8-0.2-1.6-0.4-2.4-0.4c-0.6,0-1.3,0-2,0c0.3-0.7,0.5-1.5,0.5-2.3c0-0.8-0.4-1.8-0.7-2.6
				c3.3-2.5,6.4-5.1,9.3-7.7c0.1,0.4,0.2,0.7,0.3,1.1l0.2,0.9c0,0.1,0.1,0.3,0.1,0.4c1.2,2.2,3.2,3.7,5.5,4.3
				c0.6,0.1,1.1,0.2,1.7,0.2c2.6,0.4,4-0.2,5.9-1.2c0.1,0,2.2-1.3,2.2-1.3c0.1,0,0.2-0.1,0.2-0.2l1-0.8l1.4-1.4c0,0-0.2,0.3-0.3,0.3
				c2.2-1.8,5.9-6.1,7.8-8.9c0,0,6.3-9.8,6.3-9.8c1.3-2,2.6-4.1,3.8-6.3c6.1-11.5,9.6-25.1,10.4-40.5c0.9-17.8-2.4-34.2-8.5-45.8
				l0,0c0-0.4-0.2-0.8-0.6-1C365.2,87.6,359.6,82.2,353.2,80.4L353.2,80.4z M327.2,65.8L327.2,65.8c0.6,0,1.3,0.2,1.8,0.6
				c0.1,0,0.2,0.1,0.2,0.1c7.3,4.3,11.6,9,11.6,12.8c0,0.3,0,0.6-0.1,1c-0.2,1.2-1,2.4-2.3,3.4c-1.9,0.7-3.7,0.9-5.4,0.5
				c-0.1,0-0.3,0-0.4,0l-1.6,0l-3.1,0c-2.6,0.3-8.6,1.3-10.4,4.9c0,0,0,0,0-0.1c-0.1,0.1-0.1,0.2-0.2,0.3c-0.3,0.4-0.4,0.7-0.5,1.1
				c-1.6-1.4-3.7-2.4-6-2.5l-0.7,0l-1.3,0c-0.5-1-1-2.5-0.9-3.1c0.1-1.3,0.5-2.3,1.2-2.9c0.6-0.5,1.4-0.7,2.4-0.6
				c0.5,0.1,1.4,0.5,1.9,0.8l0.4,0.2c0.6,0.3,1.3,0.2,1.7-0.3c0.5-0.4,0.6-1.2,0.3-1.7c-0.4-0.8-0.7-1.8-0.7-2.2
				c0.1-1.1,0.6-2.1,1.4-2.9c0.8-0.7,1.8-1,2.8-0.9c0.7,0.1,1.3,0.3,1.8,0.6c0.6,0.4,1.4,0.3,1.9-0.2c0.5-0.5,0.6-1.3,0.2-1.9
				c-0.6-1-0.9-1.6-0.8-2.5c0.1-1.2,0.6-2.4,1.5-3.2C325,66.1,326.1,65.7,327.2,65.8L327.2,65.8z M322.6,136.7L322.6,136.7
				c0-0.1-1.7-2.4-1.7-2.4c-0.9-1-1.5-1.8-1.5-3.9c0-0.5,0.1-1.1,0.2-1.8c0.5,0,1,0,1.5,0c0.3,1.4,1,3.2,2.9,4.3
				c0.1,0.5,0.3,1.1,0.3,1.1c0.1,0.4,0.2,0.8,0.3,1.3c0,0.1,0.1,0.3,0.1,0.4c0.1,0.3,0.1,0.7,0.2,1c0,0.1,0,0.2,0.1,0.4
				c0,0.4,0.1,0.9,0.1,1.3c0,0,0,0.1,0,0.1c0,0.5-0.1,1-0.2,1.5c-0.2,1.3-0.7,2.5-1.3,3.3c-0.2,0.3-0.4,0.5-0.6,0.6
				c-0.3,0.2-0.5,0.3-0.8,0.4c-0.6,0.1-1,0-1.2-0.2c-0.1-0.1-0.1-0.2-0.2-0.4c0.4-0.1,0.8-0.3,1.3-0.7c0.9-0.9,1.2-2,1.2-3
				C323.3,138.3,322.7,136.9,322.6,136.7L322.6,136.7z M318.8,146.2L318.8,146.2c0.2,0.2,0.5,0.5,0.9,0.7c-0.6,4.4-1.7,9.9-4.6,14.7
				c-0.4,0.6-0.7,1.2-1.1,1.7c-0.1,0.1-0.2,0.3-0.3,0.4c-1.2,1.7-2.4,2.9-4.2,4.5c-1.5,1.4-2.5,2.1-4.3,3.3l-2.4,1.6
				c-2.9,2-4.9,3.4-8.4,3.5l1.1-0.2l1.5-0.3c0.3-0.1,0.6-0.4,0.5-0.7c-0.1-0.3-0.3-0.5-0.6-0.5l-1.7,0.3l-1.2,0.2l-1-0.2l-2-0.4
				c-0.3-0.1-0.5,0.2-0.6,0.5c-0.1,0.3,0.3,0.6,0.6,0.7l1.6,0.3l1,0.2c0,0-0.1,0-0.1,0c-1.8-0.1-3.2-0.3-4.4-0.8c0,0,0,0,0,0
				c-1.2-0.4-2.3-1-3.5-1.7l-3.3-1.7l-2.2-1c-1.9-0.8-3.1-1.3-5.7-3.4c-2.6-2.2-3.7-4.1-5.3-7.3c-2.8-5.6-3.6-9.4-3.2-14.9
				c0.1-0.1,0.2-0.2,0.2-0.2c1.6-1.7,1.3-4.3,1.3-4.6c-0.1-0.5-0.5-0.9-1-1.1c-0.4-0.2-1-0.1-1.4,0.2c-0.2-0.2-0.2-0.4-0.2-0.8
				c0-0.6,0.2-1.4,0.4-2c0,0,1.2-1.7,1.2-1.7c1.3-1.6,2.8-3.3,2-8.6c0,0-0.2-0.5-0.3-0.9c0.7-1.7,0.4-3.7,0.3-4
				c-0.1-0.5-0.4-0.9-0.8-1.1c-0.4-0.2-1-0.2-1.4,0c-0.1,0.1-0.2,0.1-0.4,0.1l0,0c0.1-0.1,0.3-0.1,0.3-0.1c0.6-0.2,1.5-0.5,2.3-1.4
				l0.1,0.1c1.6,0.8,4.1,0.8,5.7-0.8c2.7-2.5,2.2-5.3,1.6-6.5c-0.1-0.2-0.3-0.4-0.4-0.5c0.2,0,0.3,0,0.5,0.1
				c1.3,0.1,3.5-0.1,5.6-1.4c1.1,1,2.6,1.6,3.8,1.6c2.6,0,4.8-1.3,6.1-3.5c0.3-0.2,0.7-0.4,1-0.7c1.2,2.7,3.6,4.4,6.6,4.4
				c1.7,0,3.9-0.9,5.1-2.5c1.4,1.5,2.9,2.2,4.4,2.5c0,0.1-0.1,0.1-0.1,0.2c-0.6,1.2-1.1,4,1.6,6.5c1.7,1.6,4.2,1.6,5.7,0.8l0.1-0.1
				c0.8,0.9,1.7,1.2,2.3,1.4c0,0,0.1,0.1,0.3,0.1l0,0c-0.1,0-0.3-0.1-0.4-0.1c-0.4-0.2-1-0.2-1.4,0c-0.4,0.2-0.8,0.6-0.8,1.1
				c-0.1,0.6-0.5,3.4,1,5.1l-0.1,0.4c-0.2,1-0.2,1.9-0.2,2.6c0,3.3,1.2,4.7,2.2,5.9l1.2,1.7c0.2,0.5,0.4,1.3,0.4,1.9
				c0,0.3-0.1,0.6-0.2,0.8c-0.4-0.2-1-0.4-1.5-0.2c-0.5,0.2-0.9,0.6-1,1.1C317.5,141.9,317.2,144.6,318.8,146.2L318.8,146.2z
				 M308.5,194.3L308.5,194.3c-1.2,1.2-2.3,2.3-3.7,3.1c-7.6,4.7-17.2,9.6-31.8,11.9c-0.7-0.2-1.1-0.9-1.1-1.6
				c0-0.8,0.5-1.5,1.2-1.6c0,0,0,0,0.1,0c0.1,0,0.2-0.1,0.3-0.1c0.3-0.1,0.8-0.2,0.8-0.2c7.6-2.7,18.1-6.7,24.8-10.9
				c2.2-1.3,4.1-3,5.9-4.6l0.3-0.2c0.5,1.9,1.9,3.3,3.6,4L308.5,194.3L308.5,194.3z M310.7,196.5L310.7,196.5l1.2-1.1
				c0.4,2.2,1.8,4,3.8,4.8l-4.2,2.7l-1.4,0.9c-14.3,8.9-32.2,13.6-44.8,14.3c-0.7-0.5-1.1-1.3-1.1-2.2c0-0.7,0.3-1.4,0.8-1.9
				c0.2-0.1,0.3-0.2,0.4-0.3c0.5-0.3,1-0.5,1.6-0.5c19-1.8,30.7-7.6,39.6-13.1C308.1,199,309.4,197.7,310.7,196.5L310.7,196.5z
				 M278,199.8L278,199.8c0,0,0.6,0.3,1.3,0.8c-1.9,0.7-3.9,1.4-6,2.2c0,0-0.1,0-0.2,0c-1.5-0.9-2.9-1.9-4.2-2.8
				c1.9-0.9,3.3-2.6,3.6-4.8l1.3,1.1C275,197.5,276.3,198.8,278,199.8L278,199.8z M275.5,193.7L275.5,193.7c1.8-0.7,3.1-2.1,3.6-4
				l0.3,0.2c1.9,1.6,3.8,3.3,5.9,4.6c1.3,0.8,2.4,1.4,3.5,2c-1.8,0.8-3.8,1.7-6,2.5l-3.3-2c-1.4-0.8-2.5-1.9-3.7-3.1L275.5,193.7
				L275.5,193.7z M297.5,192.2L297.5,192.2c-1.4,0.9-3.1,1.8-5.1,2.8c-1.9-0.9-3.5-1.8-5.4-3c-0.9-0.6-1.9-1.3-2.7-2
				c0.1,0,0.1,0,0.2,0c0,0,0,0-0.1,0c0.1,0,0.2,0,0.3,0c4.1-0.2,7.5-3.7,7.5-7.9c0-0.8-0.3-1.7-0.6-2.6c0.6,0.1,1.2,0.1,1.9,0.2
				c0.7,0,1.4,0,2-0.1c-0.2,0.8-0.4,1.5-0.4,2.3c0,3.8,2.6,6.9,6,7.8C299.9,190.5,298.7,191.4,297.5,192.2L297.5,192.2z
				 M262.9,142.2L262.9,142.2c0.4,0.4,0.9,0.6,1.3,0.7c-0.1,0.1-0.1,0.3-0.2,0.4c-0.2,0.2-0.6,0.3-1.2,0.2c-0.3,0-0.6-0.2-1-0.5
				c-0.8-0.7-1.4-2.1-1.7-3.7c-0.1-0.6-0.2-1.2-0.2-1.8c0-1.5,0.4-2.8,0.8-4.3l0.3-1.1c1.2-1.1,1.8-2.4,2-3.5c0,0,0-0.1,0-0.1
				c0.1,0,0.1,0,0.2,0c0.1,0,0.2,0,0.3,0c0.1,0,0.2,0,0.3,0c0.1,0,0.1,0,0.2,0c0.1,0,0.2,0,0.3,0c0.1,0,0.2,0,0.3,0
				c0.1,0,0.2,0,0.3,0c0.2,0,0.3-0.1,0.5-0.1c0,0,0.1,0,0.1,0c0,0.4,0.1,0.9,0.1,1.3c0,2.1-0.7,2.9-1.5,3.9l-1.6,2.3
				c-0.1,0.3-0.7,1.7-0.7,3.3C261.7,140.2,262,141.3,262.9,142.2L262.9,142.2z M270.7,77L270.7,77c-0.1-2-1-3.7-2.5-5
				c-1.4-1.2-3.2-1.8-5-1.7c0-0.2,0.1-0.4,0.1-0.7c0-0.1,0-0.3,0-0.4c-0.1-2.1-1.1-3.9-2.6-5.3c-0.2-0.2-0.5-0.3-0.7-0.5
				c-0.2-0.2-0.5-0.3-0.8-0.5c0.2-0.1,0.4-0.2,0.5-0.4c1.4-0.7,3-1.3,4.6-2c0,0-0.1,0-0.1,0l1.1-0.2c0.6,0,1.2,0.1,1.8,0.3
				c0.4,0.2,0.8,0.4,1.2,0.7c0.9,0.8,1.4,1.8,1.5,3c0.1,1.1-0.2,2.1-0.9,3c-0.4,0.5-0.3,1.2,0,1.7c0.3,0.5,1.1,0.8,1.7,0.7l1.6-0.3
				c0.6,0,1.2,0.2,1.6,0.6c0.6,0.5,1,1.4,1,2.4c0,0.4-0.3,0.9-0.6,1.4l-0.3,0.4c-0.3,0.5-0.2,1.2,0.2,1.7c0.4,0.5,1.2,0.7,1.8,0.5
				l1.2-0.4c0.7,0,1.3,0.2,1.8,0.6c0.6,0.5,0.9,1.2,0.9,1.9c0,0.6-0.1,1.2-0.4,1.7c-0.5,0.3-1.1,0.6-1.5,0.9
				c-0.3-0.8-0.8-1.5-1.4-2.1c-1.4-1.3-3.4-1.9-5.5-1.7c-0.1,0-0.3,0.1-0.4,0.1c0-0.1,0-0.2,0-0.2C270.7,77.2,270.7,77.1,270.7,77
				L270.7,77z M283.9,64.7L283.9,64.7c5.5-1.4,10.5-2.3,14.8-2.6c7.1-0.6,13.9-0.6,20,0.1c0.1,0,0.1,0.1,0.2,0.1
				c0.8,0.3,1.3,1,1.4,1.9c0.1,1.2-0.8,2.2-1.9,2.3l-0.4,0c0,0-3.2-0.3-3.2-0.3c-4.9-0.1-9.5,0.1-13.6,0.6c-5.3,0.7-10.5,1.7-15.2,3
				c0-0.1,0-0.2,0-0.3C286,67.4,285.2,65.8,283.9,64.7z M316.5,69.4L316.5,69.4c0.6,0.1,1.2,0.1,1.2,0.1c0,0,1,0,1,0
				c0.3,0,0.7-0.1,1-0.2c0,0.2-0.1,0.3-0.1,0.5c0,0.1,0,0.3,0,0.4c0,0.3,0.1,0.5,0.1,0.7c-1-0.1-2,0.1-3,0.5c0-0.3,0-0.6,0-0.9
				C316.7,70.1,316.6,69.7,316.5,69.4z M312.2,78L312.2,78c-0.1,0-0.2-0.1-0.4-0.1c-1.8-0.2-3.4,0.3-4.7,1.3
				c-0.9,0.7-1.5,1.7-1.9,2.9c-0.6-0.4-1.2-0.8-1.8-1.1c-0.4-0.5-0.6-1.2-0.5-1.9c0-0.8,0.4-1.4,0.9-1.9c0.5-0.4,1.2-0.7,1.8-0.6
				l1.2,0.4c0.6,0.2,1.4,0,1.8-0.5c0.2-0.3,0.4-0.7,0.4-1c0.8,0,1.6-0.1,2.5-0.1c0.1,0,1.2-0.1,1.2-0.1c0,0,0.1,0,0.1,0
				c-0.3,0.7-0.5,1.5-0.6,2.3c0,0.1,0,0.1,0,0.2C312.2,77.9,312.2,77.9,312.2,78L312.2,78z M313.5,115.5L313.5,115.5
				c1.2-0.7,1.7-1.9,1.7-3c0-0.4-0.1-0.7-0.2-1.1c0.6-0.3,1-0.6,1.5-1c0.1,0.3,0.2,0.7,0.3,1.2c0,0,0,0.1,0,0.1
				c0,0.2,0.1,0.4,0.1,0.6c0,0.3,0,0.5,0,0.8l-0.2,1.3c0,0,0,0,0,0c-0.2,0.7-0.7,1.3-1.3,1.8l-1.1,0.7c-0.4,0.2-1.5,0.4-2.2-0.3
				c-0.4-0.3-0.5-0.6-0.7-0.9C312,115.9,312.7,115.9,313.5,115.5L313.5,115.5z M311.4,112.4L311.4,112.4c0.1,0,0.4-0.1,0.6-0.1
				c0,0.1,0,0.1,0,0.2c0,0.1,0,0.1-0.1,0.2C311.8,112.7,311.6,112.6,311.4,112.4L311.4,112.4z M314.8,97.7L314.8,97.7l-0.1-0.1
				c-0.4-0.2-0.9-0.5-1.4-0.2c-0.4,0.3-0.7,0.3-0.7,0.8l-0.1,1.6c0.1,0.4,0.1,0.7,0.1,0.9c0,0.6-0.3,0.8-0.8,0.9
				c-0.6-0.6-1-3.7-1.2-5.2l-0.2-1.7c0-0.3-0.1-0.6-0.2-0.9c0,0,0,0,0-0.1c-0.3-1-0.7-2-1.3-3c0.5,0,1.1,0,1.1,0l0.7,0
				c3,0.1,5.6,2.8,6.5,5.6l0.3,1.1c0,0,0,0,0,0l0.1,0.7c0,0,0,1.3,0.1,1.7C317,98.8,316.1,98.2,314.8,97.7L314.8,97.7z M310,104.2
				L310,104.2c0.7,0.5,1.5,0.6,2.4,0.4c1.2-0.3,2.5-1.1,3-2.7c0.3,0.5,0.5,1.1,0.5,2.1c0,0.6-0.1,1.3-0.3,2.2l-0.3,0.8c0,0,0,0,0,0
				c-0.7,1.2-1.9,1.8-2.7,2l-1.5,0.3c-2.1,0.1-4.9-0.5-6.2-4.3c0,0,0.1,0.2,0.1,0.2c0,0-0.1-0.4-0.2-0.7l-0.1-0.2c0,0,0,0,0,0
				l-0.4-2.3c0-0.4-0.1-0.9-0.2-1.2c-0.5-2.9-1.6-4.7-3.5-6c0,0-0.7-0.4-1.1-0.6c0,0,0,0-0.1-0.1l-0.4-0.2c-1.3-0.6-1.9-0.9-2.2-2.3
				c-0.1-0.3-0.1-0.5-0.1-0.8c0-0.1,0-0.2,0-0.3c0-0.1,0-0.3,0-0.4c0,0,0-0.1,0-0.1c0-0.3,0-0.6,0.1-0.9c0.1-0.2,0.5-0.9,0.6-1.1
				c0.1-0.1,0.2-0.1,0.2-0.1c3.1-1.8,5.9,0.7,7.3,2.3c1.5,1.8,2.4,3.8,2.5,4.9l0.2,1.6C307.9,99.9,308.2,103,310,104.2L310,104.2z
				 M269.7,114.3L269.7,114.3c0.3,0.4,0.5,0.8,1,1.1c0.7,0.4,1.4,0.4,2.1,0.2c-0.2,0.3-0.3,0.6-0.7,0.9c-0.7,0.6-1.8,0.5-2.2,0.3
				c0,0-0.2-0.1-0.3-0.2c0.1-0.5,0.1-1.1,0.1-1.7C269.7,114.7,269.7,114.5,269.7,114.3L269.7,114.3z M272.2,112.6L272.2,112.6
				c0-0.1-0.1-0.1-0.1-0.2c0-0.2,0.1-0.4,0.1-0.4c0.1-0.4,0.2-0.7,0.3-1.1c0.5,0.3,1.1,0.5,1.6,0.6c-0.2,0.1-0.5,0.2-0.6,0.3
				C273,112.2,272.5,112.5,272.2,112.6z M272.1,106.8L272.1,106.8c-0.3-0.4-0.5-0.8-0.6-1.3c-0.2-0.9-0.3-1.6-0.3-2.2
				c0-1,0.2-1.6,0.5-2.1c0.5,1.6,1.7,2.4,3,2.7c0.9,0.2,1.7,0.1,2.4-0.4c1.8-1.2,2.1-4.3,2.5-7.5l0.1-0.9c0-0.1,0.1-0.7,0.1-0.7
				c0.1-0.9,0.6-2.1,1.3-3.3c0.4-0.7,4.1-6.4,8.5-3.9c0.7,0.4,1,1.3,0.9,2.7l-0.2,1v0c0,0,0,0,0,0c-0.2,0.9-0.5,1.2-0.9,1.5
				c-0.1,0.1-1.4,0.8-1.4,0.8c-1.9,0.9-4.5,2.2-5.2,7.5c0,0,0,0,0,0l-0.1,0.4c0,0.1,0,0.1,0,0.1c-0.1,1-0.3,2-0.6,2.8
				c-0.4,1.3-1,2.3-1.8,3c-1.4,1.4-3.2,1.6-4.5,1.5C275.1,108.7,273.1,108.1,272.1,106.8L272.1,106.8z M288.9,97.9L288.9,97.9
				c-0.1,0.3-0.1,0.6-0.2,0.9c-0.5-0.2-1.2-0.3-1.9-0.4c0.5-1,1.1-1.6,1.8-2L288.9,97.9z M284,107.8L284,107.8c0.4,0.4,1,0.8,1.5,1
				c-0.1,0-0.1,0.1-0.2,0.1c-0.4,0-1-0.3-1.5-0.7C283.8,108,283.9,107.9,284,107.8z M285.4,104.5L285.4,104.5
				c0.2-0.9,0.4-1.7,0.5-2.7c0.2-0.1,0.3-0.3,0.5-0.3c1.1,0,1.6,0.3,1.7,0.5l-0.1-0.1c0.2,0.5,0.6,0.9,1.2,1c0.5,0.1,1,0,1.4-0.4
				c0.2-0.2,0.3-0.5,0.5-0.9c0.2,0.2,0.4,0.3,0.6,0.4c0,0.3,0,0.6-0.1,0.8l0,0.2c0,0.3,0,0.5-0.1,0.7c-0.4,1-1.1,1.8-2,2.2
				c-0.5,0.2-1.1,0.3-1.7,0.3C286.9,106.3,285.8,105.5,285.4,104.5L285.4,104.5z M291.7,96.1L291.7,96.1l0-0.2
				c0-0.4,0.1-1.1,0.2-1.4c0.4-0.4,0.7-0.8,1-1.3c0,0.2,0,0.4,0,0.6c0,0.1,0,0.1,0,0.2c0,0.2,0,0.4,0.1,0.6c0,0.1,0,0.1,0,0.2
				c0.1,0.5,0.2,1,0.3,1.5c0,0.1,0,0.1,0.1,0.2c0.1,0.2,0.1,0.3,0.2,0.5c0,0.1,0,0.1,0.1,0.2c0.1,0.2,0.2,0.4,0.3,0.5
				c0.3,0.4,0.8,0.7,1.4,0.6c0.5,0,1-0.4,1.3-0.8c0.3-0.6,0.4-0.7,0.5-0.8c0.1,0,0.4,0,1.1,0.2c0.2,0.1,0.6,0.3,0.6,0.3
				c0.1,0.1,0.2,0.2,0.3,0.4c0,0,0,0,0,0.1c0,0.1,0,0.2,0.1,0.3c0,0.1,0,0.1,0,0.2c0,0.2,0,0.4,0,0.6c-0.1,0.4-0.2,1.7-2.4,1.6
				c-1,0-1.9-0.3-2.7-0.6c-1-0.5-1.7-1.3-2-2.3L291.7,96.1z M294.7,103.3L294.7,103.3c0.2,0,0.4,0.1,0.6,0.1
				c0.1,0.5,0.4,1.1,0.7,1.6c0,0,0,0.1,0.1,0.1c0.2,0.2,0.3,0.4,0.5,0.5c0.1,0.1,0.1,0.1,0.2,0.2c0.2,0.2,0.5,0.3,0.8,0.4
				c0.6,0.2,1.3,0,1.7-0.5c0.4-0.4,0.7-0.7,1.1-0.8c0.1,0,0.2,0,0.3,0c0.1,0,0.1,0,0.2,0c0.2,0,0.3,0,0.4,0.1
				c0.3,0.1,0.4,0.2,0.5,0.4l0.2,0.5l0.1,1.2c0,0.9-1.8,2.1-3.1,2.1c-2.5,0-4.3-2-4.3-5C294.7,104.1,294.7,103.7,294.7,103.3z
				 M312.3,72.2L312.3,72.2c-0.2,0-0.9,0.1-0.9,0.1c-4.6,0.1-9.4,0.6-14.1,1.6c-2.5,0.5-4.8,1.2-7,1.8c-0.3,0-0.5,0.1-0.8,0.2
				c-0.1-1.5-0.7-2.7-1.7-3.6c4.3-1.1,9-2,13.8-2.6c3.3-0.4,6.8-0.6,10.6-0.6c0.2,0.2,0.4,0.3,0.6,0.4c0.5,0.1,0.7,0.5,0.8,1.2
				c0,0,0,0.1,0,0.2C313.7,71.3,313.5,72,312.3,72.2L312.3,72.2z M300.6,76.4L300.6,76.4c-0.4,0.8-0.7,1.6-0.8,2.5
				c0,0.1,0,0.1,0,0.2c-1-0.5-2.1-0.9-3.2-1.3l-0.2-0.5c0.5-0.1,0.9-0.2,1.4-0.3C298.8,76.7,299.7,76.6,300.6,76.4L300.6,76.4z
				 M288.5,79.6L288.5,79.6c0.6-0.2,1.3-0.4,1.9-0.6c1.4,0.4,2.7,0.8,4,1.3c0.3,0.5,0.9,0.7,1.5,0.6c2.1,0.9,4.1,1.8,5.8,2.7
				c0,0,0.1,0,0.1,0.1c1.2,0.7,2.2,1.4,3.1,2.1c0,0.2,0.1,0.4,0.1,0.5c-2.9-2.2-6.1-2.6-8.9-1c-0.1,0-0.2,0-0.2,0
				c-1,0.3-1.9,0.9-2.8,1.6c-0.4-0.9-1.1-1.7-1.9-2.2c-4.3-2.4-8.6-0.3-11.4,3.2c-0.6-0.2-1.4-0.3-2.2-0.4c0.6-1.1,0.8-2,0.9-2.8
				c0.7-0.5,1.5-1.1,2.3-1.6c0.3-0.1,0.6-0.2,0.9-0.5c0,0,0-0.1,0.1-0.1c1.5-0.8,3.2-1.6,5.1-2.4C287.5,80.4,288.2,80.2,288.5,79.6
				L288.5,79.6z M277.9,90.6L277.9,90.6c-0.5,0.9-0.8,1.8-1,2.6c-0.1,0.3-0.1,0.6-0.2,0.8c0,0-0.1,0.6-0.1,0.6c0,0.2-0.1,1-0.1,1
				c-0.2,1.5-0.6,4.7-1.2,5.3c-0.6-0.1-0.8-0.3-0.8-0.9c0-0.2,0-0.5,0.1-0.9l-0.1-1.6c0-0.5-0.3-0.5-0.7-0.8
				c-0.4-0.3-0.9,0.1-1.4,0.2l-0.1,0.1c-0.4,0.1-0.8,0.3-1.1,0.5c-0.1,0.1-0.2,0.1-0.3,0.2c-0.2,0.1-0.5,0.3-0.7,0.5
				c-0.1,0.1-0.2,0.2-0.3,0.2c-0.2,0.2-0.4,0.4-0.5,0.6c-0.1,0.1-0.1,0.2-0.2,0.2c-0.2,0.3-0.4,0.6-0.5,1c0,0.1,0,0.1-0.1,0.2
				c-0.1,0.3-0.2,0.6-0.3,0.9c0,0.1-0.1,0.3-0.1,0.4c-0.1,0.3-0.1,0.6-0.1,0.9c0,0.1,0,0.3,0,0.4c0,0.1,0,0.2,0,0.3
				c0,0.2,0,0.5,0,0.7c0,0.2,0,0.3,0,0.5c0.1,0.5,0.1,1,0.2,1.6c0,0.1,0.1,0.1,0.1,0.2c-0.5,0.2-1,0.6-1.5,1.1c0,0,0,0,0,0
				c-0.2,0.2-0.4,0.5-0.5,0.8c0,0.1-0.1,0.1-0.1,0.2c-0.2,0.3-0.3,0.7-0.5,1.1l-0.6,2c-0.8,3.1-1.4,4.4-2.8,4.4
				c-0.7,0-1.4-0.7-1.8-1.3l-0.2-0.3l-0.8-1.6c-0.1-0.2-0.1-0.3-0.2-0.5c0-0.1,0-0.1,0-0.1c0-0.1-0.1-0.2-0.1-0.3c0,0,0-0.1,0-0.1
				c0-0.1-0.1-0.2-0.1-0.3c0,0,0,0,0,0c0-0.1,0-0.2,0-0.3c0,0,0-0.1,0-0.1c0-0.1,0-0.2,0-0.3c0,0,0-0.1,0-0.1c0-0.1,0-0.2,0-0.2
				c0.1-0.2,0.1-0.4,0.1-0.5l0.1-0.6c0.1-0.3,0.2-0.5,0.5-0.8l0,0c0.1-0.1,0.1-0.1,0.2-0.2c0.8,1.3,2,1.3,2.7,1.1
				c2.9-0.6,3.2-5,3.3-8.8c0-0.3,0-0.5,0-0.8l0-1.8l0.2-1c0.7-3.2,3.6-5.9,6.9-6.4c0,0,0.1,0,0.1,0c0.4,0.1,0.7,0.1,1.1-0.1
				C275.8,90.4,277,90.5,277.9,90.6L277.9,90.6z M269.6,109.2L269.6,109.2c0,0.2,0,0.5-0.1,0.7c0-0.2-0.1-0.3-0.1-0.5
				C269.5,109.3,269.6,109.2,269.6,109.2L269.6,109.2z M263.4,99.3L263.4,99.3c0,0.2,0,0.3,0,0.3c0,1.4-0.1,4.7-0.6,6
				c-0.1-0.2-0.1-0.4-0.1-0.4c-0.2-0.5-0.6-0.7-1.2-0.8c-0.1,0-0.3,0-0.5,0c0-0.2,0.1-0.4,0.1-0.6l0.4-0.9
				C262.2,101.1,262.7,100,263.4,99.3C263.4,99.3,263.4,99.3,263.4,99.3L263.4,99.3z M262.4,96L262.4,96c-2,1.2-2.9,3.3-3.9,5.8
				l-0.4,0.9c-0.5,1.1-0.5,2.3-0.5,3.3l0,0.5c-0.1,0.1-0.2,0.2-0.2,0.3c-1.5-1.5-3.1-3.5-3.9-4.9c-1.6-2.8-1.7-3.9-2.1-6.3l-0.1-0.9
				c-0.2-1.3-0.6-2.3-1.1-3.5c-0.7-1.7-1.5-3.2-2.6-4.6c0.9,0,1.7,0,2.6-0.2c0.1,0,1.7,0,1.7,0l2.7-0.1c4.1,0.5,7.4,1.8,8.1,3.4
				c0.1,0.1,0.1,0.3,0.2,0.4c0.2,0.3,0.3,0.4,0.3,1.2c0,0,0,0.5,0.1,0.8C263.2,92.5,262.7,94.8,262.4,96L262.4,96z M256.8,113.2
				L256.8,113.2c-0.5-0.2-0.9-0.6-1-0.8c-0.1-0.2-0.1-0.3-0.2-0.5c0.3,0.1,0.6,0.1,0.9,0C256.5,112.4,256.6,112.8,256.8,113.2
				L256.8,113.2z M255.8,118.2L255.8,118.2c0-0.6-0.1-1.3-0.2-2.1c0.4,0.1,0.7,0.2,1.1,0.3c0.2,0,0.4,0.1,0.6,0.1l0.2,0
				c0,0,0.1,0,0.1,0c-0.3,1-0.6,2-1,2.9c-0.1,0.1-0.1,0.2-0.2,0.4c-0.2,0.4-0.3,0.7-0.5,1c-0.2,0.5-0.5,0.9-0.7,1.3c0,0,0,0.1,0,0.1
				c-0.9,1.2-1.8,1.9-2.9,2.1c0,0-0.2,0-0.2,0c-0.3,0-0.9,0-1.3-0.3c-0.1-0.1-0.1-0.4-0.1-0.5c0.3,0.1,0.6,0.2,1,0.2
				c1.3-0.1,2.4-0.6,3.1-1.5C255.4,121.2,255.8,120,255.8,118.2L255.8,118.2z M255.5,126.1L255.5,126.1c0.1,0.4,0.1,0.8,0.1,1
				c0,0.2-0.1,0.3-0.2,0.4c0,0-0.4-0.3-0.4-0.3c-0.3-0.2-0.6-0.2-0.9-0.2c0-0.1,0-0.1,0-0.2C254.6,126.7,255,126.4,255.5,126.1
				L255.5,126.1z M255.1,139.8L255.1,139.8c1-0.7,1.5-1.5,1.8-2.2c0,0.7,0.1,1.4,0.2,2.2c0,0,0,0,0,0c0.2,1.1,0.7,2.8,1.7,4.3
				c-0.1,0.2-0.3,0.4-0.3,0.4c-0.2,0.3-0.6,0.6-1,0.6c-0.3,0-0.6-0.2-0.8-0.4c-0.1-0.1-0.3-0.4-0.3-1.4c0-0.8-0.7-1.5-1.5-1.6
				c0,0-2-0.4-2.5-1.8c0.3,0.2,0.6,0.3,0.9,0.4L255.1,139.8L255.1,139.8z M256.2,133.7L256.2,133.7c0.4,0,0.8,0,1.2,0
				c-0.2,0.6-0.3,1.3-0.4,2C256.9,134.9,256.6,134.3,256.2,133.7z M258.8,130L258.8,130c-0.1,0.1-0.3,0.2-0.3,0.2
				c-0.9,0.4-1.9,0.6-2.4,0.3c0.3-0.1,0.7-0.1,1-0.3c1.2-0.8,1.6-1.9,1.6-3c0-0.9-0.2-1.8-0.4-2.6c0,0-0.1-0.6-0.2-1.1l-0.1-0.2
				c0.9-1.5,1.6-3.3,2.2-5c0.9,0.6,1.7,0.7,2.4,0.7c0.3,0,0.6,0,0.9-0.1c-0.4,0.4-0.7,1-0.7,2c0,0.1,0,0.3,0,0.5
				c0.2,1.5,0.9,2.1,1.5,2.5c0.4,0.2,0.8,0.2,1.1,0.3c0,0.4-0.1,0.7-0.3,1l-0.1,0.1c-0.5,0.4-1.8,0.2-2.4,0.2l-0.9-0.1
				c-0.4,0-0.8,0.1-1.1,0.4c-0.3,0.3-0.4,0.7-0.5,1.1C260.1,128.3,259.7,129.4,258.8,130L258.8,130z M318.9,107.8L318.9,107.8
				c0,0.1,0.1,0.1,0.1,0.2c0.3,0.4,0.6,0.8,1.1,1c0.1,0,0.1,0.1,0.2,0.1c0.2,0.1,0.4,0.2,0.7,0.3c0.3,0.1,0.5,0.1,0.8,0.1
				c0.5-0.1,0.9-0.3,1.3-0.6c0.2-0.2,0.4-0.4,0.6-0.7c0,0,0.1,0,0.1,0.1l0.5,1c0,0,0.2,0.8,0.2,0.8c0,0.1,0,0.1,0.1,0.2
				c0.1,0.3,0.2,0.6,0.2,0.9c0,0.1,0,0.2,0,0.2c0,0.3,0.1,0.5,0.1,0.8c0,0,0,0,0,0.1c0,0.2-0.1,0.5-0.1,0.7c0,0.2,0,0.3-0.1,0.5
				c0,0,0,0,0,0c0,0,0,0,0,0l-0.4,0.9c0,0-0.6,0.8-0.6,0.8l0,0c-0.3,0.3-0.7,0.6-1.1,0.7c-0.2,0.1-0.4,0.1-0.6,0.2
				c-0.2,0-0.4,0.1-0.6,0.1c-0.5,0-1.1-0.2-1.8-1.5c0,0,0-0.1,0-0.1c0.1-0.6,0.2-1.4,0.2-1.4c0-0.6,0-1.2-0.1-1.7c0-0.1,0-0.2,0-0.3
				c-0.1-0.5-0.2-1-0.3-1.4c0,0,0,0,0-0.1c-0.3-0.9-0.7-1.6-1.1-2.2c0.1-0.2,0.1-0.3,0.2-0.4C318.7,107.3,318.8,107.6,318.9,107.8
				L318.9,107.8z M320.8,99.4L320.8,99.4c0.7,0.8,1.2,1.9,2,3.7c0,0,0.3,0.8,0.4,0.9c0,0-0.1,0-0.1,0c-0.6,0.1-1,0.2-1.2,0.8
				l-0.3,0.7c0,0.1-0.1,0.2-0.1,0.3c-0.6-1.3-0.6-4.6-0.7-6C320.8,99.8,320.8,99.5,320.8,99.4z M323.9,126.8L323.9,126.8
				c0-0.4-0.2-0.8-0.5-1.1c-0.3-0.3-0.7-0.4-1.1-0.4l-0.8,0.1c-0.7,0.1-1.8,0.2-2.3-0.1l-0.1-0.1c-0.2-0.2-0.3-0.6-0.3-1.1
				c0.4,0,0.8-0.1,1.1-0.3c0.6-0.3,1.3-1,1.5-2.4c0-0.2,0-0.3,0-0.5c0-0.9-0.3-1.5-0.8-2c0.3,0.1,0.6,0.1,0.9,0.1
				c0.8,0,1.6-0.2,2.4-0.6c0.6,1.7,1.3,3.3,2.2,4.8l-0.1,0.5c0,0.2-0.1,0.5-0.1,0.6l0,0.2c-0.2,0.8-0.4,1.7-0.4,2.6
				c0,1.1,0.4,2.2,1.6,3c0.3,0.2,0.6,0.2,1,0.3c-0.5,0.2-1.3,0.1-2.1-0.2c-0.1-0.1-0.3-0.1-0.3-0.1
				C324.5,129.7,324,128.7,323.9,126.8L323.9,126.8z M328,133.7L328,133.7c-0.1,0.2-0.3,0.4-0.4,0.7c0-0.2-0.1-0.4-0.2-0.6
				c0,0,0,0,0.1,0C327.7,133.8,327.8,133.8,328,133.7L328,133.7z M327.9,140.6L327.9,140.6c0.1-0.5,0.2-1,0.2-1.5
				c0.3,0.3,0.6,0.6,1,0.9c0,0,1.7,0.4,1.7,0.4c0.3-0.1,0.7-0.2,0.9-0.4c-0.4,1.5-2.5,1.8-2.5,1.8c-0.8,0.1-1.5,0.8-1.5,1.6
				c0,1-0.2,1.4-0.3,1.4c-0.1,0.1-0.4,0.4-0.8,0.4c-0.2,0-0.3-0.1-0.4-0.1C326.9,143.9,327.6,142.4,327.9,140.6L327.9,140.6z
				 M330,127.2L330,127.2c-0.3-0.1-0.7,0-0.9,0.2c0,0-0.3,0.3-0.4,0.3c-0.1-0.1-0.2-0.2-0.2-0.4c0-0.2,0.1-0.6,0.2-1
				c0.4,0.3,0.9,0.5,1.3,0.7C330,127,330,127.1,330,127.2L330,127.2z M329,122.2L329,122.2C329,122.2,329,122.2,329,122.2
				c-0.3-0.5-0.5-0.9-0.8-1.3c-0.2-0.3-0.3-0.7-0.5-1c0-0.1-0.1-0.3-0.2-0.4c-0.4-1-0.7-2-1-2.9l0.2,0c0.2,0,0.4,0,0.6-0.1
				c0.4,0,0.8-0.1,1.1-0.3c-0.1,0.8-0.1,1.5-0.1,2.1c0,1.7,0.4,3,1.1,3.9c0.7,0.9,1.8,1.4,3.1,1.5c0.4,0,0.7-0.1,1-0.2
				c-0.1,0.2-0.1,0.4-0.2,0.5c-0.4,0.4-1,0.4-1.3,0.3c0,0-0.2,0-0.2,0C330.8,124.2,329.9,123.5,329,122.2L329,122.2z M328,112.1
				L328,112.1c0.2,0,0.5,0,0.7-0.1c-0.1,0.2-0.1,0.4-0.3,0.5l0,0c0,0,0,0,0,0c-0.1,0.1-0.3,0.3-0.5,0.5c0-0.2,0-0.4,0-0.6
				C328,112.4,328,112.3,328,112.1C328,112.2,328,112.2,328,112.1L328,112.1z M326.8,107.4L326.8,107.4c-0.1-0.2-0.1-0.3-0.2-0.4
				l0-0.8c0-1-0.1-2.2-0.6-3.3l-0.4-0.9c-1.2-3-2.2-5.4-5.3-6.5c0-0.1,0-0.1-0.1-0.2c-0.2-1-0.5-2.3-0.6-2.5c0-0.3,0.1-0.8,0.1-0.8
				c0.1-0.8,0.1-0.9,0.3-1.2c0.1-0.1,0.2-0.2,0.2-0.4c0.7-1.5,4-2.9,8.1-3.4c0,0,2.6,0.1,2.6,0.1s1.6,0,1.7,0
				c1.4,0.3,2.8,0.3,4.2,0.1c-0.8,1.1-1.4,2.4-2,3.8c-0.5,1.3-0.8,2.3-1.1,3.5c0,0-0.1,0.9-0.1,0.9c-0.3,2.3-0.5,3.4-2.1,6.3
				C330.8,103.1,328.5,105.7,326.8,107.4L326.8,107.4z M323.3,63.3L323.3,63.3c0.1,0.1,0.3,0.1,0.4,0.2c-0.1,0.1-0.3,0.1-0.4,0.2
				C323.4,63.5,323.3,63.4,323.3,63.3L323.3,63.3z M283.2,54.9L283.2,54.9c2.1-0.5,4.2-0.9,6.3-1.2c0,0,0,0,0,0c0.3,0,0.6,0,0.8-0.1
				c14-2.2,26.8-1.8,34.2,1.3c0.7,0.4,1.3,1.1,1.4,2c0,0.1,0,0.1,0,0.2c0,1.4-1,2.5-2.3,2.6c0,0-0.4,0-0.4,0c0,0-1.4-0.2-1.4-0.2
				c-3.5-0.5-7.4-0.8-11.4-0.9c-3.9-0.1-7.9,0.1-12,0.5c-4.7,0.4-10.1,1.4-16.1,2.9c0-0.1,0.1-0.3,0.1-0.4c0-0.3,0-0.6,0-0.9
				c0-1.2-0.3-2.3-0.9-3.4c-0.2-0.4-0.5-0.8-0.8-1.1c-0.2-0.2-0.4-0.4-0.6-0.6C281.2,55.3,282.2,55.1,283.2,54.9L283.2,54.9z
				 M277.7,65.5L277.7,65.5c0.2,0.6,0.9,1,1.5,1l1.6,0c1.8,0.2,2.3,2,2.1,3.4c0,0.4-0.5,0.8-0.9,1.3l-0.3,0.4
				c-0.4,0.5-0.4,1.1-0.1,1.7c0.3,0.6,1,0.9,1.6,0.8l1.2-0.1c1.4,0.2,2.2,1.2,2,2.7c0,0-0.1,0.2-0.2,0.5c-1.1,0.4-2.2,0.9-3.2,1.3
				c0,0,0-0.1,0-0.1c-0.1-1.6-0.8-3-2-4c-0.9-0.8-2-1.2-3.1-1.3c0-0.2,0.2-0.4,0.2-0.7c0-0.1,0-0.2,0-0.2c-0.1-1.8-0.9-3.4-2.1-4.5
				c-0.9-0.8-2-1.2-3.3-1.3c0.1-0.6,0.3-1.1,0.3-1.7c0-0.2,0-0.3,0-0.5c-0.1-1.8-0.9-3.4-2.1-4.7c-0.2-0.2-0.3-0.3-0.5-0.5
				c-0.2-0.2-0.4-0.3-0.6-0.4c1.8-0.6,3.6-1.2,5.5-1.7c0,0,0,0,0,0c1.1,0,2.1,0.4,2.8,1c0.1,0.1,0.3,0.2,0.4,0.4
				c0.7,0.8,1,1.8,0.9,2.9c-0.1,0.7-0.3,1.3-0.7,1.9c-0.3,0.2-0.5,0.4-0.6,0.7c0,0-0.1,0.1-0.1,0.1
				C277.5,64.3,277.4,64.9,277.7,65.5L277.7,65.5z M257,57.4L257,57.4c0.1-0.9,0.7-1.6,1.4-2c5-2.1,12.1-3,20.5-2.7
				c-5.6,1.4-10.8,3.1-15.5,5c-0.1,0-0.2,0-0.2,0c0,0,0.1,0,0.1,0c-1.8,0.7-3.5,1.5-5.2,2.3c-1-0.4-1.2-1.5-1.2-2.2
				C257,57.6,257,57.5,257,57.4z M245.6,71.8L245.6,71.8c1.9-1.9,4.5-3.9,7.7-5.9c0.2,0,0.3-0.1,0.4-0.2c0.6-0.3,1.2-0.5,1.8-0.6
				c0.2,0,0.5,0,0.7,0c0.9,0.1,1.7,0.4,2.4,1c0.9,0.8,1.5,1.9,1.5,3.2c0.1,0.9-0.2,1.5-0.9,2.5c-0.4,0.6-0.3,1.4,0.2,1.9
				c0.5,0.5,1.3,0.6,1.9,0.2c0.6-0.4,1.2-0.6,1.8-0.6c1-0.1,2,0.3,2.8,0.9c0.8,0.7,1.3,1.8,1.4,2.9c0,0.3-0.3,1.3-0.7,2.1
				c-0.3,0.6-0.1,1.3,0.3,1.7c0.5,0.5,1.2,0.6,1.7,0.3l0.4-0.2c0.5-0.3,1.4-0.7,1.9-0.8c1.2-0.1,2.3,0.2,3.1,0.9
				c0.7,0.6,1,1.5,0.9,2.5c0,0.6,0,2.1-1.8,3.7c-0.2,0-0.3,0-0.5,0c-2.6,0.4-5,1.8-6.8,3.7l0-0.1c0-0.8-0.1-1.7-0.8-2.7
				c-0.1-0.1-0.1-0.2-0.2-0.2c0,0,0,0.1,0,0.1c-1.8-3.6-7.8-4.6-10.4-4.9l-3.1,0.1l-1.6,0c-0.1,0-0.3,0-0.4,0
				c-1.7,0.4-3.6,0.2-5.4-0.5c-1.3-1-2.1-2.1-2.3-3.4c-0.1-0.3-0.1-0.6-0.1-1C242,76.6,243.3,74.3,245.6,71.8L245.6,71.8z
				 M215.6,102.3L215.6,102.3c0.6,1.5,1.5,2.7,2.6,3.6c1.4,1.1,3.1,1.8,5.1,1.8c0.8,0,1.6-0.1,2.4-0.4c1,3.1,3.5,5,7,5
				c1.7,0,3.2-0.6,4.6-1.5c1.2,3.2,4,5.5,7.3,5.5c2.8,0,5.3-1.4,6.8-3.8c0.4-0.7,0.3-1.7-0.5-2.1c-0.7-0.5-1.7-0.2-2.1,0.5
				c-0.9,1.5-2.5,2.3-4.2,2.3c-2.6,0-4.8-2.5-4.8-5.5c0-0.7-0.5-1.3-1.1-1.5c-0.7-0.2-1.4,0.1-1.7,0.7c-0.9,1.5-2.5,2.4-4.2,2.4
				c-2.6,0-4.1-1.5-4.4-4.1c-0.1-0.5-0.4-1-0.8-1.2c-0.5-0.2-1-0.2-1.5,0c-0.8,0.5-1.7,0.7-2.6,0.7c-1.5,0-2.8-0.5-3.7-1.5
				c-0.9-1-1.5-2.4-1.7-4.2c0,0,0.1-1.4,0.1-1.5c3.9-7,8.8-11.9,14.5-13.6c0.1,0,0.1,0,0.2-0.1c0.2,0,0.9-0.1,0.9-0.1
				c5.6-1.2,11.4,2.6,13.8,8.8c0.4,1.1,0.7,1.9,0.9,2.9c0,0,0.1,0.8,0.1,0.8c0.4,2.5,0.6,4,2.5,7.3c0.6,1.1,1.7,2.5,2.9,3.9
				c-0.2,0.1-0.5,0.4-0.6,0.6c-0.1,0.3-0.9,1.6-0.9,2.5c-0.1,1,0.2,2.1,0.7,3.1c-0.2,0.6-0.3,1.3-0.3,2c0,0.3,0,0.6,0.1,1
				c0.1,0.7,0.1,1.3,0.1,1.8c0,1.3-0.3,1.8-0.4,1.9c-0.1,0.1-0.3,0.3-0.8,0.3c-0.1-0.1-0.3-0.3-0.5-0.6c-0.3-0.4-0.8-0.7-1.3-0.7
				c-0.5,0-1.1,0.3-1.4,0.7c-0.6-0.1-1.2,0.2-1.5,0.8c-1,1.8-2.8,2.8-4.7,2.8c-3,0-5.4-2.5-5.4-5.6c0-0.8-0.6-1.4-1.4-1.5
				c-0.8-0.1-1.5,0.4-1.7,1.2c-0.6,2.3-2.7,3.8-5.4,3.8c-2.5,0-4.6-1.7-5.2-4.2c-0.1-0.5-0.5-0.9-0.9-1.1c-0.5-0.2-1-0.1-1.4,0.2
				c-0.9,0.6-1.5,0.8-2.6,0.8c-1,0-2.3-0.2-3.4-1.4c-0.8-0.8-1.5-2.2-2-4.2c0,0,0-0.1,0-0.1C213.4,108,214.4,105,215.6,102.3
				L215.6,102.3z M211.4,116.2L211.4,116.2c0.7,1.1,1.5,1.9,2.3,2.5c1.4,1,3,1.3,4.4,1.3c1,0,1.8-0.2,2.6-0.5
				c1.4,2.9,4.2,4.9,7.5,4.9c2.6,0,4.7-1,6.3-2.6c1.4,2.9,4.2,4.9,7.5,4.9c2,0,4-0.8,5.5-2.1c0.3,0.8,0.7,1.3,1,1.7
				c0.7,0.7,1.6,1,2.5,1.2l0.1,0.9l0.2,1.7c0.2,2.1,1.2,3.7,1.9,4.8c0.5,0.8,0.8,1.2,0.8,1.5c0,0.2-0.1,0.4-0.4,0.6
				c-0.2-0.2-0.4-0.5-0.5-0.7l-1-1.1c-0.4-0.4-0.8-0.2-1.3-0.1c-0.5,0.1-0.8,0.8-0.9,1.4l-0.3,1l-0.5,1.7c0,0.1,0,0.3,0,0.4
				c0,1.5,0.6,2.8,1.7,3.8c0.8,0.7,1.7,1.1,2.6,1.3c0.1,0.8,0.4,1.7,1.1,2.4c0.8,0.9,1.9,1.3,3,1.3c0.8,0,2-0.3,3.2-1.6
				c0,0,0.1-0.2,0.3-0.4c0.4,0.2,0.8,0.3,1.3,0.4c0.1,0,0.3,0,0.4,0c-0.3,5.5,0.7,9.6,3.6,15.4c0.3,0.6,0.6,1.2,0.9,1.7
				c-0.5,0.2-1,0.3-1.5,0.3c-1.9-0.6-3-1.3-4.4-3.7c0-0.1-0.1-0.1-0.1-0.1l-1.3-1.8c-2.1-4.8-6.7-8.1-12.1-8.9
				c-1.2-6.2-1.8-14.3-1.6-19.9c0.1-0.2,0.1-0.4,0.2-0.7c0.2-0.8-0.4-1.7-1.2-1.8c-0.8-0.2-1.7,0.4-1.8,1.2c-0.4,2-2.2,3.5-4.2,3.5
				c-1.7,0-3.2-1-3.9-2.6c-0.3-0.7-1-1-1.7-0.9c-0.7,0.2-1.2,0.8-1.2,1.5c0,2.7-2.2,4.7-5,4.7c-2.1,0-3.8-2.3-4.4-4.5
				c-0.2-0.7-0.8-1.1-1.5-1.1c-0.7,0-1.3,0.5-1.5,1.2c-0.5,2.5-2.5,4.3-4.8,4.3c-1.6,0-3-1-4-2.5c-0.7-1.1-1.2-2.5-1.4-4.2
				c0,0,0-0.1,0-0.1C210.1,123.6,210.6,119.8,211.4,116.2L211.4,116.2z M253.7,174.1L253.7,174.1L253.7,174.1
				c-0.1,2.4-2,4.3-4.3,4.3c-0.5,0-0.9-0.1-1.3-0.3c-0.2-0.1-0.3-0.3-0.3-0.3c-0.4-0.4-1-0.5-1.6-0.3c-0.5,0.2-0.9,0.7-1,1.2
				c-0.3,2.1-1.8,3.4-4.1,3.4c-1.4,0-2.4-0.4-3.1-1.3c0-0.1-0.1-0.1-0.2-0.1c-4-8.6-4.6-16.7-1-22.8c0.5-1,1.1-2,1.7-2.9
				c0.3-0.2,0.6-0.5,0.7-0.8c0.6-0.6,1.2-1,2-1.3c1.5-0.6,2.7-0.6,4.5-0.6c5.2,0,9.8,2.9,11.7,7.4c0,0.1,0.1,0.2,0.2,0.3l1.4,1.9
				c0.5,0.8,0.9,1.5,1.4,2.1c0.3,0.6,0.7,2.7,0.7,3.4c0,2.5-1.9,4.5-4.3,4.5l-0.7-0.1c-0.3,0-0.9-0.1-1.1,0l-0.2,0.1
				c-0.4,0.2-0.8,0.5-0.9,1c0,0.2-0.1,0.3-0.1,0.5C253.5,173.6,253.6,173.9,253.7,174.1L253.7,174.1z M231.9,172.6L231.9,172.6
				c-0.3-0.6-1.2-2.7-1.2-2.7l-1.9-4.3c0,0-0.8-2.4-0.8-2.4c0,0-1.8-5.3-1.8-5.3c-2.2-7.4-2.8-15-2.9-21.9c1.1,1,2.5,1.7,4.1,1.7
				c2.1,0,4-0.7,5.4-1.9c0.5,5.4,1.6,11.5,3.2,17.5c-0.8,1-1.4,2.1-1.9,3.2C231.4,161.1,230.7,166.6,231.9,172.6L231.9,172.6z
				 M235.7,133.9L235.7,133.9c1.1,0.6,2.3,1,3.5,1c1.4,0,2.8-0.4,3.9-1.2c0.1,5,0.7,10.8,1.6,15.7c-1.7,0-3.1,0.2-4.8,0.8
				c-0.5,0.2-1,0.4-1.4,0.7C237.1,145,236.1,138.9,235.7,133.9L235.7,133.9z M249.2,204.6L249.2,204.6l-0.1,0.2c-1,1.8-2.8,3-4.7,3
				c-1.5,0.1-2.3-0.1-3.6-0.7c-0.2-0.1-0.4-0.2-0.7-0.3c0,0-1.7-1-1.9-1.2c-0.3-0.2-1-0.8-1-0.8l-0.9-0.9c0,0-0.2-0.2-0.2-0.2
				c-2-1.7-5.5-5.7-7.3-8.3c0,0-6.3-9.7-6.3-9.7c-1.3-1.9-2.1-3.5-3.3-5.6c-5.7-10.7-9-23.8-9.8-37.9c-0.1-1.9-0.1-3.8-0.1-5.7
				c0-0.6,0-1.3,0-1.9c0.4,0.5,0.9,1,1.5,1.4c1.3,0.9,2.8,1.5,4.4,1.5c1.9,0,3.6-0.7,4.9-1.9c0.1,7.2,0.7,15.3,3.1,23.2l1.9,5.5
				c0,0,0.8,2.4,0.8,2.4c0,0,2,4.5,2,4.5l1.2,2.8c1.8,3.7,5.8,9.7,8.5,13c3.1,5.3,7.2,10.6,12.3,15.6
				C249.8,203.4,249.7,203.6,249.2,204.6z M257.2,205.1L257.2,205.1c-0.2-0.2-0.4-0.3-0.5-0.3c-2.3-2-4.5-4.1-6.5-6.3
				c3.6-0.4,6.4-3.4,6.4-7.2c0-0.3-0.1-0.7-0.1-1c0.1,0,0.1,0,0.2,0c3.8,0,6.8-3.1,7-6.9c0.5,0.1,1,0.1,1.5,0.1
				c3.9,0,7.1-3.3,7.1-7.3c0-2.4-1.1-4.6-3.1-6c-0.7-0.5-1.7-0.3-2.1,0.4c-0.5,0.7-0.3,1.7,0.4,2.2c1.1,0.8,1.8,2.1,1.8,3.5
				c0,2.3-1.8,4.2-4,4.2c-1.3,0-1.9-0.2-2.5-0.8c-0.5-0.6-1.4-0.6-2.1-0.1c-0.4,0.3-0.6,0.8-0.6,1.2c0,0.3,0.1,0.6,0.2,0.8
				c0,0,0.1,0.1,0.1,0.2c0.1,0.4,0.2,0.9,0.2,1.4c0,2.3-1.8,4.2-4,4.2c-0.9,0-1.4-0.2-2.1-0.8c-0.6-0.5-1.6-0.4-2.1,0.2
				c-0.5,0.6-0.5,1.6,0.1,2.2l0.5,0.5c0.3,0.5,0.4,1.2,0.4,1.9c0,2.3-1.8,4.2-4,4.2c-1,0-2-0.4-2.8-1.2c-0.1-0.1-0.3-0.3-0.5-0.3
				c-2.3-2.8-4.2-5.6-5.9-8.3c-0.1-0.2-0.1-0.4-0.3-0.5c0.3,0,0.6,0.1,1,0.1c3.1,0,5.5-1.6,6.6-4.1c0.6,0.2,1.2,0.3,1.8,0.3
				c3.7,0,6.7-2.9,7.2-6.5c4-0.1,7.3-3.4,7.3-7.6c0-0.2,0-0.5,0-0.7c0.4,0.2,0.8,0.3,1.3,0.4c0.1,0,0.3,0.1,0.4,0.1
				c1.1,0,2.2-0.3,3.2-0.7c0.9,1.4,2,2.6,3.6,3.9c2.9,2.5,4.5,3.1,6.5,3.9l2.1,0.9l3.1,1.6c1.2,0.7,2.3,1.2,3.6,1.7
				c0.7,1.2,1.3,2.9,1.3,3.5c0,2.7-2.1,4.9-4.7,4.9c-0.1,0-0.3,0-0.4,0c-1.1,0.3-3.7-0.4-4.4-0.9c0,0,0,0,0,0l-0.7-0.6
				c-0.4-0.9-1.1-1.8-2-2.4c-0.7-0.5-1.7-0.3-2.2,0.4c-0.5,0.7-0.3,1.7,0.4,2.2c0.2,0.2,0.4,0.4,0.6,0.6c0,0.4,0.2,0.8,0.5,1.1
				c0.1,0.2,0.1,0.5,0.1,0.8c0,1.7-1.3,3-2.9,3c-0.9,0-1.7-0.4-2.2-1.2c-0.4-0.6-1.1-0.8-1.8-0.5c-0.7,0.2-1.1,0.9-1,1.6l0,0.4
				c0,0.3,0.1,0.6,0.3,0.8c0.5,0.7,0.7,1.3,0.7,2c0,1.9-1.4,3.4-3.2,3.4c-0.4,0-0.8-0.1-1.2-0.3c-0.2-0.1-0.3-0.3-0.5-0.4
				c0,0,0,0,0,0c0,0-0.1,0-0.1-0.1c-0.3-0.3-0.7-0.6-1.1-0.8c-0.7-0.5-1.6-0.4-2.2,0.2c-0.5,0.7-0.4,1.6,0.2,2.2
				c0.3,0.2,0.6,0.5,0.9,0.7l0.1,0.1c0,0.1,0.1,0.1,0.2,0.2c0.7,0.8,1.1,1.7,1.1,2.7c0,2.3-1.8,4.1-3.9,4.1
				C258.8,206.1,257.9,205.8,257.2,205.1L257.2,205.1z M261.7,208.9L261.7,208.9c2.9-0.8,5-3.5,5.1-6.7c1.1,0.8,2.1,1.5,3.2,2.2
				c-0.8,0.9-1.2,2-1.2,3.2c0,0.8,0.2,1.5,0.5,2.1c-0.8,0.1-1.7,0.2-2.6,0.3c-0.9,0-1.8,0.3-2.6,0.7
				C263.3,210.2,262.5,209.5,261.7,208.9L261.7,208.9z M325,221L325,221c2.1,0,4.4,1.6,4.4,3.9c0,2.3-1.8,4.2-4,4.2c0,0-0.2,0-0.2,0
				c-0.2,0-0.3,0.1-0.4,0.2c-7.3,1.9-16.9,1.2-27.7-2c1.1-0.5,2.2-0.9,3.3-1.4c3.8-1.7,7.6-3.6,11.3-5.8c3.3,0.5,6.5,0.8,9.4,0.8
				C322.5,221.1,323.9,221.1,325,221L325,221z M316,217.6L316,217.6c1.4-0.9,2.8-1.8,4.1-2.7c0.1,0.3,0.2,0.6,0.2,0.8
				c0,0.9-0.4,1.7-1.1,2.2C318.2,217.8,317.1,217.7,316,217.6L316,217.6z M313.3,215.7L313.3,215.7c-7.3,4.5-14.8,8.1-22,10.6
				c-12.1,4.2-23.4,5.5-31.7,3.3c-0.2-0.1-0.3-0.2-0.4-0.2c0,0-0.1,0-0.2,0c-2.2,0-4-1.9-4-4.2c0-2.4,2.3-3.9,4.5-3.9
				c1.5,0.1,3.2,0.1,4.9,0c13.1-0.5,32.1-5.4,47.2-14.8l1.4-0.9l4.5-2.9c0.2,3.1,2.3,5.7,5.1,6.5
				C319.8,211.4,316.6,213.6,313.3,215.7L313.3,215.7z M331.4,187.1L331.4,187.1c-0.6-0.5-1.4-0.5-2,0c-0.5,0.4-0.5,0.4-1.5,0.4
				c-2.2,0-4-1.9-4-4.2c0-0.5,0.1-1,0.3-1.5c0-0.1,0.1-0.3,0.1-0.4l0-0.3c0.1-0.6-0.3-1.3-0.9-1.5c-0.6-0.3-1.3-0.1-1.8,0.3
				c-0.6,0.6-0.9,0.7-2.3,0.7c-2.2,0-4-1.9-4-4.2c0-1.4,0.7-2.7,1.8-3.5c0.7-0.5,0.9-1.5,0.4-2.2c-0.5-0.7-1.4-0.9-2.1-0.4
				c-1.9,1.4-3.1,3.6-3.1,6c0,4,3.2,7.3,7.1,7.3c0.5,0,1,0,1.5-0.1c0.2,3.8,3.2,6.9,7,6.9c0.1,0,0.1,0,0.1,0c0,0.4-0.1,0.7-0.1,1
				c0,3.8,2.8,6.8,6.4,7.2c-0.5,0.5-1,1-1.5,1.5c-0.3,0.2-0.5,0.4-0.7,0.7c-1.4,1.4-2.8,2.7-4.3,4c-0.2,0.1-0.4,0.2-0.5,0.3
				c-0.7,0.7-1.6,1-2.6,1c-2.2,0-3.9-1.8-3.9-4.1c0-0.8,0.7-2.1,1.1-2.6c0.4-0.6,0.4-1.3,0-1.9c-0.4-0.5-1.2-0.7-1.8-0.4l-0.5,0.2
				c-0.1,0-0.2,0.1-0.2,0.1c-0.2,0.1-0.2,0.1-0.6,0.1l-0.6,0c-1.8,0-3.2-1.5-3.2-3.4c0-0.8,0.2-1.4,0.8-2c0.2-0.2,0.3-0.5,0.3-0.8
				l0-0.4c0.1-0.7-0.3-1.3-1-1.6c-0.7-0.2-1.4,0-1.8,0.5c-0.6,0.7-1.4,1.2-2.3,1.2c-1.6,0-2.8-1.3-2.8-3c0-0.3,0-0.5,0.1-0.8
				c0.3-0.3,0.5-0.7,0.5-1.1c0.2-0.2,0.4-0.5,0.6-0.6c0.7-0.5,0.9-1.5,0.4-2.1c-0.5-0.7-1.5-0.9-2.1-0.4c-0.9,0.6-1.5,1.5-2,2.4
				l-0.3,0.3c0,0,0,0,0,0c-0.7,0.5-1.6,0.7-2.5,0.7c-2.6,0-4.7-2.2-4.7-4.9c0-0.7,0.6-2.1,1.1-3.1c2-0.7,3.6-1.9,5.4-3.1l2.3-1.5
				c2-1.3,3.1-2.1,4.8-3.6c1.4-1.3,2.6-2.4,3.6-3.7c0.9,0.6,1.8,0.7,2.9,0.6l0.6,0c0.1,0,0.3,0,0.4-0.1c0.5-0.1,0.9-0.3,1.4-0.5
				c-0.1,0.3-0.1,0.5-0.1,0.8c0,4.2,3.3,7.6,7.4,7.6h0c0.7,3.5,3.5,6.2,7.1,6.2c0.5,0,0.9-0.2,1.4-0.3c1,2.6,3.4,4.3,6.9,4.3
				c0.3,0,0.7,0,1-0.1c-1.7,2.9-3.8,5.9-6.2,8.9c-0.2,0.1-0.3,0.2-0.5,0.3c-0.8,0.8-1.7,1.2-2.8,1.2c-2.2,0-4-1.9-4-4.2
				c0-0.6,0.2-1.5,0.3-1.9c0.1-0.2,0.4-0.6,0.4-0.6c0.2-0.3,0.3-0.5,0.3-0.8C331.9,187.8,331.7,187.4,331.4,187.1L331.4,187.1z
				 M350.4,156.7L350.4,156.7c-0.4-0.8-0.9-1.7-1.5-2.6c0-0.1,0.1-0.1,0.1-0.2c1.7-6.2,2.9-12.4,3.4-18.4c1.4,1.2,3.2,1.9,5.3,1.9
				c1.8,0,3.3-0.8,4.5-2c-0.3,8.3-1.4,15.8-3.3,22.2c-0.8,2.6-2,6.4-3.3,10.1v0c-1.1,3.1-2.2,5.5-3.1,7c-0.2,0.4-0.5,0.8-0.8,1.3
				C353.8,168.8,353.5,162.1,350.4,156.7L350.4,156.7z M346.5,151.5L346.5,151.5c-0.6-0.4-1.3-0.8-2.1-1.1c-1.4-0.6-2.6-0.8-4.1-0.8
				c1-5.3,1.6-10.9,1.7-16.1c1.1,0.7,2.4,1.1,3.8,1.1c1.3,0,2.5-0.4,3.6-1C349.1,139.3,348.1,145.4,346.5,151.5z M343.3,153.2
				L343.3,153.2c2.2,0.8,3.3,2.8,4.4,4.9c3.6,6.1,3,14.1-0.9,22.6c-0.1,0.1-0.1,0.1-0.2,0.1c-0.8,0.9-2,1.5-3.2,1.5
				c-1.4,0-3.9-0.4-4.3-2.9c0-0.1,0-0.1,0-0.1c0-0.5-0.3-1-0.7-1.3c-0.4-0.3-1-0.3-1.4-0.2l-0.4,0.1c-0.5,0.2-1,0.3-1.5,0.3
				c-2.2,0-4-1.8-4.2-4c0.1-0.2,0.2-0.5,0.2-0.7c0-0.3-0.1-0.6-0.3-0.9c-0.3-0.5-1-0.8-1.6-0.7l-1.2,0.2c-2.4,0-4.3-2-4.3-4.5
				c0-0.6,0.8-3.2,1.1-4c0,0,0,0,0,0c0.3-0.4,0.6-0.9,0.9-1.4l1.4-1.9c1.7-2.8,5.4-7.3,11.1-7.7c0,0,0,0,0.1,0
				c0.3,0.1,0.5,0,0.8-0.1C340.7,152.6,341.9,152.6,343.3,153.2L343.3,153.2z M375.7,136.2L375.7,136.2c0,1.9,0,3.8-0.1,5.7
				c-0.8,14.9-4.1,28.1-10,39.2c-1.1,2.1-2.3,4.1-3.6,6c0,0-6.3,9.8-6.3,9.8c-1.7,2.6-5.3,6.6-7.3,8.3c0,0-0.2,0.3-0.3,0.3l-0.8,0.7
				c0,0-0.8,0.7-1.1,0.9c-0.1,0.1-2,1.2-2,1.2c-1,0.5-1.6,0.8-2.4,0.9c-0.5,0-0.9,0-1.6-0.1c-0.1,0-0.2,0-0.2,0
				c-1.9,0-3.7-1.1-4.6-2.8c-0.1-0.3-0.2-0.7-0.2-0.7c-0.2-0.8-0.4-1.5-0.4-2.3c0-0.3,0-0.6,0.1-0.9c3.6-3.7,6.8-7.6,9.4-11.4
				c0.2-0.1,0.3-0.2,0.5-0.4c3.5-4.2,8.1-10.5,10.3-14.4c1-1.7,2.1-4.2,3.3-7.5c1.4-3.8,2.6-7.7,3.4-10.3c2-6.7,3.1-14.4,3.4-22.9
				c1.3,1,2.9,1.7,4.6,1.7c1.6,0,3.1-0.5,4.4-1.4c0.5-0.4,1-0.8,1.5-1.2C375.7,135.1,375.7,135.7,375.7,136.2L375.7,136.2z
				 M375.4,128L375.4,128C375.4,128,375.4,128,375.4,128c0,1.4-0.6,2.8-1.5,3.9c-1.1,1.3-2.5,2.2-4.1,2.2c-2.3,0-4.2-1.8-4.8-4.3
				c-0.1-0.7-0.8-1.2-1.4-1.2c-0.7,0-1.4,0.4-1.5,1.1c-0.6,2.2-2.3,4.5-4.4,4.5c-2.9,0-5-2-5-4.7c0-0.7-0.5-1.4-1.2-1.5
				c-0.7-0.2-1.4,0.2-1.7,0.9c-0.7,1.6-2.2,2.6-3.9,2.6c-1.7,0-3.3-1.1-3.9-2.7c0-0.1,0-0.2-0.1-0.3c-0.1-0.2-0.1-0.4-0.2-0.6
				c-0.2-0.8-1-1.4-1.8-1.2c-0.8,0.2-1.4,1-1.2,1.8c0.1,0.4,0.2,0.7,0.3,1c0.2,6.2-0.4,13.5-1.7,20.1c-5,0.6-9.5,3.7-12.7,9
				c0.1-0.1-1.3,1.8-1.3,1.8c0,0.1-0.1,0.1-0.1,0.2c-1.4,2.5-2.5,3.2-4.5,3.7c-0.2,0-0.4,0-0.4,0c-0.5,0-0.8,0-1-0.1
				c0.2-0.4,0.5-0.7,0.7-1.1c3.2-5.3,4.4-11.1,5-15.8c0.3,0,0.6-0.1,0.8-0.2c1,1,2.1,1.2,2.8,1.2c1.1,0,2.2-0.4,3.1-1.3
				c0.7-0.7,0.9-1.6,1.1-2.4c0.9-0.3,1.8-0.6,2.6-1.3c1.2-1,1.7-2.3,1.7-3.8c0-0.1,0-0.3,0-0.4l-0.5-1.7l-0.3-1
				c-0.2-0.5-0.4-1.2-0.9-1.4c-0.5-0.1-0.9-0.3-1.3,0.1l-1,1.1c-0.1,0.2-0.3,0.4-0.5,0.7c-0.2-0.2-0.3-0.4-0.3-0.6
				c0-0.3,0.3-0.7,0.8-1.5c0.7-1.1,1.7-2.7,1.9-4.8l0.2-1.7l0.1-0.9c1-0.1,1.9-0.5,2.5-1.2c0.5-0.5,1.1-1.4,1.3-2.8
				c1.6,1.7,3.8,2.8,6.2,2.8c3.3,0,6.1-1.9,7.5-4.7c1.6,1.5,3.8,2.5,6.3,2.5c3.2,0,6-2,7.4-5c0.8,0.4,1.7,0.7,2.7,0.7
				c1.4,0,3-0.4,4.3-1.2c0.9-0.5,1.8-1.2,2.5-2.1C374.6,120.1,375.1,124,375.4,128L375.4,128z M367.2,98.6L367.2,98.6
				c0,1.6-0.7,3.1-1.8,4.1c-1,0.9-2.2,1.5-3.6,1.5c-0.9,0-1.9-0.6-2.7-1.1c-0.5-0.3-1-0.3-1.5,0c-0.5,0.2-0.8,0.7-0.8,1.2
				c-0.3,2.8-2,4.5-4.4,4.5c-1.7,0-3.3-0.9-4.2-2.4c-0.4-0.6-1.1-0.8-1.7-0.7c-0.7,0.2-1.1,0.8-1.1,1.5c0,3.1-2.2,5.5-4.8,5.5
				c-1.7,0-3.2-0.9-4.2-2.3c-0.5-0.7-1.4-0.9-2.1-0.5c-0.7,0.5-0.9,1.4-0.5,2.1c1.5,2.4,4.1,3.8,6.8,3.8c3.3,0,6.2-2.3,7.3-5.5
				c1.3,0.9,2.9,1.5,4.6,1.5c3.3,0,5.8-2,6.9-5.2c0.7,0.3,1.6,0.6,2.5,0.6c1.9,0,3.6-0.6,5-1.7c1.2-0.9,2.2-2.1,2.8-3.5
				c1.2,2.9,2.3,6,3.1,9.3c0,0,0,0,0,0.1c-0.2,1.6-1.1,3-2.2,3.8c-1,0.8-2.3,1.2-3.4,1.2c-0.9,0-1.6-0.4-2.6-1
				c-0.4-0.3-0.9-0.3-1.4-0.2c-0.5,0.2-0.8,0.6-0.9,1.1c-0.6,2.6-2.8,4.5-5.2,4.5c-2.5,0-4.5-1.3-5.2-3.3c-0.3-0.8-1.2-1.2-2-1
				c-0.2,0.1-0.4,0.2-0.5,0.3c-0.4,0.3-0.7,0.6-0.7,1.1c-0.3,2.9-2.6,5.1-5.4,5.1c-1.9,0-3.7-1.1-4.7-2.8c-0.4-0.8-1.3-1-2.1-0.6
				c-0.2,0.1-0.3,0.2-0.4,0.3l0,0c-0.3-0.4-0.9-0.7-1.4-0.7c-0.5,0-1,0.3-1.3,0.7c-0.2,0.3-0.4,0.5-0.5,0.6
				c-0.6-0.1-0.8-0.2-0.8-0.3c-0.1-0.2-0.4-0.7-0.4-1.9c0-0.5,0-1.1,0.1-1.8c0.1-0.3,0.1-0.6,0.1-1c0-0.7-0.1-1.3-0.3-2
				c0.5-1,0.8-2.1,0.7-3.1c-0.1-0.9-0.8-2.2-1-2.5c-0.1-0.1-0.2-0.3-0.3-0.4c1.4-1.6,2.8-3.3,3.5-4.5c1.9-3.3,2.1-4.8,2.4-7.3
				l0.1-0.9c0.2-0.9,0.5-1.8,0.9-2.9c2.5-6.3,8.2-10,13.7-8.9c0.1,0,0.5,0.1,0.8,0.1c0.1,0,0.1,0,0.2,0c5.7,1.7,10.8,6.5,14.7,13.6
				L367.2,98.6L367.2,98.6z"/>
			<path class="st0" d="M302.3,127.9l0.8-0.4l1.3-0.7c1.7-0.7,2.8-0.7,4.7-0.7c0.9,0,1.5,0.2,2.3,0.5l1.4,0.4
				c0.3,0.1,0.6-0.1,0.7-0.4c0.1-0.3-0.1-0.6-0.4-0.7l-1.3-0.4c-0.8-0.3-1.5-0.5-2.6-0.6c-2-0.1-3.3-0.1-5.2,0.8l-1.4,0.7l-0.8,0.4
				c-0.3,0.2-0.4,0.5-0.2,0.8C301.7,127.9,302,128,302.3,127.9z"/>
		</g>
		<path class="st0" d="M178.5,359.5l-0.4,10c-0.1,0.6-0.3,0.9-0.7,0.9c-0.5,0-0.9-0.6-1.2-1.9c-0.6-1.7-1.1-2.9-1.6-3.6
			c-1-1.3-2.4-1.9-4.2-1.9h-6.9c-1.2,0-1.7,0.6-1.7,1.8v34.4c0,2.4,1.2,3.5,3.7,3.5c1.7,0,2.5,0.3,2.5,0.9c0,0.6-0.4,0.9-1.3,0.9
			c-1,0-2.4-0.1-3.9-0.1c-1.7-0.1-2.9-0.1-3.7-0.1c-0.8,0-2,0.1-3.7,0.1c-1.7,0.1-3,0.1-3.8,0.1c-0.9,0-1.4-0.3-1.4-0.9
			c0-0.6,0.8-0.9,2.5-0.9c1.4,0,2.4-0.3,2.9-0.8c0.6-0.5,0.8-1.4,0.8-2.7v-33.9c-0.1-0.6-0.1-1.1-0.2-1.7c-0.2-0.4-0.8-0.6-1.7-0.6
			h-2.6c-3.1,0-5.6,0.7-7.5,2c-1.2,0.8-2.2,2.1-3.1,3.8c-0.8,1.3-1.4,2-1.8,2c-0.2,0-0.3-0.1-0.5-0.3c-0.1-0.2-0.2-0.5-0.1-0.7
			l3-10.4c0.2-0.7,0.5-1,0.9-1c0.3,0,0.6,0.5,0.8,1.4c0.1,0.9,0.9,1.4,2.3,1.4h28.3c1.3,0,2.2-0.5,2.7-1.4c0.4-0.9,0.7-1.4,0.9-1.4
			C178.3,358.4,178.6,358.8,178.5,359.5L178.5,359.5z"/>
		<path id="_1" class="st0" d="M216.2,403.8c0,0.5-0.4,0.7-1.2,0.7c-0.9,0-2.2-0.1-3.8-0.1c-1.6-0.1-2.8-0.1-3.5-0.1
			c-0.7,0-1.9,0.1-3.5,0.1c-1.7,0.1-2.9,0.1-3.6,0.1c-0.9,0-1.3-0.2-1.3-0.7c0-0.6,0.7-0.9,2.3-0.9c2.3,0,3.5-0.6,3.5-1.6
			c0-0.7-0.2-1.7-0.8-3l-2.9-7c-0.3-0.7-0.9-1.1-1.8-1.1h-9.7c-1.3,0-2,0.3-2.3,0.9l-2.7,6.8c-0.4,1.2-0.7,2.1-0.7,2.9
			c0,1.4,1.4,2.1,4,2.1c1.2,0,1.7,0.2,1.7,0.8c0,0.6-0.4,0.8-1.2,0.8c-0.7,0-1.5-0.1-2.6-0.1c-1.1-0.1-2-0.1-2.8-0.1
			c-0.7,0-1.8,0.1-3.2,0.2c-1.4,0.1-2.5,0.1-3.1,0.1c-0.8,0-1.2-0.2-1.2-0.7c0-0.6,0.6-0.9,1.9-0.9c1.3,0,2.2-0.3,2.9-0.9
			c0.5-0.5,1-1.4,1.5-2.7l12.9-33.5c0.3-0.7,0.6-1.1,0.9-1.1c0.3,0,0.5,0.2,0.7,0.5c0.2,0.6,0.4,1.1,0.6,1.6l12.2,30.2
			c0.8,2,1.4,3.3,1.8,3.8c0.9,1.4,1.9,2.1,3.2,2.1C215.6,402.9,216.2,403.2,216.2,403.8L216.2,403.8z M199.7,387.3l-5-12.5
			c-0.2-0.4-0.4-0.7-0.6-0.7c-0.2,0-0.5,0.3-0.7,0.9l-4.7,12.5c-0.2,0.6,0,0.9,0.7,0.9h9.4C199.7,388.3,200,388,199.7,387.3z"/>
		<path id="_2" class="st0" d="M243.2,393.1c0,3.3-1.4,6.1-4,8.4c-2.7,2.3-6,3.5-9.9,3.5c-3.2,0-6.3-0.7-9.1-2
			c-0.8-0.4-1.2-1.1-1.4-2c-0.1-0.5-0.1-1.7,0-3.6c0.1-1.9,0.1-3,0.1-3c0.1-0.8,0.4-1.2,0.9-1.2c0.3,0,0.7,0.9,1.1,2.8
			c0.4,2.3,1.1,4,2,5.1c1.5,1.9,3.8,2.8,7,2.8c2.5,0,4.7-0.8,6.5-2.4c1.8-1.6,2.7-3.5,2.7-5.8c0-1.7-0.6-3.2-1.6-4.8
			c-1.1-1.5-2.5-2.7-4.3-3.5l-7.6-3.5c-4.2-1.9-6.2-4.8-6.2-8.7c0-3,1.2-5.5,3.5-7.5c2.3-1.9,5.2-2.9,8.7-2.9c2.2,0,4.8,0.4,8,1.2
			c0.6,0.2,0.9,0.6,1.1,1.2c0.1,0.7,0.2,2.7,0.4,6c0.1,0.5-0.2,0.7-0.7,0.7c-0.4,0-0.8-0.7-1.3-2c-0.6-1.8-1.2-3.1-2-3.9
			c-1.3-1.4-3.1-2-5.5-2c-2.4,0-4.4,0.6-6,1.7c-1.5,1.1-2.3,2.7-2.3,4.7c0,3,2,5.5,6.1,7.4l6.4,2.9c2.3,1.1,4.1,2.5,5.4,4.3
			C242.5,388.8,243.2,390.8,243.2,393.1L243.2,393.1z"/>
		<path id="_3" class="st0" d="M290,403.7c0,0.6-0.4,0.8-1.2,0.8c-0.9,0-2.1-0.1-3.5-0.1c-1.5-0.1-2.6-0.1-3.3-0.1
			c-0.7,0-1.8,0.1-3.3,0.1c-1.5,0.1-2.7,0.1-3.4,0.1c-0.8,0-1.2-0.2-1.2-0.8c0-0.6,0.7-0.8,2.2-0.8c1.2,0,2.1-0.2,2.6-0.7
			c0.5-0.4,0.7-1.2,0.7-2.4v-13.8c0-1-0.4-1.5-1.4-1.5h-18.8c-1.1,0-1.5,0.5-1.5,1.5v13.8c0,2.1,1.1,3.2,3.3,3.2
			c1.5,0,2.2,0.2,2.2,0.8c0,0.6-0.4,0.8-1.2,0.8c-0.9,0-2.1-0.1-3.5-0.1c-1.5-0.1-2.6-0.1-3.3-0.1c-0.7,0-1.8,0.1-3.3,0.1
			c-1.5,0.1-2.7,0.1-3.4,0.1c-0.8,0-1.2-0.2-1.2-0.8c0-0.6,0.7-0.8,2.2-0.8c1.2,0,2.1-0.2,2.6-0.7c0.5-0.4,0.7-1.2,0.7-2.4v-29.3
			c0-1.2-0.2-2-0.7-2.5c-0.5-0.4-1.4-0.7-2.6-0.7c-1.5,0-2.2-0.2-2.2-0.8c0-0.6,0.4-0.8,1.2-0.8c0.7,0,1.9,0.1,3.4,0.1
			c1.5,0.1,2.7,0.1,3.3,0.1c0.7,0,1.9-0.1,3.3-0.1c1.4-0.1,2.6-0.1,3.5-0.1c0.8,0,1.2,0.2,1.2,0.8c0,0.6-0.7,0.8-2.2,0.8
			c-2.2,0-3.3,1.1-3.3,3.2v11.2c0,0.7,0.5,1.1,1.4,1.1h18.9c0.9,0,1.4-0.4,1.4-1.4v-10.9c0-1.2-0.2-2-0.7-2.5
			c-0.5-0.4-1.4-0.7-2.6-0.7c-1.5,0-2.2-0.2-2.2-0.8c0-0.6,0.4-0.8,1.2-0.8c0.7,0,1.9,0.1,3.4,0.1c1.5,0.1,2.7,0.1,3.3,0.1
			c0.7,0,1.9-0.1,3.3-0.1c1.4-0.1,2.6-0.1,3.5-0.1c0.8,0,1.2,0.2,1.2,0.8c0,0.6-0.7,0.8-2.2,0.8c-2.2,0-3.3,1.1-3.3,3.2v29.3
			c0,2.1,1.1,3.2,3.3,3.2C289.2,402.9,290,403.2,290,403.7z"/>
		<path id="_4" class="st0" d="M332.8,403.8c0,0.4-0.2,0.6-0.5,0.6c-0.1,0.1-0.6,0.1-1.5,0.1c-1.1,0-2.4-0.1-3.7-0.1
			c-1.4-0.1-2.5-0.1-3.2-0.1c-0.7,0-1.6,0.1-2.9,0.1c-1.3,0.1-2.4,0.1-3.5,0.1s-1.6-0.2-1.6-0.6c0-0.6,0.7-0.9,2.2-0.9
			c1.8,0,2.7-0.5,2.7-1.5c0-0.4-0.5-1.2-1.4-2.4l-11-14.1c-0.3-0.4-0.6-0.6-0.9-0.6c-0.2,0-0.5,0.1-0.8,0.4l-2.1,2
			c-0.6,0.5-0.8,1.2-0.8,2.3v10.7c0,2.1,1.1,3.2,3.3,3.2c1.5,0,2.2,0.2,2.2,0.8c0,0.6-0.4,0.8-1.2,0.8c-0.9,0-2.1-0.1-3.5-0.1
			c-1.5-0.1-2.6-0.1-3.3-0.1c-0.7,0-1.8,0.1-3.3,0.1c-1.5,0.1-2.7,0.1-3.4,0.1c-0.8,0-1.2-0.2-1.2-0.8c0-0.6,0.7-0.8,2.2-0.8
			c1.2,0,2.1-0.2,2.6-0.7c0.5-0.4,0.7-1.2,0.7-2.4v-29.3c0-1.2-0.2-2-0.7-2.5c-0.5-0.4-1.4-0.7-2.6-0.7c-1.5,0-2.2-0.2-2.2-0.8
			c0-0.6,0.4-0.8,1.2-0.8c0.7,0,1.9,0.1,3.4,0.1c1.5,0.1,2.7,0.1,3.3,0.1c0.7,0,1.9-0.1,3.3-0.1c1.4-0.1,2.6-0.1,3.5-0.1
			c0.8,0,1.2,0.2,1.2,0.8c0,0.6-0.7,0.8-2.2,0.8c-2.2,0-3.3,1.1-3.3,3.2v13.8c0,0.9,0.3,1,0.9,0.4l13.5-13.5
			c0.9-0.9,1.4-1.8,1.4-2.5c0-0.9-0.7-1.4-2-1.4c-1.2,0-1.7-0.2-1.7-0.8c0-0.6,0.6-0.8,1.7-0.8c0.7,0,1.7,0.1,3,0.1
			c1.3,0.1,2.4,0.1,3.3,0.1c0.9,0,1.9-0.1,3-0.1c1.1-0.1,2-0.1,2.7-0.1c0.9,0,1.4,0.2,1.4,0.8c0,0.6-0.7,0.8-2,0.8
			c-2,0-3.9,0.5-5.5,1.4c-1,0.6-2.2,1.6-3.7,3l-7.9,7.9c-0.4,0.4-0.6,0.7-0.6,0.9c0,0.3,0.2,0.8,0.8,1.5l14.4,18.1
			c1.5,1.9,3.2,2.8,5.1,2.8C332.4,402.9,332.8,403.2,332.8,403.8L332.8,403.8z"/>
		<path id="_5" class="st0" d="M365.1,395.8c0.1,0.1-0.3,2.7-1.1,7.9c-0.1,0.6-0.3,0.9-0.7,0.9c-2.7,0-5.9-0.1-9.8-0.1
			c-3.9-0.1-7.5-0.2-10.8-0.2c-0.5,0-1.8,0.1-3.8,0.1c-2,0.1-3.2,0.1-3.4,0.1c-0.8,0-1.2-0.2-1.2-0.8c0-0.6,0.7-0.8,2.2-0.8
			c1.2,0,2.1-0.2,2.6-0.7c0.5-0.4,0.7-1.2,0.7-2.4v-29.3c0-1.2-0.2-2-0.7-2.5c-0.5-0.4-1.4-0.7-2.6-0.7c-1.5,0-2.2-0.2-2.2-0.8
			c0-0.6,0.4-0.8,1.2-0.8c5,0.2,9,0.2,11.8,0.2c1.9,0,4.3-0.1,7.2-0.1c2.9-0.1,5.3-0.1,7.1-0.1c0.9,0,1.4,0.1,1.6,0.2
			c0.2,0.2,0.3,0.6,0.3,1.3v6.6c0,0.6-0.2,0.8-0.6,0.8c-0.3,0-0.6-0.3-0.9-1c-0.3-0.6-0.6-1.2-0.9-1.8c-0.9-1.9-2-3.1-3.3-3.7
			c-1.3-0.6-3.4-0.8-6.4-0.8c-2.6,0-4.2,0.1-4.8,0.2c-1.3,0.2-1.9,0.9-1.9,1.8v10.6c0,1.7,0.7,2.5,2.1,2.5l7.4-0.1
			c1.5,0,2.4-0.8,2.9-2.4c0.1-0.7,0.2-1.5,0.4-2.2c0.1-0.7,0.4-1,0.9-1c0.4,0,0.6,0.3,0.6,0.9c0,0.8-0.1,1.6-0.1,2.5
			c-0.1,0.9-0.2,1.7-0.2,2.5c0,0.7,0.1,1.8,0.2,3.2c0.1,1.4,0.1,2.4,0.1,3.1c0,0.8-0.2,1.2-0.6,1.2c-0.4,0-0.8-0.4-1-1.3
			c-0.1-0.7-0.2-1.3-0.4-2c-0.6-1.9-3.2-2.9-7.7-2.9c-2.1,0-3.4,0.1-3.9,0.2c-0.5,0.2-0.7,0.6-0.7,1.4v11.5c0,2,0.4,3.5,1.2,4.3
			c0.8,0.8,2.1,1.2,4,1.2h4.8c2.7,0,4.7-0.7,6.1-2c0.9-0.8,1.6-2,2.3-3.7c0.5-1.3,1-2,1.4-2C365.1,395.2,365.2,395.4,365.1,395.8
			L365.1,395.8z"/>
		<path id="_6" class="st0" d="M410,366.3c0,0.6-0.7,0.9-2.2,0.9c-2.3,0-3.4,0.9-3.4,2.9v34.5c0,0.4-0.2,0.6-0.5,0.6
			c-0.2,0-0.6-0.3-1.1-0.9L377,370.8c-0.1-0.1-0.1-0.1-0.1-0.2l0,0c-0.4-0.5-0.6-0.4-0.6,0.2v29.3c0,1.9,1.1,2.9,3.2,2.9
			c1,0,1.7,0.1,2,0.1c0.3,0.1,0.4,0.4,0.4,0.8c0,0.4-0.5,0.7-1.5,0.7c-0.7,0-1.4-0.1-2.2-0.1c-0.9-0.1-1.7-0.1-2.6-0.1
			c-0.7,0-1.7,0.1-2.9,0.1c-1.2,0.1-2.1,0.1-2.7,0.1c-0.7,0-1.1-0.2-1.1-0.7c0-0.6,0.7-0.9,2.2-0.9c2.3,0,3.4-0.9,3.4-2.9v-30.1
			c0-1.7-1.1-2.6-3.3-2.6c-1.4,0-2.2-0.3-2.2-0.9c0-0.6,0.4-0.8,1.4-0.8h7.7c0.4,0,1,0.3,1.7,1l22.1,28.6c0.3,0.4,0.5,0.6,0.6,0.6
			c0.1,0,0.1-0.2,0.1-0.6v-25.2c0-1.9-1.1-2.9-3.2-2.9c-1,0-1.6-0.1-1.9-0.1c-0.4-0.1-0.6-0.4-0.6-0.8c0-0.4,0.5-0.7,1.5-0.7
			c0.7,0,1.4,0.1,2.3,0.1c0.8,0.1,1.7,0.1,2.5,0.1c0.7,0,1.7-0.1,2.9-0.1c1.2-0.1,2.1-0.1,2.7-0.1C409.6,365.6,410,365.9,410,366.3
			L410,366.3z"/>
		<path id="_7" class="st0" d="M446.2,364.2l-0.4,9c-0.1,0.6-0.2,0.8-0.6,0.8c-0.4,0-0.8-0.6-1.1-1.7c-0.5-1.5-1-2.6-1.4-3.2
			c-0.9-1.2-2.1-1.7-3.7-1.7h-6.2c-1.1,0-1.5,0.6-1.5,1.6v30.8c0,2.1,1.1,3.2,3.3,3.2c1.5,0,2.2,0.2,2.2,0.8c0,0.6-0.4,0.8-1.2,0.8
			c-0.9,0-2.1-0.1-3.5-0.1c-1.5-0.1-2.6-0.1-3.3-0.1c-0.7,0-1.8,0.1-3.3,0.1c-1.5,0.1-2.7,0.1-3.4,0.1c-0.8,0-1.2-0.2-1.2-0.8
			c0-0.6,0.7-0.8,2.2-0.8c1.2,0,2.1-0.2,2.6-0.7c0.5-0.4,0.7-1.2,0.7-2.4v-30.4c-0.1-0.5-0.1-1-0.2-1.5c-0.2-0.4-0.7-0.6-1.5-0.6
			h-2.3c-2.8,0-5,0.6-6.7,1.8c-1.1,0.7-2,1.9-2.8,3.4c-0.7,1.2-1.2,1.8-1.6,1.8c-0.2,0-0.3-0.1-0.4-0.3c-0.1-0.2-0.2-0.4-0.1-0.6
			l2.7-9.3c0.2-0.6,0.4-0.9,0.8-0.9c0.3,0,0.5,0.4,0.7,1.2c0.1,0.8,0.8,1.2,2,1.2h25.4c1.2,0,2-0.4,2.4-1.2c0.4-0.8,0.6-1.2,0.8-1.2
			C446,363.2,446.3,363.5,446.2,364.2L446.2,364.2z"/>
	</g>
</g>
</svg>
