<svg xmlns="http://www.w3.org/2000/svg" viewBox="-0.000303526729112491 -0.00167620659340173 240.03042602539062 70.39744567871094" preserveAspectRatio="xMidYMid meet" role="img"><defs><style>.cls-1{fill:#fed139;}.cls-2{fill:#313131;}</style></defs><g id="eb7b4236-c526-4a4b-b350-c59421e76db5" data-name="Layer 2"><g id="6f5540af-33e5-4ac1-82c3-59f4d74d459b" data-name="Layer 1"><path class="cls-1" d="M26.84,25.76a1.83,1.83,0,0,0,.44-1.19,1.86,1.86,0,1,0-.44,1.2Z"></path><path class="cls-1" d="M25.53,44.64A1.87,1.87,0,1,0,27,44a1.85,1.85,0,0,0-1.43.66Z"></path><path class="cls-1" d="M51.26,29.14H34.9L30,42.45a4.57,4.57,0,0,1-2.89,7.95H27a4.57,4.57,0,0,1-.2-9.14L41.26,1.5A1.11,1.11,0,0,0,39.43.33l-39.1,39a1.11,1.11,0,0,0,.79,1.9H17.48L22.33,28A4.57,4.57,0,0,1,25.22,20h.2a4.58,4.58,0,0,1,.19,9.15L11.11,68.91a1.11,1.11,0,0,0,1.83,1.16l39.1-39a1.11,1.11,0,0,0-.79-1.9Z"></path><path class="cls-2" d="M75.14,34.1c0,3.77,1.13,4.48,7.32,4.48,3.7,0,5.32-.31,6.18-1.08s.91-1.48.91-4.44c0-4.35-1-5-7.23-5s-7.18.67-7.18,5.29Zm14.32,6.1a5.59,5.59,0,0,1-3.34,3.32c-1.36.58-2.89.76-6.37.76-5.87,0-8.76-.68-10.57-2.47-1.45-1.44-1.9-3.46-1.9-8.21s.5-7.13,2-8.61c1.9-1.93,5-2.65,11.34-2.65,4.11,0,6.27.49,7.54,1.66.67.63.9,1,1.67,3.5V26.38c-.09-2.2,1.13-3.55,3.25-3.55H94a3.09,3.09,0,0,1,3.25,3.64V49.25a3.09,3.09,0,0,1-3.3,3.64H92.75a3.07,3.07,0,0,1-3.3-3.64V40.19Z"></path><path class="cls-2" d="M110.56,40.42c0,2.15-1.26,3.41-3.52,3.37H105.1c-2.26.09-3.57-1.17-3.53-3.37V38.81c0-2.2,1.27-3.46,3.53-3.37H107c2.26-.09,3.57,1.16,3.52,3.37Z"></path><path class="cls-2" d="M128.68,25.76a3.57,3.57,0,0,1,3.93-2.92h1.76c2.08,0,3.25.85,3.93,2.92L143,38.45l4.11-12.61a3.51,3.51,0,0,1,4-3h1.68A2.37,2.37,0,0,1,155.32,25a4.33,4.33,0,0,1-.36,1.44l-5.37,14.44a3.68,3.68,0,0,1-4.24,2.92h-4.52c-2.3.13-3.57-.76-4.16-3l-3.2-9.51-3.3,9.51a3.58,3.58,0,0,1-4.15,3h-4.38a3.69,3.69,0,0,1-4.25-2.92l-5.32-14.44a4.91,4.91,0,0,1-.32-1.44,2.38,2.38,0,0,1,2.62-2.15H116a3.51,3.51,0,0,1,4,3l3.93,12.61,4.79-12.69Z"></path><path class="cls-2" d="M164.66,37.1c0,1.26.76,2,2.39,2.25a33.85,33.85,0,0,0,4.34.13,16.9,16.9,0,0,0,4.78-.36,2.07,2.07,0,0,0,1.49-2c0-1.93-1.17-2.33-6.91-2.33C165.92,34.77,164.66,35.26,164.66,37.1Zm13.09,3c-1,3.41-2.89,4.22-9.84,4.22-8.85,0-10.93-1.3-10.93-6.77,0-4,1.4-6,4.7-6.6a46.8,46.8,0,0,1,8.22-.45c5.23,0,6.82.54,7.63,2.65V30.78c0-3.14-.72-3.59-6-3.59-1.85,0-3.07,0-3.57,0a17.51,17.51,0,0,0-3.93,1.4,3.15,3.15,0,0,1-1.58.26h-.68a2.64,2.64,0,0,1-2.66-2.55,2.83,2.83,0,0,1,1.9-2.6c2-1.08,4.47-1.4,11.42-1.4,4.34,0,7.09.23,8.76.81a6.14,6.14,0,0,1,4.34,6.15V40.11c.18,2.24-1.13,3.72-3.3,3.68h-1.17a3,3,0,0,1-3.3-3.23Z"></path><path class="cls-2" d="M191.29,28.09c-1.89,0-3.07-1-3.07-2.65s1.18-2.6,3.07-2.6h.91v-2a3.1,3.1,0,0,1,3.38-3h1.23a3.13,3.13,0,0,1,3.34,3.68v1.3h9.43a3,3,0,0,1,2.49.77,2.61,2.61,0,0,1,.76,1.84,2.65,2.65,0,0,1-.76,1.88,3,3,0,0,1-2.49.76h-9.43V35c0,3,.67,3.77,3.47,3.77,2,0,2.85-.45,3.21-1.71a3,3,0,0,1,2.93-2.24h.09a2.93,2.93,0,0,1,3,3v.09c0,4.66-2.53,6.41-9.21,6.41-4.88,0-6.91-.27-8.44-1.21-2.22-1.26-2.94-2.87-2.94-6.46V28.09Z"></path><path class="cls-2" d="M218.46,28.09c-1.9,0-3.07-1-3.07-2.65s1.18-2.6,3.07-2.6h.9v-2a3.11,3.11,0,0,1,3.39-3H224a3.12,3.12,0,0,1,3.34,3.68v1.3h9.44a3,3,0,0,1,2.48.77,2.58,2.58,0,0,1,.77,1.84,2.62,2.62,0,0,1-.77,1.88,3,3,0,0,1-2.48.76h-9.44V35c0,3,.68,3.77,3.48,3.77,2,0,2.85-.45,3.21-1.71a2.94,2.94,0,0,1,2.93-2.24H237a2.93,2.93,0,0,1,3,3v.09c0,4.66-2.53,6.41-9.21,6.41-4.88,0-6.91-.27-8.45-1.21-2.21-1.26-2.93-2.87-2.93-6.46V28.09Z"></path></g></g></svg>