<svg width="859" height="203" viewBox="0 0 859 203" fill="none" xmlns="http://www.w3.org/2000/svg">
<g clip-path="url(#clip0_2_2)">
<path d="M99.2607 184.291C147.743 184.291 187.045 144.988 187.045 96.5062C187.045 48.0241 147.743 8.72156 99.2607 8.72156C50.7786 8.72156 11.4761 48.0241 11.4761 96.5062C11.4761 144.988 50.7786 184.291 99.2607 184.291Z" fill="#FCDD53" stroke="#E42A2B" stroke-width="8.02908"/>
<path d="M158.408 117.114C155.464 120.593 152.788 122.467 147.971 123.27H94.9786C92.3022 121.932 92.0346 120.058 94.9786 118.72H124.954C127.63 118.72 130.039 117.917 131.912 115.508C140.744 103.732 150.915 92.4916 158.676 79.6451C155.197 82.8567 153.056 84.7302 147.971 85.5331H111.304C107.558 85.5331 104.614 86.8713 102.205 90.0829C94.9786 99.4502 87.4848 108.55 80.2586 117.917C61.2565 140.666 48.1423 90.6182 73.8354 98.6472C70.3561 94.0974 66.6092 89.8153 63.1299 85.2654C60.4536 82.5891 56.439 82.3214 53.7626 85.2654C37.7045 105.606 37.4368 136.919 70.8914 139.863H142.083C147.435 132.102 153.056 124.608 158.408 117.114ZM147.435 53.4167C145.027 55.2902 143.421 56.0931 139.674 56.0931H107.29C104.078 56.0931 100.064 57.4313 97.9226 60.1077L77.3146 86.336L83.2026 93.8298L90.4288 84.9978C92.8375 82.3214 95.5139 81.2509 99.2608 81.2509H119.333C129.504 81.2509 142.618 59.3047 147.435 53.4167Z" fill="#478C3E"/>
<path fill-rule="evenodd" clip-rule="evenodd" d="M807.961 71.0807L795.65 116.044H777.986L798.326 42.176H816.258L830.978 86.8713L843.289 42.176H860.953L840.345 116.044H822.681L807.961 71.0807ZM736.77 89.8153H754.166L753.096 63.3193L736.77 89.8153ZM767.548 42.176L773.436 116.044H754.969L754.166 102.394H729.811L721.515 116.044H703.048L749.616 42.176H767.548ZM686.722 56.6284H665.579L669.593 42.176H729.276L725.262 56.6284H704.386L687.792 116.044H670.396L686.722 56.6284ZM612.319 92.224C612.319 100.521 616.601 106.141 625.969 104.535C639.083 101.859 638.012 85.8007 622.489 84.1949C609.375 82.5891 602.684 71.8837 605.896 59.3048C611.516 47.2611 620.883 42.176 634.533 40.5702H634.801C644.971 38.4291 660.226 41.1055 661.832 53.952C662.099 56.0931 662.635 60.3753 661.297 62.5164H644.703C644.703 58.7695 643.9 55.2902 640.153 54.2197C627.842 50.7404 612.319 65.1928 638.28 71.8837C644.971 73.4895 654.07 75.8982 655.944 83.392C658.62 96.5062 650.859 108.817 640.421 114.705C630.786 118.72 616.869 118.988 606.966 117.114C594.655 112.832 592.246 105.071 594.387 92.224H612.319ZM600.008 42.176C593.049 66.7986 586.358 91.4211 579.668 116.044H562.004L582.344 42.176H600.008ZM518.111 71.0807L552.101 42.176H573.512L537.113 72.6866L555.58 116.044H533.902L521.858 84.7302L512.223 92.7593L505.532 116.044H488.136L508.744 42.176H526.14L518.111 71.0807ZM450.667 71.616H485.46L481.713 84.9978H447.188L442.638 101.591H482.248L478.501 116.044H420.959L441.3 42.176H498.039L494.024 56.6284H454.949L450.667 71.616ZM384.293 55.8255L380.011 71.616H393.393C398.21 71.616 402.76 69.4749 404.634 63.8546C405.704 60.3753 404.901 57.6989 401.422 56.3608C396.872 55.0226 389.378 55.8255 384.293 55.8255ZM376.264 84.4625L371.447 102.662C381.349 102.662 395.534 105.606 399.281 93.2945C400.351 86.8713 395.802 84.4625 390.181 84.4625H376.264ZM406.775 42.176C415.874 42.176 425.777 45.6553 423.903 56.6284C422.565 65.1928 415.071 73.2218 407.31 76.1658V76.7011C418.551 76.7011 418.551 91.4211 415.874 98.9149C411.86 110.691 399.281 116.044 387.505 116.044H350.036L370.376 42.176H406.775ZM332.907 56.896H299.185L303.467 42.176H358.6L355.121 55.8255L306.411 101.324H344.683L340.936 116.044H280.986L285.268 100.521L332.907 56.896ZM249.672 42.176C245.658 56.6284 241.375 71.0807 237.361 85.2655C235.755 92.7593 236.023 105.338 246.996 103.732C255.828 102.662 262.786 93.5622 264.66 85.2655C268.407 71.0807 272.154 56.6284 276.168 42.176H293.565C288.212 61.7135 285.268 88.2095 272.689 105.338C263.857 113.903 255.828 117.649 242.714 117.649C221.57 117.649 216.485 108.015 219.162 87.9418C223.176 72.6866 227.458 57.4313 231.741 42.176H249.672Z" fill="#0F477F"/>
<path fill-rule="evenodd" clip-rule="evenodd" d="M621.151 172.515C616.334 172.515 608.037 174.388 606.431 179.473C605.361 181.614 607.234 183.22 609.107 184.023C617.137 184.023 618.475 178.403 621.151 172.515ZM600.543 164.218C600.543 155.654 611.784 152.442 619.01 151.372C625.969 151.372 631.054 151.104 634.533 157.26C634.801 159.133 635.068 160.204 634.801 162.077C633.462 168.768 626.504 183.488 629.18 189.644V189.911H617.404V186.7C593.585 203.828 585.02 172.247 609.643 169.036C611.784 168.5 623.56 167.43 623.56 162.88C623.56 155.386 614.728 158.33 612.051 162.345C612.051 162.88 611.516 163.95 611.516 164.218H600.543Z" fill="#0F477F"/>
<path fill-rule="evenodd" clip-rule="evenodd" d="M769.421 172.515C764.604 172.515 756.307 174.388 754.702 179.473C753.631 181.614 755.504 183.22 757.378 184.023C765.407 184.023 766.745 178.403 769.421 172.515ZM748.814 164.218C748.814 155.654 760.054 152.442 767.28 151.372C774.239 151.372 779.324 151.104 782.803 157.26C783.071 159.133 783.339 160.204 783.071 162.077C781.733 168.768 774.774 183.488 777.451 189.644V189.911H765.675V186.7C741.855 203.828 733.291 172.247 757.913 169.036C760.054 168.5 771.83 167.43 771.83 162.88C771.83 155.386 762.998 158.33 760.322 162.345C760.322 162.88 759.787 163.95 759.787 164.218H748.814Z" fill="#0F477F"/>
<path fill-rule="evenodd" clip-rule="evenodd" d="M716.697 166.894L704.654 189.911H692.878L691.807 152.442H703.851L703.315 175.459L715.091 152.442H726.064L724.994 175.459L737.038 152.442H749.616L727.67 189.911H715.627L716.697 166.894ZM690.736 151.639L688.328 160.471H687.792C684.046 160.471 683.243 160.204 679.763 161.542C674.678 164.486 672.27 168.5 670.664 174.656L666.649 189.911H653.267L665.579 152.442H676.284L674.678 157.527C679.228 153.245 684.848 151.639 690.736 151.639ZM647.112 147.089L649.253 138.257H661.029L658.62 147.089H647.112ZM657.014 152.442L646.844 189.911H635.336L645.774 152.442H657.014ZM782.268 195.799C789.762 195.799 789.227 195.799 793.241 189.376L787.621 152.442H801.27L802.876 175.726L815.187 152.442H827.231L804.214 192.052C798.059 201.955 792.438 203.293 780.127 203.293L782.268 195.799ZM821.878 177.6H832.851C832.316 180.009 832.316 181.079 833.922 182.953C837.936 186.164 842.486 183.488 844.627 179.741C845.698 173.05 832.584 175.191 828.034 170.641C826.963 169.303 826.428 168.5 826.428 166.627C826.428 162.88 827.499 159.401 829.907 156.457C831.513 154.851 833.387 153.78 835.528 152.977C839.007 151.639 842.486 151.372 845.965 151.372C848.374 151.372 850.248 151.372 852.656 151.639C859.347 152.71 859.347 157.527 859.347 162.612H848.909L849.177 161.542C849.177 158.062 846.501 158.062 844.092 158.062C840.88 158.062 838.472 159.401 837.936 162.88C837.936 164.486 838.739 165.289 840.077 165.824C849.712 167.43 859.882 169.303 855.868 180.009C853.995 184.558 850.515 187.77 845.965 189.644C843.021 190.714 839.275 190.982 836.063 190.982C833.387 190.982 830.71 190.982 828.034 190.179C825.625 189.108 824.019 188.038 822.413 186.164C820.808 182.953 820.54 181.347 821.075 177.6H821.878Z" fill="#0F477F"/>
</g>
<defs>
<clipPath id="clip0_2_2">
<rect width="859" height="203" fill="white"/>
</clipPath>
</defs>
</svg>
