<?xml version="1.0" encoding="utf-8"?>
<!-- Generator: Adobe Illustrator 27.4.0, SVG Export Plug-In . SVG Version: 6.00 Build 0)  -->
<!DOCTYPE svg PUBLIC "-//W3C//DTD SVG 1.1//EN" "http://www.w3.org/Graphics/SVG/1.1/DTD/svg11.dtd" [
	<!ENTITY ns_extend "http://ns.adobe.com/Extensibility/1.0/">
	<!ENTITY ns_ai "http://ns.adobe.com/AdobeIllustrator/10.0/">
	<!ENTITY ns_graphs "http://ns.adobe.com/Graphs/1.0/">
	<!ENTITY ns_vars "http://ns.adobe.com/Variables/1.0/">
	<!ENTITY ns_imrep "http://ns.adobe.com/ImageReplacement/1.0/">
	<!ENTITY ns_sfw "http://ns.adobe.com/SaveForWeb/1.0/">
	<!ENTITY ns_custom "http://ns.adobe.com/GenericCustomNamespace/1.0/">
	<!ENTITY ns_adobe_xpath "http://ns.adobe.com/XPath/1.0/">
]>
<svg version="1.1"
	 id="svg2" xmlns:x="&ns_extend;" xmlns:i="&ns_ai;" xmlns:graph="&ns_graphs;" xmlns:rdf="http://www.w3.org/1999/02/22-rdf-syntax-ns#" xmlns:dc="http://purl.org/dc/elements/1.1/" xmlns:svg="http://www.w3.org/2000/svg" xmlns:cc="http://creativecommons.org/ns#"
	 xmlns="http://www.w3.org/2000/svg" xmlns:xlink="http://www.w3.org/1999/xlink" x="0px" y="0px" viewBox="0 0 787.9 186.7"
	 style="enable-background:new 0 0 787.9 186.7;" xml:space="preserve">
<style type="text/css">
	.st0{fill:#0931A8;}
</style>
<metadata  id="metadata8">
	<rdf:RDF>
		<cc:Work  rdf:about="">
			<dc:format>image/svg+xml</dc:format>
			<dc:type  rdf:resource="http://purl.org/dc/dcmitype/StillImage"></dc:type>
		</cc:Work>
	</rdf:RDF>
	<sfw  xmlns="&ns_sfw;">
		<slices></slices>
		<sliceSourceBounds  bottomLeftOrigin="true" height="186.7" width="787.9" x="167.3" y="303.5"></sliceSourceBounds>
	</sfw>
</metadata>
<g id="g10" transform="matrix(1.3333333,0,0,-1.3333333,0,793.7008)">
	<path id="path12" class="st0" d="M210.4,462l4.5,22h8.9c1.5,0,2.7-0.2,3.5-0.5c0.8-0.4,1.4-1,1.9-1.9c0.5-0.9,0.8-1.9,0.8-3
		c0-0.9-0.2-1.8-0.5-2.8c-0.4-0.9-0.8-1.7-1.4-2.3c-0.5-0.6-1.1-1.1-1.7-1.4c-0.6-0.3-1.2-0.5-1.8-0.7c-1.4-0.3-2.7-0.5-4.1-0.5
		h-5.3l-1.8-8.9H210.4z M215.6,473.4h4.7c1.8,0,3.2,0.2,4,0.6c0.9,0.4,1.5,1,2,1.9c0.5,0.8,0.8,1.7,0.8,2.6c0,0.7-0.1,1.3-0.4,1.8
		c-0.3,0.5-0.7,0.8-1.1,1c-0.5,0.2-1.4,0.3-2.9,0.3h-5.5L215.6,473.4z M230.5,462l4.4,22h2.6l-1.7-8.4c1,1,1.9,1.7,2.7,2.1
		c0.8,0.4,1.7,0.6,2.6,0.6c1.3,0,2.3-0.3,3-1c0.7-0.7,1.1-1.6,1.1-2.8c0-0.6-0.2-1.6-0.5-3.1l-1.9-9.4h-2.6l2,9.6
		c0.3,1.4,0.4,2.3,0.4,2.6c0,0.5-0.2,0.9-0.5,1.3c-0.3,0.3-0.9,0.5-1.5,0.5c-0.9,0-1.9-0.3-2.7-0.8c-0.9-0.5-1.5-1.2-2-2.1
		c-0.5-0.9-0.9-2.3-1.3-4.3l-1.4-6.8L230.5,462z M258,463.9c-0.9-0.8-1.8-1.4-2.6-1.8c-0.8-0.4-1.7-0.6-2.7-0.6
		c-1.4,0-2.6,0.4-3.4,1.3c-0.9,0.9-1.3,2-1.3,3.3c0,0.9,0.2,1.7,0.6,2.4c0.4,0.7,0.9,1.2,1.6,1.7c0.7,0.4,1.4,0.7,2.4,0.9
		c0.6,0.1,1.7,0.2,3.4,0.3c1.7,0.1,2.8,0.2,3.6,0.5c0.2,0.7,0.3,1.4,0.3,1.8c0,0.6-0.2,1.1-0.7,1.5c-0.6,0.5-1.5,0.7-2.7,0.7
		c-1.1,0-2-0.2-2.7-0.8c-0.7-0.5-1.2-1.2-1.5-2.1l-2.7,0.2c0.5,1.6,1.4,2.8,2.6,3.6c1.2,0.8,2.7,1.3,4.5,1.3c1.9,0,3.4-0.5,4.5-1.4
		c0.9-0.7,1.3-1.6,1.3-2.7c0-0.8-0.1-1.8-0.4-3l-0.9-4c-0.3-1.3-0.4-2.3-0.4-3.1c0-0.5,0.1-1.2,0.3-2.2h-2.7
		C258.2,462.5,258.1,463.1,258,463.9L258,463.9z M259,470c-0.4-0.1-0.8-0.3-1.2-0.3c-0.4-0.1-1.1-0.2-2.1-0.3
		c-1.5-0.1-2.6-0.3-3.2-0.5c-0.6-0.2-1.1-0.6-1.4-1c-0.3-0.5-0.5-1-0.5-1.6c0-0.8,0.3-1.4,0.8-1.9c0.5-0.5,1.2-0.7,2.2-0.7
		c0.9,0,1.7,0.2,2.5,0.7c0.8,0.5,1.4,1.1,1.9,2C258.4,467.2,258.7,468.5,259,470L259,470z M264.7,462l3.2,15.9h2.3l-0.6-3.2
		c0.8,1.2,1.6,2.1,2.3,2.7c0.8,0.6,1.5,0.9,2.3,0.9c0.5,0,1.2-0.2,1.9-0.6l-1.1-2.5c-0.5,0.3-1,0.5-1.5,0.5c-0.9,0-1.9-0.5-2.8-1.6
		c-1-1.1-1.7-3-2.3-5.7l-1.3-6.4H264.7z M275.2,462l3.2,15.9h2.6l-0.5-2.6c1,1.1,1.8,1.9,2.6,2.3c0.8,0.4,1.6,0.6,2.5,0.6
		c1,0,1.8-0.3,2.4-0.8c0.6-0.5,1.1-1.3,1.3-2.2c0.8,1,1.6,1.7,2.5,2.2c0.9,0.5,1.8,0.7,2.7,0.7c1.3,0,2.3-0.3,2.9-0.9
		c0.6-0.6,1-1.5,1-2.6c0-0.5-0.1-1.3-0.3-2.4L296,462h-2.6l2.1,10.5c0.2,0.9,0.3,1.5,0.3,1.8c0,0.5-0.2,0.9-0.5,1.2
		c-0.3,0.3-0.8,0.5-1.3,0.5c-0.8,0-1.6-0.2-2.4-0.7c-0.8-0.5-1.4-1.1-1.9-1.9c-0.5-0.8-0.8-2-1.2-3.7l-1.6-7.7h-2.6l2.2,10.7
		c0.2,0.7,0.2,1.2,0.2,1.6c0,0.5-0.2,0.9-0.5,1.3c-0.3,0.3-0.7,0.5-1.2,0.5c-0.7,0-1.5-0.2-2.3-0.7c-0.8-0.5-1.5-1.2-2-2
		c-0.5-0.9-0.9-2.1-1.3-3.7l-1.5-7.5L275.2,462z M310.9,463.9c-0.9-0.8-1.8-1.4-2.6-1.8c-0.8-0.4-1.7-0.6-2.7-0.6
		c-1.4,0-2.6,0.4-3.4,1.3c-0.9,0.9-1.3,2-1.3,3.3c0,0.9,0.2,1.7,0.6,2.4c0.4,0.7,0.9,1.2,1.6,1.7c0.6,0.4,1.4,0.7,2.4,0.9
		c0.6,0.1,1.7,0.2,3.4,0.3c1.7,0.1,2.8,0.2,3.6,0.5c0.2,0.7,0.3,1.4,0.3,1.8c0,0.6-0.2,1.1-0.7,1.5c-0.6,0.5-1.5,0.7-2.7,0.7
		c-1.1,0-2-0.2-2.7-0.8c-0.7-0.5-1.2-1.2-1.5-2.1l-2.7,0.2c0.5,1.6,1.4,2.8,2.6,3.6c1.2,0.8,2.7,1.3,4.5,1.3c1.9,0,3.4-0.5,4.5-1.4
		c0.9-0.7,1.3-1.6,1.3-2.7c0-0.8-0.1-1.8-0.4-3l-0.9-4c-0.3-1.3-0.4-2.3-0.4-3.1c0-0.5,0.1-1.2,0.3-2.2h-2.7
		C311.1,462.5,311,463.1,310.9,463.9L310.9,463.9z M311.9,470c-0.4-0.1-0.8-0.3-1.2-0.3c-0.4-0.1-1.1-0.2-2.1-0.3
		c-1.5-0.1-2.6-0.3-3.2-0.5c-0.6-0.2-1.1-0.6-1.4-1c-0.3-0.5-0.5-1-0.5-1.6c0-0.8,0.3-1.4,0.8-1.9c0.5-0.5,1.2-0.7,2.2-0.7
		c0.9,0,1.7,0.2,2.5,0.7c0.8,0.5,1.4,1.1,1.9,2C311.3,467.2,311.6,468.5,311.9,470L311.9,470z M328.3,467.8l2.6-0.3
		c-0.7-2-1.6-3.5-2.8-4.4c-1.2-1-2.6-1.4-4.1-1.4c-1.7,0-3,0.6-4.1,1.7c-1,1.1-1.6,2.7-1.6,4.7c0,1.7,0.3,3.4,1,5.1
		c0.7,1.7,1.6,3,2.9,3.8c1.2,0.9,2.7,1.3,4.3,1.3c1.7,0,3-0.5,3.9-1.4c1-1,1.5-2.2,1.5-3.8l-2.6-0.2c0,1-0.3,1.8-0.8,2.4
		c-0.6,0.6-1.3,0.9-2.2,0.9c-1.1,0-2-0.3-2.7-1c-0.8-0.7-1.4-1.7-1.8-3.1c-0.4-1.4-0.7-2.8-0.7-4.1c0-1.4,0.3-2.4,0.9-3.1
		c0.6-0.7,1.3-1,2.1-1c0.9,0,1.7,0.3,2.4,1C327.2,465.4,327.8,466.4,328.3,467.8L328.3,467.8z M344.4,467.4l2.6-0.3
		c-0.4-1.3-1.2-2.6-2.5-3.7c-1.3-1.2-2.9-1.8-4.7-1.8c-1.1,0-2.2,0.3-3.1,0.8c-1,0.5-1.7,1.3-2.2,2.4c-0.5,1-0.7,2.2-0.7,3.6
		c0,1.7,0.4,3.4,1.2,5.1c0.8,1.6,1.8,2.8,3,3.6c1.2,0.8,2.6,1.2,4,1.2c1.8,0,3.3-0.6,4.4-1.8c1.1-1.2,1.6-2.8,1.6-4.8
		c0-0.8-0.1-1.6-0.2-2.4h-11.4c0-0.3-0.1-0.6-0.1-0.8c0-1.5,0.3-2.6,1-3.4c0.7-0.8,1.5-1.2,2.4-1.2c0.9,0,1.8,0.3,2.7,0.9
		C343.2,465.3,343.9,466.2,344.4,467.4L344.4,467.4z M336.7,471.3h8.7c0,0.3,0,0.5,0,0.6c0,1.4-0.3,2.4-1,3.1
		c-0.7,0.7-1.5,1.1-2.5,1.1c-1.1,0-2.1-0.4-3.1-1.2C337.9,474.1,337.2,472.9,336.7,471.3L336.7,471.3z M360.7,464.8
		c-1.9-2.2-3.7-3.2-5.7-3.2c-1.2,0-2.2,0.4-2.9,1.1c-0.7,0.7-1.1,1.6-1.1,2.6c0,0.7,0.2,1.8,0.5,3.4l1.9,9.2h2.6l-2.1-10.2
		c-0.2-0.8-0.3-1.5-0.3-2c0-0.6,0.2-1.1,0.5-1.4c0.4-0.3,0.9-0.5,1.6-0.5c0.7,0,1.5,0.2,2.2,0.6c0.7,0.4,1.3,0.9,1.8,1.5
		c0.5,0.6,0.9,1.4,1.2,2.2c0.2,0.6,0.5,1.5,0.7,2.9l1.4,6.9h2.6l-3.2-15.9h-2.4L360.7,464.8z M373.4,464.2l-0.4-2.2
		c-0.6-0.2-1.2-0.3-1.8-0.3c-1,0-1.9,0.3-2.5,0.8c-0.5,0.4-0.7,0.9-0.7,1.6c0,0.3,0.1,1.2,0.4,2.4l1.9,9.2h-2.1l0.4,2.1h2.1l0.8,3.9
		l3,1.9l-1.2-5.8h2.6l-0.4-2.1h-2.6L371,467c-0.2-1.1-0.3-1.8-0.3-2c0-0.3,0.1-0.6,0.3-0.7c0.2-0.2,0.5-0.3,0.9-0.3
		C372.4,464,372.9,464,373.4,464.2L373.4,464.2z M379.8,480.9l0.6,3.1h2.6l-0.6-3.1H379.8z M376,462l3.2,15.9h2.6l-3.2-15.9H376z
		 M393.9,467.8l2.6-0.3c-0.7-2-1.6-3.5-2.8-4.4c-1.2-1-2.6-1.4-4.1-1.4c-1.7,0-3,0.6-4.1,1.7c-1,1.1-1.6,2.7-1.6,4.7
		c0,1.7,0.3,3.4,1,5.1c0.7,1.7,1.6,3,2.9,3.8c1.2,0.9,2.7,1.3,4.3,1.3c1.7,0,3-0.5,3.9-1.4c1-1,1.5-2.2,1.5-3.8l-2.6-0.2
		c0,1-0.3,1.8-0.8,2.4c-0.6,0.6-1.3,0.9-2.2,0.9c-1.1,0-2-0.3-2.7-1c-0.8-0.7-1.4-1.7-1.8-3.1c-0.4-1.4-0.7-2.8-0.7-4.1
		c0-1.4,0.3-2.4,0.9-3.1c0.6-0.7,1.3-1,2.1-1c0.9,0,1.7,0.3,2.5,1C392.8,465.4,393.4,466.4,393.9,467.8L393.9,467.8z M409.1,463.9
		c-0.9-0.8-1.8-1.4-2.6-1.8c-0.8-0.4-1.7-0.6-2.7-0.6c-1.4,0-2.6,0.4-3.4,1.3c-0.9,0.9-1.3,2-1.3,3.3c0,0.9,0.2,1.7,0.6,2.4
		c0.4,0.7,0.9,1.2,1.6,1.7c0.6,0.4,1.4,0.7,2.4,0.9c0.6,0.1,1.7,0.2,3.4,0.3c1.7,0.1,2.8,0.2,3.5,0.5c0.2,0.7,0.3,1.4,0.3,1.8
		c0,0.6-0.2,1.1-0.7,1.5c-0.6,0.5-1.5,0.7-2.7,0.7c-1.1,0-2-0.2-2.7-0.8c-0.7-0.5-1.2-1.2-1.5-2.1l-2.7,0.2c0.5,1.6,1.4,2.8,2.6,3.6
		c1.2,0.8,2.7,1.3,4.5,1.3c1.9,0,3.4-0.5,4.5-1.4c0.9-0.7,1.3-1.6,1.3-2.7c0-0.8-0.1-1.8-0.4-3l-0.9-4c-0.3-1.3-0.4-2.3-0.4-3.1
		c0-0.5,0.1-1.2,0.3-2.2h-2.7C409.2,462.5,409.1,463.1,409.1,463.9L409.1,463.9z M410,470c-0.4-0.1-0.8-0.3-1.2-0.3
		c-0.4-0.1-1.1-0.2-2.1-0.3c-1.5-0.1-2.6-0.3-3.2-0.5c-0.6-0.2-1.1-0.6-1.4-1c-0.3-0.5-0.5-1-0.5-1.6c0-0.8,0.3-1.4,0.8-1.9
		c0.5-0.5,1.2-0.7,2.2-0.7c0.9,0,1.7,0.2,2.5,0.7c0.8,0.5,1.4,1.1,1.9,2C409.4,467.2,409.8,468.5,410,470L410,470z M415.6,462
		l4.4,22h2.6l-4.4-22H415.6z M448.2,469.7l2.8-0.4c-0.9-2.5-2.2-4.5-3.9-5.8c-1.7-1.3-3.6-1.9-5.7-1.9c-2.6,0-4.6,0.8-6.2,2.4
		c-1.5,1.6-2.3,4-2.3,7c0,4,1.2,7.2,3.5,9.8c2.1,2.3,4.6,3.5,7.7,3.5c2.3,0,4.1-0.6,5.5-1.9c1.4-1.2,2.2-2.9,2.4-5l-2.7-0.3
		c-0.3,1.6-0.9,2.8-1.7,3.6c-0.9,0.8-2,1.2-3.4,1.2c-2.6,0-4.7-1.2-6.3-3.6c-1.4-2.1-2.1-4.5-2.1-7.3c0-2.3,0.5-4,1.6-5.2
		c1.1-1.2,2.5-1.8,4.2-1.8c1.5,0,2.8,0.5,4,1.5C446.7,466.5,447.6,467.9,448.2,469.7L448.2,469.7z M453.7,468c0,3.1,0.9,5.7,2.7,7.7
		c1.5,1.7,3.4,2.5,5.8,2.5c1.9,0,3.4-0.6,4.5-1.8c1.1-1.2,1.7-2.8,1.7-4.9c0-1.8-0.4-3.5-1.1-5.1c-0.7-1.6-1.7-2.8-3.1-3.6
		c-1.3-0.8-2.7-1.3-4.2-1.3c-1.2,0-2.3,0.3-3.3,0.8c-1,0.5-1.7,1.3-2.3,2.2C454,465.6,453.7,466.7,453.7,468L453.7,468z
		 M456.3,468.3c0-1.5,0.4-2.6,1-3.4c0.7-0.8,1.6-1.2,2.7-1.2c0.6,0,1.1,0.1,1.7,0.4c0.6,0.2,1.1,0.6,1.5,1.1c0.5,0.5,0.9,1,1.2,1.6
		c0.3,0.6,0.6,1.3,0.8,2c0.3,1,0.5,1.9,0.5,2.8c0,1.4-0.4,2.6-1.1,3.4c-0.7,0.8-1.6,1.2-2.6,1.2c-0.8,0-1.6-0.2-2.3-0.6
		c-0.7-0.4-1.3-1-1.8-1.8c-0.5-0.8-0.9-1.7-1.2-2.7C456.5,470,456.3,469.1,456.3,468.3L456.3,468.3z M470.3,462l3.2,15.9h2.6
		l-0.5-2.6c1,1.1,1.8,1.9,2.6,2.3c0.8,0.4,1.6,0.6,2.5,0.6c1,0,1.8-0.3,2.4-0.8c0.6-0.5,1.1-1.3,1.3-2.2c0.8,1,1.6,1.7,2.5,2.2
		c0.9,0.5,1.8,0.7,2.7,0.7c1.3,0,2.3-0.3,2.9-0.9c0.6-0.6,1-1.5,1-2.6c0-0.5-0.1-1.3-0.3-2.4l-2.1-10.2h-2.6l2.1,10.5
		c0.2,0.9,0.3,1.5,0.3,1.8c0,0.5-0.2,0.9-0.5,1.2c-0.3,0.3-0.8,0.5-1.3,0.5c-0.8,0-1.6-0.2-2.4-0.7c-0.8-0.5-1.4-1.1-1.9-1.9
		c-0.5-0.8-0.8-2-1.2-3.7L482,462h-2.6l2.2,10.7c0.2,0.7,0.2,1.2,0.2,1.6c0,0.5-0.2,0.9-0.5,1.3c-0.3,0.3-0.7,0.5-1.2,0.5
		c-0.7,0-1.5-0.2-2.3-0.7c-0.8-0.5-1.5-1.2-2-2c-0.5-0.9-0.9-2.1-1.3-3.7L473,462L470.3,462z M494.4,455.9l4.5,22h2.4l-0.5-2.2
		c0.9,1,1.7,1.6,2.4,2c0.7,0.4,1.5,0.6,2.3,0.6c1.5,0,2.7-0.6,3.7-1.7c1-1.1,1.5-2.7,1.5-4.7c0-1.7-0.3-3.2-0.8-4.5
		c-0.5-1.4-1.2-2.5-2-3.3c-0.8-0.8-1.6-1.4-2.3-1.8c-0.8-0.4-1.6-0.6-2.4-0.6c-1.9,0-3.3,1-4.3,2.9l-1.7-8.6L494.4,455.9z
		 M499.6,468.5c0-1.2,0.1-2,0.2-2.5c0.2-0.6,0.6-1.2,1.2-1.6c0.6-0.4,1.2-0.6,1.9-0.6c1.5,0,2.7,0.9,3.7,2.6
		c0.9,1.8,1.4,3.5,1.4,5.4c0,1.3-0.3,2.4-0.9,3.1c-0.6,0.7-1.4,1.1-2.3,1.1c-0.7,0-1.3-0.2-1.9-0.5c-0.6-0.4-1.1-0.9-1.6-1.6
		c-0.5-0.7-0.9-1.6-1.2-2.7C499.7,470.2,499.6,469.2,499.6,468.5L499.6,468.5z M523.2,463.9c-0.9-0.8-1.8-1.4-2.6-1.8
		c-0.8-0.4-1.7-0.6-2.7-0.6c-1.4,0-2.6,0.4-3.4,1.3c-0.9,0.9-1.3,2-1.3,3.3c0,0.9,0.2,1.7,0.6,2.4c0.4,0.7,0.9,1.2,1.6,1.7
		c0.6,0.4,1.4,0.7,2.4,0.9c0.6,0.1,1.7,0.2,3.4,0.3c1.7,0.1,2.8,0.2,3.6,0.5c0.2,0.7,0.3,1.4,0.3,1.8c0,0.6-0.2,1.1-0.7,1.5
		c-0.6,0.5-1.5,0.7-2.7,0.7c-1.1,0-2-0.2-2.7-0.8c-0.7-0.5-1.2-1.2-1.5-2.1l-2.7,0.2c0.5,1.6,1.4,2.8,2.6,3.6
		c1.2,0.8,2.7,1.3,4.5,1.3c1.9,0,3.4-0.5,4.5-1.4c0.9-0.7,1.3-1.6,1.3-2.7c0-0.8-0.1-1.8-0.4-3l-0.9-4c-0.3-1.3-0.4-2.3-0.4-3.1
		c0-0.5,0.1-1.2,0.3-2.2h-2.7C523.3,462.5,523.2,463.1,523.2,463.9L523.2,463.9z M524.2,470c-0.4-0.1-0.8-0.3-1.2-0.3
		c-0.4-0.1-1.1-0.2-2.1-0.3c-1.5-0.1-2.6-0.3-3.2-0.5c-0.6-0.2-1.1-0.6-1.4-1c-0.3-0.5-0.5-1-0.5-1.6c0-0.8,0.3-1.4,0.8-1.9
		c0.5-0.5,1.2-0.7,2.2-0.7c0.9,0,1.7,0.2,2.5,0.7c0.8,0.5,1.4,1.1,1.9,2C523.5,467.2,523.9,468.5,524.2,470L524.2,470z M529.9,462
		l3.2,15.9h2.4l-0.6-2.8c1,1.1,2,1.9,2.9,2.4c0.9,0.5,1.8,0.8,2.8,0.8c1.2,0,2.2-0.4,2.9-1c0.7-0.7,1.1-1.6,1.1-2.8
		c0-0.6-0.1-1.5-0.4-2.8l-2-9.6h-2.6l2,10.1c0.2,1,0.3,1.7,0.3,2.2c0,0.5-0.2,1-0.5,1.3c-0.4,0.3-0.9,0.5-1.5,0.5
		c-1.4,0-2.5-0.5-3.6-1.5c-1.1-1-1.8-2.7-2.3-5.1l-1.5-7.4L529.9,462z M546,455.8l0.2,2.5c0.5-0.2,1.1-0.2,1.6-0.2
		c0.5,0,1,0.1,1.3,0.4c0.4,0.3,0.9,1,1.4,1.9l0.8,1.6l-2.6,16h2.6l1.2-8c0.2-1.6,0.4-3.2,0.6-4.8l6.9,12.8h2.7l-9.8-18
		c-1-1.8-1.8-2.9-2.5-3.5c-0.7-0.6-1.6-0.9-2.5-0.9C547.2,455.5,546.6,455.6,546,455.8L546,455.8z M440.7,532.1l-2.8-13.6h9.5
		c1.2,0,2.2,0.5,2.8,1.4c0.6,1,1.2,2.7,1.8,5.4c0.6,2.7,0.7,4.5,0.5,5.4c-0.2,0.9-1,1.4-2.3,1.4H440.7z M336.6,532.1l-2.8-13.6h9.5
		c1.2,0,2.2,0.5,2.8,1.4c0.6,1,1.2,2.7,1.8,5.4c0.6,2.7,0.7,4.5,0.5,5.4c-0.2,0.9-1,1.4-2.3,1.4H336.6z M286,532.1l-1.2-5.7h9.3
		c0.6,0,1.1,0.2,1.5,0.6c0.4,0.4,0.6,1.2,0.9,2.2c0.2,1.1,0.2,1.8,0,2.3c-0.2,0.4-0.6,0.6-1.2,0.6H286z M257.7,531.6
		c-0.7-0.6-1.4-2.7-2.2-6.3c-0.8-3.6-0.9-5.7-0.5-6.3c0.4-0.6,2.3-0.9,5.6-0.9c3.3,0,5.3,0.3,6,0.9c0.7,0.6,1.4,2.7,2.2,6.3
		c0.8,3.6,0.9,5.7,0.5,6.3c-0.4,0.6-2.3,0.9-5.6,0.9C260.4,532.5,258.4,532.2,257.7,531.6L257.7,531.6z M174.3,492.8h416.7v65H174.3
		c-11.7,22.3-35.1,37.5-62,37.5c-26.9,0-50.3-15.2-62-37.5H0v-65h50.3c11.7-22.3,35.1-37.5,61.9-37.5h0.1
		C139.2,455.3,162.5,470.5,174.3,492.8L174.3,492.8z M243.8,539.4h6.2l-13.2-28.3h-8.9c0,1.5,0.9,21.3,0.8,21.3
		c-0.1,0-7.4-19.7-8-21.3h-8.9l-1.4,28.3h6.2l0.9-20.9l9.3,20.9h6.9l-0.1-20.9L243.8,539.4z M249.8,525.2c1.4,6.9,2.8,11,4.2,12.3
		c1.5,1.5,5.3,2.2,11.3,2.2c6,0,9.4-0.7,10.3-2.2c0.8-1.4,0.5-5.5-0.9-12.4c-1.4-6.8-2.8-10.9-4.2-12.3c-1.5-1.5-5.3-2.2-11.3-2.2
		c-4.4,0-7.2,0.2-8.5,0.7c-1.6,0.6-2.4,1.9-2.4,4C248.2,516.9,248.7,520.2,249.8,525.2L249.8,525.2z M281.8,539.4h16.9
		c2.1,0,3.4-0.6,4.1-1.8c0.7-1.2,0.7-3.3,0-6.4c-0.5-2.4-1.1-4.2-1.7-5.4c-0.6-1.2-1.5-2-2.6-2.6c0.9-0.7,1.5-1.4,1.7-2.1
		c0.2-0.7,0.1-1.9-0.3-3.7l-1.3-6.3h-5.8l1.1,5.1c0.2,0.7,0.2,1.4,0,1.9c-0.2,0.7-0.6,1-1.3,1h-9.2l-1.7-7.9h-5.8L281.8,539.4
		L281.8,539.4z M310.1,539.4h5.8l-4.4-20.9h13.2l-1.5-7.3h-19L310.1,539.4z M326.4,511.1l5.9,28.3h16.3c3.3,0,5.3-1,5.9-3
		c0.6-1.8,0.3-5.6-0.9-11.2c-1.2-5.6-2.4-9.3-3.8-11.1c-1.5-2-3.9-3-7.2-3H326.4z M375.5,539.4h10.4c0.2-1.5,1.3-19.3,1.4-19.3
		c0.1,0,8.8,18,9.4,19.3h9.9l-5.9-28.3h-5.8c0.4,1.7,4.8,22.3,4.8,22.3c-0.8-0.4-10.9-20.4-11.9-22.3h-4.8c-0.2,1.7-3,22.3-3.1,22.3
		c-0.4,0-4.2-20.4-4.6-22.3h-5.8L375.5,539.4z M411.6,539.4h20.3l-1.4-6.8H416l-0.8-3.9H429l-1.4-6.8h-13.9l-0.8-3.9h14.5l-1.4-6.8
		h-20.3L411.6,539.4z M436.4,539.4h16.3c3.3,0,5.3-1,5.9-3c0.6-1.8,0.3-5.6-0.9-11.2c-1.2-5.6-2.4-9.3-3.8-11.1c-1.5-2-3.9-3-7.2-3
		h-16.3L436.4,539.4z M459.5,511.1l5.9,28.3h5.8l-5.9-28.3H459.5z M475.7,537.5c1.5,1.5,5,2.3,10.4,2.3c5.4,0,8.6-0.7,9.5-2
		c0.8-1.2,0.8-4.2-0.3-9.2h-5.8c0.3,1.6,0.3,2.7-0.2,3.1c-0.6,0.6-2.2,0.8-4.7,0.8c-2.8,0-4.5-0.3-5.2-1c-0.6-0.6-1.3-2.7-2.1-6.3
		c-0.7-3.6-0.9-5.6-0.6-6.3c0.4-0.6,2-0.9,4.8-0.9c2.6,0,4.2,0.2,5,0.7c0.7,0.5,1.3,1.5,1.6,3.3h5.8c-1.1-5-2.2-8.1-3.5-9.2
		c-1.5-1.3-5-2-10.4-2c-5.4,0-8.5,0.7-9.4,2.2c-0.8,1.5-0.5,5.6,0.9,12.3C472.9,532,474.3,536.1,475.7,537.5L475.7,537.5z
		 M495.3,511.1l5.9,28.3h5.8l-5.9-28.3H495.3z M505.7,511.1l5.9,28.3h9.5c0.5-1.8,5.8-22.4,5.9-22.4c0.1,0.1,0.1,0.2,0.1,0.2
		c1.5,7.3,2.6,14.8,4.1,22.2h5.8l-5.9-28.3h-9.5c-0.5,1.8-5.8,22.4-5.9,22.4l-0.1-0.2c-1.5-7.2-2.6-14.9-4.1-22.2H505.7z
		 M542.3,539.4h20.3l-1.4-6.8h-14.5l-0.8-3.9h13.9l-1.4-6.8h-13.9l-0.8-3.9h14.5l-1.4-6.8h-20.3L542.3,539.4z M44.3,525.3
		c0,11.8,3,22.8,8.3,32.5c3.1,5.7,7.1,11,11.6,15.5c12.3,12.3,29.3,19.9,48,19.9h0c18.8,0,35.7-7.6,48-19.9
		c4.6-4.6,8.5-9.8,11.6-15.5c5.3-9.7,8.3-20.7,8.3-32.5v0c0-11.8-3-22.8-8.3-32.5c-3.1-5.7-7.1-11-11.6-15.5
		c-12.3-12.3-29.3-19.9-48-19.9h0c-18.8,0-35.7,7.6-48,19.9c-4.6,4.6-8.5,9.8-11.6,15.5C47.3,502.4,44.3,513.5,44.3,525.3
		L44.3,525.3L44.3,525.3z M126.5,557.7l-21.9-65l-9-26.8c5.3-1.5,10.9-2.3,16.7-2.3h0c17,0,32.4,6.9,43.6,18
		c2.9,2.9,5.6,6.1,7.9,9.6l-0.7,1.5l-14.1,31l-9.8-31l-1.1-3.4l-2.4,0l-0.9,3.4l-8.7,31.1l-10.2-31.1l-1.1-3.3l-12.1-18.6l6.8,21.9
		l14.2,46l2.4,0l5.4-16.7l5.4-16.7l5.4,16.7l5.4,16.7l2.4,0l17.7-40.2c3.9,8.1,6.1,17.1,6.1,26.7v0c0,11.9-3.4,23.1-9.3,32.5
		c-2.5,4-5.5,7.7-8.8,11.1c-5.9,5.9-13,10.6-20.9,13.8L126.5,557.7L126.5,557.7z M61.5,557.7l14.1-31l9.8,31l1.1,3.4l2.4,0l0.9-3.4
		l8.7-31.1l10.2,31.1l1.1,3.3l12.1,18.6l-6.8-21.9l-14.2-46l-2.4,0L93,528.4l-5.4,16.7l-5.4-16.7l-5.4-16.7l-2.4,0l-17.7,40.2
		c-3.9-8.1-6.1-17.1-6.1-26.7v0c0-11.9,3.4-23.1,9.3-32.5c2.5-4,5.5-7.7,8.8-11.1c5.9-5.9,13-10.6,20.9-13.8l8.4,24.8l21.9,65
		l9,26.8c-5.3,1.5-10.9,2.3-16.7,2.3h0c-17,0-32.4-6.9-43.6-18c-2.9-2.9-5.6-6.1-7.9-9.6L61.5,557.7L61.5,557.7z"/>
</g>
</svg>
